<svg width="50" height="50" viewBox="0 0 50 50" fill="none" xmlns="http://www.w3.org/2000/svg">
<g clip-path="url(#clip0_678_54872)">
<path d="M13.2689 38.8868C14.4988 30.614 8.23807 33.1038 4.31085 37.2432C3.20486 40.4223 2.3766 42.7592 2.3766 42.7592C2.07704 43.5607 1.41543 44.4098 0.396729 44.8373C1.26962 45.1418 2.42719 44.9137 2.9916 44.4892C2.89042 45.2599 2.59582 45.8987 2.14152 46.4294C3.20784 46.2647 4.12933 45.859 4.92485 45.24C4.88716 45.9701 4.70465 46.6059 4.3545 47.1346C5.36427 47.0404 6.25304 46.5633 7.07137 45.859C7.0307 46.5186 6.93449 47.1049 6.73213 47.5502C7.76671 47.5195 9.07605 46.8946 9.87454 46.1526C13.5606 45.627 14.4058 42.9438 13.2689 38.8868Z" fill="#E0AC69"/>
<path d="M22.6227 29.057C22.4543 27.0847 20.9284 26.769 19.1222 27.0374C13.6419 23.6805 9.96901 24.5771 7.42642 28.1335C6.41565 31.1599 5.26006 34.5116 4.31079 37.2433C5.2184 36.9973 6.00995 36.4121 6.52674 35.568C6.36903 36.3347 6.44045 37.1025 6.71818 37.8712C7.57818 37.5766 8.18425 36.9963 8.57506 36.173C8.59093 36.9428 8.7794 37.6302 9.17518 38.2214C9.89432 37.8276 10.3992 37.2116 10.7484 36.4379C10.7275 37.1243 10.9219 37.7363 11.3376 38.271C12.0557 37.8702 12.5646 37.3306 12.8592 36.6482C12.8026 37.5002 12.9276 38.2234 13.2688 38.8869L22.6227 31.8344C23.9364 30.9725 23.8678 30.0434 22.6227 29.057Z" fill="#F1C27D"/>
<path d="M13.5397 19.5126C11.1135 20.6444 9.19015 22.7443 8.32519 25.4076C8.04746 26.2646 7.74393 27.1831 7.42651 28.1334C8.28651 27.9618 9.01061 27.3081 9.54526 26.5532C9.45698 27.2377 9.61469 27.8279 10.0511 28.3139C10.7485 28.0828 11.2613 27.6682 11.6045 27.0829C11.7067 27.7485 11.9824 28.304 12.5389 28.6799C13.3007 28.3724 13.7837 27.8269 14.0347 27.0829C14.1696 27.7455 14.5743 28.2722 15.1913 28.6898C15.7944 28.3595 16.1921 27.816 16.4064 27.0829C16.5294 27.81 16.9857 28.3952 17.7068 28.8664C18.4289 28.3952 18.9993 27.7644 19.1223 27.0373C19.4915 22.2906 17.3427 20.0715 13.5397 19.5126Z" fill="#FFDBAC"/>
<path d="M39.6898 37.7838C40.4559 37.0728 40.9943 37.2384 41.3423 38.1369L39.8346 45.2014C38.3704 44.9226 37.8877 44.0441 38.7137 42.3536L39.6898 37.7838Z" fill="#655F68"/>
<path d="M40.9475 49.5996H34.2183V47.1188C35.9114 45.5197 38.4782 45.4389 40.1281 46.1497L40.1301 46.1487C40.4465 47.221 40.7213 48.3696 40.9475 49.5996Z" fill="#F7B6AD"/>
<path d="M15.7883 47.1187V49.5995H9.05908C9.28524 48.3706 9.56 47.2229 9.87444 46.1526C9.87543 46.1516 9.87742 46.1506 9.87841 46.1496C11.8622 45.0951 14.4558 45.236 15.7883 47.1187Z" fill="#F7B6AD"/>
<path d="M39.8346 45.2013C39.4963 44.1796 39.1194 43.2314 38.7137 42.3535C36.8826 38.3948 34.4425 35.8356 32.1244 34.194C31.0645 35.8461 31.0041 37.4153 32.1244 38.8868L34.2183 40.7238C33.2028 42.9884 33.0564 45.1392 34.2183 47.1187C36.221 47.4282 38.7365 47.0314 40.1282 46.1496L40.1302 46.1486C40.0349 45.8253 39.9367 45.5099 39.8346 45.2013Z" fill="#E15C63"/>
<path d="M13.2689 38.8868C11.9397 40.7972 10.7504 43.1808 9.87451 46.1526C9.8755 46.1516 9.87749 46.1506 9.87848 46.1496C11.2701 47.0314 13.7857 47.4282 15.7883 47.1187L17.029 41.559L17.8823 38.8868C19.6147 37.4501 19.4564 35.8742 17.8823 34.194C16.326 35.296 14.7151 36.8118 13.2689 38.8868Z" fill="#E15C63"/>
<path d="M28.971 32.4195C30.0416 34.7689 30.283 36.9683 28.971 38.8868C26.6854 41.0697 24.0076 40.8714 21.0356 38.8868C19.4973 36.9683 19.7804 34.7689 21.0356 32.4195C21.608 32.1735 22.1416 31.982 22.6227 31.8342C22.6227 31.8342 23.1038 33.8201 25.0033 33.8201C26.9029 33.8201 27.3839 31.8342 27.3839 31.8342C27.865 31.9821 28.3987 32.1735 28.971 32.4195Z" fill="#E15C63"/>
<path d="M32.7641 2.5696C31.3298 0.889286 27.3839 0.400269 25.0033 0.400269C22.6227 0.400269 18.6768 0.889286 17.2425 2.5696C15.8082 4.24892 14.2271 9.12025 14.2271 9.12025H35.7795C35.7795 9.12025 34.1984 4.24892 32.7641 2.5696Z" fill="#F1C27D"/>
<path d="M35.7795 9.12025C32.7789 8.39218 29.0473 7.96069 25.0032 7.96069C20.9592 7.96069 17.2275 8.39218 14.227 9.12025C9.87344 10.1757 7.05737 11.856 7.05737 13.7476C7.05737 15.6114 9.79012 17.2699 14.0346 18.3273L35.9749 18.3302L35.9798 18.3263C40.2193 17.2679 42.9491 15.6104 42.9491 13.7476C42.9491 11.856 40.133 10.1757 35.7795 9.12025Z" fill="#E0AC69"/>
<path d="M35.9749 18.3302C36.5225 19.0513 36.6792 20.1434 36.3013 21.18C35.8371 22.4506 34.7182 23.2323 33.6479 23.1033H33.6469C32.133 21.3483 32.1486 19.3417 34.7479 17.5505C34.868 17.5734 34.981 17.6041 35.0981 17.6517C35.4512 17.7936 35.7468 18.0296 35.9749 18.3302Z" fill="#DFA3A5"/>
<path d="M16.3597 23.1033H16.3587C15.9064 23.1579 15.4461 23.0498 15.0295 22.8117V22.8107C14.5177 22.5181 14.0723 22.0271 13.7936 21.3972C13.7619 21.3268 13.7321 21.2544 13.7053 21.18C13.5 20.6176 13.4524 20.0393 13.5397 19.5126C13.6131 19.0662 13.7827 18.6575 14.0346 18.3272C14.2618 18.0277 14.5574 17.7926 14.9085 17.6517C15.0256 17.6041 15.1386 17.5734 15.2587 17.5505C17.1257 19.6666 17.26 21.623 16.3597 23.1033Z" fill="#DFA3A5"/>
<path d="M32.8803 13.1068C30.8498 12.5285 28.1042 11.98 25.0034 11.98C21.9027 11.98 19.157 12.5285 17.1266 13.1068C16.0009 14.4058 15.2224 15.7979 15.2588 17.5506C15.4661 19.6753 15.851 21.6304 16.3598 23.1034C16.5751 23.7273 16.8131 24.2649 17.0691 24.6924C17.5095 25.4255 18.2207 26.2676 19.1223 27.0374C20.0994 27.8716 21.2996 28.6205 22.6228 29.0569V31.8343C22.6228 31.8343 23.1039 33.8201 25.0034 33.8201C26.903 33.8201 27.384 31.8343 27.384 31.8343V29.0569C29.9283 28.2187 32.0213 26.22 32.9378 24.6924C33.1937 24.2649 33.4318 23.7273 33.647 23.1034C34.1559 21.6304 34.5408 19.6753 34.7481 17.5506C34.6755 16.4247 34.3136 14.9427 32.8803 13.1068Z" fill="#F7B6AD"/>
<path d="M48.9344 22.8187C49.3907 22.9159 49.6813 23.3653 49.5841 23.8216L48.0287 31.1062C47.4356 33.8866 44.9776 35.7901 42.2448 35.7881L41.7261 38.2183L41.3422 38.137L39.6897 37.7839L39.3058 37.7025L39.8246 35.2713C37.3289 34.1574 35.8628 31.4167 36.457 28.6364L38.0113 21.3507C38.1095 20.8944 38.5579 20.6038 39.0151 20.701C39.4714 20.7982 39.7621 21.2475 39.6649 21.7038L38.1125 28.9736C38.0996 29.0331 38.0937 29.0917 38.0937 29.1502C38.0937 29.541 38.3664 29.8921 38.7632 29.9764C39.2195 30.0746 39.6688 29.783 39.766 29.3267L41.3184 22.0569C41.4156 21.6007 41.8649 21.309 42.3212 21.4072C42.7775 21.5044 43.0691 21.9538 42.9709 22.4101L41.4196 29.6799C41.3224 30.1361 41.613 30.5855 42.0693 30.6827C42.5256 30.7799 42.9749 30.4893 43.0721 30.032L44.6245 22.7632C44.7217 22.3059 45.171 22.0153 45.6273 22.1125C46.0846 22.2097 46.3752 22.659 46.278 23.1153L44.7256 30.3851C44.7127 30.4446 44.7068 30.5041 44.7068 30.5627C44.7068 30.9535 44.9786 31.3036 45.3763 31.3889C45.8326 31.4862 46.282 31.1945 46.3792 30.7382L47.9305 23.4684C48.0287 23.0122 48.4771 22.7215 48.9344 22.8187Z" fill="#CDC7B9"/>
<path d="M32.3812 38.8868H32.1243H28.971H21.0356H17.8823H17.6254C16.6106 38.8868 15.7883 39.7091 15.7883 40.7239V47.1188V49.5996H34.2182V47.1188V40.7239C34.2182 39.7091 33.3959 38.8868 32.3812 38.8868Z" fill="#1498B7"/>
<path d="M28.9709 38.8869V32.4196C29.941 32.8372 31.0183 33.4105 32.1243 34.1941V38.8869V42.0839C32.1243 42.9548 31.418 43.66 30.5481 43.66C30.1126 43.66 29.7189 43.4835 29.4332 43.1988C29.1475 42.9131 28.9709 42.5193 28.9709 42.0839V38.8869Z" fill="#1EA6BC"/>
<path d="M17.8823 38.8869V34.1941C18.0023 34.1088 18.1224 34.0255 18.2424 33.9461C19.0875 33.3778 19.9118 32.9294 20.6776 32.5793C20.7986 32.5237 20.9176 32.4701 21.0356 32.4196V38.8869V42.0839C21.0356 42.5193 20.8591 42.9131 20.5734 43.1988C20.2877 43.4835 19.8939 43.66 19.4585 43.66C18.5886 43.66 17.8823 42.9548 17.8823 42.0839V38.8869Z" fill="#1EA6BC"/>
<path d="M27.8373 19.9054L28.971 23.1053L27.1151 22.17L26.4426 23.7729L25.0033 22.2602L23.5641 23.7729L22.8915 22.17L21.0356 23.1053L22.1694 19.9054C22.5949 18.7052 23.7297 17.9027 25.0033 17.9027C25.6401 17.9027 26.2422 18.1031 26.7382 18.4542C27.2342 18.8044 27.624 19.3053 27.8373 19.9054Z" fill="#604533"/>
<path d="M35.7676 14.0987C35.7488 15.4329 35.4095 16.5835 34.7479 17.5506C33.7004 16.4248 33.0775 14.9429 32.8801 13.1068C34.1528 13.4689 35.1447 13.8418 35.7676 14.0987Z" fill="#604533"/>
<path d="M14.239 14.0987C14.8619 13.8418 15.8539 13.4689 17.1265 13.1068C16.9291 14.9429 16.3062 16.4248 15.2587 17.5506C14.5971 16.5835 14.2579 15.4329 14.239 14.0987Z" fill="#604533"/>
<path d="M15.7884 47.1188V49.5996H11.7959C12.6202 49.5996 13.1925 48.561 13.5883 47.1952C14.3382 47.2487 15.094 47.2259 15.7884 47.1188Z" fill="#DFA3A5"/>
<path d="M15.7885 41.4041V47.1189C15.0941 47.226 14.3383 47.2489 13.5884 47.1953C14.1589 45.224 14.363 42.5699 14.4293 41.3658C14.4492 41.0056 14.7476 40.724 15.1083 40.724C15.484 40.7239 15.7885 41.0284 15.7885 41.4041Z" fill="#D14B62"/>
<path d="M34.2183 47.1188V49.5996H38.2107C37.3865 49.5996 36.8141 48.561 36.4183 47.1952C35.6685 47.2487 34.9126 47.2259 34.2183 47.1188Z" fill="#DFA3A5"/>
<path d="M34.2183 41.4041V47.1189C34.9126 47.226 35.6685 47.2489 36.4183 47.1953C35.8478 45.224 35.6438 42.5699 35.5774 41.3658C35.5576 41.0056 35.2591 40.724 34.8984 40.724C34.5228 40.7239 34.2183 41.0284 34.2183 41.4041Z" fill="#D14B62"/>
<path d="M27.384 29.0569V30.8552C24.8001 31.5813 22.6228 30.2799 22.6228 30.2799V29.0569C23.3826 29.3068 24.1821 29.4537 25.0034 29.4537C25.8247 29.4537 26.6242 29.3069 27.384 29.0569Z" fill="#DFA3A5"/>
<path d="M28.972 18.344C29.4103 18.344 29.7655 17.9888 29.7655 17.5505C29.7655 17.1122 29.4103 16.757 28.972 16.757C28.5337 16.757 28.1785 17.1122 28.1785 17.5505C28.1785 17.9888 28.5337 18.344 28.972 18.344Z" fill="#3A322B"/>
<path d="M30.5006 14.0677C29.5104 13.3701 28.1988 13.5914 28.1436 13.601C27.9281 13.639 27.7847 13.844 27.8221 14.0595C27.8594 14.2749 28.0644 14.4197 28.2803 14.3826C28.2906 14.3809 29.3268 14.2113 30.0435 14.7163C30.1129 14.7652 30.1927 14.7887 30.2716 14.7887C30.3963 14.7887 30.5191 14.7301 30.5963 14.6204C30.7226 14.4414 30.6797 14.1939 30.5006 14.0677Z" fill="#3A322B"/>
<path d="M21.0365 18.344C21.4747 18.344 21.83 17.9888 21.83 17.5505C21.83 17.1122 21.4747 16.757 21.0365 16.757C20.5982 16.757 20.2429 17.1122 20.2429 17.5505C20.2429 17.9888 20.5982 18.344 21.0365 18.344Z" fill="#3A322B"/>
<path d="M21.728 14.3827C21.9443 14.4199 22.1488 14.2761 22.1867 14.0606C22.2248 13.8447 22.0807 13.639 21.8649 13.6009C21.8096 13.5912 20.4981 13.3699 19.5079 14.0676C19.3287 14.1938 19.2859 14.4414 19.412 14.6205C19.4892 14.7302 19.612 14.7889 19.7367 14.7889C19.8157 14.7889 19.8954 14.7654 19.9648 14.7164C20.6791 14.2132 21.7101 14.3797 21.728 14.3827Z" fill="#3A322B"/>
<path d="M28.2111 19.7731C27.7307 18.4173 26.4416 17.5063 25.0032 17.5063C23.5648 17.5063 22.2757 18.4173 21.7954 19.7731L20.6615 22.973C20.6073 23.1258 20.6516 23.2961 20.7732 23.4032C20.8949 23.5104 21.0694 23.5328 21.2141 23.4598L22.6904 22.7156L23.1981 23.9265C23.2499 24.0501 23.3606 24.139 23.4923 24.1632C23.6243 24.1875 23.7591 24.1435 23.8515 24.0465L25.0031 22.8358L26.1548 24.0465C26.2304 24.1259 26.3346 24.1698 26.4422 24.1698C26.466 24.1698 26.49 24.1677 26.5139 24.1632C26.6457 24.139 26.7563 24.05 26.8081 23.9265L27.3159 22.7156L28.7922 23.4598C28.9372 23.5328 29.1115 23.5104 29.2331 23.4032C29.3547 23.2961 29.3989 23.1258 29.3448 22.973L28.2111 19.7731ZM27.2934 21.8155C27.1952 21.7659 27.0807 21.7595 26.9774 21.7975C26.8742 21.8356 26.7914 21.9148 26.7488 22.0163L26.3113 23.0595L25.2907 21.9867C25.2157 21.9079 25.1118 21.8634 25.0032 21.8634C24.8946 21.8634 24.7907 21.9079 24.7158 21.9867L23.6952 23.0595L23.2576 22.0163C23.2151 21.9148 23.1323 21.8356 23.0291 21.7975C22.9257 21.7594 22.8114 21.7659 22.7131 21.8155L21.7397 22.3062L22.5435 20.038C22.9119 18.9984 23.9004 18.2999 25.0033 18.2999C26.1062 18.2999 27.0948 18.9984 27.4632 20.038L28.2669 22.3062L27.2934 21.8155Z" fill="#3A322B"/>
<path d="M49.7998 22.9696C49.6194 22.6912 49.3413 22.4997 49.0168 22.4305C48.6923 22.3615 48.3603 22.4225 48.0819 22.603C47.8036 22.7834 47.6121 23.0615 47.5428 23.3859L45.9908 30.6556C45.9393 30.8975 45.6994 31.0524 45.4587 31.0005C45.3415 30.9755 45.2411 30.9064 45.176 30.8059C45.1108 30.7054 45.0887 30.5855 45.1137 30.4683L46.6656 23.1986C46.7349 22.8742 46.6737 22.5422 46.4932 22.2639C46.3128 21.9855 46.0347 21.794 45.7102 21.7247C45.3862 21.6553 45.0539 21.7166 44.7754 21.8971C44.497 22.0776 44.3056 22.3556 44.2362 22.6801L42.6846 29.9497C42.6596 30.0668 42.5904 30.1672 42.49 30.2324C42.3894 30.2976 42.2694 30.3195 42.1524 30.2946C42.0353 30.2696 41.9349 30.2004 41.8696 30.0999C41.8045 29.9995 41.7824 29.8795 41.8074 29.7624L43.3594 22.4927C43.5023 21.8229 43.0738 21.1617 42.4041 21.0188C41.7339 20.8759 41.0731 21.3044 40.9302 21.9741L39.3782 29.2438C39.3532 29.361 39.2841 29.4613 39.1836 29.5265C39.0831 29.5916 38.963 29.6136 38.8461 29.5888C38.6043 29.5371 38.4496 29.2984 38.5011 29.0565L40.0531 21.7868C40.196 21.1172 39.7674 20.456 39.0977 20.3129C38.7734 20.2437 38.4413 20.3049 38.1629 20.4853C37.8845 20.6658 37.693 20.9439 37.6237 21.2684L36.0685 28.5532C35.4728 31.3438 36.8541 34.2099 39.3715 35.4945L38.9179 37.6194C38.8959 37.7223 38.9159 37.8297 38.9731 37.9181C39.0294 38.005 39.1176 38.066 39.2186 38.0888L38.563 41.1594C35.2396 34.7845 30.366 32.3963 27.7803 31.5444V29.3394C30.3737 28.3923 32.4179 26.3299 33.278 24.8964C33.5073 24.5141 33.7232 24.048 33.9226 23.5117C35.0782 23.4883 36.2009 22.6117 36.6741 21.3158C37.0217 20.3637 36.9602 19.3648 36.5831 18.579C40.8887 17.4222 43.3456 15.674 43.3456 13.7477C43.3456 12.0157 41.3813 10.4285 37.8145 9.27841C37.2665 9.10164 36.6894 8.93778 36.0874 8.78691C35.7609 7.81532 34.3778 3.84882 33.0657 2.31174C31.6112 0.608117 27.8135 0.00354004 25.0033 0.00354004C22.1931 0.00354004 18.3954 0.608116 16.941 2.31184C15.6289 3.84892 14.2459 7.81532 13.9193 8.78701C13.3173 8.93788 12.7402 9.10174 12.1922 9.2785C8.62545 10.4286 6.66114 12.0158 6.66114 13.7478C6.66114 15.6742 9.11793 17.4222 13.4237 18.5791C13.3244 18.7861 13.2471 19.0078 13.1933 19.2397C10.7094 20.4581 8.8031 22.651 7.94747 25.2856C5.77962 31.9616 2.03978 42.5212 2.00447 42.621C1.69667 43.4461 1.03833 44.138 0.24321 44.4716C0.0918429 44.5352 -0.00486948 44.6855 0.000189325 44.8496C0.00524813 45.0138 0.110888 45.1579 0.266024 45.2121C0.958683 45.4539 1.76264 45.4072 2.41175 45.2052C2.28072 45.5584 2.09126 45.8783 1.8402 46.1716C1.73228 46.2977 1.71423 46.4777 1.79497 46.6226C1.87572 46.7675 2.03829 46.8472 2.20206 46.8217C2.99252 46.6998 3.72823 46.447 4.39887 46.0674C4.31346 46.3839 4.18808 46.6678 4.02392 46.9164C3.93961 47.0438 3.93604 47.2082 4.0147 47.3392C4.09316 47.4702 4.24006 47.544 4.39212 47.5302C5.14053 47.4598 5.85848 47.1985 6.568 46.7361C6.51771 46.9923 6.45234 47.208 6.3712 47.3869C6.31476 47.5116 6.32647 47.6568 6.40235 47.7707C6.47605 47.8813 6.60014 47.9475 6.73256 47.9475C6.73653 47.9475 6.7405 47.9475 6.74446 47.9473C7.49733 47.9247 8.40058 47.6196 9.19005 47.15C8.99583 47.907 8.82095 48.6988 8.66859 49.5281C8.64737 49.6439 8.67871 49.7633 8.754 49.8538C8.82938 49.9443 8.94107 49.9966 9.05882 49.9966H40.9477C41.0656 49.9966 41.1771 49.9443 41.2525 49.8538C41.3279 49.7633 41.3592 49.644 41.3379 49.5281C41.0478 47.9492 40.677 46.505 40.2438 45.183L41.6477 38.6075C41.6735 38.6126 41.6997 38.6157 41.7257 38.6157C41.8018 38.6157 41.8766 38.5939 41.9415 38.5518C42.0298 38.4946 42.0918 38.4046 42.1137 38.3017L42.5672 36.1768C45.3895 36.032 47.8211 33.9799 48.4169 31.1895L49.9721 23.9046C50.0415 23.58 49.9803 23.248 49.7998 22.9696ZM39.659 45.9637C38.4042 46.6344 36.3525 46.9633 34.6151 46.7711V40.724C34.6151 39.5393 33.6879 38.5676 32.5212 38.495V34.9961C35.1601 37.0532 37.9624 40.434 39.659 45.9637ZM13.2551 36.6739C13.2679 36.4812 13.1401 36.3073 12.9522 36.262C12.7643 36.2165 12.5713 36.3132 12.4949 36.4906C12.2785 36.9923 11.936 37.4016 11.4527 37.7338C11.2316 37.349 11.1304 36.9258 11.1448 36.4498C11.1506 36.2608 11.0219 36.0939 10.8375 36.0513C10.6532 36.0087 10.4644 36.1023 10.3866 36.2747C10.1141 36.8781 9.7603 37.3365 9.31067 37.6656C9.09492 37.2298 8.98353 36.7352 8.97143 36.1648C8.96756 35.9809 8.83772 35.8237 8.65778 35.7852C8.47785 35.7468 8.29514 35.8369 8.21628 36.0032C7.92386 36.6197 7.5133 37.059 6.96775 37.3362C6.82025 36.7633 6.80249 36.1971 6.91547 35.6481C6.95435 35.4593 6.85189 35.2699 6.67275 35.1991C6.49341 35.1283 6.28927 35.1965 6.18859 35.3608C5.88238 35.8605 5.46379 36.2642 4.97309 36.5435C5.84162 34.0403 6.84108 31.132 7.73311 28.4659C8.31686 28.2967 8.80935 27.9505 9.20542 27.5656C9.30213 27.9398 9.48594 28.2787 9.75604 28.5793C9.86138 28.6967 10.0259 28.7406 10.1761 28.6908C10.6719 28.5264 11.0933 28.275 11.4362 27.94C11.6294 28.3852 11.9241 28.743 12.3173 29.0084C12.4267 29.0823 12.5657 29.0968 12.6876 29.0476C13.2372 28.8261 13.6743 28.488 13.9945 28.0378C14.2239 28.4064 14.5494 28.7346 14.9687 29.0186C15.092 29.1022 15.2516 29.1096 15.3818 29.0381C15.7905 28.8142 16.1237 28.5028 16.3787 28.1076C16.6317 28.5155 17.0031 28.8805 17.4902 29.1987C17.5561 29.2417 17.6317 29.2633 17.7073 29.2633C17.7829 29.2633 17.8584 29.2417 17.9243 29.1987C18.4194 28.8752 19.0088 28.3764 19.3223 27.7051C20.165 28.3591 21.1484 28.9454 22.2265 29.3391V31.5441C21.8607 31.6646 21.4484 31.8165 21.0019 32.0054L20.7985 30.4645C20.7697 30.2472 20.5713 30.0943 20.3532 30.123C20.136 30.1517 19.9831 30.3511 20.0118 30.5683L20.2466 32.3471C19.7178 32.6019 19.1541 32.9068 18.5696 33.2708L18.277 30.5357C18.2538 30.3178 18.058 30.161 17.8403 30.1834C17.6225 30.2067 17.4648 30.4023 17.488 30.6201L17.8239 33.7611C16.3587 34.7768 14.8065 36.1701 13.3777 38.0752C13.2606 37.655 13.2204 37.1974 13.2551 36.6739ZM18.2789 34.4116C19.1096 33.8356 19.9098 33.3875 20.6388 33.0391V42.0837C20.6388 42.7344 20.1095 43.2637 19.4588 43.2637C18.8081 43.2637 18.2788 42.7344 18.2788 42.0837V34.4116H18.2789ZM17.4854 34.9961V38.495C16.3186 38.5675 15.3915 39.5393 15.3915 40.724V46.7711C13.6539 46.9632 11.6025 46.6344 10.3476 45.9637C12.0442 40.434 14.8465 37.0532 17.4854 34.9961ZM16.1851 40.724C16.1851 39.977 16.7567 39.3614 17.4854 39.2908V42.0837C17.4854 43.172 18.3707 44.0573 19.4589 44.0573C20.5472 44.0573 21.4324 43.172 21.4324 42.0837V39.2836H28.5743V42.0837C28.5743 43.172 29.4596 44.0573 30.5478 44.0573C31.636 44.0573 32.5213 43.172 32.5213 42.0837V39.2908C33.2501 39.3614 33.8216 39.977 33.8216 40.724V49.2029H16.1851V40.724ZM29.3677 33.0391C30.0967 33.3875 30.897 33.8356 31.7276 34.4116V42.0837C31.7276 42.7344 31.1983 43.2637 30.5476 43.2637C29.8969 43.2637 29.3676 42.7344 29.3676 42.0837V33.0391H29.3677ZM28.5742 32.6856V38.4901H21.4323V32.6855C21.7692 32.5462 22.0838 32.4298 22.371 32.3327C22.7031 33.1429 23.5212 34.2174 25.0033 34.2174C26.4853 34.2174 27.3034 33.1429 27.6355 32.3327C27.9227 32.4298 28.2373 32.5463 28.5742 32.6856ZM26.9867 31.7812C26.9106 32.0441 26.4427 33.4239 25.0033 33.4239C23.5638 33.4239 23.0959 32.0441 23.0198 31.7812V29.5868C23.6568 29.7538 24.3204 29.8503 25.0033 29.8503C25.6861 29.8503 26.3497 29.7538 26.9867 29.5868V31.7812ZM32.5975 24.488C31.5376 26.2544 28.5388 29.0566 25.0033 29.0566C21.4678 29.0566 18.4689 26.2544 17.409 24.488C16.621 23.1747 15.9748 20.6396 15.6711 17.6835C16.6485 16.5739 17.2587 15.1425 17.4873 13.4222C19.4672 12.8775 22.0822 12.3765 25.0033 12.3765C27.9244 12.3765 30.5393 12.8776 32.5193 13.4222C32.7478 15.1425 33.358 16.5739 34.3355 17.6835C34.0317 20.6397 33.3855 23.1747 32.5975 24.488ZM14.0781 21.0436C13.6382 19.839 14.0156 18.5543 14.9162 18.0866C15.1115 19.8352 15.4188 21.4088 15.8079 22.689C15.0782 22.5449 14.3973 21.9179 14.0781 21.0436ZM15.3115 16.8762C14.9152 16.1439 14.6936 15.3014 14.6463 14.3642C15.1459 14.1667 15.824 13.9191 16.6484 13.6661C16.4337 14.9307 15.9859 16.0068 15.3115 16.8762ZM34.695 16.8762C34.0207 16.0067 33.5729 14.9307 33.358 13.6661C34.1824 13.919 34.8605 14.1667 35.3601 14.3642C35.3129 15.3013 35.0913 16.1438 34.695 16.8762ZM35.9285 21.0436C35.6094 21.9178 34.9279 22.5447 34.1989 22.689C34.5878 21.4088 34.8951 19.8353 35.0905 18.0867C35.991 18.5543 36.3684 19.8391 35.9285 21.0436ZM17.5445 2.82705C18.9125 1.2246 22.8766 0.797077 25.0033 0.797077C27.1299 0.797077 31.0941 1.2246 32.462 2.82705C33.5181 4.06427 34.6889 7.19329 35.1732 8.57246C32.1934 7.91709 28.6807 7.56436 25.0032 7.56436C21.3256 7.56436 17.8129 7.91709 14.8331 8.57246C15.3176 7.19329 16.4884 4.06437 17.5445 2.82705ZM7.45468 13.7478C7.45468 11.1449 14.5062 8.3581 25.0033 8.3581C35.5004 8.3581 42.5518 11.145 42.5518 13.7478C42.5518 15.3019 40.1489 16.8405 36.1115 17.8824C35.8963 17.6515 35.6411 17.4625 35.3507 17.3291C35.7878 16.5494 36.0504 15.6651 36.1348 14.6888C36.2596 14.7449 36.3277 14.7778 36.3332 14.7806C36.3895 14.8083 36.4492 14.8214 36.5081 14.8214C36.6546 14.8214 36.7953 14.74 36.8644 14.5998C36.9612 14.4033 36.8803 14.1655 36.6838 14.0687C36.4779 13.9672 31.5633 11.5828 25.0034 11.5828C18.4434 11.5828 13.5288 13.9672 13.3229 14.0687C13.1264 14.1655 13.0455 14.4033 13.1424 14.5998C13.2391 14.7964 13.4769 14.8773 13.6734 14.7806C13.679 14.7779 13.7471 14.7449 13.8718 14.6888C13.9561 15.6651 14.2187 16.5494 14.6559 17.329C14.3654 17.4624 14.1104 17.6513 13.895 17.8823C9.85751 16.8404 7.45468 15.302 7.45468 13.7478ZM13.1068 20.1801C13.1217 20.5446 13.1916 20.917 13.3215 21.2831C12.0936 22.3821 11.115 23.7757 10.4847 25.3292C10.4024 25.5322 10.5002 25.7636 10.7032 25.846C10.7521 25.8658 10.8026 25.8751 10.8523 25.8751C11.009 25.8751 11.1575 25.7816 11.2201 25.6275C11.7675 24.2782 12.6343 23.0161 13.6835 22.0286C13.921 22.4041 14.2188 22.7211 14.5527 22.9656C14.2913 23.7184 14.0724 24.536 13.9017 25.4015C13.8593 25.6164 13.9992 25.8251 14.2142 25.8675C14.2401 25.8727 14.2659 25.8751 14.2913 25.8751C14.477 25.8751 14.6429 25.7441 14.6802 25.555C14.8342 24.7739 15.0288 24.035 15.2591 23.3519C15.5263 23.4516 15.8042 23.5059 16.084 23.5116C16.2835 24.0479 16.4993 24.514 16.7287 24.8963C17.136 25.5753 17.8099 26.3951 18.6811 27.171C18.5455 27.5925 18.209 28.0121 17.708 28.3831C17.1845 27.9888 16.8859 27.54 16.7975 27.0169C16.7666 26.8346 16.614 26.6978 16.4295 26.6869C16.244 26.6764 16.0774 26.7943 16.0255 26.9716C15.8634 27.5255 15.5951 27.9335 15.2085 28.2114C14.7763 27.8676 14.5186 27.4706 14.4235 27.0038C14.3877 26.8281 14.2384 26.6981 14.0594 26.687C13.879 26.6752 13.7161 26.7862 13.6588 26.9561C13.4612 27.5415 13.111 27.9571 12.5914 28.2207C12.2692 27.9398 12.0783 27.5536 11.9964 27.0225C11.9708 26.8566 11.8435 26.7247 11.6786 26.6933C11.5134 26.6618 11.3468 26.7375 11.262 26.8825C11.0072 27.3174 10.6529 27.6321 10.1837 27.8388C9.9565 27.4925 9.87626 27.0863 9.93895 26.6051C9.96246 26.4244 9.85979 26.2508 9.68998 26.1844C9.52056 26.1181 9.32713 26.1758 9.22169 26.3246C8.9504 26.7075 8.55988 27.1575 8.06987 27.4551C8.29107 26.7884 8.50324 26.1432 8.70222 25.5306C9.44081 23.2562 11.0282 21.3385 13.1068 20.1801ZM7.30579 47.075C7.38594 46.736 7.43921 46.3412 7.46688 45.8832C7.4765 45.724 7.38991 45.5745 7.24697 45.5037C7.10423 45.433 6.93263 45.4545 6.81182 45.5585C6.22837 46.061 5.65226 46.4012 5.06712 46.5868C5.21075 46.1867 5.29586 45.7436 5.32135 45.2616C5.32959 45.1065 5.24656 44.9609 5.10888 44.889C4.97111 44.8172 4.80427 44.8321 4.68166 44.9274C4.17618 45.3201 3.61733 45.6173 3.01206 45.8157C3.20013 45.4234 3.32501 44.9974 3.38522 44.541C3.40605 44.3826 3.32987 44.2271 3.192 44.1465C3.05412 44.0661 2.88123 44.0759 2.75347 44.172C2.49398 44.367 2.05277 44.5171 1.58439 44.564C2.10048 44.1223 2.50568 43.5478 2.75019 42.8921C2.76735 42.8437 3.55772 40.6118 4.61818 37.5646C5.15372 37.389 5.64383 37.1064 6.06311 36.7346C6.09753 37.1559 6.19157 37.5805 6.34492 38.0056C6.41852 38.2092 6.642 38.3165 6.84653 38.2463C7.43316 38.0457 7.92743 37.7202 8.32469 37.2741C8.43599 37.6998 8.60977 38.0903 8.84496 38.4419C8.95923 38.6126 9.18479 38.6679 9.36522 38.5694C9.80901 38.3265 10.1947 37.9975 10.5192 37.5861C10.6318 37.9166 10.8003 38.2268 11.0241 38.5149C11.1444 38.6697 11.3598 38.7133 11.5309 38.6179C11.9128 38.4046 12.2425 38.1533 12.5182 37.8659C12.5781 38.2159 12.6778 38.5456 12.8169 38.8586C11.5387 40.7339 10.389 43.0568 9.52928 45.9294C8.91608 46.4713 8.06392 46.9034 7.30579 47.075ZM10.1219 46.7397C11.2501 47.2989 12.8313 47.6203 14.3617 47.6203C14.7097 47.6203 15.0546 47.6023 15.3915 47.5681V49.2029H9.53831C9.70882 48.3394 9.90493 47.5201 10.1219 46.7397ZM34.6151 49.2029V47.5681C34.9519 47.6023 35.2967 47.6203 35.6449 47.6203C37.1752 47.6203 38.7566 47.2988 39.8848 46.7397C40.1017 47.5201 40.2978 48.3394 40.4683 49.203H34.6151V49.2029ZM39.1278 42.3143L39.9945 38.2549L40.8716 38.4422L39.7363 43.7603C39.5423 43.2592 39.3393 42.7769 39.1278 42.3143ZM49.1961 23.7388L47.6409 31.0237C47.1005 33.5551 44.833 35.3914 42.2484 35.3913C42.2471 35.3913 42.2461 35.3909 42.2447 35.3913C42.0575 35.3913 41.8957 35.5222 41.8566 35.7053L41.4206 37.7479L39.7768 37.3969L40.2129 35.3542C40.252 35.171 40.1576 34.9855 39.9866 34.9092C37.6254 33.8548 36.3039 31.2514 36.8446 28.7188L38.3998 21.4339C38.4248 21.3168 38.4939 21.2164 38.5945 21.1512C38.695 21.086 38.8146 21.064 38.9319 21.0889C39.1738 21.1406 39.3285 21.3794 39.2769 21.6212L37.725 28.8909C37.582 29.5605 38.0105 30.2217 38.6803 30.3648C39.3503 30.508 40.0112 30.0792 40.1542 29.4095L41.7061 22.1398C41.7577 21.8979 41.9977 21.7434 42.2383 21.7949C42.3554 21.8199 42.4557 21.889 42.521 21.9895C42.5861 22.09 42.6082 22.2099 42.5832 22.327L41.0312 29.5967C40.962 29.9212 41.0232 30.2532 41.2036 30.5315C41.3841 30.8099 41.6622 31.0014 41.9867 31.0706C42.3108 31.14 42.6429 31.0788 42.9214 30.8982C43.1999 30.7178 43.3913 30.4398 43.4606 30.1153L45.0126 22.8456C45.0376 22.7285 45.1067 22.6281 45.2072 22.5629C45.3079 22.4977 45.4278 22.4759 45.5448 22.5007C45.6619 22.5257 45.7623 22.5949 45.8276 22.6954C45.8926 22.7959 45.9148 22.9158 45.8898 23.033L44.3378 30.3027C44.2686 30.6271 44.3298 30.9591 44.5102 31.2375C44.6906 31.5158 44.9688 31.7073 45.2932 31.7766C45.9632 31.9194 46.6242 31.491 46.7671 30.8213L48.3191 23.5516C48.3707 23.3097 48.6106 23.1551 48.8512 23.2066C48.9684 23.2316 49.0688 23.3007 49.1339 23.4012C49.199 23.5018 49.2211 23.6216 49.1961 23.7388Z" fill="#3A322B"/>
<path d="M15.3345 30.1887C15.119 30.147 14.911 30.2873 14.8693 30.5025L14.0689 34.6181C14.027 34.8331 14.1675 35.0415 14.3826 35.0833C14.4082 35.0882 14.4337 35.0907 14.4588 35.0907C14.645 35.0907 14.8111 34.9591 14.848 34.7696L15.6482 30.654C15.6901 30.4389 15.5495 30.2305 15.3345 30.1887Z" fill="#3A322B"/>
<path d="M12.2072 30.0601C11.9926 30.0143 11.7821 30.1512 11.7364 30.3654L10.8667 34.4445C10.821 34.6589 10.9577 34.8696 11.172 34.9153C11.1999 34.9212 11.2278 34.9241 11.2552 34.9241C11.4385 34.9241 11.6031 34.7963 11.6428 34.61L12.5125 30.5309C12.5582 30.3165 12.4216 30.1057 12.2072 30.0601Z" fill="#3A322B"/>
<path d="M9.20702 29.8931C8.99604 29.8332 8.77673 29.9557 8.71711 30.1665L7.66726 33.8669C7.60745 34.0777 7.72995 34.2971 7.94073 34.3569C7.97694 34.3672 8.01334 34.3721 8.04925 34.3721C8.22214 34.3721 8.38125 34.2581 8.43084 34.0835L9.48049 30.3831C9.54031 30.1723 9.4178 29.9529 9.20702 29.8931Z" fill="#3A322B"/>
<path d="M6.5054 39.4236C6.30434 39.3356 6.07064 39.4273 5.98276 39.628L4.43397 43.1681C4.34619 43.3688 4.43774 43.6028 4.63851 43.6906C4.69028 43.7133 4.74425 43.7239 4.79741 43.7239C4.95027 43.7239 5.09598 43.6351 5.16115 43.4862L6.70994 39.9461C6.79762 39.7453 6.70607 39.5113 6.5054 39.4236Z" fill="#3A322B"/>
<path d="M9.18475 39.6278C8.97704 39.5583 8.75217 39.6703 8.68254 39.8782L7.35991 43.8346C7.29048 44.0424 7.40266 44.2672 7.61037 44.3367C7.65213 44.3507 7.69458 44.3573 7.73634 44.3573C7.90229 44.3573 8.05693 44.2524 8.11258 44.0862L9.43521 40.1298C9.50464 39.922 9.39246 39.6972 9.18475 39.6278Z" fill="#3A322B"/>
</g>
<defs>
<clipPath id="clip0_678_54872">
<rect width="50" height="50" fill="white"/>
</clipPath>
</defs>
</svg>
