<svg width="50" height="50" viewBox="0 0 50 50" fill="none" xmlns="http://www.w3.org/2000/svg">
<g clip-path="url(#clip0_910_5937)">
<path d="M48.4375 28.0859V29.7266C48.4375 32.4922 47.2813 35.1172 45.2734 37.0078L42.2344 36.5469C43.2109 34.9375 43.75 33.0625 43.75 31.125V28.25C43.75 26.6328 43.375 25.0625 42.6875 23.6563C42.1797 22.6094 41.4844 21.6563 40.6328 20.8359L40.6406 20.8281C41.0781 20.0312 41.9141 19.5312 42.8438 19.5312C43.3828 19.5312 43.9062 19.7031 44.3437 20.0234C46.9219 21.9297 48.4375 24.9141 48.4375 28.0859Z" fill="#FCD770"/>
<path d="M39.7188 20.0312C40.0469 20.2812 40.3594 20.5469 40.6328 20.8359C41.4844 21.6563 42.1797 22.6094 42.6875 23.6563C43.375 25.0625 43.75 26.6328 43.75 28.25V31.125C43.75 33.0625 43.2109 34.9375 42.2344 36.5469L34.9063 35.4219V35.4141C34.5547 34.0625 34.375 32.6797 34.375 31.2734V28.1016C34.375 27.0156 34.4844 25.9297 34.6953 24.8672C35.0781 24.9531 35.4922 25 35.9375 25C37.6641 25 39.0625 24.2969 39.0625 23.4375C39.0625 22.8828 38.4844 22.3984 37.6172 22.125L37.8516 19.5625C37.9766 19.5391 38.1094 19.5312 38.2422 19.5312C38.7734 19.5312 39.2969 19.7109 39.7188 20.0312Z" fill="#FCD770"/>
<path d="M30.2891 19.8672C30.7031 20.1016 31.0391 20.4453 31.2656 20.875V20.8828C29.2734 22.7969 28.125 25.4531 28.125 28.25V31.125C28.125 32.2734 28.3203 33.3984 28.6875 34.4609L24.3047 33.7891C23.7422 32.5234 23.4375 31.1484 23.4375 29.7266V28.0859C23.4375 27.5 23.4922 26.9141 23.5938 26.3438C23.625 26.1797 23.6562 26.0156 23.6953 25.8516C24.2266 23.5469 25.5703 21.4766 27.5313 20.0234C27.9688 19.7031 28.4922 19.5312 29.0312 19.5312C29.4844 19.5312 29.9141 19.6484 30.2891 19.8672Z" fill="#FCD770"/>
<path d="M34.0234 19.5469L34.2578 22.125C33.3906 22.3984 32.8125 22.8828 32.8125 23.4375C32.8125 24.0781 33.5859 24.625 34.6953 24.8672C34.4844 25.9297 34.375 27.0156 34.375 28.1016V31.2734C34.375 32.6797 34.5547 34.0625 34.9062 35.4141L30 34.6641L28.6875 34.4609C28.3203 33.3984 28.125 32.2734 28.125 31.125V28.25C28.125 25.4531 29.2734 22.7969 31.2656 20.8828V20.875C31.5781 20.5703 31.9063 20.2891 32.2578 20.0312C32.6953 19.7109 33.2266 19.5312 33.7734 19.5312C33.8594 19.5312 33.9375 19.5391 34.0156 19.5469H34.0234Z" fill="#FCD770"/>
<path d="M39.0625 23.4375C39.0625 24.2969 37.6641 25 35.9375 25C35.4922 25 35.0781 24.9531 34.6953 24.8672C33.5859 24.625 32.8125 24.0781 32.8125 23.4375C32.8125 22.8828 33.3906 22.3984 34.2578 22.125L34.0234 19.5469L33.6016 14.9453C33.5937 14.875 33.5938 14.8125 33.5938 14.7422C33.5938 13.5 34.5937 12.5 35.8359 12.5H36.0391C36.6563 12.5 37.2188 12.75 37.625 13.1563C38.0312 13.5625 38.2812 14.125 38.2812 14.7422C38.2812 14.8125 38.2813 14.875 38.2734 14.9453L37.8516 19.5625L37.6172 22.125C38.4844 22.3984 39.0625 22.8828 39.0625 23.4375Z" fill="#CF9E76"/>
<path d="M18.6797 4.78906C18.9531 4.72656 19.2422 4.6875 19.5312 4.6875C20.8047 4.6875 21.9453 5.29687 22.6562 6.25L22.6406 6.32812C22.3906 6.27344 22.1406 6.25 21.875 6.25C20.2578 6.25 18.875 7.22656 18.2812 8.625C18.1797 8.61719 18.0781 8.59375 17.9688 8.59375C16.0078 8.59375 14.3984 10.0469 14.1172 11.9297C11.8359 12.5859 10.1562 14.6875 10.1562 17.1875C10.1562 19.3203 11.375 21.1562 13.1562 22.0625C12.7422 22.6797 12.5 23.4219 12.5 24.2187C12.5 25.6094 13.2344 26.8203 14.3281 27.5156C14.1641 27.9453 14.0625 28.4141 14.0625 28.9062C14.0625 31.0625 15.8125 32.8359 17.9688 32.8359C17.7656 32.8203 17.5703 32.8125 17.375 32.8125H17.1875C15.6641 32.8125 14.2422 33.25 13.0391 34.0078L10.9375 28.125C8.78125 28.125 7.03125 26.375 7.03125 24.2187C7.03125 23.7266 7.13281 23.2578 7.29688 22.8281C6.20313 22.1328 5.46875 20.9219 5.46875 19.5312C5.46875 18.7344 5.71094 17.9922 6.125 17.375C4.34375 16.4687 3.125 14.6328 3.125 12.5C3.125 10 4.80469 7.89844 7.08594 7.24219C7.36719 5.35938 8.97656 3.90625 10.9375 3.90625C11.0469 3.90625 11.1484 3.92969 11.25 3.9375C11.8438 2.53906 13.2266 1.5625 14.8438 1.5625C16.7656 1.5625 18.3594 2.95312 18.6797 4.78906Z" fill="#8CC152"/>
<path d="M29.3438 16.0156C30.0391 16.7188 30.4688 17.6875 30.4688 18.75C30.4688 19.1172 30.4141 19.4766 30.3203 19.8125L30.2891 19.8672C29.9141 19.6484 29.4844 19.5312 29.0312 19.5312C28.4922 19.5312 27.9688 19.7031 27.5313 20.0234C25.5703 21.4766 24.2266 23.5469 23.6953 25.8516C23.6562 26.0156 23.625 26.1797 23.5938 26.3438C23.4922 26.9141 23.4375 27.5 23.4375 28.0859V29.7266C23.4375 31.1484 23.7422 32.5234 24.3047 33.7891L18.5625 32.9062C18.3594 32.875 18.1641 32.8516 17.9688 32.8359C15.8125 32.8359 14.0625 31.0625 14.0625 28.9062C14.0625 28.4141 14.1641 27.9453 14.3281 27.5156C13.2344 26.8203 12.5 25.6094 12.5 24.2188C12.5 23.4219 12.7422 22.6797 13.1562 22.0625C11.375 21.1562 10.1562 19.3203 10.1562 17.1875C10.1562 14.6875 11.8359 12.5859 14.1172 11.9297C14.3984 10.0469 16.0078 8.59375 17.9688 8.59375C18.0781 8.59375 18.1797 8.61719 18.2812 8.625C18.875 7.22656 20.2578 6.25 21.875 6.25C22.1406 6.25 22.3906 6.27344 22.6406 6.32813C24.2109 6.64063 25.4375 7.89063 25.7109 9.47656C25.9844 9.41406 26.2734 9.375 26.5625 9.375C28.7188 9.375 30.4688 11.125 30.4688 13.2812C30.4688 14.3438 30.0391 15.3125 29.3438 16.0156Z" fill="#B4DD7F"/>
<path d="M5.3125 39.0625H9.53125C9.42969 39.5625 9.375 40.0859 9.375 40.625C9.375 41.1641 9.42969 41.6875 9.53125 42.1875H5.3125H3.125C2.69531 42.1875 2.30469 42.0156 2.02344 41.7266C1.73437 41.4453 1.5625 41.0547 1.5625 40.625C1.5625 39.7656 2.26562 39.0625 3.125 39.0625H5.3125Z" fill="#B4DD7F"/>
<path d="M5.61719 35.9688L10.2656 37.0078C9.92969 37.6484 9.67969 38.3359 9.53125 39.0625H5.3125C4.53906 39.0625 3.90625 38.4297 3.90625 37.6563V37.3437C3.90625 36.5703 4.53906 35.9375 5.3125 35.9375C5.41406 35.9375 5.51562 35.9453 5.61719 35.9688Z" fill="#B4DD7F"/>
<path d="M10.2656 44.2422L5.61719 45.2812C5.51562 45.3047 5.41406 45.3125 5.3125 45.3125C4.53906 45.3125 3.90625 44.6797 3.90625 43.9063V43.5937C3.90625 42.8203 4.53906 42.1875 5.3125 42.1875H9.53125C9.67969 42.9141 9.92969 43.6016 10.2656 44.2422Z" fill="#B4DD7F"/>
<path d="M47.5625 38.25C47.0078 37.6094 46.2344 37.1562 45.3516 37.0234L45.2734 37.0078L42.2344 36.5469L34.9062 35.4219V35.4141L30 34.6641L28.6875 34.4609L24.3047 33.7891L18.5625 32.9062C18.3594 32.875 18.1641 32.8516 17.9688 32.8359C17.7656 32.8203 17.5703 32.8125 17.375 32.8125H17.1875C15.6641 32.8125 14.2422 33.25 13.0391 34.0078C11.8672 34.7422 10.9063 35.7812 10.2656 37.0078C9.92969 37.6484 9.67969 38.3359 9.53125 39.0625C9.42969 39.5625 9.375 40.0859 9.375 40.625C9.375 41.1641 9.42969 41.6875 9.53125 42.1875C9.67969 42.9141 9.92969 43.6016 10.2656 44.2422C10.6328 44.9453 11.1094 45.5938 11.6641 46.1484C13.0781 47.5625 15.0312 48.4375 17.1875 48.4375H17.375C17.7656 48.4375 18.1641 48.4063 18.5625 48.3438L30 46.5859L45.3516 44.2266C47.125 43.9531 48.4375 42.4219 48.4375 40.625C48.4375 39.7266 48.1094 38.8906 47.5625 38.25Z" fill="#FF826E"/>
<path d="M49.2188 28.0852C49.2188 24.6836 47.5695 21.4352 44.807 19.3961C44.2438 18.9789 43.5453 18.75 42.8414 18.75C41.9602 18.75 41.1344 19.1023 40.5281 19.7016C40.4148 19.607 40.3117 19.5031 40.1945 19.4133C39.7609 19.082 39.2406 18.8852 38.7062 18.8039L39.0508 15.0156C39.0586 14.925 39.0625 14.8336 39.0625 14.7422C39.0625 13.075 37.7062 11.7188 36.0391 11.7188H35.8359C34.1688 11.7188 32.8125 13.075 32.8125 14.7422C32.8125 14.8336 32.8164 14.925 32.825 15.0164L33.1711 18.8211C32.6758 18.9148 32.1969 19.1062 31.7922 19.4078C31.6523 19.5125 31.5281 19.6328 31.3937 19.743C31.3242 19.6711 31.2508 19.6039 31.175 19.5391C31.2195 19.2789 31.25 19.0156 31.25 18.75C31.25 17.7578 30.9406 16.8086 30.3672 16.0156C30.9406 15.2227 31.25 14.2742 31.25 13.2812C31.25 10.6062 28.9867 8.43828 26.2898 8.60234C25.7883 7.16484 24.6188 6.08125 23.1813 5.66328C22.2297 4.47656 20.7953 3.81797 19.2586 3.91484C18.6117 2.06094 16.8602 0.78125 14.8438 0.78125C13.1523 0.78125 11.6125 1.68594 10.7828 3.12734C8.71406 3.19687 6.92578 4.65703 6.41328 6.64609C3.99453 7.54844 2.34375 9.88984 2.34375 12.5C2.34375 14.593 3.37344 16.5062 5.07734 17.6625C4.82031 18.2492 4.6875 18.8836 4.6875 19.5312C4.6875 20.9375 5.3125 22.2445 6.38516 23.1297C6.29531 23.4922 6.25 23.857 6.25 24.2188C6.25 26.6125 8.05469 28.5938 10.375 28.8727L12.1031 33.7125C11.218 34.3648 10.4641 35.1812 9.88359 36.1187L5.79063 35.2094C5.63516 35.1734 5.475 35.1562 5.31406 35.1562C4.10703 35.1562 3.125 36.1383 3.125 37.3453V37.6547C3.125 37.8734 3.16719 38.0812 3.22734 38.2812H3.125C1.83281 38.2812 0.78125 39.3328 0.78125 40.625C0.78125 41.9172 1.83281 42.9688 3.125 42.9688H3.22734C3.16719 43.1688 3.125 43.3766 3.125 43.5953V43.9047C3.125 45.1117 4.10703 46.0938 5.31406 46.0938C5.475 46.0938 5.63516 46.0766 5.78906 46.0414L9.88359 45.1313C11.4 47.5797 14.1023 49.2188 17.1875 49.2188H17.3711C17.8055 49.2188 18.2453 49.1852 18.6773 49.1188L45.4672 44.9977C47.6406 44.6625 49.2188 42.8242 49.2188 40.625C49.2188 38.8664 48.2008 37.3531 46.6852 36.6398C48.3039 34.7062 49.2188 32.2531 49.2188 29.7273V28.0852ZM39.2445 20.6547C41.5766 22.4375 42.9688 25.2773 42.9688 28.2531V31.1227C42.9688 32.7242 42.5695 34.2922 41.8172 35.6914L35.5523 34.7273C35.2945 33.5938 35.1562 32.4359 35.1562 31.2734V28.1016C35.1562 27.3141 35.2352 26.5273 35.3547 25.7477C35.5461 25.7641 35.7367 25.7812 35.9375 25.7812C38.1648 25.7812 39.8438 24.7734 39.8438 23.4375C39.8438 22.7 39.3336 22.0453 38.45 21.6156L38.5648 20.3516C38.8086 20.4008 39.043 20.4992 39.2445 20.6547ZM35.8359 13.2812H36.0398C36.8453 13.2812 37.5008 13.9367 37.5008 14.7422C37.5008 14.7867 37.4992 14.8313 37.4945 14.875L36.7852 22.6773L37.3812 22.8687C38.0656 23.0875 38.2812 23.3758 38.2812 23.4375C38.2812 23.632 37.45 24.2188 35.9375 24.2188C34.425 24.2188 33.5938 23.632 33.5938 23.4375C33.5938 23.3758 33.8094 23.0875 34.4938 22.868L35.0898 22.6766L34.3805 14.875C34.3766 14.8305 34.375 14.7859 34.375 14.7422C34.375 13.9367 35.0305 13.2812 35.8359 13.2812ZM33.3125 20.3773L33.425 21.6156C32.5414 22.0453 32.0312 22.7 32.0312 23.4375C32.0312 24.2984 32.7336 25.018 33.825 25.4242C33.6852 26.3109 33.5938 27.2063 33.5938 28.1016V31.2734C33.5938 32.3469 33.6969 33.4188 33.8969 34.4727L29.2914 33.7641C29.0406 32.9055 28.9062 32.0203 28.9062 31.1219V28.2523C28.9062 25.2812 30.3344 22.4422 32.7266 20.6594C32.9008 20.5297 33.1016 20.4344 33.3125 20.3773ZM24.8695 33.0836C24.4453 32.0102 24.2188 30.8859 24.2188 29.7273V28.0844C24.2188 25.1766 25.6312 22.3984 27.9961 20.6516C28.293 20.4328 28.6617 20.3125 29.0336 20.3125C29.5055 20.3125 29.9398 20.5023 30.2578 20.8203C28.4156 22.8391 27.3438 25.4906 27.3438 28.2531V31.1227C27.3438 31.9281 27.4398 32.725 27.6141 33.5062L24.8695 33.0836ZM24.943 9.61016L25.0852 10.4141L25.882 10.2367C26.1242 10.1828 26.3469 10.1562 26.5625 10.1562C28.2859 10.1562 29.6875 11.5578 29.6875 13.2812C29.6875 14.1023 29.3688 14.8789 28.7906 15.468L28.2531 16.0156L28.7906 16.5633C29.3688 17.1523 29.6875 17.9289 29.6875 18.75C29.6875 18.7734 29.6828 18.7969 29.6828 18.8211C29.4711 18.7789 29.2555 18.75 29.0336 18.75C28.3297 18.75 27.6313 18.9789 27.068 19.3953C25.6461 20.4445 24.5266 21.8172 23.7672 23.3633C23.4711 22.4414 23.1602 21.5586 22.8398 20.7203C23.5625 16.9031 26.243 14.6937 26.2703 14.6711L25.7812 14.0625L25.293 13.4523C25.1844 13.5391 23.0711 15.2648 21.8844 18.3781C20.2586 14.6453 18.7242 12.2305 18.6258 12.0773L17.3109 12.9227C17.332 12.9547 18.5234 14.8289 19.9102 17.8125C17.5734 16.9328 14.918 17.1758 14.7656 17.1914L14.9211 18.7461C16.0961 18.6281 19.4242 18.6852 20.9789 20.2719C21.5266 21.618 22.0664 23.0938 22.543 24.675C20.168 23.457 17.3344 23.4375 17.1875 23.4375V25C17.2242 25 20.7023 25.0234 22.7609 26.6602C22.6969 27.1305 22.6562 27.6055 22.6562 28.0852V29.7281C22.6562 30.7836 22.8188 31.8156 23.1203 32.8156L18.6773 32.132C18.443 32.0961 18.2062 32.0719 17.9688 32.0547C16.2453 32.0547 14.8438 30.6422 14.8438 28.907C14.8438 28.543 14.9164 28.1695 15.0586 27.7953L15.2867 27.1977L14.7453 26.8555C13.8289 26.2758 13.2812 25.2906 13.2812 24.2188C13.2812 23.6039 13.4617 23.0078 13.8031 22.4937L14.2898 21.7625L13.507 21.3648C11.9219 20.5586 10.9375 18.9586 10.9375 17.1875C10.9375 15.1086 12.3344 13.257 14.3352 12.6844L14.8203 12.5453L14.893 12.0461C15.1156 10.5234 16.4383 9.375 17.9688 9.375C17.9977 9.375 18.0258 9.38125 18.0539 9.38516C18.1086 9.39297 18.1641 9.4 18.2195 9.40391L18.7797 9.44922L19 8.93203C19.493 7.77734 20.6211 7.03125 21.875 7.03125C23.3891 7.03125 24.6789 8.11562 24.943 9.61016ZM11.4883 27.3438H10.9375C9.21406 27.3438 7.8125 25.9422 7.8125 24.2188C7.8125 23.8539 7.88516 23.4805 8.02734 23.1078L8.25625 22.5102L7.71484 22.168C6.79766 21.5883 6.25 20.6031 6.25 19.5312C6.25 18.9164 6.43047 18.3203 6.77188 17.8062L7.25859 17.075L6.47578 16.6773C4.89062 15.8711 3.90625 14.2711 3.90625 12.5C3.90625 10.4211 5.30312 8.56953 7.30312 7.99687L7.78828 7.85781L7.86094 7.35859C8.08438 5.83594 9.40703 4.6875 10.9375 4.6875C10.9672 4.6875 10.9961 4.69375 11.025 4.69766C11.0781 4.70469 11.1312 4.71172 11.1859 4.71641L11.7484 4.76328L11.9695 4.24375C12.4617 3.08984 13.5898 2.34375 14.8438 2.34375C16.3578 2.34375 17.6477 3.42813 17.9117 4.92266L18.0539 5.72656L18.8508 5.54922C19.093 5.49531 19.3156 5.46875 19.5312 5.46875C19.8906 5.46875 20.232 5.54766 20.5586 5.66172C19.4102 5.99766 18.4211 6.76016 17.8141 7.81484C15.7453 7.88438 13.957 9.34453 13.4445 11.3336C11.0258 12.2359 9.375 14.5773 9.375 17.1875C9.375 19.2805 10.4047 21.1938 12.1086 22.35C11.8516 22.9367 11.7188 23.5711 11.7188 24.2188C11.7188 25.625 12.3438 26.932 13.4164 27.818C13.3266 28.1805 13.2812 28.5445 13.2812 28.9062C13.2812 30.2789 13.8719 31.5125 14.807 32.3734C14.343 32.5078 13.8969 32.682 13.4688 32.8891L11.4883 27.3438ZM4.6875 37.6547V37.3453C4.6875 36.9531 5.06719 36.6508 5.45078 36.7336L9.16875 37.5602C9.07812 37.7961 8.99687 38.0359 8.92734 38.2812H5.31406C4.96875 38.2812 4.6875 38 4.6875 37.6547ZM2.34375 40.625C2.34375 40.1945 2.69453 39.8438 3.125 39.8438H5.31406H8.63281C8.61016 40.1016 8.59375 40.3609 8.59375 40.625C8.59375 40.8891 8.61016 41.1484 8.63359 41.4062H5.31406H3.125C2.69453 41.4062 2.34375 41.0555 2.34375 40.625ZM5.44922 44.5164C5.07891 44.5961 4.6875 44.2961 4.6875 43.9047V43.5953C4.6875 43.25 4.96875 42.9688 5.31406 42.9688H8.92656C8.99609 43.2141 9.07812 43.4539 9.16797 43.6898L5.44922 44.5164ZM47.6562 40.625C47.6562 42.0477 46.6359 43.2367 45.2305 43.4531L18.4414 47.5742C18.0867 47.6289 17.7266 47.6562 17.3711 47.6562H17.1875C13.3109 47.6562 10.1562 44.5016 10.1562 40.625C10.1562 36.7484 13.3109 33.5938 17.1875 33.5938H17.3711C17.7266 33.5938 18.0867 33.6211 18.4406 33.675L45.2297 37.7961C46.6359 38.0133 47.6562 39.2023 47.6562 40.625ZM47.6562 29.7273C47.6562 32.1305 46.6836 34.4555 44.9914 36.1789L43.4391 35.9398C44.1523 34.4414 44.5312 32.7984 44.5312 31.1219V28.2523C44.5312 25.4758 43.4734 22.8109 41.6562 20.7891C41.9719 20.4914 42.3906 20.3125 42.8414 20.3125C43.2141 20.3125 43.582 20.4328 43.8789 20.6531C46.2438 22.3984 47.6562 25.1773 47.6562 28.0852V29.7273Z" fill="black"/>
<path d="M16.4062 36.7188H17.9688V44.5312H16.4062V36.7188Z" fill="black"/>
<path d="M22.6562 36.7188H24.2188V44.5312H22.6562V36.7188Z" fill="black"/>
<path d="M28.9062 36.7188H30.4688V44.5312H28.9062V36.7188Z" fill="black"/>
<path d="M35.1562 38.2812H36.7188V42.9688H35.1562V38.2812Z" fill="black"/>
<path d="M41.4062 39.0625H42.9688V42.1875H41.4062V39.0625Z" fill="black"/>
</g>
<defs>
<clipPath id="clip0_910_5937">
<rect width="50" height="50" fill="white"/>
</clipPath>
</defs>
</svg>
