<svg width="60" height="60" viewBox="0 0 60 60" fill="none" xmlns="http://www.w3.org/2000/svg">
<g clip-path="url(#clip0_672_54002)">
<path d="M25.7454 8.34356L22.3323 9.9014C22.1331 9.99232 21.9386 10.0901 21.7475 10.1928V8.62896V7.47951C21.7475 6.00802 22.2095 4.57352 23.0683 3.37855L23.8792 2.25015C24.3224 1.63359 23.6611 0.828989 22.9703 1.14423L20.5782 2.236C18.0748 3.37855 16.4687 5.8772 16.4687 8.62896C16.4687 5.8772 14.8625 3.37866 12.3592 2.236L9.96711 1.14423C9.27636 0.828989 8.6151 1.63359 9.05824 2.25015L9.86917 3.37855C10.728 4.57352 11.1898 6.00791 11.1898 7.47951V8.62896V10.1928C10.9987 10.0901 10.8042 9.9922 10.6051 9.9014L7.19195 8.34356C6.20632 7.89375 5.26293 9.04168 5.89505 9.92153L7.05211 11.5316C8.27739 13.2366 8.93655 15.2833 8.93655 17.383V19.0231H24.0007V17.383C24.0007 15.2833 24.6598 13.2366 25.8851 11.5316L27.0422 9.92153C27.6745 9.04168 26.731 7.89363 25.7454 8.34356Z" fill="#97DA7B"/>
<path d="M10.6048 9.90107L7.19147 8.34358C6.65202 8.09668 6.12662 8.32954 5.8645 8.73442L8.42131 9.90107C9.99519 10.5365 10.9992 10.2533 11.1899 10.1924C10.9992 10.0895 10.8038 9.99234 10.6048 9.90107ZM12.3589 2.23649L9.9671 1.14472C9.48733 0.925903 9.02278 1.24653 8.93151 1.66896L10.1754 2.23649C12.6784 3.37857 16.4685 6.7428 16.4685 8.6291C16.4685 5.87687 14.8631 3.37857 12.3589 2.23649ZM22.97 1.14472L21.822 1.66896C21.863 1.85501 21.8302 2.06213 21.6945 2.25053L20.8836 3.37857C20.8754 3.39027 20.8672 3.40197 20.8578 3.41484C19.5859 5.20871 19.6935 7.64148 21.0731 9.3546L21.7472 10.1924V7.48C21.7472 6.00793 22.2094 4.57331 23.0683 3.37857L23.8792 2.25053C24.3227 1.63385 23.6615 0.828779 22.97 1.14472ZM25.7456 8.34358L24.8891 8.73442C25.1079 9.06908 25.1441 9.52311 24.8575 9.92096L23.7013 11.5311C22.4762 13.236 21.8162 15.2827 21.8162 17.3831V19.0225H24.0009V17.3831C24.0009 15.2827 24.6597 13.236 25.8849 11.5311L27.0422 9.92096C27.674 9.04217 26.7309 7.89307 25.7456 8.34358Z" fill="#80D261"/>
<path d="M16.4353 52.1918C10.4171 52.1918 5.04248 48.4247 2.98943 42.7674L2.88996 42.4932C0.681861 36.4088 0.681861 29.7419 2.88996 23.6575L2.98943 23.3834C5.04248 17.7261 10.4171 13.959 16.4353 13.959H16.5715C22.5558 13.959 27.9075 17.6842 29.9855 23.2961C32.2339 29.3681 32.2764 36.0371 30.1058 42.1373L29.9115 42.683C27.8831 48.3841 22.4866 52.1918 16.4353 52.1918Z" fill="#FFD15B"/>
<path d="M31.7029 32.882C31.7029 36.0122 31.1705 39.1424 30.1057 42.1368L29.9114 42.6833C27.8835 48.3843 22.4867 52.192 16.4358 52.192C15.8484 52.192 15.2668 52.1558 14.6946 52.0856C20.0188 51.4326 24.5942 47.8297 26.4243 42.6833L26.6186 42.1368C27.6846 39.1424 28.2158 36.011 28.2158 32.8808C28.2158 29.6336 27.6436 26.3876 26.4992 23.296C24.6176 18.214 20.0516 14.6801 14.7624 14.0575C15.3136 13.992 15.8718 13.9592 16.4358 13.9592H16.5715C22.5558 13.9592 27.9081 17.6839 29.9851 23.296C31.1307 26.3876 31.7029 29.6348 31.7029 32.882Z" fill="#FFC344"/>
<path d="M50.8742 8.47778C61.8716 19.4752 61.8717 37.3072 50.8742 48.3046C39.8766 59.3021 22.0448 59.3021 11.0474 48.3046L14.2845 45.0675L32.9691 29.1603L47.6357 11.7162L50.8742 8.47778Z" fill="#97DA7B"/>
<path d="M50.8737 48.3049C44.9457 54.2329 37.0307 56.9652 29.2725 56.503C35.9061 56.1063 42.4263 53.3728 47.4943 48.3049C57.9228 37.8763 58.4622 21.3021 49.1138 10.2382L50.8737 8.47827C61.8721 19.4755 61.8721 37.3076 50.8737 48.3049Z" fill="#80D261"/>
<path d="M47.6369 11.7151C56.8472 20.9253 56.8472 35.8575 47.6369 45.0676C38.4267 54.2777 23.4947 54.2779 14.2844 45.0676L30.9607 28.3913L47.6369 11.7151Z" fill="#EE6161"/>
<path d="M28.8637 58.9263C34.8107 58.9263 39.6317 54.1054 39.6317 48.1584C39.6317 42.2114 34.8107 37.3904 28.8637 37.3904C22.9167 37.3904 18.0957 42.2114 18.0957 48.1584C18.0957 54.1054 22.9167 58.9263 28.8637 58.9263Z" fill="#FFD15B"/>
<path d="M39.6321 48.1585C39.6321 54.1053 34.811 58.9264 28.8642 58.9264C28.3482 58.9264 27.8392 58.8901 27.343 58.8187C32.5701 58.0803 36.5897 53.5892 36.5897 48.1585C36.5897 42.7277 32.5701 38.2367 27.343 37.4983C27.8392 37.4269 28.3482 37.3906 28.8642 37.3906C34.811 37.3906 39.6321 42.2117 39.6321 48.1585Z" fill="#FFC344"/>
<path d="M13.6846 58.5793L13.5449 58.5343C12.7733 58.2864 11.9541 58.2864 11.1826 58.5343C6.91427 59.906 2.46928 57.0871 1.37389 52.3138L1.36195 52.262C0.832801 49.9564 0.832801 47.5408 1.36195 45.2353L1.41016 45.0251C2.49163 40.3124 6.84464 37.493 11.0803 38.7616L11.2591 38.8152C11.9825 39.0319 12.7449 39.0319 13.4682 38.8152L13.7849 38.7204C17.9671 37.4678 22.2754 40.2009 23.4189 44.8317L23.457 44.9864C24.0651 47.4493 24.0651 50.048 23.457 52.5109C22.2987 57.2019 17.8993 59.9337 13.6846 58.5793Z" fill="#F79595"/>
<path d="M23.4568 52.5104C22.6002 55.9776 19.9743 58.3753 16.96 58.8422C18.7106 57.4181 20.0352 55.0497 20.6624 52.5104C21.2709 50.0484 21.2709 47.4495 20.6624 44.9863L20.625 44.8318C19.8948 41.8736 18.2799 39.4561 16.1187 38.4216C19.4653 38.5539 22.489 41.065 23.4193 44.8318L23.4568 44.9863C24.0652 47.4495 24.0652 50.0484 23.4568 52.5104Z" fill="#F47C7C"/>
<path d="M60 28.3913C60 20.6345 56.9794 13.342 51.4948 7.85735C51.1519 7.51473 50.5963 7.51473 50.2536 7.85735L19.6218 38.489C17.3441 37.2863 15.2625 37.6351 12.8746 38.0532C11.7909 34.1431 9.07369 32.6288 8.93046 32.5517C8.5037 32.3218 7.97151 32.4816 7.74169 32.9084C7.51187 33.3351 7.67148 33.8673 8.09836 34.0971C8.12375 34.1107 9.96571 35.1391 10.9523 37.8174C8.11521 37.1135 5.09208 38.0864 3.06887 40.1594C0.289609 30.0241 3.6316 14.8185 16.5716 14.8366C22.3282 14.8366 27.4103 18.625 29.3084 24.0043C29.4694 24.4614 29.971 24.7015 30.4278 24.5403C30.885 24.3791 31.1249 23.878 30.9637 23.4209C29.8524 20.2654 27.8261 17.5405 25.0413 15.6667C25.2907 14.3646 25.8232 13.1217 26.598 12.0437L27.755 10.4337C28.8662 8.88721 27.1492 6.73902 25.3811 7.54503L22.6253 8.80296C22.5649 6.44707 23.1637 4.63682 24.592 2.76233C25.0262 2.15794 25.0006 1.36551 24.5281 0.790604C24.0556 0.215467 23.283 0.0371342 22.606 0.345707C20.1518 1.46591 17.7846 2.46043 16.4688 5.01584C15.1629 2.47974 12.7732 1.46006 10.3316 0.345707C9.65468 0.0365492 8.88202 0.215584 8.40962 0.790487C7.93711 1.36551 7.91136 2.15782 8.34561 2.76233C9.76678 4.63858 10.3782 6.44262 10.3124 8.80296L7.55634 7.54503C5.82414 6.75459 4.04865 8.8555 5.18254 10.4337L6.3396 12.0437C7.1249 13.1364 7.66083 14.3978 7.90586 15.719C-0.13914 21.1913 -1.00857 33.3705 1.75033 41.8722C-0.460233 45.5263 -0.560867 51.0548 1.35727 54.8379C1.57656 55.2701 2.10465 55.4429 2.53691 55.2238C2.96917 55.0046 3.142 54.4764 2.92283 54.0441C0.80261 49.8617 1.43707 42.7656 5.81747 40.2162C7.73479 39.1003 9.41549 39.356 11.4396 39.761C11.5164 40.284 11.5615 40.8469 11.5615 41.4564C11.5615 41.9412 11.9543 42.334 12.4391 42.334C12.9239 42.334 13.3167 41.9412 13.3167 41.4564C13.3167 40.861 13.2806 40.3011 13.2156 39.7743C15.2836 39.394 17.0251 39.0197 18.9996 40.1472C24.5546 43.3193 24.5646 54.1126 18.9794 57.2284C17.4436 58.0851 15.4788 58.3162 13.8133 57.6989C12.8649 57.3943 11.8623 57.3943 10.9139 57.6989C9.05742 58.2958 7.11706 58.0184 5.45086 56.9181C5.04645 56.6508 4.50197 56.7622 4.23494 57.1666C3.96779 57.5711 4.07907 58.1155 4.4836 58.3826C6.57199 59.762 9.1116 60.122 11.451 59.37C12.0479 59.178 12.6791 59.178 13.2762 59.37C15.4455 60.1045 17.8337 59.8776 19.8345 58.7613C20.52 58.3789 21.1501 57.9016 21.7126 57.3468C23.7514 58.9355 26.2582 59.8042 28.8638 59.8042C31.8136 59.8042 34.5103 58.7012 36.5645 56.8866C42.2331 55.7774 47.3913 53.0289 51.4948 48.9256C56.9794 43.4407 60 36.1483 60 28.3913ZM7.76498 11.0194L6.60792 9.40934C6.54391 9.20749 6.61716 9.11832 6.82756 9.14196C8.14025 9.74108 9.50244 10.2823 10.7744 10.9658C11.0465 11.1122 11.3753 11.1047 11.6402 10.9461C11.9054 10.7877 12.0676 10.5016 12.0676 10.1928C12.0676 7.18146 11.9856 4.69966 10.0717 2.15665C12.9226 3.458 15.591 5.02274 15.591 8.62896C15.591 9.11376 15.9839 9.50658 16.4687 9.50658C16.9535 9.50658 17.3463 9.11376 17.3463 8.62896C17.3463 5.04146 20.0151 3.458 22.8655 2.15677C20.9518 4.69978 20.8699 7.18146 20.8699 10.1928C20.8699 10.5017 21.0323 10.7877 21.2974 10.9461C21.5625 11.1044 21.8912 11.1119 22.1633 10.9655C23.435 10.2816 24.7967 9.74108 26.1097 9.14184C26.3201 9.1182 26.3933 9.20737 26.3294 9.40922L25.1726 11.0194C24.3704 12.1357 23.7866 13.4007 23.4522 14.731C21.3293 13.6486 18.9863 13.0813 16.5718 13.0813C14.1179 13.0617 11.6761 13.6479 9.49577 14.7729C9.16309 13.4271 8.5759 12.1478 7.76498 11.0194ZM22.8381 55.9991C25.7223 51.8212 25.5889 44.7052 22.3395 40.7279C24.1437 39.1374 26.4302 38.268 28.8639 38.268C34.3173 38.268 38.7542 42.7048 38.7542 48.1583C38.7542 53.6118 34.3174 58.0487 28.8639 58.0487C26.6712 58.0487 24.5608 57.3248 22.8381 55.9991ZM38.5599 54.6012C39.2712 53.5343 39.8117 52.3441 40.141 51.0697C43.1842 49.8403 45.9135 48.0324 48.2577 45.6882C51.6856 42.2602 53.9982 37.946 54.9452 33.2121C55.0404 32.7368 54.7321 32.2744 54.2568 32.1794C53.7813 32.084 53.3192 32.3924 53.224 32.8678C52.3451 37.2609 50.1987 41.265 47.0164 44.4471C45.0989 46.3647 42.904 47.8949 40.478 49.0124C40.9621 42.3651 35.5324 36.5127 28.8639 36.5127C26.0199 36.5127 23.3454 37.5189 21.2287 39.3646L47.6254 12.9678C51.5918 17.2444 53.7308 22.7773 53.6656 28.6445C53.6603 29.1292 54.0489 29.5265 54.5336 29.5319C55.0175 29.5365 55.4155 29.1486 55.4209 28.6639C55.4911 22.3206 53.1688 16.341 48.8661 11.7271L50.8645 9.72868C55.6307 14.8037 58.2447 21.3964 58.2447 28.3913C58.2447 35.6793 55.4067 42.531 50.2536 47.684C46.969 50.9686 42.9657 53.3296 38.5599 54.6012Z" fill="black"/>
<path d="M42.0109 38.2003C41.6681 37.8577 41.1125 37.8577 40.7698 38.2003C40.427 38.5432 40.427 39.0988 40.7698 39.4415L42.0951 40.7668C42.2665 40.9382 42.4912 41.0238 42.7157 41.0238C42.9403 41.0238 43.165 40.9382 43.3364 40.7668C43.6791 40.424 43.6791 39.8684 43.3364 39.5257L42.0109 38.2003Z" fill="black"/>
<path d="M46.7529 33.9239L45.0446 33.1627C44.6018 32.9652 44.0831 33.1646 43.8858 33.6071C43.6885 34.0499 43.8875 34.5688 44.3302 34.7659L46.0385 35.5271C46.1546 35.5789 46.2758 35.6033 46.3953 35.6033C46.7313 35.6033 47.0518 35.4093 47.1973 35.0827C47.3945 34.6399 47.1956 34.1212 46.7529 33.9239Z" fill="black"/>
<path d="M47.876 27.4283L46.0183 27.3352C46.0032 27.3343 45.9883 27.334 45.9736 27.334C45.509 27.334 45.1212 27.6985 45.0978 28.1676C45.0735 28.6518 45.4463 29.0638 45.9303 29.0881L47.788 29.1812C47.8031 29.182 47.818 29.1824 47.8327 29.1824C48.2973 29.1824 48.6851 28.8179 48.7085 28.3488C48.7328 27.8647 48.36 27.4525 47.876 27.4283Z" fill="black"/>
<path d="M45.0745 23.2273C45.1669 23.2273 45.2611 23.2126 45.3536 23.1816L47.1068 22.5938C47.5665 22.4397 47.8141 21.9422 47.6601 21.4827C47.5061 21.0231 47.0082 20.7756 46.549 20.9295L44.7958 21.5172C44.3361 21.6714 44.0885 22.1688 44.2425 22.6283C44.3655 22.9954 44.7075 23.2273 45.0745 23.2273Z" fill="black"/>
<path d="M16.4689 25.5576C16.6934 25.5576 16.9181 25.472 17.0894 25.3007L19.0231 23.3671C19.366 23.0243 19.366 22.4686 19.0232 22.126C18.6805 21.7834 18.1248 21.7832 17.7821 22.1259L16.4689 23.4391L15.1556 22.1259C14.813 21.7833 14.2573 21.7832 13.9145 22.126C13.5718 22.4688 13.5718 23.0245 13.9146 23.3671L15.8483 25.3007C16.0196 25.4719 16.2443 25.5576 16.4689 25.5576Z" fill="black"/>
<path d="M24.3842 25.5576C24.6087 25.5576 24.8334 25.472 25.0047 25.3007L26.9384 23.3671C27.2812 23.0243 27.2812 22.4686 26.9385 22.126C26.5956 21.7833 26.0399 21.7832 25.6974 22.1259L24.3842 23.4391L23.0709 22.1259C22.7282 21.7833 22.1725 21.7832 21.8298 22.126C21.4871 22.4688 21.4871 23.0245 21.8299 23.3671L23.7636 25.3007C23.9349 25.4719 24.1596 25.5576 24.3842 25.5576Z" fill="black"/>
<path d="M13.7858 27.6681L12.4727 28.9814L11.1596 27.6682C10.8168 27.3255 10.261 27.3254 9.91854 27.6681C9.57568 28.0109 9.57568 28.5666 9.91842 28.9092L11.852 30.8429C12.0166 31.0075 12.2398 31.1 12.4727 31.1C12.7055 31.1 12.9286 31.0075 13.0933 30.843L15.027 28.9093C15.3698 28.5665 15.3698 28.0109 15.027 27.6681C14.6843 27.3255 14.1287 27.3255 13.7858 27.6681Z" fill="black"/>
<path d="M19.7675 30.8429C19.9322 31.0075 20.1553 31.1 20.3882 31.1C20.621 31.1 20.8441 31.0075 21.0088 30.843L22.9425 28.9093C23.2853 28.5665 23.2853 28.0109 22.9425 27.6681C22.5997 27.3255 22.0441 27.3255 21.7013 27.6681L20.3882 28.9814L19.0751 27.6682C18.7324 27.3255 18.1767 27.3254 17.8341 27.6681C17.4912 28.0109 17.4912 28.5666 17.8339 28.9092L19.7675 30.8429Z" fill="black"/>
<path d="M30.8276 42.8619C31.3123 42.8619 31.7052 42.469 31.7052 41.9843C31.7052 41.4996 31.3123 41.1067 30.8276 41.1067C30.3429 41.1067 29.95 41.4996 29.95 41.9843C29.95 42.469 30.3429 42.8619 30.8276 42.8619Z" fill="black"/>
</g>
<defs>
<clipPath id="clip0_672_54002">
<rect width="60" height="60" fill="white"/>
</clipPath>
</defs>
</svg>
