<svg width="26" height="26" viewBox="0 0 26 26" fill="none" xmlns="http://www.w3.org/2000/svg">
<g clip-path="url(#clip0_1576_10540)">
<path d="M4.58743 21.3859H14.8208C15.1684 21.3859 15.4509 21.1032 15.4509 20.7559V11.6508C15.4509 11.2955 15.6403 10.9646 15.945 10.7875C16.6234 10.3929 17.7616 9.5618 17.7616 8.42616C17.7616 6.49608 14.3384 4.64355 9.70404 4.64355C5.07759 4.64355 1.64648 6.49271 1.64648 8.42616C1.64648 9.56656 2.79303 10.3999 3.47659 10.7952C3.77315 10.9668 3.95743 11.2842 3.95743 11.6236V20.7559C3.95743 21.1032 4.2401 21.3859 4.58743 21.3859ZM3.85785 10.1359C3.42204 9.88374 2.4084 9.21248 2.4084 8.42616C2.4084 7.16516 5.24422 5.40527 9.70404 5.40527C14.1647 5.40527 16.9999 7.16536 16.9999 8.42616C16.9999 9.20851 15.9944 9.87759 15.5619 10.1289C15.0236 10.4419 14.6891 11.0251 14.6891 11.6508V20.6242H4.71915V11.6238C4.71915 11.0132 4.38907 10.4431 3.85785 10.1359Z" fill="#017D03"/>
<path d="M7.57838 15.8227C7.72715 15.9715 7.96836 15.9715 8.11694 15.8227L11.6119 12.3279C11.7607 12.1791 11.7607 11.9379 11.6119 11.7892C11.4631 11.6406 11.2219 11.6406 11.0732 11.7892L7.57838 15.2841C7.4296 15.4327 7.4296 15.6739 7.57838 15.8227Z" fill="#017D03"/>
<path d="M7.13847 14.0321L9.82214 11.3484C9.97091 11.1996 9.97091 10.9586 9.82214 10.8098C9.67337 10.661 9.43216 10.661 9.28358 10.8098L6.59971 13.4935C6.45114 13.6423 6.45114 13.8835 6.59971 14.0321C6.74868 14.1808 6.9897 14.1808 7.13847 14.0321Z" fill="#017D03"/>
<path d="M9.36924 16.8023C9.51822 16.9508 9.75923 16.9508 9.908 16.8023L12.5917 14.1184C12.7404 13.9696 12.7404 13.7286 12.5917 13.5798C12.4429 13.4311 12.2017 13.4311 12.0529 13.5798L9.36924 16.2635C9.22067 16.4123 9.22067 16.6535 9.36924 16.8023Z" fill="#017D03"/>
<path d="M2.31075 12.0121V20.7558C2.31075 22.0117 3.33252 23.0333 4.58836 23.0333H8.66336C8.87383 23.0333 9.04422 22.8629 9.04422 22.6524C9.04422 22.4421 8.87383 22.2715 8.66336 22.2715H4.58836C3.75246 22.2715 3.07246 21.5916 3.07246 20.7558V11.8017C3.07246 11.6688 3.00323 11.5454 2.88977 11.4762C1.51749 10.6409 0.761719 9.55759 0.761719 8.42612C0.761719 5.72162 4.88472 3.75781 9.70517 3.75781C14.5326 3.75781 18.6484 5.72519 18.6484 8.42612C18.6484 9.55779 17.8927 10.6411 16.5204 11.4762C16.4069 11.5452 16.3375 11.6686 16.3375 11.8015V20.7558C16.3375 21.5916 15.6575 22.2715 14.8218 22.2715H10.4407C10.2304 22.2715 10.0598 22.4419 10.0598 22.6524C10.0598 22.8629 10.2304 23.0333 10.4407 23.0333H21.4118C22.6675 23.0333 23.6893 22.0117 23.6893 20.7558V16.732C23.6893 16.5216 23.5187 16.351 23.3084 16.351C23.0979 16.351 22.9275 16.5216 22.9275 16.732V20.7558C22.9275 21.5916 22.2475 22.2715 21.4118 22.2715H16.5204C16.8812 21.8677 17.0992 21.3303 17.0992 20.7558V12.0121C18.5915 11.0467 19.4101 9.77956 19.4101 8.42612C19.4101 6.04039 17.0454 4.50743 14.7742 3.75781H16.295C21.1224 3.75781 25.2383 5.72519 25.2383 8.42612C25.2383 9.459 24.6293 10.4308 23.477 11.2369C23.1328 11.4778 22.9275 11.8739 22.9275 12.2964V14.9545C22.9275 15.1649 23.0979 15.3353 23.3084 15.3353C23.5187 15.3353 23.6893 15.1649 23.6893 14.9545V12.2964C23.6893 12.1222 23.7732 11.9596 23.9138 11.8612C25.2591 10.92 26 9.70001 26 8.42612C26 5.16223 21.4727 2.99609 16.295 2.99609H9.70517C4.49969 2.99609 0 5.17691 0 8.42612C0 9.77956 0.818649 11.0465 2.31075 12.0121Z" fill="#017D03"/>
</g>
<defs>
<clipPath id="clip0_1576_10540">
<rect width="26" height="26" fill="white"/>
</clipPath>
</defs>
</svg>
