<svg width="26" height="26" viewBox="0 0 26 26" fill="none" xmlns="http://www.w3.org/2000/svg">
<g clip-path="url(#clip0_1576_10574)">
<path d="M5.67324 17.7666C5.8908 17.7666 6.06718 17.5903 6.06718 17.3727C6.06718 17.1551 5.8908 16.9788 5.67324 16.9788C5.45567 16.9788 5.2793 17.1551 5.2793 17.3727C5.2793 17.5903 5.45567 17.7666 5.67324 17.7666Z" fill="#017D03"/>
<path d="M7.32753 17.7666C7.5451 17.7666 7.72147 17.5903 7.72147 17.3727C7.72147 17.1551 7.5451 16.9788 7.32753 16.9788C7.10997 16.9788 6.93359 17.1551 6.93359 17.3727C6.93359 17.5903 7.10997 17.7666 7.32753 17.7666Z" fill="#017D03"/>
<path d="M7.09121 20.9576C7.30877 20.9576 7.48514 20.7812 7.48514 20.5636C7.48514 20.3461 7.30877 20.1697 7.09121 20.1697C6.87364 20.1697 6.69727 20.3461 6.69727 20.5636C6.69727 20.7812 6.87364 20.9576 7.09121 20.9576Z" fill="#017D03"/>
<path d="M5.90956 20.9576C6.12713 20.9576 6.3035 20.7812 6.3035 20.5636C6.3035 20.3461 6.12713 20.1697 5.90956 20.1697C5.692 20.1697 5.51562 20.3461 5.51562 20.5636C5.51562 20.7812 5.692 20.9576 5.90956 20.9576Z" fill="#017D03"/>
<path d="M25.2127 12.6061H19.3036V10.2424C19.3036 10.1636 19.2642 10.0848 19.2642 10.0455L15.7582 4.21515V1.49697C15.7582 0.669697 15.0885 0 14.2612 0H5.04302C4.21574 0 3.54605 0.669697 3.54605 1.49697V4.33333C3.54605 4.49091 0.473319 9.92727 0.433925 10.1242C0.394531 10.1636 0.394531 10.203 0.394531 10.2424V23.4394C0.394531 24.8576 1.53696 26 2.95514 26H12.6067H18.9097H22.4551C24.1885 26 25.6067 24.5818 25.6067 22.8485V13C25.6067 12.7636 25.4491 12.6061 25.2127 12.6061ZM24.8188 17.6879C24.7006 17.7273 23.1642 18.7121 21.1945 18.0424C20.2097 17.6879 19.1067 17.6879 18.1218 17.9636L16.1521 18.5152V13.3939H24.8188V17.6879ZM15.4036 5.16061L18.2006 9.84848H13.237C13.8673 8.4697 14.7733 6.57879 15.4036 5.16061ZM4.33393 1.49697C4.33393 1.10303 4.64908 0.787879 5.04302 0.787879H14.2612C14.6551 0.787879 14.9703 1.10303 14.9703 1.49697V3.93939H4.33393V1.49697ZM4.25514 4.72727H14.7339C14.0248 6.22424 13.0794 8.27273 12.3309 9.84848H1.45817L4.25514 4.72727ZM1.18241 23.4394V10.6364H12.2127V25.2121H2.95514C1.97029 25.2121 1.18241 24.4242 1.18241 23.4394ZM16.6642 25.2121H13.0006V10.6364H18.5157V12.6061H15.7582C15.5218 12.6061 15.3642 12.7636 15.3642 13V22.8485C15.3642 23.7939 15.9157 24.6606 16.6642 25.2121ZM22.4551 25.2121H18.9097C17.6491 25.2121 16.1521 24.1091 16.1521 22.8485V19.3424L18.3188 18.7121C19.1854 18.4758 20.0915 18.4758 20.9188 18.7909C22.1794 19.2242 23.5976 19.1455 24.7794 18.5545V22.8485C24.8188 24.1485 23.7551 25.2121 22.4551 25.2121Z" fill="#017D03"/>
<path d="M12.6071 1.96973H6.3041C6.06773 1.96973 5.91016 2.1273 5.91016 2.36367C5.91016 2.60003 6.06773 2.75761 6.3041 2.75761H12.6071C12.8435 2.75761 13.0011 2.60003 13.0011 2.36367C13.0011 2.1273 12.8435 1.96973 12.6071 1.96973Z" fill="#017D03"/>
<path d="M9.49369 16.2698C9.92702 15.9546 10.2422 15.4425 10.2422 14.9304V13.788C10.2422 13.5516 10.0846 13.394 9.84823 13.394C9.61187 13.394 9.45429 13.5516 9.45429 13.788V14.9304C9.45429 15.3243 9.06035 15.7577 8.66641 15.7577H4.33308C3.97854 15.7577 3.93914 15.1668 3.93914 14.9304V13.788C3.93914 13.5516 3.78157 13.394 3.5452 13.394C3.30884 13.394 3.15126 13.5516 3.15126 13.788V14.9304C3.15126 15.5607 3.30884 15.994 3.62399 16.2698C3.15126 16.7819 2.52096 17.688 2.56035 19.0274C2.56035 19.5395 3.34823 19.5395 3.34823 18.988C3.30884 18.1213 3.62399 17.491 3.93914 17.0577C3.93914 17.0971 3.93914 20.0122 3.93914 19.9728C3.93914 23.3607 9.06035 23.4395 9.06035 19.894C9.06035 19.8153 9.06035 16.8607 9.06035 16.9001C9.53308 17.294 10.0846 18.0031 10.0452 18.988C10.0452 19.5001 10.8331 19.5395 10.8331 19.0274C10.8725 17.688 10.0846 16.7819 9.49369 16.2698ZM8.27247 18.5153H4.72702V16.5456H8.27247V18.5153ZM8.27247 19.894C8.27247 22.4153 4.72702 22.2971 4.72702 19.9728V19.3031H8.27247V19.894Z" fill="#017D03"/>
</g>
<defs>
<clipPath id="clip0_1576_10574">
<rect width="26" height="26" fill="white"/>
</clipPath>
</defs>
</svg>
