<svg width="26" height="26" viewBox="0 0 26 26" fill="none" xmlns="http://www.w3.org/2000/svg">
<g clip-path="url(#clip0_1576_10612)">
<path d="M13.4565 15.8579L10.9932 13.3667C10.8251 13.1965 10.5508 13.195 10.3808 13.3631L10.3806 13.3633C10.2105 13.5314 10.2089 13.8057 10.377 13.9757L10.3772 13.9759L12.8405 16.4671C13.0088 16.6372 13.283 16.6387 13.4532 16.4705C13.6232 16.3023 13.6248 16.028 13.4565 15.8579Z" fill="#017D03"/>
<path d="M12.8324 17.7356L10.3687 15.2444C10.1997 15.075 9.9254 15.0747 9.75608 15.2438C9.58782 15.4117 9.58635 15.6839 9.75273 15.8536L12.2164 18.3449C12.3847 18.515 12.659 18.5165 12.8291 18.3483C12.9991 18.18 13.0007 17.9057 12.8324 17.7356Z" fill="#017D03"/>
<path d="M6.04352 14.6356L3.58022 12.1444C3.41262 11.9736 3.1383 11.9711 2.96761 12.1387C2.79686 12.3063 2.79437 12.5806 2.96197 12.7513C2.96273 12.7521 2.96344 12.7529 2.9642 12.7536L5.4275 15.2448C5.59576 15.415 5.87003 15.4165 6.04016 15.2482C6.2102 15.08 6.21172 14.8057 6.04352 14.6356Z" fill="#017D03"/>
<path d="M5.42218 16.5162C5.42127 16.5152 5.4203 16.5143 5.41934 16.5134L2.95609 14.0221C2.78784 13.852 2.51357 13.8505 2.34343 14.0187C2.17329 14.1869 2.17182 14.4613 2.34003 14.6314L4.80332 17.1226C4.97077 17.2935 5.24504 17.2963 5.41594 17.1288C5.58689 16.9614 5.58968 16.6871 5.42218 16.5162Z" fill="#017D03"/>
<path d="M25.5849 9.3831C25.1569 8.7057 24.4383 8.26586 23.6403 8.19295L22.0186 8.04612C21.9949 8.04318 21.973 8.03196 21.9568 8.01439C21.9242 7.98149 21.913 7.93295 21.928 7.88914C22.0375 7.56963 22.0466 7.22428 21.9542 6.89944C22.4336 6.2979 22.6276 5.51758 22.4857 4.76159C22.2333 3.35323 20.887 2.41614 19.4786 2.66852C19.2515 2.70924 19.0309 2.78007 18.8225 2.87923L17.3459 3.58028C17.3162 3.59485 17.2815 3.5947 17.252 3.57983C17.2207 3.56434 17.1988 3.53474 17.1932 3.50027C17.0611 2.79525 16.4826 2.26006 15.7694 2.18319L15.7567 2.18193C14.4507 2.04748 13.2586 2.93335 13.0104 4.22255L12.8775 4.88217C12.8712 4.91523 12.8514 4.94417 12.8229 4.96214C12.7982 4.97869 12.7676 4.98407 12.7388 4.97697C12.1354 4.82744 11.4969 4.9429 10.9842 5.29429C10.4606 5.6535 10.1154 6.21925 10.0356 6.84918L9.73717 9.19418C8.73555 8.55739 7.57287 8.22002 6.38598 8.22169H6.37496C4.6871 8.22941 3.07246 8.91178 1.89054 10.1168C-0.295035 12.3086 -0.624239 15.7406 1.10485 18.3079C1.37389 18.7063 1.55956 19.1551 1.65064 19.6271C1.89384 20.5119 1.67781 21.4597 1.07525 22.1517L1.07357 22.1534C0.905313 22.3235 0.906836 22.5978 1.07697 22.766C1.24711 22.9343 1.52138 22.9328 1.68964 22.7626L1.69004 22.7622C2.28742 22.1944 3.12795 21.9603 3.93289 22.1377C4.48843 22.215 5.01885 22.4185 5.48356 22.7326C6.54799 23.4585 7.80891 23.8417 9.09725 23.831H9.1074C10.8007 23.8235 12.4202 23.1368 13.6028 21.9249C15.367 20.0989 15.902 17.4109 14.9716 15.0486L16.4469 15.6161C16.9582 15.8047 17.5256 15.543 17.7142 15.0317C17.73 14.9887 17.7429 14.9446 17.7526 14.8998C17.7598 14.8496 17.799 14.8099 17.8491 14.8021C17.8932 14.7924 17.9383 14.8136 17.9591 14.8537L18.1495 15.1465C18.2224 15.261 18.3069 15.3676 18.4016 15.4647C18.7667 15.8339 19.2643 16.0418 19.7835 16.0422C19.9521 16.0423 20.12 16.0201 20.2827 15.9762C21.3285 15.6879 21.9535 14.618 21.6908 13.5654L21.6328 13.3361C21.6218 13.2955 21.6331 13.2521 21.6624 13.2219C21.6877 13.1934 21.7258 13.1797 21.7635 13.1855L22.878 13.4034C23.7345 13.5703 24.6175 13.2954 25.2279 12.6718C25.5019 12.3936 25.7122 12.0591 25.8443 11.6915C26.1211 10.9235 26.0253 10.0705 25.5849 9.3831ZM10.8953 6.95834C10.9439 6.57409 11.1542 6.22885 11.4733 6.00931C11.781 5.79581 12.1661 5.7259 12.5293 5.81765C12.788 5.88197 13.0618 5.83729 13.2866 5.69412C13.5144 5.54916 13.6734 5.31775 13.7271 5.05312L13.8599 4.3935C14.0196 3.53926 14.8097 2.95168 15.6738 3.04464L15.684 3.0455C16.0153 3.08622 16.2819 3.33714 16.3427 3.66533C16.4431 4.19366 16.9528 4.54058 17.4811 4.44021C17.5629 4.42467 17.6423 4.39873 17.7174 4.36303L19.194 3.66192C19.6764 3.42969 20.2398 3.43675 20.7163 3.68096C21.1992 3.92731 21.5387 4.38568 21.6336 4.91939C21.7889 5.77718 21.3068 6.62289 20.4895 6.92615L19.4136 7.31288C18.8998 7.49875 18.6339 8.06592 18.8198 8.57973C18.8681 8.71316 18.9444 8.83461 19.0438 8.9359L19.2079 9.10218C19.6338 9.54019 19.6303 10.2387 19.1999 10.6723C18.8716 11.0095 18.3629 11.0956 17.942 10.8851L17.6302 10.7286C17.2788 10.5484 16.853 10.6013 16.5563 10.8619C16.252 11.1222 16.135 11.5405 16.2602 11.9209C16.2714 11.9551 16.2669 11.9926 16.2479 12.0233C16.2309 12.0529 16.2016 12.0733 16.1679 12.0791L13.3097 12.5713L12.2292 11.4786C12.2614 11.4486 12.2889 11.4139 12.3106 11.3755C12.3254 11.3485 13.835 8.67574 17.6687 7.17249C17.8912 7.08455 18.0002 6.83288 17.9123 6.6104C17.8246 6.38873 17.5743 6.27952 17.3522 6.36603C13.5996 7.8375 11.932 10.3279 11.6121 10.8545L10.8513 10.0851C10.7498 9.98241 10.6415 9.88919 10.5344 9.79445L10.8953 6.95834ZM12.985 21.3174C11.9643 22.364 10.5663 22.9574 9.1044 22.9646H9.09552C7.98362 22.975 6.89512 22.6452 5.976 22.0193C5.40146 21.6296 4.74519 21.3769 4.05768 21.2806C3.84013 21.2482 3.62054 21.2317 3.4006 21.2311C3.09348 21.2295 2.78737 21.2669 2.48965 21.3424C2.6345 20.7227 2.6381 20.0784 2.50021 19.4571C2.38643 18.8707 2.15496 18.3134 1.81987 17.8188C0.324635 15.5942 0.612359 12.6225 2.50655 10.7261C3.52676 9.68519 4.92086 9.09547 6.37831 9.08826H6.3876C7.83404 9.084 9.22113 9.663 10.2352 10.6943L12.8839 13.373C15.0719 15.5532 15.1168 19.0822 12.985 21.3174ZM25.0289 11.3979C24.9396 11.647 24.7972 11.8738 24.6117 12.0626C24.2049 12.4792 23.6159 12.6634 23.0442 12.5529L21.9255 12.3342C21.3893 12.2368 20.8756 12.5924 20.7782 13.1287C20.7527 13.2688 20.7579 13.4127 20.7933 13.5507L20.8508 13.7779C20.9997 14.3719 20.6474 14.9763 20.0571 15.1394C19.6852 15.2381 19.2889 15.1301 19.0184 14.8564C18.965 14.8009 18.9173 14.74 18.8763 14.6748L18.6871 14.3838C18.4784 14.0485 18.0851 13.8758 17.6971 13.9493C17.3007 14.0214 16.9874 14.3263 16.9046 14.7206C16.8991 14.742 16.8878 14.7614 16.872 14.7768C16.8438 14.8096 16.7982 14.8217 16.7574 14.8073L14.3947 13.8982C14.2721 13.7027 14.1392 13.5138 13.9968 13.3322L16.3148 12.933C16.8527 12.8385 17.2123 12.3257 17.1178 11.7878C17.1097 11.7419 17.0984 11.6966 17.084 11.6523C17.0665 11.6045 17.0815 11.5509 17.1212 11.519C17.1534 11.4879 17.2021 11.4813 17.2414 11.5029L17.5532 11.6595C18.3093 12.039 19.2241 11.8863 19.8159 11.2816C20.5786 10.51 20.5823 9.26962 19.8244 8.49337L19.6603 8.32709C19.6316 8.29805 19.6203 8.25622 19.6302 8.21667C19.6386 8.1761 19.6674 8.14274 19.7064 8.12868L20.7823 7.74195C20.896 7.69849 21.0064 7.64726 21.113 7.58862C21.111 7.59481 21.1107 7.60126 21.1085 7.6074C20.9853 7.96306 21.0756 8.35786 21.3412 8.62452C21.5014 8.78668 21.7134 8.88746 21.9403 8.90924L23.5608 9.05608C24.0918 9.10497 24.5698 9.39797 24.8542 9.84898C25.1497 10.3102 25.2142 10.8824 25.0289 11.3979Z" fill="#017D03"/>
</g>
<defs>
<clipPath id="clip0_1576_10612">
<rect width="26" height="26" fill="white"/>
</clipPath>
</defs>
</svg>
