<svg width="26" height="26" viewBox="0 0 26 26" fill="none" xmlns="http://www.w3.org/2000/svg">
<path d="M13.6857 16.7859H13.3301C13.1198 16.7859 12.9493 16.9564 12.9493 17.1667C12.9493 17.3771 13.1198 17.5476 13.3301 17.5476H13.6857C13.7557 17.5476 13.8126 17.6045 13.8126 17.6746V19.1847C12.1307 19.0643 11.487 18.1502 11.2443 17.5476H11.5528C11.7632 17.5476 11.9337 17.3771 11.9337 17.1667C11.9337 16.9564 11.7632 16.7859 11.5528 16.7859H10.9282C10.7615 16.7859 10.6075 16.8616 10.5057 16.9935C10.4041 17.1252 10.3701 17.2928 10.4122 17.4537C10.5579 18.0094 11.2409 19.832 13.9095 19.9533C13.9191 19.9537 13.9285 19.9539 13.938 19.9539C14.101 19.9539 14.26 19.8906 14.3781 19.7777C14.5028 19.6585 14.5743 19.4913 14.5743 19.319V17.6745C14.5743 17.1846 14.1756 16.7859 13.6857 16.7859Z" fill="#017D03"/>
<path d="M25.8941 13.309L25.6595 12.7386C24.8449 10.7595 23.4755 9.08351 21.6991 7.89192C19.923 6.701 17.8542 6.07147 15.7164 6.07142H15.7164C15.578 6.07142 15.4401 6.07355 15.3026 6.07685L14.8426 5.61652C13.6894 4.46246 11.9555 4.08267 10.4254 4.64883L9.51077 4.98729C9.24523 5.08555 9.04693 5.29771 8.96685 5.56929C8.88672 5.84087 8.93811 6.12662 9.10782 6.35325L9.753 7.21511C8.5278 7.718 7.37303 8.38323 6.31526 9.19731C4.87911 10.3027 3.98064 11.4014 3.56946 11.9634L1.89932 10.3796C1.68939 10.1805 1.41446 10.0709 1.12516 10.0709C0.504715 10.0709 0 10.5756 0 11.196V12.5845C0 13.0943 0.232426 13.5509 0.596832 13.8538C0.232426 14.1568 0 14.6134 0 15.1233V16.4611C0 17.0814 0.504715 17.5861 1.12511 17.5861C1.41446 17.5861 1.68939 17.4765 1.89927 17.2775L3.56916 15.694C3.82286 16.0422 4.26243 16.5955 4.89907 17.2291H4.14375C3.96754 17.2291 3.80311 17.316 3.70383 17.4613C3.60415 17.6073 3.58318 17.7929 3.64767 17.9579C3.88832 18.5732 4.87079 19.9952 8.79298 20.0256C9.24366 20.2501 9.70521 20.4521 10.1769 20.6296C11.9051 21.2802 13.7689 21.6101 15.7163 21.6101C19.0895 21.6101 22.2 20.0741 24.2502 17.396C24.5194 17.0444 24.486 16.5431 24.1711 16.2282L23.7332 15.7956C23.6848 15.7472 23.6909 15.6978 23.7046 15.6649C23.7163 15.6365 23.7473 15.5891 23.8232 15.5891H24.8064C25.1568 15.5891 25.4861 15.3661 25.6257 15.0345C25.6344 15.014 25.6433 14.9893 25.6518 14.9646C25.6545 14.9569 25.6571 14.949 25.6594 14.9429L25.894 14.3728C26.0353 14.0297 26.0353 13.6518 25.8941 13.309ZM9.69739 5.78481C9.70409 5.76201 9.72314 5.72087 9.77509 5.70168L10.6897 5.36322C11.9314 4.9038 13.3367 5.2061 14.2803 6.13225C12.9663 6.24468 11.6983 6.51276 10.4935 6.93348L9.7175 5.89678C9.68434 5.85245 9.69069 5.80761 9.69739 5.78481ZM6.77975 9.80094C8.48519 8.48835 11.3367 6.9315 15.3355 6.83771L15.3356 9.30821C15.3147 9.30816 15.2935 9.30816 15.2727 9.30816C11.3505 9.30816 8.37566 10.4127 6.54692 11.3594C5.38759 11.9596 4.54035 12.5646 4.01162 12.9886V12.6591C4.23744 12.323 5.14236 11.0611 6.77975 9.80094ZM1.37511 16.7247C1.30736 16.789 1.21855 16.8244 1.12511 16.8244C0.924727 16.8244 0.761719 16.6614 0.761719 16.4611V15.1233C0.761719 14.6384 1.15213 14.243 1.63511 14.2348C1.64023 14.2348 1.64531 14.2348 1.65039 14.2348H1.82812C2.03846 14.2348 2.20898 14.0641 2.20898 13.8537C2.20898 13.6434 2.03846 13.4729 1.82812 13.4729H1.65039C1.64526 13.4729 1.64018 13.4729 1.63511 13.4729C1.15207 13.4648 0.761719 13.0694 0.761719 12.5845V11.196C0.761719 10.9956 0.924727 10.8326 1.12511 10.8326C1.21855 10.8326 1.30731 10.868 1.37516 10.9323L3.24995 12.7101V14.9469L1.37511 16.7247ZM4.53842 17.9908H5.72462C5.91028 18.1497 6.10645 18.3103 6.3145 18.4711C6.63371 18.7178 6.96206 18.9505 7.29818 19.1697C5.57456 18.9481 4.84372 18.3852 4.53842 17.9908ZM25.1897 14.0828L24.955 14.6531C24.9474 14.6717 24.9395 14.6938 24.9318 14.7161C24.929 14.7241 24.9264 14.7322 24.9239 14.7384C24.9023 14.7899 24.8529 14.8273 24.8065 14.8273H23.8232C23.461 14.8273 23.1383 15.0416 23.0009 15.3733C22.8624 15.7079 22.9366 16.076 23.1963 16.3358L23.6342 16.7684C23.6793 16.8134 23.684 16.8826 23.6455 16.933C21.8181 19.3201 19.0837 20.7306 16.0973 20.8413V11.471C16.0973 11.2607 15.9268 11.0902 15.7164 11.0902C15.5061 11.0902 15.3356 11.2607 15.3356 11.471V20.8438C11.3517 20.75 8.50774 19.1973 6.80601 17.8882C5.1578 16.6204 4.23897 15.3358 4.01167 14.9972V13.9916C4.32611 13.7018 5.31741 12.8495 6.92748 12.0202C8.7423 11.0855 11.7392 9.98924 15.7083 10.0745C15.8101 10.0769 15.9097 10.0376 15.9828 9.96593C16.056 9.89428 16.0973 9.79617 16.0973 9.69374V6.8407C17.9287 6.91312 19.7538 7.50456 21.275 8.52456C22.9256 9.63184 24.1982 11.1893 24.9552 13.0285L25.1898 13.5989C25.254 13.7549 25.254 13.9267 25.1897 14.0828Z" fill="#017D03"/>
<path d="M20.9727 12.9521C20.3427 12.9521 19.8301 12.4396 19.8301 11.8096C19.8301 11.1796 20.3427 10.667 20.9727 10.667C21.6026 10.667 22.1152 11.1796 22.1152 11.8096C22.1152 12.4396 21.6026 12.9521 20.9727 12.9521ZM20.9727 11.4287C20.7626 11.4287 20.5918 11.5995 20.5918 11.8096C20.5918 12.0196 20.7626 12.1904 20.9727 12.1904C21.1827 12.1904 21.3535 12.0196 21.3535 11.8096C21.3535 11.5995 21.1826 11.4287 20.9727 11.4287Z" fill="#017D03"/>
</svg>
