<svg width="26" height="26" viewBox="0 0 26 26" fill="none" xmlns="http://www.w3.org/2000/svg">
<g clip-path="url(#clip0_1576_10602)">
<path d="M24.7805 16.25H22.7493V13.8125C22.7497 12.864 22.5541 11.9256 22.175 11.0561C21.7958 10.1866 21.2412 9.40487 20.5458 8.75975C21.0942 7.29217 22.5896 6.01096 22.6054 5.99725C22.6688 5.94346 22.7141 5.87151 22.7354 5.79112C22.7566 5.71073 22.7526 5.62577 22.724 5.5477C22.6954 5.46964 22.6435 5.40223 22.5754 5.35458C22.5073 5.30693 22.4261 5.28133 22.343 5.28124C21.1684 5.28124 20.1473 5.51183 19.291 5.968C19.4526 5.69689 19.6318 5.43666 19.8274 5.18897C20.1743 4.7478 20.5601 4.33862 20.9801 3.96636C21.0436 3.91261 21.0891 3.84066 21.1104 3.76023C21.1317 3.6798 21.1278 3.59477 21.0992 3.51663C21.0706 3.4385 21.0187 3.37103 20.9506 3.32334C20.8824 3.27565 20.8012 3.25005 20.718 3.24999C19.6199 3.24999 18.6512 3.45448 17.8264 3.85728C17.7125 3.00786 17.3273 1.50667 16.0247 0.855396C15.9683 0.827186 15.9061 0.8125 15.843 0.8125C15.7799 0.8125 15.7177 0.827186 15.6613 0.855396C14.3602 1.50595 13.9743 3.00456 13.8599 3.85454C13.0378 3.45276 12.0708 3.24999 10.968 3.24999C10.8848 3.25004 10.8037 3.27561 10.7355 3.32324C10.6674 3.37088 10.6155 3.43829 10.5868 3.51636C10.5582 3.59443 10.5542 3.67941 10.5754 3.75982C10.5966 3.84023 10.642 3.9122 10.7054 3.966C11.1255 4.33829 11.5114 4.74752 11.8584 5.18876C12.0536 5.43583 12.2324 5.69536 12.3937 5.96572C11.5391 5.51112 10.5189 5.28124 9.343 5.28124C9.25984 5.28129 9.1787 5.30686 9.11054 5.35449C9.04238 5.40213 8.99047 5.46954 8.96184 5.54761C8.93321 5.62568 8.92922 5.71066 8.95043 5.79107C8.97163 5.87148 9.017 5.94345 9.08041 5.99725C9.09641 6.01081 10.5917 7.29217 11.1402 8.75975C10.4448 9.40487 9.89018 10.1866 9.51102 11.0561C9.13186 11.9256 8.93635 12.864 8.93675 13.8125V13.8591C8.4885 13.9443 7.89533 14.1384 7.57856 14.3762C7.53354 14.4098 7.48621 14.4402 7.43693 14.4671C7.54392 13.4887 7.73334 12.4906 8.056 12.0066C8.08641 11.9622 8.10771 11.9123 8.11866 11.8596C8.12961 11.8069 8.12999 11.7526 8.11978 11.6998C8.10957 11.647 8.08897 11.5967 8.05918 11.5519C8.02939 11.5072 7.99101 11.4687 7.94625 11.4389C7.90149 11.4091 7.85125 11.3884 7.79845 11.3781C7.74565 11.3679 7.69133 11.3682 7.63865 11.3791C7.58598 11.39 7.53599 11.4112 7.49159 11.4416C7.44719 11.472 7.40926 11.5108 7.38 11.556C7.01168 12.1085 6.7529 13.121 6.61011 14.5643C6.47373 14.5255 6.34569 14.4618 6.23245 14.3764C5.80395 14.0546 4.86917 13.8125 4.47247 13.8125C3.41033 13.8125 2.45199 14.2456 1.77401 15.0319C1.00127 15.9282 0.671189 17.2021 0.868372 18.5269L1.12228 20.232C1.28001 21.3134 1.63299 22.3571 2.16401 23.3123C2.82726 24.5006 3.97817 25.1891 5.19565 25.189C5.49524 25.1888 5.79338 25.1475 6.08178 25.0663C6.09102 25.0638 6.10013 25.0608 6.1091 25.0576L6.78865 24.8145C6.86429 24.7871 6.94712 24.7871 7.02276 24.8145L7.70226 25.0576C7.71125 25.0608 7.72039 25.0637 7.72958 25.0663C8.01799 25.1475 8.31615 25.1887 8.61576 25.189C9.50616 25.189 10.3608 24.8203 11.0153 24.1575C12.3925 24.8302 13.9041 25.1823 15.4368 25.1875C17.9657 25.1875 20.409 24.23 22.3176 22.4915C24.1409 20.8302 25.1868 18.7033 25.1868 16.6562C25.1868 16.5485 25.1439 16.4452 25.0678 16.369C24.9916 16.2928 24.8882 16.25 24.7805 16.25ZM14.1279 14.2137L15.8483 12.543L17.5723 14.2166L15.8525 15.8844L14.1279 14.2137ZM15.0622 16.25H12.7395C12.6802 16.0841 12.6102 15.9222 12.5298 15.7655L13.5445 14.78L15.0622 16.25ZM18.1554 14.7827L19.6668 16.25H16.6423L18.1554 14.7827ZM16.4313 11.9766L18.1503 10.3073L19.8756 11.983L18.1557 13.6509L16.4313 11.9766ZM16.7157 7.7815C17.4621 7.88901 18.1818 8.1351 18.8377 8.50712L18.1503 9.17469L16.7157 7.7815ZM17.5672 9.741L15.8481 11.4105L14.1299 9.74252L15.8493 8.07278L17.5672 9.741ZM13.5468 9.17616L12.8542 8.50371C13.513 8.13116 14.2358 7.88556 14.9852 7.77967L13.5468 9.17616ZM13.5468 10.3086L15.2651 11.9767L13.544 13.6482L11.8237 11.982L13.5468 10.3086ZM12.9608 14.2144L12.0738 15.0759C12.0615 15.0612 12.0495 15.0464 12.037 15.0319C11.4895 14.3929 10.7288 13.9744 9.89606 13.854L11.2405 12.5483L12.9608 14.2144ZM12.6888 20.232L12.9427 18.5269C13.0165 18.0416 13.017 17.548 12.9444 17.0625H22.677C22.4428 18.404 21.6496 19.7479 20.4531 20.8076C19.0388 22.0602 17.2573 22.75 15.4368 22.75C14.3297 22.7454 13.2375 22.4941 12.2398 22.0142C12.4487 21.4366 12.599 20.8396 12.6888 20.232ZM21.249 16.25L21.9368 15.5839V16.25H21.249ZM21.9368 14.4529L20.4577 15.8853L18.7391 14.2169L20.459 12.5491L21.9368 13.9843V14.4529ZM21.8462 12.7637L21.0425 11.9832L21.4976 11.5419C21.6565 11.9357 21.7733 12.3453 21.8462 12.7637ZM21.1232 10.773L20.4593 11.4168L18.7336 9.741L19.532 8.96567C20.1765 9.45723 20.7173 10.0715 21.1232 10.7732V10.773ZM21.2746 6.17143C20.808 6.68574 20.2454 7.40907 19.8894 8.21924C19.5262 7.95568 19.1383 7.72811 18.731 7.53973C18.7361 7.47646 18.7438 7.41319 18.7537 7.34991C19.4082 6.72342 20.253 6.3287 21.2746 6.17158V6.17143ZM19.6491 4.14018C18.9895 4.86742 18.1381 6.01233 17.9497 7.23484C17.4716 7.08137 16.9781 6.9809 16.4781 6.93523C16.4305 6.78731 16.3695 6.61993 16.2921 6.44012C16.7909 5.48477 17.7625 4.43162 19.6491 4.14059V4.14018ZM15.843 1.68628C16.8497 2.34212 17.025 3.84616 17.0554 4.32183C16.5774 4.67269 16.1665 5.10677 15.8424 5.60329C15.656 5.31832 15.4411 5.05302 15.2011 4.81151C15.0237 4.63364 14.833 4.46956 14.6307 4.32071C14.6613 3.84387 14.837 2.34161 15.843 1.68628ZM12.0375 4.1412C14.2883 4.49057 15.2256 5.92687 15.608 6.91066C14.9721 6.93167 14.3422 7.04091 13.7363 7.23525C13.7236 7.15278 13.708 7.07073 13.6894 6.98911L13.7037 6.97586C13.6963 6.96783 13.6885 6.96012 13.6812 6.95219C13.4172 5.83785 12.6458 4.81202 12.0375 4.1412ZM10.4112 6.17138C11.434 6.32835 12.2781 6.72358 12.9324 7.35088C12.9423 7.41385 12.95 7.47692 12.955 7.53989C12.5477 7.72826 12.1598 7.95583 11.7966 8.21939C11.4406 7.40897 10.8779 6.68569 10.4112 6.17138ZM12.1593 8.96166L12.9637 9.74252L11.2399 11.4165L10.5675 10.7653C10.974 10.065 11.515 9.45202 12.1593 8.96166ZM10.1921 11.5328L10.6567 11.9828L9.83741 12.7784C9.91066 12.3517 10.0296 11.9341 10.1921 11.5328ZM10.9375 22.9163C10.4226 23.8392 9.53765 24.375 8.6084 24.375C8.38991 24.3748 8.17242 24.3454 7.96175 24.2874L7.29652 24.0495C7.04381 23.9593 6.76769 23.9593 6.51499 24.0495L5.84925 24.2876C4.70159 24.602 3.50732 24.0523 2.87347 22.9165C2.39032 22.047 2.06926 21.0969 1.92594 20.1126L1.67204 18.4075C1.50954 17.3166 1.77116 16.2798 2.38942 15.5627C2.64718 15.2638 2.96721 15.025 3.32707 14.8631C3.68692 14.7011 4.07787 14.6198 4.47247 14.625C4.73054 14.625 5.48505 14.8311 5.74469 15.0262C5.98074 15.2042 6.25428 15.326 6.5445 15.3823C6.52449 15.7057 6.51332 15.9899 6.50707 16.2075C6.15597 16.1287 5.97895 15.9674 5.96935 15.9584L5.97382 15.9628C5.93615 15.9247 5.89133 15.8944 5.84193 15.8738C5.79253 15.8531 5.73953 15.8424 5.68597 15.8422C5.63242 15.8421 5.57937 15.8526 5.52987 15.873C5.48037 15.8935 5.43541 15.9235 5.39756 15.9614C5.35972 15.9993 5.32974 16.0443 5.30935 16.0938C5.28897 16.1434 5.27857 16.1964 5.27877 16.25C5.27897 16.3035 5.28975 16.3565 5.3105 16.4059C5.33125 16.4553 5.36156 16.5 5.39968 16.5377C5.45417 16.5919 5.95305 17.0625 6.9055 17.0625C7.85877 17.0625 8.35784 16.591 8.41152 16.5373C8.44924 16.4995 8.47917 16.4547 8.49959 16.4055C8.52 16.3562 8.53051 16.3033 8.53051 16.25C8.53051 16.1966 8.52 16.1438 8.49959 16.0945C8.47917 16.0452 8.44924 16.0004 8.41152 15.9627C8.3738 15.925 8.32901 15.8951 8.27972 15.8747C8.23043 15.8542 8.1776 15.8437 8.12425 15.8437C8.0709 15.8437 8.01807 15.8542 7.96878 15.8747C7.91949 15.8951 7.87471 15.925 7.83698 15.9627C7.83485 15.9649 7.66133 16.1226 7.31901 16.2034C7.32607 15.9579 7.33892 15.6706 7.35928 15.362C7.61524 15.299 7.85575 15.1847 8.06626 15.026C8.3259 14.8311 9.08041 14.6248 9.33848 14.6248C9.73307 14.6196 10.124 14.7009 10.4839 14.8628C10.8437 15.0248 11.1638 15.2635 11.4216 15.5623C12.0398 16.2794 12.3013 17.3163 12.139 18.4072L11.8851 20.1122C11.7417 21.0966 11.4207 22.0467 10.9375 22.9163ZM21.7702 21.8908C20.0118 23.4928 17.7625 24.375 15.4368 24.375C14.0878 24.3703 12.756 24.073 11.5331 23.5035C11.5725 23.4412 11.6107 23.3776 11.6471 23.3123C11.7471 23.1332 11.8407 22.9509 11.9279 22.7653C13.0247 23.2857 14.2228 23.5579 15.4368 23.5625C17.4559 23.5625 19.4287 22.8001 20.9918 21.4158C22.3654 20.1992 23.2643 18.631 23.4997 17.0625H24.3587C24.2295 18.7562 23.3023 20.4953 21.7702 21.8908Z" fill="#017D03"/>
<path d="M20.7188 18.6875C20.9431 18.6875 21.125 18.5056 21.125 18.2812C21.125 18.0569 20.9431 17.875 20.7188 17.875C20.4944 17.875 20.3125 18.0569 20.3125 18.2812C20.3125 18.5056 20.4944 18.6875 20.7188 18.6875Z" fill="#017D03"/>
<path d="M18.6875 20.7188C18.9119 20.7188 19.0938 20.5369 19.0938 20.3125C19.0938 20.0881 18.9119 19.9062 18.6875 19.9062C18.4631 19.9062 18.2812 20.0881 18.2812 20.3125C18.2812 20.5369 18.4631 20.7188 18.6875 20.7188Z" fill="#017D03"/>
<path d="M16.6562 19.5C16.8806 19.5 17.0625 19.3181 17.0625 19.0938C17.0625 18.8694 16.8806 18.6875 16.6562 18.6875C16.4319 18.6875 16.25 18.8694 16.25 19.0938C16.25 19.3181 16.4319 19.5 16.6562 19.5Z" fill="#017D03"/>
<path d="M14.2188 19.5C14.4431 19.5 14.625 19.3181 14.625 19.0938C14.625 18.8694 14.4431 18.6875 14.2188 18.6875C13.9944 18.6875 13.8125 18.8694 13.8125 19.0938C13.8125 19.3181 13.9944 19.5 14.2188 19.5Z" fill="#017D03"/>
<path d="M15.4375 21.9375C15.6619 21.9375 15.8438 21.7556 15.8438 21.5312C15.8438 21.3069 15.6619 21.125 15.4375 21.125C15.2131 21.125 15.0312 21.3069 15.0312 21.5312C15.0312 21.7556 15.2131 21.9375 15.4375 21.9375Z" fill="#017D03"/>
</g>
<defs>
<clipPath id="clip0_1576_10602">
<rect width="26" height="26" fill="white"/>
</clipPath>
</defs>
</svg>
