<svg width="60" height="60" viewBox="0 0 60 60" fill="none" xmlns="http://www.w3.org/2000/svg">
<path d="M27.1875 49.6875H24.375C21.3913 49.6875 18.5298 48.5022 16.42 46.3925C14.3103 44.2827 13.125 41.4212 13.125 38.4375V25.3125C13.125 24.3179 13.5201 23.3641 14.2233 22.6609C14.9266 21.9576 15.8804 21.5625 16.875 21.5625H43.125C44.1196 21.5625 45.0734 21.9576 45.7766 22.6609C46.4799 23.3641 46.875 24.3179 46.875 25.3125V30.3398" fill="#B17946"/>
<path d="M22.5 2.8125H38.4375V6.5625H22.5V2.8125Z" fill="#B17946"/>
<path d="M13.125 38.4375C13.125 38.4375 7.5 35.625 7.5 30.9375L2.8125 21.5625H7.5L13.125 27.1875" fill="#935E32"/>
<path d="M21.5625 21.5625L25.3125 17.8125H35.625L39.375 21.5625" fill="#935E32"/>
<path opacity="0.4" d="M13.125 25.3125V38.4375C13.1238 40.2801 13.5756 42.0947 14.4407 43.7215C15.3057 45.3484 16.5576 46.7376 18.0859 47.7668V29.4405C18.0859 22.721 23.2406 21.5625 23.2406 21.5625H16.875C15.8804 21.5625 14.9266 21.9576 14.2234 22.6609C13.5201 23.3641 13.125 24.3179 13.125 25.3125Z" fill="white"/>
<path opacity="0.3" d="M46.8749 25.3125V38.4375C46.8762 40.2801 46.4243 42.0947 45.5593 43.7215C44.6942 45.3484 43.4423 46.7376 41.914 47.7668V29.4405C41.914 22.721 36.7593 21.5625 36.7593 21.5625H43.1249C44.1195 21.5625 45.0733 21.9576 45.7766 22.6609C46.4798 23.3641 46.8749 24.3179 46.8749 25.3125Z" fill="#512D15"/>
<path d="M49.6874 30C49.6874 30 49.6803 30.5754 49.6124 31.5223C49.419 34.2434 48.7311 40.0371 46.3053 44.0625L38.3682 43.568L37.9463 43.5422L31.2467 43.125C30.4874 41.0332 31.0135 38.6297 34.071 35.5723C35.0401 34.6031 36.2436 33.798 37.5503 33.1324C38.1128 32.8441 38.6964 32.5828 39.287 32.3449C42.7065 30.9633 46.4096 30.3691 48.3409 30.1359C49.1823 30.034 49.6874 30 49.6874 30Z" fill="#566B30"/>
<path opacity="0.3" d="M9.75098 35.8958C10.7386 36.9111 11.8765 37.7684 13.1249 38.4375V27.1875L11.9035 25.9661L9.75098 35.8958Z" fill="#724421"/>
<path d="M22.5 4.6875H38.4375V6.5625H22.5V4.6875Z" fill="#724421"/>
<path opacity="0.4" d="M29.0625 17.8125L25.3869 21.4881L21.5625 21.5625L25.3125 17.8125H29.0625Z" fill="white"/>
<g style="mix-blend-mode:multiply" opacity="0.3">
<path d="M30.9726 40.826C30.88 41.6033 30.974 42.3914 31.2468 43.1251L37.9464 43.5423L38.3683 43.5681L46.3054 44.0626C47.1642 42.6374 47.8044 40.9903 48.2828 39.3365C45.2873 39.0045 37.9687 38.5452 30.9726 40.826Z" fill="#56524E"/>
</g>
<path d="M57.1875 49.6875C57.1875 49.6875 46.3021 57.1875 37.5 57.1875C28.6979 57.1875 27.1875 53.8296 27.1875 49.6875C27.1875 45.5454 28.6979 42.1875 37.5 42.1875C46.3021 42.1875 57.1875 49.6875 57.1875 49.6875Z" fill="#254A0C"/>
<path opacity="0.2" d="M27.1875 49.6875C27.1875 50.005 27.1965 50.3179 27.2168 50.625C38.7122 41.1797 57.1875 49.6875 57.1875 49.6875C57.1875 49.6875 46.3021 42.1875 37.5 42.1875C28.6979 42.1875 27.1875 45.5454 27.1875 49.6875Z" fill="white"/>
<path d="M28.125 20.625H30V22.5H28.125V20.625Z" fill="#172D05"/>
<path d="M57.7194 48.9155C55.5864 47.4951 53.3608 46.219 51.0574 45.0959C49.8888 44.5225 48.7531 44.013 47.6503 43.5673C50.4869 38.0168 50.6204 30.3546 50.625 30.0117C50.6266 29.8824 50.6015 29.7541 50.5512 29.6349C50.5009 29.5158 50.4265 29.4083 50.3326 29.3193C50.2388 29.2303 50.1275 29.1617 50.0059 29.1178C49.8842 29.0739 49.7548 29.0556 49.6257 29.0641C49.5192 29.0712 48.8457 29.1186 47.8125 29.2528V25.3125C47.8112 24.2323 47.4375 23.1855 46.7544 22.3487C46.0713 21.5119 45.1206 20.9363 44.0625 20.7188V7.55461C44.0614 6.54589 43.6602 5.57878 42.947 4.86551C42.2337 4.15224 41.2666 3.75105 40.2579 3.75H39.375V2.8125C39.375 2.56386 39.2762 2.3254 39.1004 2.14959C38.9246 1.97377 38.6861 1.875 38.4375 1.875H22.5C22.2513 1.875 22.0129 1.97377 21.8371 2.14959C21.6612 2.3254 21.5625 2.56386 21.5625 2.8125V3.75H20.6796C19.6709 3.75105 18.7038 4.15224 17.9905 4.86551C17.2772 5.57878 16.876 6.54589 16.875 7.55461V20.625C15.6968 20.6266 14.5623 21.0713 13.6969 21.8707C12.8314 22.6702 12.2984 23.7659 12.2036 24.9403L8.1629 20.8996C8.07584 20.8125 7.97249 20.7435 7.85874 20.6964C7.745 20.6492 7.62308 20.625 7.49997 20.625H2.81247C2.65266 20.625 2.49552 20.6659 2.35594 20.7437C2.21637 20.8215 2.09901 20.9337 2.015 21.0697C1.93099 21.2056 1.88312 21.3608 1.87595 21.5204C1.86877 21.68 1.90252 21.8389 1.97399 21.9818L6.56634 31.1665C6.7079 35.4118 10.7499 38.1498 12.2009 38.9982C12.3488 42.1288 13.6955 45.0825 15.962 47.2471C18.2284 49.4117 21.2409 50.6212 24.375 50.625H26.2769C26.3757 52.2367 26.8024 54.206 28.4088 55.6813C30.1992 57.3257 33.1731 58.125 37.5 58.125C41.2947 58.125 45.8561 56.831 51.0574 54.2791C53.3608 53.156 55.5864 51.8799 57.7194 50.4595C57.8445 50.3733 57.9468 50.258 58.0174 50.1236C58.0881 49.9891 58.125 49.8394 58.125 49.6875C58.125 49.5356 58.0881 49.3859 58.0174 49.2514C57.9468 49.117 57.8445 49.0017 57.7194 48.9155ZM40.3711 41.475L48.5797 32.5823C48.312 35.293 47.627 39.5999 45.8844 42.8974C44.096 42.2492 42.2499 41.7729 40.3711 41.475ZM28.159 48.75C28.2832 47.0686 28.7645 45.9128 29.677 45.0746C31.1056 43.7627 33.6645 43.125 37.5 43.125C38.7549 43.1365 40.0056 43.2737 41.2332 43.5345L35.2727 48.75H28.159ZM34.7343 36.2354C35.5837 35.3861 36.6352 34.6698 37.7843 34.0658L39.2491 39.9252L38.0186 41.2583C37.8443 41.253 37.6709 41.2495 37.4997 41.2495C35.2865 41.2495 33.4282 41.4592 31.9003 41.8836C31.7421 40.6207 32.1591 38.8109 34.7343 36.2354ZM40.7701 38.2781L39.5162 33.2625C42.2605 32.1391 45.2431 31.5371 47.2766 31.2291L40.7701 38.2781ZM23.4375 3.75H37.5V5.625H23.4375V3.75ZM18.75 7.55461C18.7506 7.04303 18.954 6.55256 19.3158 6.19082C19.6775 5.82908 20.168 5.62559 20.6796 5.625H21.5625V6.5625C21.5625 6.81114 21.6612 7.0496 21.8371 7.22541C22.0129 7.40123 22.2513 7.5 22.5 7.5H38.4375C38.6861 7.5 38.9246 7.40123 39.1004 7.22541C39.2762 7.0496 39.375 6.81114 39.375 6.5625V5.625H40.2579C40.7694 5.62559 41.2599 5.82908 41.6216 6.19082C41.9834 6.55256 42.1869 7.04303 42.1875 7.55461V20.625H39.7632L36.2878 17.1496C36.112 16.9738 35.8736 16.875 35.625 16.875H31.4062V14.0625H29.5312V16.875H25.3125C25.1894 16.875 25.0674 16.8992 24.9537 16.9464C24.84 16.9935 24.7366 17.0625 24.6495 17.1496L21.1742 20.625H18.75V7.55461ZM8.43747 30.9375C8.43746 30.7919 8.40356 30.6484 8.33844 30.5182L4.32934 22.5H7.11173L12.1875 27.5757V36.7515C10.6741 35.6739 8.43747 33.6266 8.43747 30.9375ZM14.0625 38.4375V25.3125C14.0633 24.5668 14.3599 23.852 14.8872 23.3247C15.4144 22.7974 16.1293 22.5008 16.875 22.5H26.25V20.625H23.8257L25.7007 18.75H35.2366L37.1116 20.625H31.875V22.5H43.125C43.8706 22.5008 44.5855 22.7974 45.1128 23.3247C45.64 23.852 45.9366 24.5668 45.9375 25.3125V29.5393C42.2411 30.1867 36.6568 31.6615 33.4087 34.9097C30.7095 37.6089 29.6259 40.118 30.1149 42.5503C29.494 42.8473 28.9193 43.2326 28.4088 43.6942C27.5669 44.4676 26.4733 45.8153 26.28 48.7505H24.375C21.6408 48.7474 19.0195 47.6598 17.0862 45.7264C15.1529 43.793 14.0654 41.1717 14.0625 38.4375ZM29.6771 54.3004C28.7646 53.4622 28.2833 52.3064 28.1591 50.625H35.2724L41.2334 55.841C40.0057 56.1015 38.755 56.2385 37.5 56.25C33.6645 56.25 31.1056 55.6123 29.6771 54.3004ZM43.4499 55.2891L38.1201 50.625H42.1875V48.75H38.1201L43.4489 44.0872C47.4962 45.2702 51.3998 47.2991 53.8997 48.75H47.8125V50.625H53.9016C51.4025 52.0764 47.4992 54.1055 43.4499 55.2891Z" fill="#172D05"/>
<path d="M44.0625 48.75H45.9375V50.625H44.0625V48.75Z" fill="#172D05"/>
</svg>
