<svg width="26" height="26" viewBox="0 0 26 26" fill="none" xmlns="http://www.w3.org/2000/svg">
<g clip-path="url(#clip0_1576_10565)">
<path d="M25.3136 19.9461C25.2016 19.8341 25.0784 19.7334 24.9474 19.6468C24.7716 19.5306 24.5349 19.579 24.4187 19.7547C24.3025 19.9305 24.3508 20.1672 24.5266 20.2834C24.9663 20.5741 25.2369 21.0744 25.2369 21.6033C25.2369 22.0255 25.0726 22.4224 24.774 22.7209C24.46 23.0349 24.0263 23.2038 23.5813 23.1821C23.4745 23.1775 23.3695 23.2176 23.2935 23.2935C23.2176 23.3694 23.1772 23.4739 23.1822 23.5812C23.2031 24.0252 23.0351 24.4599 22.721 24.7739C22.0978 25.397 21.1019 25.3899 20.4857 24.7739C20.1871 24.4753 20.0228 24.0784 20.0228 23.6562C20.0228 23.234 20.1871 22.8371 20.4857 22.5385C20.6954 22.3289 21.021 22.097 20.7216 21.7976C20.7209 21.7969 19.2138 20.2898 19.2138 20.2898L20.2899 19.2137C20.2899 19.2137 21.7952 20.719 21.7977 20.7215C21.9589 20.8827 22.2425 20.8598 22.3761 20.6761C22.4254 20.6082 22.4802 20.5442 22.5386 20.4857C22.72 20.3042 22.935 20.1733 23.1775 20.0965C23.3784 20.0329 23.4898 19.8185 23.4262 19.6176C23.3626 19.4167 23.1481 19.3055 22.9473 19.369C22.6148 19.4742 22.3064 19.6557 22.0511 19.8956L20.7028 18.5473C20.7028 18.5473 20.3486 17.6567 20.2895 17.2374C20.1623 16.3347 20.1498 15.4365 20.1593 14.5303C20.1662 13.8628 20.1729 13.1938 20.1086 12.5285C19.7825 9.15499 18.0722 6.1948 16.6948 4.30558C15.4213 2.55886 13.809 1.02044 13.7815 0.99292C12.7722 -0.0164079 11.1496 -0.266201 9.21225 0.289295C7.35315 0.822448 5.4036 2.04176 3.72269 3.72267C2.04178 5.40358 0.822474 7.35312 0.289322 9.21222C-0.266225 11.1495 -0.016381 12.7722 0.992846 13.7815C1.01783 13.8065 2.54563 15.4117 4.30551 16.6948C5.85393 17.8237 7.55129 18.7736 9.3653 19.4015C9.89571 19.5851 10.4361 19.7404 10.9842 19.8619C11.8671 20.0576 12.7659 20.1597 13.6731 20.1623C14.8635 20.1658 16.0515 20.1224 17.2374 20.2895C17.6567 20.3485 18.5063 20.6934 18.5268 20.698L19.8956 22.051C19.4849 22.4873 19.2596 23.0544 19.2596 23.6563C19.2596 24.2823 19.5034 24.8708 19.946 25.3135C20.3887 25.7562 20.9773 26 21.6033 26C22.2293 26 22.8179 25.7562 23.2606 25.3135C23.6346 24.9394 23.869 24.4499 23.9307 23.9307C24.4499 23.8691 24.9395 23.6346 25.3135 23.2606C25.7562 22.8179 26 22.2293 26 21.6033C26 20.9773 25.7562 20.3887 25.3136 19.9461ZM1.02286 9.42261C1.52092 7.68584 2.67137 5.85319 4.26229 4.26232C5.85317 2.67139 7.68581 1.52089 9.42258 1.02288C10.029 0.849006 10.5949 0.76283 11.1083 0.76283C11.9991 0.76283 12.7316 1.02227 13.2418 1.53247C14.0461 2.33669 14.2271 3.69311 13.7515 5.35173C13.2535 7.0885 12.103 8.92114 10.5121 10.512C8.92122 12.1029 7.08858 13.2534 5.35181 13.7514C3.69304 14.2271 2.33682 14.0461 1.53255 13.2418C0.728225 12.4376 0.54724 11.0812 1.02286 9.42261ZM17.3438 19.5338C17.0933 19.4985 16.843 19.471 16.5927 19.4499C15.8777 19.3896 15.1623 19.3813 14.4388 19.3916C12.9929 19.4122 11.6949 19.304 10.3094 18.9018C8.2697 18.3097 6.47854 17.3324 4.77011 16.0891C4.12346 15.6184 3.5577 15.154 3.08788 14.7411C3.27409 14.763 3.46635 14.7743 3.6647 14.7743C4.25051 14.7743 4.88731 14.6785 5.56214 14.485C7.42119 13.9518 9.37079 12.7325 11.0517 11.0517C12.7326 9.37076 13.9519 7.42117 14.485 5.56212C14.744 4.65897 14.8278 3.82433 14.7414 3.08821C15.1542 3.55798 15.6185 4.12348 16.089 4.77013C17.4058 6.57921 19.0401 9.40646 19.349 12.602C19.5014 14.1788 19.3115 15.7665 19.5338 17.344C19.5968 17.7906 19.7382 18.1863 19.8817 18.5427L18.5425 19.8819C18.1863 19.7383 17.7906 19.5968 17.3438 19.5338Z" fill="#017D03"/>
<path d="M5.7864 12.8718C7.2096 12.3936 8.7278 11.3958 10.0614 10.0622C11.395 8.72858 12.3928 7.21043 12.871 5.78718C13.3794 4.27426 13.2462 3.02783 12.4959 2.27749C10.9957 0.77756 7.57649 1.84681 4.71121 4.71189C4.27012 5.15297 3.86103 5.61965 3.49505 6.09903C3.36723 6.26656 3.39938 6.50599 3.56685 6.63386C3.73448 6.76167 3.97381 6.72953 4.10168 6.56205C4.44704 6.10954 4.83369 5.66866 5.25086 5.25154C7.72807 2.77428 10.7989 1.65948 11.9563 2.81709C12.4832 3.34399 12.5531 4.33794 12.1478 5.54409C11.7064 6.85775 10.7738 8.27064 9.52187 9.5225C8.27001 10.7744 6.85712 11.707 5.54346 12.1484C4.33741 12.5536 3.34337 12.484 2.81641 11.957C2.09994 11.2405 2.23628 9.72029 3.17223 7.98962C3.27247 7.80426 3.20346 7.57275 3.01811 7.47256C2.83281 7.37222 2.60125 7.44128 2.50106 7.62668C1.38143 9.69688 1.29764 11.5174 2.27686 12.4966C2.72764 12.9474 3.35738 13.1754 4.11661 13.1754C4.62082 13.1754 5.18251 13.0748 5.7864 12.8718Z" fill="#017D03"/>
<path d="M8.46509 7.44284C9.04486 7.44284 9.75848 7.07427 10.3698 6.40741C11.2717 5.42363 11.5076 4.2746 10.9186 3.73464C10.6077 3.44961 10.1433 3.39928 9.61086 3.59286C9.16216 3.75607 8.69787 4.0828 8.3035 4.51297C7.40162 5.4967 7.16569 6.64573 7.75466 7.18579C7.94443 7.35966 8.18965 7.44284 8.46509 7.44284ZM8.866 5.0286C9.17445 4.69217 9.54099 4.43024 9.87162 4.30994C10.2043 4.18888 10.5173 4.21493 10.4735 4.63809C10.425 5.10695 10.1164 5.55454 9.80739 5.89168C9.16632 6.59083 8.45787 6.79497 8.27039 6.62323C8.08301 6.45144 8.22499 5.72781 8.866 5.0286Z" fill="#017D03"/>
</g>
<defs>
<clipPath id="clip0_1576_10565">
<rect width="26" height="26" fill="white"/>
</clipPath>
</defs>
</svg>
