<svg width="60" height="60" viewBox="0 0 60 60" fill="none" xmlns="http://www.w3.org/2000/svg">
<g clip-path="url(#clip0_670_53347)">
<path d="M58.1249 33.7031V35.6719C58.1249 38.9906 56.7374 42.1406 54.328 44.4094L50.6812 43.8562C51.853 41.925 52.4999 39.675 52.4999 37.35V33.9C52.4999 31.9594 52.0499 30.075 51.2249 28.3875C50.6155 27.1313 49.7812 25.9875 48.7593 25.0031L48.7687 24.9937C49.2937 24.0375 50.2968 23.4375 51.4124 23.4375C52.0593 23.4375 52.6874 23.6437 53.2124 24.0281C56.3062 26.3156 58.1249 29.8969 58.1249 33.7031Z" fill="#FCD770"/>
<path d="M47.6625 24.0375C48.0563 24.3375 48.4312 24.6563 48.7594 25.0031C49.7812 25.9875 50.6156 27.1313 51.225 28.3875C52.05 30.075 52.5 31.9594 52.5 33.9V37.35C52.5 39.675 51.8531 41.925 50.6813 43.8562L41.8875 42.5063V42.4969C41.4656 40.875 41.25 39.2156 41.25 37.5281V33.7219C41.25 32.4188 41.3812 31.1156 41.6344 29.8406C42.0937 29.9437 42.5906 30 43.125 30C45.1969 30 46.875 29.1562 46.875 28.125C46.875 27.4594 46.1813 26.8781 45.1406 26.55L45.4219 23.475C45.5719 23.4469 45.7313 23.4375 45.8906 23.4375C46.5281 23.4375 47.1562 23.6531 47.6625 24.0375Z" fill="#FCD770"/>
<path d="M36.3469 23.8406C36.8438 24.1219 37.2469 24.5344 37.5188 25.05V25.0594C35.1281 27.3562 33.75 30.5438 33.75 33.9V37.35C33.75 38.7281 33.9844 40.0781 34.425 41.3531L29.1656 40.5469C28.4906 39.0281 28.125 37.3781 28.125 35.6719V33.7031C28.125 33 28.1906 32.2969 28.3125 31.6125C28.35 31.4156 28.3875 31.2188 28.4344 31.0219C29.0719 28.2563 30.6844 25.7719 33.0375 24.0281C33.5625 23.6437 34.1906 23.4375 34.8375 23.4375C35.3812 23.4375 35.8969 23.5781 36.3469 23.8406Z" fill="#FCD770"/>
<path d="M40.8281 23.4563L41.1094 26.55C40.0687 26.8781 39.375 27.4594 39.375 28.125C39.375 28.8937 40.3031 29.55 41.6344 29.8406C41.3813 31.1156 41.25 32.4188 41.25 33.7219V37.5281C41.25 39.2156 41.4656 40.875 41.8875 42.4969L36 41.5969L34.425 41.3531C33.9844 40.0781 33.75 38.7281 33.75 37.35V33.9C33.75 30.5437 35.1281 27.3562 37.5188 25.0594V25.05C37.8938 24.6844 38.2875 24.3469 38.7094 24.0375C39.2344 23.6531 39.8719 23.4375 40.5281 23.4375C40.6312 23.4375 40.725 23.4469 40.8188 23.4563H40.8281Z" fill="#FCD770"/>
<path d="M46.875 28.125C46.875 29.1562 45.1969 30 43.125 30C42.5906 30 42.0937 29.9438 41.6344 29.8406C40.3031 29.55 39.375 28.8938 39.375 28.125C39.375 27.4594 40.0687 26.8781 41.1094 26.55L40.8281 23.4563L40.3219 17.9344C40.3125 17.85 40.3125 17.775 40.3125 17.6906C40.3125 16.2 41.5125 15 43.0031 15H43.2469C43.9875 15 44.6625 15.3 45.15 15.7875C45.6375 16.275 45.9375 16.95 45.9375 17.6906C45.9375 17.775 45.9375 17.85 45.9281 17.9344L45.4219 23.475L45.1406 26.55C46.1813 26.8781 46.875 27.4594 46.875 28.125Z" fill="#CF9E76"/>
<path d="M22.4156 5.74687C22.7437 5.67187 23.0906 5.625 23.4375 5.625C24.9656 5.625 26.3344 6.35625 27.1875 7.5L27.1687 7.59375C26.8687 7.52812 26.5688 7.5 26.25 7.5C24.3094 7.5 22.65 8.67187 21.9375 10.35C21.8156 10.3406 21.6938 10.3125 21.5625 10.3125C19.2094 10.3125 17.2781 12.0562 16.9406 14.3156C14.2031 15.1031 12.1875 17.625 12.1875 20.625C12.1875 23.1844 13.65 25.3875 15.7875 26.475C15.2906 27.2156 15 28.1062 15 29.0625C15 30.7312 15.8813 32.1844 17.1938 33.0187C16.9969 33.5344 16.875 34.0969 16.875 34.6875C16.875 37.275 18.975 39.4031 21.5625 39.4031C21.3188 39.3844 21.0844 39.375 20.85 39.375H20.625C18.7969 39.375 17.0906 39.9 15.6469 40.8094L13.125 33.75C10.5375 33.75 8.4375 31.65 8.4375 29.0625C8.4375 28.4719 8.55938 27.9094 8.75625 27.3937C7.44375 26.5594 6.5625 25.1062 6.5625 23.4375C6.5625 22.4812 6.85313 21.5906 7.35 20.85C5.2125 19.7625 3.75 17.5594 3.75 15C3.75 12 5.76562 9.47813 8.50312 8.69063C8.84062 6.43125 10.7719 4.6875 13.125 4.6875C13.2563 4.6875 13.3781 4.71562 13.5 4.725C14.2125 3.04687 15.8719 1.875 17.8125 1.875C20.1187 1.875 22.0312 3.54375 22.4156 5.74687Z" fill="#8CC152"/>
<path d="M35.2125 19.2188C36.0469 20.0625 36.5625 21.225 36.5625 22.5C36.5625 22.9406 36.4969 23.3719 36.3844 23.775L36.3469 23.8406C35.8969 23.5781 35.3813 23.4375 34.8375 23.4375C34.1906 23.4375 33.5625 23.6437 33.0375 24.0281C30.6844 25.7719 29.0719 28.2563 28.4344 31.0219C28.3875 31.2188 28.35 31.4156 28.3125 31.6125C28.1906 32.2969 28.125 33 28.125 33.7031V35.6719C28.125 37.3781 28.4906 39.0281 29.1656 40.5469L22.275 39.4875C22.0312 39.45 21.7969 39.4219 21.5625 39.4031C18.975 39.4031 16.875 37.275 16.875 34.6875C16.875 34.0969 16.9969 33.5344 17.1938 33.0188C15.8813 32.1844 15 30.7313 15 29.0625C15 28.1063 15.2906 27.2156 15.7875 26.475C13.65 25.3875 12.1875 23.1844 12.1875 20.625C12.1875 17.625 14.2031 15.1031 16.9406 14.3156C17.2781 12.0563 19.2094 10.3125 21.5625 10.3125C21.6938 10.3125 21.8156 10.3406 21.9375 10.35C22.65 8.67188 24.3094 7.5 26.25 7.5C26.5688 7.5 26.8687 7.52813 27.1687 7.59375C29.0531 7.96875 30.525 9.46875 30.8531 11.3719C31.1812 11.2969 31.5281 11.25 31.875 11.25C34.4625 11.25 36.5625 13.35 36.5625 15.9375C36.5625 17.2125 36.0469 18.375 35.2125 19.2188Z" fill="#B4DD7F"/>
<path d="M6.375 46.875H11.4375C11.3156 47.475 11.25 48.1031 11.25 48.75C11.25 49.3969 11.3156 50.025 11.4375 50.625H6.375H3.75C3.23438 50.625 2.76562 50.4187 2.42812 50.0719C2.08125 49.7344 1.875 49.2656 1.875 48.75C1.875 47.7188 2.71875 46.875 3.75 46.875H6.375Z" fill="#B4DD7F"/>
<path d="M6.74063 43.1625L12.3188 44.4094C11.9156 45.1781 11.6156 46.0031 11.4375 46.875H6.375C5.44688 46.875 4.6875 46.1156 4.6875 45.1875V44.8125C4.6875 43.8844 5.44688 43.125 6.375 43.125C6.49688 43.125 6.61875 43.1344 6.74063 43.1625Z" fill="#B4DD7F"/>
<path d="M12.3188 53.0906L6.74063 54.3375C6.61875 54.3656 6.49688 54.375 6.375 54.375C5.44688 54.375 4.6875 53.6156 4.6875 52.6875V52.3125C4.6875 51.3844 5.44688 50.625 6.375 50.625H11.4375C11.6156 51.4969 11.9156 52.3219 12.3188 53.0906Z" fill="#B4DD7F"/>
<path d="M57.075 45.9C56.4094 45.1312 55.4813 44.5875 54.4219 44.4281L54.3281 44.4094L50.6813 43.8562L41.8875 42.5063V42.4969L36 41.5969L34.425 41.3531L29.1656 40.5469L22.275 39.4875C22.0312 39.45 21.7969 39.4219 21.5625 39.4031C21.3188 39.3844 21.0844 39.375 20.85 39.375H20.625C18.7969 39.375 17.0906 39.9 15.6469 40.8094C14.2406 41.6906 13.0875 42.9375 12.3188 44.4094C11.9156 45.1781 11.6156 46.0031 11.4375 46.875C11.3156 47.475 11.25 48.1031 11.25 48.75C11.25 49.3969 11.3156 50.025 11.4375 50.625C11.6156 51.4969 11.9156 52.3219 12.3188 53.0906C12.7594 53.9344 13.3313 54.7125 13.9969 55.3781C15.6938 57.075 18.0375 58.125 20.625 58.125H20.85C21.3187 58.125 21.7969 58.0875 22.275 58.0125L36 55.9031L54.4219 53.0719C56.55 52.7438 58.125 50.9062 58.125 48.75C58.125 47.6719 57.7313 46.6687 57.075 45.9Z" fill="#FF826E"/>
<path d="M59.0625 33.7022C59.0625 29.6203 57.0834 25.7222 53.7684 23.2753C53.0925 22.7747 52.2544 22.5 51.4097 22.5C50.3522 22.5 49.3612 22.9228 48.6338 23.6419C48.4978 23.5284 48.3741 23.4038 48.2334 23.2959C47.7131 22.8984 47.0887 22.6622 46.4475 22.5647L46.8609 18.0187C46.8703 17.91 46.875 17.8003 46.875 17.6906C46.875 15.69 45.2475 14.0625 43.2469 14.0625H43.0031C41.0025 14.0625 39.375 15.69 39.375 17.6906C39.375 17.8003 39.3797 17.91 39.39 18.0197L39.8053 22.5853C39.2109 22.6978 38.6362 22.9275 38.1506 23.2894C37.9828 23.415 37.8337 23.5594 37.6725 23.6916C37.5891 23.6053 37.5009 23.5247 37.41 23.4469C37.4634 23.1347 37.5 22.8188 37.5 22.5C37.5 21.3094 37.1287 20.1703 36.4406 19.2188C37.1287 18.2672 37.5 17.1291 37.5 15.9375C37.5 12.7275 34.7841 10.1259 31.5478 10.3228C30.9459 8.59781 29.5425 7.2975 27.8175 6.79594C26.6756 5.37187 24.9544 4.58156 23.1103 4.69781C22.3341 2.47313 20.2322 0.9375 17.8125 0.9375C15.7828 0.9375 13.935 2.02312 12.9394 3.75281C10.4569 3.83625 8.31094 5.58844 7.69594 7.97531C4.79344 9.05812 2.8125 11.8678 2.8125 15C2.8125 17.5116 4.04813 19.8075 6.09281 21.195C5.78438 21.8991 5.625 22.6603 5.625 23.4375C5.625 25.125 6.375 26.6934 7.66219 27.7556C7.55438 28.1906 7.5 28.6284 7.5 29.0625C7.5 31.935 9.66562 34.3125 12.45 34.6472L14.5237 40.455C13.4616 41.2378 12.5569 42.2175 11.8603 43.3425L6.94875 42.2513C6.76219 42.2081 6.57 42.1875 6.37687 42.1875C4.92844 42.1875 3.75 43.3659 3.75 44.8144V45.1856C3.75 45.4481 3.80063 45.6975 3.87281 45.9375H3.75C2.19937 45.9375 0.9375 47.1994 0.9375 48.75C0.9375 50.3006 2.19937 51.5625 3.75 51.5625H3.87281C3.80063 51.8025 3.75 52.0519 3.75 52.3144V52.6856C3.75 54.1341 4.92844 55.3125 6.37687 55.3125C6.57 55.3125 6.76219 55.2919 6.94687 55.2497L11.8603 54.1575C13.68 57.0956 16.9228 59.0625 20.625 59.0625H20.8453C21.3666 59.0625 21.8944 59.0222 22.4128 58.9425L54.5606 53.9972C57.1688 53.595 59.0625 51.3891 59.0625 48.75C59.0625 46.6397 57.8409 44.8237 56.0222 43.9678C57.9647 41.6475 59.0625 38.7038 59.0625 35.6728V33.7022ZM47.0934 24.7856C49.8919 26.925 51.5625 30.3328 51.5625 33.9038V37.3472C51.5625 39.2691 51.0834 41.1506 50.1806 42.8297L42.6628 41.6728C42.3534 40.3125 42.1875 38.9231 42.1875 37.5281V33.7219C42.1875 32.7769 42.2822 31.8328 42.4256 30.8972C42.6553 30.9169 42.8841 30.9375 43.125 30.9375C45.7978 30.9375 47.8125 29.7281 47.8125 28.125C47.8125 27.24 47.2003 26.4544 46.14 25.9387L46.2778 24.4219C46.5703 24.4809 46.8516 24.5991 47.0934 24.7856ZM43.0031 15.9375H43.2478C44.2144 15.9375 45.0009 16.7241 45.0009 17.6906C45.0009 17.7441 44.9991 17.7975 44.9934 17.85L44.1422 27.2128L44.8575 27.4425C45.6787 27.705 45.9375 28.0509 45.9375 28.125C45.9375 28.3584 44.94 29.0625 43.125 29.0625C41.31 29.0625 40.3125 28.3584 40.3125 28.125C40.3125 28.0509 40.5713 27.705 41.3925 27.4416L42.1078 27.2119L41.2566 17.85C41.2519 17.7966 41.25 17.7431 41.25 17.6906C41.25 16.7241 42.0366 15.9375 43.0031 15.9375ZM39.975 24.4528L40.11 25.9387C39.0497 26.4544 38.4375 27.24 38.4375 28.125C38.4375 29.1581 39.2803 30.0216 40.59 30.5091C40.4222 31.5731 40.3125 32.6475 40.3125 33.7219V37.5281C40.3125 38.8162 40.4362 40.1025 40.6763 41.3672L35.1497 40.5169C34.8488 39.4866 34.6875 38.4244 34.6875 37.3462V33.9028C34.6875 30.3375 36.4012 26.9306 39.2719 24.7913C39.4809 24.6356 39.7219 24.5212 39.975 24.4528ZM29.8434 39.7003C29.3344 38.4122 29.0625 37.0631 29.0625 35.6728V33.7013C29.0625 30.2119 30.7575 26.8781 33.5953 24.7819C33.9516 24.5194 34.3941 24.375 34.8403 24.375C35.4066 24.375 35.9278 24.6028 36.3094 24.9844C34.0988 27.4069 32.8125 30.5888 32.8125 33.9038V37.3472C32.8125 38.3138 32.9278 39.27 33.1369 40.2075L29.8434 39.7003ZM29.9316 11.5322L30.1022 12.4969L31.0584 12.2841C31.3491 12.2194 31.6162 12.1875 31.875 12.1875C33.9431 12.1875 35.625 13.8694 35.625 15.9375C35.625 16.9228 35.2425 17.8547 34.5488 18.5616L33.9038 19.2188L34.5488 19.8759C35.2425 20.5828 35.625 21.5147 35.625 22.5C35.625 22.5281 35.6194 22.5562 35.6194 22.5853C35.3653 22.5347 35.1066 22.5 34.8403 22.5C33.9956 22.5 33.1575 22.7747 32.4816 23.2744C30.7753 24.5334 29.4319 26.1806 28.5206 28.0359C28.1653 26.9297 27.7922 25.8703 27.4078 24.8644C28.275 20.2837 31.4916 17.6325 31.5244 17.6053L30.9375 16.875L30.3516 16.1428C30.2213 16.2469 27.6853 18.3178 26.2612 22.0538C24.3103 17.5744 22.4691 14.6766 22.3509 14.4928L20.7731 15.5072C20.7984 15.5456 22.2281 17.7947 23.8922 21.375C21.0881 20.3194 17.9016 20.6109 17.7188 20.6297L17.9053 22.4953C19.3153 22.3538 23.3091 22.4222 25.1747 24.3263C25.8319 25.9416 26.4797 27.7125 27.0516 29.61C24.2016 28.1484 20.8013 28.125 20.625 28.125V30C20.6691 30 24.8428 30.0281 27.3131 31.9922C27.2362 32.5566 27.1875 33.1266 27.1875 33.7022V35.6737C27.1875 36.9403 27.3825 38.1788 27.7444 39.3787L22.4128 38.5584C22.1316 38.5153 21.8475 38.4862 21.5625 38.4656C19.4944 38.4656 17.8125 36.7706 17.8125 34.6884C17.8125 34.2516 17.8997 33.8034 18.0703 33.3544L18.3441 32.6372L17.6944 32.2266C16.5947 31.5309 15.9375 30.3487 15.9375 29.0625C15.9375 28.3247 16.1541 27.6094 16.5637 26.9925L17.1478 26.115L16.2084 25.6378C14.3062 24.6703 13.125 22.7503 13.125 20.625C13.125 18.1303 14.8013 15.9084 17.2022 15.2213L17.7844 15.0544L17.8716 14.4553C18.1388 12.6281 19.7259 11.25 21.5625 11.25C21.5972 11.25 21.6309 11.2575 21.6647 11.2622C21.7303 11.2716 21.7969 11.28 21.8634 11.2847L22.5356 11.3391L22.8 10.7184C23.3916 9.33281 24.7453 8.4375 26.25 8.4375C28.0669 8.4375 29.6147 9.73875 29.9316 11.5322ZM13.7859 32.8125H13.125C11.0569 32.8125 9.375 31.1306 9.375 29.0625C9.375 28.6247 9.46219 28.1766 9.63281 27.7294L9.9075 27.0122L9.25781 26.6016C8.15719 25.9059 7.5 24.7237 7.5 23.4375C7.5 22.6997 7.71656 21.9844 8.12625 21.3675L8.71031 20.49L7.77094 20.0128C5.86875 19.0453 4.6875 17.1253 4.6875 15C4.6875 12.5053 6.36375 10.2834 8.76375 9.59625L9.34594 9.42937L9.43313 8.83031C9.70125 7.00312 11.2884 5.625 13.125 5.625C13.1606 5.625 13.1953 5.6325 13.23 5.63719C13.2938 5.64563 13.3575 5.65406 13.4231 5.65969L14.0981 5.71594L14.3634 5.0925C14.9541 3.70781 16.3078 2.8125 17.8125 2.8125C19.6294 2.8125 21.1772 4.11375 21.4941 5.90719L21.6647 6.87187L22.6209 6.65906C22.9116 6.59438 23.1787 6.5625 23.4375 6.5625C23.8687 6.5625 24.2784 6.65719 24.6703 6.79406C23.2922 7.19719 22.1053 8.11219 21.3769 9.37781C18.8944 9.46125 16.7484 11.2134 16.1334 13.6003C13.2309 14.6831 11.25 17.4928 11.25 20.625C11.25 23.1366 12.4856 25.4325 14.5303 26.82C14.2219 27.5241 14.0625 28.2853 14.0625 29.0625C14.0625 30.75 14.8125 32.3184 16.0997 33.3816C15.9919 33.8166 15.9375 34.2534 15.9375 34.6875C15.9375 36.3347 16.6462 37.815 17.7684 38.8481C17.2116 39.0094 16.6762 39.2184 16.1625 39.4669L13.7859 32.8125ZM5.625 45.1856V44.8144C5.625 44.3438 6.08063 43.9809 6.54094 44.0803L11.0025 45.0722C10.8938 45.3553 10.7963 45.6431 10.7128 45.9375H6.37687C5.9625 45.9375 5.625 45.6 5.625 45.1856ZM2.8125 48.75C2.8125 48.2334 3.23344 47.8125 3.75 47.8125H6.37687H10.3594C10.3322 48.1219 10.3125 48.4331 10.3125 48.75C10.3125 49.0669 10.3322 49.3781 10.3603 49.6875H6.37687H3.75C3.23344 49.6875 2.8125 49.2666 2.8125 48.75ZM6.53906 53.4197C6.09469 53.5153 5.625 53.1553 5.625 52.6856V52.3144C5.625 51.9 5.9625 51.5625 6.37687 51.5625H10.7119C10.7953 51.8569 10.8937 52.1447 11.0016 52.4278L6.53906 53.4197ZM57.1875 48.75C57.1875 50.4572 55.9631 51.8841 54.2766 52.1437L22.1297 57.0891C21.7041 57.1547 21.2719 57.1875 20.8453 57.1875H20.625C15.9731 57.1875 12.1875 53.4019 12.1875 48.75C12.1875 44.0981 15.9731 40.3125 20.625 40.3125H20.8453C21.2719 40.3125 21.7041 40.3453 22.1287 40.41L54.2756 45.3553C55.9631 45.6159 57.1875 47.0428 57.1875 48.75ZM57.1875 35.6728C57.1875 38.5566 56.0203 41.3466 53.9897 43.4147L52.1269 43.1278C52.9828 41.3297 53.4375 39.3581 53.4375 37.3462V33.9028C53.4375 30.5709 52.1681 27.3731 49.9875 24.9469C50.3662 24.5897 50.8688 24.375 51.4097 24.375C51.8569 24.375 52.2984 24.5194 52.6547 24.7838C55.4925 26.8781 57.1875 30.2128 57.1875 33.7022V35.6728Z" fill="black"/>
<path d="M19.6875 44.0625H21.5625V53.4375H19.6875V44.0625Z" fill="black"/>
<path d="M27.1875 44.0625H29.0625V53.4375H27.1875V44.0625Z" fill="black"/>
<path d="M34.6875 44.0625H36.5625V53.4375H34.6875V44.0625Z" fill="black"/>
<path d="M42.1875 45.9375H44.0625V51.5625H42.1875V45.9375Z" fill="black"/>
<path d="M49.6875 46.875H51.5625V50.625H49.6875V46.875Z" fill="black"/>
</g>
<defs>
<clipPath id="clip0_670_53347">
<rect width="60" height="60" fill="white"/>
</clipPath>
</defs>
</svg>
