<svg width="60" height="60" viewBox="0 0 60 60" fill="none" xmlns="http://www.w3.org/2000/svg">
<path d="M46.187 24.1321C47.1953 25.394 50.8538 29.4496 56.7198 30.1471C56.7198 24.3688 53.2417 21.9716 53.2417 21.9716C53.2417 21.9716 56.7188 19.574 56.7188 13.7961C50.8529 14.4932 47.1943 18.5493 46.186 19.8111L46.187 24.1321Z" fill="#CAE5FF"/>
<path d="M18.6211 10.1391C18.6211 10.1391 26.5106 3.28125 39.0797 3.28125C39.0797 3.28125 34.2277 8.69156 37.1752 13.088L18.6211 10.1391Z" fill="#CAE5FF"/>
<path d="M52.7038 38.2969C52.2469 37.7418 51.6728 37.2947 51.0226 36.9878C50.3725 36.6809 49.6625 36.5217 48.9435 36.5217C48.2246 36.5217 47.5145 36.6809 46.8644 36.9878C46.2142 37.2947 45.6401 37.7418 45.1832 38.2969C42.6413 41.2695 41.2237 45.0401 41.1777 48.9511C41.1777 51.0107 41.9959 52.986 43.4523 54.4423C44.9086 55.8987 46.8839 56.7169 48.9435 56.7169C51.0031 56.7169 52.9784 55.8987 54.4348 54.4423C55.8911 52.986 56.7093 51.0107 56.7093 48.9511C56.6634 45.0401 55.2458 41.2695 52.7038 38.2969Z" fill="#E6F8FC"/>
<path d="M24.9093 48.1074H32.1674C32.1257 48.4283 32.1614 48.7545 32.2717 49.0587C32.3819 49.3629 32.5635 49.6362 32.8012 49.8558C33.0388 50.0754 33.3257 50.2348 33.6376 50.3207C33.9496 50.4066 34.2776 50.4164 34.5942 50.3494C34.9104 50.2848 35.2066 50.1459 35.4585 49.9441C35.7104 49.7422 35.9106 49.4834 36.0426 49.1889C36.1746 48.8944 36.2346 48.5726 36.2177 48.2503C36.2007 47.928 36.1073 47.6144 35.9451 47.3354C35.8189 47.1185 35.7524 46.8721 35.7524 46.6212C35.7524 46.3703 35.8189 46.1239 35.9451 45.9071C36.1012 45.6369 36.193 45.3344 36.2135 45.023C36.234 44.7116 36.1826 44.3997 36.0633 44.1113C35.944 43.823 35.7599 43.5659 35.5254 43.3601C35.2909 43.1542 35.0121 43.005 34.7108 42.9241C34.4094 42.8432 34.0934 42.8327 33.7873 42.8933C33.4812 42.954 33.1932 43.0843 32.9455 43.2741C32.6977 43.4639 32.497 43.7081 32.3588 43.9879C32.2205 44.2677 32.1485 44.5755 32.1482 44.8876C32.1489 44.9703 32.1545 45.053 32.1651 45.1351H24.9093L22.2346 46.6215L24.9093 48.1074Z" fill="#E6F8FC"/>
<path d="M11.6612 38.242C10.3483 38.2421 9.05387 38.5508 7.88221 39.1431C6.71054 39.7354 5.69446 40.5948 4.91588 41.6518C4.1373 42.7089 3.61801 43.9342 3.39989 45.2288C3.18178 46.5234 3.27093 47.8512 3.66017 49.105C4.0494 50.3589 4.72783 51.5037 5.64074 52.4472C6.55366 53.3907 7.67551 54.1065 8.91584 54.5368C10.1562 54.9672 11.4803 55.1 12.7814 54.9247C14.0825 54.7494 15.3242 54.2707 16.4063 53.5274C17.896 52.5221 19.4897 51.6806 21.1599 51.0173C23.2553 50.1627 24.9142 49.2173 24.9146 48.2254C24.9205 47.8266 24.8122 47.4345 24.6024 47.0952C24.5124 46.9535 24.4646 46.789 24.4646 46.6211C24.4646 46.4532 24.5124 46.2887 24.6024 46.147C24.8122 45.8077 24.9205 45.4156 24.9146 45.0168C24.9146 44.0249 23.2553 43.0795 21.1595 42.2245C19.4783 41.5501 17.8728 40.7004 16.3698 39.6895C14.9819 38.7437 13.3407 38.2392 11.6612 38.242Z" fill="#BA6F31"/>
<path d="M48.9436 53.5054C51.4579 53.5054 53.4961 51.4672 53.4961 48.9529C53.4961 46.4386 51.4579 44.4004 48.9436 44.4004C46.4293 44.4004 44.3911 46.4386 44.3911 48.9529C44.3911 51.4672 46.4293 53.5054 48.9436 53.5054Z" fill="#FFD92E"/>
<path d="M47.3156 21.0524C47.5354 21.3082 47.6563 21.6344 47.6563 21.9716C47.6563 22.3089 47.5354 22.635 47.3156 22.8909C44.8786 25.738 36.5194 34.2187 23.4253 34.2187C7.68984 34.2187 3.28125 21.9716 3.28125 21.9716C3.28125 21.9716 7.6875 9.72461 23.4244 9.72461C36.5194 9.72461 44.8786 18.2052 47.3156 21.0524Z" fill="#E6F8FC"/>
<path d="M20.385 21.9702C20.385 29.0718 14.8913 32.803 14.8913 32.803C12.3156 31.8919 9.95541 30.4598 7.95788 28.5959C5.96034 26.7321 4.36835 24.4766 3.28125 21.9702C4.36896 19.4646 5.96132 17.2099 7.959 15.3469C9.95668 13.4839 12.3168 12.0525 14.8922 11.1421C14.8922 11.1421 20.385 14.8733 20.385 21.9702Z" fill="#CAE5FF"/>
<path d="M24.6094 24.0469C24.6094 24.0469 21.9755 24.2986 22.7156 27.6905C26.1216 32.0939 31.1813 30.3333 31.1813 30.3333C29.5847 25.2117 24.6094 24.0469 24.6094 24.0469Z" fill="#CAE5FF"/>
<path d="M36.9979 44.3957C36.8833 43.7407 36.5438 43.1462 36.0378 42.7147C35.5318 42.2833 34.8911 42.0419 34.2262 42.0323C33.5613 42.0227 32.9139 42.2454 32.3957 42.6621C31.8774 43.0787 31.5208 43.6632 31.3874 44.3146H25.5936C25.1886 43.3382 23.8921 42.4532 21.4686 41.4651C19.8403 40.8116 18.285 39.9893 16.828 39.0116C15.3049 37.9728 13.5033 37.4186 11.6596 37.4216C10.4024 37.424 9.15884 37.683 8.0052 38.1827C6.85155 38.6824 5.81205 39.4124 4.95036 40.3279C4.08521 41.2437 3.41905 42.3287 2.99382 43.5146C2.56858 44.7005 2.3935 45.9616 2.47958 47.2185C2.57772 48.6115 2.98931 49.9643 3.68363 51.1759C4.37795 52.3875 5.33704 53.4266 6.48927 54.2155C6.66885 54.3384 6.88987 54.3848 7.1037 54.3447C7.31754 54.3046 7.50668 54.1811 7.6295 54.0016C7.75233 53.822 7.79879 53.601 7.75866 53.3871C7.71853 53.1733 7.5951 52.9842 7.41552 52.8613C6.46833 52.2137 5.67967 51.3605 5.10841 50.3654C4.53716 49.3703 4.19807 48.259 4.11646 47.1145C4.02356 45.7018 4.32926 44.2914 4.99873 43.0439C5.66821 41.7965 6.67456 40.7621 7.90315 40.0586C9.13175 39.3551 10.5332 39.0108 11.9479 39.0649C13.3626 39.119 14.7337 39.5693 15.9051 40.3645C17.4563 41.4083 19.1129 42.2864 20.8475 42.9843C24.0547 44.2926 24.0918 44.9887 24.0918 45.0173C24.0967 45.2615 24.0316 45.5021 23.9043 45.7105C23.7311 45.9826 23.6392 46.2984 23.6392 46.6209C23.6392 46.9433 23.7311 47.2591 23.9043 47.5312C24.0317 47.74 24.0967 47.9808 24.0918 48.2254C24.0918 48.254 24.0547 48.9501 20.8475 50.2588C19.1215 50.9424 17.4751 51.8119 15.9374 52.852C14.5976 53.7807 12.9905 54.245 11.3619 54.1738C11.2893 54.171 11.2171 54.1677 11.1449 54.1626C11.0363 54.1526 10.9269 54.1643 10.8229 54.197C10.7189 54.2298 10.6225 54.283 10.5393 54.3535C10.4561 54.4239 10.3878 54.5103 10.3383 54.6074C10.2889 54.7046 10.2593 54.8107 10.2513 54.9194C10.2434 55.0281 10.2571 55.1374 10.2919 55.2407C10.3266 55.3441 10.3816 55.4395 10.4536 55.5213C10.5256 55.6032 10.6133 55.6698 10.7113 55.7174C10.8094 55.765 10.916 55.7926 11.0249 55.7985C11.1186 55.8055 11.2068 55.8098 11.2982 55.8135C11.4201 55.8182 11.5415 55.8205 11.6624 55.8205C13.5211 55.8244 15.3365 55.2601 16.8655 54.2034C18.3059 53.2304 19.8478 52.4169 21.464 51.7771C23.8865 50.789 25.183 49.9021 25.589 48.9276H31.3874C31.5197 49.5724 31.8707 50.1518 32.3811 50.5675C32.8915 50.9833 33.5299 51.2099 34.1882 51.209C34.377 51.209 34.5654 51.1908 34.7507 51.1546C35.1955 51.0651 35.6125 50.8708 35.9672 50.5878C36.3219 50.3049 36.6039 49.9414 36.79 49.5276C36.9761 49.1138 37.0608 48.6615 37.0371 48.2084C37.0134 47.7553 36.882 47.3144 36.6538 46.9223C36.6008 46.8308 36.5729 46.727 36.5729 46.6213C36.5729 46.5157 36.6008 46.4118 36.6538 46.3204C36.9931 45.7399 37.1151 45.0578 36.9979 44.3957ZM35.2358 47.7482C35.329 47.9095 35.3837 48.09 35.3959 48.2759C35.4081 48.4617 35.3773 48.6479 35.306 48.8199C35.2347 48.992 35.1248 49.1454 34.9848 49.2681C34.8447 49.3909 34.6783 49.4798 34.4984 49.528C34.3185 49.5762 34.1299 49.5823 33.9473 49.5459C33.7646 49.5095 33.5928 49.4316 33.4451 49.3182C33.2973 49.2048 33.1777 49.0589 33.0954 48.8918C33.0131 48.7248 32.9703 48.541 32.9704 48.3548C32.9708 48.3057 32.9741 48.2567 32.9802 48.208C32.9946 48.0927 32.9844 47.9756 32.9501 47.8645C32.9157 47.7535 32.8582 47.651 32.7812 47.5638C32.7043 47.4767 32.6096 47.407 32.5036 47.3592C32.3976 47.3115 32.2827 47.2869 32.1665 47.287H25.5819C25.5119 47.0663 25.4153 46.8551 25.2941 46.6579C25.2863 46.6469 25.2821 46.6338 25.2821 46.6204C25.2821 46.607 25.2863 46.5938 25.2941 46.5829C25.4147 46.3862 25.5105 46.1754 25.5796 45.9552H32.1655C32.2818 45.9553 32.3967 45.9307 32.5027 45.883C32.6087 45.8352 32.7033 45.7655 32.7803 45.6784C32.8573 45.5912 32.9148 45.4887 32.9491 45.3777C32.9834 45.2666 32.9937 45.1495 32.9793 45.0341C32.9731 44.9855 32.9699 44.9365 32.9694 44.8874C32.9695 44.7011 33.0125 44.5173 33.095 44.3502C33.1775 44.1831 33.2974 44.0373 33.4453 43.9239C33.5932 43.8106 33.7652 43.7328 33.948 43.6966C34.1308 43.6604 34.3195 43.6668 34.4994 43.7152C34.6794 43.7636 34.8458 43.8527 34.9857 43.9758C35.1257 44.0988 35.2355 44.2523 35.3066 44.4246C35.3777 44.5968 35.4082 44.7831 35.3958 44.9691C35.3833 45.155 35.3283 45.3356 35.2349 45.4968C35.0365 45.8388 34.9321 46.2272 34.9323 46.6226C34.9324 47.018 35.0372 47.4063 35.2358 47.7482Z" fill="black"/>
<path d="M43.5698 48.9534C43.5698 50.0161 43.885 51.055 44.4754 51.9386C45.0659 52.8223 45.9051 53.511 46.8869 53.9177C47.8688 54.3243 48.9492 54.4307 49.9916 54.2234C51.0339 54.016 51.9913 53.5042 52.7428 52.7527C53.4942 52.0012 54.0059 51.0437 54.2132 50.0013C54.4205 48.959 54.314 47.8786 53.9072 46.8968C53.5005 45.9149 52.8117 45.0758 51.928 44.4854C51.0443 43.895 50.0054 43.58 48.9426 43.5801C47.5181 43.5817 46.1524 44.1483 45.1451 45.1557C44.1378 46.163 43.5713 47.5288 43.5698 48.9534ZM52.6753 48.9534C52.6753 49.6916 52.4564 50.4133 52.0462 51.0271C51.6361 51.6409 51.0531 52.1194 50.3711 52.4019C49.689 52.6844 48.9385 52.7583 48.2144 52.6143C47.4904 52.4703 46.8253 52.1148 46.3033 51.5927C45.7812 51.0707 45.4257 50.4056 45.2817 49.6816C45.1377 48.9575 45.2116 48.207 45.4941 47.5249C45.7766 46.8429 46.2551 46.2599 46.8689 45.8498C47.4827 45.4396 48.2044 45.2207 48.9426 45.2207C49.9323 45.2218 50.881 45.6154 51.5808 46.3152C52.2806 47.015 52.6742 47.9637 52.6753 48.9534Z" fill="black"/>
<path d="M48.9422 35.7034C48.1021 35.7022 47.2722 35.8877 46.5126 36.2464C45.7529 36.6051 45.0824 37.1281 44.5495 37.7776C41.8949 40.9018 40.413 44.8541 40.3594 48.9535C40.3761 51.2197 41.2881 53.3873 42.8964 54.9838C44.5048 56.5803 46.679 57.4762 48.9452 57.4762C51.2114 57.4762 53.3857 56.5803 54.994 54.9838C56.6024 53.3873 57.5144 51.2197 57.5311 48.9535C57.4767 44.8538 55.9941 40.9015 53.3386 37.7776C52.8053 37.1276 52.1342 36.6044 51.3739 36.2456C50.6135 35.8869 49.7829 35.7017 48.9422 35.7034ZM48.9422 55.8985C47.1014 55.8957 45.3369 55.163 44.0355 53.8611C42.7341 52.5592 42.0021 50.7943 42 48.9535C42.0557 45.2345 43.406 41.6511 45.8184 38.8201C46.1984 38.3586 46.6759 37.9868 47.2165 37.7316C47.7572 37.4765 48.3476 37.3441 48.9455 37.3441C49.5433 37.3441 50.1338 37.4765 50.6744 37.7316C51.2151 37.9868 51.6925 38.3586 52.0725 38.8201C54.4844 41.6514 55.8344 45.2346 55.8905 48.9535C55.8882 50.7953 55.1554 52.5609 53.8529 53.8629C52.5503 55.165 50.7839 55.897 48.9422 55.8985Z" fill="black"/>
<path d="M13.0215 18.2703C13.5165 18.1904 13.853 17.7243 13.7731 17.2293C13.6932 16.7342 13.2271 16.3977 12.7321 16.4776C12.237 16.5575 11.9005 17.0236 11.9804 17.5187C12.0603 18.0137 12.5264 18.3503 13.0215 18.2703Z" fill="black"/>
<path d="M57.5389 13.7962C57.539 13.6803 57.5144 13.5657 57.4669 13.46C57.4194 13.3542 57.35 13.2597 57.2633 13.1828C57.1767 13.1058 57.0746 13.0481 56.964 13.0134C56.8534 12.9787 56.7367 12.9679 56.6216 12.9816C51.2938 13.6153 47.6961 16.883 46.1394 18.6066C43.6614 16.1734 40.8423 14.114 37.7708 12.4931C35.4102 8.70328 39.6458 3.87703 39.6894 3.82875C39.7951 3.71087 39.8643 3.56493 39.8889 3.40855C39.9135 3.25217 39.8923 3.09202 39.8279 2.94742C39.7634 2.80282 39.6585 2.67995 39.5259 2.59363C39.3932 2.50731 39.2383 2.46122 39.08 2.46094C37.6055 2.46098 36.1324 2.55382 34.6696 2.73891C34.5613 2.75074 34.4565 2.784 34.3613 2.83674C34.2661 2.88948 34.1823 2.96066 34.1148 3.04611C34.0474 3.13157 33.9976 3.2296 33.9684 3.33448C33.9392 3.43937 33.9312 3.54902 33.9449 3.65703C33.9585 3.76504 33.9935 3.86927 34.0478 3.96362C34.1021 4.05797 34.1747 4.14057 34.2612 4.2066C34.3478 4.27262 34.4466 4.32076 34.552 4.34819C34.6573 4.37563 34.7671 4.38182 34.8749 4.36641C35.7107 4.26047 36.5558 4.18641 37.4028 4.14375C36.32 5.77547 34.9021 8.59687 35.5724 11.4389C31.7403 9.76856 27.605 8.90638 23.4247 8.90625C22.8444 8.90625 22.2833 8.92687 21.7321 8.95875C22.6638 8.38805 23.6245 7.86594 24.6102 7.39453C24.8064 7.30054 24.9573 7.13245 25.0296 6.92723C25.1019 6.72201 25.0897 6.49647 24.9957 6.30023C24.9017 6.104 24.7337 5.95313 24.5284 5.88082C24.3232 5.80852 24.0977 5.8207 23.9014 5.91469C21.8886 6.85286 19.9898 8.01842 18.2422 9.38859C6.26237 11.693 2.54987 21.5812 2.50909 21.6937C2.44489 21.8735 2.44489 22.0699 2.50909 22.2497C2.55596 22.3772 7.29878 35.0391 23.4247 35.0391C34.5833 35.0391 42.4269 28.9866 46.1394 25.3392C47.6961 27.0605 51.2957 30.3281 56.6216 30.9642C56.6538 30.9681 56.6862 30.9701 56.7186 30.9703C56.9361 30.9702 57.1447 30.8837 57.2985 30.7299C57.4523 30.5761 57.5388 30.3675 57.5389 30.15C57.5389 25.6969 55.6049 23.1037 54.4827 21.9741C55.6049 20.842 57.5389 18.2489 57.5389 13.7962ZM4.57346 22.8487C7.01547 23.0339 9.38873 23.744 11.5311 24.9305C11.7152 25.043 11.9361 25.0785 12.1462 25.0293C12.3562 24.98 12.5384 24.8501 12.6533 24.6675C12.7682 24.4849 12.8065 24.2644 12.76 24.0538C12.7135 23.8431 12.5859 23.6593 12.4049 23.542C9.98852 22.1721 7.29187 21.3706 4.51956 21.1983C6.67496 16.99 10.3167 13.7325 14.7383 12.0577C15.8492 12.9539 19.5608 16.3673 19.5608 21.9727C19.5608 27.578 15.8507 30.9914 14.7407 31.8867C10.3562 30.2257 6.73682 27.0084 4.57346 22.8487ZM23.4247 33.3984C21.1029 33.4165 18.7899 33.1113 16.5524 32.4914C18.0174 31.1585 19.1879 29.5343 19.9889 27.7228C20.7898 25.9112 21.2036 23.9524 21.2036 21.9717C21.2036 19.991 20.7898 18.0322 19.9889 16.2207C19.1879 14.4092 18.0174 12.7849 16.5524 11.452C18.7901 10.8331 21.103 10.5285 23.4247 10.5469C36.2436 10.5469 44.4744 18.997 46.6916 21.5873C46.7843 21.6946 46.8353 21.8316 46.8353 21.9734C46.8353 22.1151 46.7843 22.2521 46.6916 22.3594C44.4749 24.9478 36.2446 33.3984 23.4247 33.3984ZM55.8622 29.1858C51.5028 28.3519 48.5544 25.5891 47.2817 24.1594C47.5358 23.8838 47.7571 23.6339 47.938 23.4244C48.2867 23.0206 48.4786 22.5048 48.4786 21.9713C48.4786 21.4377 48.2867 20.9219 47.938 20.5181C47.7585 20.3086 47.5372 20.0592 47.2817 19.7836C49.5253 17.2282 52.5339 15.4653 55.8599 14.7572C55.5247 19.3008 52.888 21.2137 52.7717 21.2962C52.6631 21.3718 52.5743 21.4724 52.5129 21.5896C52.4515 21.7068 52.4192 21.837 52.4188 21.9693C52.4184 22.1016 52.45 22.2321 52.5108 22.3496C52.5716 22.4671 52.6598 22.5682 52.768 22.6444C52.8913 22.7288 55.5285 24.6422 55.8636 29.1858H55.8622Z" fill="black"/>
<path d="M24.7967 23.25C24.5911 23.2153 24.3801 23.2602 24.2064 23.3755C24.0327 23.4909 23.9095 23.668 23.8617 23.871C23.814 24.0739 23.8453 24.2874 23.9493 24.4681C24.0533 24.6488 24.2222 24.7831 24.4217 24.8437C25.6702 25.1953 26.826 25.8176 27.8068 26.6664C28.7875 27.5152 29.5693 28.5697 30.0964 29.7548C28.8465 30.003 27.5519 29.8937 26.3612 29.4396C25.1705 28.9855 24.132 28.2049 23.3647 27.1875C23.2301 27.02 23.0351 26.912 22.8217 26.8868C22.6082 26.8615 22.3934 26.9211 22.2235 27.0525C22.0535 27.184 21.9419 27.377 21.9127 27.5899C21.8834 27.8028 21.9389 28.0186 22.0672 28.1911C22.8464 29.233 23.862 30.0748 25.0304 30.6473C26.1987 31.2199 27.4863 31.5066 28.7872 31.484C29.6892 31.4915 30.5872 31.3642 31.4516 31.1062C31.6527 31.0364 31.8187 30.891 31.9145 30.7009C32.0104 30.5108 32.0284 30.2908 31.9649 30.0876C30.2469 24.5831 25.0184 23.3001 24.7967 23.25Z" fill="black"/>
<path d="M28.4085 5.80682C28.4954 5.8068 28.5818 5.79304 28.6644 5.76604C29.308 5.55463 29.9718 5.35916 30.6379 5.18479C30.8482 5.12957 31.028 4.99311 31.1377 4.80539C31.2475 4.61768 31.2782 4.39407 31.2232 4.1837C31.1681 3.97334 31.0318 3.79344 30.8442 3.68354C30.6565 3.57363 30.433 3.54272 30.2226 3.5976C29.5241 3.78041 28.828 3.98525 28.153 4.20697C27.9676 4.26774 27.8099 4.39262 27.7082 4.5592C27.6066 4.72579 27.5676 4.92315 27.5984 5.11586C27.6292 5.30856 27.7276 5.48399 27.8761 5.61063C28.0246 5.73727 28.2133 5.80683 28.4085 5.80682Z" fill="black"/>
</svg>
