<svg width="26" height="26" viewBox="0 0 26 26" fill="none" xmlns="http://www.w3.org/2000/svg">
<g clip-path="url(#clip0_1576_10549)">
<path d="M18.7602 8.19126C17.8098 8.18679 16.7877 8.34187 15.7178 8.65144C14.5873 8.97862 13.4617 9.46343 12.3724 10.0924C11.2831 10.7213 10.3004 11.4537 9.45175 12.2692C8.64869 13.0409 8.0028 13.8499 7.53206 14.6738C6.68848 16.1502 6.51298 17.5308 7.0505 18.4618C7.58802 19.3928 8.87147 19.9312 10.5718 19.9388C10.5845 19.9388 10.5971 19.9388 10.6099 19.9388C11.548 19.9388 12.5586 19.7841 13.6141 19.4786C14.7447 19.1514 15.8703 18.6666 16.9597 18.0377C18.0491 17.4087 19.0318 16.6762 19.8802 15.8608C20.6833 15.0892 21.3292 14.2801 21.8 13.4562C22.6435 11.9799 22.8191 10.5992 22.2815 9.66818C21.744 8.73721 20.4605 8.19887 18.7602 8.19126ZM21.1385 13.0783C20.7039 13.839 20.103 14.5904 19.3524 15.3117C18.5482 16.0845 17.615 16.7798 16.5787 17.378C15.5426 17.9762 14.4739 18.4368 13.4023 18.7469C12.4024 19.0363 11.4519 19.1802 10.5752 19.1771C9.17382 19.1708 8.10279 18.761 7.71015 18.081C7.31751 17.4009 7.49814 16.2685 8.19339 15.0517C8.62807 14.291 9.22902 13.5396 9.97952 12.8184C10.7838 12.0455 11.717 11.3502 12.7532 10.752C13.7894 10.1538 14.8581 9.69321 15.9296 9.38314C16.9163 9.09755 17.8555 8.95287 18.722 8.95287C18.7335 8.95287 18.7452 8.95292 18.7567 8.95292C20.1581 8.95922 21.2292 9.36892 21.6218 10.049C22.0145 10.7292 21.8338 11.8616 21.1385 13.0783Z" fill="#017D03"/>
<path d="M24.58 10.2841L23.7388 8.82695C22.9629 7.48312 21.4426 6.68124 19.4192 6.53357C18.2593 4.86591 16.5069 3.30622 14.4639 2.12667C12.0869 0.754305 9.53517 0 7.27261 0C7.25748 0 7.24229 5.07813e-05 7.22721 0.000101563C4.87868 0.0106133 3.11332 0.833879 2.25629 2.31832L1.41499 3.77543C-1.44897 8.736 0.218841 15.0892 5.12466 18.0119C5.20718 18.4706 5.36278 18.9035 5.59348 19.3031L6.43472 20.7602C7.10986 21.9296 7.98654 22.9413 9.04025 23.7673C9.10998 23.8219 9.19275 23.8484 9.27497 23.8484C9.38795 23.8484 9.49982 23.7984 9.57498 23.7025C9.70473 23.537 9.67573 23.2975 9.51018 23.1678C8.72379 22.5514 8.04393 21.823 7.48188 20.9965C8.33089 21.4008 9.37226 21.6159 10.5643 21.6212C10.5795 21.6213 10.5944 21.6213 10.6097 21.6213C12.8722 21.6213 15.4242 20.8669 17.8009 19.4947C18.9815 18.8131 20.0513 18.0178 20.9681 17.1499C21.4352 18.3231 21.5516 19.0535 21.5602 19.1123C21.5697 19.3076 21.7273 19.4665 21.9264 19.474C21.9312 19.4742 21.9361 19.4743 21.9409 19.4743C22.1447 19.4743 22.3135 19.313 22.3212 19.1077C22.3268 18.9596 22.1445 17.9708 21.5515 16.5656C22.2345 15.8416 22.812 15.0762 23.2608 14.2908C23.8523 13.2556 24.1867 12.2461 24.2611 11.3085C25.2735 13.4036 25.4992 15.7657 24.8908 18.0363C24.2296 20.5035 22.6612 22.5715 20.4689 23.873C18.6214 23.4353 17.3413 22.1541 17.323 22.1356C17.176 21.9855 16.9351 21.9828 16.7847 22.1299C16.6343 22.2769 16.6315 22.518 16.7787 22.6684C16.8301 22.7211 17.8771 23.7772 19.5048 24.3764C16.7814 25.6115 13.6554 25.529 10.968 24.1122C10.7819 24.0141 10.5516 24.0854 10.4534 24.2715C10.3553 24.4575 10.4267 24.6879 10.6127 24.786C12.1209 25.5812 13.8146 26 15.5177 26C15.5515 26 15.5856 25.9998 15.6194 25.9995C17.3971 25.9821 19.1552 25.5035 20.7072 24.6161C20.7141 24.6125 20.7209 24.6087 20.7275 24.6048C20.7334 24.6013 20.7395 24.5982 20.7455 24.5948C23.1689 23.1957 24.9023 20.9365 25.6266 18.2336C26.3509 15.5306 25.9792 12.7074 24.58 10.2841ZM7.23061 0.76182C7.24473 0.761719 7.25875 0.761719 7.27291 0.761719C9.40359 0.761719 11.8202 1.47987 14.083 2.78627C15.8421 3.80189 17.3712 5.10738 18.4588 6.51239C18.0922 6.52173 17.7185 6.55043 17.3398 6.5978C17.0946 6.3148 16.8276 6.03388 16.5431 5.76057C15.6945 4.94503 14.7118 4.21261 13.6225 3.58373C12.5331 2.95476 11.4076 2.47 10.277 2.14282C9.20717 1.8332 8.18413 1.67888 7.23468 1.68264C5.53442 1.69025 4.25092 2.22859 3.7134 3.15961C3.35743 3.7762 3.30863 4.58885 3.57223 5.50977C3.62012 5.67699 3.77251 5.78591 3.93821 5.78591C3.97295 5.78591 4.00819 5.78114 4.04323 5.77109C4.24544 5.7132 4.36244 5.5023 4.30455 5.30014C4.09909 4.58245 4.12275 3.97394 4.37305 3.54047C4.76569 2.86041 5.83672 2.45065 7.23808 2.44436C8.11517 2.44065 9.06534 2.58512 10.0653 2.87457C11.1368 3.18464 12.2055 3.64518 13.2416 4.24343C14.2777 4.84159 15.2109 5.53683 16.0153 6.30982C16.1636 6.45237 16.3067 6.59699 16.4441 6.74279C14.822 7.06377 13.1368 7.70829 11.5312 8.63525C10.5573 9.1975 9.65867 9.83709 8.85922 10.531C8.04408 10.0137 7.29881 9.43379 6.64247 8.80303C5.97769 8.1642 5.42839 7.49937 5.00985 6.82688C4.89874 6.64833 4.66393 6.59369 4.48528 6.7048C4.30668 6.81596 4.25204 7.05082 4.3632 7.22937C4.8151 7.95544 5.40442 8.66968 6.1147 9.35223C6.76068 9.97298 7.48706 10.5466 8.27762 11.0627C8.04941 11.2822 7.83095 11.5062 7.623 11.7342C3.58696 9.03505 1.52407 5.11002 2.91593 2.69918C3.6319 1.4591 5.16422 0.771062 7.23061 0.76182ZM1.73649 4.79588C1.80347 5.65002 2.0848 6.56439 2.57936 7.50085C3.04314 8.37901 3.67603 9.24224 4.44394 10.056C3.85082 11.4614 3.66826 12.4508 3.67374 12.599C3.68136 12.8044 3.85026 12.9658 4.05409 12.9658C4.05887 12.9658 4.06364 12.9657 4.06847 12.9655C4.26753 12.9582 4.4252 12.7993 4.43475 12.6039C4.44333 12.5453 4.55982 11.8141 5.02747 10.6399C5.65772 11.2368 6.36083 11.8003 7.12235 12.3155C6.72052 12.8106 6.36769 13.3204 6.07128 13.8391C5.42752 14.9657 5.08831 16.0621 5.05758 17.0682C1.06323 14.3794 -0.355089 9.12783 1.73649 4.79588ZM4.43495 12.5979C4.43526 12.589 4.43521 12.5799 4.4349 12.5708C4.43511 12.5763 4.43566 12.5854 4.43495 12.5979ZM21.5601 19.0792C21.5598 19.0884 21.5598 19.0974 21.5601 19.1064C21.5594 19.0938 21.5599 19.0847 21.5601 19.0792ZM22.5996 13.913C21.5374 15.772 19.6979 17.52 17.4202 18.8351C15.1573 20.1416 12.7409 20.8597 10.6101 20.8597C10.5961 20.8597 10.5818 20.8597 10.5678 20.8596C8.50147 20.8504 6.96914 20.1623 6.25318 18.9223C6.04381 18.5596 5.91081 18.1598 5.85221 17.7312C5.85134 17.7242 5.85068 17.7171 5.84947 17.7102C5.71459 16.6777 6.01222 15.4779 6.73265 14.217C7.06674 13.6323 7.47787 13.0586 7.95521 12.5059C7.96842 12.493 7.9806 12.4789 7.99208 12.4639C9.02746 11.2756 10.369 10.1859 11.9121 9.29495C14.1751 7.9885 16.5914 7.2704 18.7222 7.2704C18.7362 7.2704 18.7505 7.27045 18.7645 7.2705C20.8308 7.27975 22.3632 7.96778 23.0791 9.20786C23.795 10.4479 23.6247 12.1189 22.5996 13.913Z" fill="#017D03"/>
</g>
<defs>
<clipPath id="clip0_1576_10549">
<rect width="26" height="26" fill="white"/>
</clipPath>
</defs>
</svg>
