<svg width="26" height="26" viewBox="0 0 26 26" fill="none" xmlns="http://www.w3.org/2000/svg">
<path d="M23.5848 9.31422C23.6088 9.27684 23.6316 9.23906 23.6535 9.20087C23.9774 8.63142 24.0649 7.95758 23.8972 7.32428C23.7295 6.69097 23.3199 6.1488 22.7565 5.81437C22.678 5.76848 22.5966 5.72777 22.5128 5.6925C22.564 5.14397 22.4577 4.5922 22.2062 4.102C21.9548 3.6118 21.5687 3.20353 21.0933 2.92512C20.7153 2.70377 20.2912 2.57305 19.8541 2.54324C19.4171 2.51342 18.9791 2.58532 18.5746 2.75328C18.3837 2.43448 18.1221 2.16384 17.81 1.96231C17.5317 1.79091 17.2199 1.68102 16.8957 1.64003C16.5714 1.59904 16.2421 1.62789 15.9299 1.72465C14.8736 2.02853 14.4495 2.56843 14.2439 3.086C13.7955 2.66945 13.2062 2.43784 12.5942 2.43762C12.5053 2.43774 12.4166 2.44344 12.3285 2.45468C12.1223 2.01252 11.8059 1.63082 11.4096 1.34629C11.0134 1.06175 10.5506 0.883945 10.0657 0.829964C9.58085 0.775982 9.09026 0.847641 8.64111 1.03805C8.19195 1.22846 7.79933 1.53122 7.501 1.91722C7.18072 1.74207 6.82449 1.64283 6.45978 1.62715C6.13613 1.62106 5.81481 1.68301 5.51662 1.80898C5.21843 1.93494 4.95001 2.12212 4.72875 2.3584C3.94834 3.16034 3.85978 3.84853 3.94753 4.39778C3.49319 4.64107 3.11306 5.00264 2.84732 5.44422C2.58158 5.88581 2.44012 6.391 2.4379 6.90637C2.43676 7.38343 2.55714 7.85291 2.78769 8.27056C2.41722 8.54208 2.11803 8.8993 1.91572 9.31165C1.71341 9.72401 1.61399 10.1792 1.62597 10.6384C1.63795 11.0976 1.76096 11.547 1.9845 11.9482C2.20804 12.3495 2.52544 12.6906 2.90956 12.9424C2.50474 13.6134 2.3537 14.4073 2.48381 15.1801C2.59255 15.8266 2.89531 16.4247 3.35191 16.8952C3.80851 17.3657 4.39736 17.6862 5.04034 17.8142C5.42168 17.8897 5.81333 17.8974 6.19734 17.8369C6.26623 17.8248 6.33703 17.8296 6.40369 17.8508C6.47034 17.872 6.53085 17.9091 6.58003 17.9588C7.63141 19.0776 8.07381 20.5523 7.97266 22.6002C7.95563 22.932 8.00683 23.2637 8.12311 23.5748C8.23938 23.886 8.41825 24.17 8.64866 24.4092C8.88422 24.6551 9.16706 24.8508 9.48017 24.9845C9.79328 25.1183 10.1302 25.1874 10.4707 25.1876H10.7055C11.2262 25.1879 11.7337 25.024 12.1558 24.7192C14.8692 22.7501 16.8273 20.4495 17.981 17.8776C18.0038 17.8257 18.0378 17.7795 18.0807 17.7425C18.1236 17.7054 18.1742 17.6784 18.2288 17.6635C18.2874 17.6471 18.3488 17.6438 18.4087 17.6538C18.4687 17.6637 18.5257 17.6867 18.5758 17.7212C18.7688 17.8525 18.977 17.9601 19.1957 18.0417C19.7797 18.2565 20.4181 18.2734 21.0127 18.0899C21.6072 17.9064 22.125 17.5326 22.4863 17.0261C22.8037 16.5823 22.9911 16.0589 23.0273 15.5145C23.0635 14.9702 22.9473 14.4265 22.6915 13.9447C23.2386 13.6937 23.6933 13.2776 23.9915 12.7547C24.2966 12.2121 24.4217 11.5865 24.3486 10.9682C24.2755 10.35 24.0081 9.77082 23.5848 9.31422ZM9.23691 23.847C9.08271 23.6874 8.96294 23.4977 8.88502 23.2899C8.8071 23.0821 8.7727 22.8605 8.78394 22.6388C8.89687 20.3553 8.385 18.6909 7.17153 17.4002C7.05569 17.2785 6.91618 17.1818 6.76157 17.1159C6.60696 17.0501 6.44053 17.0166 6.2725 17.0175C6.20446 17.0174 6.13653 17.0229 6.06937 17.0338C5.77897 17.0784 5.48301 17.0722 5.19472 17.0155C4.7816 16.9303 4.39766 16.7393 4.08044 16.4613C3.76323 16.1833 3.52359 15.8277 3.38497 15.4293C3.24635 15.0309 3.21348 14.6034 3.28959 14.1885C3.36569 13.7736 3.54816 13.3855 3.81915 13.0623C3.85976 13.0138 3.88846 12.9564 3.90299 12.8948C3.91751 12.8333 3.91745 12.7691 3.90281 12.7076C3.88818 12.646 3.85936 12.5888 3.81867 12.5403C3.77798 12.4919 3.72654 12.4536 3.66844 12.4285C3.3149 12.2762 3.01195 12.0265 2.79487 11.7085C2.57779 11.3906 2.45553 11.0175 2.44233 10.6328C2.42913 10.248 2.52554 9.86747 2.72032 9.53541C2.9151 9.20335 3.20024 8.93348 3.5425 8.75725C3.59543 8.72994 3.64171 8.69134 3.67806 8.64416C3.71442 8.59698 3.73995 8.54239 3.75286 8.48424C3.76577 8.4261 3.76573 8.36583 3.75276 8.3077C3.73978 8.24957 3.71419 8.19501 3.67778 8.14787C3.40045 7.7935 3.24997 7.35636 3.2504 6.90637C3.25223 6.49485 3.37839 6.09349 3.61234 5.75493C3.84629 5.41638 4.17709 5.15643 4.56137 5.00918C4.65692 4.97291 4.73528 4.90195 4.78083 4.81047C4.82638 4.71899 4.83578 4.6137 4.80716 4.51559C4.69056 4.11665 4.62353 3.63159 5.31009 2.9239C5.4508 2.76865 5.62285 2.64503 5.81487 2.5612C6.00689 2.47738 6.21452 2.43525 6.42403 2.43762C6.76742 2.45394 7.09662 2.57948 7.36369 2.79593C7.40996 2.83285 7.46374 2.85921 7.52127 2.87317C7.57879 2.88712 7.63868 2.88834 7.69672 2.87673C7.75477 2.86512 7.80957 2.84097 7.85731 2.80596C7.90504 2.77095 7.94455 2.72593 7.97306 2.67406C8.16484 2.32618 8.45442 2.04217 8.80595 1.85717C9.15748 1.67218 9.55555 1.59432 9.95087 1.63323C10.3462 1.67214 10.7214 1.82611 11.0302 2.07609C11.3389 2.32607 11.5675 2.66109 11.6878 3.03968C11.7193 3.13936 11.788 3.22306 11.8796 3.27338C11.9713 3.3237 12.0788 3.33676 12.1798 3.30984C12.3147 3.27194 12.454 3.25186 12.5942 3.25012C12.8374 3.24902 13.0778 3.30282 13.2974 3.40751C13.5169 3.5122 13.7101 3.66508 13.8623 3.85478C14.0146 4.04447 14.1221 4.26608 14.1769 4.50309C14.2316 4.74011 14.2322 4.98642 14.1785 5.22368C14.1668 5.27802 14.1664 5.33418 14.1772 5.38869C14.1881 5.4432 14.21 5.49491 14.2417 5.5406C14.2733 5.5863 14.314 5.62502 14.3612 5.65436C14.4084 5.6837 14.4611 5.70304 14.5161 5.71118C14.9971 5.78412 15.4362 6.02651 15.7542 6.39464C16.0722 6.76277 16.2482 7.23242 16.2504 7.71887C16.2511 7.99743 16.1939 8.2731 16.0825 8.52842C15.9711 8.78374 15.8079 9.01314 15.6033 9.20209C15.5527 9.24935 15.515 9.30876 15.4938 9.37468C15.4726 9.4406 15.4686 9.51083 15.4822 9.57872C15.4958 9.64661 15.5265 9.7099 15.5715 9.76258C15.6164 9.81525 15.674 9.85558 15.7389 9.87972C16.1559 10.0353 16.5102 10.3235 16.7474 10.7001C16.9847 11.0766 17.0917 11.5207 17.052 11.9639C17.0123 12.4072 16.8281 12.8252 16.5278 13.1536C16.2274 13.482 15.8275 13.7027 15.3896 13.7817C15.2257 13.8104 15.059 13.8191 14.8931 13.8077C14.715 13.7959 14.5363 13.8228 14.3695 13.8864C14.2027 13.9501 14.0516 14.0491 13.9267 14.1766C13.8057 14.3003 13.7133 14.4489 13.6557 14.6121C13.5982 14.7752 13.577 14.949 13.5935 15.1212C13.847 17.7313 13.3124 20.5166 12.0039 23.3993C11.8687 23.6918 11.6523 23.9392 11.3805 24.1122C11.1087 24.2852 10.7929 24.3765 10.4707 24.3751C10.2401 24.3748 10.0119 24.3279 9.79984 24.2371C9.58782 24.1463 9.39634 24.0136 9.23691 23.847ZM23.2871 12.353C23.1486 12.5994 22.9603 12.8143 22.734 12.9838C22.5078 13.1533 22.2487 13.2737 21.9733 13.3373C21.9062 13.3531 21.8442 13.3856 21.7931 13.4319C21.7421 13.4783 21.7037 13.5368 21.6815 13.602C21.6593 13.6673 21.6541 13.7371 21.6663 13.8049C21.6786 13.8728 21.7078 13.9364 21.7514 13.9897C22.0432 14.3498 22.2086 14.7956 22.2224 15.2588C22.2362 15.7219 22.0976 16.1768 21.8278 16.5536C21.5674 16.9119 21.1981 17.1763 20.775 17.3074C20.352 17.4385 19.8978 17.4291 19.4805 17.2808C19.3229 17.222 19.1728 17.1445 19.0336 17.05C18.8855 16.9485 18.7169 16.8808 18.5397 16.8518C18.3625 16.8227 18.181 16.833 18.0083 16.8818C17.8394 16.9293 17.683 17.0133 17.5502 17.128C17.4175 17.2426 17.3116 17.3851 17.24 17.5452C16.2662 19.6303 14.8447 21.4751 13.0768 22.9484C14.1576 20.4614 14.6128 17.7475 14.4028 15.044C14.3975 14.9893 14.4043 14.9341 14.4227 14.8823C14.4412 14.8306 14.4709 14.7835 14.5096 14.7446C14.5518 14.7009 14.6031 14.6671 14.6598 14.6457C14.7166 14.6242 14.7774 14.6155 14.8379 14.6202C15.0687 14.6356 15.3005 14.6235 15.5285 14.5841C16.0952 14.4838 16.6181 14.2139 17.0281 13.8102C17.4382 13.4064 17.7161 12.8877 17.8251 12.3226C17.9342 11.7576 17.8692 11.1727 17.6388 10.6454C17.4084 10.118 17.0235 9.67299 16.5348 9.36906C16.8805 8.88851 17.0654 8.31088 17.0629 7.71887C17.0593 7.10728 16.8598 6.51294 16.4937 6.02307C16.1275 5.53319 15.614 5.17358 15.0284 4.997C15.0317 4.95637 15.0317 4.91575 15.0317 4.87512C15.0314 4.51958 14.9526 4.16848 14.8009 3.8469C14.8536 3.79684 14.8915 3.73314 14.9102 3.66287C15.0101 3.24728 15.197 2.78172 16.1549 2.50547C16.3558 2.44101 16.5681 2.42017 16.7776 2.44434C16.9872 2.46851 17.1891 2.53713 17.37 2.64562C17.6636 2.8374 17.8884 3.11773 18.0119 3.44593C18.0334 3.50139 18.0668 3.55146 18.1097 3.5926C18.1527 3.63373 18.2042 3.66494 18.2605 3.684C18.3169 3.70306 18.3767 3.70952 18.4358 3.70292C18.4949 3.69633 18.5518 3.67683 18.6026 3.64581C18.915 3.4543 19.2735 3.35119 19.6399 3.34747C20.0063 3.34375 20.3668 3.43956 20.683 3.62468C21.0637 3.8488 21.3636 4.18786 21.5395 4.59312C21.7155 4.99839 21.7584 5.449 21.6621 5.88018C21.6401 5.98181 21.6579 6.08799 21.7119 6.17687C21.7658 6.26574 21.8518 6.33055 21.9521 6.35793C22.0899 6.39275 22.2224 6.44576 22.3462 6.51556C22.7256 6.74156 23.0011 7.10741 23.1135 7.53444C23.226 7.96147 23.1663 8.41557 22.9474 8.79909C22.8876 8.90301 22.8166 9.00013 22.7358 9.08875C22.6989 9.12987 22.6708 9.17809 22.6532 9.23045C22.6355 9.28281 22.6288 9.33822 22.6333 9.39328C22.6378 9.44834 22.6536 9.5019 22.6795 9.55068C22.7054 9.59946 22.741 9.64245 22.7841 9.677C23.1697 9.9924 23.4315 10.4337 23.5235 10.9233C23.6155 11.4128 23.5318 11.9191 23.2871 12.353Z" fill="#017D03"/>
<path d="M11.8552 14.6027L12.5093 13.4591C13.0109 12.5836 13.7931 11.9029 14.7294 11.5269L15.182 11.3462L14.8805 10.5913L14.4276 10.7725C13.3387 11.2106 12.4259 11.9976 11.8324 13.0102C11.7298 11.2857 11.3604 9.58763 10.7376 7.97632L9.31572 4.32007L8.55847 4.61419L9.98034 8.27044C10.2159 8.87789 10.4133 9.49944 10.5714 10.1315L9.77153 9.43151C8.80862 8.58906 7.57264 8.12481 6.29322 8.12501H5.6875V8.93751H6.29322C7.37564 8.93734 8.42129 9.33031 9.23569 10.0433L10.8392 11.4461C11.0695 12.8331 11.1146 14.2446 10.9732 15.6435L10.7701 17.6166L10.4707 16.7184C10.2285 15.99 9.76294 15.3564 9.14013 14.9077C8.51732 14.459 7.76894 14.2179 7.00131 14.2188H6.90625V15.0313H7.00131C7.59828 15.0307 8.18024 15.2183 8.66454 15.5673C9.14884 15.9164 9.51087 16.4091 9.69922 16.9756L10.5662 19.5776L10.1599 23.5207L10.9688 23.6031L11.7813 15.7255C11.8219 15.353 11.8422 14.978 11.8552 14.6027Z" fill="#017D03"/>
<path d="M19.9062 9.34375V10.1562C20.1538 10.1563 20.3955 10.2317 20.5991 10.3724C20.8027 10.5132 20.9587 10.7126 21.0462 10.9442C21.1337 11.1757 21.1486 11.4284 21.089 11.6687C21.0293 11.9089 20.8979 12.1253 20.7123 12.2891L21.2497 12.8984C21.5592 12.6255 21.7782 12.2649 21.8776 11.8645C21.977 11.464 21.9521 11.0428 21.8062 10.6569C21.6604 10.2709 21.4005 9.93857 21.061 9.704C20.7216 9.46942 20.3188 9.34377 19.9062 9.34375Z" fill="#017D03"/>
<path d="M18.2812 5.28125V6.09375C18.6045 6.09375 18.9145 6.22215 19.143 6.45071C19.3716 6.67927 19.5 6.98927 19.5 7.3125H20.3125C20.3119 6.77398 20.0976 6.2577 19.7168 5.8769C19.3361 5.49611 18.8198 5.2819 18.2812 5.28125Z" fill="#017D03"/>
</svg>
