<svg width="26" height="26" viewBox="0 0 26 26" fill="none" xmlns="http://www.w3.org/2000/svg">
<g clip-path="url(#clip0_1576_10595)">
<path d="M2.17664 14.9572C1.36504 18.7205 3.2554 22.4853 7.06017 23.3812C6.60294 24.1541 7.22243 25.2046 8.12509 25.1805C8.12509 25.1805 17.8751 25.1805 17.8751 25.1805C18.776 25.2047 19.3992 24.1538 18.94 23.3812C22.7471 22.4837 24.6339 18.721 23.8235 14.9571C25.8679 14.3891 25.498 11.4085 23.3595 11.368H22.7149C22.9888 10.6533 23.6812 10.0893 24.4445 10.0181C24.6679 9.9973 24.8321 9.79933 24.8115 9.57597C24.7905 9.35242 24.5913 9.18817 24.3691 9.2092C23.1871 9.31937 22.1634 10.2274 21.8686 11.368H20.934C21.8177 10.6542 22.14 9.44042 21.7745 8.39114C23.3958 7.58814 23.7424 5.30132 22.4442 4.04458C21.2177 2.74369 18.8664 3.10005 18.0929 4.71247C17.7471 4.59301 17.3878 4.54922 17.0344 4.57134C17.2602 3.39251 16.2108 2.28457 15.0214 2.44339C14.815 0.522871 12.1316 0.206479 11.4842 2.02662C10.4952 2.07373 9.69674 2.93285 9.75535 3.93526C9.30298 3.86794 8.83776 3.92871 8.41401 4.1154C8.74617 3.16168 8.45606 1.97705 7.73907 1.32045C7.11755 0.834676 6.46533 2.23862 6.31363 2.75422C5.63284 2.05459 4.64221 1.64894 3.63095 1.71281C3.50995 1.72035 3.39886 1.78145 3.32745 1.87963C3.25644 1.97762 3.23263 2.1024 3.26278 2.21983C3.69036 3.87664 4.56475 4.99628 5.70594 5.42767C5.04107 5.78691 4.56068 6.45664 4.45892 7.21C4.04672 6.26393 3.37809 5.42202 2.54233 4.82554C2.35904 4.69581 2.10632 4.73766 1.9754 4.92016C1.84528 5.10285 1.88773 5.35656 2.07022 5.48688C2.81766 6.02031 3.40739 6.78329 3.75607 7.6373C3.2737 7.51689 2.76732 7.49012 2.27017 7.57169C2.15512 7.59054 2.05356 7.65778 1.99167 7.75657C1.25683 8.92659 1.23541 10.4037 1.88772 11.5347C0.333689 12.2222 0.527592 14.538 2.17664 14.9572ZM17.8751 24.368H8.12509C7.59436 24.3596 7.58861 23.5651 8.12509 23.5555H17.8751C18.4058 23.5639 18.4116 24.3584 17.8751 24.368ZM23.1563 17.0555C23.1563 20.1916 20.605 22.743 17.4688 22.743H8.53134C5.3952 22.743 2.84384 20.1916 2.84384 17.0555C2.88262 16.5279 2.74198 15.5016 3.01577 15.0243H22.9845C23.2453 15.5041 23.1352 16.5232 23.1563 17.0555ZM18.1175 5.6077C18.3314 5.72949 18.6257 5.61105 18.6963 5.37521C18.7931 5.07707 18.9463 4.82336 19.1545 4.61846C21.5228 2.53615 24.0469 6.62494 21.1116 7.78911C20.8777 7.8601 20.7602 8.15294 20.8803 8.36575C21.6976 9.82182 20.256 11.5906 18.6641 11.099C18.459 11.0362 18.2265 11.1626 18.1688 11.368H15.1873C16.6258 9.33318 18.554 7.57622 20.7157 6.32439C20.9097 6.21172 20.9759 5.96297 20.8628 5.76897C20.7498 5.57457 20.5014 5.50891 20.3078 5.62178C18.9514 6.40969 17.6962 7.37116 16.5778 8.47922C15.6768 9.36995 14.8821 10.3424 14.204 11.368H13.8092L13.1424 9.5276C13.4415 8.79254 14.1706 8.30134 14.9857 8.33719C15.1143 8.34572 15.24 8.28304 15.3198 8.18048C15.3995 8.07773 15.4253 7.94304 15.3892 7.81807C14.8888 6.22927 16.6683 4.78417 18.1175 5.6077ZM11.5782 2.83675C11.8602 2.89192 12.1481 2.82847 12.2003 2.50446C12.3894 1.2573 14.194 1.37731 14.2188 2.63365C14.2067 2.85673 14.0696 3.15872 14.318 3.33147C14.6114 3.57417 14.9205 3.20724 15.2345 3.243C16.0227 3.22304 16.5391 4.17345 16.0731 4.81759C15.0328 5.26768 14.3841 6.43396 14.5132 7.55227C14.0326 7.62147 13.5911 7.82088 13.2164 8.12336C13.094 6.81606 13.3543 5.47044 13.9622 4.33103C14.0772 4.23304 14.1331 4.07434 14.0919 3.91804C14.0356 3.55161 13.5126 3.45394 13.3357 3.78436C12.7165 4.87368 12.3912 6.14448 12.3782 7.41852L11.6881 5.51388C11.4975 4.98715 11.1292 4.54735 10.656 4.26074C10.3401 3.61516 10.8626 2.82103 11.5782 2.83675ZM4.21176 2.54575C5.07782 2.67111 5.85461 3.22673 6.20135 4.01146C6.371 4.41111 6.99114 4.27568 6.97934 3.84184C6.9714 3.24201 7.14597 2.6612 7.44986 2.2369C7.91859 3.11421 7.89652 4.03365 6.9353 4.81226C5.33926 4.89002 4.55929 3.51833 4.21176 2.54575ZM5.30673 7.11328C5.43527 6.67153 5.7467 6.30336 6.16128 6.10301L8.68765 4.88029C9.52237 4.45661 10.6271 4.89928 10.924 5.79061C10.924 5.79058 11.9796 8.70413 11.9796 8.70413L9.54815 9.88086C9.34622 9.97845 9.26171 10.2214 9.35931 10.4234C9.45741 10.6273 9.70437 10.709 9.90204 10.612L12.2578 9.47193L12.9447 11.368H7.30734L6.25655 9.66831L8.83999 8.41792C9.04193 8.32033 9.12643 8.07733 9.02884 7.87539C8.93124 7.67386 8.69003 7.58836 8.48611 7.68675L5.82714 8.97369C5.45649 8.4228 5.07712 7.80054 5.30673 7.11328ZM2.58557 8.34989C3.56063 8.25976 4.56574 8.69861 5.17001 9.45611L6.35211 11.368C5.19306 11.2107 4.17248 10.2848 3.68609 9.24632C3.59365 9.04198 3.35363 8.95073 3.14853 9.04357C2.33801 9.45217 3.96936 11.0665 4.4006 11.368H2.75646C2.13801 10.5305 2.06595 9.31451 2.58557 8.34989ZM2.64071 12.1805C8.42144 12.1814 17.4877 12.18 23.3595 12.1805C24.6903 12.2122 24.7055 14.1757 23.3595 14.2118H2.64071C1.30652 14.1787 1.29744 12.2162 2.64071 12.1805Z" fill="#017D03"/>
<path d="M24.1723 6.89941C22.833 6.93447 22.8333 8.8958 24.1723 8.93066C25.5116 8.8956 25.5113 6.93428 24.1723 6.89941ZM24.1723 8.11816C23.9068 8.1168 23.9068 7.71323 24.1723 7.71191C24.4378 7.71328 24.4378 8.11682 24.1723 8.11816Z" fill="#017D03"/>
</g>
<defs>
<clipPath id="clip0_1576_10595">
<rect width="26" height="26" fill="white"/>
</clipPath>
</defs>
</svg>
