<svg width="26" height="26" viewBox="0 0 26 26" fill="none" xmlns="http://www.w3.org/2000/svg">
<g clip-path="url(#clip0_1576_10586)">
<path d="M16.2869 4.12859C16.4606 4.57912 17.175 4.31372 16.998 3.85446C16.7739 3.27326 16.4566 2.76726 16.1045 2.42961C15.7488 2.08872 15.2215 2.63872 15.5771 2.97967C15.8462 3.23775 16.1049 3.65653 16.2869 4.12859Z" fill="#017D03"/>
<path d="M24.983 15.9835C24.366 15.03 23.5794 14.4495 22.7366 14.3147V12.752C24.2162 12.6236 24.1227 10.3284 22.6308 10.3284H22.1046C22.1211 10.1496 22.1302 9.96692 22.1302 9.78113C22.1302 8.53593 21.7595 7.24897 21.1132 6.25032C20.4715 5.25873 19.6464 4.67033 18.7653 4.56735C18.589 3.55803 18.1935 2.60998 17.6346 1.87022C16.9567 0.972928 16.1 0.47876 15.2224 0.47876C14.3519 0.47876 13.5005 0.965917 12.8252 1.85051C12.4644 2.32304 12.1708 2.88335 11.9587 3.49132C11.8992 3.32154 11.8337 3.15419 11.7608 2.99019C11.4073 2.19522 10.7584 1.14988 9.67374 0.68482C8.76704 0.296019 7.73171 0.489327 6.90417 1.20185C6.53081 1.52334 7.02808 2.10077 7.40139 1.77934C8.0122 1.25331 8.73097 1.10969 9.37339 1.3852C9.84672 1.58821 10.5244 2.08512 11.0643 3.29979C11.2484 3.71364 11.3838 4.1502 11.4702 4.60149C10.6683 4.76695 9.92227 5.33768 9.33168 6.25032C9.07334 6.64949 8.85991 7.09514 8.69571 7.56538C8.53152 7.09519 8.31809 6.64949 8.05975 6.25032C7.46911 5.33768 6.72311 4.7669 5.92112 4.60144C5.94693 4.46716 6.34431 3.46699 6.19449 3.30868C6.00062 3.10384 5.64124 2.93289 5.49076 3.33053C5.33992 3.72924 5.22653 4.1444 5.15235 4.5674C4.27142 4.67048 3.44646 5.25884 2.80486 6.25032C2.15859 7.24897 1.78792 8.53588 1.78792 9.78113C1.78792 9.96692 1.79697 10.1496 1.81353 10.3284H1.28746C-0.188393 10.3284 -0.317638 12.6219 1.18168 12.752V16.631C1.18168 17.855 1.77426 18.943 2.68751 19.6237H0.369483C-0.123161 19.6237 -0.123161 20.3858 0.369483 20.3858H12.0227C11.7026 20.8515 11.5342 21.3571 11.5342 21.8772C11.5342 22.8623 12.1378 23.7954 13.2337 24.5045C14.2324 25.1508 15.5193 25.5214 16.7646 25.5214C18.6444 25.5214 20.0905 24.6481 20.6707 23.2813C21.6498 23.8098 22.9038 23.8349 23.9047 23.3513C24.3484 23.1369 24.0168 22.4509 23.5732 22.6651C22.7407 23.0675 21.6774 23.0185 20.8918 22.5287C20.9285 22.3192 20.9484 22.102 20.9484 21.8772C20.9484 20.6729 20.4062 19.6725 19.495 19.0264C19.68 16.8648 20.9836 15.0462 22.3557 15.0462C23.0735 15.0462 23.7794 15.5261 24.3433 16.3976C24.9119 17.2761 25.238 18.4121 25.238 19.5143C25.238 20.061 25.1568 20.5648 24.9967 21.0119C24.835 21.4632 25.5471 21.735 25.7141 21.2688C25.9038 20.7391 26 20.1489 26 19.5144C26 18.269 25.6293 16.9821 24.983 15.9835ZM20.4735 6.66427C21.042 7.54282 21.3682 8.67884 21.3682 9.78103C21.3682 9.96819 21.3574 10.1508 21.3383 10.3283H15.6334C15.6143 10.1507 15.6036 9.96809 15.6036 9.78103C15.6036 8.67884 15.9297 7.54282 16.4982 6.66427C17.0621 5.79289 17.7681 5.31299 18.4859 5.31299C19.2037 5.31299 19.9096 5.79294 20.4735 6.66427ZM13.431 2.31288C13.9588 1.62154 14.5951 1.24077 15.2225 1.24077C16.4429 1.24077 17.6376 2.71662 17.9977 4.60128C17.1955 4.76655 16.4492 5.33738 15.8584 6.25027C15.6001 6.64944 15.3867 7.09509 15.2225 7.56533C15.0583 7.09514 14.8449 6.64944 14.5865 6.25027C13.9959 5.33768 13.25 4.7669 12.448 4.60144C12.6135 3.74514 12.9634 2.92542 13.431 2.31288ZM9.9715 6.66427C11.0821 4.94812 12.8252 4.9313 13.9468 6.66427C14.5153 7.54282 14.8414 8.67884 14.8414 9.78103C14.8414 9.96809 14.8307 10.1507 14.8116 10.3283H9.10672C9.08762 10.1507 9.07684 9.96809 9.07684 9.78103C9.07684 8.67889 9.40295 7.54287 9.9715 6.66427ZM2.55013 9.78108C2.55013 8.6789 2.87619 7.54287 3.44479 6.66432C4.00871 5.79294 4.71463 5.31304 5.43244 5.31304C6.15024 5.31304 6.85616 5.79294 7.42008 6.66432C7.98863 7.54287 8.31474 8.6789 8.31474 9.78108C8.31474 9.96819 8.30397 10.1508 8.28486 10.3283H2.58001C2.5609 10.1508 2.55013 9.96819 2.55013 9.78108ZM0.835303 11.5425C0.835303 11.2932 1.03816 11.0904 1.28746 11.0904H22.6309C23.2153 11.0904 23.2154 11.9948 22.6309 11.9948H1.28746C1.03816 11.9948 0.835303 11.7919 0.835303 11.5425ZM20.1863 21.8772C20.1863 22.6701 19.8748 23.3893 19.3092 23.9023C18.6913 24.463 17.8113 24.7593 16.7646 24.7593C15.6623 24.7593 14.5262 24.4332 13.6476 23.8647C12.7762 23.3008 12.2962 22.595 12.2962 21.8772C12.2962 21.1594 12.7762 20.4535 13.6476 19.8896C14.5262 19.3211 15.6623 18.995 16.7646 18.995C17.8113 18.995 18.6913 19.2913 19.3092 19.852C19.8748 20.365 20.1863 21.0843 20.1863 21.8772ZM18.7735 18.6237C18.1902 18.3716 17.5119 18.233 16.7646 18.233C15.5194 18.233 14.2324 18.6036 13.2337 19.2498C13.0617 19.3611 12.9019 19.4779 12.7547 19.5995H4.91231C3.27541 19.5995 1.94374 18.2679 1.94374 16.631V12.7569H21.9746V14.3142C20.2756 14.5825 19.0532 16.6157 18.7735 18.6237Z" fill="#017D03"/>
<path d="M18.27 20.0603C17.8264 19.8459 17.4946 20.5318 17.9382 20.7463C18.4198 20.9792 18.6641 21.3597 18.6641 21.8771C18.6641 22.3698 19.4261 22.3698 19.4261 21.8771C19.4261 21.066 19.0156 20.4208 18.27 20.0603Z" fill="#017D03"/>
<path d="M13.0193 8.22258C13.1931 8.67306 13.9074 8.40766 13.7304 7.94844C13.5062 7.36715 13.189 6.86114 12.8369 6.52365C12.4813 6.18265 11.9539 6.73276 12.3095 7.0737C12.5786 7.33163 12.8373 7.75041 13.0193 8.22258Z" fill="#017D03"/>
</g>
<defs>
<clipPath id="clip0_1576_10586">
<rect width="26" height="26" fill="white"/>
</clipPath>
</defs>
</svg>
