<svg width="60" height="60" viewBox="0 0 60 60" fill="none" xmlns="http://www.w3.org/2000/svg">
<g clip-path="url(#clip0_673_54074)">
<path d="M44.1727 54.3162C44.045 57.0057 41.8254 59.1209 39.1336 59.1209H23.2066C20.5148 59.1209 18.2952 57.0057 18.1675 54.3162C17.8218 47.0833 17.6788 39.8504 17.7386 32.6176C17.7667 29.2203 17.8405 25.8218 17.9577 22.4234C17.9589 22.3988 17.96 22.3742 17.9612 22.3507C18.2061 16.3085 23.0636 11.4732 29.1153 11.2775C30.4852 11.233 31.8551 11.233 33.2251 11.2775C39.3013 11.4744 44.1728 16.3471 44.3826 22.4234C44.7505 33.0536 44.6802 43.6849 44.1727 54.3162Z" fill="#D3EFFB"/>
<path d="M31.1709 11.2456C30.8623 11.2456 30.5538 11.256 30.2453 11.2782C27.509 11.4747 25.3166 16.3474 25.2217 22.4231C25.0563 33.055 25.0876 43.6857 25.3167 54.3177C25.374 57.006 26.3725 59.1214 27.5857 59.1214H23.2064C20.5142 59.1214 18.2959 57.0059 18.167 54.3177C17.6594 43.6857 17.5891 33.055 17.9575 22.4231C18.1684 16.3475 23.0399 11.4748 29.1154 11.2782C29.8 11.256 30.4848 11.2456 31.1709 11.2456Z" fill="#B1E4F9"/>
<path d="M30.2848 30.4996C30.1542 31.5977 29.2481 32.4441 28.1437 32.4984C27.1368 32.5478 26.1302 32.5862 25.124 32.613C22.6619 32.681 20.1997 32.6821 17.7388 32.6177C17.7671 29.1965 17.8418 25.7742 17.9604 22.3518L17.9614 22.3508C20.3814 22.291 22.8025 22.2957 25.2225 22.3637C26.1968 22.3903 27.1706 22.4279 28.1446 22.4759C29.2487 22.5304 30.1542 23.3768 30.2849 24.4746C30.5236 26.4828 30.5236 28.4912 30.2848 30.4996Z" fill="#ECECEC"/>
<path d="M25.2222 22.3637C25.2222 22.3836 25.221 22.4035 25.221 22.4234C25.1683 25.8196 25.1355 29.2157 25.1238 32.613C22.6616 32.681 20.1995 32.6821 17.7385 32.6177C17.7667 29.2204 17.8405 25.8219 17.9577 22.4234C17.9588 22.3988 17.96 22.3742 17.9612 22.3508C20.3811 22.291 22.8023 22.2957 25.2222 22.3637Z" fill="#DADADA"/>
<path d="M37.7261 7.53516H24.6142C23.3006 7.53516 22.2358 8.60005 22.2358 9.9135C22.2358 11.2271 23.3007 12.2919 24.6142 12.2919H37.7262C39.0398 12.2919 40.1046 11.227 40.1046 9.9135C40.1046 8.60005 39.0397 7.53516 37.7261 7.53516Z" fill="#ECECEC"/>
<path d="M28.306 11.5955C28.7369 12.0264 29.3319 12.2919 29.988 12.2919H24.6142C23.958 12.2919 23.3632 12.0264 22.9323 11.5955C22.5027 11.1646 22.2358 10.5709 22.2358 9.91359C22.2358 8.60004 23.3007 7.53516 24.6143 7.53516H29.9881C28.6746 7.53516 27.6097 8.60004 27.6097 9.91359C27.6096 10.571 27.8765 11.1646 28.306 11.5955Z" fill="#DADADA"/>
<path d="M34.9356 0.878906H27.4049C25.8636 0.878906 24.6143 2.12826 24.6143 3.66952V7.53523H37.7263V3.66952C37.7262 2.12826 36.4768 0.878906 34.9356 0.878906Z" fill="#ECECEC"/>
<path d="M31.4097 0.878418C29.8684 0.878418 28.62 2.12811 28.62 3.66947V7.53455H24.6143V3.66947C24.6143 2.12811 25.8627 0.878418 27.404 0.878418H31.4097Z" fill="#DADADA"/>
<path d="M58.614 51.0638C58.4698 51.2678 58.2933 52.6977 58.0893 52.8606C50.9583 58.5318 40.801 58.5318 33.67 52.8606C33.4661 52.6977 33.2895 51.2678 33.1453 51.0638L42.9694 31.5174C44.1731 29.1252 47.5887 29.1252 48.7923 31.5187L50.2657 34.4507C48.8247 34.7342 47.7379 36.0037 47.7379 37.5269C47.7379 39.2589 49.1417 40.6627 50.8724 40.6627C51.6831 40.6627 52.423 40.3556 52.9788 39.8496L58.614 51.0638Z" fill="#FFD064"/>
<path d="M58.0893 54.8686C50.9584 60.5386 40.801 60.5386 33.6701 54.8686C32.6542 54.0604 32.3483 52.6492 32.9315 51.489L33.1453 51.0637C33.2896 51.2676 33.4661 51.4542 33.6701 51.6171C40.801 57.2883 50.9584 57.2883 58.0893 51.6171C58.2932 51.4542 58.4698 51.2677 58.6141 51.0637L58.828 51.489C59.411 52.6492 59.1051 54.0604 58.0893 54.8686Z" fill="#DB5B6F"/>
<path d="M49.9249 51.606C51.601 51.606 52.9597 50.2473 52.9597 48.5712C52.9597 46.8951 51.601 45.5364 49.9249 45.5364C48.2489 45.5364 46.8901 46.8951 46.8901 48.5712C46.8901 50.2473 48.2489 51.606 49.9249 51.606Z" fill="#FFC250"/>
<path d="M43.5281 44.6853C44.6185 44.6853 45.5025 43.8014 45.5025 42.7109C45.5025 41.6205 44.6185 40.7366 43.5281 40.7366C42.4377 40.7366 41.5537 41.6205 41.5537 42.7109C41.5537 43.8014 42.4377 44.6853 43.5281 44.6853Z" fill="#FFC250"/>
<path d="M39.7336 48.1107C39.7336 43.3811 35.8994 35.9631 31.1698 35.9631C26.4401 35.9631 22.606 43.3811 22.606 48.1107C22.606 52.8403 26.4401 56.6745 31.1698 56.6745C35.8994 56.6745 39.7336 52.8403 39.7336 48.1107Z" fill="#ECECEC"/>
<path d="M31.17 56.6748C26.4405 56.6748 22.606 52.841 22.606 48.1107C22.606 43.3812 26.4405 35.9634 31.17 35.9634C28.8786 35.9634 27.0206 43.3813 27.0206 48.1107C27.0206 52.841 28.8785 56.6748 31.17 56.6748Z" fill="#DADADA"/>
<path d="M21.2585 48.1107C21.2585 43.3811 17.4243 35.9631 12.6947 35.9631C7.96504 35.9631 4.13086 43.381 4.13086 48.1107C4.13086 52.8404 7.96504 56.6745 12.6947 56.6745C17.4243 56.6745 21.2585 52.8403 21.2585 48.1107Z" fill="#ECECEC"/>
<path d="M12.6949 56.6748C7.9654 56.6748 4.13086 52.841 4.13086 48.1107C4.13086 43.3812 7.9654 35.9634 12.6949 35.9634C10.4035 35.9634 8.54548 43.3813 8.54548 48.1107C8.54548 52.841 10.4034 56.6748 12.6949 56.6748Z" fill="#DADADA"/>
<path d="M40.4075 48.1104C40.4075 48.178 40.4075 48.2456 40.4065 48.3132C40.3956 49.2469 40.3072 50.1815 40.1796 51.1152C39.9081 53.1056 39.4533 55.0962 39.1664 57.0877C39.041 57.957 38.3495 58.6343 37.4769 58.7335C34.218 59.1033 31.4923 59.2091 28.5355 59.0476C27.3663 58.9855 26.1599 58.8807 24.8719 58.7346C23.9972 58.6343 23.2981 57.9591 23.1727 57.0876C23.0898 56.5128 22.9939 55.8268 22.8913 55.0949C22.804 54.4732 22.2641 54.1995 21.7778 54.2726C21.3939 54.3293 21.0427 54.6041 20.974 55.0949C20.8714 55.8268 20.7744 56.5128 20.6916 57.0876C20.5662 57.959 19.867 58.6341 18.9923 58.7346C14.4463 59.2504 10.9355 59.2494 6.38737 58.7335C5.51478 58.6343 4.82337 57.9569 4.69786 57.0877C4.41098 55.0961 3.95734 53.1056 3.6857 51.1152C3.55808 50.1815 3.46972 49.2469 3.45882 48.3132C3.45776 48.2456 3.45776 48.178 3.45776 48.1104H40.4075Z" fill="#E49542"/>
<path d="M40.4063 48.3132C40.3954 49.2469 40.307 50.1816 40.1794 51.1152H3.68537C3.55776 50.1816 3.46939 49.2469 3.4585 48.3132H40.4063Z" fill="#E28424"/>
<path d="M10.054 59.0483C8.88372 58.985 7.67737 58.8792 6.38712 58.733C5.51454 58.6338 4.82312 57.9564 4.69761 57.0872C4.26683 54.0945 3.45752 51.1027 3.45752 48.1099H7.61855C7.72003 51.2347 8.54129 54.3594 8.99059 57.4831C9.08762 58.1572 9.49017 58.7276 10.054 59.0483Z" fill="#E28424"/>
<path d="M28.5355 59.0478C27.3663 58.9856 26.16 58.8809 24.872 58.7347C23.9973 58.6344 23.2981 57.9593 23.1727 57.0878C23.0899 56.513 22.9939 55.8269 22.8914 55.0951C22.8041 54.4734 22.2642 54.1997 21.7778 54.2728C21.8302 51.9616 21.9425 49.6353 21.9425 48.1116H26.1034C26.2049 51.2364 27.0261 54.3611 27.4754 57.4848C27.5725 58.1578 27.9738 58.7271 28.5355 59.0478Z" fill="#E28424"/>
<path d="M41.585 49.5119H2.27989C1.50609 49.5119 0.878662 48.8846 0.878662 48.1107C0.878662 47.3368 1.50597 46.7095 2.27989 46.7095H41.5849C42.3587 46.7095 42.9861 47.3368 42.9861 48.1107C42.9861 48.8846 42.3588 49.5119 41.585 49.5119Z" fill="#E49542"/>
<path d="M7.23503 49.5122H2.27905C1.50573 49.5122 0.878662 48.884 0.878662 48.1108C0.878662 47.3364 1.50585 46.7092 2.27905 46.7092H7.23503C6.46065 46.7092 5.83347 47.3364 5.83347 48.1108C5.83347 48.884 6.46065 49.5122 7.23503 49.5122Z" fill="#E28424"/>
<path d="M59.6153 51.0939L53.7653 39.4547C53.6417 39.2089 53.4103 39.0351 53.1399 38.9851C52.8695 38.9351 52.5911 39.0145 52.3879 39.1998C51.9748 39.5763 51.4372 39.7837 50.8742 39.7837C49.6302 39.7837 48.6183 38.7712 48.6183 37.5267C48.6183 36.4514 49.3831 35.5204 50.437 35.3129C50.7065 35.2598 50.9357 35.0838 51.0566 34.8371C51.1774 34.5904 51.1759 34.3014 51.0526 34.0559L49.5794 31.1235C48.8725 29.7179 47.4559 28.8448 45.8827 28.8446C45.8825 28.8446 45.8824 28.8446 45.8823 28.8446C45.7302 28.8446 45.5803 28.8552 45.4316 28.8712C45.3931 26.7001 45.3372 24.5261 45.263 22.3932C45.1886 20.2382 44.5549 18.1333 43.4304 16.3061C43.176 15.8927 42.6345 15.7638 42.2212 16.0183C41.8079 16.2727 41.679 16.8141 41.9334 17.2275C42.8985 18.7956 43.4423 20.6029 43.5062 22.4541C43.5867 24.7642 43.6458 27.1228 43.6841 29.4735C43.0565 29.8666 42.5347 30.4294 42.1859 31.1226L37.8859 39.6784C36.2213 37.0913 33.8905 35.0845 31.1714 35.0845C26.4285 35.0845 22.8668 41.1888 21.9623 45.8303H21.9055C21.4416 43.4502 20.279 40.6861 18.6167 38.5569C18.6047 36.8822 18.6045 35.1998 18.6147 33.5139C19.5228 33.532 20.433 33.5438 21.3457 33.5438C23.6262 33.5438 25.9159 33.4877 28.1875 33.3759C29.7275 33.3 30.9773 32.1338 31.1594 30.6027C31.4053 28.5353 31.4053 26.4386 31.1594 24.3712C30.9773 22.8401 29.7276 21.6738 28.188 21.5981C25.1142 21.447 22.0014 21.3988 18.9201 21.4525C19.3783 17.8441 21.6141 14.7411 24.9396 13.1707H37.4045C38.2786 13.5835 39.0944 14.1136 39.8302 14.7517C39.9965 14.896 40.2015 14.9667 40.4056 14.9667C40.6516 14.9667 40.8963 14.864 41.0701 14.6636C41.388 14.2969 41.3485 13.7418 40.9818 13.4237C40.5858 13.0804 40.1689 12.765 39.7355 12.4758C40.4956 11.879 40.9853 10.9526 40.9853 9.91348C40.9853 8.4219 39.9773 7.16223 38.607 6.77762V3.66954C38.6066 1.64615 36.9606 0 34.9371 0H27.4064C25.3831 0 23.7369 1.64615 23.7369 3.66954V6.77785C22.3665 7.16247 21.3584 8.42213 21.3584 9.91371C21.3584 10.9527 21.8479 11.8788 22.6078 12.4757C21.2809 13.3607 20.1297 14.4964 19.223 15.8287C17.9029 17.7685 17.1621 20.0386 17.0809 22.3932C16.916 27.1515 16.8386 31.9615 16.8494 36.7222C15.6191 35.7145 14.2187 35.0846 12.6963 35.0846C10.5592 35.0846 8.39676 36.393 6.60717 38.7688C6.31502 39.1564 6.39259 39.7076 6.78037 39.9996C7.16815 40.2918 7.71917 40.2142 8.01121 39.8264C8.85075 38.7119 10.5758 36.8424 12.6964 36.8424C14.3482 36.8424 16.0834 37.9992 17.5826 40.0995C18.7697 41.7626 19.6803 43.8433 20.1118 45.8305H5.28012C5.50465 44.7992 5.86173 43.7306 6.33236 42.6903C6.5324 42.248 6.33611 41.7273 5.89384 41.5272C5.45168 41.3271 4.9309 41.5234 4.73074 41.9657C4.15358 43.2415 3.73147 44.5625 3.48842 45.8303H2.28161C1.02429 45.8303 0.00146484 46.8532 0.00146484 48.1105C0.00146484 49.3677 1.02441 50.3906 2.28161 50.3906H2.71357C2.85947 51.7371 3.10545 53.0791 3.34604 54.3838C3.51748 55.3136 3.69479 56.2752 3.82956 57.2122C4.01214 58.4775 5.02371 59.462 6.29005 59.6065C8.59446 59.8684 10.6443 59.9994 12.695 59.9994C14.7427 59.9994 16.7911 59.8689 19.0938 59.6077C19.514 59.5598 19.9051 59.4187 20.2485 59.2077C21.1455 59.7274 22.1561 59.9998 23.2084 59.9998H31.1725L31.1703 59.9992C33.2216 59.9993 35.2725 59.8684 37.5781 59.6064C38.1886 59.5368 38.7388 59.2704 39.1667 58.8728C41.3412 59.6235 43.6032 59.9925 45.8551 59.9925C50.4353 59.9925 54.9721 58.471 58.6375 55.5562C59.9704 54.4972 60.3817 52.6205 59.6153 51.0939ZM25.4947 3.66954C25.4947 2.61542 26.3523 1.75783 27.4064 1.75783H34.9371C35.9912 1.75783 36.8488 2.61542 36.8488 3.66954V6.65633H25.4947V3.66954ZM24.6158 8.41416H37.7277C38.5546 8.41416 39.2272 9.08683 39.2272 9.91359C39.2272 10.7405 38.5545 11.4131 37.7277 11.4131H24.6158C23.7889 11.4131 23.1163 10.7405 23.1163 9.91359C23.1163 9.08683 23.789 8.41416 24.6158 8.41416ZM28.1014 23.3541C28.7813 23.3875 29.3333 23.9027 29.4136 24.579C29.6431 26.5087 29.6431 28.4656 29.4136 30.3953C29.3333 31.0716 28.7812 31.5869 28.1009 31.6203C24.9538 31.7752 21.7722 31.8204 18.6291 31.7577C18.6592 28.9071 18.7207 26.0521 18.8136 23.2129C21.9008 23.1562 25.0207 23.2027 28.1014 23.3541ZM43.756 31.9124C44.1688 31.0922 44.9634 30.6026 45.8821 30.6026H45.8823C46.8011 30.6027 47.5961 31.0927 48.0087 31.9131L49.0362 33.9583C47.7298 34.6334 46.8605 35.9982 46.8605 37.5268C46.8605 39.7406 48.661 41.5417 50.8742 41.5417C51.494 41.5417 52.0971 41.4001 52.6414 41.1328L57.5589 50.9165C57.5536 50.9207 57.5488 50.9254 57.5435 50.9296C55.0713 52.8959 52.1151 54.2111 48.9946 54.7331C46.1816 55.2036 43.2794 55.024 40.5526 54.2197C40.7834 52.9663 41.0146 51.6808 41.1542 50.3906H41.5866C42.844 50.3906 43.8668 49.3678 43.8668 48.1105C43.8668 46.8532 42.844 45.8303 41.5866 45.8303H40.3801C40.113 44.4598 39.6143 42.962 38.9218 41.5311L43.756 31.9124ZM26.2847 40.0997C27.784 37.9992 29.5195 36.8424 31.1711 36.8424C32.8233 36.8424 34.5587 37.9992 36.0579 40.0997C37.2449 41.7627 38.1553 43.8434 38.5867 45.8306H23.7555C24.1869 43.8436 25.0975 41.7629 26.2847 40.0997ZM1.7593 48.1107C1.7593 47.8227 1.99368 47.5884 2.28161 47.5884H41.5866C41.8747 47.5884 42.109 47.8227 42.109 48.1107C42.109 48.3987 41.8747 48.633 41.5866 48.633H2.28161C1.99356 48.6329 1.7593 48.3987 1.7593 48.1107ZM21.3996 57.8297C21.4759 57.6335 21.5326 57.4274 21.5635 57.2121C21.6457 56.6359 21.7432 55.9492 21.8451 55.2166C21.8521 55.1669 21.8559 55.1395 21.9338 55.1395C22.0119 55.1395 22.0156 55.1669 22.0225 55.2159C22.1246 55.9494 22.2221 56.636 22.3044 57.2131C22.3558 57.5704 22.4756 57.9042 22.647 58.2042C22.212 58.146 21.7926 58.02 21.3996 57.8297ZM37.3791 57.8601C32.916 58.3673 29.4374 58.3677 24.9729 57.8613C24.4944 57.8068 24.1125 57.4374 24.0444 56.964C23.9625 56.3894 23.8653 55.7049 23.7634 54.9727C23.6321 54.0359 22.8797 53.3816 21.9337 53.3818C20.9878 53.3818 20.2354 54.036 20.1042 54.9735C20.0023 55.7049 19.9052 56.3895 19.8234 56.9631C19.7552 57.4374 19.3733 57.8068 18.8951 57.8613C14.4298 58.3677 10.9512 58.3673 6.48892 57.8601C6.01607 57.8062 5.6379 57.4366 5.56934 56.9616C5.42965 55.9906 5.24918 55.0117 5.07457 54.0652C4.85156 52.856 4.6241 51.6144 4.4823 50.3907H39.3854C39.2433 51.6177 39.0153 52.8627 38.7918 54.0752C38.6179 55.0188 38.438 55.9944 38.2983 56.9623C38.2299 57.4371 37.8517 57.8062 37.3791 57.8601ZM57.5435 54.1804C52.6221 58.0939 45.9826 59.2574 40.0211 57.3045C40.0265 57.2741 40.0338 57.2443 40.0382 57.2136C40.0981 56.7989 40.1669 56.3793 40.2391 55.9599C42.0754 56.4828 43.9815 56.748 45.891 56.748C47.0258 56.748 48.1619 56.6546 49.2847 56.4669C52.532 55.9237 55.6156 54.5938 58.2382 52.6128C58.272 53.2044 58.0261 53.797 57.5435 54.1804Z" fill="black"/>
<path d="M46.7014 50.7884C47.2937 51.6498 48.186 52.229 49.2138 52.4193C49.4543 52.4638 49.6953 52.4858 49.9346 52.4858C50.7186 52.4858 51.4837 52.2498 52.1437 51.7961C53.0052 51.2038 53.5843 50.3115 53.7746 49.2837C53.9651 48.2558 53.7436 47.2153 53.1514 46.3539C52.5592 45.4924 51.6669 44.9133 50.639 44.723C49.6108 44.5327 48.5707 44.754 47.7092 45.3462C46.8478 45.9385 46.2687 46.8307 46.0783 47.8586C45.8878 48.8865 46.1092 49.9271 46.7014 50.7884ZM47.8066 48.1786C47.9115 47.6124 48.2306 47.1209 48.7051 46.7946C49.0686 46.5447 49.49 46.4147 49.9219 46.4147C50.0537 46.4147 50.1866 46.4269 50.3189 46.4514C50.8851 46.5563 51.3766 46.8753 51.703 47.3499C52.0292 47.8244 52.1511 48.3975 52.0463 48.9638C51.9415 49.53 51.6224 50.0215 51.1479 50.3478C50.6733 50.674 50.1 50.7959 49.5341 50.6911C48.9678 50.5862 48.4763 50.2672 48.15 49.7926C47.8237 49.318 47.7017 48.7449 47.8066 48.1786Z" fill="black"/>
<path d="M43.01 45.5165C43.1854 45.549 43.3611 45.5651 43.5356 45.5651C44.1072 45.5651 44.665 45.3929 45.1461 45.0622C45.7741 44.6304 46.1964 43.9799 46.3351 43.2306C46.474 42.4811 46.3125 41.7226 45.8808 41.0945C45.4491 40.4663 44.7984 40.0441 44.0491 39.9054C42.5022 39.6191 41.0105 40.6445 40.7241 42.1915C40.4374 43.7385 41.4631 45.2301 43.01 45.5165ZM42.4524 42.5115C42.5623 41.9176 43.1351 41.5236 43.729 41.6339C44.0167 41.6872 44.2664 41.8493 44.4322 42.0904C44.5981 42.3316 44.6599 42.6228 44.6067 42.9105C44.5534 43.1982 44.3913 43.4481 44.1502 43.6138C43.9091 43.7796 43.6181 43.8416 43.3301 43.7883C42.7362 43.6781 42.3424 43.1054 42.4524 42.5115Z" fill="black"/>
</g>
<defs>
<clipPath id="clip0_673_54074">
<rect width="60" height="60" fill="white"/>
</clipPath>
</defs>
</svg>
