<svg width="40" height="40" viewBox="0 0 40 40" fill="none" xmlns="http://www.w3.org/2000/svg">
<path d="M11.8389 23.1744C11.8113 23.0956 11.7682 23.0232 11.7122 22.9613C11.6562 22.8995 11.5883 22.8495 11.5127 22.8143C11.437 22.7791 11.355 22.7594 11.2716 22.7564C11.1882 22.7534 11.1051 22.7671 11.0271 22.7967C10.9491 22.8264 10.8778 22.8713 10.8174 22.9289C10.7571 22.9866 10.7089 23.0557 10.6756 23.1323C10.6424 23.2088 10.6249 23.2913 10.6241 23.3747C10.6232 23.4582 10.6391 23.5409 10.6708 23.6181C11.3336 25.3662 12.4936 26.8821 14.0076 27.9788C14.074 28.027 14.1493 28.0617 14.2291 28.0809C14.3089 28.1001 14.3917 28.1034 14.4728 28.0905C14.5539 28.0777 14.6316 28.049 14.7016 28.0062C14.7716 27.9633 14.8325 27.907 14.8808 27.8406C14.929 27.7742 14.9637 27.699 14.9829 27.6192C15.0021 27.5394 15.0054 27.4566 14.9925 27.3755C14.9797 27.2944 14.951 27.2166 14.9082 27.1466C14.8653 27.0766 14.809 27.0158 14.7426 26.9675C13.4254 26.0136 12.416 24.695 11.8389 23.1744Z" fill="white"/>
<path d="M30.2421 24.7725C31.0705 24.7715 31.8648 24.4419 32.4507 23.8561C33.0365 23.2703 33.3661 22.476 33.3671 21.6475V20.9656C33.3661 20.1371 33.0365 19.3428 32.4507 18.757C31.8648 18.1712 31.0705 17.8416 30.2421 17.8406H29.8127V16.875C29.8127 16.3777 29.6151 15.9008 29.2635 15.5492C28.9119 15.1975 28.435 15 27.9377 15H9.1333C8.63602 15 8.15911 15.1975 7.80748 15.5492C7.45584 15.9008 7.2583 16.3777 7.2583 16.875V21.25C7.26144 24.067 8.38187 26.7676 10.3738 28.7595C12.3657 30.7514 15.0663 31.8719 17.8833 31.875H19.1877C21.386 31.8711 23.5291 31.1861 25.3221 29.9142C27.1152 28.6423 28.47 26.846 29.2002 24.7725H30.2421ZM30.2421 19.0906C30.7393 19.0906 31.2162 19.2882 31.5679 19.6398C31.9195 19.9914 32.1171 20.4683 32.1171 20.9656V21.6475C32.1171 22.1448 31.9195 22.6217 31.5679 22.9733C31.2162 23.325 30.7393 23.5225 30.2421 23.5225H29.8127V19.0906H30.2421ZM19.1877 30.625H17.8833C15.3978 30.6222 13.0148 29.6336 11.2573 27.876C9.49974 26.1185 8.51111 23.7355 8.5083 21.25V16.875C8.5083 16.7092 8.57415 16.5503 8.69136 16.4331C8.80857 16.3158 8.96754 16.25 9.1333 16.25H27.9377C28.1034 16.25 28.2624 16.3158 28.3796 16.4331C28.4968 16.5503 28.5627 16.7092 28.5627 16.875V21.25C28.56 23.7356 27.5715 26.1186 25.8139 27.8762C24.0563 29.6338 21.6733 30.6224 19.1877 30.625Z" fill="white"/>
<path d="M9.375 33.125C9.20924 33.125 9.05027 33.1908 8.93306 33.3081C8.81585 33.4253 8.75 33.5842 8.75 33.75C8.75 33.9158 8.81585 34.0747 8.93306 34.1919C9.05027 34.3092 9.20924 34.375 9.375 34.375H28.125C28.2908 34.375 28.4497 34.3092 28.5669 34.1919C28.6842 34.0747 28.75 33.9158 28.75 33.75C28.75 33.5842 28.6842 33.4253 28.5669 33.3081C28.4497 33.1908 28.2908 33.125 28.125 33.125H9.375Z" fill="white"/>
<path d="M13.567 6.43311C13.4498 6.31594 13.2908 6.25012 13.1251 6.25012C12.9594 6.25012 12.8004 6.31594 12.6832 6.43311C12.2351 6.88213 11.9834 7.4906 11.9834 8.12499C11.9834 8.75938 12.2351 9.36785 12.6832 9.81686C12.8972 10.0314 13.0173 10.322 13.0173 10.625C13.0173 10.928 12.8972 11.2186 12.6832 11.4331L12.3707 11.7456C12.311 11.8033 12.2634 11.8722 12.2307 11.9485C12.1979 12.0247 12.1807 12.1068 12.18 12.1897C12.1792 12.2727 12.195 12.355 12.2265 12.4318C12.2579 12.5086 12.3043 12.5784 12.363 12.6371C12.4217 12.6958 12.4915 12.7422 12.5683 12.7736C12.6451 12.8051 12.7274 12.8209 12.8104 12.8201C12.8933 12.8194 12.9754 12.8022 13.0516 12.7694C13.1279 12.7367 13.1968 12.6891 13.2545 12.6294L13.567 12.3169C14.0151 11.8678 14.2668 11.2594 14.2668 10.625C14.2668 9.9906 14.0151 9.38213 13.567 8.93311C13.353 8.71859 13.2329 8.42797 13.2329 8.12499C13.2329 7.82201 13.353 7.53139 13.567 7.31686C13.6842 7.19966 13.75 7.04072 13.75 6.87499C13.75 6.70926 13.6842 6.55032 13.567 6.43311Z" fill="white"/>
<path d="M19.192 7.31689C19.3058 7.19901 19.3688 7.04113 19.3674 6.87726C19.366 6.71339 19.3003 6.55663 19.1844 6.44075C19.0685 6.32487 18.9117 6.25914 18.7479 6.25771C18.584 6.25629 18.4261 6.31929 18.3082 6.43314C17.8601 6.88215 17.6084 7.49062 17.6084 8.12501C17.6084 8.7594 17.8601 9.36787 18.3082 9.81688C18.5222 10.0314 18.6423 10.322 18.6423 10.625C18.6423 10.928 18.5222 11.2186 18.3082 11.4331L17.9957 11.7456C17.936 11.8033 17.8884 11.8723 17.8557 11.9485C17.8229 12.0248 17.8057 12.1068 17.805 12.1898C17.8042 12.2727 17.82 12.355 17.8515 12.4319C17.8829 12.5087 17.9293 12.5784 17.988 12.6371C18.0467 12.6958 18.1165 12.7422 18.1933 12.7736C18.2701 12.8051 18.3524 12.8209 18.4354 12.8202C18.5183 12.8194 18.6004 12.8022 18.6766 12.7694C18.7529 12.7367 18.8218 12.6891 18.8795 12.6294L19.192 12.3169C19.6401 11.8679 19.8918 11.2594 19.8918 10.625C19.8918 9.99062 19.6401 9.38215 19.192 8.93314C18.978 8.71861 18.8579 8.42799 18.8579 8.12501C18.8579 7.82203 18.978 7.53141 19.192 7.31689Z" fill="white"/>
<path d="M24.817 6.43311C24.6998 6.31594 24.5408 6.25012 24.3751 6.25012C24.2094 6.25012 24.0504 6.31594 23.9332 6.43311C23.4851 6.88213 23.2334 7.4906 23.2334 8.12499C23.2334 8.75938 23.4851 9.36785 23.9332 9.81686C24.1472 10.0314 24.2673 10.322 24.2673 10.625C24.2673 10.928 24.1472 11.2186 23.9332 11.4331L23.6207 11.7456C23.561 11.8033 23.5134 11.8722 23.4807 11.9485C23.4479 12.0247 23.4307 12.1068 23.43 12.1897C23.4292 12.2727 23.445 12.355 23.4765 12.4318C23.5079 12.5086 23.5543 12.5784 23.613 12.6371C23.6717 12.6958 23.7415 12.7422 23.8183 12.7736C23.8951 12.8051 23.9774 12.8209 24.0604 12.8201C24.1433 12.8194 24.2254 12.8022 24.3016 12.7694C24.3779 12.7367 24.4468 12.6891 24.5045 12.6294L24.817 12.3169C25.2651 11.8678 25.5168 11.2594 25.5168 10.625C25.5168 9.9906 25.2651 9.38213 24.817 8.93311C24.603 8.71859 24.4829 8.42797 24.4829 8.12499C24.4829 7.82201 24.603 7.53139 24.817 7.31686C24.9342 7.19966 25 7.04072 25 6.87499C25 6.70926 24.9342 6.55032 24.817 6.43311Z" fill="white"/>
</svg>
