<svg width="30" height="30" viewBox="0 0 30 30" fill="none" xmlns="http://www.w3.org/2000/svg">
<g clip-path="url(#clip0_937_6444)">
<path d="M9.02239 10.3005C9.26257 10.3341 9.48487 10.1666 9.5185 9.9262C9.7135 8.53308 10.9233 7.48243 12.3327 7.48243H17.6674C19.0767 7.48243 20.2866 8.53302 20.4816 9.9262C20.5123 10.1459 20.7005 10.3048 20.9162 10.3048C20.9365 10.3048 20.957 10.3034 20.9777 10.3005C21.218 10.2669 21.3856 10.0447 21.352 9.80438C21.1046 8.0369 19.6108 6.69048 17.8405 6.60757L18.5772 4.83212C18.6973 4.54272 18.625 4.21958 18.3929 4.00899C18.1608 3.79841 17.8323 3.75757 17.5558 3.90522L16.4706 4.4846L15.7282 2.73646C15.6038 2.44378 15.3181 2.25464 15.0001 2.25464C14.6821 2.25464 14.3963 2.44378 14.272 2.73646L13.5295 4.4846L12.4443 3.90528C12.1679 3.75774 11.8392 3.79853 11.6071 4.00905C11.3751 4.21964 11.3027 4.54272 11.4229 4.83218L12.1596 6.60763C10.3893 6.69048 8.89548 8.03696 8.64809 9.80438C8.61446 10.0447 8.78204 10.2669 9.02239 10.3005ZM15.0001 3.27054L15.692 4.89979C15.2576 5.12685 14.7424 5.12685 14.3081 4.89979L15.0001 3.27054ZM13.8825 5.66937C13.8826 5.66937 13.8826 5.66937 13.8825 5.66937C14.5822 6.0429 15.4178 6.0429 16.1176 5.66937L17.6085 4.87349L16.8906 6.60352H13.1095L12.3916 4.87349L13.8825 5.66937Z" fill="white"/>
<path d="M28.9746 17.0328H27.8954C27.952 16.7303 27.982 16.4184 27.982 16.0997C27.982 13.4497 25.94 11.268 23.347 11.0444V9.99151L23.3806 10.0197C23.7895 10.3624 24.2906 10.5337 24.7919 10.5336C25.293 10.5336 25.7943 10.3623 26.2031 10.0197L26.6905 9.6113C26.857 9.47173 26.9525 9.26712 26.9525 9.04985C26.9525 8.83259 26.857 8.62798 26.6905 8.48853L26.2031 8.08007C25.3853 7.39476 24.1983 7.39476 23.3805 8.08007L23.3469 8.10825V7.60089C23.3469 7.35819 23.1502 7.16144 22.9075 7.16144C22.6648 7.16144 22.468 7.35819 22.468 7.60089V11.0444C19.8749 11.268 17.833 13.4497 17.833 16.0997C17.833 16.4184 17.863 16.7303 17.9196 17.0328H11.5073L12.4721 14.9093C12.6882 14.4336 12.7572 13.9096 12.6715 13.3941C12.5513 12.6715 12.1305 12.0276 11.5171 11.6274C10.9036 11.2271 10.1447 11.1016 9.43494 11.2829L7.80199 11.6998V7.60083C7.80199 7.35813 7.60523 7.16138 7.36254 7.16138C7.11984 7.16138 6.92309 7.35813 6.92309 7.60083V8.10819L6.88945 8.08001C6.07166 7.3947 4.88461 7.3947 4.06687 8.08001L3.57949 8.48847C3.41303 8.62798 3.31752 8.83259 3.31752 9.04979C3.31752 9.26706 3.41297 9.47167 3.57955 9.61124L4.06687 10.0196C4.4758 10.3623 4.97695 10.5336 5.47816 10.5336C5.97938 10.5336 6.48059 10.3622 6.88945 10.0196L6.92309 9.99145V11.6998L5.29014 11.2829C4.58045 11.1016 3.82154 11.2272 3.20801 11.6275C2.59453 12.0276 2.17377 12.6716 2.05359 13.3942C1.96787 13.9097 2.03684 14.4336 2.25299 14.9094L3.21773 17.0329H1.02539C0.46002 17.0329 0 17.4929 0 18.0583V19.9404C0 20.5058 0.46002 20.9658 1.02539 20.9658H1.17891V28.9746C1.17891 29.54 1.63893 30 2.2043 30H27.7957C28.3611 30 28.8211 29.54 28.8211 28.9746V25.3532C28.8211 25.1105 28.6243 24.9137 28.3816 24.9137C28.1389 24.9137 27.9422 25.1105 27.9422 25.3532V28.9746C27.9422 29.0553 27.8764 29.1211 27.7957 29.1211H2.2043C2.12355 29.1211 2.05781 29.0553 2.05781 28.9746V20.9657H7.36254C7.60523 20.9657 7.80199 20.769 7.80199 20.5263C7.80199 20.2836 7.60523 20.0868 7.36254 20.0868H1.02539C0.944648 20.0868 0.878906 20.0211 0.878906 19.9403V18.0582C0.878906 17.9775 0.944648 17.9117 1.02539 17.9117H28.9746C29.0554 17.9117 29.1211 17.9775 29.1211 18.0582V19.9403C29.1211 20.0211 29.0554 20.0868 28.9746 20.0868H9.75703C9.51434 20.0868 9.31758 20.2836 9.31758 20.5263C9.31758 20.769 9.51434 20.9657 9.75703 20.9657H27.9422V22.8276C27.9422 23.0703 28.1389 23.2671 28.3816 23.2671C28.6243 23.2671 28.8211 23.0703 28.8211 22.8276V20.9657H28.9746C29.54 20.9657 30 20.5057 30 19.9403V18.0582C30 17.4929 29.54 17.0328 28.9746 17.0328ZM23.9451 8.75372C24.4358 8.34251 25.1479 8.34251 25.6386 8.75372L25.992 9.04985L25.6386 9.34599C25.148 9.7572 24.4357 9.7572 23.9451 9.34599L23.5917 9.04985L23.9451 8.75372ZM6.3249 9.34599C5.8343 9.7572 5.12203 9.7572 4.63137 9.34599L4.27799 9.04985L4.63143 8.75372C5.12209 8.34251 5.83436 8.34251 6.32496 8.75372L6.6784 9.04985L6.3249 9.34599ZM18.7119 16.0997C18.7119 13.7862 20.5941 11.9041 22.9075 11.9041C25.2209 11.9041 27.103 13.7863 27.103 16.0997C27.103 16.4204 27.0664 16.7326 26.9979 17.0328H18.817C18.7485 16.7326 18.7119 16.4204 18.7119 16.0997ZM3.05314 14.5458C2.90941 14.2295 2.86359 13.8811 2.92061 13.5383C3.00164 13.0508 3.27428 12.6336 3.68818 12.3636C3.97646 12.1756 4.30242 12.079 4.63547 12.079C4.78072 12.079 4.92727 12.0974 5.07264 12.1345L6.7135 12.5535C7.13813 12.662 7.58695 12.662 8.01147 12.5535L9.65232 12.1345C10.1312 12.0124 10.6229 12.0936 11.0368 12.3637C11.4507 12.6337 11.7234 13.0509 11.8045 13.5384C11.8615 13.8812 11.8156 14.2296 11.6719 14.5459L10.542 17.033H4.18307L3.05314 14.5458Z" fill="white"/>
<path d="M12.0188 9.65393C11.7761 9.65393 11.5793 9.85069 11.5793 10.0934C11.5793 10.3361 11.7761 10.5328 12.0188 10.5328H12.4125C12.6552 10.5328 12.852 10.3361 12.852 10.0934C12.852 9.85069 12.6552 9.65393 12.4125 9.65393H12.0188Z" fill="white"/>
<path d="M15.197 9.65393H14.8032C14.5605 9.65393 14.3638 9.85069 14.3638 10.0934C14.3638 10.3361 14.5605 10.5328 14.8032 10.5328H15.197C15.4397 10.5328 15.6364 10.3361 15.6364 10.0934C15.6364 9.85069 15.4397 9.65393 15.197 9.65393Z" fill="white"/>
<path d="M17.5874 9.65393C17.3447 9.65393 17.1479 9.85069 17.1479 10.0934C17.1479 10.3361 17.3447 10.5328 17.5874 10.5328H17.9812C18.2238 10.5328 18.4206 10.3361 18.4206 10.0934C18.4206 9.85069 18.2238 9.65393 17.9812 9.65393H17.5874Z" fill="white"/>
<path d="M15.197 14.6166H14.8032C14.5605 14.6166 14.3638 14.8134 14.3638 15.0561C14.3638 15.2988 14.5605 15.4955 14.8032 15.4955H15.197C15.4397 15.4955 15.6364 15.2988 15.6364 15.0561C15.6364 14.8134 15.4397 14.6166 15.197 14.6166Z" fill="white"/>
<path d="M13.4109 12.2004C13.1682 12.2004 12.9714 12.3971 12.9714 12.6398C12.9714 12.8825 13.1682 13.0793 13.4109 13.0793H13.8046C14.0473 13.0793 14.2441 12.8825 14.2441 12.6398C14.2441 12.3971 14.0473 12.2004 13.8046 12.2004H13.4109Z" fill="white"/>
<path d="M16.1953 12.2004C15.9526 12.2004 15.7559 12.3971 15.7559 12.6398C15.7559 12.8825 15.9526 13.0793 16.1953 13.0793H16.5891C16.8318 13.0793 17.0285 12.8825 17.0285 12.6398C17.0285 12.3971 16.8318 12.2004 16.5891 12.2004H16.1953Z" fill="white"/>
<path d="M13.2524 22.384C12.3126 22.384 11.5481 23.1485 11.5481 24.0883C11.5481 25.0281 12.3126 25.7926 13.2524 25.7926H16.7474C17.6871 25.7926 18.4517 25.0281 18.4517 24.0883C18.4517 23.1485 17.6871 22.384 16.7474 22.384H13.2524ZM17.5728 24.0883C17.5728 24.5434 17.2026 24.9137 16.7474 24.9137H13.2525C12.7973 24.9137 12.4271 24.5434 12.4271 24.0883C12.4271 23.6331 12.7973 23.2629 13.2525 23.2629H16.7474C17.2025 23.2629 17.5728 23.6331 17.5728 24.0883Z" fill="white"/>
<path d="M25.5454 6.01032L25.5599 6.01507C26.0497 6.17673 26.4387 6.56573 26.6006 7.05622L26.6052 7.0704C26.6805 7.29815 26.8921 7.4512 27.132 7.4512C27.3719 7.4512 27.5836 7.29809 27.6588 7.07034L27.6636 7.05563C27.8253 6.56579 28.2143 6.17678 28.7041 6.01512H28.7042L28.7188 6.01026C28.9466 5.93509 29.0996 5.72339 29.0996 5.4835C29.0996 5.24362 28.9466 5.03186 28.719 4.9568L28.7041 4.95188C28.2142 4.79022 27.8252 4.40122 27.6634 3.91073L27.6588 3.89667C27.5836 3.66885 27.3719 3.51581 27.1321 3.51581C26.8921 3.51581 26.6804 3.66891 26.6051 3.89719L26.6004 3.91143C26.4387 4.40128 26.0498 4.79028 25.5596 4.952L25.5452 4.95675C25.3174 5.03192 25.1643 5.24362 25.1643 5.48356C25.1643 5.7235 25.3174 5.93509 25.5454 6.01032ZM27.1319 4.80305C27.3129 5.071 27.5444 5.30245 27.8123 5.48344C27.5444 5.6645 27.3129 5.89594 27.1319 6.16384C26.9509 5.89594 26.7194 5.6645 26.4516 5.48344C26.7194 5.30239 26.9508 5.071 27.1319 4.80305Z" fill="white"/>
<path d="M3.69884 3.87122L3.71308 3.8759C4.20292 4.03756 4.59192 4.42657 4.75306 4.91483L4.75845 4.93112C4.83362 5.15893 5.04526 5.31198 5.28515 5.31198C5.52509 5.31198 5.73679 5.15887 5.81185 4.93129L5.81677 4.91641C5.97837 4.42668 6.36714 4.0378 6.85681 3.87602L6.8721 3.87104C7.09991 3.79581 7.2529 3.58411 7.2529 3.34422C7.2529 3.10434 7.09979 2.8927 6.87228 2.81764L6.85733 2.81272C6.36749 2.65106 5.97849 2.26206 5.81735 1.77379L5.81196 1.75745C5.73679 1.52963 5.52515 1.37659 5.28532 1.37659C5.04538 1.37659 4.83368 1.52969 4.75856 1.75727L4.75364 1.77221C4.59198 2.26206 4.20304 2.65106 3.7129 2.81278L3.69849 2.81758C3.47067 2.89276 3.31763 3.1044 3.31763 3.34428C3.31751 3.58405 3.4705 3.79581 3.69884 3.87122ZM5.2852 2.66389C5.46626 2.93178 5.6977 3.16323 5.96554 3.34422C5.69765 3.52528 5.4662 3.75672 5.2852 4.02456C5.10415 3.75666 4.87276 3.52528 4.60481 3.34422C4.87276 3.16323 5.10421 2.93178 5.2852 2.66389Z" fill="white"/>
<path d="M19.6161 3.23209L19.6373 3.23912C20.407 3.49312 21.0183 4.10443 21.272 4.87354L21.2793 4.89551C21.3615 5.14459 21.593 5.31199 21.8553 5.31199C22.1177 5.31199 22.3492 5.14453 22.4314 4.89545L22.4385 4.87418C22.6925 4.10437 23.3038 3.49312 24.0736 3.23906L24.0949 3.23209C24.3439 3.14982 24.5113 2.91832 24.5113 2.65594C24.5112 2.39355 24.3439 2.16211 24.0947 2.0799L24.0735 2.07287C23.3037 1.81887 22.6925 1.20756 22.4381 0.436406L22.4314 0.416426C22.3492 0.167344 22.1178 0 21.8555 0C21.5931 0 21.3616 0.167402 21.2794 0.416543L21.2723 0.43793C21.0183 1.20762 20.4071 1.81881 19.6374 2.07287L19.616 2.07996C19.3669 2.16217 19.1995 2.39367 19.1995 2.656C19.1994 2.91832 19.3668 3.14982 19.6161 3.23209ZM21.8554 1.29029C22.1715 1.86457 22.6468 2.34 23.2211 2.656C22.6469 2.97205 22.1714 3.44748 21.8554 4.0217C21.5394 3.44748 21.0639 2.97199 20.4897 2.656C21.0639 2.34 21.5394 1.86451 21.8554 1.29029Z" fill="white"/>
</g>
<defs>
<clipPath id="clip0_937_6444">
<rect width="30" height="30" fill="white"/>
</clipPath>
</defs>
</svg>
