<svg width="36" height="36" viewBox="0 0 36 36" fill="none" xmlns="http://www.w3.org/2000/svg">
<path d="M26.0509 15.6947V8.11317C26.0509 7.78182 25.7822 7.51317 25.4509 7.51317C23.7968 7.51317 22.4509 6.16757 22.4509 4.51376C22.4509 4.18241 22.1822 3.91376 21.8509 3.91376H7.79951C7.46816 3.91376 7.19951 4.18241 7.19951 4.51376C7.19951 6.16757 5.85391 7.51317 4.2001 7.51317C3.86875 7.51317 3.6001 7.78182 3.6001 8.11317V19.2249C3.6001 25.4153 14.1317 30.2045 14.5803 30.4052C14.6582 30.44 14.7417 30.4576 14.8255 30.4576C14.909 30.4576 14.9922 30.4403 15.0701 30.4055C15.1193 30.3834 16.1946 29.8992 17.6641 29.0546C19.191 30.9049 21.501 32.0862 24.0818 32.0862C28.6686 32.0862 32.4001 28.3547 32.4001 23.7677C32.4001 19.8603 29.6886 16.5826 26.0509 15.6947ZM14.8264 29.1955C13.2672 28.4502 4.8001 24.1723 4.8001 19.2249V8.6704C6.63643 8.40673 8.09307 6.95009 8.35674 5.11376H21.2937C21.5576 6.95009 23.0143 8.40673 24.8509 8.6704V15.4884C24.5973 15.465 24.3414 15.4494 24.0818 15.4494C19.4948 15.4494 15.7633 19.1809 15.7633 23.7677C15.7633 25.3424 16.2112 26.811 16.9744 28.0677C15.9998 28.6234 15.2068 29.0148 14.8264 29.1955ZM24.0818 30.8862C20.1566 30.8862 16.9633 27.6929 16.9633 23.7677C16.9633 19.8428 20.1566 16.6494 24.0818 16.6494C28.0067 16.6494 31.2001 19.8428 31.2001 23.7677C31.2001 27.6929 28.0067 30.8862 24.0818 30.8862Z" fill="white"/>
<path d="M24.0815 20.7486C24.7483 20.7486 25.2909 21.2912 25.2909 21.9583C25.2909 22.2896 25.5596 22.5583 25.8909 22.5583C26.2223 22.5583 26.4909 22.2896 26.4909 21.9583C26.4909 20.838 25.719 19.902 24.6815 19.6334V19.2167C24.6815 18.8854 24.4129 18.6167 24.0815 18.6167C23.7502 18.6167 23.4815 18.8854 23.4815 19.2167V19.6334C22.444 19.902 21.6719 20.838 21.6719 21.9583C21.6719 23.2869 22.7529 24.3677 24.0815 24.3677C24.7483 24.3677 25.2909 24.9103 25.2909 25.5773C25.2909 26.2444 24.7483 26.787 24.0815 26.787C23.4145 26.787 22.8719 26.2444 22.8719 25.5773C22.8719 25.246 22.6032 24.9773 22.2719 24.9773C21.9405 24.9773 21.6719 25.246 21.6719 25.5773C21.6719 26.6976 22.444 27.6336 23.4815 27.9022V28.3187C23.4815 28.65 23.7502 28.9187 24.0815 28.9187C24.4129 28.9187 24.6815 28.65 24.6815 28.3187V27.9022C25.719 27.6336 26.4909 26.6976 26.4909 25.5773C26.4909 24.2487 25.4102 23.1677 24.0815 23.1677C23.4145 23.1677 22.8719 22.6251 22.8719 21.9583C22.8719 21.2912 23.4145 20.7486 24.0815 20.7486Z" fill="white"/>
<path d="M17.7975 13.6857C17.5631 13.4514 17.1834 13.4514 16.949 13.6857L12.9664 17.6686L11.1951 15.8974C10.9607 15.663 10.5811 15.663 10.3467 15.8974C10.1123 16.1317 10.1123 16.5114 10.3467 16.7458L12.5422 18.9413C12.6547 19.0538 12.8073 19.1171 12.9664 19.1171C13.1255 19.1171 13.2781 19.0538 13.3906 18.9413L17.7975 14.5342C18.0318 14.2998 18.0318 13.9201 17.7975 13.6857Z" fill="white"/>
</svg>
