<svg width="36" height="36" viewBox="0 0 36 36" fill="none" xmlns="http://www.w3.org/2000/svg">
<path d="M22.227 25.6967C21.2392 25.7033 20.2595 25.5186 19.342 25.1527C19.2734 25.1251 19.211 25.0843 19.1582 25.0325C19.1055 24.9807 19.0634 24.9191 19.0345 24.8511C19.0055 24.7831 18.9903 24.71 18.9896 24.6361C18.9889 24.5622 19.0027 24.4889 19.0303 24.4204C19.058 24.3518 19.0988 24.2894 19.1506 24.2366C19.2023 24.1839 19.264 24.1418 19.332 24.1129C19.4 24.0839 19.473 24.0687 19.5469 24.068C19.6209 24.0673 19.6942 24.0811 19.7627 24.1087C21.8642 24.957 24.4315 24.6347 27.3835 23.1525C33.5625 20.0492 33.8494 11.0137 33.7234 7.58925C32.9263 8.12418 31.5268 8.56575 29.0867 8.29012C26.4092 7.98412 19.6817 9.65193 16.908 13.7841C15.3392 16.1212 15.3797 18.8331 17.0278 21.8436C17.1482 22.0476 17.2861 22.2407 17.4402 22.4207C17.4874 22.4774 17.5231 22.543 17.545 22.6135C17.567 22.684 17.5748 22.7582 17.5681 22.8318C17.5614 22.9054 17.5403 22.9769 17.5059 23.0423C17.4715 23.1077 17.4246 23.1657 17.3679 23.213C17.3111 23.2602 17.2456 23.2959 17.175 23.3178C17.1045 23.3398 17.0303 23.3476 16.9568 23.3409C16.8832 23.3342 16.8117 23.3131 16.7463 23.2787C16.6809 23.2443 16.6229 23.1974 16.5756 23.1407C16.3734 22.9046 16.1939 22.65 16.0395 22.3802C14.2013 19.0232 14.1777 15.8332 15.9737 13.1552C19.0393 8.58937 26.2197 6.83156 29.2133 7.16962C33.0889 7.60893 33.6458 6.06937 33.6503 6.05418C33.6827 5.92647 33.7584 5.81393 33.8644 5.73569C33.9705 5.65745 34.1003 5.61834 34.2319 5.625C34.3636 5.63337 34.4881 5.68776 34.5837 5.77866C34.6794 5.86956 34.74 5.99117 34.755 6.12225C34.8197 6.68475 36.2395 19.9597 27.8886 24.1537C26.1469 25.1009 24.2085 25.6292 22.227 25.6967Z" fill="white"/>
<path d="M12.9374 29.8125C12.8391 29.8124 12.7425 29.7865 12.6573 29.7375C12.5721 29.6884 12.5013 29.6179 12.4518 29.533C12.4024 29.448 12.3761 29.3516 12.3755 29.2533C12.3749 29.155 12.4001 29.0582 12.4486 28.9727C16.1805 22.4341 21.2754 16.7748 27.3875 12.3789C27.5125 12.3 27.6635 12.2734 27.808 12.305C27.9524 12.3365 28.0786 12.4237 28.1593 12.5476C28.24 12.6715 28.2686 12.8222 28.239 12.9671C28.2094 13.112 28.124 13.2393 28.0012 13.3217C22.0387 17.6177 17.0685 23.1442 13.4268 29.5273C13.3777 29.6139 13.3066 29.6859 13.2206 29.736C13.1346 29.7861 13.0369 29.8125 12.9374 29.8125Z" fill="white"/>
<path d="M8.04869 24.4339C6.9645 24.3987 5.90345 24.1112 4.94987 23.5941C0.389122 21.3041 1.15468 14.1401 1.18956 13.8375C1.20477 13.7066 1.26546 13.5852 1.36105 13.4944C1.45663 13.4037 1.58105 13.3494 1.71257 13.341C1.8441 13.3327 1.97439 13.3707 2.08071 13.4486C2.18703 13.5265 2.26263 13.6393 2.29431 13.7672C2.29937 13.7672 2.59918 14.3511 4.34125 14.1536C5.9725 13.9714 9.88806 14.9288 11.5604 17.4201C12.2607 18.4635 12.8254 20.2011 11.5373 22.5534C11.4481 22.7094 11.3445 22.8566 11.2279 22.9933C11.1811 23.0513 11.1233 23.0994 11.0577 23.1349C10.9922 23.1703 10.9203 23.1924 10.8461 23.1998C10.772 23.2072 10.6971 23.1998 10.6258 23.178C10.5546 23.1563 10.4883 23.1206 10.431 23.073C10.3736 23.0254 10.3263 22.9669 10.2918 22.9009C10.2572 22.8348 10.2361 22.7626 10.2297 22.6884C10.2234 22.6141 10.2318 22.5393 10.2545 22.4684C10.2773 22.3974 10.3139 22.3317 10.3622 22.275C10.4322 22.1928 10.4953 22.1049 10.5507 22.0123C11.3669 20.5223 11.3944 19.188 10.6266 18.0473C9.28225 16.0453 5.8735 15.1048 4.46725 15.2719C3.72432 15.3903 2.96362 15.3227 2.25325 15.075C2.23468 17.0595 2.566 21.1365 5.45387 22.5872C6.93887 23.3336 8.21462 23.4996 9.24512 23.0833C9.38318 23.0286 9.5373 23.0306 9.67384 23.0891C9.81038 23.1475 9.91827 23.2576 9.97397 23.3952C10.0297 23.5329 10.0287 23.6871 9.97114 23.824C9.91364 23.9609 9.8043 24.0696 9.667 24.1262C9.15261 24.3327 8.60297 24.4372 8.04869 24.4339Z" fill="white"/>
<path d="M12.9376 26.6001C12.838 26.6002 12.7401 26.5738 12.6541 26.5237C12.568 26.4736 12.4968 26.4015 12.4476 26.3149C10.5543 22.9906 7.96742 20.1129 4.8629 17.8774C4.73788 17.7959 4.65035 17.6681 4.61954 17.5221C4.58874 17.3761 4.6172 17.2239 4.69865 17.0989C4.7801 16.9738 4.90789 16.8863 5.05388 16.8555C5.19988 16.8247 5.35213 16.8532 5.47715 16.9346C8.7413 19.2599 11.4551 22.2735 13.427 25.7625C13.4749 25.848 13.4997 25.9445 13.4988 26.0426C13.4979 26.1406 13.4714 26.2367 13.422 26.3213C13.3725 26.406 13.3018 26.4762 13.2168 26.5251C13.1319 26.574 13.0356 26.5998 12.9376 26.6001Z" fill="white"/>
</svg>
