<svg width="64" height="64" viewBox="0 0 64 64" fill="none" xmlns="http://www.w3.org/2000/svg">
<path d="M31.9999 42.7535C41.7674 42.7535 49.7149 34.8073 49.7149 25.0385C49.7149 15.271 41.7687 7.32351 31.9999 7.32351C22.2324 7.32351 14.2849 15.2698 14.2849 25.0385C14.2849 34.806 22.2324 42.7535 31.9999 42.7535ZM31.9999 8.82351C40.9412 8.82351 48.2149 16.0973 48.2149 25.0385C48.2149 33.9798 40.9412 41.2535 31.9999 41.2535C23.0587 41.2535 15.7849 33.9798 15.7849 25.0385C15.7849 16.0973 23.0587 8.82351 31.9999 8.82351ZM48.5837 42.0748C53.0249 37.751 55.7887 31.711 55.7887 25.0385C55.7887 11.921 45.1174 1.24976 31.9999 1.24976C18.8824 1.24976 8.21118 11.921 8.21118 25.0385C8.21118 31.7123 10.9749 37.751 15.4162 42.0748L10.2624 55.9948C10.1762 56.2285 10.2112 56.4898 10.3562 56.6923C10.5012 56.8948 10.7387 57.0098 10.9862 57.0048L19.5987 56.766L25.9799 62.556C26.1199 62.6823 26.2999 62.751 26.4837 62.751C26.5424 62.751 26.6024 62.7435 26.6612 62.7298C26.9037 62.671 27.0999 62.4948 27.1862 62.261L31.9999 49.2623L36.8124 62.2598C36.8987 62.4935 37.0962 62.6685 37.3374 62.7285C37.3962 62.7435 37.4562 62.7498 37.5149 62.7498C37.6987 62.7498 37.8799 62.6823 38.0187 62.5548L44.3999 56.7648L53.0124 57.0035C53.2612 57.0073 53.4974 56.8935 53.6424 56.691C53.7874 56.4885 53.8224 56.2273 53.7362 55.9935L48.5837 42.0748ZM9.71118 25.0385C9.71118 12.7485 19.7099 2.74976 31.9999 2.74976C44.2899 2.74976 54.2887 12.7485 54.2887 25.0385C54.2887 37.3285 44.2899 47.3273 31.9999 47.3273C19.7099 47.3273 9.71118 37.3285 9.71118 25.0385ZM26.1662 60.6985L20.3837 55.4523C20.2399 55.3223 20.0524 55.2548 19.8587 55.2585L12.0537 55.4748L16.6112 43.1648C20.4237 46.4073 25.2687 48.4698 30.5762 48.7835L26.1662 60.6985ZM44.1399 55.2585C43.9462 55.2548 43.7587 55.3223 43.6149 55.4523L37.8324 60.6985L33.4212 48.7835C38.7287 48.4685 43.5737 46.406 47.3862 43.1648L51.9437 55.4748L44.1399 55.2585ZM24.3887 35.4385C24.3049 35.7398 24.4174 36.061 24.6712 36.2448C24.9237 36.4285 25.2649 36.436 25.5249 36.2635L31.9999 31.986L38.4749 36.2635C38.5999 36.346 38.7449 36.3873 38.8887 36.3873C39.0437 36.3873 39.1987 36.3398 39.3299 36.2435C39.5824 36.0598 39.6949 35.7385 39.6124 35.4373L37.5449 27.9573L43.6137 23.121C43.8587 22.926 43.9562 22.5998 43.8599 22.3023C43.7637 22.0048 43.4924 21.7985 43.1799 21.7848L35.4274 21.4398L32.7037 14.1735C32.5937 13.881 32.3137 13.6873 32.0012 13.6873C31.6887 13.6873 31.4087 13.881 31.2987 14.1735L28.5749 21.4398L20.8224 21.7848C20.5099 21.7985 20.2387 22.0048 20.1424 22.3023C20.0462 22.5998 20.1437 22.926 20.3887 23.121L26.4574 27.9573L24.3887 35.4385ZM22.8862 23.196L29.1349 22.9173C29.4349 22.9035 29.6987 22.7123 29.8037 22.431L31.9999 16.5748L34.1949 22.4323C34.2999 22.7135 34.5637 22.9048 34.8637 22.9185L41.1124 23.1973L36.2199 27.0948C35.9849 27.2823 35.8849 27.591 35.9649 27.881L37.6312 33.9098L32.4124 30.4623C32.1612 30.296 31.8362 30.296 31.5849 30.4623L26.3662 33.9098L28.0324 27.881C28.1124 27.591 28.0124 27.2823 27.7774 27.0948L22.8862 23.196Z" fill="white"/>
</svg>
