<svg width="64" height="64" viewBox="0 0 64 64" fill="none" xmlns="http://www.w3.org/2000/svg">
<g clip-path="url(#clip0_942_260)">
<path d="M43.6077 12.274C43.288 11.5878 42.2934 11.5583 41.9333 12.2236C41.9178 12.2522 40.3484 15.118 37.3068 17.7891C36.396 18.589 37.6334 19.9978 38.544 19.198C40.4038 17.5646 41.7483 15.8762 42.5785 14.6933C43.3134 16.611 44.4692 20.0467 45.0842 24.0455C45.6322 27.6085 45.6497 30.9152 45.1363 33.8737C44.5034 37.5212 43.0538 40.65 40.8279 43.1732C38.7103 45.5737 35.8045 47.125 32.6458 47.5415C29.4314 47.9656 26.1003 47.1832 23.2664 45.3392C22.5503 44.8732 21.907 44.3481 21.3409 43.7738C22.1188 42.7696 23.0249 41.8438 24.0469 40.9905C26.7552 38.7293 29.8818 37.0315 32.6774 34.8853C34.3725 33.584 35.9478 32.1482 37.2622 30.4563C37.575 30.0536 37.6475 29.5243 37.2622 29.1306C36.942 28.8033 36.2464 28.7313 35.9363 29.1306C31.6485 34.6502 24.5379 36.9633 20.1075 42.2646C19.2693 41.0107 18.7383 39.5998 18.558 38.0956C18.2038 35.138 19.2717 32.0922 21.4882 29.7392C23.745 27.3432 26.3172 26.1228 29.2954 24.7098C30.8788 23.9586 32.5159 23.1818 34.3328 22.1426C35.385 21.5407 34.4539 19.913 33.4019 20.515C31.6474 21.5185 30.0432 22.2796 28.4918 23.0157C25.3423 24.5101 22.6223 25.8005 20.1233 28.4535C17.5249 31.2121 16.2758 34.8077 16.6963 38.3185C16.9392 40.3462 17.7088 42.2268 18.9318 43.8505C17.8027 45.5921 17.0529 47.5601 16.6462 49.5935C16.4105 50.7718 18.2173 51.276 18.4542 50.092C18.8013 48.3567 19.4159 46.7811 20.2665 45.3491C20.8607 45.9171 21.5207 46.4403 22.2438 46.9108C24.9387 48.6645 27.9482 49.5185 30.9082 49.5183C35.1403 49.5183 39.2709 47.7723 42.2339 44.4137C44.6979 41.6206 46.2974 38.1735 46.988 34.1682C47.5339 31.0025 47.5143 27.4851 46.9299 23.7135C45.9415 17.3325 43.7025 12.4775 43.6077 12.274Z" fill="white"/>
<path d="M54.6275 9.37226C48.5834 3.32838 40.5475 -0.000244141 32 -0.000244141C23.4525 -0.000244141 15.4166 3.32838 9.3725 9.37226C3.32863 15.4164 0 23.4523 0 31.9998C0 40.5473 3.32863 48.5831 9.3725 54.6273C15.4166 60.6711 23.4525 63.9998 32 63.9998C36.6851 63.9998 41.203 63.0079 45.428 61.0519C46.528 60.5426 45.7402 58.8411 44.6403 59.3504C40.664 61.1914 36.4111 62.1248 32 62.1248C23.9533 62.1248 16.3883 58.9913 10.6984 53.3014C5.0085 47.6115 1.875 40.0465 1.875 31.9998C1.875 23.953 5.0085 16.388 10.6984 10.6981C16.3883 5.00826 23.9533 1.87476 32 1.87476C40.0467 1.87476 47.6117 5.00826 53.3016 10.6981C58.9915 16.388 62.125 23.953 62.125 31.9998C62.125 42.049 57.1389 51.4011 48.7871 57.0169C47.7812 57.6933 48.8275 59.2493 49.8334 58.5728C58.704 52.6083 64 42.6743 64 31.9998C64 23.4523 60.6714 15.4164 54.6275 9.37226Z" fill="white"/>
</g>
<defs>
<clipPath id="clip0_942_260">
<rect width="64" height="64" fill="white" transform="translate(0 -0.000244141)"/>
</clipPath>
</defs>
</svg>
