<svg width="64" height="64" viewBox="0 0 64 64" fill="none" xmlns="http://www.w3.org/2000/svg">
<g clip-path="url(#clip0_943_282)">
<path d="M10.51 38.7948L13.4313 43.706L19.0138 44.9685C19.5638 45.0923 19.795 45.766 19.3975 46.206L15.635 50.496L16.16 56.1985C16.2113 56.766 15.6275 57.1698 15.1213 56.9523L15.12 56.9535L9.86003 54.6935L4.60003 56.9535C4.10003 57.1685 3.48003 56.7923 3.56628 56.1398L4.08503 50.496L0.308782 46.1898C-0.0699684 45.7585 0.166282 45.0898 0.707532 44.9685L6.28878 43.706L9.21503 38.786C9.51128 38.2873 10.2288 38.3035 10.51 38.7948ZM54.7888 38.7948L57.71 43.706L63.2925 44.9685C63.8438 45.0923 64.0738 45.766 63.6775 46.206L59.915 50.496L60.4388 56.1985C60.4913 56.766 59.9075 57.1698 59.4 56.9523L59.3988 56.9535L54.14 54.6935L48.88 56.9535C48.3788 57.1685 47.76 56.7923 47.845 56.1398L48.3638 50.496L44.5875 46.1898C44.21 45.7585 44.445 45.0898 44.9863 44.9685L50.5688 43.706L53.495 38.786C53.7913 38.2873 54.5088 38.3035 54.7888 38.7948ZM56.5863 44.7448L54.14 40.631L51.6925 44.7448C51.5913 44.916 51.4213 45.046 51.2125 45.0935L46.5413 46.1498L49.7 49.7523C49.83 49.8998 49.9013 50.0998 49.8813 50.311L49.4438 55.081L53.8438 53.1898C54.0263 53.111 54.2388 53.1048 54.435 53.1898L58.8363 55.081L58.3988 50.331C58.375 50.1285 58.4338 49.9173 58.5788 49.7523L61.7375 46.1498L57.1025 45.101C56.8938 45.0648 56.7025 44.941 56.5863 44.7448ZM32.6488 45.7785L35.5713 50.691L41.1525 51.9535C41.7038 52.0773 41.9338 52.751 41.5375 53.191L37.775 57.4798L38.3 63.1823C38.3513 63.751 37.7675 64.1548 37.26 63.936V63.9385L32 61.6785L26.74 63.9385C26.2388 64.1535 25.62 63.776 25.705 63.1248L26.225 57.4798L22.4475 53.1748C22.07 52.7435 22.3063 52.0735 22.8463 51.9535L28.4288 50.6898L31.355 45.771C31.6513 45.271 32.3688 45.2885 32.6488 45.7785ZM34.4463 51.7298L32 47.616L29.5525 51.7298V51.7285C29.4513 51.8998 29.2813 52.031 29.0725 52.0773L24.4013 53.1348L27.56 56.736C27.69 56.8848 27.7613 57.0835 27.7425 57.296L27.3038 62.0648L31.7038 60.1748C31.8863 60.096 32.0988 60.0898 32.295 60.1735L36.6963 62.0648L36.2588 57.3148C36.235 57.1123 36.2938 56.901 36.4388 56.736L39.5988 53.1348L34.9625 52.086C34.7538 52.0498 34.5625 51.926 34.4463 51.7298ZM15.7575 34.6785C23.6013 21.9685 40.3988 21.9685 48.2425 34.6785C58.6913 21.2423 49.1063 1.49976 32 1.49976C14.895 1.49976 5.30753 21.2423 15.7575 34.6785ZM47.2238 35.8898C40.0175 23.561 23.9825 23.561 16.7763 35.8898C24.9388 44.8735 39.0613 44.8735 47.2238 35.8898ZM32 6.17101C39.2775 6.17101 42.9438 15.011 37.795 20.161C32.645 25.311 23.805 21.6435 23.805 14.366C23.805 9.83976 27.4738 6.17101 32 6.17101ZM36.7338 9.63226C32.5275 5.42601 25.305 8.41976 25.305 14.366C25.305 20.3123 32.5275 23.3073 36.7338 19.0998C39.3488 16.486 39.3488 12.246 36.7338 9.63226ZM32 -0.000244141C44.1863 -0.000244141 54.065 9.87851 54.065 22.0648C54.065 34.2498 44.1863 44.1285 32 44.1285C19.8138 44.1285 9.93503 34.2498 9.93503 22.0648C9.93503 9.87851 19.8138 -0.000244141 32 -0.000244141ZM12.3075 44.7448L9.86003 40.631L7.41378 44.7448H7.41253C7.31128 44.916 7.14253 45.046 6.93253 45.0935L2.26128 46.1498L5.42128 49.7523H5.42003C5.55003 49.8998 5.62128 50.0998 5.60253 50.311L5.16378 55.081L9.56378 53.1898C9.74628 53.111 9.95878 53.1048 10.1563 53.1898L14.5563 55.081L14.12 50.331C14.0963 50.1285 14.155 49.9173 14.3 49.7523L17.4588 46.1498L12.8225 45.101C12.615 45.0648 12.4225 44.941 12.3075 44.7448Z" fill="white"/>
</g>
<defs>
<clipPath id="clip0_943_282">
<rect width="64" height="64" fill="white" transform="translate(0 -0.000244141)"/>
</clipPath>
</defs>
</svg>
