<svg width="64" height="64" viewBox="0 0 64 64" fill="none" xmlns="http://www.w3.org/2000/svg">
<path d="M19.7963 42.671V43.8073C19.7963 45.3185 20.9475 46.5473 22.3625 46.5473H41.64C43.055 46.5473 44.2063 45.3173 44.2063 43.8073V42.671C44.2063 41.626 44.06 40.6173 43.7913 39.6685H54.7013C55.86 39.6685 56.8025 38.6673 56.8025 37.4373V36.5923C56.8025 32.5673 53.9713 29.2473 50.3575 28.8573C51.0575 28.3385 51.6325 27.6073 52.0475 26.676C53.145 24.2173 52.8613 20.906 51.415 19.2948C50.3963 18.1585 49.1613 17.6298 47.53 17.6298C45.8938 17.6298 44.6575 18.1585 43.6375 19.2948C42.1913 20.906 41.9075 24.2173 43.005 26.676C43.4213 27.6085 43.9963 28.341 44.6988 28.8598C42.1438 29.141 39.8925 30.9235 38.8563 33.4698C37.685 32.8635 36.38 32.5148 35.0038 32.491C36.2088 31.8273 37.1788 30.7285 37.84 29.246C39.2763 26.0273 38.915 21.7023 37.0338 19.6048C35.7163 18.1373 34.1188 17.4535 32.0063 17.4535C29.8863 17.4535 28.2863 18.1373 26.9688 19.6048C25.0875 21.7023 24.7263 26.026 26.1625 29.2448C26.825 30.7285 27.795 31.826 29 32.4898C27.6238 32.5148 26.3188 32.8623 25.1475 33.4685C24.1113 30.9223 21.86 29.1398 19.305 28.8585C20.0063 28.3398 20.5813 27.6073 20.9975 26.676C22.095 24.2173 21.8113 20.906 20.365 19.2948C19.3463 18.1585 18.1113 17.6298 16.48 17.6298C14.8438 17.6298 13.6075 18.1585 12.5888 19.2948C11.1425 20.906 10.8588 24.2173 11.9563 26.676C12.3713 27.6073 12.9463 28.3385 13.6475 28.8573C10.0338 29.246 7.20251 32.566 7.20251 36.5923V37.4373C7.20251 38.6673 8.14501 39.6685 9.30376 39.6685H20.2138C19.9413 40.6173 19.7963 41.626 19.7963 42.671ZM42.705 43.8073C42.705 44.491 42.2275 45.0473 41.6388 45.0473H22.3613C21.7738 45.0473 21.295 44.491 21.295 43.8073V42.671C21.295 37.881 24.82 33.9848 29.1525 33.9848H34.845C39.1775 33.9848 42.7025 37.881 42.7025 42.671V43.8073H42.705ZM44.7525 20.296C45.4863 19.4785 46.3163 19.1298 47.5275 19.1298C48.7338 19.1298 49.5625 19.4785 50.2963 20.296C51.3475 21.4673 51.5238 24.1623 50.675 26.0648C50.2288 27.0648 49.32 28.2573 47.525 28.2573C45.7288 28.2573 44.82 27.0648 44.3725 26.0648C43.525 24.1623 43.7025 21.4673 44.7525 20.296ZM45.4063 30.3173H49.6438C52.7625 30.3173 55.3013 33.131 55.3013 36.591V37.436C55.3013 37.8323 55.0263 38.1673 54.7 38.1673H43.2375C42.5263 36.6035 41.4575 35.266 40.1475 34.2823C40.9963 31.9248 43.095 30.3173 45.4063 30.3173ZM27.5313 28.6323C26.355 25.996 26.6138 22.2448 28.085 20.606C29.125 19.4473 30.2975 18.9523 32.005 18.9523C33.6838 18.9523 34.89 19.4623 35.9163 20.606C37.3875 22.246 37.6463 25.9973 36.4688 28.6335C35.8375 30.0473 34.5513 31.7323 32.0013 31.7323C29.45 31.731 28.1625 30.046 27.5313 28.6323ZM13.7038 20.296C14.4375 19.4785 15.2675 19.1298 16.4788 19.1298C17.685 19.1298 18.5138 19.4785 19.2475 20.296C20.2988 21.4673 20.475 24.1623 19.6263 26.0648C19.18 27.0648 18.2713 28.2573 16.4763 28.2573C14.68 28.2573 13.7713 27.0648 13.3238 26.0648C12.4763 24.1623 12.6525 21.4673 13.7038 20.296ZM9.30126 38.1685C8.97501 38.1685 8.70001 37.8335 8.70001 37.4373V36.5923C8.70001 33.1335 11.2375 30.3185 14.3575 30.3185H18.595C20.9063 30.3185 23.005 31.9248 23.8538 34.2835C22.5438 35.2673 21.475 36.6048 20.7638 38.1685H9.30126ZM8.37501 49.2523C8.62001 49.586 8.54751 50.056 8.21251 50.301C8.07876 50.3985 7.92376 50.446 7.77001 50.446C7.53876 50.446 7.31126 50.3398 7.16376 50.1385C2.87501 44.2798 0.802511 37.0435 1.33126 29.7623C1.86501 22.406 5.03501 15.4785 10.2563 10.256C16.0513 4.46226 23.755 1.26351 31.95 1.24976H32.0013C39.6213 1.24976 46.8238 4.00601 52.4638 9.04726V3.78976C52.4638 3.37601 52.8 3.03976 53.2138 3.03976C53.6275 3.03976 53.9638 3.37601 53.9638 3.78976V10.7873C53.9638 11.201 53.6275 11.5373 53.2138 11.5373H46.2163C45.8025 11.5373 45.4663 11.201 45.4663 10.7873C45.4663 10.3735 45.8025 10.0373 46.2163 10.0373H51.3163C39.845 -0.0614939 22.2625 0.372256 11.3175 11.3173C1.20751 21.4273 -0.0574884 37.736 8.37501 49.2523ZM62.6688 34.2373C62.135 41.5935 58.965 48.521 53.7438 53.7435C47.96 59.5273 40.2713 62.7248 32.0938 62.7498C32.0625 62.7498 32.03 62.7498 31.9988 62.7498C24.3813 62.7498 17.1788 59.9948 11.5375 54.9535V60.211C11.5375 60.6248 11.2013 60.961 10.7875 60.961C10.3738 60.961 10.0375 60.6248 10.0375 60.211V53.2135C10.0375 52.7998 10.3738 52.4635 10.7875 52.4635H17.785C18.1988 52.4635 18.535 52.7998 18.535 53.2135C18.535 53.6273 18.1988 53.9635 17.785 53.9635H12.685C18.1825 58.8023 25.0913 61.221 31.9988 61.2223C39.4975 61.2223 46.9938 58.3748 52.6838 52.6835C62.7938 42.5735 64.0588 26.2648 55.6263 14.7485C55.3813 14.4148 55.4538 13.9448 55.7888 13.6998C56.1225 13.4548 56.5925 13.5273 56.8375 13.8623C61.125 19.7198 63.1975 26.956 62.6688 34.2373Z" fill="white"/>
</svg>
