<svg width="61" height="61" viewBox="0 0 61 61" fill="none" xmlns="http://www.w3.org/2000/svg">
<path d="M58.4588 14.9875L52.9017 10.0181V8.25924C52.8976 5.09944 50.3336 2.53947 47.1738 2.54151H13.8271C10.6673 2.53947 8.10329 5.09944 8.09922 8.25924V10.0181L2.53602 14.9916C1.24689 16.1445 0.510822 17.7915 0.508789 19.5198V52.7404C0.512856 55.8962 3.07079 58.4541 6.22652 58.4582H54.7744C57.9301 58.4541 60.4881 55.8962 60.4921 52.7404V19.5198C60.4901 17.7895 59.75 16.1404 58.4588 14.9875ZM54.7744 55.4082H6.22652C4.75439 55.4061 3.56082 54.2126 3.55879 52.7404V19.5198C3.42052 17.4824 6.44409 15.8151 8.09922 14.1091V25.0566C8.11752 27.0472 11.133 27.0533 11.1492 25.0566V8.25924C11.1492 6.78304 12.3509 5.58744 13.8271 5.59151H47.1738C48.648 5.59354 49.8415 6.78507 49.8436 8.25924V25.0566C49.8395 27.0432 52.8915 27.0554 52.8936 25.0566V14.1091C54.5304 15.7948 57.5906 17.5109 57.4401 19.5239V52.7404C57.4381 54.2126 56.2465 55.4061 54.7744 55.4082Z" fill="#FF9C00"/>
<path d="M52.7367 30.8456C52.3605 30.0892 51.4354 29.7862 50.6851 30.1705L32.8507 39.2432C31.3643 39.9854 29.6157 39.9854 28.1313 39.2432L10.3153 30.1705C8.57065 29.2311 7.10665 31.8988 8.86752 32.8545C8.84312 32.8891 17.7634 37.3461 17.7674 37.3827L8.43645 49.0032C7.27339 50.5486 9.54665 52.3928 10.8134 50.9125L20.5368 38.7959L26.7405 41.9516C29.0972 43.1289 31.8706 43.1289 34.2273 41.9516L40.433 38.7979L50.1788 50.9125C51.4191 52.4579 53.8083 50.5648 52.5557 49.0012L43.2126 37.3848L52.0576 32.8891C52.8099 32.5129 53.1149 31.5979 52.7367 30.8456Z" fill="#FF9C00"/>
<path d="M23.8576 14.758H37.1434C39.134 14.7499 39.1401 11.7161 37.1434 11.708H23.8576C21.8669 11.7161 21.8608 14.7499 23.8576 14.758Z" fill="#FF9C00"/>
<path d="M17.2169 22.3483H43.7845C45.7711 22.3402 45.7853 19.3065 43.7845 19.2983H17.2169C15.2304 19.3065 15.2161 22.3402 17.2169 22.3483Z" fill="#FF9C00"/>
</svg>
