<svg width="61" height="57" viewBox="0 0 61 57" fill="none" xmlns="http://www.w3.org/2000/svg">
<path d="M58.4588 12.9878L52.9017 8.01832V6.25948C52.8976 3.09968 50.3336 0.539716 47.1738 0.541749H13.8271C10.6673 0.539716 8.10329 3.09968 8.09922 6.25948V8.01832L2.53602 12.9918C1.24689 14.1447 0.510822 15.7918 0.508789 17.5201V50.7407C0.512856 53.8964 3.07079 56.4543 6.22652 56.4584H54.7744C57.9301 56.4543 60.4881 53.8964 60.4921 50.7407V17.5201C60.4901 15.7897 59.75 14.1407 58.4588 12.9878ZM54.7744 53.4084H6.22652C4.75439 53.4064 3.56082 52.2128 3.55879 50.7407V17.5201C3.42052 15.4827 6.44409 13.8153 8.09922 12.1094V23.0569C8.11752 25.0475 11.133 25.0536 11.1492 23.0569V6.25948C11.1492 4.78328 12.3509 3.58768 13.8271 3.59175H47.1738C48.648 3.59378 49.8415 4.78532 49.8436 6.25948V23.0569C49.8395 25.0434 52.8915 25.0556 52.8936 23.0569V12.1094C54.5304 13.795 57.5906 15.5112 57.4401 17.5242V50.7407C57.4381 52.2128 56.2465 53.4064 54.7744 53.4084Z" fill="#017D03"/>
<path d="M52.7367 28.8458C52.3605 28.0894 51.4354 27.7864 50.6851 28.1707L32.8507 37.2435C31.3643 37.9856 29.6157 37.9856 28.1313 37.2435L10.3153 28.1707C8.57065 27.2313 7.10665 29.8991 8.86752 30.8547C8.84312 30.8893 17.7634 35.3464 17.7674 35.383L8.43645 47.0035C7.27339 48.5488 9.54665 50.393 10.8134 48.9128L20.5368 36.7961L26.7405 39.9519C29.0972 41.1292 31.8706 41.1292 34.2273 39.9519L40.433 36.7982L50.1788 48.9128C51.4191 50.4581 53.8083 48.5651 52.5557 47.0014L43.2126 35.385L52.0576 30.8893C52.8099 30.5131 53.1149 29.5981 52.7367 28.8458Z" fill="#017D03"/>
<path d="M23.8576 12.758H37.1434C39.134 12.7499 39.1401 9.71614 37.1434 9.70801H23.8576C21.8669 9.71614 21.8608 12.7499 23.8576 12.758Z" fill="#017D03"/>
<path d="M17.2169 20.3483H43.7845C45.7711 20.3402 45.7853 17.3065 43.7845 17.2983H17.2169C15.2304 17.3065 15.2161 20.3402 17.2169 20.3483Z" fill="#017D03"/>
</svg>
