<svg width="44" height="44" viewBox="0 0 44 44" fill="none" xmlns="http://www.w3.org/2000/svg">
<path d="M41.9375 37.8125H39.1875V15.9417C39.8138 15.5802 40.334 15.0603 40.696 14.4343C41.0579 13.8083 41.249 13.0981 41.25 12.375V8.9375C41.2445 8.81355 41.2109 8.69248 41.1517 8.58344L37.0267 1.70844C36.9656 1.60675 36.8792 1.5226 36.776 1.46417C36.6727 1.40574 36.5561 1.37502 36.4375 1.375H10.3125C10.1939 1.37502 10.0773 1.40574 9.97402 1.46417C9.87078 1.5226 9.78441 1.60675 9.72331 1.70844L5.59831 8.58344C5.5391 8.69247 5.50548 8.81355 5.5 8.9375V12.375C5.50098 13.0981 5.69205 13.8083 6.05404 14.4343C6.41604 15.0603 6.93624 15.5802 7.5625 15.9417V18.5625C7.5625 18.7448 7.63493 18.9197 7.76386 19.0486C7.8928 19.1776 8.06766 19.25 8.25 19.25C8.43234 19.25 8.6072 19.1776 8.73614 19.0486C8.86507 18.9197 8.9375 18.7448 8.9375 18.5625V16.4381C9.72456 16.5768 10.535 16.4813 11.2683 16.1636C12.0016 15.8458 12.6255 15.3197 13.0625 14.6506C13.4379 15.2191 13.9484 15.6855 14.5483 16.0083C15.1482 16.331 15.8188 16.4999 16.5 16.4999C17.1812 16.4999 17.8518 16.331 18.4517 16.0083C19.0516 15.6855 19.5621 15.2191 19.9375 14.6506C20.3129 15.2191 20.8234 15.6855 21.4233 16.0083C22.0232 16.331 22.6938 16.4999 23.375 16.4999C24.0562 16.4999 24.7268 16.331 25.3267 16.0083C25.9266 15.6855 26.4371 15.2191 26.8125 14.6506C27.1879 15.2191 27.6984 15.6855 28.2983 16.0083C28.8982 16.331 29.5688 16.4999 30.25 16.4999C30.9312 16.4999 31.6018 16.331 32.2017 16.0083C32.8016 15.6855 33.3121 15.2191 33.6875 14.6506C34.1245 15.3197 34.7484 15.8458 35.4817 16.1636C36.215 16.4813 37.0254 16.5768 37.8125 16.4381V37.8125H24.0625V19.25C24.0625 19.0677 23.9901 18.8928 23.8611 18.7639C23.7322 18.6349 23.5573 18.5625 23.375 18.5625H13.75C13.5677 18.5625 13.3928 18.6349 13.2639 18.7639C13.1349 18.8928 13.0625 19.0677 13.0625 19.25V20.46C13.0625 20.6423 13.1349 20.8172 13.2639 20.9461C13.3928 21.0751 13.5677 21.1475 13.75 21.1475C13.9323 21.1475 14.1072 21.0751 14.2361 20.9461C14.3651 20.8172 14.4375 20.6423 14.4375 20.46V19.9375H22.6875V37.8125H14.4375V36.1694C14.4375 35.987 14.3651 35.8122 14.2361 35.6832C14.1072 35.5543 13.9323 35.4819 13.75 35.4819C13.5677 35.4819 13.3928 35.5543 13.2639 35.6832C13.1349 35.8122 13.0625 35.987 13.0625 36.1694V37.8125H9.82438C11.6524 35.7369 15.125 31.2943 15.125 27.5C15.125 25.6766 14.4007 23.928 13.1114 22.6386C11.822 21.3493 10.0734 20.625 8.25 20.625C6.42664 20.625 4.67795 21.3493 3.38864 22.6386C2.09933 23.928 1.375 25.6766 1.375 27.5C1.375 31.2943 4.84756 35.7369 6.67562 37.8125H4.8125C4.63016 37.8125 4.4553 37.8849 4.32636 38.0139C4.19743 38.1428 4.125 38.3177 4.125 38.5V41.9375C4.125 42.1198 4.19743 42.2947 4.32636 42.4236C4.4553 42.5526 4.63016 42.625 4.8125 42.625H41.9375C42.1198 42.625 42.2947 42.5526 42.4236 42.4236C42.5526 42.2947 42.625 42.1198 42.625 41.9375V38.5C42.625 38.3177 42.5526 38.1428 42.4236 38.0139C42.2947 37.8849 42.1198 37.8125 41.9375 37.8125ZM39.3484 8.25H34.1529L31.9529 2.75H36.0484L39.3484 8.25ZM20.4738 2.75L19.3738 8.25H14.08L16.28 2.75H20.4738ZM21.8762 2.75H24.8738L25.9737 8.25H20.7762L21.8762 2.75ZM27.3762 8.25L26.2763 2.75H30.47L32.67 8.25H27.3762ZM10.7016 2.75H14.7971L12.5971 8.25H7.40162L10.7016 2.75ZM9.625 15.125C8.89565 15.125 8.19618 14.8353 7.68046 14.3195C7.16473 13.8038 6.875 13.1043 6.875 12.375V9.625H12.375V12.375C12.375 13.1043 12.0853 13.8038 11.5695 14.3195C11.0538 14.8353 10.3543 15.125 9.625 15.125ZM16.5 15.125C15.7707 15.125 15.0712 14.8353 14.5555 14.3195C14.0397 13.8038 13.75 13.1043 13.75 12.375V9.625H19.25V12.375C19.25 13.1043 18.9603 13.8038 18.4445 14.3195C17.9288 14.8353 17.2293 15.125 16.5 15.125ZM23.375 15.125C22.6457 15.125 21.9462 14.8353 21.4305 14.3195C20.9147 13.8038 20.625 13.1043 20.625 12.375V9.625H26.125V12.375C26.125 13.1043 25.8353 13.8038 25.3195 14.3195C24.8038 14.8353 24.1043 15.125 23.375 15.125ZM30.25 15.125C29.5207 15.125 28.8212 14.8353 28.3055 14.3195C27.7897 13.8038 27.5 13.1043 27.5 12.375V9.625H33V12.375C33 13.1043 32.7103 13.8038 32.1945 14.3195C31.6788 14.8353 30.9793 15.125 30.25 15.125ZM34.375 12.375V9.625H39.875V12.375C39.875 13.1043 39.5853 13.8038 39.0695 14.3195C38.5538 14.8353 37.8543 15.125 37.125 15.125C36.3957 15.125 35.6962 14.8353 35.1805 14.3195C34.6647 13.8038 34.375 13.1043 34.375 12.375ZM8.25 22C9.70819 22.0016 11.1062 22.5816 12.1373 23.6127C13.1684 24.6438 13.7484 26.0418 13.75 27.5C13.75 31.2056 9.67656 35.9521 8.25 37.5011C6.82344 35.9521 2.75 31.2056 2.75 27.5C2.75164 26.0418 3.33163 24.6438 4.36272 23.6127C5.39382 22.5816 6.79181 22.0016 8.25 22ZM41.25 41.25H5.5V39.1875H41.25V41.25Z" fill="#017D03"/>
<path d="M11.6875 27.5C11.6875 26.8201 11.4859 26.1555 11.1082 25.5902C10.7305 25.0249 10.1936 24.5843 9.56548 24.3242C8.93735 24.064 8.24619 23.9959 7.57938 24.1286C6.91257 24.2612 6.30007 24.5886 5.81932 25.0693C5.33858 25.5501 5.01119 26.1626 4.87855 26.8294C4.74592 27.4962 4.81399 28.1874 5.07417 28.8155C5.33434 29.4436 5.77493 29.9805 6.34023 30.3582C6.90552 30.7359 7.57013 30.9375 8.25 30.9375C9.16135 30.9364 10.0351 30.5739 10.6795 29.9295C11.3239 29.2851 11.6864 28.4113 11.6875 27.5ZM6.1875 27.5C6.1875 27.0921 6.30847 26.6933 6.5351 26.3541C6.76173 26.015 7.08384 25.7506 7.46072 25.5945C7.83759 25.4384 8.25229 25.3975 8.65238 25.4771C9.05246 25.5567 9.41996 25.7531 9.70841 26.0416C9.99686 26.33 10.1933 26.6975 10.2729 27.0976C10.3525 27.4977 10.3116 27.9124 10.1555 28.2893C9.9994 28.6662 9.73504 28.9883 9.39587 29.2149C9.05669 29.4415 8.65793 29.5625 8.25 29.5625C7.70299 29.5625 7.17839 29.3452 6.79159 28.9584C6.4048 28.5716 6.1875 28.047 6.1875 27.5Z" fill="#017D03"/>
<path d="M35.75 26.8125C35.9323 26.8125 36.1072 26.7401 36.2361 26.6111C36.3651 26.4822 36.4375 26.3073 36.4375 26.125V19.25C36.4375 19.0677 36.3651 18.8928 36.2361 18.7639C36.1072 18.6349 35.9323 18.5625 35.75 18.5625H26.125C25.9427 18.5625 25.7678 18.6349 25.6389 18.7639C25.5099 18.8928 25.4375 19.0677 25.4375 19.25V26.125C25.4375 26.3073 25.5099 26.4822 25.6389 26.6111C25.7678 26.7401 25.9427 26.8125 26.125 26.8125H35.75ZM26.8125 23.375H30.25V25.4375H26.8125V23.375ZM31.625 25.4375V23.375H35.0625V25.4375H31.625ZM35.0625 22H31.625V19.9375H35.0625V22ZM30.25 19.9375V22H26.8125V19.9375H30.25Z" fill="#017D03"/>
<path d="M22 27.5V26.8125C22 26.6302 21.9276 26.4553 21.7986 26.3264C21.6697 26.1974 21.4948 26.125 21.3125 26.125C21.1302 26.125 20.9553 26.1974 20.8264 26.3264C20.6974 26.4553 20.625 26.6302 20.625 26.8125V27.5C20.625 27.6823 20.6974 27.8572 20.8264 27.9861C20.9553 28.1151 21.1302 28.1875 21.3125 28.1875C21.4948 28.1875 21.6697 28.1151 21.7986 27.9861C21.9276 27.8572 22 27.6823 22 27.5Z" fill="#017D03"/>
</svg>
