<svg width="44" height="44" viewBox="0 0 44 44" fill="none" xmlns="http://www.w3.org/2000/svg">
<path d="M41.9874 28.7132C41.8517 28.6169 41.6856 28.5732 41.52 28.59C41.3544 28.6069 41.2006 28.6832 41.0871 28.8049C38.3246 31.765 34.7732 34.1042 30.8168 35.5698C24.4056 37.9448 16.9372 37.7385 11.1676 35.056L11.7249 33.2689C11.7569 33.166 11.7643 33.057 11.7465 32.9507C11.7287 32.8444 11.6861 32.7438 11.6223 32.6569C11.5584 32.5701 11.475 32.4995 11.3788 32.4508C11.2826 32.4022 11.1764 32.3768 11.0686 32.3767H11.0683C7.56507 32.3769 4.52821 31.8284 2.7401 30.8685C2.63736 30.8134 2.52229 30.7853 2.4057 30.7869C2.28911 30.7885 2.17483 30.8197 2.07362 30.8776C1.97241 30.9355 1.88759 31.0181 1.82713 31.1178C1.76667 31.2175 1.73256 31.331 1.72802 31.4475C1.56482 35.6381 5.16217 40.5867 7.76865 42.7621C7.85547 42.8346 7.95884 42.8846 8.06959 42.9075C8.18034 42.9305 8.29504 42.9258 8.40354 42.8939C8.51204 42.8619 8.61097 42.8036 8.69156 42.7243C8.77215 42.6449 8.83192 42.5469 8.86556 42.4389L9.26345 41.1627C12.1066 42.407 15.1122 43.1181 18.2097 43.2781C18.6524 43.301 19.0943 43.3124 19.5354 43.3124C22.5602 43.3124 25.5416 42.7751 28.4158 41.7104C34.3612 39.5081 39.2561 35.2048 42.1987 29.5931C42.2759 29.4457 42.2971 29.2753 42.2582 29.1135C42.2194 28.9517 42.1232 28.8095 41.9874 28.7132ZM27.938 40.4212C21.7635 42.7085 15.0852 42.4141 9.1336 39.5927C9.04467 39.5505 8.94771 39.528 8.84929 39.5265C8.75086 39.525 8.65328 39.5448 8.56314 39.5843C8.47301 39.6238 8.3924 39.6822 8.32677 39.7555C8.26114 39.8289 8.21201 39.9154 8.1827 40.0094L7.87435 40.9983C5.88249 39.0308 3.53374 35.6174 3.15123 32.5649C5.39557 33.4368 8.1778 33.6854 10.1379 33.7392L9.67827 35.2127C9.6297 35.3684 9.63811 35.5364 9.702 35.6865C9.76589 35.8367 9.88109 35.9592 10.027 36.0322C13.1187 37.5795 16.7383 38.4643 20.4944 38.591C24.1665 38.7147 27.9012 38.116 31.2946 36.8591C33.747 35.9506 36.0523 34.7215 38.1279 33.2262C35.439 36.4504 31.94 38.9388 27.938 40.4212ZM8.01692 26.0378L21.6511 34.0613C21.7587 34.1246 21.8792 34.1562 21.9998 34.1562C22.1204 34.1562 22.241 34.1246 22.3486 34.0613L35.9828 26.0378C36.0859 25.9771 36.1715 25.8905 36.2309 25.7865C36.2903 25.6826 36.3215 25.565 36.3216 25.4453V9.39818C36.3216 9.15463 36.1927 8.92922 35.9828 8.80564L22.3485 0.782082C22.2428 0.719838 22.1224 0.687012 21.9998 0.687012C21.8771 0.687012 21.7567 0.719838 21.6511 0.782082L8.01692 8.80572C7.91377 8.86647 7.82826 8.95308 7.76885 9.057C7.70944 9.16092 7.67818 9.27855 7.67816 9.39826V25.4454C7.67814 25.5651 7.70938 25.6827 7.7688 25.7866C7.82822 25.8905 7.91375 25.9771 8.01692 26.0378ZM9.05307 10.6004L21.3122 17.8148V32.2665L9.05307 25.0522V10.6004ZM26.84 13.7757L14.5612 6.54978L17.1596 5.02061L29.4384 12.2465L26.84 13.7757ZM30.1064 13.4488V18.1726L27.5275 19.6901L27.5274 14.9666L30.1064 13.4488ZM25.4844 14.5733L21.9997 16.6241L9.72107 9.39818L13.2057 7.34753L25.4844 14.5733ZM22.6873 32.2666V17.8149L26.1524 15.7757L26.1525 20.8924C26.1525 21.0136 26.1845 21.1326 26.2453 21.2374C26.3061 21.3422 26.3935 21.429 26.4987 21.4892C26.6039 21.5494 26.7231 21.5808 26.8443 21.58C26.9655 21.5793 27.0843 21.5465 27.1887 21.4849L31.1426 19.1582C31.2458 19.0974 31.3313 19.0108 31.3907 18.9069C31.4501 18.803 31.4814 18.6854 31.4814 18.5656V12.6397L34.9466 10.6005V25.0523L22.6873 32.2666ZM21.9998 2.17229L34.2786 9.39818L30.7939 11.4489L18.5151 4.22293L21.9998 2.17229Z" fill="#017D03"/>
</svg>
