<svg width="44" height="44" viewBox="0 0 44 44" fill="none" xmlns="http://www.w3.org/2000/svg">
<g clip-path="url(#clip0_1680_7684)">
<path d="M40.9107 19.1834C40.7423 14.384 38.7987 9.89598 35.3859 6.48323C31.8089 2.90548 27.0548 0.935791 22.0003 0.935791C11.7916 0.935791 3.4502 9.06135 3.09063 19.1834C1.53276 19.8757 0.442383 21.435 0.442383 23.2472V28.2399C0.442383 30.6915 2.43682 32.6866 4.88913 32.6866C6.47588 32.6866 7.76632 31.3962 7.76632 29.8094V21.677C7.76632 20.1872 6.62369 18.9724 5.17101 18.828C5.70726 10.0094 13.0484 2.99829 22.0003 2.99829C26.5048 2.99829 30.7405 4.75417 33.9284 7.9421C36.8558 10.8695 38.5691 14.6851 38.8269 18.8287C37.3756 18.9744 36.235 20.1885 36.235 21.677V29.8087C36.235 31.3109 37.3955 32.5333 38.8654 32.6605V34.7154C38.8654 37.0295 36.9823 38.9119 34.6682 38.9119H31.56C31.4074 38.476 31.1681 38.0732 30.8326 37.739C30.2448 37.1485 29.4611 36.8233 28.6264 36.8233H25.4227C24.9628 36.8233 24.5214 36.9209 24.1171 37.1093C23.0144 37.616 22.3021 38.7284 22.3021 39.9432C22.3021 40.7778 22.6273 41.5615 23.2165 42.148C23.8057 42.7385 24.5894 43.0637 25.4227 43.0637H28.6264C29.9547 43.0637 31.1255 42.205 31.5621 40.9744H34.6682C38.1201 40.9744 40.9279 38.1667 40.9279 34.7154V32.2934C42.4761 31.5969 43.5583 30.0432 43.5583 28.2385V23.2459C43.5583 21.435 42.4679 19.8757 40.9107 19.1834ZM5.70313 21.677V29.8087C5.70313 30.2577 5.33807 30.6234 4.88845 30.6234C3.57395 30.6234 2.5042 29.5537 2.5042 28.2392V23.2465C2.5042 21.9314 3.57395 20.8623 4.88845 20.8623C5.33807 20.8623 5.70313 21.228 5.70313 21.677ZM29.6611 40.1645C29.5587 40.6499 29.1228 41.0026 28.6258 41.0026H25.422C25.1401 41.0026 24.8754 40.8926 24.6733 40.6905C24.4739 40.4918 24.3639 40.2264 24.3639 39.9445C24.3639 39.5327 24.6053 39.1567 24.9834 38.9827C25.1181 38.9195 25.2659 38.8872 25.422 38.8872H28.6258C28.9076 38.8872 29.1723 38.9965 29.3738 39.1986C29.5731 39.3973 29.6831 39.6627 29.6831 39.9445C29.6838 40.0202 29.6756 40.0958 29.6611 40.1645ZM41.4958 28.2392C41.4958 29.5537 40.426 30.6234 39.1115 30.6234C38.6626 30.6234 38.2968 30.2584 38.2968 29.8087V21.677C38.2968 21.228 38.6619 20.8623 39.1115 20.8623C40.426 20.8623 41.4958 21.932 41.4958 23.2465V28.2392Z" fill="#017D03"/>
<path d="M28.6783 28.5945C31.0879 28.5945 33.048 26.6337 33.048 24.2247V15.3209C33.048 14.1563 32.5929 13.059 31.7665 12.2327C30.9401 11.4063 29.8436 10.9512 28.6783 10.9512H15.3229C12.9132 10.9512 10.9531 12.9112 10.9531 15.3209V24.2247C10.9531 26.6344 12.9132 28.5945 15.3229 28.5945H15.4047V30.9017C15.4047 31.7817 15.9293 32.5627 16.7405 32.892C17.0024 32.9972 17.2747 33.0495 17.5442 33.0495C18.1059 33.0495 18.6531 32.8267 19.0539 32.4122L22.8923 28.5945H28.6783ZM21.7407 26.8317L17.5868 30.9629C17.5683 30.9822 17.5545 30.9966 17.5153 30.9794C17.4679 30.9602 17.4679 30.9292 17.4679 30.9017V27.5632C17.4679 26.994 17.0066 26.532 16.4366 26.532H15.3236C14.051 26.532 13.0163 25.4966 13.0163 24.2247V15.3209C13.0163 14.0484 14.051 13.0137 15.3236 13.0137H28.6789C29.2936 13.0137 29.8717 13.2543 30.309 13.6909C30.7463 14.1281 30.9862 14.707 30.9862 15.3209V24.2247C30.9862 25.4973 29.9508 26.532 28.6789 26.532H22.4681C22.1951 26.532 21.9339 26.6399 21.7407 26.8317Z" fill="#017D03"/>
<path d="M16.9902 18.4163C16.1514 18.4163 15.4688 19.0996 15.4688 19.9377C15.4688 20.7758 16.1521 21.4591 16.9902 21.4591C17.8296 21.4591 18.513 20.7758 18.513 19.9377C18.513 19.0996 17.8303 18.4163 16.9902 18.4163Z" fill="#017D03"/>
<path d="M22 18.4163C21.1612 18.4163 20.4785 19.0996 20.4785 19.9377C20.4785 20.7758 21.1619 21.4591 22 21.4591C22.8401 21.4591 23.5228 20.7758 23.5228 19.9377C23.5228 19.0996 22.8401 18.4163 22 18.4163Z" fill="#017D03"/>
<path d="M27.0087 18.4163C26.17 18.4163 25.4873 19.0996 25.4873 19.9377C25.4873 20.7758 26.1707 21.4591 27.0087 21.4591C27.8482 21.4591 28.5316 20.7758 28.5316 19.9377C28.5316 19.0996 27.8482 18.4163 27.0087 18.4163Z" fill="#017D03"/>
</g>
<defs>
<clipPath id="clip0_1680_7684">
<rect width="44" height="44" fill="white"/>
</clipPath>
</defs>
</svg>
