<svg width="44" height="44" viewBox="0 0 44 44" fill="none" xmlns="http://www.w3.org/2000/svg">
<g clip-path="url(#clip0_1680_7709)">
<path d="M40.9198 24.6587L39.7804 20.101C40.0919 20.0348 40.3256 19.7584 40.3256 19.4273V18.6925C40.3256 17.097 39.0276 15.799 37.4321 15.799H32.2422V14.2833C32.2422 13.4981 31.6035 12.8595 30.8184 12.8595H21.1681L27.0325 10.5137C27.2014 10.4453 27.3364 10.3128 27.4078 10.1452C27.4792 9.97753 27.4813 9.78841 27.4137 9.61921C27.346 9.45001 27.214 9.31452 27.0467 9.24239C26.8793 9.17026 26.6902 9.16738 26.5207 9.23436L21.7191 11.155C23.1822 10.2162 24.6299 9.18297 25.181 8.46041C26.2539 7.0537 25.9822 5.0364 24.5755 3.96347C23.1687 2.89045 21.1514 3.16227 20.0785 4.56899C19.2946 5.59697 18.2603 8.48542 17.5908 10.5208C16.9213 8.48559 15.887 5.59697 15.1031 4.56899C14.0302 3.16227 12.0129 2.89063 10.6061 3.96347C9.19944 5.03631 8.92779 7.05361 10.0006 8.46041C10.5517 9.18306 11.9993 10.2162 13.4625 11.155L8.66087 9.23436C8.57687 9.20072 8.48706 9.18397 8.39658 9.18505C8.30611 9.18614 8.21673 9.20505 8.13356 9.24069C8.05039 9.27633 7.97506 9.32801 7.91188 9.39278C7.84869 9.45755 7.79889 9.53413 7.76531 9.61816C7.7317 9.70216 7.71496 9.79196 7.71606 9.88243C7.71716 9.9729 7.73606 10.0623 7.7717 10.1454C7.80734 10.2286 7.85902 10.3039 7.92377 10.3671C7.98853 10.4303 8.0651 10.4801 8.14911 10.5137L14.0135 12.8595H4.36322C3.57809 12.8595 2.93941 13.4981 2.93941 14.2833V26.776C2.93941 26.9587 3.01199 27.134 3.1412 27.2632C3.2704 27.3924 3.44564 27.465 3.62837 27.465C3.81109 27.465 3.98633 27.3924 4.11554 27.2632C4.24474 27.134 4.31733 26.9587 4.31733 26.776V14.2833C4.31733 14.2579 4.33787 14.2374 4.36322 14.2374H30.8183C30.8437 14.2374 30.8642 14.2579 30.8642 14.2833V26.7762C30.8642 26.9589 30.9368 27.1341 31.066 27.2634C31.1952 27.3926 31.3704 27.4651 31.5532 27.4651C31.7359 27.4651 31.9111 27.3926 32.0403 27.2634C32.1695 27.1341 32.2421 26.9589 32.2421 26.7762V25.9952H40.3689L40.371 25.9954L40.3733 25.9953C41.3732 25.996 42.2223 26.6524 42.5138 27.5568H40.3715C40.1888 27.5568 40.0136 27.6294 39.8844 27.7586C39.7552 27.8878 39.6826 28.0631 39.6826 28.2458V29.7155C39.6826 30.9058 40.6509 31.8742 41.8412 31.8742H42.6221V34.9054H40.8206C40.2289 33.1968 38.6046 31.9659 36.6972 31.9659C34.7898 31.9659 33.1654 33.1967 32.5737 34.9054H32.242V29.7154C32.242 29.5327 32.1694 29.3575 32.0402 29.2282C31.911 29.099 31.7358 29.0265 31.5531 29.0265C31.3703 29.0265 31.1951 29.099 31.0659 29.2282C30.9367 29.3575 30.8641 29.5327 30.8641 29.7154V34.9054H16.5702C15.9784 33.1967 14.3541 31.9659 12.4468 31.9659C10.5394 31.9659 8.91498 33.1967 8.3233 34.9054H4.36322C4.35105 34.9054 4.33937 34.9005 4.33077 34.8919C4.32216 34.8833 4.31733 34.8716 4.31733 34.8595V33.3438H7.30271C7.48543 33.3438 7.66067 33.2712 7.78988 33.142C7.91908 33.0128 7.99167 32.8375 7.99167 32.6548C7.99167 32.4721 7.91908 32.2969 7.78988 32.1677C7.66067 32.0384 7.48543 31.9659 7.30271 31.9659H0.688961C0.506237 31.9659 0.330997 32.0384 0.201792 32.1677C0.0725867 32.2969 0 32.4721 0 32.6548C0 32.8375 0.0725867 33.0128 0.201792 33.142C0.330997 33.2712 0.506237 33.3438 0.688961 33.3438H2.93949V34.8595C2.93949 35.6446 3.57818 36.2833 4.3633 36.2833H8.08474C8.08457 36.2986 8.08354 36.3138 8.08354 36.3292C8.08354 38.735 10.0409 40.6924 12.4468 40.6924C14.8526 40.6924 16.81 38.735 16.81 36.3292C16.81 36.3137 16.8089 36.2986 16.8088 36.2833H32.3351C32.3349 36.2986 32.3339 36.3138 32.3339 36.3292C32.3339 38.735 34.2913 40.6924 36.6971 40.6924C39.1029 40.6924 41.0603 38.735 41.0603 36.3292C41.0603 36.3137 41.0593 36.2986 41.0591 36.2833H43.3109C43.4937 36.2833 43.6689 36.2107 43.7981 36.0815C43.9273 35.9523 43.9999 35.777 43.9999 35.5943V28.2457C44 26.4312 42.6613 24.9237 40.9198 24.6587ZM14.8586 10.4035C12.141 8.7147 11.3349 7.93774 11.0962 7.62475C10.4841 6.82218 10.6391 5.67122 11.4418 5.05909C11.7599 4.81592 12.1494 4.68439 12.5498 4.68483C13.1017 4.68483 13.6477 4.93284 14.0076 5.40464C14.674 6.27845 15.7177 9.21949 16.4068 11.3388C15.887 11.0332 15.3709 10.7214 14.8586 10.4035ZM18.775 11.3387C19.4641 9.21949 20.5078 6.27854 21.1741 5.40456C21.7863 4.60199 22.9372 4.44704 23.7398 5.05909C24.5425 5.67122 24.6974 6.82218 24.0854 7.62475C23.8467 7.93765 23.0406 8.7147 20.3232 10.4034C19.8109 10.7213 19.2948 11.0331 18.775 11.3387ZM32.2422 17.1767H37.4321C38.2679 17.1767 38.9478 17.8566 38.9478 18.6924V18.7383H32.2422V17.1767ZM32.2422 24.6173V20.1162H38.364L39.4892 24.6173H32.2422ZM12.4468 39.3145C10.8006 39.3145 9.46137 37.9753 9.46137 36.3292C9.46137 34.683 10.8006 33.3438 12.4468 33.3438C14.0929 33.3438 15.4321 34.683 15.4321 36.3292C15.4321 37.9753 14.0929 39.3145 12.4468 39.3145ZM36.6973 39.3145C35.0512 39.3145 33.7119 37.9753 33.7119 36.3292C33.7119 34.683 35.0512 33.3438 36.6973 33.3438C38.3434 33.3438 39.6827 34.683 39.6827 36.3292C39.6827 37.9753 38.3434 39.3145 36.6973 39.3145ZM42.6222 30.4962H41.8413C41.4108 30.4962 41.0605 30.1459 41.0605 29.7153V28.9345H42.6221V30.4962H42.6222Z" fill="#017D03"/>
<path d="M12.4468 34.9054C11.6617 34.9054 11.023 35.544 11.023 36.3292C11.023 37.1143 11.6617 37.753 12.4468 37.753C13.2319 37.753 13.8706 37.1143 13.8706 36.3292C13.8706 35.544 13.2319 34.9054 12.4468 34.9054ZM36.6973 34.9054C35.9122 34.9054 35.2735 35.544 35.2735 36.3292C35.2735 37.1143 35.9122 37.753 36.6973 37.753C37.4824 37.753 38.1211 37.1143 38.1211 36.3292C38.1211 35.544 37.4824 34.9054 36.6973 34.9054ZM28.6138 31.9659H18.3257C18.143 31.9659 17.9677 32.0385 17.8385 32.1677C17.7093 32.2969 17.6367 32.4721 17.6367 32.6548C17.6367 32.8376 17.7093 33.0128 17.8385 33.142C17.9677 33.2712 18.143 33.3438 18.3257 33.3438H28.6138C28.7965 33.3438 28.9717 33.2712 29.1009 33.142C29.2301 33.0128 29.3027 32.8376 29.3027 32.6548C29.3027 32.4721 29.2301 32.2969 29.1009 32.1677C28.9717 32.0385 28.7965 31.9659 28.6138 31.9659ZM10.9771 29.0265H2.15869C1.97596 29.0265 1.80072 29.099 1.67152 29.2283C1.54231 29.3575 1.46973 29.5327 1.46973 29.7154C1.46973 29.8981 1.54231 30.0734 1.67152 30.2026C1.80072 30.3318 1.97596 30.4044 2.15869 30.4044H10.9771C11.1598 30.4044 11.335 30.3318 11.4642 30.2026C11.5935 30.0734 11.666 29.8981 11.666 29.7154C11.666 29.5327 11.5935 29.3575 11.4642 29.2283C11.335 29.099 11.1598 29.0265 10.9771 29.0265ZM10.9771 18.7383H8.03758C7.85486 18.7383 7.67962 18.8109 7.55042 18.9401C7.42121 19.0693 7.34862 19.2445 7.34862 19.4272V25.3061C7.34862 25.4889 7.42121 25.6641 7.55042 25.7933C7.67962 25.9225 7.85486 25.9951 8.03758 25.9951C8.22031 25.9951 8.39555 25.9225 8.52475 25.7933C8.65396 25.6641 8.72655 25.4889 8.72655 25.3061V23.0556H10.2422C10.4249 23.0556 10.6002 22.983 10.7294 22.8538C10.8586 22.7246 10.9312 22.5494 10.9312 22.3666C10.9312 22.1839 10.8586 22.0087 10.7294 21.8795C10.6002 21.7503 10.4249 21.6777 10.2422 21.6777H8.72655V20.1162H10.9771C11.1598 20.1162 11.335 20.0436 11.4642 19.9144C11.5935 19.7852 11.666 19.61 11.666 19.4272C11.666 19.2445 11.5935 19.0693 11.4642 18.9401C11.335 18.8109 11.1598 18.7383 10.9771 18.7383ZM16.3988 23.3786C17.0883 22.927 17.5449 22.1483 17.5449 21.2644C17.5449 19.8715 16.4118 18.7383 15.0188 18.7383H13.1816C12.9989 18.7383 12.8237 18.8109 12.6945 18.9401C12.5653 19.0693 12.4927 19.2445 12.4927 19.4272V25.3061C12.4927 25.4889 12.5653 25.6641 12.6945 25.7933C12.8237 25.9225 12.9989 25.9951 13.1816 25.9951C13.3644 25.9951 13.5396 25.9225 13.6688 25.7933C13.798 25.6641 13.8706 25.4889 13.8706 25.3061V23.7905H15.0175L16.2827 25.6882C16.3456 25.7827 16.4309 25.8602 16.531 25.9138C16.6311 25.9673 16.743 25.9953 16.8565 25.9951C16.9923 25.9952 17.1251 25.9549 17.238 25.8793C17.3133 25.8291 17.3779 25.7646 17.4283 25.6894C17.4786 25.6143 17.5137 25.5299 17.5314 25.4412C17.5492 25.3525 17.5493 25.2611 17.5317 25.1724C17.5141 25.0836 17.4792 24.9992 17.429 24.924L16.3988 23.3786ZM15.0188 22.4126H13.8706V20.1162H15.0188C15.652 20.1162 16.167 20.6312 16.167 21.2644C16.167 21.8976 15.652 22.4126 15.0188 22.4126ZM22 24.6173H19.7495V23.0534C19.7647 23.0544 19.7799 23.0557 19.7954 23.0557H21.2651C21.4478 23.0557 21.623 22.9831 21.7523 22.8539C21.8815 22.7247 21.954 22.5495 21.954 22.3667C21.954 22.184 21.8815 22.0088 21.7523 21.8796C21.623 21.7504 21.4478 21.6778 21.2651 21.6778H19.7954C19.7798 21.6778 19.7647 21.6791 19.7495 21.6801V20.1162H22C22.1827 20.1162 22.358 20.0436 22.4872 19.9144C22.6164 19.7852 22.689 19.61 22.689 19.4272C22.689 19.2445 22.6164 19.0693 22.4872 18.9401C22.358 18.8109 22.1827 18.7383 22 18.7383H19.0605C18.8778 18.7383 18.7026 18.8109 18.5734 18.9401C18.4442 19.0693 18.3716 19.2445 18.3716 19.4272V25.3061C18.3716 25.4889 18.4442 25.6641 18.5734 25.7933C18.7026 25.9225 18.8778 25.9951 19.0605 25.9951H22C22.1814 25.9931 22.3547 25.9196 22.4822 25.7906C22.6098 25.6616 22.6813 25.4876 22.6813 25.3062C22.6813 25.1248 22.6098 24.9507 22.4822 24.8217C22.3547 24.6928 22.1814 24.6193 22 24.6173ZM27.1441 24.6173H24.8935V23.0557H25.6744C25.8571 23.0557 26.0323 22.9831 26.1615 22.8539C26.2907 22.7247 26.3633 22.5495 26.3633 22.3667C26.3633 22.184 26.2907 22.0088 26.1615 21.8796C26.0323 21.7504 25.8571 21.6778 25.6744 21.6778H24.8935V20.1162H27.1441C27.3268 20.1162 27.502 20.0436 27.6312 19.9144C27.7604 19.7852 27.833 19.61 27.833 19.4272C27.833 19.2445 27.7604 19.0693 27.6312 18.9401C27.502 18.8109 27.3268 18.7383 27.1441 18.7383H24.2046C24.0219 18.7383 23.8466 18.8109 23.7174 18.9401C23.5882 19.0693 23.5156 19.2445 23.5156 19.4272V25.3061C23.5156 25.4889 23.5882 25.6641 23.7174 25.7933C23.8466 25.9225 24.0219 25.9951 24.2046 25.9951H27.1441C27.3254 25.9931 27.4987 25.9196 27.6263 25.7906C27.7538 25.6616 27.8253 25.4876 27.8253 25.3062C27.8253 25.1248 27.7538 24.9507 27.6263 24.8217C27.4987 24.6928 27.3254 24.6193 27.1441 24.6173Z" fill="#017D03"/>
</g>
<defs>
<clipPath id="clip0_1680_7709">
<rect width="44" height="44" fill="white"/>
</clipPath>
</defs>
</svg>
