<svg width="50" height="50" viewBox="0 0 50 50" fill="none" xmlns="http://www.w3.org/2000/svg">
<g clip-path="url(#clip0_2039_18200)">
<path d="M4.16699 46.5575H10.8742C10.8742 46.5575 18.4193 49.1673 20.0961 49.1673C21.7729 49.1673 34.3493 46.5575 34.3493 46.5575L44.8081 41.6666C46.4669 40.8338 45.8626 38.7256 44.7559 37.8645C44.0215 37.2936 43.1493 37.5007 42.2497 37.7644L30.9957 41.3422H18.4193L25.9653 37.8628C26.8525 37.3557 27.6941 36.7729 28.481 36.1209C29.3189 35.2513 29.3189 31.771 24.2868 32.6415C19.2547 33.512 14.2278 36.988 11.7121 36.988H4.16699V46.5575Z" fill="#F2E6C7"/>
<path d="M44.809 41.6663L34.3502 46.5581C34.3502 46.5581 21.7755 49.167 20.1004 49.167C18.4253 49.167 10.875 46.5581 10.875 46.5581H4.16699V44.0587H10.875C10.875 44.0587 18.4168 46.6668 20.1004 46.6668C21.784 46.6668 34.3502 44.0587 34.3502 44.0587L44.809 39.167C45.052 39.0491 45.2675 38.8814 45.4415 38.6748C46.0252 39.6754 46.0672 41.0338 44.809 41.6663Z" fill="#D6C099"/>
<path d="M43.3332 36.6669C43.3332 36.9588 43.3255 37.2421 43.3084 37.5229H43.2998C42.9436 37.5724 42.5925 37.6532 42.2505 37.7643L30.9914 41.3421H18.4167L25.967 37.8584C26.8549 37.3522 27.6969 36.7694 28.4834 36.1166C29.3171 35.2504 29.3171 31.7667 24.2893 32.6414C21.6732 33.2169 19.1354 34.104 16.7305 35.2837C17.0868 31.8866 18.733 28.7556 21.3297 26.5364C23.9264 24.3173 27.2756 23.179 30.6867 23.3564C34.0979 23.5338 37.311 25.0133 39.6635 27.4898C42.016 29.9664 43.3286 33.2512 43.3307 36.6669H43.3332Z" fill="#EAAB6C"/>
<path d="M24.5196 24.522C22.3934 25.4778 20.5552 26.9747 19.1884 28.8631C17.8216 30.7515 16.9741 32.9654 16.7305 35.2838C19.1354 34.1041 21.6732 33.217 24.2893 32.6415C29.3146 31.7667 29.3146 35.2504 28.4834 36.1166C27.6969 36.7694 26.8549 37.3522 25.967 37.8584L18.4167 41.3421H30.9914L42.2505 37.7669C42.5925 37.6558 42.9436 37.575 43.2998 37.5255H43.3084C43.3255 37.2422 43.3332 36.9588 43.3332 36.6695C43.3291 35.565 43.1877 34.4652 42.9121 33.3955C36.0111 32.4109 29.5853 29.3107 24.5196 24.522Z" fill="#DB8A42"/>
<path d="M43.3325 0.833496C43.3325 0.833496 42.0212 8.00203 40.4035 9.61977C39.6205 10.363 38.5782 10.7711 37.4987 10.7572C36.4192 10.7433 35.3878 10.3084 34.6242 9.54525C33.8605 8.78209 33.4251 7.75093 33.4105 6.67144C33.396 5.59194 33.8035 4.54943 34.5463 3.76596C36.1631 2.1448 43.3325 0.833496 43.3325 0.833496Z" fill="#099688"/>
<path d="M16.666 0.833496C16.666 0.833496 17.9773 8.00203 19.5959 9.61977C19.9765 10.0212 20.4335 10.3423 20.9402 10.5642C21.4469 10.786 21.9928 10.9042 22.5459 10.9116C23.099 10.9191 23.6479 10.8157 24.1604 10.6076C24.6728 10.3994 25.1384 10.0907 25.5296 9.69974C25.9209 9.30874 26.2298 8.84335 26.4383 8.33101C26.6467 7.81868 26.7504 7.26978 26.7433 6.71671C26.7362 6.16364 26.6183 5.6176 26.3967 5.11081C26.1752 4.60402 25.8543 4.14674 25.4531 3.76596C23.8354 2.1448 16.666 0.833496 16.666 0.833496Z" fill="#099688"/>
<path d="M41.5586 7.55048C41.3038 8.30334 40.9139 9.00351 40.4082 9.61673C39.6314 10.3936 38.5778 10.83 37.4792 10.83C36.3806 10.83 35.327 10.3936 34.5502 9.61673C33.7733 8.8399 33.3369 7.78629 33.3369 6.68769C33.3369 5.58909 33.7733 4.53548 34.5502 3.75865C34.715 3.60072 34.8953 3.45991 35.0885 3.33838C34.9178 4.15491 34.9977 5.00398 35.3178 5.77431C35.6379 6.54464 36.1833 7.20027 36.8825 7.65526C37.5817 8.11025 38.4021 8.34337 39.236 8.32406C40.07 8.30476 40.8787 8.03392 41.5561 7.54706L41.5586 7.55048Z" fill="#0A7C6E"/>
<path d="M26.5667 7.57491C26.4056 8.35038 26.0184 9.06074 25.454 9.61634C25.0703 10.0027 24.614 10.3093 24.1113 10.5185C23.6086 10.7277 23.0695 10.8355 22.525 10.8355C21.9805 10.8355 21.4413 10.7277 20.9386 10.5185C20.436 10.3093 19.9796 10.0027 19.5959 9.61634C17.9748 7.99946 16.666 0.833496 16.666 0.833496C16.666 0.833496 17.6581 1.01667 18.9831 1.32481C19.5249 3.4912 20.3414 6.20369 21.2582 7.11613C21.9456 7.80845 22.8563 8.2345 23.8284 8.3185C24.8004 8.40251 25.7707 8.13903 26.5667 7.57491Z" fill="#0A7C6E"/>
<path d="M45.2743 37.2097C44.9488 36.9583 44.5668 36.7902 44.1616 36.7201C44.1616 36.7029 44.1616 36.6867 44.1616 36.6696C44.1703 34.6179 43.727 32.5894 42.8631 30.7285C42.7664 30.5334 42.5973 30.3839 42.3919 30.3119C42.1865 30.2399 41.9611 30.2511 41.7638 30.3431C41.5665 30.4351 41.413 30.6006 41.3362 30.8042C41.2593 31.0078 41.2651 31.2335 41.3524 31.4329C42.1145 33.0713 42.5061 34.8575 42.4993 36.6644C42.4993 36.7218 42.495 36.7766 42.495 36.8356C42.3239 36.8793 42.1527 36.9212 41.9969 36.9726L30.861 40.5085H22.2083L26.387 38.5783C27.3431 38.037 28.2459 37.4065 29.0833 36.6952C29.4496 36.2416 29.6728 35.6893 29.7246 35.1085C29.7765 34.5277 29.6545 33.9446 29.3743 33.4332C28.9172 32.5713 27.629 31.2129 24.153 31.8215C21.9654 32.2628 19.8377 32.9609 17.8139 33.9014C18.3317 31.6224 19.4778 29.5341 21.1224 27.8734C22.7669 26.2127 24.8439 25.0462 27.1178 24.5063C29.3917 23.9662 31.7715 24.0744 33.987 24.8183C36.2026 25.5623 38.1653 26.9123 39.6525 28.7153C39.7933 28.8855 39.996 28.9929 40.216 29.0136C40.436 29.0344 40.6553 28.967 40.8255 28.8261C40.9958 28.6853 41.1031 28.4825 41.1239 28.2625C41.1447 28.0425 41.0772 27.8233 40.9364 27.653C39.6951 26.1525 38.1573 24.9244 36.4193 24.0459C34.6813 23.1673 32.7806 22.6571 30.8362 22.5473V14.5117L34.6024 10.7456C35.5592 11.4267 36.7265 11.7465 37.8968 11.6483C39.0671 11.55 40.1647 11.04 40.9946 10.2089C42.7458 8.45849 44.0152 1.74275 44.1539 0.982672C44.1782 0.849834 44.1698 0.713083 44.1296 0.584183C44.0893 0.455282 44.0183 0.33809 43.9228 0.242686C43.8272 0.147282 43.7099 0.0765223 43.5809 0.0364928C43.4519 -0.00353665 43.3152 -0.0116375 43.1824 0.0128869C42.4223 0.152406 35.7074 1.42263 33.9561 3.17303C33.129 4.00453 32.6223 5.10157 32.5255 6.27042C32.4287 7.43927 32.7481 8.60472 33.4272 9.56095L30.0034 12.9847L26.5796 9.56095C27.2614 8.60394 27.5817 7.43612 27.4834 6.2652C27.3851 5.09428 26.8747 3.99617 26.0429 3.16619C24.2917 1.42263 17.5759 0.152406 16.8159 0.0128869C16.6831 -0.0113607 16.5464 -0.00301899 16.4176 0.0371954C16.2888 0.0774098 16.1717 0.148295 16.0763 0.243761C15.9809 0.339228 15.9101 0.456422 15.87 0.585277C15.8299 0.714132 15.8217 0.850795 15.8461 0.983528C15.9856 1.74275 17.255 8.45849 19.0054 10.2089C19.8353 11.0407 20.9335 11.5511 22.1044 11.6493C23.2753 11.7476 24.4431 11.4274 25.4001 10.7456L29.1663 14.5117V22.5388C25.8965 22.72 22.7918 24.0338 20.3852 26.2546C17.9785 28.4754 16.4199 31.4648 15.977 34.7094C14.2497 35.4798 12.6508 36.1586 11.7084 36.1586H10.8328C10.6164 36.1655 10.4112 36.2563 10.2606 36.4118C10.11 36.5674 10.0258 36.7753 10.0258 36.9918C10.0258 37.2083 10.11 37.4163 10.2606 37.5718C10.4112 37.7273 10.6164 37.8182 10.8328 37.8251H11.7084C13.0779 37.8251 14.9105 37.0094 17.0367 36.0627H17.0444L17.0598 36.0559C19.4044 34.8982 21.8808 34.0291 24.4346 33.4675C26.2167 33.1542 27.4843 33.4298 27.9029 34.219C28.0134 34.4231 28.0695 34.6522 28.0657 34.8843C28.062 35.1164 27.9985 35.3436 27.8815 35.544C27.1735 36.1293 26.416 36.652 25.6175 37.1061L18.0672 40.5889C17.8949 40.6687 17.7549 40.8049 17.6705 40.975C17.5861 41.1451 17.5622 41.3389 17.603 41.5244C17.6437 41.7099 17.7465 41.8759 17.8945 41.995C18.0424 42.1141 18.2266 42.1791 18.4165 42.1793H30.9911C31.0765 42.1793 31.1614 42.1663 31.2428 42.1408L42.4865 38.5698C43.1225 38.3797 43.8277 38.2026 44.2472 38.5295C44.4877 38.7256 44.6801 38.9741 44.8098 39.2559C44.9394 39.5378 45.0029 39.8456 44.9953 40.1558C44.9835 40.3205 44.9268 40.4788 44.8315 40.6135C44.7361 40.7483 44.6057 40.8543 44.4543 40.9202L34.0845 45.7623C29.0593 46.8039 21.2582 48.3301 20.0993 48.3301C18.9754 48.3301 14.0118 46.7586 11.1469 45.7674C11.0593 45.7374 10.9674 45.7221 10.8747 45.722H4.99954V37.8217H7.49976C7.61143 37.8252 7.72268 37.8063 7.8269 37.7661C7.93113 37.7258 8.02619 37.665 8.10645 37.5873C8.18671 37.5096 8.25053 37.4165 8.29411 37.3136C8.3377 37.2107 8.36016 37.1001 8.36016 36.9884C8.36016 36.8767 8.3377 36.7661 8.29411 36.6632C8.25053 36.5603 8.18671 36.4673 8.10645 36.3895C8.02619 36.3118 7.93113 36.251 7.8269 36.2107C7.72268 36.1705 7.61143 36.1516 7.49976 36.1551H4.16671C4.05691 36.155 3.94817 36.1766 3.84674 36.2187C3.74532 36.2608 3.65322 36.3225 3.57573 36.4003C3.49825 36.4781 3.43692 36.5704 3.39526 36.672C3.35361 36.7736 3.33245 36.8825 3.33302 36.9923V46.5634C3.33302 46.6729 3.35459 46.7812 3.3965 46.8823C3.4384 46.9834 3.49983 47.0753 3.57725 47.1526C3.65468 47.23 3.74659 47.2913 3.84773 47.3331C3.94888 47.3749 4.05727 47.3964 4.16671 47.3963H10.7344C11.9686 47.8242 18.4028 50.0043 20.0993 50.0043C21.8111 50.0043 33.2235 47.6479 34.5185 47.3791C34.5821 47.366 34.6439 47.3453 34.7025 47.3175L45.1819 42.4155C45.5896 42.2244 45.94 41.9297 46.1982 41.5609C46.4564 41.192 46.6133 40.7618 46.6532 40.3133C46.6884 39.7234 46.5816 39.1337 46.3417 38.5936C46.1017 38.0535 45.7357 37.5789 45.2743 37.2097ZM35.1348 4.35081C36.0344 3.45207 39.5934 2.46774 42.2716 1.8934C41.7024 4.57165 40.7138 8.13152 39.8142 9.03026C39.1841 9.63233 38.3461 9.9683 37.4745 9.9683C36.603 9.9683 35.7649 9.63233 35.1348 9.03026C34.5156 8.40904 34.1678 7.56767 34.1678 6.69054C34.1678 5.8134 34.5156 4.97204 35.1348 4.35081ZM20.184 9.03026C19.2853 8.13152 18.2958 4.57165 17.7266 1.8934C20.4048 2.46346 23.9647 3.45207 24.8634 4.35081C25.4839 4.97137 25.8325 5.81299 25.8325 6.69054C25.8325 7.56809 25.4839 8.4097 24.8634 9.03026C24.2333 9.63233 23.3953 9.9683 22.5237 9.9683C21.6522 9.9683 20.8142 9.63233 20.184 9.03026Z" fill="black"/>
</g>
<defs>
<clipPath id="clip0_2039_18200">
<rect width="50" height="50" fill="white"/>
</clipPath>
</defs>
</svg>
