<svg width="50" height="50" viewBox="0 0 50 50" fill="none" xmlns="http://www.w3.org/2000/svg">
<g clip-path="url(#clip0_1725_10282)">
<path d="M22.9766 30.7969C22.3672 31.4062 21.3828 31.4062 20.7656 30.7969C20.1562 30.1797 20.1562 29.1953 20.7656 28.5859C21.3828 27.9687 22.9219 27.4219 23.5313 28.0312C24.1406 28.6406 23.5938 30.1797 22.9766 30.7969Z" fill="#FFCE54"/>
<path d="M14.4766 18.75H10.5469C9.46875 18.75 8.59375 17.875 8.59375 16.7969C8.59375 15.7188 9.46875 14.8438 10.5469 14.8438H8.20312C7.125 14.8438 6.25 13.9688 6.25 12.8906C6.25 11.8125 7.125 10.9375 8.20312 10.9375H10.5469C9.46875 10.9375 8.59375 10.0625 8.59375 8.98438C8.59375 7.90625 9.46875 7.03125 10.5469 7.03125H25.0078L22.3438 4L22.2734 3.90625C22.0242 3.57812 21.8828 3.17188 21.8828 2.73438C21.8828 1.65625 22.75 0.78125 23.8359 0.78125C24.1727 0.78125 24.5008 0.867188 24.7812 1.03125L24.7898 1.03906L33.1648 7.35938C34.2742 8.11719 35.243 9.05469 35.9461 10.1641H39.0625V19.5312H35.9453C34.8523 21.3984 32.8125 22.6562 30.4766 22.6562H14.4766C13.3898 22.6562 12.5234 21.7812 12.5234 20.7031C12.5234 19.625 13.3906 18.75 14.4766 18.75Z" fill="#EAC6BB"/>
<path d="M41.4062 9.375V20.3203H41.3984H39.0625V19.5313V10.1641V9.375H41.3984H41.4062Z" fill="#017D03"/>
<path d="M49.2188 8.59375V21.0938H41.4062V20.3203V9.375V8.59375H49.2188Z" fill="#017D03"/>
<path d="M30.7894 30.1485C31.3988 30.7579 31.3988 31.7422 30.7894 32.3594C30.18 32.9688 29.1956 32.9688 28.5785 32.3594C27.9691 31.7422 27.4222 30.2032 28.0316 29.5938C28.641 28.9844 30.18 29.5391 30.7894 30.1485Z" fill="#FFCE54"/>
<path d="M25 35.1562C25.8594 35.1562 26.5625 36.6406 26.5625 37.5C26.5625 38.3672 25.8594 39.0625 25 39.0625C24.1328 39.0625 23.4375 38.3672 23.4375 37.5C23.4375 36.6406 24.1328 35.1562 25 35.1562Z" fill="#FFCE54"/>
<path d="M49.2188 30.4688V49.2188H0.78125V30.4688H12.4922L25 42.9688L37.5078 30.4688H49.2188Z" fill="#965353"/>
<path d="M12.4945 31.25H0.78125C0.349219 31.25 0 30.9008 0 30.4688C0 30.0367 0.349219 29.6875 0.78125 29.6875H12.4945C12.9266 29.6875 13.2758 30.0367 13.2758 30.4688C13.2758 30.9008 12.9266 31.25 12.4945 31.25Z" fill="black"/>
<path d="M49.2191 31.25H37.5059C37.0738 31.25 36.7246 30.9008 36.7246 30.4688C36.7246 30.0367 37.0738 29.6875 37.5059 29.6875H49.2191C49.6512 29.6875 50.0004 30.0367 50.0004 30.4688C50.0004 30.9008 49.6512 31.25 49.2191 31.25Z" fill="black"/>
<path d="M25.0021 43.7531C24.8021 43.7531 24.6021 43.6765 24.4498 43.5242L11.942 31.021C11.6365 30.7156 11.6365 30.2218 11.942 29.9164C12.2475 29.6109 12.7412 29.6109 13.0467 29.9164L25.5545 42.4195C25.86 42.725 25.86 43.2187 25.5545 43.5242C25.4021 43.6765 25.2021 43.7531 25.0021 43.7531Z" fill="black"/>
<path d="M24.9982 43.7531C24.7982 43.7531 24.5982 43.6765 24.4459 43.5242C24.1404 43.2187 24.1404 42.725 24.4459 42.4195L36.9537 29.9164C37.2592 29.6109 37.7529 29.6109 38.0584 29.9164C38.3639 30.2218 38.3639 30.7156 38.0584 31.021L25.5506 43.5242C25.3982 43.6765 25.1982 43.7531 24.9982 43.7531Z" fill="black"/>
<path d="M49.2188 50H0.78125C0.349219 50 0 49.6508 0 49.2188C0 48.7867 0.349219 48.4375 0.78125 48.4375H49.2188C49.6508 48.4375 50 48.7867 50 49.2188C50 49.6508 49.6508 50 49.2188 50Z" fill="black"/>
<path d="M14.4738 23.4375C12.966 23.4375 11.7402 22.2109 11.7402 20.7031C11.7402 19.1953 12.966 17.9688 14.4738 17.9688C14.9059 17.9688 15.2551 18.318 15.2551 18.75C15.2551 19.182 14.9059 19.5312 14.4738 19.5312C13.8285 19.5312 13.3027 20.057 13.3027 20.7031C13.3027 21.3492 13.8285 21.875 14.4738 21.875C14.9059 21.875 15.2551 22.2242 15.2551 22.6562C15.2551 23.0883 14.9059 23.4375 14.4738 23.4375Z" fill="black"/>
<path d="M10.5508 19.5312C9.04297 19.5312 7.81641 18.3047 7.81641 16.7969C7.81641 15.2891 9.04297 14.0625 10.5508 14.0625C10.9828 14.0625 11.332 14.4117 11.332 14.8438C11.332 15.2758 10.9828 15.625 10.5508 15.625C9.90469 15.625 9.37891 16.1508 9.37891 16.7969C9.37891 17.443 9.90469 17.9688 10.5508 17.9688C10.9828 17.9688 11.332 18.318 11.332 18.75C11.332 19.182 10.9828 19.5312 10.5508 19.5312Z" fill="black"/>
<path d="M10.5508 11.7188C9.04297 11.7188 7.81641 10.4922 7.81641 8.98438C7.81641 7.47656 9.04297 6.25 10.5508 6.25C10.9828 6.25 11.332 6.59922 11.332 7.03125C11.332 7.46328 10.9828 7.8125 10.5508 7.8125C9.90469 7.8125 9.37891 8.33828 9.37891 8.98438C9.37891 9.63047 9.90469 10.1562 10.5508 10.1562C10.9828 10.1562 11.332 10.5055 11.332 10.9375C11.332 11.3695 10.9828 11.7188 10.5508 11.7188Z" fill="black"/>
<path d="M8.20703 15.625C6.69922 15.625 5.47266 14.3984 5.47266 12.8906C5.47266 11.3828 6.69922 10.1562 8.20703 10.1562C8.63906 10.1562 8.98828 10.5055 8.98828 10.9375C8.98828 11.3695 8.63906 11.7188 8.20703 11.7188C7.56094 11.7188 7.03516 12.2445 7.03516 12.8906C7.03516 13.5367 7.56094 14.0625 8.20703 14.0625C8.63906 14.0625 8.98828 14.4117 8.98828 14.8438C8.98828 15.2758 8.63906 15.625 8.20703 15.625Z" fill="black"/>
<path d="M30.4746 23.4375C30.0426 23.4375 29.6934 23.0883 29.6934 22.6563C29.6934 22.2243 30.0426 21.875 30.4746 21.875C32.4457 21.875 34.284 20.8258 35.2707 19.1368C35.4879 18.7657 35.9676 18.6391 36.3387 18.8571C36.7121 19.0743 36.8371 19.5532 36.6191 19.9258C35.3535 22.0914 32.9988 23.4375 30.4746 23.4375Z" fill="black"/>
<path d="M30.4746 23.4375H14.4746C14.0426 23.4375 13.6934 23.0883 13.6934 22.6562C13.6934 22.2242 14.0426 21.875 14.4746 21.875H30.4746C30.9066 21.875 31.2559 22.2242 31.2559 22.6562C31.2559 23.0883 30.9066 23.4375 30.4746 23.4375Z" fill="black"/>
<path d="M21.0984 19.5312H10.5508C10.1188 19.5312 9.76953 19.182 9.76953 18.75C9.76953 18.318 10.1188 17.9688 10.5508 17.9688H21.0984C21.5305 17.9688 21.8797 18.318 21.8797 18.75C21.8797 19.182 21.5305 19.5312 21.0984 19.5312Z" fill="black"/>
<path d="M21.0984 15.625H8.20703C7.775 15.625 7.42578 15.2758 7.42578 14.8438C7.42578 14.4117 7.775 14.0625 8.20703 14.0625H21.0984C21.5305 14.0625 21.8797 14.4117 21.8797 14.8438C21.8797 15.2758 21.5305 15.625 21.0984 15.625Z" fill="black"/>
<path d="M21.0984 11.7188H8.20703C7.775 11.7188 7.42578 11.3695 7.42578 10.9375C7.42578 10.5055 7.775 10.1562 8.20703 10.1562H21.0984C21.5305 10.1562 21.8797 10.5055 21.8797 10.9375C21.8797 11.3695 21.5305 11.7188 21.0984 11.7188Z" fill="black"/>
<path d="M25.007 7.8125H10.5508C10.1188 7.8125 9.76953 7.46328 9.76953 7.03125C9.76953 6.59922 10.1188 6.25 10.5508 6.25H25.007C25.4391 6.25 25.7883 6.59922 25.7883 7.03125C25.7883 7.46328 25.4391 7.8125 25.007 7.8125Z" fill="black"/>
<path d="M22.273 4.6875C22.0355 4.6875 21.8012 4.57969 21.648 4.37656C21.2902 3.90078 21.1004 3.33359 21.0996 2.73594C21.0996 1.22656 22.3262 0 23.834 0C24.3387 0 24.8324 0.138281 25.2598 0.400781C25.6285 0.625781 25.7441 1.10625 25.5184 1.47422C25.2934 1.84297 24.8113 1.96094 24.4449 1.73281C24.2629 1.62109 24.0512 1.5625 23.834 1.5625C23.1879 1.5625 22.6621 2.08828 22.6621 2.73438C22.6629 2.98984 22.7434 3.23359 22.8965 3.43594C23.1559 3.78047 23.0871 4.27031 22.7426 4.52969C22.6012 4.63672 22.4363 4.6875 22.273 4.6875Z" fill="black"/>
<path d="M25.0072 7.81248C24.7907 7.81248 24.5743 7.72264 24.4197 7.54607L21.7564 4.51092C21.472 4.1867 21.504 3.69295 21.829 3.40857C22.1525 3.12576 22.6462 3.15623 22.9314 3.48123L25.5947 6.51639C25.879 6.8406 25.847 7.33435 25.522 7.61873C25.3743 7.74842 25.19 7.81248 25.0072 7.81248Z" fill="black"/>
<path d="M35.9482 10.9468C35.6903 10.9468 35.4372 10.8187 35.288 10.5851C34.6693 9.61165 33.8068 8.74524 32.7247 8.00774C32.3677 7.76477 32.2755 7.27884 32.5185 6.92259C32.7614 6.56634 33.2482 6.47181 33.6036 6.71634C34.8622 7.57337 35.8724 8.59212 36.6068 9.74524C36.8388 10.1093 36.731 10.5921 36.3669 10.8241C36.2364 10.907 36.0911 10.9468 35.9482 10.9468Z" fill="black"/>
<path d="M33.1639 8.14371C32.9999 8.14371 32.8342 8.09293 32.6936 7.9859L24.3124 1.65153C23.9678 1.39137 23.8999 0.901528 24.16 0.557778C24.4186 0.212465 24.9108 0.143715 25.2538 0.405434L33.6358 6.73903C33.9803 6.99918 34.0483 7.48903 33.7882 7.83278C33.635 8.03668 33.4007 8.14371 33.1639 8.14371Z" fill="black"/>
<path d="M39.068 10.9469H35.9492C35.5172 10.9469 35.168 10.5977 35.168 10.1656C35.168 9.73362 35.5172 9.3844 35.9492 9.3844H39.068C39.5 9.3844 39.8492 9.73362 39.8492 10.1656C39.8492 10.5977 39.5 10.9469 39.068 10.9469Z" fill="black"/>
<path d="M39.0688 20.3125H35.9453C35.5133 20.3125 35.1641 19.9633 35.1641 19.5312C35.1641 19.0992 35.5133 18.75 35.9453 18.75H39.0688C39.5008 18.75 39.85 19.0992 39.85 19.5312C39.85 19.9633 39.5008 20.3125 39.0688 20.3125Z" fill="black"/>
<path d="M41.3977 21.1047H39.0625C38.6305 21.1047 38.2812 20.7555 38.2812 20.3234V9.375C38.2812 8.94297 38.6305 8.59375 39.0625 8.59375H41.3977C41.8297 8.59375 42.1789 8.94297 42.1789 9.375C42.1789 9.80703 41.8297 10.1562 41.3977 10.1562H39.8438V19.5422H41.3977C41.8297 19.5422 42.1789 19.8914 42.1789 20.3234C42.1789 20.7555 41.8297 21.1047 41.3977 21.1047Z" fill="black"/>
<path d="M49.218 21.875H41.4062C40.9742 21.875 40.625 21.5258 40.625 21.0938V8.59375C40.625 8.16172 40.9742 7.8125 41.4062 7.8125H49.218C49.65 7.8125 49.9992 8.16172 49.9992 8.59375C49.9992 9.02578 49.65 9.375 49.218 9.375H42.1875V20.3125H49.218C49.65 20.3125 49.9992 20.6617 49.9992 21.0938C49.9992 21.5258 49.65 21.875 49.218 21.875Z" fill="black"/>
<path d="M24.998 39.8469C23.7059 39.8469 22.6543 38.7953 22.6543 37.5032C22.6543 36.2586 23.5887 34.3766 24.998 34.3766C26.4074 34.3766 27.3418 36.2586 27.3418 37.5032C27.3418 38.7953 26.2902 39.8469 24.998 39.8469ZM24.9957 35.9391C24.748 35.9735 24.2168 36.8625 24.2168 37.5032C24.2168 37.9344 24.5668 38.2844 24.998 38.2844C25.4293 38.2844 25.7793 37.9344 25.7793 37.5032C25.7793 36.8625 25.248 35.9735 24.9957 35.9391Z" fill="black"/>
<path d="M29.6863 33.5953C29.0605 33.5953 28.4715 33.3507 28.0293 32.9085C27.1496 32.0289 26.4808 30.0382 27.4769 29.0421C27.7996 28.7187 28.2574 28.5476 28.8011 28.5476C29.6675 28.5476 30.7371 28.9875 31.3441 29.5937C32.2566 30.5085 32.2566 31.9945 31.3449 32.9085C30.9019 33.3507 30.3129 33.5953 29.6863 33.5953ZM28.8011 30.1101C28.6613 30.1101 28.5925 30.1382 28.58 30.1484C28.4285 30.3476 28.6808 31.3507 29.134 31.8039C29.43 32.0984 29.9433 32.0984 30.2394 31.8039C30.5433 31.4992 30.5433 31.0039 30.2386 30.6992C29.9613 30.421 29.2871 30.1101 28.8011 30.1101Z" fill="black"/>
<path d="M21.8737 32.0321C21.2479 32.0321 20.6597 31.7883 20.2175 31.3469C19.3026 30.4321 19.3026 28.9446 20.2167 28.0305C20.8229 27.4243 21.8925 26.9836 22.7589 26.9836C23.3026 26.9836 23.7604 27.1547 24.0839 27.4782C25.0792 28.4735 24.4104 30.4657 23.5315 31.3461C23.0878 31.7883 22.4995 32.0321 21.8737 32.0321ZM22.7589 28.5461C22.2737 28.5461 21.5995 28.8571 21.3214 29.1352C21.0159 29.4407 21.0159 29.936 21.3214 30.2415C21.6159 30.5344 22.1308 30.5352 22.4269 30.2407C22.8792 29.7875 23.1323 28.7836 22.9776 28.5813C22.9675 28.5743 22.8995 28.5461 22.7589 28.5461Z" fill="black"/>
<path d="M3.14844 46.875C2.71641 46.875 2.36328 46.5258 2.36328 46.0938C2.36328 45.6617 2.70859 45.3125 3.13984 45.3125H3.14844C3.57969 45.3125 3.92969 45.6617 3.92969 46.0938C3.92969 46.5258 3.57969 46.875 3.14844 46.875Z" fill="black"/>
<path d="M3.14844 40.625C2.71641 40.625 2.36328 40.2758 2.36328 39.8438C2.36328 39.4117 2.70859 39.0625 3.13984 39.0625H3.14844C3.57969 39.0625 3.92969 39.4117 3.92969 39.8438C3.92969 40.2758 3.57969 40.625 3.14844 40.625Z" fill="black"/>
<path d="M6.27344 43.75C5.84141 43.75 5.48828 43.4008 5.48828 42.9688C5.48828 42.5367 5.83359 42.1875 6.26484 42.1875H6.27344C6.70469 42.1875 7.05469 42.5367 7.05469 42.9688C7.05469 43.4008 6.70469 43.75 6.27344 43.75Z" fill="black"/>
<path d="M9.39844 46.875C8.96641 46.875 8.61328 46.5258 8.61328 46.0938C8.61328 45.6617 8.95859 45.3125 9.38984 45.3125H9.39844C9.82969 45.3125 10.1797 45.6617 10.1797 46.0938C10.1797 46.5258 9.82969 46.875 9.39844 46.875Z" fill="black"/>
<path d="M3.14844 34.375C2.71641 34.375 2.36328 34.0258 2.36328 33.5938C2.36328 33.1617 2.70859 32.8125 3.13984 32.8125H3.14844C3.57969 32.8125 3.92969 33.1617 3.92969 33.5938C3.92969 34.0258 3.57969 34.375 3.14844 34.375Z" fill="black"/>
<path d="M6.27344 37.5C5.84141 37.5 5.48828 37.1508 5.48828 36.7188C5.48828 36.2867 5.83359 35.9375 6.26484 35.9375H6.27344C6.70469 35.9375 7.05469 36.2867 7.05469 36.7188C7.05469 37.1508 6.70469 37.5 6.27344 37.5Z" fill="black"/>
<path d="M9.39844 40.625C8.96641 40.625 8.61328 40.2758 8.61328 39.8438C8.61328 39.4117 8.95859 39.0625 9.38984 39.0625H9.39844C9.82969 39.0625 10.1797 39.4117 10.1797 39.8438C10.1797 40.2758 9.82969 40.625 9.39844 40.625Z" fill="black"/>
<path d="M12.5234 43.75C12.0914 43.75 11.7383 43.4008 11.7383 42.9688C11.7383 42.5367 12.0836 42.1875 12.5148 42.1875H12.5234C12.9547 42.1875 13.3047 42.5367 13.3047 42.9688C13.3047 43.4008 12.9547 43.75 12.5234 43.75Z" fill="black"/>
<path d="M15.6484 46.875C15.2164 46.875 14.8633 46.5258 14.8633 46.0938C14.8633 45.6617 15.2086 45.3125 15.6398 45.3125H15.6484C16.0797 45.3125 16.4297 45.6617 16.4297 46.0938C16.4297 46.5258 16.0797 46.875 15.6484 46.875Z" fill="black"/>
<path d="M9.39844 34.375C8.96641 34.375 8.61328 34.0258 8.61328 33.5938C8.61328 33.1617 8.95859 32.8125 9.38984 32.8125H9.39844C9.82969 32.8125 10.1797 33.1617 10.1797 33.5938C10.1797 34.0258 9.82969 34.375 9.39844 34.375Z" fill="black"/>
<path d="M12.5234 37.5C12.0914 37.5 11.7383 37.1508 11.7383 36.7188C11.7383 36.2867 12.0836 35.9375 12.5148 35.9375H12.5234C12.9547 35.9375 13.3047 36.2867 13.3047 36.7188C13.3047 37.1508 12.9547 37.5 12.5234 37.5Z" fill="black"/>
<path d="M15.6484 40.625C15.2164 40.625 14.8633 40.2758 14.8633 39.8438C14.8633 39.4117 15.2086 39.0625 15.6398 39.0625H15.6484C16.0797 39.0625 16.4297 39.4117 16.4297 39.8438C16.4297 40.2758 16.0797 40.625 15.6484 40.625Z" fill="black"/>
<path d="M18.7734 43.75C18.3414 43.75 17.9883 43.4008 17.9883 42.9688C17.9883 42.5367 18.3336 42.1875 18.7648 42.1875H18.7734C19.2047 42.1875 19.5547 42.5367 19.5547 42.9688C19.5547 43.4008 19.2047 43.75 18.7734 43.75Z" fill="black"/>
<path d="M21.8984 46.875C21.4664 46.875 21.1133 46.5258 21.1133 46.0938C21.1133 45.6617 21.4586 45.3125 21.8898 45.3125H21.8984C22.3297 45.3125 22.6797 45.6617 22.6797 46.0938C22.6797 46.5258 22.3297 46.875 21.8984 46.875Z" fill="black"/>
<path d="M28.1484 46.875C27.7164 46.875 27.3633 46.5258 27.3633 46.0938C27.3633 45.6617 27.7086 45.3125 28.1398 45.3125H28.1484C28.5797 45.3125 28.9297 45.6617 28.9297 46.0938C28.9297 46.5258 28.5797 46.875 28.1484 46.875Z" fill="black"/>
<path d="M31.2734 43.75C30.8414 43.75 30.4883 43.4008 30.4883 42.9688C30.4883 42.5367 30.8336 42.1875 31.2648 42.1875H31.2734C31.7047 42.1875 32.0547 42.5367 32.0547 42.9688C32.0547 43.4008 31.7047 43.75 31.2734 43.75Z" fill="black"/>
<path d="M34.3984 46.875C33.9664 46.875 33.6133 46.5258 33.6133 46.0938C33.6133 45.6617 33.9586 45.3125 34.3898 45.3125H34.3984C34.8297 45.3125 35.1797 45.6617 35.1797 46.0938C35.1797 46.5258 34.8297 46.875 34.3984 46.875Z" fill="black"/>
<path d="M34.3984 40.625C33.9664 40.625 33.6133 40.2758 33.6133 39.8438C33.6133 39.4117 33.9586 39.0625 34.3898 39.0625H34.3984C34.8297 39.0625 35.1797 39.4117 35.1797 39.8438C35.1797 40.2758 34.8297 40.625 34.3984 40.625Z" fill="black"/>
<path d="M37.5234 43.75C37.0914 43.75 36.7383 43.4008 36.7383 42.9688C36.7383 42.5367 37.0836 42.1875 37.5148 42.1875H37.5234C37.9547 42.1875 38.3047 42.5367 38.3047 42.9688C38.3047 43.4008 37.9547 43.75 37.5234 43.75Z" fill="black"/>
<path d="M40.6484 46.875C40.2164 46.875 39.8633 46.5258 39.8633 46.0938C39.8633 45.6617 40.2086 45.3125 40.6398 45.3125H40.6484C41.0797 45.3125 41.4297 45.6617 41.4297 46.0938C41.4297 46.5258 41.0797 46.875 40.6484 46.875Z" fill="black"/>
<path d="M37.5234 37.5C37.0914 37.5 36.7383 37.1508 36.7383 36.7188C36.7383 36.2867 37.0836 35.9375 37.5148 35.9375H37.5234C37.9547 35.9375 38.3047 36.2867 38.3047 36.7188C38.3047 37.1508 37.9547 37.5 37.5234 37.5Z" fill="black"/>
<path d="M40.6484 40.625C40.2164 40.625 39.8633 40.2758 39.8633 39.8438C39.8633 39.4117 40.2086 39.0625 40.6398 39.0625H40.6484C41.0797 39.0625 41.4297 39.4117 41.4297 39.8438C41.4297 40.2758 41.0797 40.625 40.6484 40.625Z" fill="black"/>
<path d="M43.7734 43.75C43.3414 43.75 42.9883 43.4008 42.9883 42.9688C42.9883 42.5367 43.3336 42.1875 43.7648 42.1875H43.7734C44.2047 42.1875 44.5547 42.5367 44.5547 42.9688C44.5547 43.4008 44.2047 43.75 43.7734 43.75Z" fill="black"/>
<path d="M46.8984 46.875C46.4664 46.875 46.1133 46.5258 46.1133 46.0938C46.1133 45.6617 46.4586 45.3125 46.8898 45.3125H46.8984C47.3297 45.3125 47.6797 45.6617 47.6797 46.0938C47.6797 46.5258 47.3297 46.875 46.8984 46.875Z" fill="black"/>
<path d="M40.6484 34.375C40.2164 34.375 39.8633 34.0258 39.8633 33.5938C39.8633 33.1617 40.2086 32.8125 40.6398 32.8125H40.6484C41.0797 32.8125 41.4297 33.1617 41.4297 33.5938C41.4297 34.0258 41.0797 34.375 40.6484 34.375Z" fill="black"/>
<path d="M43.7734 37.5C43.3414 37.5 42.9883 37.1508 42.9883 36.7188C42.9883 36.2867 43.3336 35.9375 43.7648 35.9375H43.7734C44.2047 35.9375 44.5547 36.2867 44.5547 36.7188C44.5547 37.1508 44.2047 37.5 43.7734 37.5Z" fill="black"/>
<path d="M46.8984 40.625C46.4664 40.625 46.1133 40.2758 46.1133 39.8438C46.1133 39.4117 46.4586 39.0625 46.8898 39.0625H46.8984C47.3297 39.0625 47.6797 39.4117 47.6797 39.8438C47.6797 40.2758 47.3297 40.625 46.8984 40.625Z" fill="black"/>
<path d="M46.8984 34.375C46.4664 34.375 46.1133 34.0258 46.1133 33.5938C46.1133 33.1617 46.4586 32.8125 46.8898 32.8125H46.8984C47.3297 32.8125 47.6797 33.1617 47.6797 33.5938C47.6797 34.0258 47.3297 34.375 46.8984 34.375Z" fill="black"/>
</g>
<defs>
<clipPath id="clip0_1725_10282">
<rect width="50" height="50" fill="white"/>
</clipPath>
</defs>
</svg>
