<svg width="50" height="50" viewBox="0 0 50 50" fill="none" xmlns="http://www.w3.org/2000/svg">
<g clip-path="url(#clip0_1725_10422)">
<path d="M6.15039 42.5835C6.40869 42.5335 6.66708 42.5002 6.92538 42.4752C6.7291 42.6051 6.48867 42.6501 6.25869 42.6002C6.22334 42.5906 6.18701 42.585 6.15039 42.5835Z" fill="#61443C"/>
<path d="M49.1667 49.1669H46.6667C46.6827 46.1633 44.6967 43.5165 41.8085 42.6919C41.2437 42.5376 40.6608 42.459 40.0752 42.4587C39.8384 42.4559 39.6017 42.4698 39.3669 42.5003C39.5457 41.7552 39.6352 40.9916 39.6336 40.2254C39.6704 35.5644 36.2626 31.5909 31.6504 30.9172C32.0678 30.8639 32.488 30.8361 32.9087 30.8339C35.3779 30.8545 37.7375 31.8559 39.4679 33.6174C41.1982 35.379 42.1572 37.7563 42.1336 40.2254C42.1352 40.9916 42.0457 41.7552 41.8669 42.5003C42.1018 42.4699 42.3385 42.4559 42.5752 42.4587C46.2471 42.4923 49.1974 45.4949 49.1667 49.1669Z" fill="#61443C"/>
<path d="M46.667 49.167H0.834101C0.815449 45.9875 3.03857 43.2347 6.15075 42.5837C6.18737 42.5852 6.2237 42.5908 6.25905 42.6004C6.48903 42.6503 6.72945 42.6053 6.92574 42.4754C7.09244 42.4671 7.25904 42.4587 7.42574 42.4587C7.87397 42.4587 8.32084 42.5062 8.75902 42.6004C8.98598 42.655 9.22533 42.6148 9.42181 42.489C9.61839 42.3632 9.75521 42.1627 9.80061 41.9338C10.5506 38.0563 13.6683 35.0757 17.5755 34.5006C17.9979 34.4404 18.4239 34.4099 18.8505 34.4089C20.1475 34.4073 21.4295 34.6859 22.6088 35.2256C22.9913 35.4036 23.3615 35.6068 23.7171 35.8339C23.9162 35.9612 24.1592 36.0004 24.3882 35.9419C24.6172 35.8835 24.8117 35.7327 24.9255 35.5255C26.3291 33.0351 28.8056 31.3338 31.6337 30.9172H31.6504C36.2626 31.591 39.6705 35.5645 39.6336 40.2254C39.6353 40.9916 39.5457 41.7553 39.3669 42.5004C39.6018 42.47 39.8385 42.456 40.0752 42.4587C40.6608 42.4592 41.2437 42.5376 41.8085 42.692C44.697 43.5165 46.683 46.1633 46.667 49.167Z" fill="#8B685A"/>
<path d="M49.1679 0.833984C49.1679 0.833984 48.4846 26.7087 30.368 25.467C28.3937 25.3158 26.4456 24.9212 24.5681 24.2921C24.4348 24.2588 24.3014 24.2088 24.1681 24.1671C24.1681 24.1671 24.1098 23.9504 24.0264 23.5671C23.3764 20.2421 21.5764 4.13395 46.6595 1.09228C47.4679 0.992381 48.3013 0.900683 49.1679 0.833984Z" fill="#66993E"/>
<path d="M46.6595 1.09241C46.5345 3.65068 45.0763 24.3505 30.368 25.4672C28.3937 25.3159 26.4456 24.9213 24.5681 24.2922C24.4348 24.2589 24.3014 24.2089 24.1681 24.1672C24.1681 24.1672 24.1098 23.9505 24.0264 23.5672C23.3765 20.2422 21.5765 4.13398 46.6595 1.09241Z" fill="#9ACA5C"/>
<path d="M20.2338 24.1922C20.1588 24.5755 20.1005 24.7922 20.1005 24.7922C19.9672 24.8339 19.8338 24.8839 19.7005 24.9172C17.6004 25.6425 15.3751 25.9345 13.1589 25.7755C2.15897 24.7172 0.958983 9.30064 0.842285 7.07566C0.833984 6.90066 0.833984 6.80896 0.833984 6.80896C21.8505 8.50894 20.7671 21.2588 20.2338 24.1922Z" fill="#66993E"/>
<path d="M17.7083 24.1922C17.6333 24.5755 17.575 24.7922 17.575 24.7922C17.4417 24.8339 17.3083 24.8839 17.175 24.9172C15.8712 25.3481 14.5245 25.6359 13.1584 25.7755C2.15848 24.7172 0.958495 9.30066 0.841797 7.07568C19.2333 9.55896 18.2166 21.3838 17.7083 24.1922Z" fill="#9ACA5C"/>
<path d="M15.8331 41.667C16.1701 41.6669 16.4739 41.4638 16.6028 41.1525C16.7317 40.8412 16.6605 40.4828 16.4223 40.2445L15.589 39.4112C15.2627 39.0908 14.7393 39.0933 14.4159 39.4165C14.0926 39.7398 14.0902 40.2633 14.4107 40.5895L15.2439 41.4228C15.4 41.5793 15.612 41.6672 15.8331 41.667Z" fill="black"/>
<path d="M28.5779 38.9227C28.9042 39.2431 29.4276 39.2407 29.751 38.9174C30.0743 38.5941 30.0766 38.0707 29.7562 37.7444L28.9229 36.9111C28.5967 36.5907 28.0732 36.5931 27.7499 36.9164C27.4266 37.2396 27.4242 37.7631 27.7446 38.0894L28.5779 38.9227Z" fill="black"/>
<path d="M28.9229 44.4111C28.5967 44.0907 28.0732 44.0931 27.7499 44.4164C27.4266 44.7397 27.4242 45.2631 27.7446 45.5894L28.5779 46.4227C28.9042 46.7431 29.4276 46.7407 29.751 46.4174C30.0743 46.0941 30.0766 45.5707 29.7562 45.2444L28.9229 44.4111Z" fill="black"/>
<path d="M37.7439 46.4227C38.0702 46.7431 38.5936 46.7407 38.917 46.4174C39.2403 46.0941 39.2427 45.5707 38.9223 45.2444L38.089 44.4111C37.7627 44.0907 37.2393 44.0931 36.9159 44.4164C36.5926 44.7397 36.5902 45.2631 36.9107 45.5894L37.7439 46.4227Z" fill="black"/>
<path d="M19.9992 40.0003C20.2203 40.0005 20.4323 39.9127 20.5883 39.7561L21.4216 38.9228C21.742 38.5966 21.7396 38.0731 21.4163 37.7498C21.093 37.4264 20.5696 37.4241 20.2433 37.7445L19.41 38.5778C19.1717 38.8161 19.1005 39.1745 19.2294 39.4858C19.3584 39.7971 19.6622 40.0002 19.9992 40.0003Z" fill="black"/>
<path d="M32.4992 43.3335C32.7203 43.3338 32.9323 43.2459 33.0883 43.0894L33.9216 42.2561C34.242 41.9298 34.2396 41.4064 33.9163 41.083C33.593 40.7597 33.0696 40.7574 32.7433 41.0778L31.91 41.9111C31.6717 42.1493 31.6005 42.5077 31.7294 42.8191C31.8584 43.1305 32.1622 43.3335 32.4992 43.3335Z" fill="black"/>
<path d="M33.3331 35.8336C33.5542 35.8339 33.7662 35.746 33.9223 35.5895L34.7556 34.7562C35.076 34.4299 35.0736 33.9065 34.7503 33.5832C34.427 33.2598 33.9036 33.2575 33.5773 33.5779L32.744 34.4112C32.5057 34.6495 32.4345 35.0079 32.5634 35.3192C32.6923 35.6306 32.9961 35.8336 33.3331 35.8336Z" fill="black"/>
<path d="M16.0769 44.4111L15.2436 45.2444C15.0299 45.4543 14.9453 45.7627 15.0219 46.0521C15.0986 46.3417 15.3246 46.5677 15.6142 46.6444C15.9037 46.721 16.212 46.6364 16.4219 46.4227L17.2552 45.5894C17.5756 45.2631 17.5732 44.7397 17.2499 44.4164C16.9266 44.0931 16.4031 44.0907 16.0769 44.4111Z" fill="black"/>
<path d="M22.7448 41.9111L21.9116 42.7444C21.6979 42.9543 21.6132 43.2627 21.6899 43.5521C21.7665 43.8417 21.9926 44.0677 22.2822 44.1444C22.5717 44.221 22.88 44.1364 23.0899 43.9227L23.9232 43.0894C24.2436 42.7631 24.2411 42.2397 23.9179 41.9164C23.5945 41.5931 23.071 41.5907 22.7448 41.9111Z" fill="black"/>
<path d="M37.4992 40.0003C37.7203 40.0005 37.9323 39.9127 38.0883 39.7561L38.9216 38.9228C39.242 38.5966 39.2396 38.0731 38.9163 37.7498C38.593 37.4264 38.0696 37.4241 37.7433 37.7445L36.91 38.5778C36.6717 38.8161 36.6005 39.1745 36.7294 39.4858C36.8584 39.7971 37.1622 40.0002 37.4992 40.0003Z" fill="black"/>
<path d="M6.91086 45.2443L6.07757 46.0776C5.8639 46.2875 5.77924 46.5959 5.8559 46.8853C5.93255 47.1748 6.15863 47.4009 6.44817 47.4776C6.73772 47.5543 7.04602 47.4696 7.25588 47.2559L8.08917 46.4226C8.40958 46.0964 8.40714 45.5729 8.0839 45.2496C7.76047 44.9264 7.23703 44.924 6.91086 45.2443Z" fill="black"/>
<path d="M11.9109 43.5778L11.0776 44.4111C10.8639 44.6209 10.7792 44.9293 10.8559 45.2188C10.9326 45.5083 11.1586 45.7344 11.4482 45.811C11.7377 45.8877 12.046 45.803 12.2559 45.5894L13.0892 44.7561C13.4096 44.4298 13.4071 43.9064 13.0839 43.583C12.7605 43.2597 12.237 43.2574 11.9109 43.5778Z" fill="black"/>
<path d="M19.7555 41.0778C19.5992 40.9214 19.3873 40.8336 19.1663 40.8336C18.9453 40.8336 18.7334 40.9214 18.5772 41.0778L17.7439 41.911C17.5312 42.1211 17.4473 42.429 17.5241 42.7179C17.6008 43.0067 17.8265 43.2324 18.1154 43.3092C18.4042 43.3859 18.7121 43.3021 18.9222 43.0894L19.7555 42.2561C19.9118 42.0998 19.9996 41.8879 19.9996 41.6669C19.9996 41.4459 19.9118 41.2339 19.7555 41.0778Z" fill="black"/>
<path d="M20.589 45.2444C20.2627 44.9239 19.7393 44.9264 19.4159 45.2496C19.0926 45.573 19.0902 46.0964 19.4107 46.4227L20.2439 47.256C20.4538 47.4696 20.7622 47.5543 21.0517 47.4776C21.3412 47.401 21.5673 47.1749 21.6439 46.8854C21.7206 46.5958 21.6359 46.2875 21.4223 46.0776L20.589 45.2444Z" fill="black"/>
<path d="M33.5769 44.4111L32.7436 45.2444C32.5299 45.4543 32.4453 45.7627 32.5219 46.0521C32.5986 46.3417 32.8246 46.5677 33.1142 46.6444C33.4037 46.721 33.712 46.6364 33.9219 46.4227L34.7552 45.5894C35.0756 45.2631 35.0732 44.7397 34.7499 44.4164C34.4266 44.0931 33.9031 44.0907 33.5769 44.4111Z" fill="black"/>
<path d="M41.91 47.2561C42.2362 47.5765 42.7597 47.574 43.083 47.2508C43.4063 46.9276 43.4087 46.404 43.0883 46.0778L42.255 45.2445C41.9287 44.9241 41.4053 44.9265 41.0819 45.2498C40.7586 45.5731 40.7563 46.0965 41.0767 46.4228L41.91 47.2561Z" fill="black"/>
<path d="M33.3331 39.167C33.5542 39.1673 33.7662 39.0794 33.9223 38.9229L34.7556 38.0896C35.076 37.7633 35.0736 37.2399 34.7503 36.9165C34.4271 36.5932 33.9036 36.5909 33.5773 36.9113L32.744 37.7446C32.5057 37.9829 32.4345 38.3412 32.5634 38.6526C32.6923 38.9639 32.9961 39.1669 33.3331 39.167Z" fill="black"/>
<path d="M26.6671 42.5003C26.8882 42.5005 27.1002 42.4127 27.2563 42.2561L28.0896 41.4228C28.41 41.0966 28.4075 40.5731 28.0843 40.2498C27.7611 39.9264 27.2375 39.9241 26.9113 40.2445L26.078 41.0778C25.8397 41.3161 25.7685 41.6745 25.8974 41.9858C26.0264 42.2971 26.3301 42.5002 26.6671 42.5003Z" fill="black"/>
<path d="M24.7378 25.2088C26.9583 25.9297 29.2737 26.316 31.6079 26.355C34.694 26.408 37.7193 25.4929 40.2585 23.7382C49.4601 17.3198 49.9818 1.52537 49.9997 0.855947C50.0054 0.619524 49.9108 0.391694 49.7392 0.228902C49.5682 0.0649392 49.3348 -0.0171889 49.0988 0.00351405C37.8229 0.917861 30.0374 4.35005 25.9586 10.2053C23.181 14.3215 22.2284 19.4028 23.3262 24.2458C22.9931 25.0627 22.7364 25.9088 22.5594 26.7732C22.112 26.0221 21.5832 25.3226 20.9826 24.6875C21.7661 20.9611 21.0061 17.0763 18.8761 13.9199C15.6983 9.3585 9.65103 6.68558 0.901119 5.9764C0.665086 5.95551 0.431592 6.03773 0.260695 6.20179C0.0891149 6.36458 -0.0055131 6.59242 0.000248566 6.82884C0.0141156 7.34846 0.419385 19.6147 7.58973 24.616C9.57779 25.9911 11.9468 26.7085 14.3638 26.6675C16.1825 26.6373 17.9865 26.3367 19.7167 25.7751C20.8582 26.9966 21.7208 28.4516 22.2449 30.0393C22.2594 31.5171 22.4556 32.9875 22.829 34.4173C21.5749 33.864 20.2194 33.578 18.8487 33.5775C14.0197 33.626 9.88511 37.0508 8.93834 41.7862C8.44089 41.6795 7.93347 41.626 7.42469 41.6263C3.29436 41.6634 -0.0267043 45.0365 0.000443877 49.1669C0.000346221 49.3879 0.0881383 49.5999 0.244484 49.7563C0.400733 49.9125 0.612743 50.0003 0.833834 50.0003H49.1667C49.3877 50.0004 49.5997 49.9126 49.756 49.7563C49.9123 49.6 50.0001 49.388 50.0001 49.1669C50.0244 45.153 46.8835 41.8318 42.8744 41.6324C42.9379 41.1656 42.9697 40.6951 42.9697 40.2241C43.0589 35.7638 40.1895 31.7813 35.9304 30.4542C31.6711 29.1271 27.0474 30.7747 24.5873 34.4962C23.6571 31.4619 23.71 28.2113 24.7378 25.2088ZM8.54665 23.2512C3.14143 19.485 1.96878 10.6293 1.72709 7.72443C9.42233 8.49796 14.7242 10.8937 17.4943 14.8525C18.9917 17.05 19.7266 19.678 19.5864 22.3335C17.3156 18.8802 11.9859 12.0088 3.72004 8.60538C3.44465 8.49161 3.12942 8.53351 2.89329 8.71525C2.65716 8.89698 2.53606 9.19112 2.57571 9.48643C2.61536 9.78174 2.8096 10.0335 3.08528 10.1467C11.8021 13.7356 17.223 21.6481 18.8461 24.2944C14.7259 25.4793 11.2586 25.1417 8.54665 23.2512ZM27.3404 11.1375C31.0122 5.8848 38.054 2.7281 48.2785 1.7491C48.0197 5.20366 46.6029 17.2812 39.3047 22.3715C35.6487 24.9218 30.9737 25.3568 25.4079 23.6833C27.2911 20.5495 34.4395 9.76016 46.1504 4.93794C46.4257 4.82456 46.6196 4.5729 46.6591 4.27779C46.6985 3.98267 46.5775 3.68883 46.3417 3.50709C46.1059 3.32536 45.7909 3.28327 45.5156 3.39664C34.3149 8.009 27.2912 17.5592 24.6316 21.7492C24.2744 18.0047 25.2322 14.2526 27.3404 11.1375ZM25.6534 35.9391C27.1277 33.3138 29.8983 31.6826 32.9092 31.6671C37.5875 31.718 41.342 35.5456 41.3027 40.2241C41.3026 40.9261 41.219 41.6256 41.0537 42.3078C40.9882 42.5776 41.0615 42.8622 41.2489 43.067C41.4363 43.2717 41.7134 43.3697 41.9879 43.3283C42.1826 43.3017 42.379 43.2899 42.5755 43.2929C45.4651 43.3206 47.8945 45.4691 48.2754 48.3336H1.72465C2.1054 45.4691 4.53487 43.3206 7.42449 43.2929C7.81511 43.2925 8.20466 43.3336 8.58659 43.4154C9.03795 43.5116 9.50914 43.425 9.89683 43.1745C10.2736 42.9285 10.5346 42.5404 10.6203 42.0986C11.3813 38.1462 14.8236 35.2786 18.8485 35.244C20.4154 35.2438 21.9497 35.6914 23.2706 36.5342C23.6622 36.7843 24.1395 36.8621 24.5901 36.7495C25.0409 36.6371 25.4255 36.344 25.6534 35.9391Z" fill="black"/>
</g>
<defs>
<clipPath id="clip0_1725_10422">
<rect width="50" height="50" fill="white" transform="translate(0 0.000244141)"/>
</clipPath>
</defs>
</svg>
