<svg width="50" height="50" viewBox="0 0 50 50" fill="none" xmlns="http://www.w3.org/2000/svg">
<g clip-path="url(#clip0_1725_10203)">
<path d="M45.1939 23.041L44.2851 24.6587L43.4593 26.118L41.7501 29.153H11.6891C10.1333 29.1566 8.78273 28.0821 8.43705 26.5654C8.09137 25.0487 8.84259 23.4946 10.2461 22.824C10.0987 22.4494 10.0225 22.0508 10.0213 21.6481C10.0213 19.8061 11.5144 18.3126 13.3568 18.3126C13.6646 18.3171 13.9708 18.3647 14.2656 18.4547C14.5706 17.0475 15.744 15.9954 17.1756 15.8444C16.8621 15.3322 16.6948 14.7438 16.6923 14.1432C16.6923 12.3012 18.1854 10.8077 20.0278 10.8077C20.1756 10.8134 20.323 10.8273 20.4696 10.8497C21.051 9.79553 22.1593 9.1404 23.3633 9.14C23.7656 9.14163 24.1642 9.21776 24.5388 9.36516C25.0877 8.20922 26.253 7.47266 27.5327 7.47266C28.812 7.47266 29.9773 8.20922 30.5262 9.36516C30.9007 9.21776 31.2994 9.14163 31.702 9.14C32.9056 9.1404 34.0139 9.79553 34.5954 10.8497C34.7419 10.8273 34.8893 10.8134 35.0375 10.8077C36.7977 10.809 38.2545 12.1779 38.3645 13.9348C38.3714 14.004 38.3743 14.0736 38.373 14.1432C38.3702 14.7438 38.2028 15.3322 37.8893 15.8444C39.3209 15.9954 40.4944 17.0475 40.7993 18.4547C41.0941 18.3647 41.4003 18.3171 41.7085 18.3126C43.5505 18.3126 45.044 19.8061 45.044 21.6481C45.0424 22.0508 44.9663 22.4494 44.8189 22.824C44.9492 22.8863 45.0746 22.9588 45.1939 23.041Z" fill="#7CA540"/>
<path d="M48.7191 11.1417C49.6197 9.02277 49.3189 6.86602 48.0469 6.32571C47.0404 5.899 45.7338 6.62172 44.7834 7.99346C44.373 7.30372 43.6218 6.88923 42.8197 6.90958C41.4488 7.07652 40.5681 9.06674 40.8433 11.3526C41.1186 13.638 42.4618 15.355 43.8335 15.1885C44.4443 15.0724 44.9654 14.6771 45.2411 14.1201C46.4512 14.2316 47.9219 13.0195 48.7191 11.1417Z" fill="#88BF40"/>
<path d="M47.8538 16.9536C47.8538 17.2952 47.82 17.636 47.7541 17.9711C47.6405 18.511 47.4467 19.0313 47.1783 19.5134L47.1702 19.5387L45.1938 23.0411L44.285 24.6588L43.4593 26.118L41.75 29.1531L36.4634 38.5675C35.7655 39.8077 34.2476 40.3253 32.9377 39.7699C31.6279 39.2141 30.9447 37.763 31.3514 36.3994L33.5196 29.1531L36.4133 19.4971L36.8885 17.8958L37.6222 15.4528C37.7826 14.9088 38.0334 14.3954 38.3644 13.9349C39.6788 12.077 42.0444 11.2834 44.2134 11.9731C46.3823 12.6633 47.8546 14.6775 47.8538 16.9536Z" fill="#FAAC2B"/>
<path d="M32.5349 37.4917C32.5349 42.0971 28.8012 45.8304 24.1962 45.8304C19.5907 45.8304 15.8574 42.0971 15.8574 37.4917C15.8574 32.8867 19.5907 29.153 24.1962 29.153C28.8012 29.153 32.5349 32.8867 32.5349 37.4917Z" fill="#9F1F5A"/>
<path d="M32.8292 29.4282C35.3512 26.6892 35.7132 22.5956 33.7107 19.4568C34.2002 19.0516 34.4172 18.4038 34.2698 17.7858C34.1224 17.1673 33.6366 16.6868 33.0173 16.546C32.3976 16.4051 31.7519 16.6282 31.3516 17.1221C31.3134 17.1705 31.2779 17.2214 31.245 17.274C28.1322 15.6368 23.9995 16.4841 21.3761 19.5154C18.7527 22.5463 18.506 26.7572 20.5715 29.605C20.5243 29.6453 20.4791 29.688 20.4364 29.7328C19.8443 30.4299 19.9245 31.4742 20.6163 32.0728C21.3077 32.6717 22.3525 32.6017 22.9579 31.9156C23.0052 31.8578 23.0483 31.7963 23.0874 31.7324C26.4811 33.2637 30.4811 32.3179 32.8292 29.4282Z" fill="#FDE700"/>
<path d="M4.9386 26.2804C5.19307 30.8785 9.26472 36.898 13.8612 36.644C18.4573 36.3895 21.8429 29.9587 21.5884 25.3598C21.3343 20.7609 17.4467 18.0728 12.8486 18.3268C8.25088 18.5813 4.68412 21.6815 4.9386 26.2804Z" fill="#9F1F5A"/>
<path d="M8.0059 3.05293C5.61015 1.96783 2.78361 2.92263 1.53646 5.23777C0.289315 7.55332 1.04786 10.4389 3.2718 11.842C3.20787 13.6286 4.10486 15.3131 5.62318 16.2573C7.14149 17.2015 9.04906 17.2609 10.6232 16.4132C10.9619 16.2337 11.2783 16.0142 11.5645 15.7593L13.8463 15.6335C14.1586 15.8554 14.4969 16.0382 14.8536 16.1791C16.5116 16.8481 18.4008 16.5785 19.8059 15.4731C21.2107 14.3672 21.9167 12.5944 21.6561 10.8253C23.7005 9.18279 24.1296 6.24062 22.6398 4.08265C21.1496 1.92427 18.2461 1.28298 15.9859 2.61278L8.0059 3.05293Z" fill="#88BF40"/>
<path d="M7.16429 6.11404C7.04539 4.01225 8.25467 2.06112 10.1899 1.23213C12.1248 0.403551 14.3719 0.874641 15.8108 2.41087C17.2502 3.94751 17.5739 6.22031 16.6203 8.09693C17.9533 10.1291 17.6329 12.8253 15.8613 14.4886C14.0893 16.1519 11.3784 16.3017 9.43423 14.8432C7.49043 13.3848 6.8752 10.7407 7.97658 8.57413C7.49328 7.84001 7.21315 6.99148 7.16429 6.11404Z" fill="#7CA540"/>
<path d="M15.8569 25.8175H19.1924C21.4949 25.8175 23.3617 27.6844 23.3617 29.9869C23.3617 32.2898 21.4949 34.1562 19.1924 34.1562H15.8569C13.5539 34.1562 11.6875 32.2898 11.6875 29.9869C11.6875 27.6844 13.5539 25.8175 15.8569 25.8175Z" fill="#ECAF4A"/>
<path d="M30.0326 36.6578H33.3681C35.6707 36.6578 37.5375 38.5247 37.5375 40.8272C37.5375 43.1301 35.6707 44.9966 33.3681 44.9966H30.0326C27.7297 44.9966 25.8633 43.1301 25.8633 40.8272C25.8633 38.5247 27.7297 36.6578 30.0326 36.6578Z" fill="#ECAF4A"/>
<path d="M40.0392 29.153C40.0392 32.8375 37.0523 35.824 33.3683 35.824C29.6838 35.824 26.6973 32.8375 26.6973 29.153C26.6973 25.469 29.6838 22.4821 33.3683 22.4821C37.0523 22.4821 40.0392 25.469 40.0392 29.153Z" fill="#FFC018"/>
<path d="M23.3615 39.9934C23.3615 43.6778 20.3745 46.6644 16.6905 46.6644C13.0061 46.6644 10.0195 43.6778 10.0195 39.9934C10.0195 36.3093 13.0061 33.3224 16.6905 33.3224C20.3745 33.3224 23.3615 36.3093 23.3615 39.9934Z" fill="#FDE700"/>
<path d="M4.18359 32.4885H45.8773V39.1595H4.18359V32.4885Z" fill="#8E662B"/>
<path d="M4.18359 42.495H45.8773V49.166H4.18359V42.495Z" fill="#8E662B"/>
<path d="M15.0245 49.1659V32.4884C15.0245 30.6464 13.531 29.153 11.689 29.153C9.84659 29.153 8.35352 30.6464 8.35352 32.4884V49.1659" fill="#A2783B"/>
<path d="M35.0371 49.1659V32.4884C35.0371 30.6464 36.5302 29.153 38.3726 29.153C40.2146 29.153 41.7081 30.6464 41.7081 32.4884V49.1659" fill="#A2783B"/>
<path d="M15.0234 32.4885H16.6912V39.1595H15.0234V32.4885Z" fill="#80582F"/>
<path d="M15.0234 42.495H16.6912V49.166H15.0234V42.495Z" fill="#80582F"/>
<path d="M41.707 32.4885H43.3748V39.1595H41.707V32.4885Z" fill="#80582F"/>
<path d="M41.707 42.495H43.3748V49.166H41.707V42.495Z" fill="#80582F"/>
<path d="M10.8535 44.9966H12.5213V46.6643H10.8535V44.9966Z" fill="black"/>
<path d="M10.8535 34.9901H12.5213V36.6579H10.8535V34.9901Z" fill="black"/>
<path d="M37.5391 44.9966H39.2068V46.6643H37.5391V44.9966Z" fill="black"/>
<path d="M37.5391 34.9901H39.2068V36.6579H37.5391V34.9901Z" fill="black"/>
<path d="M31.6005 26.2056C31.8309 26.4128 31.9274 26.7308 31.8509 27.0317C31.7743 27.3322 31.5374 27.5651 31.2357 27.6367C30.934 27.7084 30.6172 27.607 30.4136 27.3729L29.2422 28.5594C29.7259 29.039 30.3757 29.3143 31.0565 29.3281C31.7116 29.3179 32.3342 29.0402 32.7796 28.5594C33.267 28.1005 33.5431 27.4604 33.5431 26.7907C33.5431 26.1213 33.267 25.4812 32.7796 25.0223L31.6005 26.2056Z" fill="black"/>
<path d="M48.3739 5.56355C47.2342 5.07333 45.8723 5.52976 44.735 6.7313C44.1809 6.24433 43.45 6.00858 42.7163 6.07984C40.8649 6.30581 39.6777 8.66493 40.0119 11.4369C40.0119 11.4536 40.0184 11.4691 40.0201 11.4866C39.5714 11.7032 39.1512 11.9748 38.7693 12.2948C38.0596 10.8738 36.608 9.97518 35.0197 9.97396C34.0669 8.7032 32.4721 8.08757 30.9126 8.38968C30.1496 7.3111 28.9171 6.66168 27.5963 6.64213C26.275 6.623 25.0242 7.23619 24.2298 8.29237C24.9391 5.46787 23.4477 2.55501 20.742 1.47847C19.2596 0.886856 17.6 0.925944 16.1472 1.58718C14.9917 0.486613 13.4314 -0.0842321 11.8386 0.0102301C10.2466 0.0981777 8.76081 0.836775 7.72946 2.05216C6.21277 1.55542 4.55968 1.69915 3.1513 2.44915C1.38787 3.39458 0.231519 5.17797 0.0873831 7.17389C-0.0563461 9.16981 0.832088 11.1002 2.44161 12.2891C2.52549 14.4625 3.81864 16.4068 5.79136 17.3233C7.76407 18.2402 10.0841 17.9752 11.7995 16.6376L11.922 16.645L11.9737 17.5741C7.12156 18.1901 3.85366 21.7577 4.1061 26.3249C4.25349 28.1966 4.80317 30.015 5.71807 31.6547H4.18387C3.72296 31.6547 3.35 32.0281 3.35 32.4886V39.1595C3.35 39.62 3.72296 39.9934 4.18387 39.9934H7.51936V41.6612H4.18387C3.72296 41.6612 3.35 42.0345 3.35 42.495V49.166C3.35 49.6265 3.72296 49.9999 4.18387 49.9999H45.8776C46.3381 49.9999 46.7114 49.6265 46.7114 49.166V42.495C46.7114 42.0345 46.3381 41.6612 45.8776 41.6612H42.5421V39.9934H45.8776C46.3381 39.9934 46.7114 39.62 46.7114 39.1595V32.4886C46.7114 32.0281 46.3381 31.6547 45.8776 31.6547H42.4586C42.3666 31.2329 42.2082 30.8277 41.9899 30.4548L47.906 19.923C48.9744 18.0403 48.9464 15.728 47.8328 13.8718C48.5465 13.195 49.1108 12.3762 49.4887 11.4683C50.145 10.088 50.2464 8.50817 49.7717 7.05541C49.5266 6.38969 49.0225 5.85142 48.3739 5.56355ZM40.7615 12.976C42.1219 12.34 43.7127 12.4426 44.9798 13.2484C46.2468 14.0542 47.0148 15.4511 47.0156 16.9528C47.0135 17.182 46.9936 17.4104 46.9557 17.6364L45.3389 16.952L44.689 18.4878L46.3894 19.2076L43.5107 24.3318L40.1084 22.8823L39.4566 24.4169L42.6943 25.7952L40.8658 29.0517C40.8393 26.1319 39.1084 23.4975 36.4395 22.3139L37.1834 19.8274L39.9895 21.0228L40.643 19.4886L37.6638 18.2203L38.4207 15.691C38.7794 14.4943 39.6304 13.5069 40.7615 12.976ZM16.692 28.3192V26.6514H18.3597V29.9869H20.0275V26.7699C21.4953 27.149 22.5234 28.4707 22.5291 29.9869C22.5279 30.5737 22.3703 31.1494 22.0727 31.6547H15.7746C15.4599 30.1555 14.3483 28.9491 12.8793 28.5138C13.3084 27.6498 14.0906 27.0142 15.0242 26.7707V28.3192H16.692ZM33.1675 18.8233C32.8434 19.1018 32.7827 19.5806 33.0266 19.9316C33.3927 20.4666 33.674 21.055 33.8605 21.6759C31.343 21.5049 28.9085 22.6128 27.3845 24.6233C25.8601 26.6339 25.4509 29.2772 26.2954 31.6547H23.9057C24.6081 29.6926 24.0124 27.5008 22.4139 26.1637C22.422 25.877 22.4371 25.5851 22.422 25.3139C22.3556 23.8852 21.913 22.4996 21.1398 21.2964C21.3911 20.8599 21.6822 20.4475 22.0095 20.0639C24.3157 17.3958 28.036 16.5318 30.8552 18.0134C31.2029 18.1963 31.6313 18.1116 31.8833 17.8099C31.9208 17.7651 31.9545 17.7174 31.9851 17.6673C32.128 17.4996 32.3328 17.397 32.5531 17.3823C32.7758 17.3648 32.9961 17.4406 33.161 17.5916C33.501 17.8856 33.547 18.3966 33.264 18.7463L33.1675 18.8233ZM34.2033 41.6612H15.8581V39.9934H34.2033V41.6612ZM34.2033 38.3257H15.8581V33.3224H34.2033V38.3257ZM34.2864 31.6547H28.1158C27.1227 29.5761 27.4476 27.1075 28.9444 25.3562C30.4415 23.6054 32.8295 22.9006 35.0376 23.5582C37.2453 24.2162 38.8584 26.1128 39.1528 28.3978C36.9097 27.954 34.7314 29.412 34.2864 31.6547ZM11.6887 29.9869C13.0702 29.9869 14.1904 31.107 14.1904 32.4886V48.3322H9.18711V32.4886C9.18711 31.107 10.3068 29.9869 11.6887 29.9869ZM15.8581 43.3289H34.2033V48.3322H15.8581V43.3289ZM35.8711 32.4886C35.8711 31.107 36.9908 29.9869 38.3727 29.9869C39.7542 29.9869 40.8743 31.107 40.8743 32.4886V48.3322H35.8711V32.4886ZM25.2889 9.72885C25.6985 8.86077 26.5722 8.30662 27.5323 8.30662C28.492 8.30662 29.3658 8.86077 29.7754 9.72885C29.9635 10.1201 30.4208 10.3017 30.8259 10.1458C31.9749 9.69994 33.2766 10.1743 33.8694 11.2549C34.0323 11.5472 34.354 11.7142 34.6866 11.6784L34.8259 11.6621C34.8959 11.6507 34.9663 11.6442 35.0372 11.6417C36.2619 11.6462 37.3027 12.5383 37.4936 13.7484C37.2066 14.2044 36.9822 14.6975 36.8267 15.2134L35.2314 20.5419C35.0942 20.1926 34.9326 19.8538 34.7477 19.5277C35.3898 18.4849 35.1821 17.1303 34.2575 16.3274C33.3479 15.5293 31.9965 15.4996 31.0527 16.2573C27.3931 14.8624 23.2514 15.952 20.7518 18.9674C20.4859 19.2748 20.2392 19.5985 20.0132 19.9365C18.2803 18.3322 15.999 17.4528 13.6382 17.4788L13.5865 16.5468L13.7022 16.5224C13.9701 16.6877 14.2514 16.8306 14.543 16.9495C16.3988 17.6979 18.5096 17.4406 20.1313 16.2675C21.7526 15.0949 22.6582 13.171 22.5291 11.1739C22.9037 10.8241 23.2306 10.4263 23.501 9.99066C23.753 10.0029 24.0014 10.0542 24.2376 10.1425C24.6423 10.2993 25.0995 10.1193 25.2889 9.72885ZM20.1191 3.02284C21.5002 3.57862 22.4802 4.82862 22.6903 6.30256C22.9004 7.77649 22.3088 9.25043 21.1378 10.1702C20.9045 10.3543 20.7864 10.6486 20.8288 10.943C21.0311 12.2981 20.5503 13.6653 19.5446 14.5957C18.5385 15.5257 17.1378 15.8986 15.8027 15.5912C18.2225 13.8889 18.9782 10.6413 17.5588 8.04522C18.2437 6.38725 18.1203 4.50574 17.2254 2.95118C18.1679 2.6283 19.1952 2.65395 20.1207 3.02284H20.1191ZM11.9294 1.67472C13.418 1.58962 14.8382 2.30664 15.6529 3.55501C16.4676 4.80338 16.5531 6.39173 15.8764 7.72031C15.7417 7.98659 15.7592 8.30459 15.9228 8.55418C16.6598 9.6747 16.8109 11.0823 16.3292 12.3339C15.8475 13.5859 14.7917 14.5285 13.4937 14.8665L13.1061 7.80622L15.236 5.42797L13.9933 4.31559L12.1887 6.32495L10.1725 4.52243L9.06008 5.76469L11.4383 7.89376L11.5845 10.5346L10.4485 9.51712L9.33613 10.7598L11.7144 12.8925L11.8288 14.9597C10.5018 14.7667 9.34957 13.9463 8.73312 12.7557C8.11667 11.5656 8.11138 10.1511 8.71928 8.95605C8.85405 8.68976 8.83654 8.37177 8.67327 8.12218C7.85487 6.87666 7.76488 5.28872 8.43711 3.95851C9.10934 2.6283 10.4412 1.75941 11.9294 1.67961V1.67472ZM4.59144 13.9715C4.24698 13.3257 4.07964 12.5998 4.10691 11.8677C4.11669 11.5705 3.96726 11.2907 3.71522 11.1332C2.44487 10.3514 1.69039 8.94954 1.73722 7.45891C1.78404 5.96827 2.62524 4.61649 3.94201 3.91616C4.82108 3.44915 5.83777 3.31152 6.80968 3.52732C6.44771 4.3559 6.28484 5.25736 6.33411 6.16005C6.38256 7.02405 6.62319 7.86648 7.03809 8.62584C5.91391 11.3616 7.0214 14.5053 9.61219 15.932C7.68386 16.5949 5.55846 15.7659 4.589 13.9715H4.59144ZM12.0678 19.2394L12.159 20.8705L13.8268 20.7785L13.7307 19.1466C17.65 19.2524 20.4542 21.6584 20.7351 25.23C20.2376 25.0676 19.7172 24.9845 19.1936 24.9837H15.8581C13.7217 24.9918 11.8259 26.3538 11.1358 28.3754C9.40047 28.6054 7.99453 29.8969 7.61749 31.6066C6.57678 29.9914 5.94201 28.1482 5.76815 26.2345C5.56782 22.5655 8.12197 19.7813 12.0654 19.2394H12.0678ZM5.01774 38.3257V33.3224H7.51936V38.3257H5.01774ZM5.01774 43.3289H7.51936V48.3322H5.01774V43.3289ZM45.0437 43.3289V48.3322H42.5421V43.3289H45.0437ZM45.0437 38.3257H42.5421V33.3224H45.0437V38.3257ZM47.9537 10.8148C47.6833 11.4691 47.2863 12.0643 46.7863 12.566C45.4236 11.2521 43.518 10.6641 41.652 10.9813C41.516 9.2146 42.1768 7.82617 42.9228 7.73496C43.2982 7.67837 43.7261 7.96379 44.1162 8.48577C44.2758 8.70117 44.5302 8.82535 44.7982 8.81924C45.0669 8.81517 45.3173 8.68162 45.4704 8.46053C46.1943 7.41982 47.1381 6.84042 47.722 7.09571C47.9606 7.21461 48.141 7.42511 48.2224 7.67918C48.5258 8.72152 48.4301 9.83919 47.9537 10.8148Z" fill="black"/>
</g>
<defs>
<clipPath id="clip0_1725_10203">
<rect width="50" height="50" fill="white"/>
</clipPath>
</defs>
</svg>
