<svg width="112" height="120" viewBox="0 0 112 120" fill="none" xmlns="http://www.w3.org/2000/svg">
<path d="M55.9003 10.0824C83.3993 10.0824 105.692 30.9119 105.692 56.6063C105.692 82.3007 83.3993 103.13 55.9003 103.13C28.4014 103.13 6.10901 82.3007 6.10901 56.6063C6.10901 30.9119 28.4014 10.0824 55.9003 10.0824Z" fill="#F5F7EB"/>
<path d="M104.961 81.5156C109.675 73.4761 112.065 64.0527 111.999 54.6293C111.932 49.8847 111.268 45.14 110.007 40.5272C109.343 38.2207 108.613 35.9802 107.617 33.8056C106.688 31.5651 105.559 29.4563 104.364 27.4135C101.908 23.3278 98.9201 19.4399 95.4679 16.0791C92.0157 12.7183 88.0988 9.75288 83.9163 7.38055C82.8541 6.78748 81.7919 6.19439 80.7297 5.66721C79.6011 5.20592 78.5389 4.61284 77.4103 4.21745C75.1531 3.29488 72.8295 2.57001 70.5059 1.91103C65.7923 0.724869 60.9459 0.0658798 56.0332 -1.52588e-05C51.1868 0.0658798 46.2741 0.658974 41.5605 1.91103C36.8469 3.16309 32.2661 4.94233 28.0837 7.38055C23.9012 9.81877 19.9843 12.7183 16.5321 16.0791C13.0135 19.4399 10.0924 23.2619 7.63602 27.4135C5.17965 31.5651 3.25438 35.9802 1.993 40.5931C0.731619 45.2059 0.00134605 49.9506 0.00134605 54.6952C-0.0650424 64.1845 2.32493 73.6079 7.03851 81.5815C3.32075 73.0807 1.72743 63.7891 2.45771 54.7611C3.12159 45.7331 6.10907 36.9687 11.0218 29.4563C15.9346 22.0099 22.6398 15.6837 30.4736 11.5321C34.3906 9.42338 38.573 7.77594 42.8883 6.65567C47.2035 5.60131 51.6516 5.07413 56.0996 5.07413C60.5476 5.07413 64.9956 5.60131 69.3109 6.65567C73.6261 7.77594 77.8086 9.42338 81.7255 11.5321C89.6257 15.7496 96.2646 22.0099 101.177 29.5222C103.634 33.2784 105.559 37.3641 107.02 41.5815C108.414 45.8649 109.41 50.2801 109.675 54.827C110.273 63.7891 108.679 73.0148 104.961 81.5156Z" fill="white"/>
<path d="M55.7679 120C55.7679 120 34.9883 97.1334 54.7721 83.2949C54.1746 91.2685 54.7057 100.89 55.7679 111.104C55.9007 100.758 56.299 91.1367 57.2948 83.2949C77.0786 97.1334 55.7679 120 55.7679 120Z" fill="#017D03"/>
<path d="M23.4367 108.336C23.4367 108.336 22.3081 81.6474 43.2205 83.229C38.3741 88.2372 33.395 94.9588 28.3495 102.405C34.1917 95.5519 39.8347 89.3575 44.8802 84.6128C50.4568 104.712 23.4367 108.336 23.4367 108.336Z" fill="#017D03"/>
<path d="M7.30408 98.1219C7.30408 98.1219 11.3538 79.2092 25.6937 84.0856C21.3784 86.7215 16.6648 90.5436 11.8185 94.827C17.1959 91.0708 22.2415 87.71 26.5567 85.3377C26.8223 100.428 7.30408 98.1219 7.30408 98.1219Z" fill="#017D03"/>
<path d="M88.0989 108.336C88.0989 108.336 89.2275 81.6474 68.3151 83.229C73.1615 88.2372 78.1406 94.9588 83.1861 102.405C77.3439 95.5519 71.7009 89.3575 66.6554 84.6128C61.1452 104.712 88.0989 108.336 88.0989 108.336Z" fill="#017D03"/>
<path d="M104.298 98.1219C104.298 98.1219 100.248 79.2092 85.9081 84.0856C90.2234 86.7215 94.937 90.5436 99.7833 94.827C94.4058 91.0708 89.3603 87.71 85.0451 85.3377C84.7131 100.428 104.298 98.1219 104.298 98.1219Z" fill="#017D03"/>
<path d="M72.4063 35.0625V33.5C72.4063 32.2076 71.355 31.1562 70.0625 31.1562H69.2072C68.8145 28.8167 66.7023 27.0364 64.2108 27.2676C63.4387 25.3862 61.5993 24.125 59.5157 24.125C58.9603 24.125 58.4171 24.2146 57.8936 24.392C56.8766 23.7134 55.6651 23.3438 54.4375 23.3438C52.8957 23.3438 51.4422 23.898 50.3024 24.9123C50.2497 24.9085 50.1964 24.9062 50.1407 24.9062C48.4088 24.9062 46.8791 25.9343 46.21 27.5055C44.5358 28.0573 43.2772 29.4455 42.8719 31.1562H41.9376C40.6452 31.1562 39.5939 32.2076 39.5939 33.5V35.0625C39.5939 36.1818 40.3836 37.1175 41.4343 37.3488C39.9372 42.7255 38.8232 51.7816 40.2904 61.112C40.3889 61.7452 40.3553 62.3342 40.1936 62.8545C39.793 64.1004 39.8884 65.55 40.0425 66.5616C40.1836 67.3879 40.9465 67.9631 41.7622 67.8716C42.4099 67.8091 42.9844 67.6714 43.51 67.4528C45.6234 67.9285 49.8623 68.6563 56.0001 68.6563C62.1379 68.6563 66.3768 67.9285 68.4902 67.4528C69.0151 67.6714 69.5888 67.8088 70.2267 67.8702C71.0568 67.9694 71.8167 67.3884 71.9601 66.5469C72.1119 65.5501 72.2073 64.1005 71.809 62.8619C71.645 62.3343 71.6115 61.7453 71.7098 61.1136C73.1771 51.7818 72.063 42.7255 70.5659 37.3489C71.6167 37.1176 72.4063 36.1818 72.4063 35.0625ZM46.9859 28.9083C47.2537 28.8446 47.4681 28.6447 47.5505 28.3815C47.9083 27.2374 48.9497 26.4688 50.1407 26.4688C50.2353 26.4688 50.3207 26.4856 50.4466 26.5059C50.6946 26.5459 50.9471 26.4635 51.1249 26.2846C52.0068 25.3958 53.1833 24.9063 54.4375 24.9063C55.4858 24.9063 56.4761 25.2466 57.3008 25.8898C57.5282 26.0664 57.8333 26.1045 58.0973 25.9882C58.549 25.7887 59.0258 25.6876 59.5156 25.6876C61.1277 25.6876 62.5284 26.7778 62.9222 28.3391C63.0267 28.7553 63.4425 29.0094 63.8644 28.9075C64.1276 28.8438 64.3665 28.8125 64.5938 28.8125C66.0459 28.8125 67.2585 29.8123 67.6079 31.1562H44.5072C44.8987 30.0495 45.8135 29.1874 46.9859 28.9083ZM70.1655 60.8724C70.0304 61.743 70.0816 62.5684 70.3189 63.3329C70.6431 64.3407 70.5188 65.6324 70.3875 66.316C69.8192 66.2615 69.3354 66.1348 68.9097 65.9292C68.7487 65.8526 68.5672 65.8316 68.3925 65.8723C66.4432 66.3286 62.2424 67.0938 56 67.0938C49.7577 67.0938 45.5569 66.3286 43.6076 65.8723C43.4336 65.8316 43.2513 65.8525 43.0904 65.9292C42.6647 66.1348 42.1809 66.2615 41.5843 66.3126C41.4814 65.6324 41.357 64.3408 41.6836 63.3257C41.9186 62.5685 41.9697 61.743 41.8347 60.8709C40.37 51.56 41.54 42.5623 43.0455 37.4063H68.9529C70.459 42.5612 71.6306 51.5571 70.1655 60.8724ZM70.8438 35.0626C70.8438 35.4933 70.4936 35.8438 70.0625 35.8438H41.9375C41.5065 35.8438 41.1563 35.4933 41.1563 35.0626V33.5001C41.1563 33.0694 41.5065 32.7188 41.9375 32.7188H70.0625C70.4936 32.7188 70.8438 33.0694 70.8438 33.5001V35.0626Z" fill="#017D03"/>
<path d="M56 42.875C50.8303 42.875 46.625 47.0807 46.625 52.25C46.625 57.4193 50.8303 61.625 56 61.625C61.1697 61.625 65.375 57.4193 65.375 52.25C65.375 47.0807 61.1697 42.875 56 42.875ZM56 60.0625C51.6924 60.0625 48.1875 56.558 48.1875 52.25C48.1875 47.942 51.6924 44.4375 56 44.4375C60.3076 44.4375 63.8125 47.942 63.8125 52.25C63.8125 56.558 60.3076 60.0625 56 60.0625Z" fill="#017D03"/>
<path d="M60.9706 48.7386C60.8051 48.6741 56.895 47.1872 54.0111 48.8996C51.128 50.6112 50.5603 54.7574 50.5374 54.933C50.5285 55.002 50.5366 55.0691 50.5456 55.1355C50.5477 55.1511 50.5444 55.1668 50.5474 55.1822C50.5659 55.277 50.6021 55.3658 50.6528 55.4465C50.6606 55.459 50.6726 55.4683 50.6812 55.4803C50.7284 55.5469 50.7844 55.6054 50.8509 55.6548C50.8591 55.6609 50.8631 55.6702 50.8716 55.6761C50.8961 55.693 50.9239 55.7001 50.9496 55.7138C50.9772 55.7286 50.9997 55.75 51.0295 55.7616C51.1348 55.8023 52.7621 56.4211 54.6756 56.4211C55.7635 56.4211 56.9438 56.2212 57.989 55.6005C60.8714 53.8885 61.4398 49.7427 61.4627 49.5672C61.5084 49.2105 61.3056 48.8687 60.9706 48.7386ZM57.191 54.2569C55.7745 55.0979 53.9077 54.891 52.7285 54.6273C53.3877 53.9995 54.4641 53.1714 55.9955 52.6537C56.4044 52.5155 56.6234 52.0723 56.4853 51.6633C56.348 51.2544 55.9055 51.0362 55.495 51.1735C54.474 51.5186 53.622 51.9806 52.9308 52.4533C53.3452 51.6056 53.9436 50.757 54.8091 50.2431C56.4541 49.2654 58.7131 49.7018 59.7888 50.0005C59.5363 51.0869 58.8382 53.2789 57.191 54.2569Z" fill="#017D03"/>
</svg>
