<svg width="112" height="120" viewBox="0 0 112 120" fill="none" xmlns="http://www.w3.org/2000/svg">
<path d="M55.9002 10.0824C83.3992 10.0824 105.692 30.9119 105.692 56.6063C105.692 82.3007 83.3992 103.13 55.9002 103.13C28.4012 103.13 6.10889 82.3007 6.10889 56.6063C6.10889 30.9119 28.4012 10.0824 55.9002 10.0824Z" fill="#F5F7EB"/>
<path d="M104.961 81.5156C109.675 73.4761 112.065 64.0527 111.999 54.6293C111.932 49.8847 111.268 45.14 110.007 40.5272C109.343 38.2207 108.613 35.9802 107.617 33.8056C106.688 31.5651 105.559 29.4563 104.364 27.4135C101.908 23.3278 98.9201 19.4399 95.4679 16.0791C92.0157 12.7183 88.0988 9.75288 83.9163 7.38055C82.8541 6.78748 81.7919 6.19439 80.7297 5.66721C79.6011 5.20592 78.5389 4.61284 77.4103 4.21745C75.1531 3.29488 72.8295 2.57001 70.5059 1.91103C65.7923 0.724869 60.9459 0.0658798 56.0332 -1.52588e-05C51.1868 0.0658798 46.2741 0.658974 41.5605 1.91103C36.8469 3.16309 32.2661 4.94233 28.0837 7.38055C23.9012 9.81877 19.9843 12.7183 16.5321 16.0791C13.0135 19.4399 10.0924 23.2619 7.63602 27.4135C5.17965 31.5651 3.25438 35.9802 1.993 40.5931C0.731619 45.2059 0.00134605 49.9506 0.00134605 54.6952C-0.0650424 64.1845 2.32493 73.6079 7.03851 81.5815C3.32075 73.0807 1.72743 63.7891 2.45771 54.7611C3.12159 45.7331 6.10907 36.9687 11.0218 29.4563C15.9346 22.0099 22.6398 15.6837 30.4736 11.5321C34.3906 9.42338 38.573 7.77594 42.8883 6.65567C47.2035 5.60131 51.6516 5.07413 56.0996 5.07413C60.5476 5.07413 64.9956 5.60131 69.3109 6.65567C73.6261 7.77594 77.8086 9.42338 81.7255 11.5321C89.6257 15.7496 96.2646 22.0099 101.177 29.5222C103.634 33.2784 105.559 37.3641 107.02 41.5815C108.414 45.8649 109.41 50.2801 109.675 54.827C110.273 63.7891 108.679 73.0148 104.961 81.5156Z" fill="white"/>
<path d="M55.7676 120C55.7676 120 34.988 97.1334 54.7718 83.2949C54.1743 91.2685 54.7054 100.89 55.7676 111.104C55.9004 100.758 56.2987 91.1367 57.2946 83.2949C77.0783 97.1334 55.7676 120 55.7676 120Z" fill="#017D03"/>
<path d="M23.4367 108.336C23.4367 108.336 22.3081 81.6474 43.2205 83.229C38.3741 88.2372 33.395 94.9588 28.3495 102.405C34.1917 95.5519 39.8347 89.3575 44.8802 84.6128C50.4568 104.712 23.4367 108.336 23.4367 108.336Z" fill="#017D03"/>
<path d="M7.30396 98.1219C7.30396 98.1219 11.3536 79.2092 25.6935 84.0856C21.3783 86.7215 16.6647 90.5436 11.8184 94.827C17.1958 91.0708 22.2414 87.71 26.5566 85.3377C26.8222 100.428 7.30396 98.1219 7.30396 98.1219Z" fill="#017D03"/>
<path d="M88.0988 108.336C88.0988 108.336 89.2274 81.6474 68.315 83.229C73.1614 88.2372 78.1405 94.9588 83.186 102.405C77.3438 95.5519 71.7008 89.3575 66.6553 84.6128C61.145 104.712 88.0988 108.336 88.0988 108.336Z" fill="#017D03"/>
<path d="M104.298 98.1219C104.298 98.1219 100.248 79.2092 85.908 84.0856C90.2233 86.7215 94.9368 90.5436 99.7832 94.827C94.4057 91.0708 89.3602 87.71 85.0449 85.3377C84.713 100.428 104.298 98.1219 104.298 98.1219Z" fill="#017D03"/>
<g clip-path="url(#clip0_1284_4206)">
<path d="M74.9348 37.863C74.5986 37.863 73.9723 37.9096 72.3615 38.1913C72.531 38.0472 72.6187 37.9595 72.6822 37.8961C75.0457 35.5315 75.0457 31.684 72.6821 29.3192C71.5365 28.1737 70.0133 27.5428 68.393 27.5428C66.7727 27.5428 65.2495 28.1737 64.1039 29.3192C64.0406 29.3826 63.9531 29.4702 63.8095 29.639C64.0916 28.0263 64.1382 27.4007 64.1382 27.0654C64.1382 23.721 61.4174 21.0001 58.0729 21.0001C54.7286 21.0001 52.0076 23.721 52.0076 27.0654C52.0076 27.497 52.0079 28.7259 54.0383 37.9484C51.5193 35.6758 48.2945 34.4324 44.8789 34.4324C44.8778 34.4324 44.8762 34.4324 44.8752 34.4324C41.2162 34.4324 37.7765 35.8572 35.1893 38.4443C31.8722 41.7611 30.4909 46.4804 31.4944 51.0689C32.7634 56.855 32.6202 62.8192 31.0804 68.3171C30.872 69.061 31.0743 69.8318 31.6213 70.3787C32.0265 70.7839 32.5546 70.9998 33.1035 70.9998C33.2955 70.9998 33.4901 70.9734 33.683 70.9195C39.1826 69.3791 45.1457 69.236 50.9319 70.5061C55.3113 71.448 59.7224 70.2811 63.0336 67.3053C63.4348 66.9448 63.4677 66.3274 63.1073 65.9262C62.7468 65.5252 62.1294 65.4922 61.7282 65.8527C60.5171 66.9411 59.1336 67.7462 57.6543 68.2502L53.6234 64.2193C53.2421 63.8382 52.6237 63.8381 52.2424 64.2193C51.861 64.6007 51.8609 65.219 52.2424 65.6004L55.4138 68.7719C54.0854 68.9449 52.7141 68.8917 51.3465 68.5976C49.5099 68.1945 47.6554 67.9276 45.8016 67.7948L39.7963 61.7894C39.4148 61.4082 38.7966 61.4081 38.4152 61.7894C38.0339 62.1707 38.0338 62.7891 38.4152 63.1705L42.9415 67.6969C39.6097 67.7076 36.3116 68.1552 33.1563 69.0389C33.1344 69.0449 33.0682 69.0636 33.0024 68.9977C32.9365 68.932 32.9551 68.8656 32.9612 68.8439C34.587 63.0393 34.7394 56.7481 33.4024 50.6511C32.5418 46.7165 33.7261 42.6695 36.5703 39.8254C37.2844 39.1112 38.0748 38.501 38.9224 38.0008L48.8648 47.9433C49.0555 48.1339 49.3054 48.2293 49.5553 48.2293C49.8052 48.2293 50.0552 48.1339 50.2458 47.9433C50.6272 47.562 50.6272 46.9436 50.2459 46.5622L40.795 37.1111C42.0837 36.6346 43.4601 36.3854 44.8752 36.3854H44.8785C48.0135 36.3854 50.9615 37.6071 53.1798 39.8253L62.0684 48.7141C64.8289 51.4746 66.0611 55.4326 65.3646 59.3017C65.269 59.8325 65.6218 60.3403 66.1526 60.4358C66.6832 60.531 67.1912 60.1785 67.2868 59.6477C68.0455 55.4338 66.8344 51.1276 64.0374 47.9588C73.2732 49.9925 74.5031 49.9928 74.935 49.9928C78.2794 49.9928 81.0003 47.2719 81.0003 43.9275C81.0001 40.5834 78.2791 37.863 74.9348 37.863ZM65.4849 30.7002C66.2615 29.9235 67.2943 29.4957 68.3929 29.4957C69.4915 29.4957 70.5243 29.9235 71.3008 30.7C72.9033 32.3033 72.9033 34.9121 71.3009 36.5152C70.8541 36.962 68.7993 38.5324 60.1313 44.0148L57.9863 41.8698C63.4658 33.2039 65.0371 31.1479 65.4849 30.7002ZM58.0728 22.9531C60.3403 22.9531 62.185 24.7979 62.185 27.0653C62.185 27.4616 62.0378 28.8267 61.065 33.4991C60.0024 35.0927 58.5595 37.3136 56.5908 40.4226C54.3048 30.2795 53.9605 27.6984 53.9605 27.0654C53.9605 24.7979 55.8053 22.9531 58.0728 22.9531ZM74.9348 48.0396C74.3018 48.0396 71.7208 47.6953 61.579 45.4098C64.6872 43.4408 66.9078 41.9981 68.5013 40.9353C73.17 39.9632 74.537 39.8161 74.9347 39.8161C77.2021 39.8161 79.0469 41.6604 79.0469 43.9274C79.047 46.1948 77.2022 48.0396 74.9348 48.0396Z" fill="#017D03"/>
<path d="M39.3058 48.057C38.9245 48.4383 38.9244 49.0567 39.3057 49.4381L40.9187 51.0512C41.1094 51.2418 41.3594 51.3372 41.6093 51.3372C41.8592 51.3372 42.1092 51.2418 42.2998 51.0512C42.6811 50.6699 42.6812 50.0515 42.2998 49.6701L40.6868 48.057C40.3054 47.6757 39.6871 47.6756 39.3058 48.057Z" fill="#017D03"/>
<path d="M52.0907 49.7881C51.7094 50.1694 51.7093 50.7878 52.0907 51.1693L53.7037 52.7823C53.8944 52.973 54.1443 53.0684 54.3943 53.0684C54.6442 53.0684 54.8942 52.973 55.0848 52.7823C55.4661 52.401 55.4662 51.7826 55.0849 51.4012L53.4719 49.7881C53.0904 49.4069 52.4722 49.4068 52.0907 49.7881Z" fill="#017D03"/>
<path d="M64.8521 64.5024C65.3914 64.5024 65.8286 64.0652 65.8286 63.5259C65.8286 62.9865 65.3914 62.5493 64.8521 62.5493C64.3127 62.5493 63.8755 62.9865 63.8755 63.5259C63.8755 64.0652 64.3127 64.5024 64.8521 64.5024Z" fill="#017D03"/>
</g>
<defs>
<clipPath id="clip0_1284_4206">
<rect width="50" height="50" fill="white" transform="translate(31 21)"/>
</clipPath>
</defs>
</svg>
