<svg width="36" height="36" viewBox="0 0 36 36" fill="none" xmlns="http://www.w3.org/2000/svg">
<path d="M22.228 25.6967C21.2402 25.7033 20.2605 25.5186 19.3429 25.1527C19.2744 25.1251 19.212 25.0843 19.1592 25.0325C19.1064 24.9807 19.0644 24.9191 19.0355 24.8511C19.0065 24.7831 18.9913 24.71 18.9906 24.6361C18.9898 24.5622 19.0037 24.4889 19.0313 24.4204C19.059 24.3518 19.0998 24.2894 19.1516 24.2366C19.2033 24.1839 19.265 24.1418 19.333 24.1129C19.401 24.0839 19.474 24.0687 19.5479 24.068C19.6218 24.0673 19.6951 24.0811 19.7637 24.1087C21.8652 24.957 24.4324 24.6347 27.3844 23.1525C33.5635 20.0492 33.8504 11.0137 33.7244 7.58925C32.9273 8.12418 31.5278 8.56575 29.0877 8.29012C26.4102 7.98412 19.6827 9.65193 16.909 13.7841C15.3402 16.1212 15.3807 18.8331 17.0288 21.8436C17.1491 22.0476 17.2871 22.2407 17.4411 22.4207C17.4884 22.4774 17.524 22.543 17.546 22.6135C17.568 22.684 17.5758 22.7582 17.5691 22.8318C17.5624 22.9054 17.5412 22.9769 17.5069 23.0423C17.4725 23.1077 17.4256 23.1657 17.3689 23.213C17.3121 23.2602 17.2466 23.2959 17.176 23.3178C17.1055 23.3398 17.0313 23.3476 16.9577 23.3409C16.8842 23.3342 16.8126 23.3131 16.7472 23.2787C16.6818 23.2443 16.6238 23.1974 16.5766 23.1407C16.3744 22.9046 16.1949 22.65 16.0405 22.3802C14.2023 19.0232 14.1786 15.8332 15.9747 13.1552C19.0403 8.58937 26.2206 6.83156 29.2143 7.16962C33.0899 7.60893 33.6468 6.06937 33.6513 6.05418C33.6837 5.92647 33.7594 5.81393 33.8654 5.73569C33.9714 5.65745 34.1013 5.61834 34.2329 5.625C34.3646 5.63337 34.4891 5.68776 34.5847 5.77866C34.6803 5.86956 34.741 5.99117 34.756 6.12225C34.8207 6.68475 36.2404 19.9597 27.8896 24.1537C26.1479 25.1009 24.2094 25.6292 22.228 25.6967Z" fill="white"/>
<path d="M12.9369 29.8125C12.8386 29.8124 12.7421 29.7865 12.6569 29.7375C12.5717 29.6884 12.5008 29.6179 12.4514 29.533C12.4019 29.448 12.3756 29.3516 12.375 29.2533C12.3744 29.155 12.3996 29.0582 12.4481 28.9727C16.18 22.4341 21.2749 16.7748 27.387 12.3789C27.512 12.3 27.6631 12.2734 27.8075 12.305C27.9519 12.3365 28.0782 12.4237 28.1588 12.5476C28.2395 12.6715 28.2681 12.8222 28.2385 12.9671C28.2089 13.112 28.1235 13.2393 28.0007 13.3217C22.0382 17.6177 17.068 23.1442 13.4263 29.5273C13.3772 29.6139 13.3061 29.6859 13.2201 29.736C13.1342 29.7861 13.0364 29.8125 12.9369 29.8125Z" fill="white"/>
<path d="M8.04917 24.4338C6.96498 24.3987 5.90394 24.1111 4.95036 23.594C0.38961 21.3041 1.15517 14.1401 1.19005 13.8374C1.20525 13.7065 1.26595 13.5851 1.36153 13.4944C1.45712 13.4036 1.58153 13.3494 1.71306 13.341C1.84459 13.3326 1.97488 13.3707 2.0812 13.4486C2.18752 13.5265 2.26312 13.6392 2.2948 13.7671C2.29986 13.7671 2.59967 14.351 4.34174 14.1536C5.97299 13.9713 9.88855 14.9287 11.5609 17.42C12.2612 18.4634 12.8259 20.201 11.5378 22.5534C11.4486 22.7093 11.345 22.8566 11.2284 22.9933C11.1816 23.0512 11.1238 23.0994 11.0582 23.1348C10.9927 23.1703 10.9208 23.1923 10.8466 23.1997C10.7725 23.2072 10.6976 23.1998 10.6263 23.178C10.555 23.1562 10.4888 23.1205 10.4315 23.0729C10.3741 23.0253 10.3268 22.9668 10.2923 22.9008C10.2577 22.8348 10.2366 22.7625 10.2302 22.6883C10.2238 22.6141 10.2323 22.5393 10.255 22.4683C10.2778 22.3974 10.3144 22.3316 10.3627 22.2749C10.4327 22.1927 10.4957 22.1049 10.5512 22.0123C11.3674 20.5222 11.3949 19.1879 10.6271 18.0472C9.28274 16.0453 5.87399 15.1048 4.46774 15.2718C3.72481 15.3903 2.96411 15.3226 2.25373 15.0749C2.23517 17.0594 2.56649 21.1364 5.45436 22.5871C6.93936 23.3336 8.21511 23.4995 9.24561 23.0833C9.38367 23.0285 9.53778 23.0306 9.67433 23.089C9.81087 23.1474 9.91876 23.2575 9.97446 23.3952C10.0302 23.5329 10.0291 23.687 9.97163 23.8239C9.91412 23.9609 9.80479 24.0695 9.66749 24.1261C9.1531 24.3326 8.60346 24.4371 8.04917 24.4338Z" fill="white"/>
<path d="M12.9376 26.6001C12.838 26.6002 12.7401 26.5738 12.6541 26.5237C12.568 26.4736 12.4968 26.4015 12.4476 26.3149C10.5543 22.9906 7.96742 20.1129 4.8629 17.8774C4.73788 17.7959 4.65035 17.6681 4.61954 17.5221C4.58874 17.3761 4.6172 17.2239 4.69865 17.0989C4.7801 16.9738 4.90789 16.8863 5.05388 16.8555C5.19988 16.8247 5.35213 16.8532 5.47715 16.9346C8.7413 19.2599 11.4551 22.2735 13.427 25.7625C13.4749 25.848 13.4997 25.9445 13.4988 26.0426C13.4979 26.1406 13.4714 26.2367 13.422 26.3213C13.3725 26.406 13.3018 26.4762 13.2168 26.5251C13.1319 26.574 13.0356 26.5998 12.9376 26.6001Z" fill="white"/>
</svg>
