<svg width="112" height="120" viewBox="0 0 112 120" fill="none" xmlns="http://www.w3.org/2000/svg">
<path d="M55.9003 10.0824C83.3993 10.0824 105.692 30.9119 105.692 56.6063C105.692 82.3007 83.3993 103.13 55.9003 103.13C28.4014 103.13 6.10901 82.3007 6.10901 56.6063C6.10901 30.9119 28.4014 10.0824 55.9003 10.0824Z" fill="#F5F7EB"/>
<path d="M104.961 81.5156C109.675 73.4761 112.065 64.0527 111.999 54.6293C111.932 49.8847 111.268 45.14 110.007 40.5272C109.343 38.2207 108.613 35.9802 107.617 33.8056C106.688 31.5651 105.559 29.4563 104.364 27.4135C101.908 23.3278 98.9201 19.4399 95.4679 16.0791C92.0157 12.7183 88.0988 9.75288 83.9163 7.38055C82.8541 6.78748 81.7919 6.19439 80.7297 5.66721C79.6011 5.20592 78.5389 4.61284 77.4103 4.21745C75.1531 3.29488 72.8295 2.57001 70.5059 1.91103C65.7923 0.724869 60.9459 0.0658798 56.0332 -1.52588e-05C51.1868 0.0658798 46.2741 0.658974 41.5605 1.91103C36.8469 3.16309 32.2661 4.94233 28.0837 7.38055C23.9012 9.81877 19.9843 12.7183 16.5321 16.0791C13.0135 19.4399 10.0924 23.2619 7.63602 27.4135C5.17965 31.5651 3.25438 35.9802 1.993 40.5931C0.731619 45.2059 0.00134605 49.9506 0.00134605 54.6952C-0.0650424 64.1845 2.32493 73.6079 7.03851 81.5815C3.32075 73.0807 1.72743 63.7891 2.45771 54.7611C3.12159 45.7331 6.10907 36.9687 11.0218 29.4563C15.9346 22.0099 22.6398 15.6837 30.4736 11.5321C34.3906 9.42338 38.573 7.77594 42.8883 6.65567C47.2035 5.60131 51.6516 5.07413 56.0996 5.07413C60.5476 5.07413 64.9956 5.60131 69.3109 6.65567C73.6261 7.77594 77.8086 9.42338 81.7255 11.5321C89.6257 15.7496 96.2646 22.0099 101.177 29.5222C103.634 33.2784 105.559 37.3641 107.02 41.5815C108.414 45.8649 109.41 50.2801 109.675 54.827C110.273 63.7891 108.679 73.0148 104.961 81.5156Z" fill="white"/>
<path d="M55.7679 120C55.7679 120 34.9883 97.1334 54.7721 83.2949C54.1746 91.2685 54.7057 100.89 55.7679 111.104C55.9007 100.758 56.299 91.1367 57.2948 83.2949C77.0786 97.1334 55.7679 120 55.7679 120Z" fill="#017D03"/>
<path d="M23.4367 108.336C23.4367 108.336 22.3081 81.6474 43.2205 83.229C38.3741 88.2372 33.395 94.9588 28.3495 102.405C34.1917 95.5519 39.8347 89.3575 44.8802 84.6128C50.4568 104.712 23.4367 108.336 23.4367 108.336Z" fill="#017D03"/>
<path d="M7.30408 98.1219C7.30408 98.1219 11.3538 79.2092 25.6937 84.0856C21.3784 86.7215 16.6648 90.5436 11.8185 94.827C17.1959 91.0708 22.2415 87.71 26.5567 85.3377C26.8223 100.428 7.30408 98.1219 7.30408 98.1219Z" fill="#017D03"/>
<path d="M88.0989 108.336C88.0989 108.336 89.2275 81.6474 68.3151 83.229C73.1615 88.2372 78.1406 94.9588 83.1861 102.405C77.3439 95.5519 71.7009 89.3575 66.6554 84.6128C61.1452 104.712 88.0989 108.336 88.0989 108.336Z" fill="#017D03"/>
<path d="M104.298 98.1219C104.298 98.1219 100.248 79.2092 85.9081 84.0856C90.2234 86.7215 94.937 90.5436 99.7833 94.827C94.4058 91.0708 89.3603 87.71 85.0451 85.3377C84.7131 100.428 104.298 98.1219 104.298 98.1219Z" fill="#017D03"/>
<path d="M78.6563 52.25H74.75V47.5625C74.7508 45.7384 74.3748 43.9338 73.6457 42.2617C72.9165 40.5897 71.8499 39.0863 70.5126 37.8457C71.5673 35.0234 74.443 32.5595 74.4734 32.5332C74.5953 32.4297 74.6825 32.2914 74.7233 32.1368C74.7641 31.9822 74.7565 31.8188 74.7015 31.6687C74.6464 31.5185 74.5467 31.3889 74.4157 31.2973C74.2846 31.2056 74.1287 31.1564 73.9688 31.1562C71.71 31.1562 69.7463 31.5997 68.0996 32.4769C68.4104 31.9556 68.7549 31.4551 69.1311 30.9788C69.7983 30.1304 70.5402 29.3435 71.3479 28.6276C71.47 28.5243 71.5575 28.3859 71.5984 28.2312C71.6394 28.0765 71.6319 27.913 71.5769 27.7628C71.5219 27.6125 71.4221 27.4827 71.291 27.391C71.1599 27.2993 71.0038 27.2501 70.8438 27.25C68.732 27.25 66.8692 27.6432 65.283 28.4178C65.064 26.7843 64.3232 23.8974 61.8182 22.645C61.7097 22.5907 61.5901 22.5625 61.4688 22.5625C61.3475 22.5625 61.2278 22.5907 61.1194 22.645C58.6172 23.8961 57.875 26.778 57.6552 28.4126C56.0742 27.6399 54.2145 27.25 52.0938 27.25C51.9339 27.2501 51.7778 27.2992 51.6467 27.3909C51.5156 27.4825 51.4158 27.6121 51.3608 27.7622C51.3057 27.9124 51.2981 28.0758 51.3388 28.2304C51.3796 28.3851 51.4669 28.5235 51.5888 28.6269C52.3967 29.3429 53.1389 30.1298 53.8062 30.9784C54.1814 31.4535 54.5253 31.9526 54.8356 32.4725C53.1921 31.5983 51.2302 31.1562 48.9688 31.1562C48.8089 31.1563 48.6528 31.2055 48.5217 31.2971C48.3906 31.3887 48.2908 31.5183 48.2358 31.6685C48.1807 31.8186 48.1731 31.982 48.2138 32.1367C48.2546 32.2913 48.3419 32.4297 48.4638 32.5332C48.4946 32.5593 51.37 35.0234 52.4249 37.8457C51.0877 39.0863 50.021 40.5897 49.2919 42.2617C48.5627 43.9338 48.1868 45.7384 48.1875 47.5625V47.6521C47.3255 47.8159 46.1848 48.1892 45.5756 48.6466C45.489 48.7112 45.398 48.7696 45.3032 48.8214C45.509 46.9398 45.8733 45.0204 46.4938 44.0896C46.5523 44.0043 46.5932 43.9082 46.6143 43.8069C46.6353 43.7056 46.6361 43.6012 46.6164 43.4996C46.5968 43.3981 46.5572 43.3014 46.4999 43.2153C46.4426 43.1291 46.3688 43.0552 46.2827 42.9979C46.1966 42.9405 46.1 42.9008 45.9985 42.881C45.8969 42.8613 45.7925 42.8619 45.6912 42.8829C45.5899 42.9038 45.4938 42.9447 45.4084 43.003C45.323 43.0614 45.25 43.1362 45.1938 43.223C44.4855 44.2855 43.9878 46.2328 43.7132 49.0083C43.4509 48.9336 43.2047 48.8111 42.9869 48.6469C42.1629 48.028 40.3653 47.5625 39.6024 47.5625C37.5598 47.5625 35.7168 48.3953 34.413 49.9075C32.927 51.6311 32.2922 54.0809 32.6714 56.6287L33.1597 59.9077C33.463 61.9873 34.1418 63.9945 35.163 65.8313C36.4385 68.1165 38.6518 69.4405 40.9931 69.4404C41.5692 69.4399 42.1426 69.3605 42.6972 69.2045C42.715 69.1995 42.7325 69.1939 42.7497 69.1877L44.0566 68.7202C44.202 68.6676 44.3613 68.6676 44.5068 68.7202L45.8135 69.1877C45.8308 69.1939 45.8484 69.1995 45.866 69.2045C46.4207 69.3605 46.9941 69.4399 47.5702 69.4404C49.2825 69.4404 50.9261 68.7313 52.1848 67.4567C54.8332 68.7504 57.7401 69.4276 60.6875 69.4375C65.5508 69.4375 70.2496 67.5962 73.9199 64.2528C77.4263 61.058 79.4375 56.9679 79.4375 53.0312C79.4375 52.824 79.3552 52.6253 79.2087 52.4788C79.0622 52.3323 78.8635 52.25 78.6563 52.25ZM58.1704 48.334L61.479 45.1211L64.7943 48.3395L61.4871 51.5468L58.1704 48.334ZM59.9673 52.25H55.5005C55.3865 51.9309 55.2518 51.6197 55.0972 51.3182L57.0487 49.4231L59.9673 52.25ZM65.9157 49.4283L68.8223 52.25H63.0059L65.9157 49.4283ZM62.6001 44.032L65.9059 40.8217L69.2239 44.0443L65.9162 47.2516L62.6001 44.032ZM63.147 35.9644C64.5824 36.1712 65.9664 36.6444 67.2279 37.3598L65.9059 38.6436L63.147 35.9644ZM64.7845 39.7327L61.4785 42.9433L58.1743 39.7356L61.4809 36.5246L64.7845 39.7327ZM57.0531 38.6465L55.721 37.3533C56.9879 36.6368 58.378 36.1645 59.8192 35.9609L57.0531 38.6465ZM57.0531 40.8242L60.3574 44.0322L57.0476 47.2465L53.7394 44.0424L57.0531 40.8242ZM55.926 48.3354L54.2202 49.9922C54.1967 49.9639 54.1736 49.9353 54.1495 49.9075C53.0968 48.6787 51.6338 47.8739 50.0324 47.6424L52.6179 45.1314L55.926 48.3354ZM55.403 59.9077L55.8912 56.6287C56.0331 55.6954 56.0342 54.7461 55.8946 53.8125H74.6112C74.1607 56.3923 72.6353 58.9766 70.3343 61.0145C67.6145 63.4234 64.1885 64.75 60.6875 64.75C58.5585 64.7412 56.4582 64.2578 54.5396 63.3349C54.9412 62.2242 55.2304 61.0761 55.403 59.9077ZM71.865 52.25L73.1875 50.9691V52.25H71.865ZM73.1875 48.794L70.3432 51.5486L67.0382 48.3401L70.3457 45.1329L73.1875 47.8928V48.794ZM73.0133 45.5455L71.4678 44.0447L72.3431 43.1959C72.6485 43.9533 72.8731 44.7409 73.0133 45.5455ZM71.623 41.7174L70.3463 42.9553L67.0276 39.7327L68.5629 38.2417C69.8024 39.187 70.8424 40.3684 71.623 41.7176V41.7174ZM71.9141 32.8681C71.0168 33.8572 69.9349 35.2482 69.2503 36.8062C68.5519 36.2994 67.8058 35.8617 67.0226 35.4995C67.0323 35.3778 67.0472 35.2561 67.0663 35.1344C68.3249 33.9297 69.9495 33.1706 71.9141 32.8684V32.8681ZM68.7882 28.9619C67.5197 30.3604 65.8824 32.5622 65.52 34.9132C64.6007 34.618 63.6517 34.4248 62.6902 34.337C62.5986 34.0525 62.4813 33.7306 62.3323 33.3848C63.2916 31.5476 65.1602 29.5223 68.7882 28.9627V28.9619ZM61.4688 24.2428C63.4048 25.5041 63.7418 28.3965 63.8003 29.3112C62.8811 29.9859 62.0909 30.8207 61.4676 31.7756C61.1092 31.2275 60.6959 30.7174 60.2343 30.2529C59.8932 29.9108 59.5265 29.5953 59.1374 29.3091C59.1962 28.3921 59.5342 25.5031 61.4688 24.2428ZM54.1504 28.9638C58.4789 29.6357 60.2815 32.3978 61.0168 34.2897C59.7939 34.3301 58.5826 34.5402 57.4175 34.9139C57.3931 34.7553 57.363 34.5976 57.3273 34.4406L57.3548 34.4151C57.3406 34.3997 57.3255 34.3848 57.3114 34.3696C56.8038 32.2266 55.3203 30.2539 54.1504 28.9638ZM51.0231 32.868C52.9899 33.1699 54.6131 33.93 55.8715 35.1363C55.8905 35.2574 55.9054 35.3787 55.915 35.4998C55.1317 35.862 54.3856 36.2997 53.6872 36.8065C53.0026 35.248 51.9204 33.8571 51.0231 32.868ZM54.3848 38.234L55.9317 39.7356L52.6166 42.9549L51.3237 41.7025C52.1053 40.3558 53.1457 39.177 54.3848 38.234ZM50.6016 43.1785L51.495 44.0439L49.9196 45.5738C50.0604 44.7532 50.2891 43.9502 50.6016 43.1785ZM52.0352 65.0698C51.0448 66.8447 49.3431 67.875 47.5561 67.875C47.1359 67.8747 46.7177 67.8181 46.3125 67.7066L45.0332 67.249C44.5473 67.0756 44.0163 67.0756 43.5303 67.249L42.25 67.7069C40.043 68.3115 37.7463 67.2544 36.5274 65.0702C35.5982 63.3981 34.9808 61.571 34.7052 59.678L34.2169 56.3991C33.9044 54.3012 34.4075 52.3073 35.5965 50.9282C36.0922 50.3535 36.7076 49.8943 37.3997 49.5828C38.0917 49.2713 38.8435 49.115 39.6024 49.125C40.0987 49.125 41.5496 49.5214 42.049 49.8965C42.5029 50.2388 43.0289 50.473 43.587 50.5813C43.5486 51.2032 43.5271 51.7498 43.5151 52.1683C42.8399 52.0168 42.4994 51.7065 42.481 51.6891L42.4896 51.6976C42.4171 51.6244 42.3309 51.5662 42.2359 51.5265C42.1409 51.4867 42.039 51.4661 41.936 51.4658C41.833 51.4656 41.731 51.4857 41.6358 51.525C41.5406 51.5644 41.4542 51.6221 41.3814 51.695C41.3086 51.7679 41.251 51.8544 41.2118 51.9497C41.1726 52.0449 41.1526 52.147 41.1529 52.25C41.1533 52.3529 41.1741 52.4548 41.214 52.5498C41.2539 52.6447 41.3122 52.7309 41.3855 52.8032C41.4903 52.9075 42.4496 53.8125 44.2813 53.8125C46.1145 53.8125 47.0742 52.9057 47.1775 52.8024C47.25 52.7299 47.3076 52.6437 47.3468 52.549C47.3861 52.4542 47.4063 52.3526 47.4063 52.25C47.4063 52.1474 47.3861 52.0458 47.3468 51.951C47.3076 51.8562 47.25 51.7701 47.1775 51.6975C47.1049 51.625 47.0188 51.5674 46.924 51.5282C46.8292 51.4889 46.7276 51.4687 46.625 51.4687C46.5224 51.4687 46.4208 51.4889 46.326 51.5282C46.2313 51.5674 46.1451 51.625 46.0726 51.6975C46.0685 51.7016 45.7348 52.005 45.0765 52.1603C45.0901 51.6884 45.1148 51.1357 45.1539 50.5424C45.6462 50.4211 46.1087 50.2013 46.5135 49.8962C47.0128 49.5214 48.4638 49.1247 48.9601 49.1247C49.7189 49.1147 50.4707 49.2709 51.1628 49.5823C51.8548 49.8938 52.4703 50.3529 52.966 50.9275C54.155 52.3065 54.6578 54.3006 54.3456 56.3984L53.8573 59.6773C53.5817 61.5704 52.9643 63.3976 52.0352 65.0698ZM72.8672 63.0977C69.4857 66.1784 65.1602 67.875 60.6875 67.875C58.0934 67.8659 55.5322 67.2942 53.1805 66.1991C53.2562 66.0793 53.3297 65.957 53.3998 65.8313C53.5921 65.4869 53.7721 65.1363 53.9398 64.7794C56.049 65.7802 58.3529 66.3036 60.6875 66.3125C64.5705 66.3125 68.3644 64.8464 71.3703 62.1842C74.0119 59.8446 75.7406 56.8288 76.1933 53.8125H77.845C77.5966 57.0696 75.8135 60.414 72.8672 63.0977Z" fill="#017D03"/>
<path d="M70.8438 56.9375C71.2752 56.9375 71.625 56.5877 71.625 56.1562C71.625 55.7248 71.2752 55.375 70.8438 55.375C70.4123 55.375 70.0625 55.7248 70.0625 56.1562C70.0625 56.5877 70.4123 56.9375 70.8438 56.9375Z" fill="#017D03"/>
<path d="M66.9375 60.8438C67.369 60.8438 67.7188 60.494 67.7188 60.0625C67.7188 59.631 67.369 59.2812 66.9375 59.2812C66.506 59.2812 66.1562 59.631 66.1562 60.0625C66.1562 60.494 66.506 60.8438 66.9375 60.8438Z" fill="#017D03"/>
<path d="M63.0312 58.5C63.4627 58.5 63.8125 58.1502 63.8125 57.7188C63.8125 57.2873 63.4627 56.9375 63.0312 56.9375C62.5998 56.9375 62.25 57.2873 62.25 57.7188C62.25 58.1502 62.5998 58.5 63.0312 58.5Z" fill="#017D03"/>
<path d="M58.3438 58.5C58.7752 58.5 59.125 58.1502 59.125 57.7188C59.125 57.2873 58.7752 56.9375 58.3438 56.9375C57.9123 56.9375 57.5625 57.2873 57.5625 57.7188C57.5625 58.1502 57.9123 58.5 58.3438 58.5Z" fill="#017D03"/>
<path d="M60.6875 63.1875C61.119 63.1875 61.4688 62.8377 61.4688 62.4062C61.4688 61.9748 61.119 61.625 60.6875 61.625C60.256 61.625 59.9062 61.9748 59.9062 62.4062C59.9062 62.8377 60.256 63.1875 60.6875 63.1875Z" fill="#017D03"/>
</svg>
