<svg width="30" height="30" viewBox="0 0 30 30" fill="none" xmlns="http://www.w3.org/2000/svg">
<g clip-path="url(#clip0_1725_5018)">
<path d="M9.02312 10.3005C9.2633 10.3341 9.4856 10.1666 9.51924 9.9262C9.71424 8.53308 10.9241 7.48243 12.3334 7.48243H17.6681C19.0775 7.48243 20.2873 8.53302 20.4823 9.9262C20.5131 10.1459 20.7013 10.3048 20.917 10.3048C20.9372 10.3048 20.9577 10.3034 20.9784 10.3005C21.2188 10.2669 21.3863 10.0447 21.3527 9.80438C21.1053 8.0369 19.6115 6.69048 17.8412 6.60757L18.5779 4.83212C18.6981 4.54272 18.6257 4.21958 18.3937 4.00899C18.1615 3.79841 17.833 3.75757 17.5565 3.90522L16.4713 4.4846L15.7289 2.73646C15.6045 2.44378 15.3188 2.25464 15.0008 2.25464C14.6828 2.25464 14.397 2.44378 14.2727 2.73646L13.5303 4.4846L12.445 3.90528C12.1686 3.75774 11.84 3.79853 11.6079 4.00905C11.3758 4.21964 11.3035 4.54272 11.4236 4.83218L12.1603 6.60763C10.3901 6.69048 8.89621 8.03696 8.64883 9.80438C8.61519 10.0447 8.78277 10.2669 9.02312 10.3005ZM15.0008 3.27054L15.6927 4.89979C15.2584 5.12685 14.7431 5.12685 14.3088 4.89979L15.0008 3.27054ZM13.8832 5.66937C13.8833 5.66937 13.8833 5.66937 13.8832 5.66937C14.583 6.0429 15.4185 6.0429 16.1184 5.66937L17.6093 4.87349L16.8913 6.60352H13.1102L12.3923 4.87349L13.8832 5.66937Z" fill="white"/>
<path d="M28.9746 17.0328H27.8954C27.952 16.7303 27.982 16.4184 27.982 16.0997C27.982 13.4497 25.94 11.268 23.347 11.0444V9.99151L23.3806 10.0197C23.7895 10.3624 24.2906 10.5337 24.7919 10.5336C25.293 10.5336 25.7943 10.3623 26.2031 10.0197L26.6905 9.6113C26.857 9.47173 26.9525 9.26712 26.9525 9.04985C26.9525 8.83259 26.857 8.62798 26.6905 8.48853L26.2031 8.08007C25.3853 7.39476 24.1983 7.39476 23.3805 8.08007L23.3469 8.10825V7.60089C23.3469 7.35819 23.1502 7.16144 22.9075 7.16144C22.6648 7.16144 22.468 7.35819 22.468 7.60089V11.0444C19.8749 11.268 17.833 13.4497 17.833 16.0997C17.833 16.4184 17.863 16.7303 17.9196 17.0328H11.5073L12.4721 14.9093C12.6882 14.4336 12.7572 13.9096 12.6715 13.3941C12.5513 12.6715 12.1305 12.0276 11.5171 11.6274C10.9036 11.2271 10.1447 11.1016 9.43494 11.2829L7.80199 11.6998V7.60083C7.80199 7.35813 7.60523 7.16138 7.36254 7.16138C7.11984 7.16138 6.92309 7.35813 6.92309 7.60083V8.10819L6.88945 8.08001C6.07166 7.3947 4.88461 7.3947 4.06687 8.08001L3.57949 8.48847C3.41303 8.62798 3.31752 8.83259 3.31752 9.04979C3.31752 9.26706 3.41297 9.47167 3.57955 9.61124L4.06687 10.0196C4.4758 10.3623 4.97695 10.5336 5.47816 10.5336C5.97938 10.5336 6.48059 10.3622 6.88945 10.0196L6.92309 9.99145V11.6998L5.29014 11.2829C4.58045 11.1016 3.82154 11.2272 3.20801 11.6275C2.59453 12.0276 2.17377 12.6716 2.05359 13.3942C1.96787 13.9097 2.03684 14.4336 2.25299 14.9094L3.21773 17.0329H1.02539C0.46002 17.0329 0 17.4929 0 18.0583V19.9404C0 20.5058 0.46002 20.9658 1.02539 20.9658H1.17891V28.9746C1.17891 29.54 1.63893 30 2.2043 30H27.7957C28.3611 30 28.8211 29.54 28.8211 28.9746V25.3532C28.8211 25.1105 28.6243 24.9137 28.3816 24.9137C28.1389 24.9137 27.9422 25.1105 27.9422 25.3532V28.9746C27.9422 29.0553 27.8764 29.1211 27.7957 29.1211H2.2043C2.12355 29.1211 2.05781 29.0553 2.05781 28.9746V20.9657H7.36254C7.60523 20.9657 7.80199 20.769 7.80199 20.5263C7.80199 20.2836 7.60523 20.0868 7.36254 20.0868H1.02539C0.944648 20.0868 0.878906 20.0211 0.878906 19.9403V18.0582C0.878906 17.9775 0.944648 17.9117 1.02539 17.9117H28.9746C29.0554 17.9117 29.1211 17.9775 29.1211 18.0582V19.9403C29.1211 20.0211 29.0554 20.0868 28.9746 20.0868H9.75703C9.51434 20.0868 9.31758 20.2836 9.31758 20.5263C9.31758 20.769 9.51434 20.9657 9.75703 20.9657H27.9422V22.8276C27.9422 23.0703 28.1389 23.2671 28.3816 23.2671C28.6243 23.2671 28.8211 23.0703 28.8211 22.8276V20.9657H28.9746C29.54 20.9657 30 20.5057 30 19.9403V18.0582C30 17.4929 29.54 17.0328 28.9746 17.0328ZM23.9451 8.75372C24.4358 8.34251 25.1479 8.34251 25.6386 8.75372L25.992 9.04985L25.6386 9.34599C25.148 9.7572 24.4357 9.7572 23.9451 9.34599L23.5917 9.04985L23.9451 8.75372ZM6.3249 9.34599C5.8343 9.7572 5.12203 9.7572 4.63137 9.34599L4.27799 9.04985L4.63143 8.75372C5.12209 8.34251 5.83436 8.34251 6.32496 8.75372L6.6784 9.04985L6.3249 9.34599ZM18.7119 16.0997C18.7119 13.7862 20.5941 11.9041 22.9075 11.9041C25.2209 11.9041 27.103 13.7863 27.103 16.0997C27.103 16.4204 27.0664 16.7326 26.9979 17.0328H18.817C18.7485 16.7326 18.7119 16.4204 18.7119 16.0997ZM3.05314 14.5458C2.90941 14.2295 2.86359 13.8811 2.92061 13.5383C3.00164 13.0508 3.27428 12.6336 3.68818 12.3636C3.97646 12.1756 4.30242 12.079 4.63547 12.079C4.78072 12.079 4.92727 12.0974 5.07264 12.1345L6.7135 12.5535C7.13813 12.662 7.58695 12.662 8.01147 12.5535L9.65232 12.1345C10.1312 12.0124 10.6229 12.0936 11.0368 12.3637C11.4507 12.6337 11.7234 13.0509 11.8045 13.5384C11.8615 13.8812 11.8156 14.2296 11.6719 14.5459L10.542 17.033H4.18307L3.05314 14.5458Z" fill="white"/>
<path d="M12.0195 9.65393C11.7768 9.65393 11.5801 9.85069 11.5801 10.0934C11.5801 10.3361 11.7768 10.5328 12.0195 10.5328H12.4133C12.656 10.5328 12.8527 10.3361 12.8527 10.0934C12.8527 9.85069 12.656 9.65393 12.4133 9.65393H12.0195Z" fill="white"/>
<path d="M15.1965 9.65393H14.8027C14.56 9.65393 14.3633 9.85069 14.3633 10.0934C14.3633 10.3361 14.56 10.5328 14.8027 10.5328H15.1965C15.4392 10.5328 15.6359 10.3361 15.6359 10.0934C15.6359 9.85069 15.4392 9.65393 15.1965 9.65393Z" fill="white"/>
<path d="M17.5879 9.65393C17.3452 9.65393 17.1484 9.85069 17.1484 10.0934C17.1484 10.3361 17.3452 10.5328 17.5879 10.5328H17.9816C18.2243 10.5328 18.4211 10.3361 18.4211 10.0934C18.4211 9.85069 18.2243 9.65393 17.9816 9.65393H17.5879Z" fill="white"/>
<path d="M15.1965 14.6166H14.8027C14.56 14.6166 14.3633 14.8133 14.3633 15.056C14.3633 15.2987 14.56 15.4955 14.8027 15.4955H15.1965C15.4392 15.4955 15.6359 15.2987 15.6359 15.056C15.6359 14.8133 15.4392 14.6166 15.1965 14.6166Z" fill="white"/>
<path d="M13.4102 12.2004C13.1675 12.2004 12.9707 12.3972 12.9707 12.6399C12.9707 12.8826 13.1675 13.0793 13.4102 13.0793H13.8039C14.0466 13.0793 14.2434 12.8826 14.2434 12.6399C14.2434 12.3972 14.0466 12.2004 13.8039 12.2004H13.4102Z" fill="white"/>
<path d="M16.1953 12.2004C15.9526 12.2004 15.7559 12.3972 15.7559 12.6399C15.7559 12.8826 15.9526 13.0793 16.1953 13.0793H16.5891C16.8318 13.0793 17.0285 12.8826 17.0285 12.6399C17.0285 12.3972 16.8318 12.2004 16.5891 12.2004H16.1953Z" fill="white"/>
<path d="M13.2531 22.384C12.3134 22.384 11.5488 23.1486 11.5488 24.0883C11.5488 25.0281 12.3134 25.7927 13.2531 25.7927H16.7481C17.6879 25.7927 18.4524 25.0281 18.4524 24.0883C18.4524 23.1486 17.6879 22.384 16.7481 22.384H13.2531ZM17.5736 24.0883C17.5736 24.5435 17.2033 24.9138 16.7481 24.9138H13.2532C12.798 24.9138 12.4278 24.5435 12.4278 24.0883C12.4278 23.6332 12.798 23.2629 13.2532 23.2629H16.7481C17.2032 23.2629 17.5736 23.6332 17.5736 24.0883Z" fill="white"/>
<path d="M25.5452 6.01026L25.5596 6.015C26.0495 6.17667 26.4385 6.56567 26.6003 7.05616L26.605 7.07034C26.6802 7.29809 26.8919 7.45114 27.1318 7.45114C27.3716 7.45114 27.5834 7.29803 27.6585 7.07028L27.6634 7.05557C27.825 6.56573 28.214 6.17672 28.7039 6.01506H28.7039L28.7185 6.0102C28.9463 5.93502 29.0994 5.72333 29.0994 5.48344C29.0994 5.24356 28.9463 5.0318 28.7188 4.95674L28.7038 4.95182C28.214 4.79016 27.825 4.40116 27.6631 3.91067L27.6585 3.89661C27.5833 3.66879 27.3717 3.51575 27.1318 3.51575C26.8919 3.51575 26.6802 3.66885 26.6048 3.89713L26.6001 3.91137C26.4385 4.40122 26.0495 4.79022 25.5594 4.95194L25.545 4.95668C25.3171 5.03186 25.1641 5.24356 25.1641 5.4835C25.1641 5.72344 25.3171 5.93502 25.5452 6.01026ZM27.1316 4.80299C27.3127 5.07094 27.5441 5.30239 27.812 5.48338C27.5441 5.66444 27.3127 5.89588 27.1317 6.16377C26.9506 5.89588 26.7192 5.66444 26.4513 5.48338C26.7192 5.30233 26.9506 5.07094 27.1316 4.80299Z" fill="white"/>
<path d="M3.69957 3.87122L3.71381 3.8759C4.20365 4.03756 4.59266 4.42657 4.75379 4.91483L4.75918 4.93112C4.83436 5.15893 5.046 5.31198 5.28588 5.31198C5.52582 5.31198 5.73752 5.15887 5.81258 4.93129L5.8175 4.91641C5.9791 4.42668 6.36787 4.0378 6.85754 3.87602L6.87283 3.87104C7.10064 3.79581 7.25363 3.58411 7.25363 3.34422C7.25363 3.10434 7.10053 2.8927 6.87301 2.81764L6.85807 2.81272C6.36822 2.65106 5.97922 2.26206 5.81809 1.77379L5.8127 1.75745C5.73752 1.52963 5.52588 1.37659 5.28605 1.37659C5.04611 1.37659 4.83441 1.52969 4.7593 1.75727L4.75437 1.77221C4.59271 2.26206 4.20377 2.65106 3.71363 2.81278L3.69922 2.81758C3.47141 2.89276 3.31836 3.1044 3.31836 3.34428C3.31824 3.58405 3.47123 3.79581 3.69957 3.87122ZM5.28594 2.66389C5.46699 2.93178 5.69844 3.16323 5.96627 3.34422C5.69838 3.52528 5.46693 3.75672 5.28594 4.02456C5.10488 3.75666 4.8735 3.52528 4.60555 3.34422C4.8735 3.16323 5.10494 2.93178 5.28594 2.66389Z" fill="white"/>
<path d="M19.6158 3.23209L19.637 3.23912C20.4068 3.49312 21.018 4.10443 21.2718 4.87354L21.2791 4.89551C21.3613 5.14459 21.5927 5.31199 21.855 5.31199C22.1174 5.31199 22.349 5.14453 22.4312 4.89545L22.4382 4.87418C22.6923 4.10437 23.3035 3.49312 24.0733 3.23906L24.0946 3.23209C24.3437 3.14982 24.5111 2.91832 24.511 2.65594C24.511 2.39355 24.3436 2.16211 24.0944 2.0799L24.0732 2.07287C23.3035 1.81887 22.6923 1.20756 22.4378 0.436406L22.4312 0.416426C22.349 0.167344 22.1175 0 21.8553 0C21.5929 0 21.3614 0.167402 21.2791 0.416543L21.272 0.43793C21.018 1.20762 20.4068 1.81881 19.6372 2.07287L19.6158 2.07996C19.3667 2.16217 19.1993 2.39367 19.1992 2.656C19.1992 2.91832 19.3666 3.14982 19.6158 3.23209ZM21.8552 1.29029C22.1712 1.86457 22.6466 2.34 23.2209 2.656C22.6466 2.97205 22.1712 3.44748 21.8552 4.0217C21.5392 3.44748 21.0636 2.97199 20.4895 2.656C21.0637 2.34 21.5392 1.86451 21.8552 1.29029Z" fill="white"/>
</g>
<defs>
<clipPath id="clip0_1725_5018">
<rect width="30" height="30" fill="white"/>
</clipPath>
</defs>
</svg>
