<svg width="50" height="50" viewBox="0 0 50 50" fill="none" xmlns="http://www.w3.org/2000/svg">
<g clip-path="url(#clip0_1284_2881)">
<path d="M49.5859 34.375C46.1328 30.8906 43.5 31.8359 43.0469 32.0312L40.9609 32.8672C39.5562 31.038 37.8041 29.5043 35.8052 28.354C33.8062 27.2037 31.5998 26.4595 29.3125 26.1641C29.039 26.1641 28.7656 26.125 28.4922 26.1094C28.9694 23.1863 30.0902 20.4057 31.7734 17.9687C32.0053 18.1428 32.248 18.302 32.5 18.4453C33.6117 19.0835 34.8667 19.4302 36.1484 19.4531C37.2368 19.4576 38.305 19.1601 39.2344 18.5937C42.25 16.7812 43.9219 12.4609 43.8515 6.73437C43.8526 6.51852 43.7731 6.31004 43.6287 6.14967C43.4842 5.9893 43.2851 5.88857 43.0703 5.86719C42.8281 5.86719 37.0781 5.08594 33 7.09375C31.9649 7.60004 31.0843 8.37424 30.4495 9.33593C29.8148 10.2976 29.4492 11.4117 29.3906 12.5625C29.3498 13.4014 29.4501 14.2412 29.6875 15.0469C29.8496 15.645 30.1139 16.2107 30.4687 16.7187C29.4465 18.1435 28.6042 19.6891 27.9609 21.3203C27.5343 19.1207 26.7421 17.0081 25.6172 15.0703C26.0297 14.6092 26.36 14.0807 26.5937 13.5078C26.896 12.7264 27.065 11.8998 27.0937 11.0625C27.1315 9.91058 26.8619 8.76937 26.3127 7.7561C25.7635 6.74283 24.9545 5.89402 23.9687 5.29687C20.0625 2.95312 14.3047 3.13281 14.0547 3.14844C13.8599 3.17093 13.6782 3.25762 13.5381 3.39484C13.3981 3.53205 13.3077 3.71198 13.2812 3.90625C12.6719 9.60156 13.9531 14.0625 16.789 16.1484C17.8248 16.9126 19.0801 17.321 20.3672 17.3125C21.4451 17.2945 22.5083 17.058 23.4922 16.6172C23.7615 16.4996 24.0225 16.3639 24.2734 16.2109C25.9187 19.2535 26.7578 22.6664 26.7109 26.125C23.6471 26.2916 20.7126 27.4146 18.3203 29.3359C17.6775 29.2588 17.0297 29.2327 16.3828 29.2578L10.3203 29.5078V29.3828C10.3103 29.1673 10.2578 28.9558 10.166 28.7606C10.0741 28.5654 9.94469 28.3902 9.78504 28.245C9.62539 28.0999 9.43868 27.9877 9.23559 27.9148C9.03251 27.8419 8.81705 27.8098 8.60154 27.8203L1.57029 28.1094C1.13541 28.1312 0.72619 28.3218 0.429668 28.6406C0.14268 28.9531 -0.0114276 29.365 -1.92617e-05 29.7891L0.570293 43.4531C0.594186 43.8746 0.778114 44.271 1.0845 44.5614C1.39088 44.8519 1.79659 45.0143 2.21873 45.0156H2.28904L9.32029 44.7188C9.5361 44.71 9.74804 44.6586 9.94383 44.5674C10.1396 44.4762 10.3154 44.3471 10.4609 44.1875C10.6901 43.9382 10.8373 43.6246 10.8828 43.2891L24.6719 46.6094C25.5596 46.8054 26.4659 46.9049 27.375 46.9062H27.9062C29.8794 46.8281 31.8076 46.2932 33.539 45.3438L49.2656 36.625C49.4562 36.5164 49.6194 36.3657 49.7428 36.1843C49.8662 36.0029 49.9464 35.7957 49.9773 35.5785C50.0082 35.3613 49.989 35.14 49.9212 34.9314C49.8533 34.7228 49.7387 34.5324 49.5859 34.375ZM39.2265 33.5938L35.0312 35.2578C35.0162 34.8386 34.918 34.4266 34.7423 34.0457C34.5666 33.6648 34.3169 33.3226 34.0078 33.0391C33.7008 32.7525 33.3391 32.5308 32.9445 32.3872C32.5498 32.2436 32.1303 32.181 31.7109 32.2031L25.4609 32.4609C24.1472 31.1657 22.5004 30.2598 20.7031 29.8438C23.2177 28.292 26.1823 27.6341 29.1172 27.9766C33.0814 28.487 36.6992 30.4973 39.2265 33.5938ZM33.7578 8.74219C35.8112 7.86059 38.0319 7.43671 40.2656 7.5C40.9922 7.5 41.625 7.5 42.0781 7.5625C41.9922 12.1797 40.6094 15.7109 38.3203 17.0937C36.875 17.9609 35.1953 17.875 33.3515 16.9062C33.1797 16.8047 33.0312 16.6953 32.875 16.5859C34.3354 14.8927 36.0803 13.4676 38.0312 12.375C38.1338 12.3175 38.2241 12.2404 38.2969 12.1481C38.3697 12.0558 38.4236 11.95 38.4555 11.8368C38.4874 11.7236 38.4968 11.6053 38.4829 11.4885C38.4691 11.3718 38.4324 11.2588 38.375 11.1562C38.3175 11.0537 38.2404 10.9634 38.1481 10.8906C38.0557 10.8178 37.95 10.7639 37.8368 10.732C37.7236 10.7 37.6053 10.6907 37.4885 10.7045C37.3717 10.7184 37.2588 10.755 37.1562 10.8125C35.1019 11.978 33.2541 13.4746 31.6875 15.2422C31.5685 15.0178 31.4717 14.7823 31.3984 14.5391C31.2236 13.9197 31.155 13.2751 31.1953 12.6328C31.2433 11.8064 31.5094 11.0075 31.9663 10.3172C32.4233 9.62701 33.0549 9.0701 33.7969 8.70312L33.7578 8.74219ZM17.8281 14.6953C15.6719 13.1328 14.625 9.46875 14.9609 4.85937C16.6015 4.85937 20.4297 5.14062 23.1094 6.75C23.8222 7.18498 24.4059 7.80251 24.8001 8.53871C25.1943 9.27491 25.3847 10.1031 25.3515 10.9375C25.34 11.5778 25.2212 12.2116 25 12.8125C24.9047 13.0498 24.787 13.2774 24.6484 13.4922C23.2272 11.5859 21.4977 9.93036 19.5312 8.59375C19.3385 8.45907 19.1002 8.40645 18.8687 8.44748C18.6372 8.4885 18.4315 8.6198 18.2969 8.8125C18.1622 9.0052 18.1096 9.2435 18.1506 9.47499C18.1916 9.70648 18.3229 9.91219 18.5156 10.0469C20.3593 11.3215 21.9666 12.9078 23.2656 14.7344C23.1059 14.8377 22.9388 14.9291 22.7656 15.0078C20.9062 15.7812 19.1875 15.6875 17.8281 14.6953ZM2.34373 43.25L1.78123 29.8359L8.54685 29.5547L8.59373 30.4688L9.11717 42.9688L2.34373 43.25ZM32.664 43.75C31.1761 44.5712 29.5182 45.0365 27.8203 45.1094C26.8921 45.1531 25.9622 45.0743 25.0547 44.875L10.8203 41.4375L10.3906 31.25L16.4453 30.9922C17.1087 30.965 17.7732 31.0016 18.4297 31.1016C20.0547 31.3594 22.9844 32.0469 24.3594 33.8438C24.4484 33.9641 24.5673 34.0592 24.7043 34.1195C24.8413 34.1798 24.9917 34.2032 25.1406 34.1875L31.8281 33.9062C32.2027 33.8933 32.5674 34.0279 32.8437 34.2812C33.046 34.4739 33.1867 34.7222 33.2481 34.9948C33.3094 35.2674 33.2886 35.552 33.1883 35.8128C33.088 36.0736 32.9127 36.2988 32.6845 36.46C32.4563 36.6213 32.1855 36.7113 31.9062 36.7188L20.1172 37.2188C20.0012 37.2213 19.8869 37.2467 19.7808 37.2934C19.6747 37.3402 19.5788 37.4073 19.4986 37.4911C19.3368 37.6604 19.2487 37.887 19.2539 38.1211C19.2591 38.3552 19.357 38.5777 19.5263 38.7396C19.6955 38.9015 19.9221 38.9896 20.1562 38.9844H20.1953L31.9765 38.4922C32.3939 38.4834 32.8053 38.391 33.1863 38.2206C33.5674 38.0502 33.9105 37.8052 34.1953 37.5C34.1986 37.4872 34.1986 37.4737 34.1953 37.4609L40.9297 34.7812L43.75 33.6562C43.8203 33.6562 45.414 32.9375 47.9609 35.3125L32.664 43.75Z" fill="#FF9C00"/>
</g>
<defs>
<clipPath id="clip0_1284_2881">
<rect width="50" height="50" fill="white"/>
</clipPath>
</defs>
</svg>
