<svg width="50" height="50" viewBox="0 0 50 50" fill="none" xmlns="http://www.w3.org/2000/svg">
<g clip-path="url(#clip0_1284_2886)">
<path d="M13.8553 26.2523C13.9695 26.2523 14.0854 26.2256 14.1936 26.169L16.1825 25.1311C16.5411 24.9439 16.68 24.5015 16.4929 24.1429C16.3057 23.7843 15.8631 23.6452 15.5047 23.8324L13.5159 24.8704C13.1573 25.0575 13.0183 25.5 13.2054 25.8586C13.3361 26.1091 13.5912 26.2523 13.8553 26.2523Z" fill="#FF9C00"/>
<path d="M13.8169 15.5278C13.6297 15.1692 13.1874 15.0301 12.8287 15.2173L10.8399 16.2553C10.4813 16.4424 10.3423 16.8849 10.5294 17.2435C10.6601 17.4939 10.9151 17.6371 11.1793 17.6371C11.2935 17.6371 11.4093 17.6104 11.5176 17.5538L13.5065 16.5158C13.865 16.3287 14.0041 15.8864 13.8169 15.5278Z" fill="#FF9C00"/>
<path d="M43.9887 42.1848C43.2156 42.856 42.3359 43.4212 41.3741 43.8647C40.3719 44.3268 39.1906 44.5708 37.9565 44.5708C37.9493 44.5708 37.9421 44.5708 37.935 44.5708C36.6741 44.5671 35.3539 44.3281 34.6501 43.9763C34.4439 43.8731 34.2012 43.8731 33.995 43.9763C33.2912 44.3281 31.9711 44.5671 30.7107 44.5708C29.528 44.573 28.3893 44.3509 27.4114 43.9268L28.5709 43.1328C28.772 42.9951 28.8914 42.7665 28.8896 42.5229C28.8876 42.2792 28.7648 42.0524 28.5616 41.9179L27.3885 41.141C27.0248 40.9002 26.7325 40.5652 26.5432 40.1724L25.6356 38.2893C25.5128 38.0345 25.252 37.8727 24.9715 37.8748C24.6888 37.8765 24.4322 38.0408 24.3123 38.297L23.4212 40.2024C23.3531 40.3482 23.2706 40.4862 23.1757 40.6148C20.6577 37.3673 20.1098 33.0636 20.1098 29.9383C20.1098 27.4714 21.1208 23.7623 23.9704 21.4278C24.2833 21.1715 24.3292 20.7101 24.0729 20.3971C23.8165 20.0842 23.355 20.0384 23.0421 20.2946C22.8729 20.4332 22.7107 20.577 22.5528 20.7235L20.1777 14.2203C19.5999 12.6387 18.3682 11.3825 16.7984 10.7739C15.2284 10.1652 13.4714 10.2629 11.9781 11.0421L11.7753 11.1479L11.9779 8.94034C12.0222 8.45411 12.1698 8.00381 12.4047 7.63838C12.7335 7.12715 12.9067 6.53526 12.9055 5.92735C12.9045 5.05811 12.5401 4.21836 11.9055 3.62364C11.2621 3.02042 10.4217 2.71895 9.5388 2.7753C8.80482 2.82149 8.1221 3.12344 7.59476 3.61446C7.2722 3.36211 6.9014 3.171 6.5012 3.05879C5.65208 2.82061 4.76722 2.94122 4.0096 3.39835C2.98148 4.01866 2.42425 5.14112 2.48773 6.27872C1.7847 6.43106 1.14817 6.81788 0.691534 7.39249C0.14046 8.08487 -0.0931337 8.94678 0.0337218 9.81954C0.158819 10.6802 0.639191 11.4593 1.3513 11.9569C1.84984 12.3059 2.43441 12.5023 3.04183 12.5249C3.47601 12.5411 3.92972 12.6774 4.35442 12.9194L6.2805 14.0153L6.07776 14.1211C4.58519 14.9001 3.50052 16.2853 3.10198 17.9214C2.70335 19.5577 3.02952 21.2869 3.99681 22.6655L7.54847 27.7279C7.47005 27.7982 7.38704 27.8639 7.29964 27.9237L6.1346 28.7214C5.93353 28.8591 5.81409 29.0877 5.81595 29.3314C5.8179 29.575 5.94085 29.8018 6.14398 29.9363L7.31702 30.7131C7.6807 30.9539 7.97298 31.289 8.16234 31.6817L9.06995 33.5649C9.19212 33.8184 9.44857 33.9793 9.72972 33.9793H9.73402C10.0167 33.9776 10.2734 33.8133 10.3932 33.5571L10.8915 32.4915L13.435 36.1173C13.5776 36.3205 13.8046 36.4291 14.0352 36.4291C14.1805 36.4291 14.3272 36.386 14.4552 36.2963C14.7864 36.064 14.8664 35.6072 14.6342 35.2761L13.4263 33.5541L14.533 32.9765C14.8916 32.7894 15.0306 32.3469 14.8435 31.9883C14.6563 31.6296 14.214 31.4907 13.8553 31.6778L12.5779 32.3445L11.677 31.0603C11.8056 30.9169 11.9504 30.7879 12.1106 30.6782L13.2756 29.8806C13.4767 29.7429 13.5961 29.5143 13.5943 29.2706C13.5923 29.027 13.4695 28.8002 13.2662 28.6656L12.0932 27.8888C11.7295 27.648 11.4372 27.313 11.2479 26.9201L10.3403 25.037C10.2175 24.7822 9.95804 24.6221 9.6762 24.6226C9.39349 24.6242 9.13685 24.7886 9.01702 25.0447L8.39241 26.3803L6.76526 24.061L8.48646 23.1627C8.84505 22.9756 8.98402 22.5331 8.79691 22.1745C8.6098 21.8159 8.16741 21.6769 7.80872 21.8641L5.91673 22.8515L5.19583 21.8239C4.47073 20.7905 4.2262 19.4943 4.52503 18.2679C4.82376 17.0415 5.63675 16.0033 6.7554 15.4194L12.6557 12.3404C13.775 11.7565 15.092 11.6832 16.2689 12.1395C17.4454 12.5956 18.3687 13.5371 18.8017 14.7226L19.6096 16.9348L17.5807 17.909C17.216 18.0841 17.0623 18.5216 17.2374 18.8862C17.3635 19.1486 17.6253 19.3019 17.8983 19.3019C18.0045 19.3019 18.1125 19.2786 18.2148 19.2295L20.1146 18.3173L21.4338 21.9295C19.4059 24.475 18.645 27.6726 18.645 29.9379C18.645 33.3097 19.2528 37.9724 22.0481 41.5498L21.4298 41.9732C21.2287 42.1108 21.1093 42.3395 21.1112 42.5831C21.1131 42.8268 21.236 43.0535 21.4392 43.1881L22.6122 43.9649C22.8557 44.1262 23.0662 44.3305 23.2363 44.5652C21.8992 44.5038 20.6366 43.8301 19.846 42.7036L16.597 38.0738C16.3647 37.7427 15.9078 37.6628 15.5768 37.895C15.2456 38.1274 15.1657 38.5842 15.398 38.9152L18.647 43.5451C19.7541 45.1227 21.5552 46.0354 23.4371 46.0354C23.6162 46.0354 23.7962 46.0268 23.9763 46.0101L24.3652 46.8169C24.4873 47.0704 24.7438 47.2314 25.0249 47.2314H25.0292C25.3119 47.2297 25.5686 47.0653 25.6884 46.8092L26.4828 45.1106C26.541 45.1384 26.5996 45.1682 26.6574 45.1948C27.8507 45.7451 29.2442 46.0357 30.6895 46.0357H30.7143C32.0579 46.0316 33.3982 45.8047 34.3224 45.433C35.2466 45.8047 36.5869 46.0316 37.9311 46.0357C39.3807 46.0385 40.7874 45.7482 41.9874 45.1949C43.0749 44.6935 44.0713 44.0528 44.949 43.2909C45.2543 43.0258 45.287 42.5631 45.0219 42.2577C44.7568 41.9524 44.2942 41.9195 43.9887 42.1848ZM8.12728 29.1323C8.70032 28.7399 9.15862 28.2001 9.45296 27.571L9.69066 27.0628L9.92855 27.5564C10.2324 28.1866 10.7012 28.724 11.2846 29.1103L11.5509 29.2866L11.2833 29.4698C10.7103 29.8622 10.252 30.4022 9.95765 31.0313L9.72005 31.5395L9.48216 31.0459C9.17845 30.4156 8.7095 29.8783 8.1261 29.4919L7.8598 29.3156L8.12728 29.1323ZM5.07913 11.6465C4.45091 11.2886 3.76526 11.0861 3.09642 11.0611C2.77132 11.0489 2.45823 10.9438 2.19075 10.7565C1.80267 10.4854 1.5515 10.0777 1.48333 9.60889C1.41526 9.14053 1.54105 8.67735 1.83792 8.3043C2.1056 7.96768 2.49085 7.75167 2.91243 7.68946C3.19232 8.17335 3.58978 8.57178 4.07835 8.8503C4.45755 9.06651 4.79915 9.39913 5.06624 9.81221L6.93382 12.7019L5.07913 11.6465ZM8.70814 12.7485L6.29651 9.017C5.90247 8.40733 5.38636 7.90967 4.80384 7.57764C4.49417 7.40108 4.2513 7.13448 4.10159 6.80674C3.74954 6.03614 4.04153 5.08985 4.76644 4.65254C5.57562 4.13936 6.72923 4.4628 7.15286 5.31856C7.30403 5.60831 7.36829 5.93252 7.3386 6.25606C7.27757 6.92188 7.38997 7.62764 7.6639 8.29717L9.34798 12.4147L8.70814 12.7485ZM11.1727 6.8462C10.8108 7.40919 10.5847 8.08741 10.5192 8.80704L10.3242 10.9322L9.01956 7.74268C8.83441 7.29004 8.75755 6.82227 8.7972 6.38995C8.84847 5.83204 8.74866 5.27442 8.51175 4.76729C8.80404 4.45665 9.2015 4.26426 9.63128 4.23731C10.1071 4.20713 10.5585 4.36866 10.9038 4.69239C11.2495 5.01641 11.4403 5.45567 11.4408 5.9296C11.4413 6.25557 11.3487 6.57247 11.1727 6.8462ZM26.5783 42.7219C26.0053 43.1143 25.5469 43.6542 25.2527 44.2833L25.015 44.7915L24.7771 44.298C24.4733 43.6677 24.0044 43.1304 23.421 42.744L23.1547 42.5677L23.4224 42.3844C23.9954 41.992 24.4537 41.4522 24.7481 40.8231L24.9858 40.3148L25.2237 40.8084C25.5275 41.4387 25.9964 41.9761 26.5797 42.3623L26.846 42.5387L26.5783 42.7219Z" fill="#FF9C00"/>
<path d="M49.6813 23.2972C49.8824 23.1595 50.0018 22.9309 50 22.6872C49.998 22.4436 49.8752 22.2168 49.672 22.0822L48.4989 21.3054C48.1352 21.0646 47.843 20.7296 47.6536 20.3367L46.746 18.4536C46.6238 18.2001 46.3674 18.0392 46.0862 18.0392C46.0848 18.0392 46.0833 18.0392 46.0819 18.0392C45.7991 18.0408 45.5426 18.2052 45.4227 18.4613L44.8324 19.7237C43.1731 18.6074 41.2557 18.0407 39.1184 18.039C38.9314 18.0353 37.3491 18.0252 35.4971 18.8536C35.463 18.6019 35.4168 18.3481 35.354 18.0944C35.7365 16.6794 36.481 15.3816 37.5455 14.3171L38.3668 13.4958C38.6528 13.2098 38.6528 12.746 38.3668 12.4601C38.0808 12.174 37.617 12.174 37.331 12.4601L36.5098 13.2814C35.6622 14.1289 34.9864 15.1024 34.4991 16.1594C32.8321 13.7058 29.6136 12.8818 29.468 12.8457C29.1059 12.7562 28.7337 12.9529 28.6045 13.3031C28.56 13.4235 27.7297 15.7303 28.1761 18.1213C27.5189 18.2009 26.8798 18.338 26.2682 18.5339C25.8829 18.6573 25.6706 19.0696 25.794 19.4548C25.8936 19.7657 26.1814 19.964 26.4914 19.964C26.5654 19.964 26.6407 19.9526 26.715 19.9289C27.3187 19.7356 27.9556 19.6084 28.6135 19.5472C28.6669 19.6675 28.7231 19.7872 28.7858 19.9055C29.2297 20.7433 29.8563 21.416 30.5253 21.9512C30.5519 22.0275 30.5909 22.1008 30.6442 22.1675C31.5029 23.2408 32.7398 23.7853 34.3207 23.7858C34.3215 23.7858 34.3223 23.7859 34.3229 23.7859C34.3235 23.7859 34.3242 23.7858 34.3248 23.7858C35.9055 23.7853 37.1424 23.2408 38.0011 22.1676C38.2537 21.8518 38.2025 21.3908 37.8867 21.1381C37.5708 20.8854 37.1099 20.9367 36.8572 21.2525C36.466 21.7414 35.9571 22.0591 35.3162 22.2126C35.4222 21.7333 35.5224 21.1279 35.5572 20.4569C37.3813 19.4695 39.0684 19.5032 39.0834 19.5035C39.0918 19.5038 39.1002 19.5039 39.1087 19.5039C40.9871 19.5039 42.6632 20.0071 44.1018 20.9991C43.9826 21.1261 43.8503 21.241 43.7055 21.3402L42.5404 22.138C42.3393 22.2757 42.2199 22.5043 42.2218 22.748C42.2237 22.9916 42.3466 23.2184 42.5498 23.3529L43.7228 24.1298C44.0865 24.3706 44.3788 24.7056 44.5682 25.0984L45.4758 26.9816C45.5979 27.2351 45.8544 27.396 46.1355 27.396H46.1398C46.4225 27.3943 46.6792 27.23 46.799 26.9738L47.554 25.3596C48.1836 26.8231 48.5351 28.4369 48.5351 29.9382C48.5351 33.85 47.6847 37.2449 46.0757 39.7558C45.8575 40.0963 45.9566 40.5493 46.2973 40.7676C46.4196 40.846 46.5564 40.8834 46.6917 40.8834C46.9329 40.8834 47.1692 40.7643 47.3091 40.546C49.0695 37.7989 50 34.1308 50 29.9382C50 27.9932 49.4803 25.8853 48.5642 24.0621L49.6813 23.2972ZM33.8305 22.1243C32.8249 21.75 30.9504 20.8626 30.0801 19.2197C29.2092 17.5757 29.529 15.5248 29.7841 14.4836C30.7879 14.855 32.6591 15.7383 33.534 17.39C34.4045 19.0332 34.0854 21.0827 33.8305 22.1243ZM47.6888 22.8862C47.1157 23.2786 46.6573 23.8186 46.3632 24.4477L46.1255 24.9559L45.8876 24.4623C45.5838 23.832 45.1149 23.2946 44.5315 22.9084L44.2652 22.732L44.5329 22.5487C45.1059 22.1564 45.5643 21.6164 45.8585 20.9874L46.0962 20.4792L46.3341 20.9728C46.6379 21.603 47.1067 22.1404 47.6901 22.5267L47.9564 22.703L47.6888 22.8862Z" fill="#FF9C00"/>
<path d="M21.4393 9.35234L22.6123 10.1292C22.976 10.37 23.2683 10.705 23.4576 11.0979L24.3652 12.981C24.4874 13.2345 24.7438 13.3954 25.025 13.3954H25.0293C25.312 13.3938 25.5686 13.2294 25.6885 12.9732L26.5796 11.0678C26.763 10.6756 27.0487 10.3391 27.4059 10.0944L28.5709 9.29668C28.772 9.15898 28.8914 8.93037 28.8895 8.68672C28.8876 8.44307 28.7647 8.21631 28.5615 8.08174L27.3885 7.30488C27.0248 7.06406 26.7325 6.7291 26.5432 6.33623L25.6355 4.45312C25.5128 4.19834 25.2519 4.03584 24.9715 4.03867C24.6888 4.04033 24.4321 4.20469 24.3123 4.46084L23.4212 6.36631C23.2378 6.7585 22.952 7.09502 22.5949 7.33965L21.4299 8.1373C21.2288 8.275 21.1094 8.50361 21.1112 8.74727C21.1131 8.99102 21.236 9.21777 21.4393 9.35234ZM23.4225 8.54824C23.9955 8.15586 24.4539 7.61592 24.7481 6.98691L24.9858 6.47871L25.2237 6.97227C25.5275 7.60254 25.9965 8.13994 26.5798 8.52617L26.8461 8.70254L26.5784 8.88584C26.0054 9.27822 25.547 9.81816 25.2527 10.4472L25.015 10.9554L24.7771 10.4618C24.4733 9.83154 24.0045 9.29414 23.4211 8.90791L23.1548 8.73154L23.4225 8.54824Z" fill="#FF9C00"/>
</g>
<defs>
<clipPath id="clip0_1284_2886">
<rect width="50" height="50" fill="white"/>
</clipPath>
</defs>
</svg>
