<svg width="50" height="50" viewBox="0 0 50 50" fill="none" xmlns="http://www.w3.org/2000/svg">
<path d="M30.871 35.6898C29.4991 35.6991 28.1383 35.4425 26.864 34.9344C26.7688 34.896 26.682 34.8393 26.6088 34.7674C26.5355 34.6955 26.4771 34.6099 26.4369 34.5154C26.3967 34.421 26.3755 34.3195 26.3745 34.2169C26.3735 34.1142 26.3928 34.0124 26.4311 33.9172C26.4695 33.822 26.5263 33.7353 26.5981 33.662C26.67 33.5887 26.7556 33.5303 26.8501 33.4901C26.9446 33.4499 27.046 33.4287 27.1486 33.4277C27.2513 33.4268 27.3531 33.446 27.4483 33.4844C30.3671 34.6625 33.9327 34.2148 38.0327 32.1562C46.6147 27.8461 47.0132 15.2969 46.8382 10.5406C45.7311 11.2836 43.7874 11.8969 40.3983 11.5141C36.6796 11.0891 27.3358 13.4055 23.4835 19.1445C21.3046 22.3906 21.3608 26.157 23.6499 30.3383C23.817 30.6217 24.0086 30.8899 24.2226 31.1398C24.2882 31.2187 24.3377 31.3097 24.3682 31.4077C24.3987 31.5056 24.4096 31.6086 24.4003 31.7108C24.3909 31.813 24.3616 31.9124 24.3139 32.0032C24.2661 32.094 24.201 32.1746 24.1222 32.2402C24.0433 32.3059 23.9523 32.3554 23.8543 32.3859C23.7564 32.4164 23.6534 32.4273 23.5512 32.4179C23.449 32.4086 23.3496 32.3793 23.2588 32.3315C23.168 32.2838 23.0874 32.2187 23.0218 32.1398C22.7409 31.812 22.4917 31.4583 22.2772 31.0836C19.7241 26.4211 19.6913 21.9906 22.1858 18.2711C26.4436 11.9297 36.4163 9.48829 40.5741 9.95782C45.9569 10.568 46.7304 8.42969 46.7366 8.4086C46.7817 8.23122 46.8868 8.07492 47.034 7.96625C47.1813 7.85759 47.3616 7.80326 47.5444 7.81251C47.7273 7.82414 47.9003 7.89968 48.0331 8.02593C48.1659 8.15217 48.2501 8.32108 48.271 8.50313C48.3608 9.28438 50.3327 27.7219 38.7343 33.5469C36.3153 34.8624 33.623 35.5961 30.871 35.6898Z" fill="#FF9C00"/>
<path d="M17.9687 41.4062C17.8321 41.4061 17.698 41.3702 17.5797 41.3021C17.4614 41.2339 17.363 41.136 17.2943 41.018C17.2256 40.9 17.189 40.7661 17.1882 40.6295C17.1875 40.493 17.2225 40.3586 17.2898 40.2398C22.473 31.1584 29.5492 23.2983 38.0382 17.193C38.2118 17.0833 38.4216 17.0464 38.6223 17.0902C38.8229 17.1341 38.9982 17.2551 39.1102 17.4272C39.2222 17.5994 39.262 17.8086 39.2209 18.0098C39.1798 18.211 39.0611 18.388 38.8906 18.5023C30.6094 24.469 23.7063 32.1447 18.6484 41.0101C18.5802 41.1304 18.4814 41.2304 18.362 41.3C18.2426 41.3696 18.1069 41.4062 17.9687 41.4062Z" fill="#FF9C00"/>
<path d="M11.179 33.9359C9.67316 33.8871 8.19948 33.4877 6.87507 32.7695C0.540691 29.5891 1.60397 19.6391 1.65241 19.2188C1.67353 19.0369 1.75782 18.8683 1.89059 18.7423C2.02335 18.6163 2.19614 18.5409 2.37882 18.5292C2.5615 18.5176 2.74246 18.5705 2.89012 18.6787C3.03779 18.7868 3.14278 18.9434 3.18678 19.1211C3.19382 19.1211 3.61022 19.932 6.02975 19.6578C8.29538 19.4047 13.7337 20.7344 16.0563 24.1945C17.029 25.6438 17.8133 28.057 16.0243 31.3242C15.9004 31.5408 15.7565 31.7453 15.5946 31.9352C15.5296 32.0157 15.4493 32.0825 15.3582 32.1318C15.2672 32.181 15.1673 32.2117 15.0643 32.2219C14.9613 32.2322 14.8573 32.222 14.7583 32.1917C14.6594 32.1615 14.5674 32.1119 14.4877 32.0458C14.4081 31.9797 14.3424 31.8985 14.2944 31.8068C14.2464 31.7151 14.2171 31.6147 14.2082 31.5116C14.1993 31.4085 14.211 31.3047 14.2426 31.2061C14.2742 31.1075 14.3251 31.0162 14.3923 30.9375C14.4894 30.8233 14.577 30.7013 14.654 30.5727C15.7876 28.5031 15.8258 26.65 14.7594 25.0656C12.8923 22.2852 8.15788 20.9789 6.20475 21.2109C5.17291 21.3754 4.11638 21.2815 3.12975 20.9375C3.10397 23.6938 3.56413 29.3563 7.57507 31.3711C9.63757 32.4078 11.4094 32.6383 12.8407 32.0602C13.0324 31.9841 13.2465 31.987 13.4361 32.0681C13.6258 32.1493 13.7756 32.3022 13.853 32.4934C13.9303 32.6846 13.9289 32.8987 13.8491 33.0889C13.7692 33.2791 13.6173 33.43 13.4266 33.5086C12.7122 33.7954 11.9488 33.9406 11.179 33.9359Z" fill="#FF9C00"/>
<path d="M17.9688 36.9445C17.8305 36.9447 17.6946 36.9081 17.5751 36.8385C17.4555 36.7689 17.3566 36.6688 17.2884 36.5485C14.6587 31.9314 11.0658 27.9346 6.754 24.8297C6.58037 24.7166 6.45879 24.5391 6.416 24.3363C6.37322 24.1335 6.41274 23.9221 6.52588 23.7484C6.63901 23.5748 6.81648 23.4532 7.01925 23.4105C7.22203 23.3677 7.43349 23.4072 7.60713 23.5203C12.1407 26.7499 15.9099 30.9354 18.6485 35.7813C18.7151 35.9 18.7495 36.0341 18.7483 36.1703C18.7471 36.3064 18.7103 36.4399 18.6416 36.5574C18.5729 36.675 18.4747 36.7725 18.3567 36.8404C18.2387 36.9083 18.105 36.9442 17.9688 36.9445Z" fill="#FF9C00"/>
</svg>
