<svg width="50" height="50" viewBox="0 0 50 50" fill="none" xmlns="http://www.w3.org/2000/svg">
<path d="M36.1816 21.7981V11.2683C36.1816 10.8081 35.8085 10.435 35.3483 10.435C33.0509 10.435 31.1816 8.56608 31.1816 6.26912C31.1816 5.80892 30.8085 5.43579 30.3483 5.43579H10.8325C10.3723 5.43579 9.99919 5.80892 9.99919 6.26912C9.99919 8.56608 8.13029 10.435 5.83333 10.435C5.37313 10.435 5 10.8081 5 11.2683V26.7013C5 35.2991 19.6273 41.9507 20.2502 42.2294C20.3585 42.2778 20.4744 42.3022 20.5908 42.3022C20.7068 42.3022 20.8223 42.2782 20.9306 42.2298C20.9988 42.1992 22.4924 41.5266 24.5333 40.3536C26.6541 42.9235 29.8623 44.5642 33.4469 44.5642C39.8173 44.5642 45 39.3815 45 33.0107C45 27.5838 41.2341 23.0314 36.1816 21.7981ZM20.592 40.5493C18.4265 39.5142 6.66667 33.5726 6.66667 26.7013V12.0422C9.21712 11.676 11.2402 9.65291 11.6064 7.10246H29.5744C29.941 9.65291 31.9641 11.676 34.515 12.0422V21.5116C34.1628 21.4791 33.8074 21.4575 33.4469 21.4575C27.076 21.4575 21.8933 26.6402 21.8933 33.0107C21.8933 35.1979 22.5154 37.2375 23.5754 38.983C22.2218 39.7548 21.1205 40.2984 20.592 40.5493ZM33.4469 42.8975C27.9952 42.8975 23.56 38.4623 23.56 33.0107C23.56 27.5594 27.9952 23.1242 33.4469 23.1242C38.8981 23.1242 43.3333 27.5594 43.3333 33.0107C43.3333 38.4623 38.8981 42.8975 33.4469 42.8975Z" fill="#FF9C00"/>
<path d="M33.4465 28.8176C34.3726 28.8176 35.1262 29.5711 35.1262 30.4977C35.1262 30.9579 35.4993 31.331 35.9595 31.331C36.4197 31.331 36.7928 30.9579 36.7928 30.4977C36.7928 28.9417 35.7208 27.6417 34.2798 27.2687V26.6899C34.2798 26.2297 33.9067 25.8565 33.4465 25.8565C32.9863 25.8565 32.6132 26.2297 32.6132 26.6899V27.2687C31.1721 27.6417 30.0997 28.9417 30.0997 30.4977C30.0997 32.3429 31.6012 33.844 33.4465 33.844C34.3726 33.844 35.1262 34.5976 35.1262 35.5241C35.1262 36.4506 34.3726 37.2042 33.4465 37.2042C32.52 37.2042 31.7664 36.4506 31.7664 35.5241C31.7664 35.0639 31.3933 34.6908 30.9331 34.6908C30.4729 34.6908 30.0997 35.0639 30.0997 35.5241C30.0997 37.08 31.1721 38.38 32.6132 38.7531V39.3315C32.6132 39.7917 32.9863 40.1648 33.4465 40.1648C33.9067 40.1648 34.2798 39.7917 34.2798 39.3315V38.7531C35.7208 38.38 36.7928 37.08 36.7928 35.5241C36.7928 33.6788 35.2918 32.1773 33.4465 32.1773C32.52 32.1773 31.7664 31.4238 31.7664 30.4977C31.7664 29.5711 32.52 28.8176 33.4465 28.8176Z" fill="#FF9C00"/>
<path d="M24.7188 19.008C24.3933 18.6824 23.8659 18.6824 23.5404 19.008L18.009 24.5398L15.5489 22.0797C15.2233 21.7541 14.696 21.7541 14.3705 22.0797C14.045 22.4052 14.045 22.9325 14.3705 23.258L17.4198 26.3074C17.5761 26.4636 17.788 26.5515 18.009 26.5515C18.2299 26.5515 18.4419 26.4636 18.5982 26.3074L24.7188 20.1864C25.0443 19.8608 25.0443 19.3335 24.7188 19.008Z" fill="#FF9C00"/>
</svg>
