<svg width="50" height="50" viewBox="0 0 50 50" fill="none" xmlns="http://www.w3.org/2000/svg">
<g clip-path="url(#clip0_1284_2915)">
<path d="M15.0372 17.1675C15.4375 17.2235 15.808 16.9442 15.8641 16.5436C16.1891 14.2218 18.2055 12.4707 20.5544 12.4707H29.4455C31.7945 12.4707 33.8109 14.2217 34.1359 16.5436C34.1871 16.9098 34.5008 17.1746 34.8603 17.1746C34.8941 17.1746 34.9283 17.1722 34.9627 17.1675C35.3633 17.1114 35.6426 16.7412 35.5866 16.3406C35.1742 13.3948 32.6845 11.1508 29.734 11.0126L30.9619 8.05349C31.1621 7.57117 31.0415 7.03259 30.6548 6.68162C30.2679 6.33064 29.7203 6.26257 29.2596 6.50867L27.4509 7.47429L26.2135 4.56072C26.0063 4.07292 25.53 3.75769 25 3.75769C24.47 3.75769 23.9938 4.07292 23.7866 4.56072L22.5492 7.47429L20.7404 6.50876C20.2797 6.26287 19.732 6.33083 19.3451 6.68171C18.9584 7.03269 18.8378 7.57117 19.038 8.05359L20.2659 11.0127C17.3155 11.1508 14.8257 13.3949 14.4134 16.3406C14.3574 16.7412 14.6366 17.1114 15.0372 17.1675ZM25 5.45085L26.1533 8.16628C25.4293 8.5447 24.5705 8.5447 23.8467 8.16628L25 5.45085ZM23.1374 9.4489C23.1375 9.4489 23.1375 9.4489 23.1374 9.4489C24.3036 10.0715 25.6962 10.0715 26.8626 9.4489L29.3475 8.12244L28.1509 11.0058H21.8491L20.6526 8.12244L23.1374 9.4489Z" fill="#FF9C00"/>
<path d="M48.291 28.3881H46.4923C46.5866 27.8838 46.6366 27.3641 46.6366 26.8328C46.6366 22.4161 43.2334 18.78 38.9116 18.4074V16.6526L38.9677 16.6995C39.6492 17.2707 40.4844 17.5562 41.3198 17.5561C42.1551 17.5561 42.9905 17.2705 43.6719 16.6995L44.4842 16.0189C44.7617 15.7863 44.9208 15.4452 44.9208 15.0831C44.9208 14.721 44.7616 14.38 44.4842 14.1476L43.6719 13.4668C42.3089 12.3246 40.3305 12.3246 38.9676 13.4668L38.9115 13.5138V12.6682C38.9115 12.2637 38.5836 11.9358 38.1791 11.9358C37.7746 11.9358 37.4467 12.2637 37.4467 12.6682V18.4074C33.1249 18.78 29.7217 22.4161 29.7217 26.8328C29.7217 27.3641 29.7717 27.8838 29.866 28.3881H19.1789L20.7868 24.8489C21.1471 24.056 21.262 23.1826 21.1191 22.3235C20.9188 21.1192 20.2176 20.046 19.1951 19.379C18.1727 18.7119 16.9078 18.5027 15.7249 18.8048L13.0033 19.4997V12.6681C13.0033 12.2636 12.6754 11.9357 12.2709 11.9357C11.8664 11.9357 11.5385 12.2636 11.5385 12.6681V13.5137L11.4824 13.4667C10.1194 12.3245 8.14102 12.3245 6.77812 13.4667L5.96582 14.1475C5.68838 14.38 5.5292 14.721 5.5292 15.083C5.5292 15.4451 5.68828 15.7862 5.96592 16.0188L6.77812 16.6994C7.45967 17.2705 8.29492 17.556 9.13027 17.556C9.96563 17.556 10.801 17.2704 11.4824 16.6994L11.5385 16.6525V19.4997L8.81689 18.8048C7.63408 18.5027 6.36924 18.712 5.34668 19.3791C4.32422 20.0461 3.62295 21.1194 3.42266 22.3237C3.27979 23.1828 3.39473 24.0561 3.75498 24.849L5.36289 28.3882H1.70898C0.766699 28.3882 0 29.1549 0 30.0972V33.234C0 34.1763 0.766699 34.943 1.70898 34.943H1.96484V48.291C1.96484 49.2333 2.73154 50 3.67383 50H46.3262C47.2685 50 48.0352 49.2333 48.0352 48.291V42.2553C48.0352 41.8508 47.7072 41.5229 47.3027 41.5229C46.8982 41.5229 46.5703 41.8508 46.5703 42.2553V48.291C46.5703 48.4256 46.4607 48.5352 46.3262 48.5352H3.67383C3.53926 48.5352 3.42969 48.4256 3.42969 48.291V34.9429H12.2709C12.6754 34.9429 13.0033 34.615 13.0033 34.2105C13.0033 33.806 12.6754 33.4781 12.2709 33.4781H1.70898C1.57441 33.4781 1.46484 33.3685 1.46484 33.2339V30.0971C1.46484 29.9625 1.57441 29.853 1.70898 29.853H48.291C48.4256 29.853 48.5352 29.9625 48.5352 30.0971V33.2339C48.5352 33.3685 48.4256 33.4781 48.291 33.4781H16.2617C15.8572 33.4781 15.5293 33.806 15.5293 34.2105C15.5293 34.615 15.8572 34.9429 16.2617 34.9429H46.5703V38.0461C46.5703 38.4506 46.8982 38.7785 47.3027 38.7785C47.7072 38.7785 48.0352 38.4506 48.0352 38.0461V34.9429H48.291C49.2333 34.9429 50 34.1762 50 33.2339V30.0971C50 29.1548 49.2333 28.3881 48.291 28.3881ZM39.9085 14.5896C40.7263 13.9042 41.9132 13.9042 42.7311 14.5896L43.32 15.0831L42.7311 15.5767C41.9133 16.262 40.7262 16.262 39.9085 15.5767L39.3194 15.0831L39.9085 14.5896ZM10.5415 15.5767C9.72383 16.262 8.53672 16.262 7.71895 15.5767L7.12998 15.0831L7.71904 14.5896C8.53682 13.9042 9.72393 13.9042 10.5416 14.5896L11.1307 15.0831L10.5415 15.5767ZM31.1865 26.8328C31.1865 22.9771 34.3234 19.8403 38.1791 19.8403C42.0348 19.8403 45.1717 22.9772 45.1717 26.8328C45.1717 27.3673 45.1107 27.8877 44.9966 28.3881H31.3616C31.2475 27.8877 31.1865 27.3673 31.1865 26.8328ZM5.08857 24.2431C4.84902 23.7159 4.77266 23.1352 4.86768 22.5639C5.00273 21.7514 5.45713 21.0561 6.14697 20.6061C6.62744 20.2927 7.1707 20.1318 7.72578 20.1318C7.96787 20.1318 8.21211 20.1623 8.45439 20.2242L11.1892 20.9226C11.8969 21.1033 12.6449 21.1034 13.3524 20.9226L16.0872 20.2242C16.8853 20.0206 17.7048 20.1561 18.3947 20.6062C19.0846 21.0562 19.539 21.7516 19.6741 22.5641C19.7691 23.1354 19.6927 23.716 19.4531 24.2433L17.5699 28.3883H6.97178L5.08857 24.2431Z" fill="#FF9C00"/>
<path d="M20.0312 16.0898C19.6268 16.0898 19.2988 16.4178 19.2988 16.8223C19.2988 17.2268 19.6268 17.5547 20.0312 17.5547H20.6875C21.092 17.5547 21.4199 17.2268 21.4199 16.8223C21.4199 16.4178 21.092 16.0898 20.6875 16.0898H20.0312Z" fill="#FF9C00"/>
<path d="M25.3281 16.0898H24.6719C24.2674 16.0898 23.9395 16.4178 23.9395 16.8223C23.9395 17.2268 24.2674 17.5547 24.6719 17.5547H25.3281C25.7326 17.5547 26.0605 17.2268 26.0605 16.8223C26.0605 16.4178 25.7326 16.0898 25.3281 16.0898Z" fill="#FF9C00"/>
<path d="M29.3125 16.0898C28.908 16.0898 28.5801 16.4178 28.5801 16.8223C28.5801 17.2268 28.908 17.5547 29.3125 17.5547H29.9688C30.3732 17.5547 30.7012 17.2268 30.7012 16.8223C30.7012 16.4178 30.3732 16.0898 29.9688 16.0898H29.3125Z" fill="#FF9C00"/>
<path d="M25.3281 24.361H24.6719C24.2674 24.361 23.9395 24.689 23.9395 25.0934C23.9395 25.4979 24.2674 25.8259 24.6719 25.8259H25.3281C25.7326 25.8259 26.0605 25.4979 26.0605 25.0934C26.0605 24.689 25.7326 24.361 25.3281 24.361Z" fill="#FF9C00"/>
<path d="M22.3516 20.334C21.9471 20.334 21.6191 20.6619 21.6191 21.0664C21.6191 21.4709 21.9471 21.7988 22.3516 21.7988H23.0078C23.4123 21.7988 23.7402 21.4709 23.7402 21.0664C23.7402 20.6619 23.4123 20.334 23.0078 20.334H22.3516Z" fill="#FF9C00"/>
<path d="M26.9922 20.334C26.5877 20.334 26.2598 20.6619 26.2598 21.0664C26.2598 21.4709 26.5877 21.7988 26.9922 21.7988H27.6484C28.0529 21.7988 28.3809 21.4709 28.3809 21.0664C28.3809 20.6619 28.0529 20.334 27.6484 20.334H26.9922Z" fill="#FF9C00"/>
<path d="M22.0876 37.3066C20.5213 37.3066 19.2471 38.5809 19.2471 40.1472C19.2471 41.7135 20.5213 42.9877 22.0876 42.9877H27.9125C29.4788 42.9877 30.753 41.7135 30.753 40.1472C30.753 38.5809 29.4788 37.3066 27.9125 37.3066H22.0876ZM29.2883 40.1472C29.2883 40.9058 28.6712 41.5229 27.9126 41.5229H22.0877C21.3291 41.5229 20.712 40.9058 20.712 40.1472C20.712 39.3886 21.3291 38.7715 22.0877 38.7715H27.9126C28.6711 38.7715 29.2883 39.3886 29.2883 40.1472Z" fill="#FF9C00"/>
<path d="M42.5756 10.0172L42.5997 10.0251C43.4161 10.2945 44.0645 10.9429 44.3342 11.7604L44.342 11.784C44.4674 12.1636 44.8201 12.4187 45.2199 12.4187C45.6197 12.4187 45.9727 12.1635 46.0979 11.7839L46.106 11.7594C46.3754 10.943 47.0237 10.2946 47.8401 10.0252H47.8402L47.8646 10.0171C48.2442 9.89181 48.4993 9.53898 48.4993 9.13917C48.4993 8.73937 48.2442 8.38644 47.8649 8.26134L47.84 8.25314C47.0236 7.9837 46.3753 7.33536 46.1056 6.51788L46.0979 6.49445C45.9726 6.11476 45.6198 5.85968 45.22 5.85968C44.8201 5.85968 44.4673 6.11486 44.3417 6.49532L44.3339 6.51906C44.0645 7.33546 43.4162 7.9838 42.5993 8.25333L42.5753 8.26124C42.1955 8.38654 41.9404 8.73937 41.9404 9.13927C41.9404 9.53917 42.1955 9.89181 42.5756 10.0172ZM45.2197 8.00509C45.5215 8.45167 45.9072 8.83741 46.3537 9.13907C45.9072 9.44083 45.5215 9.82657 45.2198 10.2731C44.9181 9.82657 44.5323 9.44083 44.0858 9.13907C44.5323 8.83732 44.918 8.45167 45.2197 8.00509Z" fill="#FF9C00"/>
<path d="M6.16465 6.45203L6.18838 6.45984C7.00479 6.72927 7.65312 7.37761 7.92168 8.19138L7.93066 8.21853C8.05596 8.59822 8.40869 8.8533 8.8085 8.8533C9.2084 8.8533 9.56123 8.59812 9.68633 8.21882L9.69453 8.19402C9.96387 7.37781 10.6118 6.72966 11.4279 6.46003L11.4534 6.45173C11.8331 6.32634 12.0881 5.97351 12.0881 5.57371C12.0881 5.1739 11.8329 4.82117 11.4537 4.69607L11.4288 4.68787C10.6124 4.41843 9.96406 3.77009 9.69551 2.95632L9.68652 2.92908C9.56123 2.54939 9.2085 2.29431 8.80879 2.29431C8.40889 2.29431 8.05605 2.54949 7.93086 2.92878L7.92266 2.95369C7.65322 3.77009 7.00498 4.41843 6.18809 4.68796L6.16406 4.69597C5.78438 4.82126 5.5293 5.174 5.5293 5.5738C5.5291 5.97341 5.78408 6.32634 6.16465 6.45203ZM8.80859 4.43982C9.11035 4.8863 9.49609 5.27205 9.94248 5.57371C9.496 5.87546 9.11025 6.26121 8.80859 6.70759C8.50684 6.26111 8.12119 5.87546 7.67461 5.57371C8.12119 5.27205 8.50693 4.8863 8.80859 4.43982Z" fill="#FF9C00"/>
<path d="M32.6934 5.38682L32.7287 5.39853C34.0116 5.82187 35.0304 6.84072 35.4533 8.12256L35.4654 8.15918C35.6024 8.57432 35.9882 8.85332 36.4254 8.85332C36.8627 8.85332 37.2486 8.57422 37.3856 8.15908L37.3974 8.12363C37.8208 6.84062 38.8396 5.82188 40.1226 5.39844L40.158 5.38682C40.5731 5.24971 40.8521 4.86387 40.8521 4.42656C40.852 3.98926 40.573 3.60352 40.1577 3.4665L40.1224 3.45479C38.8395 3.03145 37.8208 2.0126 37.3967 0.727344L37.3856 0.694043C37.2486 0.278906 36.8629 0 36.4258 0C35.9885 0 35.6026 0.279004 35.4655 0.694238L35.4537 0.729883C35.0304 2.0127 34.0117 3.03135 32.729 3.45479L32.6933 3.4666C32.2781 3.60361 31.9991 3.98945 31.999 4.42666C31.9989 4.86387 32.2779 5.24971 32.6934 5.38682ZM36.4256 2.15049C36.9523 3.10762 37.7446 3.9 38.7018 4.42666C37.7447 4.95342 36.9522 5.7458 36.4256 6.70283C35.8989 5.7458 35.1063 4.95332 34.1494 4.42666C35.1064 3.9 35.8989 3.10752 36.4256 2.15049Z" fill="#FF9C00"/>
</g>
<defs>
<clipPath id="clip0_1284_2915">
<rect width="50" height="50" fill="white"/>
</clipPath>
</defs>
</svg>
