<svg width="50" height="50" viewBox="0 0 50 50" fill="none" xmlns="http://www.w3.org/2000/svg">
<path d="M8.77187 30.0877C8.71904 29.9476 8.63655 29.8189 8.52924 29.7089C8.42194 29.599 8.292 29.5101 8.1471 29.4475C8.0022 29.3849 7.84526 29.3499 7.68555 29.3445C7.52583 29.3392 7.36658 29.3635 7.21718 29.4162C7.06778 29.4689 6.93126 29.5488 6.81567 29.6513C6.70008 29.7538 6.60776 29.8767 6.54416 30.0128C6.48057 30.1489 6.44698 30.2954 6.44537 30.4438C6.44377 30.5921 6.47419 30.7393 6.53483 30.8766C7.80419 33.9843 10.0256 36.6791 12.9252 38.6288C13.0523 38.7146 13.1964 38.7763 13.3493 38.8104C13.5021 38.8445 13.6607 38.8503 13.816 38.8275C13.9713 38.8047 14.1202 38.7537 14.2542 38.6775C14.3883 38.6013 14.5048 38.5013 14.5973 38.3833C14.6897 38.2652 14.7562 38.1314 14.7929 37.9895C14.8296 37.8476 14.8359 37.7004 14.8113 37.5563C14.7867 37.4121 14.7318 37.2739 14.6497 37.1495C14.5676 37.025 14.4599 36.9168 14.3327 36.831C11.81 35.1351 9.877 32.791 8.77187 30.0877Z" fill="#FF9C00"/>
<path d="M44.0154 32.9288C45.602 32.9271 47.1231 32.3412 48.2451 31.2997C49.367 30.2582 49.9981 28.8462 50 27.3733V26.161C49.9981 24.6881 49.367 23.2761 48.2451 22.2346C47.1231 21.1931 45.602 20.6072 44.0154 20.6054H43.1931V18.8888C43.1931 18.0047 42.8148 17.1569 42.1414 16.5317C41.468 15.9066 40.5547 15.5554 39.6024 15.5554H3.59075C2.63842 15.5554 1.7251 15.9066 1.05171 16.5317C0.37831 17.1569 0 18.0047 0 18.8888V26.6666C0.00601925 31.6745 2.15171 36.4758 5.96632 40.017C9.78092 43.5581 14.9529 45.55 20.3476 45.5556H22.8456C27.0555 45.5487 31.1597 44.3309 34.5935 42.0697C38.0272 39.8086 40.6218 36.6151 42.0202 32.9288H44.0154ZM44.0154 22.8277C44.9677 22.8277 45.8811 23.1789 46.5545 23.804C47.2279 24.4291 47.6062 25.277 47.6062 26.161V27.3733C47.6062 28.2573 47.2279 29.1052 46.5545 29.7303C45.8811 30.3554 44.9677 30.7066 44.0154 30.7066H43.1931V22.8277H44.0154ZM22.8456 43.3333H20.3476C15.5876 43.3283 11.0241 41.5708 7.65831 38.4462C4.2925 35.3217 2.39922 31.0854 2.39383 26.6666V18.8888C2.39383 18.5941 2.51994 18.3115 2.7444 18.1031C2.96887 17.8947 3.27331 17.7777 3.59075 17.7777H39.6024C39.9198 17.7777 40.2243 17.8947 40.4487 18.1031C40.6732 18.3115 40.7993 18.5941 40.7993 18.8888V26.6666C40.7942 31.0854 38.9011 35.322 35.5352 38.4466C32.1693 41.5712 27.6056 43.3286 22.8456 43.3333Z" fill="#FF9C00"/>
<path d="M4.05361 47.7778C3.73616 47.7778 3.43172 47.8948 3.20726 48.1032C2.98279 48.3116 2.85669 48.5942 2.85669 48.8889C2.85669 49.1836 2.98279 49.4662 3.20726 49.6746C3.43172 49.8829 3.73616 50 4.05361 50H39.9611C40.2785 50 40.583 49.8829 40.8075 49.6746C41.0319 49.4662 41.158 49.1836 41.158 48.8889C41.158 48.5942 41.0319 48.3116 40.8075 48.1032C40.583 47.8948 40.2785 47.7778 39.9611 47.7778H4.05361Z" fill="#FF9C00"/>
<path d="M12.0813 0.32532C11.8568 0.117018 11.5524 0 11.235 0C10.9177 0 10.6133 0.117018 10.3888 0.32532C9.53059 1.12357 9.04858 2.20531 9.04858 3.33311C9.04858 4.46092 9.53059 5.54265 10.3888 6.34091C10.7986 6.72228 11.0287 7.23894 11.0287 7.77758C11.0287 8.31622 10.7986 8.83288 10.3888 9.21425L9.79036 9.76981C9.67604 9.87231 9.58486 9.99492 9.52213 10.1305C9.4594 10.266 9.42638 10.4118 9.425 10.5594C9.42362 10.7069 9.4539 10.8532 9.51408 10.9898C9.57426 11.1263 9.66314 11.2504 9.77552 11.3547C9.8879 11.459 10.0215 11.5415 10.1686 11.5974C10.3157 11.6533 10.4733 11.6814 10.6323 11.6801C10.7912 11.6788 10.9483 11.6482 11.0943 11.5899C11.2403 11.5317 11.3724 11.4471 11.4828 11.3409L12.0813 10.7854C12.9395 9.98712 13.4215 8.90539 13.4215 7.77758C13.4215 6.64978 12.9395 5.56804 12.0813 4.76979C11.6715 4.38841 11.4414 3.87175 11.4414 3.33311C11.4414 2.79447 11.6715 2.27782 12.0813 1.89644C12.3056 1.68807 12.4317 1.40551 12.4317 1.11088C12.4317 0.816251 12.3056 0.533685 12.0813 0.32532Z" fill="#FF9C00"/>
<path d="M22.8537 1.89645C23.0717 1.68689 23.1924 1.40622 23.1897 1.11489C23.1869 0.823559 23.0611 0.544876 22.8391 0.338866C22.6172 0.132856 22.317 0.0160013 22.0032 0.0134697C21.6894 0.0109381 21.387 0.122932 21.1613 0.325331C20.3031 1.12358 19.821 2.20532 19.821 3.33312C19.821 4.46093 20.3031 5.54266 21.1613 6.34092C21.571 6.7223 21.8011 7.23895 21.8011 7.77759C21.8011 8.31623 21.571 8.83289 21.1613 9.21427L20.5628 9.76982C20.4485 9.87232 20.3573 9.99493 20.2946 10.1305C20.2319 10.266 20.1988 10.4118 20.1975 10.5594C20.1961 10.7069 20.2264 10.8532 20.2865 10.9898C20.3467 11.1263 20.4356 11.2504 20.548 11.3547C20.6604 11.459 20.794 11.5415 20.9411 11.5974C21.0882 11.6533 21.2458 11.6814 21.4047 11.6801C21.5637 11.6788 21.7207 11.6482 21.8667 11.5899C22.0128 11.5317 22.1448 11.4471 22.2553 11.3409L22.8537 10.7854C23.7119 9.98713 24.1939 8.9054 24.1939 7.77759C24.1939 6.64979 23.7119 5.56805 22.8537 4.7698C22.444 4.38842 22.2139 3.87176 22.2139 3.33312C22.2139 2.79449 22.444 2.27783 22.8537 1.89645Z" fill="#FF9C00"/>
<path d="M33.6259 0.32532C33.4015 0.117018 33.0971 0 32.7797 0C32.4623 0 32.1579 0.117018 31.9335 0.32532C31.0753 1.12357 30.5933 2.20531 30.5933 3.33311C30.5933 4.46092 31.0753 5.54265 31.9335 6.34091C32.3432 6.72228 32.5733 7.23894 32.5733 7.77758C32.5733 8.31622 32.3432 8.83288 31.9335 9.21425L31.335 9.76981C31.2207 9.87231 31.1295 9.99492 31.0668 10.1305C31.0041 10.266 30.9711 10.4118 30.9697 10.5594C30.9683 10.7069 30.9986 10.8532 31.0588 10.9898C31.1189 11.1263 31.2078 11.2504 31.3202 11.3547C31.4326 11.459 31.5662 11.5415 31.7133 11.5974C31.8604 11.6533 32.018 11.6814 32.1769 11.6801C32.3359 11.6788 32.4929 11.6482 32.639 11.5899C32.785 11.5317 32.9171 11.4471 33.0275 11.3409L33.6259 10.7854C34.4842 9.98712 34.9662 8.90539 34.9662 7.77758C34.9662 6.64978 34.4842 5.56804 33.6259 4.76979C33.2162 4.38841 32.9861 3.87175 32.9861 3.33311C32.9861 2.79447 33.2162 2.27782 33.6259 1.89644C33.8503 1.68807 33.9764 1.40551 33.9764 1.11088C33.9764 0.816251 33.8503 0.533685 33.6259 0.32532Z" fill="#FF9C00"/>
</svg>
