<svg width="1055" height="719" viewBox="0 0 1055 719" fill="none" xmlns="http://www.w3.org/2000/svg">
<path opacity="0.17" d="M170.255 714.125C230.196 714.125 278.788 703.162 278.788 689.639C278.788 676.116 230.196 665.153 170.255 665.153C110.314 665.153 61.7227 676.116 61.7227 689.639C61.7227 703.162 110.314 714.125 170.255 714.125Z" fill="#FF3030"/>
<path opacity="0.17" d="M407.029 714.125C466.969 714.125 515.561 703.162 515.561 689.639C515.561 676.116 466.969 665.153 407.029 665.153C347.088 665.153 298.496 676.116 298.496 689.639C298.496 703.162 347.088 714.125 407.029 714.125Z" fill="#FF3030"/>
<path opacity="0.17" d="M697.755 719C757.696 719 806.288 708.037 806.288 694.514C806.288 680.99 757.696 670.028 697.755 670.028C637.814 670.028 589.223 680.99 589.223 694.514C589.223 708.037 637.814 719 697.755 719Z" fill="#FF3030"/>
<path opacity="0.17" d="M907.878 719C967.819 719 1016.41 708.037 1016.41 694.514C1016.41 680.99 967.819 670.028 907.878 670.028C847.937 670.028 799.346 680.99 799.346 694.514C799.346 708.037 847.937 719 907.878 719Z" fill="#FF3030"/>
<path d="M250.815 441.157C254.416 441.093 258.484 439.05 258.484 439.05L224.851 221.634C224.851 221.634 223.469 220.331 219.771 220.974C216.09 221.618 214.98 224.369 214.98 224.369L250.815 441.157Z" fill="#6E3102"/>
<path d="M837.512 402.417C841.049 403.109 845.454 401.95 845.454 401.95L857.704 182.282C857.704 182.282 856.627 180.722 852.881 180.577C849.135 180.432 847.495 182.91 847.495 182.91L837.512 402.417Z" fill="#6E3102"/>
<path d="M132.524 670.173C132.717 675.144 126.318 677.332 126.318 677.332C126.318 677.332 125.466 677.911 125.273 679.053C125.08 680.195 124.502 683.542 121.736 687.274C118.971 691.007 118.489 693.195 120.016 696.251C121.544 699.308 125.177 701.126 127.46 701.705C129.759 702.285 136.527 698.552 137.958 693.87C139.388 689.189 142.154 686.036 143.97 684.604C145.787 683.172 147.604 680.501 146.269 677.911C144.935 675.337 143.504 673.326 140.257 671.025C137.009 668.725 132.524 670.173 132.524 670.173Z" fill="#6E3102"/>
<path d="M237.056 627.169C239.693 628.906 239.805 635.615 239.805 635.615C239.805 635.615 239.5 637.948 241.429 638.672C243.358 639.396 244.982 639.798 245.705 641.423C246.413 643.048 247.136 646.812 249.982 648.856C252.827 650.883 260.142 647.022 261.171 644.882C262.184 642.742 260.351 636.13 258.229 632.767C256.107 629.405 254.065 623.404 252.731 620.653C251.396 617.902 250.094 615.151 246.22 615.569C242.361 615.971 237.072 620.042 235.545 622.278C234.002 624.514 237.056 627.169 237.056 627.169Z" fill="#6E3102"/>
<path d="M90.3882 608.169C90.3882 608.169 88.5233 634.28 103.073 654.808C117.606 675.337 130.29 679.439 130.29 679.439L134.759 671.975C134.759 671.975 118.361 663.4 108.667 641.375C98.973 619.366 101.577 605.933 101.577 605.933L90.3882 608.169Z" fill="#944203"/>
<path d="M191.43 610.775C191.8 611.901 197.395 631.673 217.522 636.886C237.65 642.098 241.75 633.523 241.75 633.523L238.759 626.059C238.759 626.059 233.165 632.767 220.496 628.665C207.812 624.562 204.098 609.632 204.098 609.632L191.414 609.262" fill="#944203"/>
<path d="M255.107 479.254C263.724 479.077 273.161 472.385 279.704 463.681C286.247 454.977 286.279 450.167 286.279 450.167L292.163 451.373C292.163 451.373 287.485 463.053 276.151 474.54C264.817 486.027 254.914 487.121 254.914 487.121L255.107 479.254Z" fill="#944203"/>
<path d="M301.651 451.904L301.297 453.497C301.008 454.768 299.738 455.556 298.452 455.282L295.847 454.687L280.301 451.132C279.015 450.842 278.227 449.555 278.517 448.284L278.871 446.691C278.903 446.498 278.983 446.337 279.063 446.193C279.514 445.308 280.478 444.761 281.475 444.89C281.555 444.873 281.636 444.89 281.716 444.906L282.745 445.131L293.854 447.673L299.899 449.056C300.22 449.137 300.509 449.282 300.751 449.459C301.49 450.006 301.876 450.955 301.651 451.904Z" fill="white"/>
<path d="M308.482 431.922C308.466 432.164 308.385 432.534 308.257 433.033C307.212 436.636 303.08 446.289 300.733 449.475C300.411 449.877 300.138 450.199 299.913 450.359C299.913 450.359 296.408 449.909 292.438 449.33C288.145 448.686 283.354 447.882 282.004 447.303C281.988 447.287 281.988 447.287 281.972 447.287C281.811 447.206 281.714 447.142 281.65 447.077C281.489 446.852 281.425 446.048 281.457 444.89C281.457 444.166 281.505 443.297 281.586 442.348C281.586 442.348 281.586 442.348 281.586 442.331C281.811 439.548 282.229 436.041 282.711 433.209C282.985 431.552 283.29 430.104 283.547 429.171V429.139C283.644 428.817 283.74 428.592 283.821 428.415V428.383C283.821 428.383 283.82 428.367 283.837 428.335C284.898 426.211 287.293 424.956 290.766 424.892C291.167 424.876 291.602 424.892 292.052 424.908C292.261 424.924 292.486 424.94 292.727 424.988C294.286 425.198 296.617 425.825 298.965 426.646C301.022 427.353 303.128 428.19 304.833 429.043C305.749 429.493 306.521 429.928 307.131 430.362C308 430.941 308.514 431.472 308.482 431.922Z" fill="white"/>
<path d="M321.923 422.157C321.923 422.382 321.891 422.591 321.778 422.752C321.264 423.573 311.119 430.973 308.274 433.033C307.808 433.371 307.534 433.58 307.534 433.58C307.534 433.58 306.136 435.205 302.084 435.478C301.28 435.526 300.38 435.559 299.367 435.478C293.226 435.076 283.854 428.415 283.854 428.415V428.383C283.854 428.383 283.854 428.367 283.87 428.335C284.095 427.273 287.712 410.187 288.162 408.659C288.355 407.983 288.789 407.388 289.336 407.002C290.043 406.455 290.975 406.294 291.763 406.712C292.985 407.34 293.033 420.259 293.001 423.814V424.2C293.001 424.538 293.001 424.715 293.001 424.715C293.001 424.715 297.454 408.209 298.58 406.777C298.692 406.632 298.821 406.519 298.949 406.407C300.155 405.409 302.245 405.715 303.338 406.777C304.512 407.903 299.448 425.085 299.11 426.34C299.817 425.343 308.177 413.164 309.64 411.684C309.801 411.523 309.978 411.394 310.171 411.298C311.762 410.461 314.109 411.796 314.029 413.293C313.933 414.95 304.914 428.946 304.914 428.946C304.914 428.946 304.93 428.93 304.946 428.93C304.946 428.93 304.946 428.914 304.962 428.914C305.814 428.335 316.232 421.369 318.627 420.387C318.707 420.355 318.772 420.339 318.836 420.339C320.813 419.631 321.923 421.095 321.923 422.157Z" fill="white"/>
<path d="M283.564 432.26L283.436 434.368C283.436 434.4 283.42 434.416 283.42 434.465L282.745 445.147L282.6 447.416C282.6 447.416 282.375 447.399 282.021 447.319C282.005 447.303 282.005 447.303 281.989 447.303C281.314 447.158 280.188 446.836 279.079 446.209C278.291 445.807 277.536 445.211 276.941 444.423C275.044 441.913 275.076 434.4 273.999 430.877C273.42 429.043 272.23 427.563 271.459 426.372H271.443C270.735 425.294 270.35 424.458 271.073 423.766C272.584 422.334 274.529 423.766 276.298 424.747C278.05 425.745 280.639 431.295 281.217 432.228C281.619 432.904 282.101 433.58 282.761 433.21C282.986 433.049 283.259 432.759 283.564 432.26Z" fill="white"/>
<path d="M50.1 478.128C41.7402 476.036 34.0235 467.413 29.5864 457.471C25.1493 447.528 26.1943 442.83 26.1943 442.83L20.1816 442.702C20.1816 442.702 22.143 455.122 30.6314 468.845C39.1198 482.568 48.5245 485.834 48.5245 485.834L50.1 478.128Z" fill="#944203"/>
<path d="M258.081 540.791C258.901 582.508 225.478 617.307 183.792 618.143L136.672 619.076L123.087 619.35C94.953 619.913 69.954 604.854 56.4337 582.17C49.9227 571.23 46.0644 558.553 45.7911 544.99L45.566 532.795L45.5017 529.706C45.4534 527.261 45.5177 524.848 45.7107 522.467C45.7107 522.451 45.7107 522.451 45.7107 522.418C45.8714 520.311 46.1126 518.236 46.4502 516.176C53.6203 501.922 98.0075 490.966 151.687 490.966C205.8 490.966 250.429 502.099 257.101 516.514C257.374 518.445 257.567 520.391 257.679 522.354C257.679 522.515 257.695 522.692 257.695 522.853C257.76 523.754 257.792 524.623 257.808 525.54L258.081 540.791Z" fill="#FFB14D"/>
<path opacity="0.41" d="M258.081 540.791C258.901 582.508 225.478 617.306 183.792 618.143L136.672 619.076C140.723 618.095 146.655 617.403 154.886 617.081C218.983 614.62 219.015 585.404 219.015 585.371C213.18 588.01 205.881 587.833 196.814 585.371C187.763 582.91 183.197 577.585 183.229 585.371C183.229 593.126 186.878 594.413 171.413 596.907C155.947 599.416 127.733 593.592 121.704 590.31C115.692 587.028 124.051 581.253 121.704 576.378C119.373 571.487 114.55 580.513 112.541 586.852C110.531 593.174 99.1972 590.021 86.6414 587.656C74.0857 585.307 81.6738 579.065 76.2239 576.378C70.79 573.675 78.7479 583.441 71.7546 586.852C67.2853 589.04 62.3177 586.626 56.4498 582.17C49.9388 571.23 46.0804 558.552 45.8071 544.99L45.582 532.795C51.8679 535.096 59.1506 537.622 66.7226 538.828C89.7603 542.496 229.98 527.872 248.275 524.22C251.024 523.689 254.223 523.175 257.679 522.837C257.744 523.738 257.776 524.606 257.792 525.523L258.081 540.791Z" fill="#FF3030"/>
<path d="M318.192 531.685C317.453 538.024 310.749 542.126 304.784 536.914C300.026 532.763 303.997 528.387 301.714 527.325C301.376 527.164 300.91 527.068 300.251 527.068H300.235C299.736 527.068 299.158 527.116 298.434 527.213C290.235 528.339 285.396 533.938 287.245 540.646C289.126 547.355 293.209 543.623 295.46 549.978C295.669 550.557 295.798 551.088 295.846 551.635C296.457 556.928 290.203 559.791 282.39 557.442C273.821 554.82 273.821 557.442 269.352 564.891C264.883 572.372 256.298 577.955 252.198 572.372C248.099 566.774 253.308 564.151 259.642 561.545C263.452 559.968 263.902 556.236 261.426 553.758C261.105 553.42 260.719 553.115 260.301 552.825C258.597 551.731 256.121 551.12 252.938 551.474C245.044 552.342 241.974 561.947 236.17 563.17C234.578 563.508 232.746 563.202 230.575 561.931C224 558.022 218.679 555.399 215.174 556.123C213.309 556.509 211.959 557.845 211.187 560.435C208.952 567.884 222.746 570.86 212.666 577.601C210.978 578.711 209.274 579.419 207.506 579.773C199.371 581.446 190.545 575.879 182.089 572.388L182.056 572.356C181.462 572.115 180.851 571.857 180.24 571.632C169.42 567.53 167.572 572.002 170.932 576.861C174.275 581.687 181.365 586.546 172.041 589.908C169.452 590.841 165.707 591.533 161.462 591.935C150.338 592.997 135.885 592.016 131.014 587.672C124.31 581.687 134.743 576.845 130.274 570.12C125.805 563.411 112.381 565.647 104.921 570.12C97.9764 574.303 107.236 584.326 99.7448 584.438C99.1982 584.454 98.5712 584.406 97.8477 584.31C87.0283 582.83 85.5492 573.482 84.038 566.033C83.8934 565.326 83.6361 564.73 83.2824 564.232C80.3726 560.258 71.1929 562.542 69.7139 567.304V567.321C69.3923 568.286 69.4245 569.364 69.8746 570.506C72.8488 577.987 70.2444 582.459 61.6595 580.207C53.0908 577.971 53.0908 570.876 57.56 566.033C58.605 564.907 58.8944 563.781 58.5889 562.784C57.6083 559.47 50.1166 557.314 41.5318 559.309C37.6734 560.226 34.5867 560.757 32.1431 560.853C27.497 561.062 25.2463 559.63 24.7479 555.962C24.1209 551.216 33.9597 549.414 30.5676 545.328C29.9728 544.604 28.9439 543.8 27.3684 542.899C16.9347 536.93 12.8191 535.45 13.5587 542.899C14.2982 550.38 3.125 543.639 6.11523 535.08C9.08938 526.489 30.3425 522.756 30.3425 522.756L49.7308 524.639C49.7308 524.639 52.5924 525.668 57.5922 527.245C66.6272 530.076 82.6394 534.678 101.577 538.233C111.513 540.115 122.268 541.692 133.248 542.577H133.345C143.585 543.397 154.019 543.623 164.179 542.915C168.52 542.625 172.877 542.159 177.185 541.531C186.96 540.18 196.574 538.104 205.721 535.707C242.102 526.103 270.815 510.819 270.815 510.819L315.17 521.646C315.17 521.646 317.228 523.705 317.999 527.374C318.273 528.596 318.369 530.044 318.192 531.685Z" fill="#B1EF8D"/>
<path opacity="0.18" d="M32.1584 560.821C27.5123 561.03 25.2616 559.598 24.7632 555.93C24.1362 551.184 33.9751 549.382 30.5829 545.296C38.9909 541.756 54.0064 535.466 54.6816 535.208C53.7492 535.643 29.4415 556.348 32.1584 560.821Z" fill="#2C8A7C"/>
<path opacity="0.18" d="M69.712 567.305C69.3904 568.27 69.4226 569.348 69.8727 570.49C72.8469 577.971 70.2425 582.444 61.6576 580.191C53.0889 577.955 53.0889 570.86 57.5581 566.018C58.6031 564.891 58.8925 563.765 58.587 562.768C58.6031 562.768 58.6031 562.768 58.6031 562.768C58.6031 562.768 72.0913 540.47 74.1491 540.824C76.1908 541.177 79.9527 543.317 79.9527 543.317C79.9527 543.317 69.5351 564.103 69.712 567.289V567.305Z" fill="#2C8A7C"/>
<path opacity="0.18" d="M104.295 547.967C104.295 547.967 92.4307 577.328 95.1316 580.803C96.3373 582.347 98.0093 583.57 99.7455 584.423C99.1989 584.439 98.572 584.39 97.8485 584.294C87.029 582.814 85.55 573.467 84.0388 566.018C83.8941 565.31 83.6369 564.715 83.2832 564.216L99.2632 545.907L104.295 547.967Z" fill="#2C8A7C"/>
<path opacity="0.18" d="M149.291 545.907C149.291 545.907 154.05 581.929 161.461 591.919C150.336 592.981 135.883 592 131.012 587.656C124.308 581.671 134.742 576.829 130.273 570.104L133.263 542.529V542.513L133.359 542.529L149.291 545.907Z" fill="#2C8A7C"/>
<path opacity="0.18" d="M188.099 541.773C188.099 541.773 200.124 572.807 207.487 579.757C199.353 581.43 190.527 575.864 182.07 572.372L182.038 572.34L177.408 543.044L188.099 541.773Z" fill="#2C8A7C"/>
<path opacity="0.18" d="M236.173 563.154C234.581 563.491 232.748 563.186 230.578 561.915C224.003 558.005 218.681 555.383 215.177 556.107C214.003 554.305 212.958 552.664 212.283 551.554C210.418 548.578 205.965 539.23 205.965 539.23C205.965 539.23 206.238 539.247 206.72 539.279C209.341 539.44 217.829 540.083 219.389 541.145C221.254 542.384 231.269 559.115 236.173 563.154Z" fill="#2C8A7C"/>
<path opacity="0.18" d="M295.829 551.635C296.44 556.928 290.186 559.792 282.373 557.443C273.804 554.82 273.804 557.443 269.335 564.891C264.866 572.372 256.281 577.955 252.181 572.372C248.082 566.774 253.291 564.151 259.625 561.545C263.435 559.969 263.885 556.236 261.409 553.758C261.297 553.646 260.895 553.324 260.284 552.825C256.586 549.833 245.381 540.84 245.381 540.84L252.181 537.123C252.181 537.123 266.747 556.493 268.611 555.174C270.476 553.855 269.544 549.881 275.106 551.57C280.685 553.244 284.334 553.453 290.074 552.6C292.196 552.262 294.205 551.973 295.829 551.635Z" fill="#2C8A7C"/>
<path opacity="0.18" d="M318.193 531.685C317.453 538.024 310.749 542.126 304.785 536.914C300.026 532.763 303.997 528.387 301.714 527.325L300.251 527.068H300.235L269.256 521.582L277.133 517.302C277.133 517.302 312.003 528.693 318.048 527.341C318.273 528.596 318.37 530.044 318.193 531.685Z" fill="#2C8A7C"/>
<path d="M279.048 518.622C279.048 539.038 243.02 548.482 192.926 551.474C180.161 552.23 166.48 552.568 152.269 552.568C82.2715 552.568 25.5215 544.25 25.5215 518.622C25.5215 515.758 26.2288 513.104 27.5953 510.642C38.4148 491.256 90.1169 484.676 152.269 484.676C188.811 484.676 221.751 486.96 244.885 492.768C266.074 498.077 279.048 506.363 279.048 518.622Z" fill="#9F2836"/>
<path opacity="0.25" d="M39.8277 504.673C29.4905 517.689 48.2036 527.937 66.7076 535.225C85.2117 542.513 105.581 538.185 104.214 535.225C102.848 532.265 82.7198 532.12 62.0937 521.952C41.4836 511.784 39.8277 504.673 39.8277 504.673Z" fill="#FFD49E"/>
<path opacity="0.53" d="M279.048 518.622C279.048 539.038 243.02 548.481 192.926 551.474C180.161 552.23 166.48 552.568 152.269 552.568C82.2715 552.568 25.5215 544.25 25.5215 518.622C25.5215 515.758 26.2288 513.103 27.5953 510.642C28.3992 520.938 37.3859 534.726 76.2107 541.193C142.301 552.149 224.87 539.585 236.156 528.596C247.458 517.64 237.474 513.055 235.111 510.787C235.111 510.787 239.869 501.327 244.901 492.752C266.074 498.077 279.048 506.363 279.048 518.622Z" fill="#540E16"/>
<path d="M258.08 486.236C258.129 488.682 258.064 491.095 257.871 493.476C257.871 493.492 257.871 493.492 257.871 493.524C257.711 495.632 257.469 497.707 257.132 499.767C253.129 507.73 237.486 514.664 215.092 519.233C197.44 522.837 175.56 524.977 151.911 524.977C97.7977 524.977 53.1693 513.844 46.4975 499.429C46.2242 497.498 46.0313 495.551 45.9188 493.589C45.8545 492.543 45.8063 491.481 45.7902 490.419L45.5008 475.168C44.7934 438.792 70.0818 407.71 104.212 399.795C106.961 399.119 109.759 398.652 112.62 398.315C114.983 398.025 117.379 397.864 119.79 397.816L122.089 397.768L130.449 397.607L151.397 397.188L159.757 397.011L177.441 396.674L180.495 396.609C186.958 396.48 193.228 397.172 199.273 398.604C204.835 399.907 210.156 401.822 215.188 404.315C239.882 416.462 257.212 441.688 257.791 470.969L258.08 486.236Z" fill="#FFB14D"/>
<path opacity="0.35" d="M247.497 478.844C253.756 472.58 253.756 462.425 247.497 456.161C241.238 449.897 231.089 449.897 224.83 456.161C218.57 462.425 218.57 472.58 224.83 478.844C231.089 485.108 241.238 485.108 247.497 478.844Z" fill="#AD4532"/>
<g opacity="0.39">
<path d="M88.1559 454.076C88.1559 458.613 84.4904 462.281 79.9568 462.281C75.4233 462.281 71.7578 458.613 71.7578 454.076C71.7578 449.539 75.4233 445.871 79.9568 445.871C84.4743 445.871 88.1559 449.539 88.1559 454.076Z" fill="#AD4532"/>
<path d="M78.8309 430.942C80.2693 430.942 81.4353 429.775 81.4353 428.336C81.4353 426.896 80.2693 425.729 78.8309 425.729C77.3926 425.729 76.2266 426.896 76.2266 428.336C76.2266 429.775 77.3926 430.942 78.8309 430.942Z" fill="#AD4532"/>
<path d="M136.61 440.642C136.61 444.761 133.266 448.107 129.151 448.107C125.035 448.107 121.691 444.761 121.691 440.642C121.691 436.524 125.035 433.177 129.151 433.177C133.266 433.177 136.61 436.524 136.61 440.642Z" fill="#AD4532"/>
<path d="M205.965 469.376C205.965 471.644 204.132 473.478 201.865 473.478C199.598 473.478 197.766 471.644 197.766 469.376C197.766 467.108 199.598 465.273 201.865 465.273C204.132 465.273 205.965 467.108 205.965 469.376Z" fill="#AD4532"/>
<path d="M154.89 469.746C157.979 469.746 160.484 467.24 160.484 464.148C160.484 461.055 157.979 458.549 154.89 458.549C151.8 458.549 149.295 461.055 149.295 464.148C149.295 467.24 151.8 469.746 154.89 469.746Z" fill="#AD4532"/>
<path d="M183.215 455.573C183.215 457.633 181.543 459.306 179.486 459.306C177.428 459.306 175.756 457.633 175.756 455.573C175.756 453.513 177.428 451.84 179.486 451.84C181.559 451.84 183.215 453.513 183.215 455.573Z" fill="#AD4532"/>
<path d="M223.858 435.801C223.858 437.86 222.186 439.533 220.128 439.533C218.07 439.533 216.398 437.86 216.398 435.801C216.398 433.741 218.07 432.068 220.128 432.068C222.186 432.068 223.858 433.741 223.858 435.801Z" fill="#AD4532"/>
<path d="M189.567 422.367C189.567 425.874 186.721 428.705 183.233 428.705C179.744 428.705 176.898 425.858 176.898 422.367C176.898 418.875 179.744 416.028 183.233 416.028C186.721 416.028 189.567 418.859 189.567 422.367Z" fill="#AD4532"/>
<path d="M139.97 414.902C139.97 416.752 138.475 418.265 136.61 418.265C134.745 418.265 133.25 416.768 133.25 414.902C133.25 413.052 134.745 411.539 136.61 411.539C138.475 411.539 139.97 413.052 139.97 414.902Z" fill="#AD4532"/>
<path d="M222.749 420.501C222.749 422.56 221.077 424.233 219.019 424.233C216.961 424.233 215.289 422.56 215.289 420.501C215.289 418.441 216.961 416.768 219.019 416.768C221.077 416.768 222.749 418.441 222.749 420.501Z" fill="#AD4532"/>
</g>
<path d="M38.2217 442.444V444.568C38.2217 445.984 37.0963 447.127 35.6816 447.127H14.3159C12.9012 447.127 11.7598 445.968 11.7598 444.568V442.444C11.7598 441.608 12.1617 440.884 12.8047 440.417C13.2388 440.079 13.7532 439.902 14.332 439.902H35.6816C36.6301 439.902 37.4661 440.417 37.9002 441.205C38.1092 441.575 38.2217 441.994 38.2217 442.444Z" fill="white"/>
<path d="M35.3907 426.678C35.3907 426.822 35.3746 426.967 35.3746 427.128C35.1495 430.861 34.6833 435.397 34.1849 438.551C34.0885 439.033 34.0242 439.5 33.9438 439.902C33.6866 441.205 33.4454 442.09 33.2043 442.299C33.156 442.347 33.0113 442.396 32.8506 442.444C32.1271 442.589 30.4552 442.589 28.3813 442.524C22.4812 442.283 13.3176 441.318 13.3176 441.318C13.1569 441.109 12.98 440.819 12.8193 440.433C11.0991 436.588 8.92874 424.184 8.7519 419.953C8.71975 419.406 8.73582 419.02 8.76798 418.778C8.84836 418.344 9.33065 417.942 10.1184 417.572C10.9062 417.186 11.9511 416.832 13.189 416.51C14.4751 416.172 15.9542 415.882 17.4814 415.657C18.221 415.545 18.9926 415.432 19.7322 415.335C21.8542 415.094 23.912 414.965 25.5679 415.014C26.3717 415.014 27.0791 415.062 27.6257 415.158C29.0244 415.4 30.2623 415.77 31.3072 416.269C33.574 417.363 34.9727 419.036 35.3907 421.063C35.5514 421.932 35.5354 424.071 35.3907 426.678Z" fill="white"/>
<path d="M35.3591 421.063C35.3591 421.063 33.7836 421.771 31.4364 422.575V422.591C27.5299 423.975 21.5333 425.696 17.4338 425.004C10.9067 423.91 9.34732 420.838 9.34732 420.838C9.34732 420.838 9.10618 420.5 8.72034 419.921C7.03231 417.54 2.51481 411.088 0.746391 408.305C0.376631 407.71 0.119413 407.275 0.0551066 407.098C-0.346806 405.908 1.50199 403.495 3.89739 405.232C6.16418 406.921 12.5948 415.529 13.1414 416.269L13.1575 416.285C13.1575 416.285 13.1575 416.285 13.1575 416.269C12.8842 415.464 9.17048 404.653 7.82005 399.392C7.49852 398.073 7.32168 397.108 7.36991 396.738C7.65929 394.871 11.0836 394.003 12.3376 396.094C13.5754 398.153 19.8935 415.046 19.8935 415.046C19.8935 415.046 19.8935 414.998 19.8774 414.901C19.797 413.389 19.1218 401.403 19.4755 395.499C19.572 393.713 19.7649 392.474 20.1025 392.265C21.6619 391.284 24.2663 391.622 25.0862 393.472C25.9061 395.274 26.6135 413.517 26.6456 414.66C26.6456 414.692 26.6456 414.708 26.6456 414.708C26.6456 414.708 28.8803 403.865 30.6808 398.314C31.2757 396.496 31.8384 395.225 32.2403 395.113C33.8961 394.662 35.4556 396.303 35.552 398.153C35.6806 400.036 35.3591 421.063 35.3591 421.063Z" fill="white"/>
<path d="M45.1017 426.308C43.1565 429.927 41.3881 438.245 38.7837 440.546C38.5104 440.803 38.2049 441.012 37.8995 441.189C36.0989 442.299 33.9446 442.46 32.8514 442.428C32.4174 442.428 32.1602 442.396 32.1602 442.396L32.546 439.886L32.6264 439.307L34.5073 427.096L34.7646 425.423C34.9735 426.05 35.1986 426.452 35.3915 426.662C35.6648 426.919 35.9381 426.935 36.2114 426.822L36.2275 426.806C36.2275 426.806 36.2436 426.806 36.2436 426.79C36.6937 426.549 37.0313 426.227 37.2403 425.97C38.0602 425.101 42.1115 419.615 44.1693 418.955C45.4554 418.553 46.838 417.974 48.0116 418.07C48.7511 418.103 49.3942 418.408 49.8765 419.165C51.1144 421.159 47.0631 422.704 45.1017 426.308Z" fill="white"/>
<path opacity="0.37" d="M19.9264 415.046C19.9264 415.046 19.846 415.159 19.7014 415.319C19.3316 415.706 18.4956 416.365 17.4507 415.641C17.2256 415.48 17.0005 415.271 16.7754 414.966C15.0231 412.794 13.8817 405.65 11.7435 401.821C10.3448 399.328 8.78542 398.845 7.83691 399.408C7.51538 398.089 7.33853 397.124 7.38676 396.754C7.67614 394.888 11.1004 394.019 12.3544 396.11C13.6084 398.153 19.9264 415.046 19.9264 415.046Z" fill="#FFB8A1"/>
<path opacity="0.37" d="M13.1887 416.301C13.2048 416.317 13.2048 416.333 13.2048 416.333C13.2048 416.333 13.1887 416.381 13.1726 416.478C12.9636 417.089 12.1437 419.277 10.6325 418.055C10.4718 417.926 10.2949 417.765 10.1181 417.54C8.39791 415.545 6.06682 410.445 4.37879 408.434C2.81937 406.568 0.890182 406.31 0.777647 408.305C0.407887 407.71 0.150662 407.276 0.0863564 407.099C-0.315556 405.908 1.53325 403.495 3.92865 405.232C6.19543 406.922 12.626 415.529 13.1726 416.269H13.1887C13.1887 416.301 13.1887 416.301 13.1887 416.301Z" fill="#FFB8A1"/>
<path opacity="0.37" d="M19.5078 395.483C19.6043 393.697 19.7972 392.458 20.1348 392.249C21.6942 391.268 24.2986 391.606 25.1185 393.456C25.9384 395.258 26.6458 413.502 26.6779 414.644C26.6779 414.676 26.6779 414.692 26.6779 414.692C26.6779 414.692 26.1313 414.853 25.5526 414.853C24.9417 414.853 24.2343 414.66 23.9932 413.888C23.5269 412.375 22.482 403.559 22.1122 399.022C21.8871 396.336 20.6171 395.451 19.5078 395.483Z" fill="#FFB8A1"/>
<path opacity="0.37" d="M30.6953 398.314C31.2901 396.496 31.8528 395.226 32.2547 395.113C33.9106 394.662 35.47 396.303 35.5665 398.154C35.679 400.036 35.3575 421.063 35.3575 421.063C35.5504 421.932 35.5183 424.072 35.3736 426.678C35.6469 426.935 35.9202 426.951 36.1935 426.839C35.9523 426.951 35.6469 427.064 35.3575 427.112C35.0842 427.161 34.7787 427.161 34.4894 427.096C33.7659 426.951 32.946 426.388 32.1422 425.149C31.8046 424.602 31.5795 423.718 31.4348 422.591V422.575C31.2258 420.886 31.2098 418.65 31.2741 416.269C31.467 410.188 32.2547 403.125 32.1422 401.355C32.0457 399.408 31.4831 398.54 30.6953 398.314Z" fill="#FFB8A1"/>
<path opacity="0.37" d="M45.1014 426.308C43.1562 429.928 41.3877 438.246 38.7834 440.546C38.5101 440.804 38.2046 441.013 37.8991 441.19C38.1242 441.56 38.2367 441.994 38.2367 442.429V444.552C38.2367 445.968 37.1114 447.11 35.6967 447.11H29.1375C30.3271 446.274 31.6775 445.067 31.0666 443.973C30.7773 443.442 29.7162 442.927 28.3658 442.509C25.6488 441.624 21.7583 440.981 20.2793 440.739C21.694 440.884 25.3273 441.19 27.8192 440.659C28.7677 440.45 29.8609 440.208 30.9541 439.87C31.5168 439.71 32.0634 439.5 32.61 439.291C33.1726 439.066 33.6871 438.809 34.1694 438.503C35.3751 437.795 36.3076 436.878 36.6291 435.72C37.449 432.711 38.7351 429.108 42.2076 423.991C45.6962 418.875 47.6737 419.809 48.0273 418.055C48.7669 418.087 49.4099 418.393 49.8922 419.149C51.114 421.16 47.0628 422.704 45.1014 426.308Z" fill="#FFB8A1"/>
<path d="M71.3217 494.441C71.3217 498.383 69.2639 501.568 66.7077 501.568C64.1676 501.568 62.0938 498.383 62.0938 494.441C62.0938 490.499 64.1515 487.314 66.7077 487.314C69.2478 487.314 71.3217 490.499 71.3217 494.441Z" fill="#401D02"/>
<path d="M199.003 494.441C199.003 498.383 196.946 501.568 194.389 501.568C191.849 501.568 189.775 498.383 189.775 494.441C189.775 490.499 191.833 487.314 194.389 487.314C196.929 487.314 199.003 490.499 199.003 494.441Z" fill="#401D02"/>
<path d="M161.625 521.357V521.373C161.609 532.844 153.153 543.881 144.15 550.316C140.147 553.163 136.032 555.126 132.511 555.802C123.878 557.459 111.772 556.944 101.998 549.881C96.9014 546.213 92.4482 540.727 89.4741 532.876C83.7508 517.705 85.2299 507.94 90.1814 503.435C92.7376 501.15 96.194 500.233 100.085 500.7C110.743 502.019 115.132 508.326 126.257 509.934C127.077 510.063 127.929 510.16 128.845 510.224C144.777 511.35 154.005 495.101 160.42 514.117C161.256 516.531 161.625 518.976 161.625 521.357Z" fill="#471002"/>
<path d="M157.65 513.023C157.65 513.023 158.502 523.673 149.821 524.204C141.686 524.735 141.445 516.418 141.445 515.372C141.317 516.45 140.111 524.156 133.069 523.673C125.513 523.094 125.513 514.728 125.513 514.728C125.513 514.728 123.006 523.384 114.067 521.147C105.546 519.024 107.669 510.819 107.894 510.031C107.395 510.658 103.022 516.176 95.9166 512.766C91.7367 510.755 90.4827 506.684 90.1934 503.467C92.7495 501.182 96.206 500.265 100.096 500.732C110.755 502.051 115.144 508.357 126.269 509.966C127.089 510.095 127.941 510.191 128.857 510.256C144.789 511.382 154.017 495.133 160.432 514.149C161.235 516.546 161.621 518.976 161.621 521.373C158.711 518.654 157.65 513.023 157.65 513.023Z" fill="white"/>
<path d="M144.147 550.331C140.144 553.179 136.028 555.142 132.507 555.817C123.874 557.474 111.769 556.96 101.994 549.897C105.193 543.896 112.814 533.809 127.475 535.401C138.022 536.528 142.41 543.639 144.147 550.331Z" fill="#FFA3C7"/>
<path d="M81.2415 596.907C86.7197 596.907 91.1607 594.652 91.1607 591.871C91.1607 589.09 86.7197 586.835 81.2415 586.835C75.7632 586.835 71.3223 589.09 71.3223 591.871C71.3223 594.652 75.7632 596.907 81.2415 596.907Z" fill="#AD4532"/>
<path d="M116.72 607.525C124.045 607.525 129.983 603.52 129.983 598.58C129.983 593.64 124.045 589.635 116.72 589.635C109.395 589.635 103.457 593.64 103.457 598.58C103.457 603.52 109.395 607.525 116.72 607.525Z" fill="#AD4532"/>
<path d="M188.103 602.216C188.103 605.466 182.846 608.088 176.367 608.088C169.888 608.088 164.631 605.466 164.631 602.216C164.631 598.966 169.888 596.344 176.367 596.344C182.846 596.344 188.103 598.982 188.103 602.216Z" fill="#AD4532"/>
<path d="M219.385 594.397C221.854 594.397 223.855 593.209 223.855 591.743C223.855 590.276 221.854 589.088 219.385 589.088C216.917 589.088 214.916 590.276 214.916 591.743C214.916 593.209 216.917 594.397 219.385 594.397Z" fill="#AD4532"/>
<path d="M119.792 397.8L130.451 397.591C127.879 399.714 124.455 403.27 120.259 409.11C110.227 423.074 111.32 436.604 106.963 440.964C102.607 445.324 90.6297 444.23 96.9317 425.037C101.112 412.36 108.233 403.093 112.622 398.282C114.986 398.009 117.365 397.848 119.792 397.8Z" fill="#FFD49E"/>
<path d="M159.741 396.995L177.425 396.657C172.441 403.302 163.985 415.207 160.995 423.299C156.638 435.06 157.957 451.212 148.584 450.569C139.195 449.925 141.157 435.736 145.947 422.656C149.436 413.148 156.285 402.24 159.741 396.995Z" fill="#FFD49E"/>
<path d="M215.175 404.299C211.799 411.571 206.542 423.509 206.124 428.77C205.481 436.621 203.503 454.945 198.054 455.17C192.604 455.379 187.17 450.585 191.526 429.654C194.517 415.256 197.603 404.155 199.259 398.604C204.838 399.891 210.159 401.806 215.175 404.299Z" fill="#FFD49E"/>
<path opacity="0.41" d="M119.793 397.816L122.092 397.767C118.138 398.701 114.038 399.988 109.794 401.597C107.656 402.417 105.743 401.613 104.199 399.779C106.948 399.103 109.746 398.636 112.607 398.298C114.987 398.009 117.382 397.864 119.793 397.816Z" fill="#FF3030"/>
<path opacity="0.41" d="M258.08 486.236C258.128 488.682 258.064 491.095 257.871 493.476C257.871 493.492 257.871 493.492 257.871 493.524C257.71 495.632 257.469 497.707 257.132 499.767C253.129 507.73 237.486 514.664 215.092 519.233C212.037 518.22 211.587 516.128 214.915 512.428C222.374 504.191 222.664 476.165 198.999 438.117C184.852 415.384 169.627 401.516 151.396 397.188L159.756 397.011L177.44 396.674L180.495 396.609C186.958 396.48 193.228 397.172 199.272 398.604C204.835 399.907 210.156 401.822 215.188 404.315C239.882 416.462 257.212 441.688 257.791 470.969L258.08 486.236Z" fill="#FF3030"/>
<path opacity="0.37" d="M283.562 432.26C283.658 432.614 283.578 433.387 283.433 434.368C283.433 434.4 283.417 434.416 283.417 434.465C282.967 437.264 281.826 441.608 281.617 442.348C281.617 442.364 281.617 442.364 281.617 442.364C281.601 442.412 281.601 442.46 281.601 442.46C281.601 442.46 281.215 432.228 277.131 430.282C274.254 428.882 272.437 426.243 271.473 426.372H271.456C270.749 425.294 270.363 424.458 271.087 423.766C272.598 422.334 274.543 423.766 276.312 424.747C278.064 425.745 280.652 431.295 281.231 432.228C281.633 432.904 282.115 433.58 282.774 433.21C283.048 431.553 283.353 430.105 283.61 429.172C283.498 430.812 283.482 431.955 283.562 432.26Z" fill="#FFB8A1"/>
<path opacity="0.37" d="M290.089 411.539C290.362 409.045 289.976 407.646 289.333 406.986C290.04 406.439 290.973 406.278 291.761 406.696C292.982 407.324 293.031 420.243 292.998 423.798V424.184C292.998 424.522 292.998 424.699 292.998 424.699C292.998 424.699 292.902 424.812 292.741 424.956C292.388 425.198 291.696 425.503 290.796 424.86C290.571 424.699 290.33 424.49 290.089 424.216C288.336 422.27 289.365 418.119 290.089 411.539Z" fill="#FFB8A1"/>
<path opacity="0.37" d="M299.882 411.137C300.589 408.176 299.995 406.809 298.95 406.391C300.155 405.393 302.245 405.699 303.338 406.761C304.512 407.887 299.448 425.069 299.11 426.324C299.094 426.372 299.078 426.404 299.078 426.404C299.078 426.404 299.078 426.404 297.422 423.637C295.766 420.854 298.339 417.508 299.882 411.137Z" fill="#FFB8A1"/>
<path opacity="0.37" d="M314.045 413.276C313.949 414.933 304.93 428.93 304.93 428.93C304.93 428.93 305.782 422.478 308.499 416.027C309.463 413.727 310.01 412.23 310.187 411.281C311.778 410.445 314.125 411.78 314.045 413.276Z" fill="#FFB8A1"/>
<path opacity="0.37" d="M321.923 422.157C321.923 422.382 321.891 422.592 321.778 422.752C321.264 423.573 311.119 430.974 308.274 433.033C307.229 436.637 303.097 446.289 300.75 449.475C301.49 450.022 301.892 450.955 301.666 451.904L301.313 453.497C301.023 454.768 299.753 455.556 298.467 455.283L295.863 454.687C295.991 454.462 296.088 454.253 296.184 454.076C296.94 452.371 294.48 450.505 292.471 449.33C291.201 448.574 290.107 448.107 290.107 448.107C290.107 448.107 291.892 448.123 293.853 447.673C295.252 447.351 296.715 446.804 297.744 445.855C299.657 444.053 300.991 438.808 302.084 435.462C302.406 434.497 302.695 433.692 303.001 433.178C303.435 432.421 305.107 431.456 307.181 430.33C311.393 428.078 317.325 425.278 318.29 422.35C318.547 421.546 318.74 420.87 318.868 420.291C320.814 419.631 321.923 421.095 321.923 422.157Z" fill="#FFB8A1"/>
<path d="M373.01 384.157L372.608 384.141L364.168 383.578C364.168 383.578 363.364 380.296 361.354 375.517C356.805 364.867 346.114 346.704 324.202 340.622C294.026 332.24 282.981 362.679 266.792 359.091C265.973 358.931 265.104 358.657 264.252 358.271C246.632 350.613 248.98 310.602 297.177 306.499C341.162 302.735 354.313 324.952 362.078 343.164C362.126 343.245 362.158 343.325 362.19 343.389C362.85 344.918 363.444 346.446 364.039 347.894C364.087 348.023 364.152 348.119 364.184 348.248C370.213 363.081 372.222 376.821 372.801 381.985C372.946 383.401 373.01 384.157 373.01 384.157Z" fill="#54C782"/>
<path d="M438.844 228.262C434.15 243.562 422.961 248.276 400.052 294.739C386.146 322.941 383.509 351.112 383.557 368.937C383.557 368.937 383.557 368.953 383.557 368.986C383.573 374.745 383.879 379.427 384.184 382.644C384.474 385.878 384.779 387.68 384.779 387.68L379.474 388.999L378.043 389.353L375.969 389.884L375.358 390.029C375.358 390.029 374.956 388.871 374.281 386.731C374.281 386.731 374.281 386.731 374.265 386.715C373.863 385.476 373.381 383.867 372.818 382.001C371.404 377.351 369.555 370.868 367.577 363.129C366.532 358.898 365.439 354.313 364.362 349.406C364.25 348.924 364.153 348.425 364.041 347.91C355.295 307.513 348.559 248.308 374.169 218.272C379.024 212.592 383.702 208.168 388.155 204.822C421.53 179.773 443.008 214.764 438.844 228.262Z" fill="#54C782"/>
<path d="M505.271 376.499C489.983 398.266 479.999 366.508 441.785 365.913C403.571 365.317 389.472 380.038 384.183 390.029C381.386 395.306 379.585 393.536 378.508 390.688C378.315 390.27 378.17 389.82 378.042 389.369C377.383 387.101 377.109 384.736 377.109 384.736C377.109 384.736 377.978 380.714 380.646 374.761C381.45 372.991 382.399 371.061 383.556 369.002C383.556 368.985 383.556 368.953 383.556 368.953H383.572C383.572 368.937 383.588 368.905 383.62 368.841C390.935 355.664 405.822 337.823 434.744 329.441C474.42 317.954 506.332 341.877 508.615 362.92C509.162 367.763 508.133 372.428 505.271 376.499Z" fill="#54C782"/>
<path opacity="0.25" d="M367.578 363.113C363.494 356.63 353.318 340.896 346.967 335.12C338.913 327.8 315.072 311.277 284.639 321.188C258.836 329.586 258.097 349.133 266.81 359.091C265.99 358.931 265.122 358.657 264.27 358.271C246.65 350.613 248.997 310.602 297.195 306.499C341.18 302.735 354.33 324.952 362.095 343.164C362.144 343.245 362.176 343.325 362.208 343.389C363.012 345.497 363.719 347.508 364.378 349.39C367.931 359.558 369.362 365.945 369.362 365.945C369.362 365.945 368.687 364.883 367.578 363.113Z" fill="#093B31"/>
<path opacity="0.25" d="M372.611 384.141L364.171 383.577C364.171 383.577 363.367 380.296 361.357 375.517C366.18 376.563 369.942 380.328 372.611 384.141Z" fill="#093B31"/>
<path opacity="0.25" d="M374.281 386.731C374.956 387.873 375.519 388.935 375.969 389.885L375.358 390.029C375.358 390.029 374.956 388.871 374.281 386.731Z" fill="#093B31"/>
<path opacity="0.25" d="M389.858 285.247C408.202 236.484 413.7 242.291 409.665 223.581C407.189 212.11 398.813 206.029 388.154 204.806C421.529 179.757 442.991 214.764 438.828 228.246C434.133 243.546 422.944 248.26 400.035 294.723C386.129 322.925 383.492 351.096 383.54 368.921H383.557C383.54 368.937 383.54 368.97 383.54 368.97C383.54 368.97 381.37 379.057 381.402 379.057C381.402 379.057 381.065 377.545 380.647 374.745C378.734 362.422 374.891 325.081 389.858 285.247Z" fill="#093B31"/>
<path opacity="0.25" d="M505.275 376.499C489.986 398.266 480.003 366.508 441.789 365.913C403.575 365.318 389.476 380.038 384.187 390.029C381.389 395.306 379.589 393.536 378.512 390.689C378.769 390.206 379.074 389.643 379.476 389C380.457 387.342 381.984 385.219 384.187 382.645C387.997 378.188 393.929 372.445 403.077 365.591C426.195 348.329 466.514 346.865 489.986 356.775C498.651 360.411 504.825 362.728 508.619 362.921C509.165 367.763 508.137 372.429 505.275 376.499Z" fill="#093B31"/>
<path d="M305.682 453.448C305.682 453.448 294.123 447.657 286.76 427.402C279.397 407.147 278.609 399.247 277.291 396.882C275.973 394.517 273.352 393.198 273.352 393.198L270.201 408.192C270.201 408.192 272.034 406.616 273.625 414.499C275.201 422.398 282.033 441.334 293.609 456.328C305.168 471.322 309.38 469.746 309.38 469.746L305.682 453.448Z" fill="#944203"/>
<path d="M453.25 484.708C452.189 488.666 454.311 490.516 454.311 490.516C454.311 490.516 463.282 489.727 477.285 476.246C491.271 462.78 494.711 447.448 494.711 447.448L489.696 444.021C489.696 444.021 483.088 465.949 471.481 474.138C459.842 482.343 453.25 484.708 453.25 484.708Z" fill="#944203"/>
<path d="M344.814 606.64C344.814 606.64 340.746 629.212 348.318 649.177C355.89 669.159 367.723 677.106 367.723 677.106C367.723 677.106 370.311 677.846 371.227 676.736C372.144 675.626 372.883 674.339 372.883 674.339C372.883 674.339 358.093 660.471 354.026 643.82C349.958 627.169 355.312 613.301 355.312 613.301L344.814 606.64Z" fill="#944203"/>
<path d="M422.641 607.01C422.641 607.01 429.473 620.701 441.498 626.992C453.507 633.282 469.23 632.912 469.23 632.912C469.23 632.912 471.449 631.802 471.995 629.952C472.542 628.102 472.912 626.622 472.912 626.622C472.912 626.622 459.6 626.992 445.743 618.851C431.885 610.711 429.296 597.39 429.296 597.39L422.641 607.01Z" fill="#944203"/>
<path d="M391.228 645.316C381.469 646.265 372.37 642.227 363.978 634.65C330.475 604.404 308.482 517.56 301.875 465.322C295.412 413.968 322.742 389.176 352.162 381.502C352.307 381.486 352.435 381.454 352.548 381.422C352.725 381.373 352.885 381.357 353.062 381.309C353.078 381.309 353.127 381.293 353.127 381.293H353.143C360.811 379.379 368.624 378.606 375.955 378.848C434.12 380.762 448.846 390.029 460.598 437.666C472.366 485.319 440.02 640.618 391.228 645.316Z" fill="#FF8105"/>
<path opacity="0.13" d="M344.542 399.151C362.307 403.64 346.6 418.554 344.542 452.757C342.484 486.961 352.404 536.142 366.631 573.628C380.859 611.113 370.538 617.355 355.458 602.699C340.362 588.043 324.27 564.892 313.611 498.271C302.952 431.633 319.8 392.893 344.542 399.151Z" fill="#FFC76E"/>
<path d="M356.756 588.847C356.756 588.847 367.366 585.114 378.845 587.978C390.324 590.842 394.343 593.142 394.343 593.142C394.343 593.142 385.452 585.677 374.826 583.666C364.215 581.671 356.756 588.847 356.756 588.847Z" fill="#944203"/>
<path d="M356.195 569.026C356.195 569.026 380.873 563.283 402.962 567.594C425.051 571.906 435.951 580.803 435.951 580.803C435.951 580.803 426.482 570.458 403.235 564.441C380.005 558.408 356.195 569.026 356.195 569.026Z" fill="#944203"/>
<path d="M395.793 517.061C395.793 517.061 411.001 515.34 419.329 518.783C427.657 522.226 440.855 531.122 440.855 531.122C440.855 531.122 433.107 522.789 421.628 517.045C410.133 511.318 395.793 517.061 395.793 517.061Z" fill="#944203"/>
<path d="M328.352 430.056C328.352 430.056 353.029 419.438 381.726 424.602C410.422 429.767 426.483 440.401 426.483 440.401C426.483 440.401 404.393 425.182 380.005 419.728C355.617 414.258 328.352 430.056 328.352 430.056Z" fill="#944203"/>
<path d="M324.332 538.587C324.332 538.587 336.952 529.98 352.739 528.242C368.526 526.521 402.094 537.718 402.094 537.718C402.094 537.718 374.266 525.379 353.318 525.089C332.37 524.815 324.332 538.587 324.332 538.587Z" fill="#944203"/>
<path d="M400.485 496.742C395.357 502.807 388.604 507.151 381.418 509.902C377.367 511.431 373.155 512.476 369.039 512.991C359.94 514.149 344.732 515.018 333.671 509.162C330.761 507.65 328.157 505.671 326.019 503.097C315.665 490.741 319.781 474.862 330.665 474.862C341.581 474.862 339.668 483.276 358.22 482.311C382.592 481.056 380.084 470.985 390.936 470.245C404.681 469.328 408.507 487.25 400.485 496.742Z" fill="#471002"/>
<path d="M381.403 509.902C377.352 511.43 373.14 512.476 369.025 512.991C359.925 514.149 344.717 515.018 333.656 509.162C335.778 504.609 342.209 494.86 358.446 494.667H358.912C372.288 494.667 378.574 503.338 381.403 509.902Z" fill="#FFA3C7"/>
<path d="M333.782 460.479C334.104 464.099 331.966 467.252 329.008 467.51C326.05 467.767 323.381 465.064 323.059 461.445C322.738 457.825 324.876 454.671 327.834 454.414C330.792 454.157 333.461 456.859 333.782 460.479Z" fill="#401D02"/>
<path d="M401.597 454.414C401.918 458.034 399.78 461.187 396.822 461.445C393.864 461.718 391.195 458.999 390.874 455.379C390.552 451.759 392.69 448.606 395.649 448.349C398.607 448.075 401.275 450.794 401.597 454.414Z" fill="#401D02"/>
<path d="M421.37 492.012C429.424 492.012 435.952 487.834 435.952 482.681C435.952 477.527 429.424 473.35 421.37 473.35C413.317 473.35 406.789 477.527 406.789 482.681C406.789 487.834 413.317 492.012 421.37 492.012Z" fill="#FFA3C6"/>
<path d="M306.601 497.916C313.349 497.916 318.819 493.616 318.819 488.312C318.819 483.007 313.349 478.707 306.601 478.707C299.853 478.707 294.383 483.007 294.383 488.312C294.383 493.616 299.853 497.916 306.601 497.916Z" fill="#FFA3C6"/>
<path d="M272.309 391.139L270.525 410.059L270.332 411.974C270.332 411.974 269.222 412.81 266.923 413.389C265.975 413.647 264.801 413.824 263.435 413.888C258.789 414.113 245.156 413.566 243.629 410.059C242.117 406.52 245.156 394.437 245.397 390.528C245.622 386.635 248.998 383.948 253.114 384.64C254.336 384.849 256.538 385.508 259.046 386.329C262.808 387.584 267.229 389.241 269.898 390.222C271.361 390.785 272.309 391.139 272.309 391.139Z" fill="white"/>
<path d="M276.683 390.93C276.683 391.075 276.683 391.252 276.667 391.397L275.317 401.516C275.317 401.516 275.317 401.564 275.301 401.645L275.22 402.272C275.204 402.433 275.156 402.61 275.14 402.819L273.725 413.405C273.5 415.272 271.748 416.607 269.883 416.349C268.308 416.14 267.102 414.901 266.941 413.389C266.877 413.1 266.877 412.794 266.925 412.488L268.083 403.736L269.851 390.496C269.867 390.415 269.867 390.303 269.915 390.222C270.269 388.469 271.941 387.294 273.725 387.536C275.446 387.761 276.683 389.257 276.683 390.93Z" fill="white"/>
<path opacity="0.37" d="M275.122 402.819L273.708 413.405C273.483 415.272 271.73 416.607 269.865 416.35C268.29 416.14 267.084 414.902 266.923 413.389C265.975 413.647 264.801 413.824 263.435 413.888C258.789 414.113 245.156 413.566 243.629 410.059C242.117 406.52 245.156 394.437 245.397 390.528C245.622 386.635 248.998 383.948 253.114 384.64C254.336 384.849 256.538 385.508 259.046 386.329C259.126 387.439 259.094 388.807 258.917 390.351C258.724 392.266 258.58 392.893 258.515 393.038C258.949 393.713 260.477 396.159 260.027 398.492C259.496 401.227 257.76 401.017 257.76 401.017C257.76 401.017 258.531 401.645 258.531 403.463C258.531 405.265 257.39 406.117 257.39 406.117C257.39 406.117 260.027 406.922 262.808 406.471C265.621 406.037 268.065 396.995 268.065 396.995C268.065 396.995 268.017 401.017 268.049 403.736C268.049 404.621 268.049 405.377 268.065 405.796C268.145 407.356 268.081 409.85 270.508 410.075C270.717 410.091 270.943 410.091 271.216 410.075C273.595 409.866 274.704 405.152 275.122 402.819Z" fill="#FFB8A1"/>
<path d="M256.698 389.354V389.499C256.698 391.413 255.155 392.99 253.225 393.071L241.763 393.457C240.445 393.505 239.239 392.797 238.58 391.751C238.242 391.252 238.049 390.641 238.033 389.981V389.853C238.033 387.938 239.56 386.313 241.506 386.248L252.615 385.894L253 385.878C254.978 385.814 256.65 387.375 256.698 389.354Z" fill="white"/>
<path opacity="0.37" d="M256.698 389.354V389.499C256.698 391.413 255.155 392.99 253.226 393.071L241.763 393.457C240.445 393.505 239.239 392.797 238.58 391.751C241.699 392.556 250.332 392.234 252.084 391.639C253.933 391.027 254.657 387.89 252.711 386.248C252.711 386.248 252.663 386.104 252.599 385.894L252.985 385.878C254.978 385.814 256.65 387.375 256.698 389.354Z" fill="#FFB8A1"/>
<path d="M272.098 389.402L271.552 398.813C271.552 398.813 269.526 398.813 267.115 398.073C266.681 397.928 266.182 397.751 265.732 397.574C264.912 397.22 264.076 396.77 263.289 396.207C259.687 393.617 258.466 389.096 258.466 389.096C258.466 389.096 252.582 386.892 250.894 387.648C249.206 388.404 245.846 389.643 243.788 388.34C242.678 387.648 241.473 385.927 241.344 384.366C241.328 384.35 241.328 384.35 241.328 384.35C241.183 383.031 241.826 381.808 243.932 381.438C248.514 380.682 251.119 377.464 253.707 377.223C256.311 376.998 266.038 379.91 267.179 381.132C268.337 382.355 272.098 389.402 272.098 389.402Z" fill="white"/>
<path d="M254.177 410.059C254.177 412.038 252.553 413.663 250.576 413.663H242.779C241.187 413.663 239.821 412.585 239.371 411.137C239.242 410.799 239.178 410.445 239.178 410.059C239.178 408.08 240.801 406.455 242.779 406.455H250.576C250.93 406.455 251.267 406.519 251.605 406.616C253.084 407.05 254.177 408.45 254.177 410.059Z" fill="white"/>
<path d="M257.019 403.077V403.222C257.019 405.136 255.508 406.729 253.563 406.826L242.309 407.26C240.83 407.325 239.528 406.488 238.949 405.233C238.74 404.798 238.612 404.3 238.596 403.801V403.656C238.596 401.741 240.091 400.148 242.02 400.084L253.274 399.617C253.499 399.617 253.74 399.617 253.949 399.666C255.637 399.923 256.939 401.323 257.019 403.077Z" fill="white"/>
<path d="M259.08 396.336V396.465C259.08 398.379 257.552 399.972 255.607 400.069L242.521 400.503C241.09 400.551 239.788 399.731 239.177 398.508C238.952 398.074 238.823 397.559 238.791 397.012V396.883C238.791 394.968 240.318 393.375 242.264 393.311L255.366 392.876C255.511 392.876 255.687 392.876 255.832 392.893C255.848 392.893 255.88 392.893 255.896 392.909C256.314 392.925 256.716 393.053 257.07 393.247C258.244 393.81 259.047 394.968 259.08 396.336Z" fill="white"/>
<path d="M366.453 673.792C363.045 676.205 362.579 678.973 359.99 684.153C357.402 689.333 349.267 687.113 348.351 690.62C347.434 694.128 347.804 698.198 347.804 698.198C347.804 698.198 361.485 698.745 364.813 698.568C368.141 698.391 368.881 694.128 374.974 690.25C381.067 686.373 384.025 686.743 385.327 684.153C386.613 681.563 382.738 671.025 381.083 669.175C379.378 667.309 369.588 671.572 366.453 673.792Z" fill="#6E3102"/>
<path d="M465.885 628.295C462.203 635.245 461.64 636.436 465.515 641.246C469.389 646.056 468.473 645.316 466.061 651.414C463.666 657.511 468.65 661.404 468.65 661.404C468.65 661.404 474.936 662.321 480.289 659.184C485.643 656.047 484.726 650.497 483.617 645.316C482.508 640.136 485.096 637.176 486.752 633.475C488.408 629.775 487.122 627.555 481.768 624.595C476.431 621.634 471.061 618.481 465.885 628.295Z" fill="#6E3102"/>
<path d="M497.218 452.467C497.379 454.285 495.739 455.701 493.264 455.331C492.154 455.17 490.386 454.398 488.264 453.223C485.692 451.791 482.589 449.748 479.341 447.335C473.393 442.943 475.708 440.9 477.3 439.404C477.734 439.001 478.28 438.792 479.149 439.001C479.824 439.194 480.708 439.629 481.865 440.449C483.827 441.833 491.142 446.691 494.92 449.893C496.27 451.051 497.17 451.984 497.218 452.467Z" fill="white"/>
<path d="M506.284 435.462C506.236 435.511 506.219 435.575 506.203 435.607C504.081 440.112 497.217 447.577 494.934 449.893C494.5 450.328 494.226 450.585 494.178 450.585C494.114 450.585 493.214 449.99 491.863 449.089L491.847 449.073C491.783 449.025 491.735 449.009 491.654 448.944C491.574 448.896 491.493 448.864 491.397 448.783C486.976 445.823 478.793 440.16 478.793 440.16C478.793 440.16 478.938 439.726 479.147 439.002C479.275 438.599 479.436 438.117 479.613 437.554C479.661 437.441 479.677 437.345 479.725 437.232C480.594 434.513 481.864 430.588 482.587 428.48C482.748 427.981 482.973 427.499 483.198 427C483.632 426.067 484.211 425.214 484.886 424.458C485.015 424.313 485.159 424.184 485.288 424.056C486.638 422.737 488.342 421.932 490.223 422.27C493.519 422.865 502.763 428.464 505.978 431.714C506.252 432.003 506.477 432.261 506.67 432.518C507.104 433.113 506.911 434.159 506.284 435.462Z" fill="white"/>
<path d="M487.074 425.777L486.785 426.275L480.515 437.618L479.969 438.631C479.969 438.631 479.84 438.213 479.615 437.537C479.599 437.392 479.55 437.264 479.486 437.103C478.522 433.917 476.367 426.742 476.094 424.602C475.74 421.916 475.66 415.947 475.226 412.987C475.21 412.906 475.21 412.826 475.178 412.729C474.744 409.849 477.428 409.319 479.052 411.297C480.676 413.276 480.676 416.687 481.222 418.859C481.512 420.065 483.296 422.076 484.824 423.621C484.888 423.701 484.952 423.75 485.016 423.83H485.033C485.113 423.911 485.177 423.991 485.258 424.055C486.287 425.069 487.074 425.777 487.074 425.777Z" fill="white"/>
<path d="M516.013 417.604C516.238 418.232 508.023 432.438 506.27 435.478C506.222 435.527 506.206 435.591 506.19 435.623C506.029 435.897 505.933 436.041 505.933 436.041C505.933 436.041 504.968 435.752 503.521 435.285C500.531 434.32 495.579 432.631 493.264 431.344C491.207 430.201 488.554 427.917 486.786 426.292C485.805 425.391 485.081 424.667 484.889 424.49L484.872 424.474C484.856 424.458 484.824 424.426 484.824 424.426C484.824 424.426 484.84 424.377 484.872 424.297C484.889 424.184 484.953 424.04 485.017 423.83H485.033C485.837 421.321 489.068 411.587 490.644 407.292C490.982 406.326 491.255 405.635 491.383 405.377C492.187 403.752 494.245 404.283 495.065 405.184C495.531 405.715 494.567 411.314 493.682 415.851C493.634 416.06 493.602 416.285 493.538 416.526C493.329 417.636 493.12 418.65 492.927 419.487C492.846 419.889 492.766 420.243 492.718 420.532C492.702 420.597 492.67 420.661 492.67 420.725C492.67 420.741 492.67 420.742 492.67 420.774C492.653 420.838 492.621 420.902 492.621 420.967C492.573 421.128 492.541 421.256 492.509 421.369C492.493 421.433 492.493 421.482 492.493 421.53C492.493 421.578 492.477 421.594 492.477 421.642C492.477 421.658 492.461 421.658 492.461 421.691C492.461 421.707 492.461 421.739 492.461 421.739C492.461 421.739 497.219 411.217 500.113 406.23C500.997 404.734 501.688 403.752 502.074 403.656C503.698 403.302 505.225 404.283 505.129 406.182C505.048 407.967 499.406 423.46 498.827 425.101C498.811 425.15 498.779 425.166 498.779 425.182H498.795C499.277 424.361 504.791 415.288 507.589 411.249C508.328 410.172 508.875 409.464 509.084 409.335C510.177 408.708 512.042 409.689 512.315 410.686C512.54 411.523 506.431 423.959 504.695 427.466C504.47 427.933 504.309 428.239 504.261 428.351C504.325 428.271 504.534 427.949 504.823 427.515C504.823 427.515 504.839 427.466 504.888 427.402C506.335 425.262 509.823 420.114 512.01 417.476C512.829 416.494 513.489 415.835 513.762 415.818C515 415.706 515.739 416.864 516.013 417.604Z" fill="white"/>
<path opacity="0.36" d="M374.428 220.653C362.451 236.854 357.178 251.478 362.338 265.41C367.499 279.359 378.511 264.67 389.138 244.125C399.764 223.581 399.298 217.339 396.243 214.041C393.173 210.743 384.347 207.235 374.428 220.653Z" fill="#B7FFD5"/>
<path opacity="0.36" d="M372.61 296.573C370.102 283.059 364.347 283.284 360.344 287.193C356.34 291.103 361.244 322.33 366.983 330.921C372.739 339.496 373.96 303.796 372.61 296.573Z" fill="#B7FFD5"/>
<path opacity="0.36" d="M487.075 352.543C500.628 350.854 494.615 335.956 473.828 332.24C453.025 328.508 428.846 337.791 421.371 340.879C413.911 343.968 448.99 342.52 463.025 345.127C477.06 347.733 482.863 353.058 487.075 352.543Z" fill="#B7FFD5"/>
<path opacity="0.36" d="M277.694 336.021C265.38 345.932 279.559 353.155 289.784 345.127C299.992 337.099 312.355 334.702 325.393 338.821C338.431 342.939 342.547 344.58 344.267 345.127C345.987 345.69 340.409 336.97 318.834 331.372C297.243 325.757 287.067 328.476 277.694 336.021Z" fill="#B7FFD5"/>
<path opacity="0.41" d="M391.226 645.316C381.468 646.265 372.369 642.227 363.977 634.65C376.259 638.945 394.008 639.685 406.772 611.29C424.296 572.356 432.913 463.986 426.498 431.504C420.068 399.054 397.753 375.71 353.125 381.293C360.793 379.379 368.607 378.606 375.938 378.848C434.102 380.762 448.828 390.029 460.58 437.666C472.364 485.319 440.019 640.618 391.226 645.316Z" fill="#FF3030"/>
<path opacity="0.41" d="M352.531 381.422C352.708 381.374 352.869 381.358 353.046 381.309C352.982 381.325 352.821 381.374 352.531 381.422Z" fill="#FF3030"/>
<path opacity="0.41" d="M353.107 381.293H353.123C353.091 381.293 353.075 381.309 353.043 381.309C353.059 381.309 353.107 381.293 353.107 381.293Z" fill="#FF3030"/>
<path opacity="0.43" d="M344.541 393.423C327.853 397.832 315.217 412.665 313.61 424.377C311.986 436.089 331.438 439.178 337.226 429.493C343.014 419.792 346.92 411.555 358.897 406.471C370.874 401.371 356.614 390.238 344.541 393.423Z" fill="#FFC76E"/>
<path opacity="0.43" d="M335.648 538.587C326.292 544.54 335.054 583.393 347.706 601.283C360.358 619.173 369.393 615.666 369.345 601.283C369.297 586.9 365.085 558.135 360.358 548.144C355.632 538.153 344.056 533.246 335.648 538.587Z" fill="#FFC76E"/>
<path opacity="0.22" d="M416.612 393.423C404.635 383.786 399.571 402.787 406.773 413.662C413.976 424.522 416.676 446.418 422.625 456.264C428.589 466.094 439.473 459.256 439.344 446.096C439.216 432.936 427.657 402.304 416.612 393.423Z" fill="#610A0A"/>
<path opacity="0.22" d="M435.952 556.043C439.409 536.64 412.931 541.837 412.4 551.828C411.87 561.818 410.793 589.184 403.446 603.39C396.099 617.596 418.477 626.203 426.483 606.64C434.489 587.093 434.28 565.519 435.952 556.043Z" fill="#610A0A"/>
<path opacity="0.37" d="M267.118 398.073C266.684 397.928 266.186 397.751 265.736 397.575C264.916 397.221 264.08 396.77 263.292 396.207C259.691 393.617 258.469 389.096 258.469 389.096C258.469 389.096 252.585 386.892 250.897 387.648C249.209 388.404 245.849 389.643 243.791 388.34C242.682 387.648 241.476 385.927 241.348 384.366C242.103 385.203 243.068 386.007 244.097 386.2C246.492 386.618 250.64 384.173 250.64 384.173C250.64 384.173 251.572 384.977 253.839 385.959C256.106 386.972 262.311 386.281 262.311 386.281C262.311 386.281 262.118 393.697 267.118 398.073Z" fill="#FFB8A1"/>
<path opacity="0.37" d="M259.08 396.336V396.465C259.08 398.379 257.553 399.972 255.608 400.069L242.522 400.503C241.091 400.552 239.789 399.731 239.178 398.508C242.168 398.572 254.659 398.218 255.399 398.074C257.634 397.607 257.601 394.84 257.087 393.247C258.244 393.81 259.048 394.968 259.08 396.336Z" fill="#FFB8A1"/>
<path opacity="0.37" d="M255.91 392.909C255.846 392.973 255.83 392.973 255.846 392.893C255.974 392.281 256.184 392.088 256.409 392.217C256.184 392.539 255.99 392.812 255.91 392.909Z" fill="#FFB8A1"/>
<path opacity="0.37" d="M257.021 403.077V403.222C257.021 405.136 255.51 406.729 253.565 406.826L242.311 407.26C240.832 407.325 239.53 406.488 238.951 405.233C239.241 405.297 239.546 405.346 239.884 405.346H249.144C251.941 405.346 253.115 405.635 254.192 403.962C255.028 402.659 254.32 400.567 253.967 399.666C255.639 399.923 256.941 401.323 257.021 403.077Z" fill="#FFB8A1"/>
<path opacity="0.37" d="M254.174 410.059C254.174 412.038 252.55 413.664 250.573 413.664H242.775C241.184 413.664 239.817 412.585 239.367 411.137C239.898 411.524 240.444 411.813 240.943 411.813H247.791C251.73 411.813 252.936 408.579 250.717 406.938L251.601 406.648C253.08 407.05 254.174 408.45 254.174 410.059Z" fill="#FFB8A1"/>
<path opacity="0.37" d="M477.991 415.899C477.122 412.263 476.19 412.054 475.242 412.987C475.225 412.906 475.225 412.826 475.193 412.729C474.759 409.849 477.444 409.319 479.068 411.297C480.691 413.276 480.691 416.687 481.238 418.859C481.527 420.065 483.312 422.076 484.839 423.621C484.887 423.83 484.904 424.055 484.887 424.297C484.904 424.361 484.904 424.409 484.887 424.458L484.903 424.474C484.968 426.855 483.875 429.477 483.875 429.477C483.875 429.477 483.746 428.27 483.199 426.999C482.797 426.018 482.154 424.972 481.109 424.361C478.73 422.961 479.277 421.385 477.991 415.899Z" fill="#FFB8A1"/>
<path opacity="0.37" d="M491.719 408.563C491.719 408.177 491.285 407.678 490.642 407.276C490.979 406.31 491.253 405.619 491.381 405.361C492.185 403.736 494.243 404.267 495.063 405.168C495.529 405.699 494.564 411.298 493.68 415.835C493.632 416.044 493.6 416.269 493.536 416.51C493.311 417.604 493.069 418.634 492.925 419.47C492.844 419.873 492.764 420.227 492.716 420.516C492.7 420.581 492.667 420.645 492.667 420.709C492.667 420.725 492.667 420.725 492.667 420.758C492.651 420.822 492.619 420.886 492.619 420.951C492.571 421.111 492.539 421.24 492.507 421.353C492.491 421.417 492.491 421.465 492.491 421.514C492.491 421.562 492.475 421.578 492.475 421.626C492.475 421.642 492.458 421.642 492.458 421.675C492.458 421.691 492.458 421.723 492.458 421.723C492.458 421.723 490.819 421.385 490.433 419.808C490.079 418.2 491.719 409.85 491.719 408.563Z" fill="#FFB8A1"/>
<path opacity="0.37" d="M498.745 425.23C498.745 425.23 496.848 423.396 497.233 420.645C497.619 417.91 499.774 412.038 500.417 409.303C500.69 408.128 500.545 406.986 500.127 406.214C501.011 404.718 501.703 403.736 502.089 403.64C503.712 403.286 505.24 404.267 505.143 406.166C505.063 407.951 499.42 423.444 498.841 425.085C498.825 425.134 498.793 425.15 498.825 425.166H498.809C498.809 425.182 498.809 425.182 498.809 425.182C498.745 425.214 498.745 425.23 498.745 425.23Z" fill="#FFB8A1"/>
<path opacity="0.37" d="M507.59 411.233C508.329 410.155 508.876 409.447 509.085 409.319C510.178 408.691 512.043 409.673 512.316 410.67C512.541 411.507 506.432 423.943 504.696 427.45C504.214 427.289 502.558 426.517 502.702 424.377C502.895 421.867 506.737 417.733 507.638 414.258C508.024 412.842 507.927 411.844 507.59 411.233Z" fill="#FFB8A1"/>
<path opacity="0.37" d="M516.013 417.604C516.238 418.232 508.023 432.438 506.27 435.478C506.222 435.527 506.206 435.591 506.19 435.623C504.068 440.128 497.203 447.593 494.92 449.909C496.271 451.068 497.171 452.001 497.219 452.484C497.38 454.302 495.74 455.717 493.264 455.347C492.155 455.186 490.387 454.414 488.265 453.24C490.162 452.258 493.522 450.231 491.866 449.121L491.85 449.105C491.785 449.057 491.737 449.041 491.657 448.976C491.576 448.928 491.496 448.896 491.399 448.815C488.377 447.126 478.345 442.847 477.316 439.436C477.75 439.034 478.297 438.825 479.165 439.034C479.294 438.632 479.455 438.149 479.631 437.586C479.615 437.441 479.567 437.312 479.503 437.152C479.583 437.216 479.647 437.264 479.728 437.28C479.985 437.425 480.258 437.554 480.532 437.682C480.725 437.763 480.918 437.843 481.127 437.94C484.069 439.034 487.107 436.09 487.107 436.09C487.107 436.09 487.171 441.415 488.827 442.509C490.467 443.619 494.502 446.547 498.168 442.509C499.47 441.077 501.463 438.342 503.553 435.334C504.373 434.159 505.193 432.953 505.997 431.778C508.939 427.386 511.608 423.235 512.267 422.238C513.28 420.725 512.974 418.2 512.058 417.508C512.878 416.526 513.537 415.867 513.81 415.851C515 415.706 515.739 416.864 516.013 417.604Z" fill="#FFB8A1"/>
<path d="M869.214 665.893C869.214 665.893 867.397 669.706 867.606 671.862C867.815 674.017 872.22 679.954 876.625 681.611C881.046 683.268 877.155 689.462 874.229 690.25C871.287 691.055 858.764 689.333 857.092 688.03C855.404 686.727 853.828 677.637 850.291 674.436C846.771 671.234 842.719 669.03 843.234 664.606C843.748 660.198 854.97 651.43 854.97 651.43L869.214 665.893Z" fill="#6E3102"/>
<path d="M961.54 614.765C961.54 614.765 950.463 629.18 929.596 633.298C908.729 637.401 904.275 632.06 904.275 632.06L905.77 638.302C905.77 638.302 913.294 643.965 937.891 637.674C962.488 631.384 968.774 614.379 968.774 614.379L961.54 614.765Z" fill="#944203"/>
<path d="M887.121 598.435C887.121 598.435 883.601 615.778 876.029 631.995C868.457 648.212 859.293 653.939 859.293 653.939L862.974 657.543C862.974 657.543 873.344 648.357 881.382 633.926C889.42 619.495 893.536 602.087 893.536 602.087L887.121 598.435Z" fill="#944203"/>
<path d="M869.68 456.071C869.68 456.071 856.818 448.477 849.23 432.486C841.642 416.494 840.452 384.704 840.452 384.704L831.643 384.623C831.643 384.623 832.655 420.983 845.806 444.343C858.957 467.703 872.879 467.3 872.879 467.3L869.68 456.071Z" fill="#944203"/>
<path d="M1007.45 439.339C1007.45 439.339 1024.94 428.56 1030.67 408.884C1036.39 389.192 1031.15 372.38 1031.15 372.38L1039.33 372.203C1039.33 372.203 1044.88 398.717 1037.81 413.663C1030.72 428.608 1027.5 442.589 1011.83 447.126C996.168 451.647 1007.45 439.339 1007.45 439.339Z" fill="#944203"/>
<path d="M1046.63 547.661C1034.46 609.311 944.661 639.412 889.631 608.12C888.008 607.203 886.432 606.238 884.889 605.224C834.746 572.453 837.495 501.07 856.257 472.223C875.564 442.493 863.169 437.087 862.237 405.602C861.304 375.035 872.253 339.078 926.446 331.919C928.07 331.693 929.742 331.516 931.446 331.355C983.856 326.384 1005.24 361.794 1007.58 386.474C1009.35 405.168 1002.84 409.898 1007.28 430.813C1013.02 457.857 1060.78 476.181 1046.63 547.661Z" fill="#FFF5F2"/>
<path opacity="0.17" d="M1046.63 547.661C1034.46 609.311 944.659 639.412 889.629 608.12C888.006 607.203 886.43 606.238 884.887 605.224C896.703 607.477 915.239 608.474 944.048 604.388C1009.7 595.073 1022.31 523.303 991.667 467.944C961.009 412.601 970.816 407.678 965.961 372.782C962.793 350.066 947.28 334.493 926.428 331.902C928.052 331.677 929.724 331.5 931.428 331.339C983.838 326.368 1005.22 361.778 1007.57 386.457C1009.33 405.152 1002.82 409.882 1007.26 430.796C1013.02 457.857 1060.78 476.181 1046.63 547.661Z" fill="#FF6E30"/>
<path d="M1021.89 530.318C1018 560.194 989.208 581.028 957.586 576.893C944.66 575.204 933.262 569.605 924.565 561.545C911.993 549.865 905.08 533.021 907.379 515.372C910.578 490.87 930.497 472.465 954.997 468.909H955.014C960.383 468.121 965.978 468.041 971.685 468.797C1003.31 472.899 1025.8 500.474 1021.89 530.318Z" fill="#FFD041"/>
<path d="M914.439 410.751C915.162 414.403 913.812 417.749 911.384 418.232C908.973 418.714 906.416 416.156 905.693 412.504C904.97 408.852 906.32 405.506 908.747 405.023C911.159 404.541 913.699 407.099 914.439 410.751Z" fill="#401D02"/>
<path d="M989.271 395.708C989.994 399.36 988.644 402.706 986.216 403.189C983.805 403.672 981.248 401.114 980.525 397.462C979.802 393.81 981.152 390.463 983.58 389.981C985.991 389.514 988.547 392.072 989.271 395.708Z" fill="#401D02"/>
<path d="M972.6 442.621C970.864 443.973 968.983 445.179 966.99 446.161C956.653 451.245 944.483 452.773 934.563 449.539C930.432 448.204 926.702 446.032 923.647 442.959C915.175 434.384 914.42 419.728 921.895 412.987C923.551 411.475 925.609 410.381 928.101 409.817C930.785 409.206 933.277 409.673 935.85 410.348C940.206 411.507 944.82 413.26 950.994 411.523C953.678 410.767 955.399 409.335 957.279 407.855C958.951 406.552 960.768 405.248 963.565 404.396C965.816 403.704 968.099 403.205 970.43 403.35C974.192 403.607 978.147 405.618 982.439 411.426C988.436 419.535 983.484 434.159 972.6 442.621Z" fill="#471002"/>
<path d="M935.853 410.332C935.226 415.32 933.522 423.541 929.133 422.398C924.937 421.304 922.815 416.188 921.898 412.971C923.554 411.458 925.612 410.364 928.104 409.801C930.773 409.206 933.281 409.657 935.853 410.332Z" fill="white"/>
<path d="M966.252 413.775C961.3 414.242 958.632 410.686 957.281 407.839C958.953 406.536 960.77 405.232 963.567 404.38C965.818 403.688 968.101 403.189 970.432 403.334C971.22 407.501 971.348 413.293 966.252 413.775Z" fill="white"/>
<path d="M972.601 442.622C970.865 443.973 968.984 445.18 966.991 446.161C956.654 451.245 944.484 452.773 934.564 449.539C935.851 446.048 940.159 438.085 953.229 436.428C963.695 435.092 969.611 439.243 972.601 442.622Z" fill="#FFA3C7"/>
<path d="M1054.27 366.347L1054.99 373.941C1055.07 374.826 1054.42 375.63 1053.51 375.726L1020.98 378.815C1020.08 378.896 1019.27 378.236 1019.18 377.351L1018.45 369.758C1018.37 368.857 1019.03 368.069 1019.93 367.972L1022.57 367.715C1022.57 367.715 1022.68 367.698 1022.89 367.682L1052.47 364.867C1053.39 364.803 1054.19 365.446 1054.27 366.347Z" fill="white"/>
<path d="M1049.65 365.157C1049.67 366.605 1049.65 367.489 1049.65 367.489L1046.18 367.699L1023 369.114C1023 369.114 1022.84 368.6 1022.58 367.731C1022.58 367.731 1022.58 367.731 1022.57 367.715C1022.41 367.216 1022.23 366.605 1022 365.897C1021.79 365.189 1021.57 364.368 1021.3 363.483C1020.07 359.22 1018.51 353.316 1017.78 348.682C1017.78 348.666 1017.78 348.666 1017.78 348.666C1017.5 346.945 1017.34 345.416 1017.37 344.194C1017.39 343.534 1017.44 342.971 1017.57 342.521C1017.98 340.96 1020.23 339.641 1023.29 338.643C1023.31 338.643 1023.32 338.659 1023.34 338.643C1024.03 338.418 1024.77 338.209 1025.54 338.016H1025.56C1028.21 337.356 1031.22 336.938 1034.09 336.729C1034.11 336.729 1034.12 336.729 1034.14 336.745C1034.3 336.713 1034.48 336.713 1034.64 336.697H1034.67C1037.28 336.552 1039.74 336.616 1041.71 336.922C1042.69 337.067 1043.55 337.276 1044.24 337.517V337.533C1044.66 337.694 1044.99 337.855 1045.28 338.064C1046.13 338.676 1046.84 340.14 1047.39 342.102C1049.24 348.473 1049.57 360.185 1049.65 365.157Z" fill="white"/>
<path d="M1023.24 363.661C1022.97 365.237 1022.63 366.235 1022.63 366.235C1022.63 366.235 1022.41 366.106 1022 365.897C1021.73 365.752 1021.38 365.559 1020.94 365.318C1018.9 364.208 1015.64 362.309 1014.67 361.231C1013.24 359.638 1009.48 353.509 1008.44 352.254C1007.49 351.063 1005.59 349.76 1004.27 348.377C1004.16 348.264 1004.05 348.135 1003.95 348.023C1002.63 346.511 1003.57 342.939 1006.88 344.355C1010.22 345.787 1010.62 347.299 1013.18 348.232C1014.83 348.843 1016.68 348.795 1017.79 348.666C1018.4 348.602 1018.77 348.522 1018.77 348.522C1018.77 348.522 1017.29 345.384 1021.35 351.659C1024 355.761 1023.73 360.716 1023.24 363.661Z" fill="white"/>
<path d="M1052.31 321.445C1052.55 322.813 1049.43 334.654 1047.42 342.103C1046.47 345.594 1045.77 348.12 1045.77 348.12C1045.77 348.12 1044.96 348.232 1043.68 348.409C1039.37 348.988 1029.63 350.163 1026.39 349.584C1022.21 348.827 1017.92 346.173 1017.92 346.173C1017.92 346.173 1017.71 345.433 1017.36 344.21C1015.98 339.448 1012.52 327.318 1011.64 322.491C1011.43 321.429 1011.36 320.737 1011.47 320.544C1012.17 319.225 1015.14 317.504 1016.55 318.614C1017.99 319.74 1025.72 337.952 1025.72 337.952C1025.72 337.952 1025.72 337.936 1025.72 337.904C1025.64 336.793 1024.45 320.207 1024.56 315.155C1024.58 314.367 1024.64 313.852 1024.74 313.723C1025.46 312.693 1029.95 312.179 1031.15 313.61C1032.29 314.962 1034.42 334.654 1034.66 336.745L1034.67 336.874C1034.67 336.906 1034.67 336.922 1034.67 336.922C1034.67 336.922 1034.69 336.874 1034.69 336.745V336.697C1034.71 336.616 1034.72 336.504 1034.72 336.391C1035.01 333.576 1036.35 320.737 1037.36 316.088C1037.52 315.332 1037.7 314.785 1037.82 314.527C1038.95 312.597 1042 314.238 1042.78 314.737C1043.47 315.187 1042.18 331.694 1041.86 335.893C1041.84 335.925 1041.84 335.973 1041.84 335.989C1041.8 336.407 1041.78 336.697 1041.78 336.81C1042.02 335.973 1045.28 324.534 1047.05 320.142C1047.42 319.273 1047.71 318.662 1047.92 318.501C1049.11 317.327 1051.96 319.45 1052.31 321.445Z" fill="white"/>
<path d="M850.483 379.137L851.206 386.731C851.286 387.616 850.627 388.42 849.743 388.517L817.188 391.606C816.288 391.686 815.5 391.026 815.42 390.142L814.696 382.548C814.616 381.663 815.259 380.859 816.159 380.762L848.714 377.673C849.582 377.577 850.386 378.252 850.483 379.137Z" fill="white"/>
<path d="M847.17 358.287C847.203 358.561 847.187 358.85 847.203 359.14C847.235 360.845 847.203 362.711 847.122 364.578C846.945 368.825 846.576 373.137 846.27 376C846.19 376.756 846.109 377.4 846.077 377.915C845.965 378.816 845.9 379.347 845.9 379.347L832.879 381.036L819.422 382.773C819.422 382.773 819.246 381.921 819.004 380.489C818.072 375.276 816.03 362.47 816.995 356.18C817.204 354.764 817.574 353.67 818.152 353.059C818.57 352.624 819.197 352.206 820.001 351.852C825.001 349.487 836.496 348.409 842.557 349.986C844.405 350.484 845.74 351.208 846.238 352.222C846.511 352.753 846.704 353.509 846.865 354.394C847.042 355.488 847.122 356.823 847.17 358.287Z" fill="white"/>
<path d="M860.643 355.053C859.63 356.791 857.798 358.625 857.026 360.057C856.254 361.488 853.682 368.213 852.589 370.047C851.689 371.528 847.75 374.81 846.271 376C845.917 376.29 845.708 376.451 845.708 376.451C845.708 376.451 843.779 373.024 843.345 368.68C843.136 366.54 843.297 364.191 844.229 361.891C844.518 361.151 844.776 360.539 844.985 360.041C844.985 360.041 844.985 360.041 845.001 360.041C846.85 355.648 846.158 358.335 846.158 358.335C846.158 358.335 846.544 358.335 847.155 358.303C847.541 358.271 848.023 358.207 848.538 358.094C849.502 357.933 850.611 357.579 851.592 357C853.907 355.6 854.036 354.04 857.058 352.029C857.637 351.643 858.151 351.449 858.617 351.401C860.579 351.208 861.463 353.637 860.643 355.053Z" fill="white"/>
<path d="M847.14 354.137C847.14 354.137 847.044 354.217 846.851 354.378C846.111 354.973 844.021 356.598 841.546 357.869C840.822 358.271 840.051 358.609 839.279 358.883C835.211 360.363 819.569 361.119 819.569 361.119C819.569 361.119 818.476 359.06 816.965 356.164C814.473 351.337 810.823 344.162 809.087 340.236C808.46 338.837 808.074 337.839 808.074 337.485C808.058 335.571 810.502 333.045 811.933 333.817C813.315 334.557 821 348.86 821.482 349.745C821.482 349.712 821.45 349.68 821.45 349.616C820.968 347.975 817.431 335.828 816.531 331.179C816.322 330.149 816.257 329.473 816.37 329.377C817.077 328.766 819.81 326.674 821.305 328.267C822.768 329.827 828.379 347.798 828.62 348.538L828.588 348.264C828.443 346.269 827.511 334.654 827.575 329.087C827.575 327.559 827.656 326.481 827.848 326.175C828.797 324.631 833.379 324.277 834.295 325.114C835.211 325.95 837.8 347.878 837.8 347.878C837.8 347.878 837.8 347.862 837.816 347.798C838.041 346.881 840.485 336.681 842.173 331.324C842.687 329.65 843.137 328.46 843.427 328.17C844.648 326.867 847.928 327.929 848.876 329.023C849.841 330.149 847.14 354.137 847.14 354.137Z" fill="white"/>
<path d="M855.595 645.976C851.93 647.134 851.078 650.979 852.364 652.411C853.65 653.843 866.302 666.89 869.759 667.18C873.215 667.469 874.051 665.314 875.466 662.788C876.88 660.262 859.614 646.732 858.312 646.12C856.994 645.541 856.994 645.541 855.595 645.976Z" fill="#6E3102"/>
<path d="M903.103 643.965C903.103 643.965 899.952 645.493 898.971 646.989C897.99 648.501 897.765 654.615 899.759 657.977C901.752 661.34 896.045 663.335 893.73 662.321C891.415 661.308 884.213 653.698 883.795 651.993C883.377 650.287 887.058 643.579 886.447 639.669C885.82 635.776 884.358 632.236 886.978 629.646C889.598 627.056 901.399 627.217 901.399 627.217L903.103 643.965Z" fill="#6E3102"/>
<path d="M904.613 624.015C901.655 622.857 899.099 624.916 899.18 626.509C899.26 628.102 900.691 643.112 902.781 645.091C904.871 647.07 906.526 646.104 908.745 645.219C910.98 644.318 906.8 626.605 906.269 625.544C905.755 624.45 905.755 624.45 904.613 624.015Z" fill="#6E3102"/>
<path opacity="0.44" d="M943.195 477.259C928.646 479.946 919.193 497.466 924.145 507.231C929.08 516.997 939.45 513.184 943.099 506.379C946.748 499.573 957.311 497.82 962.857 495.873C968.403 493.926 964.963 473.237 943.195 477.259Z" fill="#FFF5F2"/>
<path opacity="0.44" d="M915.321 538.684C921.783 553.855 930.802 564.376 943.84 563.138C956.878 561.899 955.962 547.918 949.837 545.859C943.712 543.816 935.738 538.957 933.873 528.693C932.024 518.445 909.903 525.942 915.321 538.684Z" fill="#FFF5F2"/>
<path opacity="0.28" d="M1021.89 530.318C1018 560.194 989.21 581.028 957.588 576.893C944.662 575.204 933.264 569.605 924.566 561.545C924.566 561.545 975.786 570.812 990.946 534.308C1006.11 497.788 980.722 470.663 955.031 468.893C960.401 468.105 965.996 468.025 971.703 468.781C1003.31 472.899 1025.8 500.474 1021.89 530.318Z" fill="#D42020"/>
<path opacity="0.46" d="M926.107 360.379C907.411 365.865 893.52 385.235 895.851 407.597C898.199 429.976 874.421 435.896 870.418 405.232C866.415 374.568 885.884 353.075 899.662 347.492C913.439 341.893 922.892 339.914 929.789 346.607C936.702 353.284 931.879 358.673 926.107 360.379Z" fill="white"/>
<path opacity="0.46" d="M894.34 483.035C875.562 507.376 881.832 548.321 898.15 567.482C914.467 586.643 890.417 607.445 871.913 580.61C853.409 553.775 849.583 511.189 858.232 490.323C866.881 469.457 877.025 467.494 888.745 468.314C900.481 469.135 897.893 478.418 894.34 483.035Z" fill="white"/>
<path opacity="0.33" d="M819.97 351.803C819.761 351.868 819.52 351.868 819.295 351.739C818.041 351.095 815.019 343.212 812.784 339.946C811.032 337.388 809.858 337.951 809.103 340.236C808.476 338.836 808.09 337.839 808.09 337.485C808.074 335.57 810.518 333.044 811.948 333.817C813.331 334.557 821.015 348.859 821.498 349.744C821.514 349.776 821.514 349.792 821.514 349.792C821.514 349.792 820.887 351.514 819.97 351.803Z" fill="#FFC1AD"/>
<path opacity="0.33" d="M816.565 331.211C816.356 330.181 816.292 329.505 816.404 329.409C817.112 328.798 819.845 326.706 821.34 328.299C822.803 329.859 828.414 347.83 828.655 348.57C828.655 348.586 828.655 348.586 828.655 348.586C828.655 348.586 824.234 348.425 822.915 343.309C821.597 338.177 820.697 334.975 819.845 331.951C819.25 329.811 817.514 330.101 816.565 331.211Z" fill="#FFC1AD"/>
<path opacity="0.33" d="M827.609 329.136C827.609 327.607 827.69 326.529 827.883 326.224C828.831 324.679 833.413 324.325 834.329 325.162C835.246 325.998 837.834 347.927 837.834 347.927C837.834 347.927 835.39 348.361 834.506 346.768C833.638 345.176 832.272 331.999 831.114 330.069C830.455 328.943 828.799 328.621 827.609 329.136Z" fill="#FFC1AD"/>
<path opacity="0.33" d="M841.547 357.901V357.885C841.611 356.598 842.029 353.525 842.544 349.986C843.38 344.339 844.521 337.469 845.036 334.863C845.679 331.645 843.846 331.002 842.174 331.388C842.688 329.715 843.139 328.524 843.428 328.235C844.65 326.931 847.929 327.993 848.878 329.087C849.842 330.181 847.142 354.169 847.142 354.169C847.142 354.169 847.045 354.249 846.852 354.41C847.029 355.504 847.126 356.839 847.174 358.32C847.56 358.287 848.042 358.223 848.556 358.11L848.54 358.126C848.138 358.529 847.688 358.883 847.206 359.156C846.499 359.59 845.743 359.896 845.02 360.057C845.003 360.057 845.003 360.057 845.003 360.057C843.106 360.459 841.451 359.896 841.547 357.901Z" fill="#FFC1AD"/>
<path opacity="0.33" d="M860.645 355.053C859.632 356.791 857.799 358.625 857.028 360.057C856.256 361.489 853.684 368.214 852.591 370.048C851.69 371.528 847.752 374.81 846.273 376C846.192 376.756 846.112 377.4 846.08 377.915L848.716 377.657C849.601 377.577 850.404 378.237 850.501 379.121L851.224 386.715C851.305 387.6 850.646 388.404 849.761 388.501L845.308 388.919C845.019 387.005 844.118 383.401 841.241 382.291C839.633 381.663 836.305 381.261 832.897 381.02C827.865 380.618 822.656 380.569 822.656 380.569C822.656 380.569 824.248 380.28 826.531 379.749C832.045 378.446 841.61 375.727 842.237 372.364C842.527 370.675 842.864 369.597 843.395 368.664C844.134 367.393 845.212 366.412 847.157 364.562C847.784 363.999 848.491 363.291 849.327 362.47C854.456 357.306 856.755 356.147 858.266 353.123C858.619 352.415 858.732 351.836 858.684 351.385C860.581 351.208 861.465 353.638 860.645 355.053Z" fill="#FFC1AD"/>
<path opacity="0.17" d="M1013.18 348.232C1014.83 348.843 1016.68 348.795 1017.79 348.666C1017.79 348.666 1017.79 348.666 1017.79 348.682C1017.76 349.069 1017.36 353.927 1015.62 353.638C1013.79 353.332 1010.43 352.093 1008.73 349.245C1007.54 347.283 1005.69 347.46 1004.27 348.361C1004.16 348.248 1004.05 348.119 1003.95 348.007C1002.63 346.494 1003.57 342.923 1006.88 344.339C1010.22 345.77 1010.62 347.283 1013.18 348.232Z" fill="#FF6E30"/>
<path opacity="0.17" d="M1011.65 322.459C1011.44 321.397 1011.38 320.705 1011.49 320.512C1012.18 319.193 1015.16 317.471 1016.57 318.581C1018 319.708 1025.73 337.919 1025.73 337.919C1025.73 337.919 1025.67 337.968 1025.56 338.016H1025.54C1025.17 338.209 1024.3 338.627 1023.34 338.643C1023.32 338.659 1023.31 338.643 1023.29 338.643C1022.1 338.692 1020.77 338.129 1020.04 335.973C1018.53 331.436 1016.81 326.947 1015.3 323.392C1014.3 321.027 1012.66 321.3 1011.65 322.459Z" fill="#FF6E30"/>
<path opacity="0.17" d="M1024.56 315.107C1024.58 314.318 1024.64 313.803 1024.74 313.675C1025.46 312.645 1029.95 312.13 1031.15 313.562C1032.29 314.913 1034.42 334.605 1034.66 336.697H1034.67C1034.67 336.745 1034.69 336.793 1034.67 336.826C1034.67 336.858 1034.67 336.874 1034.67 336.874C1034.67 336.874 1034.46 336.842 1034.16 336.745C1034.14 336.729 1034.13 336.729 1034.11 336.729C1033.02 336.359 1030.67 335.185 1030.07 331.774C1029.29 327.301 1028.68 320.898 1027.98 317.246C1027.53 314.994 1025.94 314.753 1024.56 315.107Z" fill="#FF6E30"/>
<path opacity="0.17" d="M1037.36 316.007C1037.52 315.251 1037.7 314.704 1037.82 314.447C1038.95 312.516 1042 314.157 1042.78 314.656C1043.47 315.106 1042.18 331.613 1041.86 335.812C1041.84 335.844 1041.84 335.892 1041.84 335.908C1041.81 335.973 1041.81 335.989 1041.81 335.989C1041.81 335.989 1038.85 334.67 1038.85 331.082C1038.87 327.478 1039.58 318.308 1039.05 316.683C1038.79 315.862 1038.06 315.702 1037.36 316.007Z" fill="#FF6E30"/>
<path opacity="0.17" d="M1054.27 366.347L1054.99 373.941C1055.07 374.826 1054.41 375.63 1053.51 375.727L1044.96 376.531C1046.13 375.534 1047.21 374.424 1047.42 373.49C1047.82 371.656 1047.16 369.05 1046.18 367.667C1045.93 367.313 1045.65 367.023 1045.36 366.846C1044.08 366.106 1025.6 367.457 1022.9 367.667C1022.69 367.683 1022.58 367.699 1022.58 367.699C1022.58 367.699 1022.58 367.699 1022.57 367.683C1022.42 367.49 1021.44 366.363 1020.96 365.285C1020.67 364.658 1020.54 364.031 1020.89 363.661C1020.99 363.564 1021.14 363.5 1021.31 363.451C1021.73 363.339 1022.42 363.468 1023.26 363.628C1025.11 363.95 1027.77 364.385 1030.62 362.856C1035.12 360.459 1033.98 356.164 1033.88 355.842C1033.88 355.842 1034.61 356.823 1035.62 360.443C1036.62 364.079 1042.48 363.998 1043.27 362.245C1044.08 360.491 1044.96 353.332 1043.77 348.522C1043.77 348.473 1043.74 348.409 1043.72 348.361C1042.55 343.663 1039.85 341.234 1039.85 341.234C1039.85 341.234 1043.88 339.657 1044.3 337.485V337.469C1044.69 335.265 1048.87 326.368 1049.19 323.328C1049.4 321.429 1048.18 320.271 1047.1 320.013C1047.47 319.145 1047.76 318.533 1047.97 318.372C1049.17 317.295 1052.02 319.418 1052.37 321.413C1052.61 322.781 1049.49 334.621 1047.48 342.07C1049.29 348.457 1049.64 360.153 1049.7 365.125L1052.53 364.851C1053.38 364.803 1054.19 365.446 1054.27 366.347Z" fill="#FF6E30"/>
<path d="M839.504 342.038C839.038 343.631 838.041 345.352 834.199 345.545C830.357 345.738 829.232 346.929 829.232 346.929C829.232 346.929 828.379 348.811 827.254 350.838C826.691 351.803 826.08 352.785 825.47 353.621C823.54 356.228 821.547 357 821.547 357C821.467 356.678 819.007 348.94 820.824 346.35C822.624 343.743 827.013 338.273 828.54 337.437C830.084 336.584 833.91 338.177 836.562 337.887C836.659 337.871 836.755 337.871 836.852 337.871C839.295 337.823 839.971 340.51 839.504 342.038Z" fill="white"/>
<path d="M742.868 418.698C740.441 412.987 746.839 402.385 746.839 402.385C746.839 402.385 761.42 409.624 787.738 400.631C814.055 391.638 816.868 370.916 816.868 370.916L823.572 378.574C823.572 378.574 817.302 395.966 788.332 410.123C759.363 424.265 742.868 418.698 742.868 418.698Z" fill="#944203"/>
<path d="M834.148 384.253C833.232 385.251 831.496 387.004 829.486 388.227C827.493 389.45 825.001 389.804 823.634 389.9C822.975 389.948 822.348 389.659 821.962 389.144C820.757 387.535 817.895 383.61 814.583 378.397C811.32 373.233 809.503 368.406 808.796 366.283C808.555 365.575 808.732 364.819 809.246 364.288C809.471 364.063 809.76 363.805 810.082 363.532C811.014 362.679 812.365 361.633 814.085 360.62C816.738 359.027 818.988 358.882 820.033 358.914C820.162 358.914 820.307 358.93 820.435 358.979H820.451C820.692 359.027 820.901 359.123 821.11 359.3C822.461 360.33 826.657 363.805 829.711 368.986C830.692 370.643 831.496 372.364 832.139 374.005V374.021C833.345 377.078 834.004 379.909 834.39 381.695C834.454 382.017 834.518 382.307 834.583 382.564C834.727 383.191 834.55 383.803 834.148 384.253Z" fill="white"/>
<path d="M859.903 360.958C860.224 365.044 857.748 365.382 856.703 367.441C855.658 369.501 857.78 372.895 855.417 374.327C853.343 375.614 838.071 380.553 834.389 381.728C833.859 381.904 833.585 381.985 833.585 381.985L833.441 381.47C833.441 381.47 828.296 373.185 824.47 367.055V367.039C822.251 363.5 820.483 360.684 820.419 360.62C820.338 360.539 820.354 359.864 820.451 358.995H820.467C820.612 357.804 820.933 356.292 821.367 355.584C822.107 354.378 834.47 340.96 835.547 340.075C836.624 339.19 839.051 337.308 842.813 339.19C846.575 341.105 846.173 342.746 847.395 343.872C848.601 344.998 852.7 344.821 854.79 347.685C856.896 350.565 855.224 353.01 855.031 354.86C854.822 356.678 859.565 356.839 859.903 360.958Z" fill="white"/>
<path d="M622.086 454.896C625.639 459.98 621.571 471.676 621.571 471.676C621.571 471.676 605.816 467.606 581.927 481.844C558.037 496.082 559.564 516.948 559.564 516.948L551.43 510.851C551.43 510.851 553.97 492.543 579.387 472.706C604.804 452.853 622.086 454.896 622.086 454.896Z" fill="#944203"/>
<path d="M573.759 545.554C573.196 547.211 569.338 548.675 567.586 550.718C567.007 551.394 566.348 551.667 565.689 551.683C564.37 551.715 563.084 550.686 562.602 549.704C562.586 549.672 562.57 549.656 562.57 549.624C561.862 548.176 561.477 546.261 564.097 543.543C564.82 542.802 565.351 542.127 565.737 541.548C566.766 540.003 566.766 539.134 566.766 539.134C566.766 539.134 566.637 538.732 566.412 538.073C566.412 538.056 566.412 538.056 566.412 538.056C565.962 536.592 565.158 533.874 564.917 531.669C564.853 531.074 564.82 530.527 564.837 530.012C564.853 527.792 565.464 526.505 565.464 526.505C565.528 526.537 565.914 526.763 566.492 527.133C568.534 528.387 572.939 531.348 573.293 533.793C573.759 536.898 574.29 543.896 573.759 545.554Z" fill="white"/>
<path d="M569.418 512.75C569.37 514.005 569.161 516.16 568.421 518.751C567.553 521.711 566.042 523.368 565.238 524.06C565.126 524.14 564.997 524.237 564.885 524.301C564.659 524.414 564.434 524.51 564.177 524.526C562.57 524.671 557.65 524.993 552.216 523.593C551.911 523.529 551.589 523.448 551.284 523.352C545.979 521.807 541.509 518.911 539.178 517.303C538.889 517.094 538.648 516.933 538.439 516.772C537.924 516.434 537.635 515.871 537.635 515.243C537.619 513.892 537.683 511.414 538.31 509.162C538.937 506.91 540.496 504.947 541.429 503.933C541.863 503.451 542.506 503.225 543.165 503.338C545.143 503.692 549.901 504.593 555.898 506.105C558.55 506.781 560.946 507.634 562.955 508.438C565.415 509.436 567.312 510.385 568.389 510.98C569.048 511.318 569.45 511.994 569.418 512.75Z" fill="white"/>
<path d="M566.846 548.417C566.749 549.19 566.556 550.477 565.704 551.683C565.029 552.632 563.952 553.517 562.151 554.032C558.1 555.239 557.264 553.759 555.608 553.759C553.952 553.759 551.091 556.703 547.602 556.059C544.097 555.416 543.647 552.472 542.554 551.008C541.445 549.511 537.86 552.665 534.821 549.897C531.783 547.146 533.358 545.2 532.715 542.996C532.072 540.775 528.198 539.762 528.937 537.091C529.001 536.834 529.162 536.448 529.371 535.949C531.204 531.847 537.506 520.36 539.21 517.319C539.467 516.836 539.612 516.563 539.612 516.563L540.078 516.836C540.078 516.836 551.364 519.861 558.373 521.711C561.46 522.515 563.727 523.111 563.807 523.111C563.92 523.111 564.386 523.625 564.884 524.333C565.511 525.202 566.219 526.328 566.492 527.133C566.524 527.229 566.556 527.342 566.572 527.438C566.653 527.841 566.717 529.675 566.781 532.104C566.846 534.694 566.894 537.976 566.894 540.904V541.049C566.926 544.717 566.91 547.87 566.846 548.417Z" fill="white"/>
<path opacity="0.17" d="M573.759 545.553C573.196 547.211 569.338 548.675 567.586 550.718C567.007 551.393 566.348 551.667 565.688 551.683C565.013 552.632 563.936 553.517 562.136 554.032C558.084 555.239 557.248 553.758 555.592 553.758C553.937 553.758 551.075 556.703 547.586 556.059C544.082 555.416 543.632 552.471 542.538 551.007C541.429 549.511 537.844 552.664 534.806 549.897C531.767 547.146 533.343 545.199 532.7 542.995C532.056 540.775 528.182 539.762 528.922 537.091C528.986 536.834 529.147 536.448 529.356 535.949C529.677 536.625 530.031 537.365 530.497 538.072C532.073 540.47 533.664 539.73 534.597 541.049C535.545 542.368 534.854 545.457 535.979 546.921C537.105 548.369 540.014 547.436 541.654 546.921C543.294 546.406 544.114 547.87 544.5 549.511C544.869 551.168 544.934 554.064 549.483 553.437C554.033 552.809 555.046 548.707 556.364 548.562C557.698 548.449 559.772 551.651 562.457 549.704C562.489 549.688 562.521 549.656 562.554 549.624C563.904 548.514 564.981 544.846 565.721 541.547C565.994 540.26 566.235 539.038 566.396 538.056C566.396 538.04 566.396 538.04 566.396 538.04C566.637 536.625 566.766 535.675 566.766 535.675C566.766 535.675 566.766 538.362 566.878 540.888V541.033C566.959 542.706 567.119 544.282 567.328 544.91C567.907 546.487 568.454 546.294 569.788 543.784C571.106 541.242 571.299 536.319 569.241 534.501C568.277 533.632 567.537 532.924 566.734 532.104C566.155 531.508 565.544 530.833 564.788 530.012C564.386 529.53 563.904 528.983 563.39 528.371C560.689 525.202 560.866 528.001 556.975 526.505C555.48 525.942 553.744 524.816 552.168 523.609C549.789 521.839 547.779 519.909 547.474 519.619C547.94 519.845 554.869 523.207 558.277 521.711C558.293 521.711 558.309 521.695 558.325 521.695C561.846 520.102 565.914 511.479 562.875 508.502C562.875 508.502 562.891 508.486 562.923 508.47C565.383 509.468 567.28 510.417 568.357 511.012C569 511.35 569.402 512.026 569.37 512.766C569.322 514.021 569.113 516.176 568.373 518.767C567.505 521.727 565.994 523.384 565.19 524.076C565.078 524.156 564.949 524.253 564.836 524.317C565.463 525.186 566.171 526.312 566.444 527.116C568.486 528.371 572.891 531.332 573.244 533.777C573.759 536.898 574.289 543.896 573.759 545.553Z" fill="#FF6E30"/>
<path d="M671.536 336.713C671.745 337.115 668.69 318.855 654.703 306.467C640.701 294.079 635.637 294.9 635.637 294.9C635.637 294.9 637.26 287.596 642.325 281.707C647.389 275.819 655.507 277.846 655.507 277.846C655.507 277.846 670.105 290.234 675.989 309.105C681.873 327.977 681.664 337.517 681.664 337.517L671.536 336.713Z" fill="#664220"/>
<path d="M630.736 638.865C641.588 640.216 656.828 635.808 667.343 628.359C677.84 620.894 677.165 607.67 677.165 607.67L685.638 609.359C685.638 609.359 684.625 629.373 669.031 638.189C653.436 647.005 632.424 648.695 632.424 648.695L630.736 638.865Z" fill="#944203"/>
<path d="M762.225 602.586C766.63 620.894 740.875 659.892 740.875 659.892C740.875 659.892 743.592 664.3 746.63 665.652C749.685 667.003 752.723 666.665 752.723 666.665C752.723 666.665 768.318 640.892 773.398 618.851C778.478 596.81 777.465 593.754 777.465 593.754L762.225 602.586Z" fill="#944203"/>
<path d="M815.758 560.692C801.417 604.597 734.266 624.579 681.728 618.256C664.848 616.229 649.478 611.483 637.855 603.937C579.626 566.13 589.561 499.139 604.818 476.262C620.075 453.368 620.075 432.518 617.02 405.039C614.785 384.961 621.345 357.322 645.025 342.472H645.041C653.739 337.003 664.767 333.27 678.529 332.305C721.742 329.248 739.523 351.128 745.632 372.493C751.725 393.858 740.938 407.984 779.682 432.003C785.052 435.333 789.923 439.179 794.296 443.474C822.574 471.29 829.857 517.512 815.758 560.692Z" fill="#D9E460"/>
<path d="M679.621 347.09C632.436 353.187 628.305 367.168 645.024 384.559C661.744 401.95 692.53 410.252 713.88 403.125C735.23 395.998 752.03 384.044 732.947 363.934C713.896 343.808 679.621 347.09 679.621 347.09Z" fill="#C5D82E"/>
<path d="M781.033 579.869C816.385 554.884 811.835 513.167 804.585 485.898C797.334 458.612 780.936 429.026 747.674 438.856C714.395 448.686 732.707 512.797 694.991 544.105C657.292 575.413 678.143 595.298 700.988 601.25C723.832 607.203 754.313 598.757 781.033 579.869Z" fill="#C5D82E"/>
<path opacity="0.28" d="M815.761 560.692C801.421 604.597 734.27 624.579 681.732 618.256C695.557 616.921 714.351 612.191 738.546 600.141C738.546 600.125 738.562 600.125 738.562 600.125C799.202 569.943 790.376 515.276 762.066 478.482C750.635 463.633 743.417 453.899 738.16 444.198C730.379 429.847 726.858 415.593 720.315 385.074C709.335 333.881 645.045 342.472 645.045 342.472C653.742 337.003 664.771 333.27 678.532 332.305C721.746 329.248 739.527 351.128 745.636 372.493C751.729 393.858 740.941 407.984 779.686 432.003C785.055 435.333 789.926 439.179 794.299 443.474C822.578 471.29 829.86 517.512 815.761 560.692Z" fill="#538007"/>
<path d="M765.504 494.377C756.903 501.697 744.235 507.215 726.31 507.971C713.336 508.518 703.063 507.038 694.993 504.303C672.711 496.854 667.18 479.946 667.679 470.003C668 463.423 671.36 457.486 676.328 453.641C681.601 449.571 688.642 447.882 695.812 450.327C704.462 453.271 709.027 455.17 714.847 455.797C718.384 456.167 722.371 456.039 727.998 455.411C745.971 453.384 743.142 444.809 755.119 439.806C757.144 438.969 759.363 438.679 761.662 438.953C768.575 439.741 776.018 445.485 779.844 455.411C783.044 463.761 780.311 481.747 765.504 494.377Z" fill="#471002"/>
<path d="M765.502 494.377C756.901 501.697 744.233 507.215 726.307 507.971C713.333 508.518 703.061 507.038 694.99 504.303C695.939 496.372 700.89 475.184 726.966 472.706C748.445 470.663 760.116 484.74 765.502 494.377Z" fill="#FFA3C7"/>
<path d="M761.21 452.354C755.679 456.907 751.403 453.046 751.065 452.724C751.307 453.191 755.149 460.929 746.291 463.552C737.625 466.11 734.748 459.851 734.458 459.192C734.667 460.061 736.709 469.392 727.996 471.017C718.848 472.706 714.781 461.508 714.781 461.508C714.781 461.508 714.459 468.636 704.62 468.636C694.798 468.636 694.46 459.819 694.46 459.819C694.46 459.819 693.447 464.903 684.3 463.198C678.673 462.168 676.872 457.261 676.342 453.641C681.615 449.571 688.656 447.882 695.827 450.327C704.476 453.271 709.041 455.17 714.861 455.797C718.398 456.167 722.385 456.039 728.012 455.411C745.985 453.384 743.156 444.809 755.133 439.806C757.158 438.969 759.377 438.679 761.676 438.953C764.521 443.297 765.888 448.509 761.21 452.354Z" fill="white"/>
<path d="M641.925 495.76C649.597 495.76 655.815 490.445 655.815 483.887C655.815 477.33 649.597 472.014 641.925 472.014C634.254 472.014 628.035 477.33 628.035 483.887C628.035 490.445 634.254 495.76 641.925 495.76Z" fill="#FF5F4F"/>
<path d="M804.585 495.76C812.257 495.76 818.476 490.445 818.476 483.887C818.476 477.33 812.257 472.014 804.585 472.014C796.914 472.014 790.695 477.33 790.695 483.887C790.695 490.445 796.914 495.76 804.585 495.76Z" fill="#FF5F4F"/>
<path d="M677.755 422.165C680.554 421.965 682.569 418.246 682.256 413.859C681.943 409.472 679.421 406.077 676.622 406.277C673.823 406.477 671.808 410.196 672.121 414.583C672.434 418.97 674.957 422.365 677.755 422.165Z" fill="#664220"/>
<path d="M740.023 409.737C740.328 414.129 738.319 417.845 735.521 418.055C732.724 418.248 730.2 414.853 729.878 410.461C729.573 406.069 731.582 402.352 734.38 402.143C737.193 401.95 739.717 405.345 740.023 409.737Z" fill="#664220"/>
<path d="M643.497 637.32C643.223 642.935 643.063 646.796 644.3 649.435C645.554 652.073 645.185 653.762 643.352 654.358C641.519 654.953 638.658 655.098 637.339 657.591C636.021 660.085 634.188 665.957 631.246 667.791C628.304 669.625 620.684 667.566 620.314 664.043C619.945 660.52 623.465 651.494 623.61 645.461C623.755 639.444 623.096 635.47 624.703 632.607C626.311 629.743 629.912 631.207 634.237 630.773C638.561 630.338 640.474 628.794 642.532 630.853C644.59 632.912 643.561 635.856 643.497 637.32Z" fill="#6E3102"/>
<path d="M745.696 658.46C750.696 661.051 754.12 662.788 757.046 662.756C759.972 662.724 761.355 663.753 761.13 665.668C760.905 667.582 759.844 670.253 761.564 672.489C763.284 674.725 767.866 678.828 768.316 682.271C768.766 685.698 763.734 691.795 760.374 690.669C757.014 689.543 750.262 682.593 744.86 679.954C739.442 677.316 735.568 676.27 733.639 673.615C731.71 670.961 734.539 668.29 735.922 664.172C737.32 660.053 736.709 657.672 739.426 656.658C742.143 655.629 744.378 657.785 745.696 658.46Z" fill="#6E3102"/>
<path d="M782.82 534.485C779.54 543.574 775.73 548.336 775.393 551.667C775.055 554.997 777.418 559.067 784.363 554.257C791.324 549.447 795.472 535.08 792.064 529.98C787.257 522.805 785.681 526.521 782.82 534.485Z" fill="#96B102"/>
<path d="M747.306 574.624C754.557 569.396 759.508 561.866 762.466 561.4C765.424 560.933 770.424 565.374 770.697 570.924C770.971 576.475 759.074 585.355 751.148 586.095C743.239 586.835 740.425 579.58 747.306 574.624Z" fill="#96B102"/>
<path d="M632.664 405.683C623.693 402.835 622.6 424.329 623.565 429.3C624.513 434.271 633.371 433.274 635.654 429.3C637.921 425.31 642.792 408.916 632.664 405.683Z" fill="#E9F494"/>
<path d="M620.283 451.904C610.107 473.462 607.213 478.852 601.168 490.29C595.124 501.729 606.634 511.784 613.579 498.367C620.524 484.949 632.871 465.322 632.662 455.009C632.453 444.697 623 446.144 620.283 451.904Z" fill="#E9F494"/>
<path opacity="0.17" d="M859.903 360.958C860.225 365.044 857.749 365.382 856.704 367.441C855.659 369.501 857.781 372.895 855.418 374.327C853.344 375.614 838.071 380.553 834.39 381.728C834.454 382.049 834.518 382.339 834.583 382.596C834.711 383.208 834.55 383.819 834.148 384.27C833.232 385.267 831.496 387.021 829.486 388.243C827.493 389.466 825.001 389.82 823.634 389.916C822.975 389.965 822.348 389.675 821.962 389.16C820.757 387.551 817.895 383.626 814.583 378.413C811.32 373.249 809.503 368.423 808.796 366.299C808.555 365.591 808.732 364.835 809.246 364.304C809.471 364.079 809.76 363.821 810.082 363.548C810.629 364.771 811.223 366.058 811.915 367.409C815.725 375.019 821.625 383.047 824.47 381.985C827.236 380.971 824.599 367.731 824.47 367.071V367.055L832.155 374.037V374.054L834.647 376.306C834.647 376.306 850.788 372.059 848.601 367.827C846.431 363.596 852.894 366.138 854.164 360.185C855.434 354.233 851.624 359.381 849.936 354.716C848.248 350.066 851.624 350.066 847.83 347.09C844.019 344.113 847.396 343.872 842.814 339.19C846.576 341.105 846.174 342.746 847.395 343.872C848.601 344.998 852.701 344.821 854.791 347.685C856.897 350.565 855.225 353.01 855.032 354.86C854.823 356.678 859.565 356.839 859.903 360.958Z" fill="#FF6E30"/>
<path opacity="0.17" d="M839.503 342.038C839.037 343.631 838.04 345.352 834.198 345.545C830.355 345.738 829.23 346.929 829.23 346.929C829.23 346.929 828.378 348.811 827.253 350.838C827.108 349.889 826.947 348.827 826.947 347.62C826.947 343.856 829.536 343.582 833.33 342.311C836.802 341.169 838.008 340.558 836.85 337.887C839.294 337.823 839.969 340.509 839.503 342.038Z" fill="#FF6E30"/>
<path d="M885.182 13.6465C878.028 104.545 870.89 195.427 863.736 286.325C751.57 277.493 639.147 273.229 526.708 273.567C443.496 273.776 360.284 276.511 277.185 281.74C255.53 283.107 233.907 284.636 212.268 286.341C205.13 195.443 197.976 104.561 190.838 13.6626C248.585 9.10961 306.38 5.69892 364.223 3.43048C446.052 0.196761 527.978 -0.736353 609.888 0.598965C701.733 2.06299 793.546 6.43898 885.182 13.6465Z" fill="#FCF7EA"/>
<path opacity="0.19" d="M609.875 0.598738C587.56 75.0548 543.221 222.487 526.711 273.567C443.499 273.776 360.287 276.511 277.188 281.74L364.21 3.43026C446.055 0.180446 527.981 -0.752669 609.875 0.598738Z" fill="#FCF7EA"/>
<path d="M444.034 205.499H414.3V243.867H373.091V205.499H274.766V177.051L360.834 61.1648H405.172L325.364 171.048H374.397V136.857H414.301V171.048H444.035V205.499H444.034Z" fill="#080809"/>
<path d="M800.822 205.499H771.088V243.867H729.88V205.499H631.553V177.051L717.621 61.1648H761.959L682.151 171.047H731.184V136.856H771.088V171.047H800.822V205.499Z" fill="#080809"/>
<path d="M534.794 62.7729C534.794 62.7729 520.898 56.4537 517.194 48.6063C516.385 46.3194 517.453 43.6516 519.342 42.1299C521.229 40.6082 523.766 40.0938 526.188 40.1874C527.291 40.2304 528.427 40.4016 529.363 40.9859C530.3 41.5703 530.997 42.6475 530.86 43.7431C530.628 45.6081 528.347 46.4249 526.468 46.4141C522.169 46.3893 517.954 44.0142 515.705 40.3477C513.455 36.6812 513.245 31.845 515.169 27.9966" stroke="#05A408" stroke-width="28.1895" stroke-miterlimit="10" stroke-linecap="round" stroke-linejoin="round"/>
<path d="M602.998 101.752C596.302 87.5721 587.043 76.7405 575.222 69.2568C563.396 61.7774 549.922 58.0334 534.796 58.0334C519.669 58.0334 506.191 61.7774 494.37 69.2568C482.544 76.7405 473.285 87.5721 466.594 101.752C459.897 115.936 456.553 132.856 456.553 152.517C456.553 172.181 459.898 189.102 466.594 203.282C473.285 217.465 482.544 228.297 494.37 235.776C506.191 243.26 519.668 247 534.796 247C549.923 247 563.396 243.26 575.222 235.776C587.043 228.297 596.302 217.465 602.998 203.282C609.689 189.102 613.039 172.181 613.039 152.517C613.039 132.855 609.689 115.936 602.998 101.752Z" fill="#017D03"/>
<path d="M506.751 69.6656C507.158 67.8953 508.602 64.7583 508.923 62.2314C503.869 63.9942 499.057 66.3069 494.494 69.1813C490.127 76.7382 486.527 85.5283 486.087 87.5235C483.108 101.037 485.302 115.625 492.121 127.665C495.232 133.157 499.366 138.417 500.033 144.695C501.008 153.886 494.361 161.959 491.641 170.792C488.93 179.598 490.188 189.053 490.682 198.256C491.288 209.508 490.693 220.822 488.94 231.954C490.688 233.31 492.492 234.59 494.369 235.777C502.807 241.119 512.094 244.543 522.217 246.071C526.441 211.881 515.019 209.06 513.859 192.259C512.722 175.801 520.371 162.644 519.235 146.186C518.734 138.931 518.208 131.558 515.667 124.745C513.445 118.79 509.758 113.481 507.411 107.575C504.211 99.526 503.688 90.7714 504.571 82.2256C505.009 77.9951 505.798 73.8067 506.751 69.6656Z" fill="#01C204"/>
<path d="M534.593 58.0366C530.046 58.0463 525.647 58.3971 521.398 59.0848C519.392 75.5157 523.397 92.4966 533.499 105.852C539.269 113.481 546.955 120.142 549.637 129.326C552.318 138.503 549.436 148.24 547.737 157.648C542.489 186.696 548.679 216.835 546.899 246.139C556.583 244.736 565.5 241.601 573.654 236.728C566.511 221.045 560.853 199.364 565.329 183.375C568.479 172.123 573.672 161.402 575.388 149.845C577.495 135.666 574.02 120.731 565.873 108.939C544.294 85.6338 536.989 68.2258 534.593 58.0366Z" fill="#01C204"/>
<path d="M603.593 201.963C609.882 188.055 613.039 171.579 613.039 152.517C613.039 132.855 609.689 115.936 602.998 101.752C596.303 87.5721 587.044 76.7405 575.222 69.2569C571.072 66.6321 566.714 64.4776 562.158 62.7729C563.278 73.0439 572.255 89.0357 574.597 93.1585C581.61 105.505 589.834 117.32 594.539 130.718C599.79 145.672 590.239 176.915 603.593 201.963Z" fill="#01C204"/>
<path d="M456.551 152.516C456.551 172.181 459.896 189.102 466.592 203.281C466.736 203.587 466.887 203.881 467.034 204.183C476.202 184.497 481.45 149.452 469.663 117.157C468.733 114.195 467.441 107.315 466.799 101.327C466.731 101.471 466.659 101.608 466.592 101.751C459.896 115.935 456.551 132.855 456.551 152.516Z" fill="#01C204"/>
</svg>
