<svg width="33" height="20" viewBox="0 0 33 20" fill="none" xmlns="http://www.w3.org/2000/svg">
<path d="M0.000139236 0C0.000139236 0 22.9942 0.206634 21.6939 17.2243C19.6306 14.8923 15.5179 10.6711 10.2323 7.43877C10.2323 7.43877 17.8216 14.5676 20.4644 19.7777L20.4079 19.822C20.422 19.8367 5.86524 23.2019 0.000139236 0Z" fill="#017D03"/>
<path d="M33 8.45728C33 8.45728 21.1426 10.0365 22.8103 18.7299C23.743 17.4015 25.6227 14.9514 28.1525 12.9442C28.1525 12.9442 24.6475 17.1063 23.5876 19.9697L23.6158 19.9844C23.63 19.9844 31.3323 20.7962 33 8.45728Z" fill="#017D03"/>
<path d="M26.3442 3.54175C26.3442 3.54175 20.1258 6.656 22.5425 11.0986C22.8252 10.1835 23.4188 8.50093 24.4646 6.92166C24.4646 6.92166 23.2633 9.87356 23.1926 11.6299H23.2209C23.2068 11.6447 27.5738 10.6263 26.3442 3.54175Z" fill="#017D03"/>
</svg>
