<svg width="166" height="51" viewBox="0 0 166 51" fill="none" xmlns="http://www.w3.org/2000/svg">
<path d="M0.963805 12.5463C5.88108 8.03401 11.0522 4.04201 16.6689 0.424566C18.1708 -0.548545 20.001 0.967862 19.0141 2.6016C17.578 4.95292 15.9903 7.0552 14.2461 9.0296C26.192 7.9978 38.2656 7.20594 50.199 8.69801C55.0073 9.31085 60.5377 10.2531 65.7879 11.9362C66.3861 11.33 67.0155 10.7494 67.6837 10.2109C76.7972 2.83914 89.393 2.32795 100.415 4.56691C126.309 9.81191 150.017 27.4018 165.08 48.7419C165.684 49.6005 164.463 50.6257 163.826 49.782C153.025 35.8041 139.957 24.1349 124.209 16.0112C109.854 8.60896 90.6637 1.67697 75.0052 9.01889C72.7978 10.0516 70.6836 11.3795 68.8165 12.9928C73.758 14.9138 78.2637 17.6258 81.4059 21.4866C93.22 36.0002 69.3546 49.4732 61.2484 33.3906C58.0529 27.0356 59.4855 20.1451 63.3954 14.7574C62.4296 14.4583 61.4711 14.1757 60.5036 13.9169C44.1937 9.51598 26.9726 11.0968 10.4092 12.5998C8.92494 12.7322 8.11557 11.1531 8.92009 10.0376C7.85939 10.8916 6.80609 11.762 5.77669 12.6415C10.3019 13.4611 14.3237 15.1415 18.3437 17.8738C20.0749 19.0381 18.1985 21.6867 16.4599 20.5058C11.9046 17.4196 7.34606 15.8219 1.86034 15.375C0.369332 15.2725 -0.0343014 13.4514 0.963805 12.5463ZM74.1138 37.8343C81.0771 36.506 82.6583 31.7496 78.9068 23.5428C76.6538 21.0865 74.0314 19.173 71.0248 17.7694C69.4642 16.9843 67.8107 16.3006 66.1375 15.705C64.9989 17.0897 64.0645 18.6204 63.3822 20.3154C60.5436 27.6005 64.2378 39.2435 74.1138 37.8343Z" fill="#FF9C00"/>
</svg>
