<svg width="66" height="36" viewBox="0 0 66 36" fill="none" xmlns="http://www.w3.org/2000/svg">
<path d="M52.2299 1.58631C54.982 1.347 57.7638 1.60373 60.4073 2.37473C58.788 3.27642 57.4234 4.64187 56.5225 6.10582C54.7268 9.02389 54.2085 12.5322 53.9075 15.5427L53.907 15.5475C53.8838 15.7871 53.8613 16.0245 53.839 16.2597C53.5636 19.1631 53.3197 21.7337 52.2395 24.0603L52.2362 24.0674L52.2329 24.0746C50.9924 26.8215 48.6555 29.0957 45.8941 30.5684L45.8772 30.5775L45.8605 30.5869C44.5394 31.3355 42.5722 31.9966 40.4323 32.5377C39.091 32.8769 37.7255 33.1584 36.4814 33.3813C38.3112 22.8633 44.5544 13.094 53.3611 6.92021L51.9558 4.29418C41.746 8.26964 33.6965 17.2809 30.0904 27.5702C29.1346 22.2357 30.4694 16.4433 33.714 11.973C37.9589 6.12445 44.9599 2.15287 52.2165 1.58741L52.2165 1.58747L52.2299 1.58631Z" stroke="#017D03" stroke-width="3"/>
<path d="M9.52919 15.8336C16.7286 19.4333 22.3249 25.961 24.9499 33.5375C22.6012 33.419 19.8501 33.0989 18.1421 32.4928C15.9451 31.5712 13.9561 30.1475 12.7761 28.3032C11.8677 26.7817 11.4135 24.9981 10.9007 22.9844C10.8198 22.6664 10.7373 22.3427 10.6514 22.0134C10.0592 19.743 9.29546 17.0235 7.55236 14.9317L7.53704 14.9134L7.52114 14.8955C6.7748 14.0558 5.81069 13.2806 4.71814 12.7343C6.38109 12.0738 8.14907 11.692 9.97909 11.5899C15.5677 11.3117 21.2337 13.462 25.0144 17.4271C27.6083 20.1476 29.1774 23.8127 29.3749 27.4708C25.3391 20.498 18.4286 14.9381 10.5525 13.034L9.52919 15.8336Z" stroke="#017D03" stroke-width="3"/>
</svg>
