<svg width="155" height="69" viewBox="0 0 155 69" fill="none" xmlns="http://www.w3.org/2000/svg">
<g clip-path="url(#clip0_1114_315)">
<path d="M21.6055 22.92L27.4708 24.1844L29.0887 16.6794L21.4152 16.923L21.6055 22.92ZM15.7855 25.8L10.9605 22.2337L10.9352 22.2679L10.9103 22.3026L15.7855 25.8ZM14.2255 38.46L8.78849 40.9973L8.82277 41.0708L8.85902 41.1433L14.2255 38.46ZM14.6455 39.42V45.42H20.6455V39.42H14.6455ZM9.78559 38.1L5.81014 42.594L5.90125 42.6746L5.99555 42.7514L9.78559 38.1ZM10.3255 25.86L15.4627 28.96L15.4743 28.9406L15.4859 28.9212L10.3255 25.86ZM16.9855 20.16L14.4444 14.7247L14.4307 14.7311L14.417 14.7376L16.9855 20.16ZM32.5255 18.3L31.7813 24.2537L31.863 24.2639L31.945 24.2718L32.5255 18.3ZM44.0455 18L49.7377 19.8973L53.4941 8.62793L42.1945 12.2927L44.0455 18ZM43.3855 20.4L49.183 21.946L49.1892 21.9226L49.1952 21.8993L43.3855 20.4ZM41.6455 23.52L37.3054 19.3771L37.3007 19.3821L41.6455 23.52ZM38.3455 25.2V31.2H38.9397L39.5222 31.0835L38.3455 25.2ZM29.9455 24.06L31.3158 18.2185L25.342 16.8173L24.0749 22.821L29.9455 24.06ZM27.4255 36L21.5549 34.761L20.027 42H27.4255V36ZM36.1855 36L42.05 37.268L43.6215 30H36.1855V36ZM35.2255 40.44V46.44H40.0669L41.09 41.708L35.2255 40.44ZM26.4655 40.44V34.44H21.6205L20.6001 39.1764L26.4655 40.44ZM21.6055 63V69H26.4506L27.471 64.2636L21.6055 63ZM12.9655 63L7.10032 61.7356L5.53435 69H12.9655V63ZM21.4152 16.923C17.2735 17.0545 13.5332 18.753 10.9605 22.2337L20.6106 29.3663C20.7568 29.1685 20.8555 29.1103 20.9216 29.0776C21.0052 29.0363 21.2539 28.9342 21.7959 28.917L21.4152 16.923ZM10.9103 22.3026C8.42452 25.7677 7.80559 30.6067 7.80559 35.34H19.8055C19.8055 33.3433 19.9538 31.8516 20.1754 30.7843C20.2843 30.2593 20.4012 29.8853 20.5008 29.6327C20.6006 29.3799 20.6673 29.2883 20.6608 29.2974L10.9103 22.3026ZM7.80559 35.34C7.80559 36.8733 7.90098 39.0955 8.78849 40.9973L19.6626 35.9227C19.7863 36.1878 19.8385 36.3776 19.8542 36.439C19.8715 36.5065 19.8678 36.5102 19.8569 36.4295C19.8338 36.2578 19.8055 35.9115 19.8055 35.34H7.80559ZM8.85902 41.1433C8.91695 41.2591 8.96144 41.3502 8.99445 41.4194C9.01075 41.4535 9.02297 41.4797 9.03167 41.4985C9.04053 41.5178 9.04414 41.5261 9.04364 41.5249C9.04351 41.5246 9.03579 41.507 9.02307 41.4755C9.0114 41.4466 8.98665 41.3842 8.95619 41.2971C8.92956 41.221 8.87359 41.0556 8.81817 40.834C8.78966 40.7199 8.75139 40.5519 8.71846 40.3449C8.68764 40.1511 8.64559 39.8262 8.64559 39.42H20.6455C20.6455 38.6759 20.5044 38.1016 20.4598 37.9235C20.3957 37.6669 20.3266 37.459 20.2824 37.3329C20.1934 37.0784 20.0998 36.8575 20.0375 36.7151C19.9064 36.4154 19.7482 36.0889 19.5921 35.7767L8.85902 41.1433ZM14.6455 33.42C13.9533 33.42 13.5585 33.3474 13.3832 33.2998C13.2209 33.2557 13.345 33.2607 13.5756 33.4486L5.99555 42.7514C8.59581 44.8701 11.8249 45.42 14.6455 45.42V33.42ZM13.761 33.606C13.9269 33.7528 14.0547 33.9087 14.1461 34.0504C14.2352 34.1887 14.2737 34.2885 14.2846 34.3197C14.2945 34.3485 14.2786 34.3118 14.2607 34.1888C14.2428 34.0655 14.2255 33.8732 14.2255 33.6H2.22559C2.22559 36.5359 2.95336 40.0668 5.81014 42.594L13.761 33.606ZM14.2255 33.6C14.2255 31.7977 14.6549 30.2986 15.4627 28.96L5.18846 22.76C3.19623 26.0614 2.22559 29.7223 2.22559 33.6H14.2255ZM15.4859 28.9212C16.1508 27.8004 17.3477 26.6275 19.5541 25.5824L14.417 14.7376C10.5434 16.5724 7.30037 19.1996 5.16526 22.7988L15.4859 28.9212ZM19.5267 25.5953C21.565 24.6423 24.5238 24 28.6855 24V12C23.4073 12 18.5661 12.7976 14.4444 14.7247L19.5267 25.5953ZM28.6855 24C29.2863 24 30.2867 24.0668 31.7813 24.2537L33.2698 12.3463C31.5644 12.1332 30.0048 12 28.6855 12V24ZM31.945 24.2718C34.8249 24.5518 37.1242 24.72 38.6455 24.72V12.72C37.7669 12.72 35.9862 12.6082 33.1061 12.3282L31.945 24.2718ZM38.6455 24.72C41.1825 24.72 43.6462 24.4372 45.8966 23.7073L42.1945 12.2927C41.4849 12.5228 40.3486 12.72 38.6455 12.72V24.72ZM38.3534 16.1027C38.155 16.6979 37.8827 17.7118 37.5759 18.9007L49.1952 21.8993C49.351 21.2954 49.4774 20.8188 49.5758 20.4609C49.6249 20.2823 49.6642 20.1437 49.6946 20.0401C49.727 19.9296 49.7402 19.8897 49.7377 19.8973L38.3534 16.1027ZM37.5881 18.854C37.5223 19.1009 37.4342 19.2423 37.3054 19.3771L45.9857 27.6629C47.5369 26.0377 48.6088 24.0991 49.183 21.946L37.5881 18.854ZM37.3007 19.3821C37.3461 19.3345 37.3909 19.296 37.4301 19.2672C37.4688 19.2386 37.4941 19.2252 37.4985 19.223C37.506 19.2192 37.4137 19.2675 37.1689 19.3165L39.5222 31.0835C41.8498 30.618 44.1597 29.5802 45.9904 27.6579L37.3007 19.3821ZM38.3455 19.2C36.5919 19.2 34.2741 18.9125 31.3158 18.2185L28.5753 29.9014C32.097 30.7275 35.3792 31.2 38.3455 31.2V19.2ZM24.0749 22.821L21.5549 34.761L33.2962 37.239L35.8162 25.299L24.0749 22.821ZM27.4255 42H36.1855V30H27.4255V42ZM30.3211 34.732L29.3611 39.172L41.09 41.708L42.05 37.268L30.3211 34.732ZM35.2255 34.44H26.4655V46.44H35.2255V34.44ZM20.6001 39.1764L15.7401 61.7364L27.471 64.2636L32.331 41.7036L20.6001 39.1764ZM21.6055 57H12.9655V69H21.6055V57ZM18.8308 64.2644L27.4708 24.1844L15.7403 21.6556L7.10032 61.7356L18.8308 64.2644ZM39.3046 33V27H34.4433L33.4351 31.7557L39.3046 33ZM47.9446 33L53.8169 34.2313L55.3332 27H47.9446V33ZM47.1646 36.72L41.2923 35.4887L37.5838 53.1754L51.1343 41.219L47.1646 36.72ZM50.8246 33.96L47.8478 28.7505L47.8066 28.7741L47.7658 28.7982L50.8246 33.96ZM57.4246 34.32L52.7809 38.1194L52.8315 38.1813L52.8837 38.2417L57.4246 34.32ZM52.4446 41.28L47.3826 44.5013L47.5568 44.7749L47.7594 45.0282L52.4446 41.28ZM51.7846 39.42L57.6681 38.2433L57.6508 38.1568L57.631 38.0708L51.7846 39.42ZM48.6046 38.46L51.5814 43.6695L51.6369 43.6378L51.6916 43.605L48.6046 38.46ZM46.3846 40.2L42.339 35.7691L40.9115 37.0724L40.5133 38.9639L46.3846 40.2ZM41.5846 63V69H46.453L47.4559 64.2361L41.5846 63ZM32.9446 63L27.0751 61.7557L25.5393 69H32.9446V63ZM39.3046 39H47.9446V27H39.3046V39ZM42.0723 31.7687L41.2923 35.4887L53.0369 37.9513L53.8169 34.2313L42.0723 31.7687ZM51.1343 41.219C52.3249 40.1685 53.235 39.506 53.8834 39.1217L47.7658 28.7982C46.2543 29.694 44.7243 30.8715 43.1949 32.221L51.1343 41.219ZM53.8014 39.1695C54.0223 39.0433 54.1973 39 54.4246 39V27C52.0919 27 49.867 27.5967 47.8478 28.7505L53.8014 39.1695ZM54.4246 39C54.3738 39 54.0991 38.9895 53.7182 38.8219C53.3171 38.6454 52.9944 38.3804 52.7809 38.1194L62.0684 30.5206C60.0563 28.0614 57.2488 27 54.4246 27V39ZM52.8837 38.2417C52.7971 38.1414 52.6989 37.9875 52.6316 37.7998C52.6005 37.713 52.5829 37.6382 52.5736 37.5818C52.5644 37.5262 52.5646 37.497 52.5646 37.5H64.5646C64.5646 34.9238 63.7324 32.4441 61.9655 30.3983L52.8837 38.2417ZM52.5646 37.5C52.5646 37.4122 52.5815 37.2435 52.6571 37.0403C52.7327 36.8374 52.8294 36.7011 52.8837 36.6383L61.9655 44.4817C63.6643 42.5148 64.5646 40.1037 64.5646 37.5H52.5646ZM52.8837 36.6383C53.106 36.3809 53.4149 36.1514 53.7593 36.0084C54.0802 35.8753 54.2786 35.88 54.2446 35.88V47.88C57.0214 47.88 59.8682 46.9102 61.9655 44.4817L52.8837 36.6383ZM54.2446 35.88C54.2474 35.88 54.3173 35.8799 54.4406 35.8965C54.5628 35.9131 54.7692 35.9503 55.032 36.0379C55.571 36.2176 56.4143 36.6374 57.1298 37.5318L47.7594 45.0282C49.8245 47.6095 52.8068 47.88 54.2446 47.88V35.88ZM57.5066 38.0587C57.5872 38.1855 57.6403 38.2885 57.6725 38.3565C57.7047 38.4248 57.7204 38.4679 57.7242 38.4785C57.7298 38.4944 57.7045 38.4255 57.6681 38.2433L45.9011 40.5967C46.1336 41.7593 46.5452 43.1853 47.3826 44.5013L57.5066 38.0587ZM57.631 38.0708C57.4874 37.4486 57.2415 36.4975 56.7912 35.5967L46.058 40.9633C45.9866 40.8204 45.942 40.711 45.9192 40.6522C45.8955 40.5909 45.8841 40.5549 45.8831 40.5518C45.8818 40.5475 45.8868 40.5631 45.8972 40.6022C45.9075 40.6408 45.9213 40.6958 45.9383 40.7692L57.631 38.0708ZM56.7912 35.5967C56.2242 34.4627 55.3057 33.4315 54.0427 32.7426C52.8404 32.0868 51.657 31.92 50.7646 31.92V43.92C50.1922 43.92 49.2789 43.8132 48.2965 43.2774C47.2535 42.7085 46.505 41.8573 46.058 40.9633L56.7912 35.5967ZM50.7646 31.92C49.0561 31.92 47.2215 32.2927 45.5176 33.315L51.6916 43.605C51.1877 43.9073 50.7931 43.92 50.7646 43.92V31.92ZM45.6278 33.2505C44.477 33.9081 43.343 34.8524 42.339 35.7691L50.4302 44.6309C50.8124 44.282 51.1101 44.0304 51.3309 43.8573C51.5653 43.6736 51.6402 43.6359 51.5814 43.6695L45.6278 33.2505ZM40.5133 38.9639L35.7133 61.7639L47.4559 64.2361L52.2559 41.4361L40.5133 38.9639ZM41.5846 57H32.9446V69H41.5846V57ZM38.8142 64.2443L45.1742 34.2443L33.4351 31.7557L27.0751 61.7557L38.8142 64.2443ZM59.0432 61.56L54.7293 65.7301L54.7646 65.7667L54.8006 65.8026L59.0432 61.56ZM57.7832 52.26L51.9135 51.0166L51.9064 51.0499L51.8997 51.0833L57.7832 52.26ZM61.8632 33V27H57.0011L55.9935 31.7566L61.8632 33ZM70.5032 33L76.373 34.243L77.9068 27H70.5032V33ZM66.1832 53.4L60.3134 52.157L60.3064 52.1901L60.2997 52.2233L66.1832 53.4ZM70.6832 56.16L75.2108 60.0971L75.2522 60.0495L75.2925 60.0011L70.6832 56.16ZM72.6032 52.26L78.3616 53.9454L78.4257 53.7265L78.4729 53.5034L72.6032 52.26ZM76.6832 33V27H71.8211L70.8135 31.7566L76.6832 33ZM85.3232 33L91.193 34.243L92.7269 27H85.3232V33ZM81.0032 53.4L86.8006 54.946L86.8408 54.7954L86.873 54.643L81.0032 53.4ZM81.3032 57.06L77.0606 61.3026L77.2955 61.5376L77.555 61.7452L81.3032 57.06ZM86.1032 56.1L81.5877 52.149L81.5401 52.2034L81.4939 52.2589L86.1032 56.1ZM88.0832 52.26V46.26H83.619L82.3362 50.5359L88.0832 52.26ZM90.6032 52.26L96.2793 54.2046L99.0011 46.26H90.6032V52.26ZM85.0832 61.08L88.5362 65.9868L88.545 65.9806L88.5538 65.9744L85.0832 61.08ZM74.4032 61.92L70.248 66.2483L70.2904 66.289L70.3335 66.3288L74.4032 61.92ZM72.6032 57.66L78.5695 57.0253L76.7155 39.5971L67.4996 54.5051L72.6032 57.66ZM68.2832 62.16L65.4887 56.8505L65.4593 56.866L65.4301 56.8818L68.2832 62.16ZM63.7232 57.36C63.5555 57.36 63.4407 57.3469 63.3701 57.3347C63.3009 57.3228 63.2701 57.3111 63.2671 57.3099C63.2651 57.3092 63.2749 57.3131 63.2883 57.3218C63.3015 57.3305 63.301 57.3325 63.2858 57.3174L54.8006 65.8026C57.2772 68.2793 60.4397 69.36 63.7232 69.36V57.36ZM63.3571 57.3899C63.495 57.5325 63.4953 57.6135 63.4491 57.4698C63.3942 57.2995 63.3032 56.8951 63.3032 56.16H51.3032C51.3032 59.4349 52.0922 63.0022 54.7293 65.7301L63.3571 57.3899ZM63.3032 56.16C63.3032 55.7232 63.3822 54.859 63.6667 53.4367L51.8997 51.0833C51.5442 52.861 51.3032 54.5968 51.3032 56.16H63.3032ZM63.6529 53.5034L67.7329 34.2434L55.9935 31.7566L51.9135 51.0166L63.6529 53.5034ZM61.8632 39H70.5032V27H61.8632V39ZM64.6334 31.757L60.3134 52.157L72.053 54.643L76.373 34.243L64.6334 31.757ZM60.2997 52.2233C60.1154 53.1448 60.0032 54.1029 60.0032 55.08H72.0032C72.0032 55.0171 72.011 54.8552 72.0667 54.5767L60.2997 52.2233ZM60.0032 55.08C60.0032 56.4543 60.2229 58.571 61.611 60.4681C63.2546 62.7143 65.6828 63.54 67.8032 63.54V51.54C68.1819 51.54 68.7988 51.6053 69.5031 51.9261C70.2408 52.2622 70.8552 52.7803 71.2954 53.3819C72.0835 54.459 72.0032 55.3457 72.0032 55.08H60.0032ZM67.8032 63.54C70.826 63.54 73.3851 62.1967 75.2108 60.0971L66.1556 52.2229C66.2155 52.154 66.4119 51.9559 66.7705 51.7841C67.1419 51.6061 67.5137 51.54 67.8032 51.54V63.54ZM75.2925 60.0011C76.775 58.2222 77.7303 56.1026 78.3616 53.9454L66.8448 50.5746C66.5162 51.6974 66.1914 52.1778 66.0739 52.3189L75.2925 60.0011ZM78.4729 53.5034L82.5529 34.2434L70.8135 31.7566L66.7335 51.0166L78.4729 53.5034ZM76.6832 39H85.3232V27H76.6832V39ZM79.4534 31.757L75.1334 52.157L86.873 54.643L91.193 34.243L79.4534 31.757ZM75.2058 51.854C74.8992 53.0036 74.7632 54.1671 74.7632 55.32H86.7632C86.7632 55.1129 86.7872 54.9964 86.8006 54.946L75.2058 51.854ZM74.7632 55.32C74.7632 56.8297 75.0764 59.3185 77.0606 61.3026L85.5458 52.8174C86.1754 53.4469 86.4854 54.1151 86.6286 54.5766C86.7637 55.0119 86.7632 55.2965 86.7632 55.32H74.7632ZM77.555 61.7452C79.5492 63.3405 81.866 63.54 83.2232 63.54V51.54C83.1217 51.54 83.2546 51.5282 83.5384 51.5991C83.8237 51.6705 84.4131 51.8642 85.0514 52.3748L77.555 61.7452ZM83.2232 63.54C86.344 63.54 88.9214 62.0905 90.7125 59.9411L81.4939 52.2589C81.5376 52.2065 81.7279 51.9994 82.0999 51.8134C82.4896 51.6186 82.8935 51.54 83.2232 51.54V63.54ZM90.6187 60.051C92.1699 58.2782 93.1766 56.1627 93.8302 53.9841L82.3362 50.5359C82.0298 51.5573 81.7165 52.0018 81.5877 52.149L90.6187 60.051ZM88.0832 58.26H90.6032V46.26H88.0832V58.26ZM84.9271 50.3154C83.6005 54.1875 82.292 55.7039 81.6126 56.1856L88.5538 65.9744C92.2744 63.3361 94.6459 58.9725 96.2793 54.2046L84.9271 50.3154ZM81.6302 56.1732C80.2742 57.1274 79.2761 57.36 78.5432 57.36V69.36C82.2103 69.36 85.5722 68.0726 88.5362 65.9868L81.6302 56.1732ZM78.5432 57.36C78.2382 57.36 78.1445 57.3174 78.1893 57.333C78.2119 57.3409 78.2572 57.3594 78.3151 57.3938C78.3734 57.4285 78.4276 57.4694 78.4729 57.5112L70.3335 66.3288C72.7098 68.5223 75.6568 69.36 78.5432 69.36V57.36ZM78.5584 57.5917C78.7089 57.7361 78.7486 57.8435 78.7301 57.7997C78.7041 57.7383 78.6208 57.5071 78.5695 57.0253L66.6369 58.2947C66.9321 61.0694 67.9099 64.0037 70.248 66.2483L78.5584 57.5917ZM67.4996 54.5051C66.4392 56.2205 65.6977 56.7405 65.4887 56.8505L71.0777 67.4695C73.9087 65.9795 76.0472 63.4995 77.7068 60.8149L67.4996 54.5051ZM65.4301 56.8818C64.7559 57.2462 64.2097 57.36 63.7232 57.36V69.36C66.3567 69.36 68.8506 68.6738 71.1363 67.4382L65.4301 56.8818ZM89.3362 61.56L85.0222 65.7301L85.0576 65.7667L85.0935 65.8026L89.3362 61.56ZM88.0762 52.26L82.2084 51.0071L82.2003 51.0452L82.1927 51.0833L88.0762 52.26ZM91.6762 35.4L97.5439 36.6529L99.0926 29.4H91.6762V35.4ZM89.6962 35.4L83.8127 34.2233L82.3773 41.4H89.6962V35.4ZM90.1762 33V27H85.2573L84.2927 31.8233L90.1762 33ZM92.1562 33V39H96.992L98.0192 34.2746L92.1562 33ZM93.9562 24.72L93.1527 18.774L88.9862 19.3371L88.0931 23.4454L93.9562 24.72ZM102.836 23.52L108.702 24.7822L110.499 16.4299L102.033 17.574L102.836 23.52ZM100.796 33L94.9304 31.7378L93.3677 39H100.796V33ZM104.396 33L110.28 34.1767L111.715 27H104.396V33ZM103.916 35.4V41.4H108.835L109.8 36.5767L103.916 35.4ZM100.316 35.4V29.4H95.4612L94.4482 34.1482L100.316 35.4ZM96.4762 53.4L102.274 54.946L102.313 54.7998L102.344 54.6518L96.4762 53.4ZM96.7762 57.06L92.5335 61.3026L92.7685 61.5376L93.028 61.7452L96.7762 57.06ZM101.936 56.1L106.091 60.4283L106.136 60.3859L106.179 60.3426L101.936 56.1ZM104.096 52.26V46.26H99.5544L98.3215 50.6312L104.096 52.26ZM106.616 52.26L112.292 54.2046L115.014 46.26H106.616V52.26ZM100.916 61.08L104.204 66.0988L104.234 66.0791L104.264 66.0591L100.916 61.08ZM94.0162 57.36C93.8485 57.36 93.7336 57.3469 93.6631 57.3347C93.5939 57.3228 93.5631 57.3111 93.56 57.3099C93.558 57.3092 93.5678 57.3131 93.5813 57.3218C93.5945 57.3305 93.5939 57.3325 93.5788 57.3174L85.0935 65.8026C87.5702 68.2793 90.7327 69.36 94.0162 69.36V57.36ZM93.6501 57.3899C93.7879 57.5325 93.7883 57.6135 93.742 57.4698C93.6871 57.2995 93.5962 56.8951 93.5962 56.16H81.5962C81.5962 59.4349 82.3852 63.0022 85.0222 65.7301L93.6501 57.3899ZM93.5962 56.16C93.5962 55.7232 93.6752 54.859 93.9597 53.4367L82.1927 51.0833C81.8372 52.861 81.5962 54.5968 81.5962 56.16H93.5962ZM93.9439 53.5129L97.5439 36.6529L85.8084 34.1471L82.2084 51.0071L93.9439 53.5129ZM91.6762 29.4H89.6962V41.4H91.6762V29.4ZM95.5797 36.5767L96.0597 34.1767L84.2927 31.8233L83.8127 34.2233L95.5797 36.5767ZM90.1762 39H92.1562V27H90.1762V39ZM98.0192 34.2746L99.8192 25.9946L88.0931 23.4454L86.2931 31.7254L98.0192 34.2746ZM94.7597 30.666L103.64 29.466L102.033 17.574L93.1527 18.774L94.7597 30.666ZM96.9704 22.2578L94.9304 31.7378L106.662 34.2622L108.702 24.7822L96.9704 22.2578ZM100.796 39H104.396V27H100.796V39ZM98.5127 31.8233L98.0327 34.2233L109.8 36.5767L110.28 34.1767L98.5127 31.8233ZM103.916 29.4H100.316V41.4H103.916V29.4ZM94.4482 34.1482L90.6082 52.1482L102.344 54.6518L106.184 36.6518L94.4482 34.1482ZM90.6788 51.854C90.3722 53.0036 90.2362 54.1671 90.2362 55.32H102.236C102.236 55.1129 102.26 54.9963 102.274 54.946L90.6788 51.854ZM90.2362 55.32C90.2362 56.8297 90.5494 59.3185 92.5335 61.3026L101.019 52.8174C101.648 53.4469 101.958 54.1151 102.102 54.5766C102.237 55.0119 102.236 55.2965 102.236 55.32H90.2362ZM93.028 61.7452C95.0222 63.3405 97.339 63.54 98.6962 63.54V51.54C98.5946 51.54 98.7276 51.5282 99.0114 51.5991C99.2967 51.6705 99.8861 51.8642 100.524 52.3748L93.028 61.7452ZM98.6962 63.54C101.699 63.54 104.206 62.2382 106.091 60.4283L97.781 51.7717C97.6977 51.8517 97.7447 51.7836 97.9393 51.6971C98.1516 51.6028 98.4205 51.54 98.6962 51.54V63.54ZM106.179 60.3426C108.005 58.5164 109.193 56.2906 109.871 53.8888L98.3215 50.6312C98.1189 51.3494 97.8673 51.6836 97.6935 51.8574L106.179 60.3426ZM104.096 58.26H106.616V46.26H104.096V58.26ZM100.94 50.3154C99.6373 54.118 98.3051 55.6055 97.5682 56.1009L104.264 66.0591C108.167 63.4345 110.635 59.042 112.292 54.2046L100.94 50.3154ZM97.628 56.0612C96.0718 57.0808 94.8966 57.36 94.0162 57.36V69.36C97.6957 69.36 101.121 68.1192 104.204 66.0988L97.628 56.0612ZM110.732 21.66L114.975 25.9026L115.02 25.8575L115.064 25.8114L110.732 21.66ZM117.452 21.66L113.12 25.8114L113.209 25.9036L113.301 25.9919L117.452 21.66ZM117.452 28.38L113.301 24.0481L113.255 24.0922L113.21 24.1374L117.452 28.38ZM105.332 61.56L101.018 65.7301L101.054 65.7667L101.09 65.8026L105.332 61.56ZM104.072 52.26L98.2025 51.0166L98.1955 51.0499L98.1888 51.0833L104.072 52.26ZM108.152 33V27H103.29L102.283 31.7566L108.152 33ZM116.792 33L122.662 34.243L124.196 27H116.792V33ZM112.472 53.4L118.27 54.946L118.31 54.7954L118.342 54.643L112.472 53.4ZM112.772 57.06L108.53 61.3026L108.765 61.5376L109.024 61.7452L112.772 57.06ZM117.932 56.1L122.087 60.4283L122.132 60.3859L122.175 60.3426L117.932 56.1ZM120.092 52.26V46.26H115.55L114.318 50.6312L120.092 52.26ZM122.612 52.26L128.288 54.2046L131.01 46.26H122.612V52.26ZM116.912 61.08L120.2 66.0988L120.23 66.0791L120.26 66.0591L116.912 61.08ZM114.092 23.76C114.143 23.76 114.316 23.772 114.542 23.8649C114.77 23.9585 114.916 24.0783 114.975 24.1374L106.49 32.6226C108.553 34.6861 111.207 35.76 114.092 35.76V23.76ZM114.975 24.1374C115.034 24.1965 115.154 24.3426 115.247 24.5705C115.34 24.7966 115.352 24.9691 115.352 25.02H103.352C103.352 27.9053 104.426 30.5592 106.49 32.6226L114.975 24.1374ZM115.352 25.02C115.352 25.0709 115.34 25.2434 115.247 25.4695C115.154 25.6974 115.034 25.8435 114.975 25.9026L106.49 17.4174C104.426 19.4808 103.352 22.1347 103.352 25.02H115.352ZM115.064 25.8114C115.018 25.8601 114.872 25.9893 114.626 26.0949C114.379 26.2008 114.176 26.22 114.092 26.22V14.22C111.123 14.22 108.443 15.3775 106.4 17.5086L115.064 25.8114ZM114.092 26.22C114.008 26.22 113.806 26.2008 113.559 26.0949C113.312 25.9893 113.167 25.8601 113.12 25.8114L121.784 17.5086C119.742 15.3775 117.061 14.22 114.092 14.22V26.22ZM113.301 25.9919C113.252 25.9453 113.123 25.7998 113.017 25.5535C112.911 25.3063 112.892 25.1042 112.892 25.02H124.892C124.892 22.0509 123.735 19.3704 121.604 17.3281L113.301 25.9919ZM112.892 25.02C112.892 24.9358 112.911 24.7337 113.017 24.4865C113.123 24.2402 113.252 24.0947 113.301 24.0481L121.604 32.7119C123.735 30.6696 124.892 27.9891 124.892 25.02H112.892ZM113.21 24.1374C113.269 24.0783 113.415 23.9585 113.643 23.8649C113.869 23.772 114.041 23.76 114.092 23.76V35.76C116.978 35.76 119.631 34.6861 121.695 32.6226L113.21 24.1374ZM110.012 57.36C109.845 57.36 109.73 57.3469 109.659 57.3347C109.59 57.3228 109.559 57.3111 109.556 57.3099C109.554 57.3092 109.564 57.3131 109.577 57.3218C109.591 57.3305 109.59 57.3325 109.575 57.3174L101.09 65.8026C103.566 68.2793 106.729 69.36 110.012 69.36V57.36ZM109.646 57.3899C109.784 57.5325 109.784 57.6135 109.738 57.4698C109.683 57.2995 109.592 56.8951 109.592 56.16H97.5923C97.5923 59.4349 98.3813 63.0022 101.018 65.7301L109.646 57.3899ZM109.592 56.16C109.592 55.7232 109.671 54.859 109.956 53.4367L98.1888 51.0833C97.8333 52.861 97.5923 54.5968 97.5923 56.16H109.592ZM109.942 53.5034L114.022 34.2434L102.283 31.7566L98.2025 51.0166L109.942 53.5034ZM108.152 39H116.792V27H108.152V39ZM110.922 31.757L106.602 52.157L118.342 54.643L122.662 34.243L110.922 31.757ZM106.675 51.854C106.368 53.0036 106.232 54.1671 106.232 55.32H118.232C118.232 55.1129 118.256 54.9963 118.27 54.946L106.675 51.854ZM106.232 55.32C106.232 56.8297 106.545 59.3185 108.53 61.3026L117.015 52.8174C117.644 53.4469 117.954 54.1151 118.098 54.5766C118.233 55.0119 118.232 55.2965 118.232 55.32H106.232ZM109.024 61.7452C111.018 63.3405 113.335 63.54 114.692 63.54V51.54C114.591 51.54 114.724 51.5282 115.007 51.5991C115.293 51.6705 115.882 51.8642 116.52 52.3748L109.024 61.7452ZM114.692 63.54C117.696 63.54 120.202 62.2382 122.087 60.4283L113.777 51.7717C113.694 51.8517 113.741 51.7836 113.935 51.6971C114.148 51.6028 114.417 51.54 114.692 51.54V63.54ZM122.175 60.3426C124.001 58.5164 125.19 56.2906 125.867 53.8888L114.318 50.6312C114.115 51.3494 113.863 51.6836 113.69 51.8574L122.175 60.3426ZM120.092 58.26H122.612V46.26H120.092V58.26ZM116.936 50.3154C115.633 54.118 114.301 55.6055 113.564 56.1009L120.26 66.0591C124.163 63.4345 126.631 59.042 128.288 54.2046L116.936 50.3154ZM113.624 56.0612C112.068 57.0808 110.893 57.36 110.012 57.36V69.36C113.692 69.36 117.117 68.1192 120.2 66.0988L113.624 56.0612ZM134.948 53.76L140.84 54.8931L140.844 54.8728L140.848 54.8525L134.948 53.76ZM135.548 50.64L129.714 49.2398L129.687 49.3511L129.665 49.4633L135.548 50.64ZM136.028 48.72L141.798 50.3683L141.842 50.2137L141.878 50.057L136.028 48.72ZM132.428 39.78L137.114 43.5282L137.149 43.4836L137.184 43.4383L132.428 39.78ZM130.508 43.74L124.75 42.0546L124.686 42.2735L124.639 42.4966L130.508 43.74ZM126.428 63V69H131.29L132.298 64.2434L126.428 63ZM117.788 63L111.919 61.7557L110.383 69H117.788V63ZM124.148 33V27H119.287L118.279 31.7557L124.148 33ZM132.788 33L138.658 34.2418L140.19 27H132.788V33ZM132.128 36.12L126.258 34.8782L121.594 56.9272L136.604 40.1161L132.128 36.12ZM145.388 43.44L151.272 44.6167L151.275 44.601L151.278 44.5852L145.388 43.44ZM144.188 48.6L149.998 50.0993L150 50.0906L150.002 50.082L144.188 48.6ZM143.288 52.26L137.445 50.8966L137.428 50.9703L137.413 51.0444L143.288 52.26ZM147.308 57.18L153.267 57.881L154.784 44.9848L143.98 52.1877L147.308 57.18ZM145.088 61.8L141.233 57.2029L141.195 57.2341L141.159 57.2659L145.088 61.8ZM140.708 57.36C140.233 57.36 140.137 57.286 140.266 57.3394C140.336 57.3684 140.446 57.425 140.572 57.5214C140.698 57.6188 140.806 57.7302 140.888 57.84L131.288 65.04C133.73 68.2949 137.367 69.36 140.708 69.36V57.36ZM140.888 57.84C140.869 57.8144 140.648 57.5402 140.648 56.58H128.648C128.648 59.5398 129.388 62.5056 131.288 65.04L140.888 57.84ZM140.648 56.58C140.648 56.2035 140.695 55.6514 140.84 54.8931L129.056 52.6269C128.802 53.9486 128.648 55.2765 128.648 56.58H140.648ZM140.848 54.8525C141.043 53.7985 141.238 52.7866 141.432 51.8167L129.665 49.4633C129.459 50.4934 129.253 51.5615 129.049 52.6675L140.848 54.8525ZM141.383 52.0402C141.5 51.5497 141.596 51.1598 141.669 50.8652C141.706 50.7181 141.736 50.6014 141.759 50.512C141.771 50.4677 141.78 50.4332 141.787 50.4073C141.79 50.3946 141.793 50.3849 141.795 50.378C141.797 50.371 141.798 50.368 141.798 50.3683L130.259 47.0717C130.137 47.5001 129.945 48.2755 129.714 49.2398L141.383 52.0402ZM141.878 50.057C142.207 48.6161 142.516 47.1938 142.805 45.7899L131.052 43.3701C130.781 44.6862 130.49 46.0239 130.179 47.383L141.878 50.057ZM142.805 45.7899C143.121 44.2536 143.348 42.7032 143.348 41.28H131.348C131.348 41.5368 131.295 42.1864 131.052 43.3701L142.805 45.7899ZM143.348 41.28C143.348 39.737 143.109 37.5067 141.71 35.5249C140.041 33.1604 137.514 32.22 135.188 32.22V44.22C134.842 44.22 134.25 44.1573 133.571 43.8367C132.862 43.5016 132.296 42.9963 131.907 42.4451C131.228 41.4833 131.348 40.783 131.348 41.28H143.348ZM135.188 32.22C131.808 32.22 129.281 34.0304 127.673 36.1217L137.184 43.4383C137.209 43.4063 137.058 43.6146 136.671 43.8334C136.245 44.0739 135.72 44.22 135.188 44.22V32.22ZM127.743 36.0318C126.321 37.81 125.38 39.9008 124.75 42.0546L136.267 45.4254C136.596 44.2992 136.936 43.75 137.114 43.5282L127.743 36.0318ZM124.639 42.4966L120.559 61.7566L132.298 64.2434L136.378 44.9834L124.639 42.4966ZM126.428 57H117.788V69H126.428V57ZM123.658 64.2443L130.018 34.2443L118.279 31.7557L111.919 61.7557L123.658 64.2443ZM124.148 39H132.788V27H124.148V39ZM126.918 31.7582L126.258 34.8782L137.998 37.3618L138.658 34.2418L126.918 31.7582ZM136.604 40.1161C137.618 38.98 138.394 38.76 139.148 38.76V26.76C134.543 26.76 130.638 28.78 127.653 32.1239L136.604 40.1161ZM139.148 38.76C139.625 38.76 139.861 38.8257 139.933 38.8507C139.986 38.8689 139.955 38.8643 139.914 38.8263L148.102 30.0537C145.538 27.6601 142.322 26.76 139.148 26.76V38.76ZM139.914 38.8263C139.839 38.7558 139.779 38.6813 139.738 38.617C139.699 38.5547 139.691 38.5257 139.7 38.5519C139.723 38.6162 139.808 38.9082 139.808 39.54H151.808C151.808 36.2626 150.932 32.6943 148.102 30.0537L139.914 38.8263ZM139.808 39.54C139.808 40.2304 139.724 41.1381 139.499 42.2948L151.278 44.5852C151.613 42.8619 151.808 41.1696 151.808 39.54H139.808ZM139.505 42.2633C139.252 43.5254 138.879 45.1366 138.374 47.118L150.002 50.082C150.537 47.9834 150.964 46.1546 151.272 44.6167L139.505 42.2633ZM138.379 47.1007C138.047 48.3841 137.736 49.6495 137.445 50.8966L149.131 53.6234C149.4 52.4705 149.689 51.2959 149.998 50.0993L138.379 47.1007ZM137.413 51.0444C137.141 52.3567 136.928 53.7391 136.928 55.02H148.928C148.928 55.0234 148.928 54.9901 148.934 54.9137C148.94 54.8384 148.95 54.7336 148.968 54.596C149.004 54.3171 149.066 53.9476 149.164 53.4756L137.413 51.0444ZM136.928 55.02C136.928 56.6498 137.291 58.8047 138.825 60.6794L148.112 53.0806C148.926 54.0753 148.928 54.9902 148.928 55.02H136.928ZM138.825 60.6794C140.832 63.1324 143.643 63.54 145.328 63.54V51.54C145.356 51.54 145.699 51.5392 146.21 51.7204C146.767 51.9181 147.496 52.3273 148.112 53.0806L138.825 60.6794ZM145.328 63.54C146.029 63.54 146.817 63.4985 147.617 63.3532C148.355 63.2189 149.504 62.9271 150.637 62.1723L143.98 52.1877C144.393 51.9128 144.754 51.761 144.985 51.6796C145.22 51.5967 145.392 51.5609 145.47 51.5468C145.609 51.5215 145.588 51.54 145.328 51.54V63.54ZM141.349 56.479C141.292 56.9694 141.197 57.201 141.165 57.2663C141.144 57.3111 141.163 57.2614 141.233 57.2029L148.944 66.3971C151.648 64.1293 152.899 61.0144 153.267 57.881L141.349 56.479ZM141.159 57.2659C141.128 57.2923 141.11 57.3033 141.104 57.3069C141.098 57.3103 141.092 57.3136 141.08 57.3178C141.063 57.3238 140.957 57.36 140.708 57.36V69.36C143.742 69.36 146.633 68.4012 149.018 66.3341L141.159 57.2659Z" fill="#017D03"/>
<path d="M21.6055 22.92C19.0855 23 17.1455 23.96 15.7855 25.8C14.4655 27.64 13.8055 30.82 13.8055 35.34C13.8055 36.82 13.9455 37.86 14.2255 38.46C14.5055 39.02 14.6455 39.34 14.6455 39.42C12.4855 39.42 10.8655 38.98 9.78559 38.1C8.74559 37.18 8.22559 35.68 8.22559 33.6C8.22559 30.76 8.92559 28.18 10.3255 25.86C11.7255 23.5 13.9455 21.6 16.9855 20.16C20.0655 18.72 23.9655 18 28.6855 18C29.6455 18 30.9255 18.1 32.5255 18.3C35.4055 18.58 37.4455 18.72 38.6455 18.72C40.7655 18.72 42.5655 18.48 44.0455 18C43.9255 18.36 43.7055 19.16 43.3855 20.4C43.0655 21.6 42.4855 22.64 41.6455 23.52C40.8455 24.36 39.7455 24.92 38.3455 25.2C35.9855 25.2 33.1855 24.82 29.9455 24.06L27.4255 36H36.1855L35.2255 40.44H26.4655L21.6055 63H12.9655L21.6055 22.92ZM39.3046 33H47.9446L47.1646 36.72C48.5246 35.52 49.7446 34.6 50.8246 33.96C51.9446 33.32 53.1446 33 54.4246 33C55.7046 33 56.7046 33.44 57.4246 34.32C58.1846 35.2 58.5646 36.26 58.5646 37.5C58.5646 38.66 58.1846 39.68 57.4246 40.56C56.6646 41.44 55.6046 41.88 54.2446 41.88C53.3646 41.88 52.7646 41.68 52.4446 41.28C52.1646 40.84 51.9446 40.22 51.7846 39.42C51.6646 38.9 51.5446 38.52 51.4246 38.28C51.3046 38.04 51.0846 37.92 50.7646 37.92C49.9246 37.92 49.2046 38.1 48.6046 38.46C48.0446 38.78 47.3046 39.36 46.3846 40.2L41.5846 63H32.9446L39.3046 33ZM63.7232 63.36C61.8032 63.36 60.2432 62.76 59.0432 61.56C57.8832 60.36 57.3032 58.56 57.3032 56.16C57.3032 55.16 57.4632 53.86 57.7832 52.26L61.8632 33H70.5032L66.1832 53.4C66.0632 54 66.0032 54.56 66.0032 55.08C66.0032 56.72 66.6032 57.54 67.8032 57.54C68.9232 57.54 69.8832 57.08 70.6832 56.16C71.4832 55.2 72.1232 53.9 72.6032 52.26L76.6832 33H85.3232L81.0032 53.4C80.8432 54 80.7632 54.64 80.7632 55.32C80.7632 56.12 80.9432 56.7 81.3032 57.06C81.7032 57.38 82.3432 57.54 83.2232 57.54C84.3432 57.54 85.3032 57.06 86.1032 56.1C86.9432 55.14 87.6032 53.86 88.0832 52.26H90.6032C89.1232 56.58 87.2832 59.52 85.0832 61.08C82.9232 62.6 80.7432 63.36 78.5432 63.36C76.8232 63.36 75.4432 62.88 74.4032 61.92C73.4032 60.96 72.8032 59.54 72.6032 57.66C71.2432 59.86 69.8032 61.36 68.2832 62.16C66.8032 62.96 65.2832 63.36 63.7232 63.36ZM94.0162 63.36C92.0962 63.36 90.5362 62.76 89.3362 61.56C88.1762 60.36 87.5962 58.56 87.5962 56.16C87.5962 55.16 87.7562 53.86 88.0762 52.26L91.6762 35.4H89.6962L90.1762 33H92.1562L93.9562 24.72L102.836 23.52L100.796 33H104.396L103.916 35.4H100.316L96.4762 53.4C96.3162 54 96.2362 54.64 96.2362 55.32C96.2362 56.12 96.4162 56.7 96.7762 57.06C97.1762 57.38 97.8162 57.54 98.6962 57.54C99.8562 57.54 100.936 57.06 101.936 56.1C102.936 55.1 103.656 53.82 104.096 52.26H106.616C105.136 56.58 103.236 59.52 100.916 61.08C98.5962 62.6 96.2962 63.36 94.0162 63.36ZM114.092 29.76C112.772 29.76 111.652 29.3 110.732 28.38C109.812 27.46 109.352 26.34 109.352 25.02C109.352 23.7 109.812 22.58 110.732 21.66C111.652 20.7 112.772 20.22 114.092 20.22C115.412 20.22 116.532 20.7 117.452 21.66C118.412 22.58 118.892 23.7 118.892 25.02C118.892 26.34 118.412 27.46 117.452 28.38C116.532 29.3 115.412 29.76 114.092 29.76ZM110.012 63.36C108.092 63.36 106.532 62.76 105.332 61.56C104.172 60.36 103.592 58.56 103.592 56.16C103.592 55.16 103.752 53.86 104.072 52.26L108.152 33H116.792L112.472 53.4C112.312 54 112.232 54.64 112.232 55.32C112.232 56.12 112.412 56.7 112.772 57.06C113.172 57.38 113.812 57.54 114.692 57.54C115.852 57.54 116.932 57.06 117.932 56.1C118.932 55.1 119.652 53.82 120.092 52.26H122.612C121.132 56.58 119.232 59.52 116.912 61.08C114.592 62.6 112.292 63.36 110.012 63.36ZM140.708 63.36C138.588 63.36 137.048 62.72 136.088 61.44C135.128 60.16 134.648 58.54 134.648 56.58C134.648 55.74 134.748 54.8 134.948 53.76C135.148 52.68 135.348 51.64 135.548 50.64C135.788 49.64 135.948 49 136.028 48.72C136.348 47.32 136.648 45.94 136.928 44.58C137.208 43.22 137.348 42.12 137.348 41.28C137.348 39.24 136.628 38.22 135.188 38.22C134.148 38.22 133.228 38.74 132.428 39.78C131.628 40.78 130.988 42.1 130.508 43.74L126.428 63H117.788L124.148 33H132.788L132.128 36.12C134.128 33.88 136.468 32.76 139.148 32.76C141.188 32.76 142.808 33.32 144.008 34.44C145.208 35.56 145.808 37.26 145.808 39.54C145.808 40.7 145.668 42 145.388 43.44C145.108 44.84 144.708 46.56 144.188 48.6C143.868 49.84 143.568 51.06 143.288 52.26C143.048 53.42 142.928 54.34 142.928 55.02C142.928 55.82 143.108 56.44 143.468 56.88C143.828 57.32 144.448 57.54 145.328 57.54C146.288 57.54 146.948 57.42 147.308 57.18C147.068 59.22 146.328 60.76 145.088 61.8C143.888 62.84 142.428 63.36 140.708 63.36Z" fill="white"/>
<path d="M94.9998 0C94.9998 0 64.3411 0.268623 66.0748 22.3916C68.8259 19.36 74.3094 13.8724 81.357 9.6704C81.357 9.6704 71.2379 18.9379 67.7142 25.711L67.7895 25.7685C67.7707 25.7877 87.1797 30.1624 94.9998 0Z" fill="#017D03"/>
<path d="M51 10.9944C51 10.9944 66.8099 13.0474 64.5863 24.3487C63.3426 22.6219 60.8364 19.4368 57.4634 16.8273C57.4634 16.8273 62.1366 22.2381 63.5499 25.9605L63.5122 25.9797C63.4934 25.9797 53.2236 27.035 51 10.9944Z" fill="#017D03"/>
<path d="M59.8745 4.60474C59.8745 4.60474 68.1657 8.65326 64.9435 14.4286C64.5666 13.239 63.7752 11.0517 62.3807 8.99863C62.3807 8.99863 63.9824 12.8361 64.0767 15.1194H64.039C64.0578 15.1386 58.2351 13.8146 59.8745 4.60474Z" fill="#017D03"/>
<path d="M132.882 22.3711C135.434 22.3711 137.502 20.2941 137.502 17.7319C137.502 15.1698 135.434 13.0928 132.882 13.0928C130.33 13.0928 128.261 15.1698 128.261 17.7319C128.261 20.2941 130.33 22.3711 132.882 22.3711Z" fill="#017D03"/>
<path d="M135.551 8.81443C136.6 8.81443 137.45 7.96054 137.45 6.90721C137.45 5.85389 136.6 5 135.551 5C134.502 5 133.651 5.85389 133.651 6.90721C133.651 7.96054 134.502 8.81443 135.551 8.81443Z" fill="#017D03"/>
<path d="M125.591 25.0001C126.47 25.0001 127.183 24.2846 127.183 23.4021C127.183 22.5196 126.47 21.8042 125.591 21.8042C124.713 21.8042 124 22.5196 124 23.4021C124 24.2846 124.713 25.0001 125.591 25.0001Z" fill="#017D03"/>
<path d="M148.022 21.8041C149.667 21.8041 151 20.4655 151 18.8144C151 17.1632 149.667 15.8247 148.022 15.8247C146.378 15.8247 145.044 17.1632 145.044 18.8144C145.044 20.4655 146.378 21.8041 148.022 21.8041Z" fill="#017D03"/>
</g>
<defs>
<clipPath id="clip0_1114_315">
<rect width="155" height="69" fill="white"/>
</clipPath>
</defs>
</svg>
