<svg width="110" height="50" viewBox="0 0 110 50" fill="none" xmlns="http://www.w3.org/2000/svg">
<path d="M13.9736 16.5225L18.2027 17.434L19.3692 12.0238L13.8363 12.1994L13.9736 16.5225ZM9.7772 18.5987L6.29818 16.0278L6.27991 16.0525L6.262 16.0775L9.7772 18.5987ZM8.65239 27.725L4.73206 29.554L4.75678 29.607L4.78293 29.6593L8.65239 27.725ZM8.95522 28.417V32.7423H13.2814V28.417H8.95522ZM5.45101 27.4655L2.58458 30.7051L2.65027 30.7632L2.71826 30.8185L5.45101 27.4655ZM5.84036 18.6419L9.5444 20.8766L9.55282 20.8627L9.56113 20.8487L5.84036 18.6419ZM10.6424 14.5329L8.81017 10.6147L8.8003 10.6194L8.79045 10.624L10.6424 14.5329ZM21.8473 13.1921L21.3107 17.484L21.3696 17.4913L21.4287 17.497L21.8473 13.1921ZM30.1536 12.9758L34.2578 14.3436L36.9663 6.21973L28.8189 8.86157L30.1536 12.9758ZM29.6777 14.7059L33.8578 15.8204L33.8623 15.8035L33.8667 15.7867L29.6777 14.7059ZM28.4231 16.9551L25.2937 13.9686L25.2904 13.9722L28.4231 16.9551ZM26.0437 18.1661V22.4914H26.4721L26.8921 22.4074L26.0437 18.1661ZM19.987 17.3443L20.975 13.1333L16.6677 12.1233L15.7541 16.4512L19.987 17.3443ZM18.17 25.9516L13.9371 25.0584L12.8355 30.2769H18.17V25.9516ZM24.4863 25.9516L28.7148 26.8657L29.8478 21.6264H24.4863V25.9516ZM23.7941 29.1523V33.4776H27.2849L28.0226 30.0664L23.7941 29.1523ZM17.4778 29.1523V24.827H13.9844L13.2487 28.2414L17.4778 29.1523ZM13.9736 45.4153V49.7405H17.4671L18.2028 46.3262L13.9736 45.4153ZM7.74389 45.4153L3.51484 44.5038L2.38572 49.7405H7.74389V45.4153ZM13.8363 12.1994C10.8501 12.2942 8.15315 13.5187 6.29818 16.0278L13.2563 21.1695C13.3617 21.0269 13.4328 20.985 13.4805 20.9614C13.5407 20.9316 13.72 20.858 14.1109 20.8456L13.8363 12.1994ZM6.262 16.0775C4.46964 18.5754 4.02336 22.0637 4.02336 25.4758H12.6758C12.6758 24.0365 12.7827 22.9611 12.9424 22.1917C13.021 21.8133 13.1052 21.5437 13.1771 21.3616C13.249 21.1793 13.2971 21.1133 13.2924 21.1199L6.262 16.0775ZM4.02336 25.4758C4.02336 26.5812 4.09214 28.1831 4.73206 29.554L12.5727 25.8959C12.6619 26.087 12.6995 26.2238 12.7109 26.2681C12.7233 26.3167 12.7206 26.3194 12.7128 26.2612C12.6961 26.1375 12.6758 25.8878 12.6758 25.4758H4.02336ZM4.78293 29.6593C4.82469 29.7428 4.85677 29.8084 4.88057 29.8583C4.89232 29.8829 4.90113 29.9018 4.9074 29.9154C4.91379 29.9293 4.9164 29.9352 4.91604 29.9344C4.91594 29.9342 4.91038 29.9215 4.90121 29.8988C4.8928 29.8779 4.87495 29.833 4.85298 29.7702C4.83378 29.7153 4.79342 29.5961 4.75346 29.4363C4.73291 29.3541 4.70532 29.233 4.68158 29.0837C4.65935 28.944 4.62903 28.7098 4.62903 28.417H13.2814C13.2814 27.8806 13.1796 27.4666 13.1475 27.3382C13.1012 27.1532 13.0514 27.0034 13.0196 26.9125C12.9554 26.729 12.888 26.5698 12.843 26.4671C12.7485 26.2511 12.6344 26.0157 12.5219 25.7906L4.78293 29.6593ZM8.95522 24.0917C8.4561 24.0917 8.17143 24.0394 8.04504 24.0051C7.928 23.9733 8.01749 23.9769 8.18375 24.1124L2.71826 30.8185C4.59314 32.3459 6.92146 32.7423 8.95522 32.7423V24.0917ZM8.31743 24.2258C8.43709 24.3317 8.52922 24.444 8.59507 24.5462C8.65936 24.6459 8.68714 24.7178 8.69495 24.7403C8.70213 24.7611 8.69065 24.7346 8.67776 24.646C8.66485 24.5571 8.65239 24.4184 8.65239 24.2215H0C0 26.3379 0.524746 28.8833 2.58458 30.7051L8.31743 24.2258ZM8.65239 24.2215C8.65239 22.9223 8.96197 21.8416 9.5444 20.8766L2.13633 16.4072C0.699863 18.7871 0 21.4262 0 24.2215H8.65239ZM9.56113 20.8487C10.0405 20.0407 10.9036 19.1952 12.4944 18.4418L8.79045 10.624C5.99745 11.9467 3.65908 13.8406 2.1196 16.4352L9.56113 20.8487ZM12.4747 18.4511C13.9443 17.7641 16.0778 17.3011 19.0785 17.3011V8.65057C15.2727 8.65057 11.7821 9.22554 8.81017 10.6147L12.4747 18.4511ZM19.0785 17.3011C19.5116 17.3011 20.233 17.3492 21.3107 17.484L22.3839 8.90021C21.1542 8.74659 20.0298 8.65057 19.0785 8.65057V17.3011ZM21.4287 17.497C23.5052 17.6989 25.1631 17.8201 26.26 17.8201V9.1696C25.6264 9.1696 24.3425 9.08901 22.2659 8.88717L21.4287 17.497ZM26.26 17.8201C28.0893 17.8201 29.8656 17.6163 31.4882 17.0901L28.8189 8.86157C28.3073 9.02745 27.4879 9.1696 26.26 9.1696V17.8201ZM26.0494 11.6081C25.9063 12.0372 25.71 12.7681 25.4887 13.6251L33.8667 15.7867C33.979 15.3514 34.0701 15.0078 34.141 14.7498C34.1765 14.6211 34.2048 14.5212 34.2267 14.4465C34.2501 14.3668 34.2596 14.3381 34.2578 14.3436L26.0494 11.6081ZM25.4976 13.5915C25.4501 13.7694 25.3865 13.8714 25.2937 13.9686L31.5525 19.9416C32.671 18.77 33.4438 17.3725 33.8578 15.8204L25.4976 13.5915ZM25.2904 13.9722C25.323 13.9378 25.3554 13.9101 25.3837 13.8893C25.4116 13.8687 25.4298 13.8591 25.4329 13.8575C25.4384 13.8547 25.3718 13.8895 25.1953 13.9249L26.8921 22.4074C28.5704 22.0719 30.2358 21.3237 31.5558 19.938L25.2904 13.9722ZM26.0437 13.8409C24.7793 13.8409 23.1081 13.6336 20.975 13.1333L18.9991 21.5553C21.5382 22.1508 23.9048 22.4914 26.0437 22.4914V13.8409ZM15.7541 16.4512L13.9371 25.0584L22.403 26.8448L24.22 18.2375L15.7541 16.4512ZM18.17 30.2769H24.4863V21.6264H18.17V30.2769ZM20.2578 25.0375L19.5656 28.2382L28.0226 30.0664L28.7148 26.8657L20.2578 25.0375ZM23.7941 24.827H17.4778V33.4776H23.7941V24.827ZM13.2487 28.2414L9.74444 44.5044L18.2028 46.3262L21.707 30.0632L13.2487 28.2414ZM13.9736 41.09H7.74389V49.7405H13.9736V41.09ZM11.973 46.3268L18.2027 17.434L9.74456 15.6111L3.51484 44.5038L11.973 46.3268ZM26.7352 23.789V19.4637H23.23L22.5031 22.892L26.7352 23.789ZM32.965 23.789L37.1991 24.6766L38.2923 19.4637H32.965V23.789ZM32.4025 26.4706L28.1684 25.583L25.4945 38.333L35.2648 29.7139L32.4025 26.4706ZM35.0415 24.481L32.8951 20.7256L32.8655 20.7426L32.836 20.76L35.0415 24.481ZM39.8003 24.7405L36.452 27.4794L36.4885 27.5241L36.5261 27.5676L39.8003 24.7405ZM36.2096 29.7578L32.5597 32.08L32.6853 32.2772L32.8314 32.4598L36.2096 29.7578ZM35.7337 28.417L39.9758 27.5688L39.9634 27.5064L39.9491 27.4444L35.7337 28.417ZM33.4408 27.725L35.5872 31.4804L35.6272 31.4575L35.6666 31.4339L33.4408 27.725ZM31.8401 28.9793L28.9231 25.7852L27.8939 26.7247L27.6067 28.0882L31.8401 28.9793ZM28.3792 45.4153V49.7405H31.8894L32.6126 46.3064L28.3792 45.4153ZM22.1495 45.4153L17.9173 44.5183L16.8099 49.7405H22.1495V45.4153ZM26.7352 28.1142H32.965V19.4637H26.7352V28.1142ZM28.7308 22.9014L28.1684 25.583L36.6367 27.3583L37.1991 24.6766L28.7308 22.9014ZM35.2648 29.7139C36.1232 28.9566 36.7794 28.479 37.247 28.202L32.836 20.76C31.7461 21.4058 30.643 22.2546 29.5402 23.2274L35.2648 29.7139ZM37.1879 28.2364C37.3471 28.1455 37.4733 28.1142 37.6372 28.1142V19.4637C35.9553 19.4637 34.351 19.8939 32.8951 20.7256L37.1879 28.2364ZM37.6372 28.1142C37.6006 28.1142 37.4025 28.1067 37.1278 27.9859C36.8387 27.8586 36.606 27.6676 36.452 27.4794L43.1486 22.0016C41.6979 20.2289 39.6735 19.4637 37.6372 19.4637V28.1142ZM36.5261 27.5676C36.4637 27.4953 36.3929 27.3844 36.3444 27.249C36.3219 27.1865 36.3093 27.1325 36.3026 27.0919C36.296 27.0518 36.2961 27.0308 36.2961 27.0329H44.9485C44.9485 25.1758 44.3484 23.3882 43.0745 21.9135L36.5261 27.5676ZM36.2961 27.0329C36.2961 26.9696 36.3082 26.848 36.3628 26.7015C36.4173 26.5553 36.4871 26.457 36.5261 26.4117L43.0745 32.0659C44.2993 30.648 44.9485 28.9099 44.9485 27.0329H36.2961ZM36.5261 26.4117C36.6864 26.2262 36.9091 26.0608 37.1575 25.9577C37.3889 25.8617 37.532 25.8651 37.5075 25.8651V34.5156C39.5096 34.5156 41.5623 33.8165 43.0745 32.0659L36.5261 26.4117ZM37.5075 25.8651C37.5094 25.8651 37.5599 25.865 37.6488 25.877C37.7368 25.889 37.8856 25.9158 38.0751 25.9789C38.4638 26.1085 39.0718 26.4111 39.5878 27.0558L32.8314 32.4598C34.3204 34.3206 36.4708 34.5156 37.5075 34.5156V25.8651ZM39.8594 27.4357C39.9176 27.5271 39.9559 27.6013 39.979 27.6504C40.0022 27.6996 40.0136 27.7307 40.0163 27.7383C40.0204 27.7498 40.0022 27.7001 39.9758 27.5688L31.4915 29.2653C31.6592 30.1034 31.9559 31.1313 32.5597 32.08L39.8594 27.4357ZM39.9491 27.4444C39.8456 26.9959 39.6683 26.3102 39.3436 25.6609L31.6047 29.5295C31.5532 29.4265 31.5209 29.3477 31.5046 29.3053C31.4874 29.2611 31.4793 29.2351 31.4785 29.2329C31.4775 29.2298 31.4811 29.241 31.4887 29.2692C31.4961 29.2971 31.5061 29.3367 31.5183 29.3896L39.9491 27.4444ZM39.3436 25.6609C38.9347 24.8434 38.2725 24.1 37.3619 23.6034C36.4949 23.1307 35.6417 23.0104 34.9983 23.0104V31.661C34.5855 31.661 33.927 31.584 33.2187 31.1977C32.4667 30.7876 31.927 30.174 31.6047 29.5295L39.3436 25.6609ZM34.9983 23.0104C33.7664 23.0104 32.4436 23.2791 31.215 24.0161L35.6666 31.4339C35.3033 31.6518 35.0188 31.661 34.9983 31.661V23.0104ZM31.2944 23.9696C30.4646 24.4436 29.647 25.1243 28.9231 25.7852L34.7572 32.1734C35.0327 31.9219 35.2474 31.7405 35.4066 31.6158C35.5756 31.4833 35.6296 31.4562 35.5872 31.4804L31.2944 23.9696ZM27.6067 28.0882L24.1458 44.5242L32.6126 46.3064L36.0735 29.8704L27.6067 28.0882ZM28.3792 41.09H22.1495V49.7405H28.3792V41.09ZM26.3816 46.3123L30.9673 24.686L22.5031 22.892L17.9173 44.5183L26.3816 46.3123ZM40.9674 44.3772L37.8569 47.3833L37.8824 47.4097L37.9083 47.4356L40.9674 44.3772ZM40.0589 37.6731L35.8266 36.7767L35.8215 36.8007L35.8167 36.8248L40.0589 37.6731ZM43.0007 23.789V19.4637H39.4949L38.7684 22.8926L43.0007 23.789ZM49.2304 23.789L53.4628 24.685L54.5687 19.4637H49.2304V23.789ZM46.1156 38.4949L41.8832 37.5988L41.8781 37.6227L41.8734 37.6466L46.1156 38.4949ZM49.3602 40.4845L52.6248 43.3226L52.6545 43.2883L52.6837 43.2534L49.3602 40.4845ZM50.7446 37.6731L54.8966 38.888L54.9427 38.7302L54.9769 38.5694L50.7446 37.6731ZM53.6864 23.789V19.4637H50.1806L49.4541 22.8926L53.6864 23.789ZM59.9161 23.789L64.1485 24.685L65.2544 19.4637H59.9161V23.789ZM56.8013 38.4949L60.9814 39.6093L61.0103 39.5008L61.0336 39.3909L56.8013 38.4949ZM57.0176 41.1333L53.9585 44.1917L54.1279 44.3611L54.315 44.5107L57.0176 41.1333ZM60.4785 40.4412L57.2227 37.593L57.1884 37.6323L57.155 37.6723L60.4785 40.4412ZM61.9062 37.6731V33.3478H58.6874L57.7624 36.4302L61.9062 37.6731ZM63.7232 37.6731L67.8158 39.0749L69.7784 33.3478H63.7232V37.6731ZM59.7431 44.0312L62.2327 47.5684L62.2391 47.5639L62.2454 47.5595L59.7431 44.0312ZM52.0425 44.6367L49.0464 47.7569L49.0769 47.7862L49.1081 47.8149L52.0425 44.6367ZM50.7446 41.5658L55.0465 41.1083L53.7096 28.5447L47.0647 39.2915L50.7446 41.5658ZM47.6297 44.8097L45.6148 40.9822L45.5936 40.9934L45.5726 41.0048L47.6297 44.8097ZM44.3418 41.3495C44.2209 41.3495 44.1381 41.3401 44.0872 41.3313C44.0373 41.3227 44.0151 41.3143 44.0129 41.3134C44.0115 41.3129 44.0185 41.3157 44.0283 41.322C44.0378 41.3283 44.0373 41.3297 44.0265 41.3188L37.9083 47.4356C39.6941 49.221 41.9743 50.0001 44.3418 50.0001V41.3495ZM44.0779 41.3711C44.1772 41.4739 44.1775 41.5323 44.1441 41.4287C44.1045 41.3059 44.039 41.0144 44.039 40.4845H35.3866C35.3866 42.8453 35.9555 45.4169 37.8569 47.3833L44.0779 41.3711ZM44.039 40.4845C44.039 40.1696 44.096 39.5466 44.301 38.5213L35.8167 36.8248C35.5603 38.1063 35.3866 39.3576 35.3866 40.4845H44.039ZM44.2911 38.5694L47.233 24.6853L38.7684 22.8926L35.8266 36.7767L44.2911 38.5694ZM43.0007 28.1142H49.2304V19.4637H43.0007V28.1142ZM44.9981 22.8929L41.8832 37.5988L50.3479 39.3909L53.4628 24.685L44.9981 22.8929ZM41.8734 37.6466C41.7405 38.3109 41.6596 39.0016 41.6596 39.7059H50.312C50.312 39.6606 50.3175 39.5439 50.3577 39.3431L41.8734 37.6466ZM41.6596 39.7059C41.6596 40.6966 41.818 42.2225 42.8189 43.5901C44.004 45.2093 45.7548 45.8046 47.2837 45.8046V37.154C47.5567 37.154 48.0014 37.2011 48.5093 37.4324C49.0412 37.6747 49.4842 38.0481 49.8016 38.4818C50.3698 39.2583 50.312 39.8975 50.312 39.7059H41.6596ZM47.2837 45.8046C49.4632 45.8046 51.3083 44.8362 52.6248 43.3226L46.0956 37.6463C46.1388 37.5967 46.2804 37.4538 46.539 37.33C46.8068 37.2017 47.0749 37.154 47.2837 37.154V45.8046ZM52.6837 43.2534C53.7525 41.9711 54.4413 40.4431 54.8966 38.888L46.5925 36.4581C46.3556 37.2675 46.1215 37.6138 46.0367 37.7155L52.6837 43.2534ZM54.9769 38.5694L57.9187 24.6853L49.4541 22.8926L46.5123 36.7767L54.9769 38.5694ZM53.6864 28.1142H59.9161V19.4637H53.6864V28.1142ZM55.6838 22.8929L52.5689 37.5988L61.0336 39.3909L64.1485 24.685L55.6838 22.8929ZM52.6211 37.3804C52.4001 38.2091 52.302 39.0478 52.302 39.8789H60.9544C60.9544 39.7297 60.9717 39.6457 60.9814 39.6093L52.6211 37.3804ZM52.302 39.8789C52.302 40.9673 52.5278 42.7614 53.9585 44.1917L60.0766 38.0749C60.5305 38.5287 60.7541 39.0104 60.8573 39.343C60.9547 39.6568 60.9544 39.862 60.9544 39.8789H52.302ZM54.315 44.5107C55.7528 45.6607 57.4234 45.8046 58.402 45.8046V37.154C58.3287 37.154 58.4246 37.1455 58.6292 37.1966C58.835 37.2481 59.2599 37.3877 59.7201 37.7558L54.315 44.5107ZM58.402 45.8046C60.6521 45.8046 62.5106 44.7596 63.802 43.2102L57.155 37.6723C57.1865 37.6345 57.3238 37.4852 57.592 37.3511C57.873 37.2107 58.1642 37.154 58.402 37.154V45.8046ZM63.7343 43.2894C64.8528 42.0114 65.5786 40.4864 66.0499 38.9159L57.7624 36.4302C57.5415 37.1665 57.3156 37.4869 57.2227 37.593L63.7343 43.2894ZM61.9062 41.9983H63.7232V33.3478H61.9062V41.9983ZM59.6305 36.2712C58.674 39.0626 57.7305 40.1557 57.2407 40.5029L62.2454 47.5595C64.9281 45.6576 66.6381 42.5119 67.8158 39.0749L59.6305 36.2712ZM57.2534 40.494C56.2757 41.1819 55.556 41.3495 55.0275 41.3495V50.0001C57.6716 50.0001 60.0957 49.072 62.2327 47.5684L57.2534 40.494ZM55.0275 41.3495C54.8076 41.3495 54.74 41.3188 54.7724 41.3301C54.7887 41.3358 54.8213 41.3491 54.8631 41.3739C54.9051 41.3989 54.9441 41.4284 54.9768 41.4585L49.1081 47.8149C50.8215 49.3962 52.9464 50.0001 55.0275 50.0001V41.3495ZM55.0384 41.5166C55.1469 41.6207 55.1756 41.6981 55.1622 41.6665C55.1436 41.6222 55.0834 41.4556 55.0465 41.1083L46.4426 42.0233C46.6555 44.0236 47.3605 46.1388 49.0464 47.7569L55.0384 41.5166ZM47.0647 39.2915C46.3002 40.5281 45.7654 40.903 45.6148 40.9822L49.6446 48.6372C51.6859 47.5631 53.2278 45.7754 54.4244 43.8401L47.0647 39.2915ZM45.5726 41.0048C45.0864 41.2675 44.6926 41.3495 44.3418 41.3495V50.0001C46.2407 50.0001 48.0388 49.5054 49.6869 48.6147L45.5726 41.0048ZM62.8096 44.3772L59.6991 47.3833L59.7246 47.4097L59.7505 47.4356L62.8096 44.3772ZM61.9011 37.6731L57.6703 36.7699L57.6644 36.7973L57.6589 36.8248L61.9011 37.6731ZM64.4968 25.5191L68.7277 26.4223L69.8443 21.1938H64.4968V25.5191ZM63.0691 25.5191L58.827 24.6708L57.7921 29.8443H63.0691V25.5191ZM63.4152 23.789V19.4637H59.8686L59.173 22.9407L63.4152 23.789ZM64.8429 23.789V28.1142H68.3297L69.0704 24.7078L64.8429 23.789ZM66.1407 17.8201L65.5614 13.5338L62.5573 13.9397L61.9133 16.9013L66.1407 17.8201ZM72.5435 16.9551L76.7727 17.865L78.0691 11.844L71.9642 12.6687L72.5435 16.9551ZM71.0726 23.789L66.8432 22.8791L65.7164 28.1142H71.0726V23.789ZM73.6683 23.789L77.9104 24.6372L78.9451 19.4637H73.6683V23.789ZM73.3222 25.5191V29.8443H76.8686L77.5643 26.3673L73.3222 25.5191ZM70.7265 25.5191V21.1938H67.2259L66.4956 24.6167L70.7265 25.5191ZM67.9577 38.4949L72.1379 39.6093L72.166 39.5039L72.1888 39.3973L67.9577 38.4949ZM68.1741 41.1333L65.115 44.1917L65.2844 44.3611L65.4715 44.5107L68.1741 41.1333ZM71.8946 40.4412L74.8906 43.5614L74.9225 43.5308L74.9537 43.4996L71.8946 40.4412ZM73.452 37.6731V33.3478H70.1772L69.2883 36.4989L73.452 37.6731ZM75.269 37.6731L79.3619 39.0749L81.3245 33.3478H75.269V37.6731ZM71.1591 44.0312L73.53 47.6491L73.5517 47.6349L73.5731 47.6205L71.1591 44.0312ZM66.184 41.3495C66.0631 41.3495 65.9803 41.3401 65.9295 41.3313C65.8795 41.3227 65.8573 41.3143 65.8551 41.3134C65.8537 41.3129 65.8608 41.3157 65.8704 41.322C65.88 41.3283 65.8796 41.3297 65.8687 41.3188L59.7505 47.4356C61.5363 49.221 63.8165 50.0001 66.184 50.0001V41.3495ZM65.9201 41.3711C66.0195 41.4739 66.0198 41.5323 65.9864 41.4287C65.9468 41.3059 65.8812 41.0144 65.8812 40.4845H57.2288C57.2288 42.8453 57.7977 45.4169 59.6991 47.3833L65.9201 41.3711ZM65.8812 40.4845C65.8812 40.1696 65.9381 39.5466 66.1433 38.5213L57.6589 36.8248C57.4026 38.1063 57.2288 39.3576 57.2288 40.4845H65.8812ZM66.132 38.5763L68.7277 26.4223L60.266 24.6159L57.6703 36.7699L66.132 38.5763ZM64.4968 21.1938H63.0691V29.8443H64.4968V21.1938ZM67.3113 26.3673L67.6574 24.6372L59.173 22.9407L58.827 24.6708L67.3113 26.3673ZM63.4152 28.1142H64.8429V19.4637H63.4152V28.1142ZM69.0704 24.7078L70.3682 18.739L61.9133 16.9013L60.6155 22.8702L69.0704 24.7078ZM66.7201 22.1065L73.1229 21.2414L71.9642 12.6687L65.5614 13.5338L66.7201 22.1065ZM68.3141 16.0452L66.8432 22.8791L75.302 24.6989L76.7727 17.865L68.3141 16.0452ZM71.0726 28.1142H73.6683V19.4637H71.0726V28.1142ZM69.4261 22.9407L69.08 24.6708L77.5643 26.3673L77.9104 24.6372L69.4261 22.9407ZM73.3222 21.1938H70.7265V29.8443H73.3222V21.1938ZM66.4956 24.6167L63.7268 37.5925L72.1888 39.3973L74.9575 26.4215L66.4956 24.6167ZM63.7776 37.3804C63.5566 38.2091 63.4585 39.0478 63.4585 39.8789H72.1109C72.1109 39.7297 72.1282 39.6456 72.1379 39.6093L63.7776 37.3804ZM63.4585 39.8789C63.4585 40.9673 63.6843 42.7614 65.115 44.1917L71.2332 38.0749C71.6871 38.5287 71.9106 39.0104 72.0138 39.343C72.1113 39.6568 72.1109 39.862 72.1109 39.8789H63.4585ZM65.4715 44.5107C66.9094 45.6607 68.5799 45.8046 69.5584 45.8046V37.154C69.4853 37.154 69.5811 37.1455 69.7857 37.1966C69.9915 37.2481 70.4165 37.3877 70.8766 37.7558L65.4715 44.5107ZM69.5584 45.8046C71.7239 45.8046 73.5313 44.8661 74.8906 43.5614L68.8985 37.3211C68.8385 37.3787 68.8724 37.3296 69.0128 37.2673C69.1658 37.1993 69.3597 37.154 69.5584 37.154V45.8046ZM74.9537 43.4996C76.2701 42.1832 77.1274 40.5786 77.6155 38.8472L69.2883 36.4989C69.1423 37.0166 68.9608 37.2575 68.8355 37.3828L74.9537 43.4996ZM73.452 41.9983H75.269V33.3478H73.452V41.9983ZM71.1764 36.2712C70.2371 39.0125 69.2764 40.0848 68.7451 40.4419L73.5731 47.6205C76.3876 45.7285 78.1671 42.562 79.3619 39.0749L71.1764 36.2712ZM68.7883 40.4133C67.6662 41.1483 66.8189 41.3495 66.184 41.3495V50.0001C68.8371 50.0001 71.3065 49.1056 73.53 47.6491L68.7883 40.4133ZM78.2371 15.6142L81.2957 18.6726L81.3281 18.6401L81.3606 18.6069L78.2371 15.6142ZM83.0824 15.6142L79.9589 18.6069L80.0224 18.6734L80.0887 18.737L83.0824 15.6142ZM83.0824 20.4585L80.0887 17.3358L80.0555 17.3676L80.0231 17.4001L83.0824 20.4585ZM74.3433 44.3772L71.2328 47.3833L71.2583 47.4097L71.2842 47.4356L74.3433 44.3772ZM73.4348 37.6731L69.2025 36.7767L69.1974 36.8007L69.1926 36.8248L73.4348 37.6731ZM76.3768 23.789V19.4637H72.8709L72.1443 22.8926L76.3768 23.789ZM82.6065 23.789L86.839 24.685L87.9443 19.4637H82.6065V23.789ZM79.4917 38.4949L83.6715 39.6093L83.7003 39.5008L83.7241 39.3909L79.4917 38.4949ZM79.708 41.1333L76.6486 44.1917L76.8181 44.3611L77.0055 44.5107L79.708 41.1333ZM83.4285 40.4412L86.4244 43.5614L86.4561 43.5308L86.4871 43.4996L83.4285 40.4412ZM84.9859 37.6731V33.3478H81.711L80.822 36.4989L84.9859 37.6731ZM86.8029 37.6731L90.8955 39.0749L92.8582 33.3478H86.8029V37.6731ZM82.6931 44.0312L85.0638 47.6491L85.0854 47.6349L85.1071 47.6205L82.6931 44.0312ZM80.6597 17.1281C80.6965 17.1281 80.8205 17.1367 80.9835 17.2037C81.1479 17.2712 81.2532 17.3575 81.2957 17.4001L75.1778 23.5169C76.6659 25.0045 78.5788 25.7786 80.6597 25.7786V17.1281ZM81.2957 17.4001C81.3382 17.4427 81.4248 17.5481 81.4925 17.7124C81.5596 17.8753 81.5682 17.9997 81.5682 18.0364H72.9156C72.9156 20.1163 73.69 22.0295 75.1778 23.5169L81.2957 17.4001ZM81.5682 18.0364C81.5682 18.0731 81.5596 18.1974 81.4925 18.3604C81.4248 18.5247 81.3382 18.63 81.2957 18.6726L75.1778 12.5559C73.69 14.0433 72.9156 15.9564 72.9156 18.0364H81.5682ZM81.3606 18.6069C81.3267 18.642 81.2222 18.7351 81.0441 18.8113C80.866 18.8876 80.7203 18.9014 80.6597 18.9014V10.2509C78.519 10.2509 76.5859 11.0853 75.1134 12.6216L81.3606 18.6069ZM80.6597 18.9014C80.5992 18.9014 80.4528 18.8876 80.2747 18.8113C80.0973 18.7351 79.9921 18.642 79.9589 18.6069L86.2059 12.6216C84.7329 11.0853 82.8005 10.2509 80.6597 10.2509V18.9014ZM80.0887 18.737C80.0541 18.7034 79.9603 18.5985 79.8846 18.421C79.8082 18.2428 79.7945 18.0971 79.7945 18.0364H88.4469C88.4469 15.896 87.6119 13.9637 86.0754 12.4915L80.0887 18.737ZM79.7945 18.0364C79.7945 17.9757 79.8082 17.83 79.8846 17.6518C79.9603 17.4742 80.0541 17.3694 80.0887 17.3358L86.0754 23.5813C87.6119 22.109 88.4469 20.1767 88.4469 18.0364H79.7945ZM80.0231 17.4001C80.0656 17.3575 80.1709 17.2712 80.3353 17.2037C80.4982 17.1367 80.623 17.1281 80.6597 17.1281V25.7786C82.7399 25.7786 84.6535 25.0045 86.141 23.5169L80.0231 17.4001ZM77.7179 41.3495C77.5968 41.3495 77.5139 41.3401 77.4634 41.3313C77.4129 41.3227 77.3913 41.3143 77.3891 41.3134C77.3877 41.3129 77.3942 41.3157 77.4043 41.322C77.4137 41.3283 77.4129 41.3297 77.4021 41.3188L71.2842 47.4356C73.07 49.221 75.3502 50.0001 77.7179 50.0001V41.3495ZM77.454 41.3711C77.5528 41.4739 77.5535 41.5323 77.5204 41.4287C77.4807 41.3059 77.4151 41.0144 77.4151 40.4845H68.7625C68.7625 42.8453 69.3315 45.4169 71.2328 47.3833L77.454 41.3711ZM77.4151 40.4845C77.4151 40.1696 77.4721 39.5466 77.6768 38.5213L69.1926 36.8248C68.9363 38.1063 68.7625 39.3576 68.7625 40.4845H77.4151ZM77.6667 38.5694L80.6086 24.6853L72.1443 22.8926L69.2025 36.7767L77.6667 38.5694ZM76.3768 28.1142H82.6065V19.4637H76.3768V28.1142ZM78.3741 22.8929L75.2591 37.5988L83.7241 39.3909L86.839 24.685L78.3741 22.8929ZM75.3113 37.3804C75.0903 38.2091 74.9922 39.0478 74.9922 39.8789H83.6448C83.6448 39.7297 83.6621 39.6456 83.6715 39.6093L75.3113 37.3804ZM74.9922 39.8789C74.9922 40.9673 75.218 42.7614 76.6486 44.1917L82.7666 38.0749C83.2208 38.5287 83.4444 39.0104 83.5475 39.343C83.6448 39.6568 83.6448 39.862 83.6448 39.8789H74.9922ZM77.0055 44.5107C78.4433 45.6607 80.1139 45.8046 81.0924 45.8046V37.154C81.0188 37.154 81.1147 37.1455 81.3195 37.1966C81.525 37.2481 81.9504 37.3877 82.4104 37.7558L77.0055 44.5107ZM81.0924 45.8046C83.2576 45.8046 85.0653 44.8661 86.4244 43.5614L80.4326 37.3211C80.3721 37.3787 80.4059 37.3296 80.5465 37.2673C80.6994 37.1993 80.8934 37.154 81.0924 37.154V45.8046ZM86.4871 43.4996C87.8045 42.1832 88.661 40.5786 89.1492 38.8472L80.822 36.4989C80.6756 37.0166 80.4946 37.2575 80.3692 37.3828L86.4871 43.4996ZM84.9859 41.9983H86.8029V33.3478H84.9859V41.9983ZM82.7104 36.2712C81.7709 39.0125 80.8104 40.0848 80.279 40.4419L85.1071 47.6205C87.9213 45.7285 89.7008 42.562 90.8955 39.0749L82.7104 36.2712ZM80.3223 40.4133C79.1997 41.1483 78.3524 41.3495 77.7179 41.3495V50.0001C80.3706 50.0001 82.8401 49.1056 85.0638 47.6491L80.3223 40.4133ZM95.6976 38.7544L99.9459 39.5712L99.9488 39.5566L99.9517 39.5419L95.6976 38.7544ZM96.1302 36.5052L91.923 35.4959L91.9042 35.5761L91.8877 35.657L96.1302 36.5052ZM96.4763 35.1212L100.636 36.3094L100.668 36.1979L100.694 36.085L96.4763 35.1212ZM93.8806 28.6765L97.2586 31.3785L97.2846 31.3464L97.3098 31.3137L93.8806 28.6765ZM92.4962 31.5312L88.3438 30.3162L88.2976 30.474L88.2638 30.6349L92.4962 31.5312ZM89.5544 45.4153V49.7405H93.0601L93.7869 46.3116L89.5544 45.4153ZM83.3247 45.4153L79.0922 44.5183L77.9847 49.7405H83.3247V45.4153ZM87.9104 23.789V19.4637H84.4048L83.678 22.892L87.9104 23.789ZM94.1402 23.789L98.3726 24.6842L99.4773 19.4637H94.1402V23.789ZM93.6643 26.0381L89.4318 25.1429L86.0689 41.0375L96.8909 28.9188L93.6643 26.0381ZM103.225 31.3149L107.467 32.1632L107.469 32.1519L107.472 32.1405L103.225 31.3149ZM102.36 35.0347L106.548 36.1155L106.551 36.1092L106.552 36.103L102.36 35.0347ZM101.711 37.6731L97.498 36.6902L97.4858 36.7433L97.4742 36.7968L101.711 37.6731ZM104.61 41.2198L108.906 41.7251L110 32.4285L102.21 37.6209L104.61 41.2198ZM103.009 44.5502L100.229 41.2363L100.202 41.2588L100.175 41.2817L103.009 44.5502ZM99.8507 41.3495C99.5075 41.3495 99.439 41.2962 99.5313 41.3347C99.5818 41.3556 99.6618 41.3964 99.752 41.4659C99.8435 41.5361 99.9207 41.6164 99.9805 41.6956L93.0586 46.8859C94.8187 49.2323 97.4411 50.0001 99.8507 50.0001V41.3495ZM99.9805 41.6956C99.9668 41.6771 99.8075 41.4794 99.8075 40.7873H91.1551C91.1551 42.9209 91.6879 45.0589 93.0586 46.8859L99.9805 41.6956ZM99.8075 40.7873C99.8075 40.5158 99.8407 40.1178 99.9459 39.5712L91.4493 37.9376C91.2661 38.8903 91.1551 39.8476 91.1551 40.7873H99.8075ZM99.9517 39.5419C100.092 38.7821 100.232 38.0527 100.372 37.3535L91.8877 35.657C91.7391 36.3996 91.5913 37.1695 91.4435 37.9668L99.9517 39.5419ZM100.337 37.5146C100.422 37.161 100.49 36.88 100.544 36.6676C100.57 36.5615 100.591 36.4774 100.609 36.413C100.616 36.381 100.623 36.3562 100.628 36.3375C100.631 36.3283 100.632 36.3213 100.634 36.3164C100.635 36.3113 100.636 36.3092 100.636 36.3094L92.3167 33.9329C92.228 34.2418 92.0903 34.8007 91.923 35.4959L100.337 37.5146ZM100.694 36.085C100.931 35.0463 101.154 34.021 101.363 33.0089L92.8877 31.2645C92.6923 32.2133 92.4825 33.1776 92.259 34.1573L100.694 36.085ZM101.363 33.0089C101.591 31.9014 101.754 30.7838 101.754 29.7578H93.1019C93.1019 29.943 93.0637 30.4112 92.8877 31.2645L101.363 33.0089ZM101.754 29.7578C101.754 28.6455 101.582 27.0378 100.573 25.6091C99.3698 23.9046 97.547 23.2267 95.8706 23.2267V31.8772C95.6204 31.8772 95.1943 31.832 94.7047 31.6009C94.1928 31.3593 93.7847 30.9951 93.5042 30.5977C93.0146 29.9044 93.1019 29.3996 93.1019 29.7578H101.754ZM95.8706 23.2267C93.4328 23.2267 91.6115 24.5318 90.4514 26.0393L97.3098 31.3137C97.3271 31.2906 97.2183 31.4408 96.9392 31.5985C96.6328 31.7719 96.2542 31.8772 95.8706 31.8772V23.2267ZM90.5026 25.9745C89.4765 27.2564 88.7988 28.7636 88.3438 30.3162L96.6479 32.7462C96.8859 31.9343 97.131 31.5384 97.2586 31.3785L90.5026 25.9745ZM88.2638 30.6349L85.3219 44.5189L93.7869 46.3116L96.7287 32.4275L88.2638 30.6349ZM89.5544 41.09H83.3247V49.7405H89.5544V41.09ZM87.5564 46.3123L92.1422 24.686L83.678 22.892L79.0922 44.5183L87.5564 46.3123ZM87.9104 28.1142H94.1402V19.4637H87.9104V28.1142ZM89.9077 22.8938L89.4318 25.1429L97.8968 26.9333L98.3726 24.6842L89.9077 22.8938ZM96.8909 28.9188C97.6228 28.0998 98.1823 27.9412 98.7259 27.9412V19.2907C95.4049 19.2907 92.59 20.7469 90.4369 23.1574L96.8909 28.9188ZM98.7259 27.9412C99.0691 27.9412 99.2393 27.9886 99.2919 28.0066C99.3294 28.0197 99.3078 28.0164 99.2783 27.989L105.182 21.6651C103.333 19.9396 101.014 19.2907 98.7259 19.2907V27.9412ZM99.2783 27.989C99.2234 27.9382 99.1809 27.8845 99.1513 27.8381C99.1225 27.7932 99.1175 27.7723 99.1239 27.7912C99.1405 27.8376 99.2018 28.0481 99.2018 28.5035H107.854C107.854 26.1409 107.222 23.5686 105.182 21.6651L99.2783 27.989ZM99.2018 28.5035C99.2018 29.0012 99.1405 29.6555 98.9783 30.4894L107.472 32.1405C107.714 30.8982 107.854 29.6783 107.854 28.5035H99.2018ZM98.9826 30.4667C98.8009 31.3765 98.532 32.538 98.1679 33.9663L106.552 36.103C106.938 34.5902 107.246 33.2718 107.467 32.1632L98.9826 30.4667ZM98.1707 33.9538C97.9321 34.879 97.7078 35.7912 97.498 36.6902L105.924 38.6559C106.118 37.8248 106.326 36.9781 106.548 36.1155L98.1707 33.9538ZM97.4742 36.7968C97.2788 37.7428 97.1252 38.7393 97.1252 39.6627H105.778C105.778 39.6651 105.778 39.6411 105.782 39.5861C105.786 39.5318 105.793 39.4562 105.806 39.357C105.832 39.156 105.877 38.8896 105.947 38.5494L97.4742 36.7968ZM97.1252 39.6627C97.1252 40.8376 97.3863 42.391 98.4923 43.7424L105.189 38.2646C105.775 38.9817 105.778 39.6412 105.778 39.6627H97.1252ZM98.4923 43.7424C99.9394 45.5107 101.966 45.8046 103.182 45.8046V37.154C103.201 37.154 103.449 37.1535 103.817 37.2841C104.219 37.4266 104.744 37.7216 105.189 38.2646L98.4923 43.7424ZM103.182 45.8046C103.687 45.8046 104.256 45.7746 104.832 45.6699C105.364 45.5731 106.193 45.3627 107.009 44.8186L102.21 37.6209C102.507 37.4228 102.768 37.3133 102.935 37.2547C103.103 37.1949 103.228 37.1691 103.284 37.1589C103.385 37.1407 103.369 37.154 103.182 37.154V45.8046ZM100.313 40.7144C100.271 41.068 100.203 41.2349 100.18 41.282C100.164 41.3143 100.178 41.2785 100.229 41.2363L105.788 47.8642C107.738 46.2294 108.64 43.9839 108.906 41.7251L100.313 40.7144ZM100.175 41.2817C100.154 41.3007 100.141 41.3087 100.136 41.3113C100.132 41.3137 100.128 41.3161 100.119 41.3191C100.107 41.3234 100.03 41.3495 99.8507 41.3495V50.0001C102.038 50.0001 104.122 49.3089 105.842 47.8188L100.175 41.2817Z" fill="#017D03"/>
<path d="M13.974 16.5228C12.157 16.5805 10.7582 17.2725 9.77763 18.5989C8.82587 19.9253 8.34998 22.2177 8.34998 25.4761C8.34998 26.543 8.45093 27.2927 8.65282 27.7252C8.85471 28.1289 8.95565 28.3596 8.95565 28.4172C7.39822 28.4172 6.23015 28.1001 5.45143 27.4657C4.70156 26.8025 4.32662 25.7212 4.32662 24.2217C4.32662 22.1745 4.83134 20.3146 5.84079 18.6422C6.85024 16.9409 8.45093 15.5712 10.6429 14.5332C12.8636 13.4951 15.6757 12.9761 19.0789 12.9761C19.7711 12.9761 20.6941 13.0482 21.8477 13.1923C23.9243 13.3942 25.3952 13.4951 26.2604 13.4951C27.789 13.4951 29.0869 13.3221 30.154 12.9761C30.0675 13.2356 29.9089 13.8123 29.6781 14.7062C29.4474 15.5712 29.0292 16.3209 28.4235 16.9553C27.8467 17.5608 27.0536 17.9645 26.0441 18.1664C24.3425 18.1664 22.3236 17.8925 19.9874 17.3446L18.1704 25.9519H24.4867L23.7945 29.1525H17.4783L13.974 45.4155H7.74432L13.974 16.5228ZM26.7357 23.7892H32.9654L32.403 26.4709C33.3836 25.6058 34.2632 24.9426 35.042 24.4813C35.8495 24.0199 36.7148 23.7892 37.6377 23.7892C38.5606 23.7892 39.2816 24.1064 39.8008 24.7408C40.3488 25.3752 40.6228 26.1393 40.6228 27.0332C40.6228 27.8694 40.3488 28.6047 39.8008 29.239C39.2528 29.8734 38.4885 30.1906 37.5079 30.1906C36.8734 30.1906 36.4408 30.0464 36.21 29.7581C36.0081 29.4409 35.8495 28.9939 35.7341 28.4172C35.6476 28.0424 35.5611 27.7685 35.4746 27.5955C35.3881 27.4224 35.2294 27.3359 34.9987 27.3359C34.393 27.3359 33.8739 27.4657 33.4413 27.7252C33.0375 27.9559 32.5039 28.374 31.8406 28.9795L28.3796 45.4155H22.1499L26.7357 23.7892ZM44.3423 45.675C42.9579 45.675 41.8331 45.2425 40.9678 44.3775C40.1314 43.5124 39.7132 42.2148 39.7132 40.4847C39.7132 39.7638 39.8286 38.8267 40.0593 37.6733L43.0011 23.7892H49.2309L46.116 38.4951C46.0295 38.9276 45.9862 39.3313 45.9862 39.7062C45.9862 40.8884 46.4188 41.4795 47.2841 41.4795C48.0916 41.4795 48.7838 41.1479 49.3607 40.4847C49.9375 39.7927 50.3989 38.8555 50.745 37.6733L53.6869 23.7892H59.9166L56.8017 38.4951C56.6863 38.9276 56.6287 39.389 56.6287 39.8792C56.6287 40.4559 56.7584 40.874 57.018 41.1335C57.3064 41.3642 57.7679 41.4795 58.4024 41.4795C59.21 41.4795 59.9022 41.1335 60.479 40.4415C61.0846 39.7494 61.5605 38.8267 61.9066 37.6733H63.7236C62.6565 40.7875 61.3298 42.9069 59.7435 44.0314C58.1861 45.1272 56.6142 45.675 55.028 45.675C53.7878 45.675 52.7928 45.329 52.0429 44.637C51.3219 43.9449 50.8892 42.9213 50.745 41.566C49.7644 43.152 48.7261 44.2333 47.6302 44.81C46.563 45.3867 45.4671 45.675 44.3423 45.675ZM66.1844 45.675C64.8001 45.675 63.6752 45.2425 62.81 44.3775C61.9736 43.5124 61.5554 42.2148 61.5554 40.4847C61.5554 39.7638 61.6708 38.8267 61.9015 37.6733L64.4972 25.5193H63.0696L63.4157 23.7892H64.8433L66.1412 17.8204L72.5439 16.9553L71.073 23.7892H73.6688L73.3227 25.5193H70.7269L67.9582 38.4951C67.8428 38.9276 67.7851 39.389 67.7851 39.8792C67.7851 40.4559 67.9149 40.874 68.1745 41.1335C68.4629 41.3642 68.9244 41.4795 69.5589 41.4795C70.3953 41.4795 71.174 41.1335 71.895 40.4415C72.6161 39.7206 73.1352 38.7979 73.4524 37.6733H75.2694C74.2023 40.7875 72.8324 42.9069 71.1596 44.0314C69.4868 45.1272 67.8284 45.675 66.1844 45.675ZM80.6602 21.4536C79.7084 21.4536 78.9009 21.122 78.2375 20.4588C77.5742 19.7956 77.2425 18.9882 77.2425 18.0366C77.2425 17.0851 77.5742 16.2777 78.2375 15.6145C78.9009 14.9224 79.7084 14.5764 80.6602 14.5764C81.6119 14.5764 82.4195 14.9224 83.0828 15.6145C83.775 16.2777 84.1211 17.0851 84.1211 18.0366C84.1211 18.9882 83.775 19.7956 83.0828 20.4588C82.4195 21.122 81.6119 21.4536 80.6602 21.4536ZM77.7184 45.675C76.334 45.675 75.209 45.2425 74.3437 44.3775C73.5073 43.5124 73.0891 42.2148 73.0891 40.4847C73.0891 39.7638 73.2045 38.8267 73.4352 37.6733L76.3772 23.7892H82.607L79.4921 38.4951C79.3767 38.9276 79.3191 39.389 79.3191 39.8792C79.3191 40.4559 79.4488 40.874 79.7084 41.1335C79.9968 41.3642 80.4583 41.4795 81.0928 41.4795C81.9292 41.4795 82.7079 41.1335 83.4289 40.4415C84.15 39.7206 84.6691 38.7979 84.9864 37.6733H86.8034C85.7362 40.7875 84.3663 42.9069 82.6935 44.0314C81.0207 45.1272 79.3623 45.675 77.7184 45.675ZM99.8512 45.675C98.3226 45.675 97.2122 45.2137 96.52 44.291C95.8278 43.3682 95.4817 42.2004 95.4817 40.7875C95.4817 40.182 95.5538 39.5043 95.698 38.7546C95.8422 37.9761 95.9864 37.2264 96.1306 36.5055C96.3037 35.7846 96.4191 35.3232 96.4767 35.1214C96.7075 34.1122 96.9238 33.1174 97.1257 32.137C97.3276 31.1566 97.4285 30.3636 97.4285 29.7581C97.4285 28.2875 96.9094 27.5522 95.8711 27.5522C95.1212 27.5522 94.4579 27.9271 93.881 28.6768C93.3042 29.3976 92.8427 30.3492 92.4966 31.5314L89.5548 45.4155H83.3251L87.9109 23.7892H94.1406L93.6647 26.0384C95.1068 24.4236 96.794 23.6162 98.7264 23.6162C100.197 23.6162 101.365 24.0199 102.231 24.8273C103.096 25.6347 103.528 26.8602 103.528 28.5038C103.528 29.34 103.428 30.2771 103.226 31.3152C103.024 32.3244 102.735 33.5643 102.36 35.0349C102.13 35.9288 101.913 36.8083 101.711 37.6733C101.538 38.5095 101.452 39.1727 101.452 39.6629C101.452 40.2396 101.582 40.6866 101.841 41.0038C102.101 41.3209 102.548 41.4795 103.182 41.4795C103.875 41.4795 104.35 41.393 104.61 41.22C104.437 42.6906 103.903 43.8008 103.009 44.5505C102.144 45.3002 101.091 45.675 99.8512 45.675Z" fill="white"/>
<path d="M68.8294 0C68.8294 0 46.7235 0.193644 47.9736 16.1416C49.9572 13.9562 53.911 10.0003 58.9925 6.97116C58.9925 6.97116 51.6963 13.6519 49.1556 18.5345L49.2099 18.5759C49.1964 18.5897 63.1909 21.7434 68.8294 0Z" fill="#017D03"/>
<path d="M37.1047 7.92578C37.1047 7.92578 48.5042 9.40581 46.9009 17.5527C46.0041 16.3078 44.1971 14.0117 41.765 12.1307C41.765 12.1307 45.1346 16.0312 46.1536 18.7145L46.1264 18.7283C46.1129 18.7283 38.708 19.4891 37.1047 7.92578Z" fill="#017D03"/>
<path d="M43.5028 3.31934C43.5028 3.31934 49.4798 6.23783 47.157 10.4012C46.8853 9.54361 46.3148 7.96676 45.3095 6.48679C45.3095 6.48679 46.4641 9.25309 46.5321 10.8991H46.5049C46.5185 10.9129 42.321 9.95854 43.5028 3.31934Z" fill="#017D03"/>
<path d="M96.1444 16.127C97.9845 16.127 99.4756 14.6297 99.4756 12.7827C99.4756 10.9357 97.9845 9.43848 96.1444 9.43848C94.3044 9.43848 92.8126 10.9357 92.8126 12.7827C92.8126 14.6297 94.3044 16.127 96.1444 16.127Z" fill="#017D03"/>
<path d="M98.0678 6.35374C98.824 6.35374 99.4368 5.73819 99.4368 4.97887C99.4368 4.21955 98.824 3.604 98.0678 3.604C97.3116 3.604 96.6982 4.21955 96.6982 4.97887C96.6982 5.73819 97.3116 6.35374 98.0678 6.35374Z" fill="#017D03"/>
<path d="M90.887 18.0221C91.5207 18.0221 92.0347 17.5063 92.0347 16.8702C92.0347 16.234 91.5207 15.7183 90.887 15.7183C90.2541 15.7183 89.7401 16.234 89.7401 16.8702C89.7401 17.5063 90.2541 18.0221 90.887 18.0221Z" fill="#017D03"/>
<path d="M107.06 15.7176C108.245 15.7176 109.206 14.7527 109.206 13.5624C109.206 12.3721 108.245 11.4072 107.06 11.4072C105.874 11.4072 104.913 12.3721 104.913 13.5624C104.913 14.7527 105.874 15.7176 107.06 15.7176Z" fill="#017D03"/>
</svg>
