<svg width="155" height="70" viewBox="0 0 155 70" fill="none" xmlns="http://www.w3.org/2000/svg">
<g clip-path="url(#clip0_1289_420)">
<path d="M21.6055 23.42L27.4708 24.6844L29.0887 17.1794L21.4152 17.423L21.6055 23.42ZM15.7855 26.3L10.9605 22.7337L10.9352 22.7679L10.9103 22.8026L15.7855 26.3ZM14.2255 38.96L8.78849 41.4973L8.82277 41.5708L8.85902 41.6433L14.2255 38.96ZM14.6455 39.92V45.92H20.6455V39.92H14.6455ZM9.78559 38.6L5.81014 43.094L5.90125 43.1746L5.99555 43.2514L9.78559 38.6ZM10.3255 26.36L15.4627 29.46L15.4743 29.4406L15.4859 29.4212L10.3255 26.36ZM16.9855 20.66L14.4444 15.2247L14.4307 15.2311L14.417 15.2376L16.9855 20.66ZM32.5255 18.8L31.7813 24.7537L31.863 24.7639L31.945 24.7718L32.5255 18.8ZM44.0455 18.5L49.7377 20.3973L53.4941 9.12793L42.1945 12.7927L44.0455 18.5ZM43.3855 20.9L49.183 22.446L49.1892 22.4226L49.1952 22.3993L43.3855 20.9ZM41.6455 24.02L37.3054 19.8771L37.3007 19.8821L41.6455 24.02ZM38.3455 25.7V31.7H38.9397L39.5222 31.5835L38.3455 25.7ZM29.9455 24.56L31.3158 18.7185L25.342 17.3173L24.0749 23.321L29.9455 24.56ZM27.4255 36.5L21.5549 35.261L20.027 42.5H27.4255V36.5ZM36.1855 36.5L42.05 37.768L43.6215 30.5H36.1855V36.5ZM35.2255 40.94V46.94H40.0669L41.09 42.208L35.2255 40.94ZM26.4655 40.94V34.94H21.6205L20.6001 39.6764L26.4655 40.94ZM21.6055 63.5V69.5H26.4506L27.471 64.7636L21.6055 63.5ZM12.9655 63.5L7.10032 62.2356L5.53435 69.5H12.9655V63.5ZM21.4152 17.423C17.2735 17.5545 13.5332 19.253 10.9605 22.7337L20.6106 29.8663C20.7568 29.6685 20.8555 29.6103 20.9216 29.5776C21.0052 29.5363 21.2539 29.4342 21.7959 29.417L21.4152 17.423ZM10.9103 22.8026C8.42452 26.2677 7.80559 31.1067 7.80559 35.84H19.8055C19.8055 33.8433 19.9538 32.3516 20.1754 31.2843C20.2843 30.7593 20.4012 30.3853 20.5008 30.1327C20.6006 29.8799 20.6673 29.7883 20.6608 29.7974L10.9103 22.8026ZM7.80559 35.84C7.80559 37.3733 7.90098 39.5955 8.78849 41.4973L19.6626 36.4227C19.7863 36.6878 19.8385 36.8776 19.8542 36.939C19.8715 37.0065 19.8678 37.0102 19.8569 36.9295C19.8338 36.7578 19.8055 36.4115 19.8055 35.84H7.80559ZM8.85902 41.6433C8.91695 41.7591 8.96144 41.8502 8.99445 41.9194C9.01075 41.9535 9.02297 41.9797 9.03167 41.9985C9.04053 42.0178 9.04414 42.0261 9.04364 42.0249C9.04351 42.0246 9.03579 42.007 9.02307 41.9755C9.0114 41.9466 8.98665 41.8842 8.95619 41.7971C8.92956 41.721 8.87359 41.5556 8.81817 41.334C8.78966 41.2199 8.75139 41.0519 8.71846 40.8449C8.68764 40.6511 8.64559 40.3262 8.64559 39.92H20.6455C20.6455 39.1759 20.5044 38.6016 20.4598 38.4235C20.3957 38.1669 20.3266 37.959 20.2824 37.8329C20.1934 37.5784 20.0998 37.3575 20.0375 37.2151C19.9064 36.9154 19.7482 36.5889 19.5921 36.2767L8.85902 41.6433ZM14.6455 33.92C13.9533 33.92 13.5585 33.8474 13.3832 33.7998C13.2209 33.7557 13.345 33.7607 13.5756 33.9486L5.99555 43.2514C8.59581 45.3701 11.8249 45.92 14.6455 45.92V33.92ZM13.761 34.106C13.9269 34.2528 14.0547 34.4087 14.1461 34.5504C14.2352 34.6887 14.2737 34.7885 14.2846 34.8197C14.2945 34.8485 14.2786 34.8118 14.2607 34.6888C14.2428 34.5655 14.2255 34.3732 14.2255 34.1H2.22559C2.22559 37.0359 2.95336 40.5668 5.81014 43.094L13.761 34.106ZM14.2255 34.1C14.2255 32.2977 14.6549 30.7986 15.4627 29.46L5.18846 23.26C3.19623 26.5614 2.22559 30.2223 2.22559 34.1H14.2255ZM15.4859 29.4212C16.1508 28.3004 17.3477 27.1275 19.5541 26.0824L14.417 15.2376C10.5434 17.0724 7.30037 19.6996 5.16526 23.2988L15.4859 29.4212ZM19.5267 26.0953C21.565 25.1423 24.5238 24.5 28.6855 24.5V12.5C23.4073 12.5 18.5661 13.2976 14.4444 15.2247L19.5267 26.0953ZM28.6855 24.5C29.2863 24.5 30.2867 24.5668 31.7813 24.7537L33.2698 12.8463C31.5644 12.6332 30.0048 12.5 28.6855 12.5V24.5ZM31.945 24.7718C34.8249 25.0518 37.1242 25.22 38.6455 25.22V13.22C37.7669 13.22 35.9862 13.1082 33.1061 12.8282L31.945 24.7718ZM38.6455 25.22C41.1825 25.22 43.6462 24.9372 45.8966 24.2073L42.1945 12.7927C41.4849 13.0228 40.3486 13.22 38.6455 13.22V25.22ZM38.3534 16.6027C38.155 17.1979 37.8827 18.2118 37.5759 19.4007L49.1952 22.3993C49.351 21.7954 49.4774 21.3188 49.5758 20.9609C49.6249 20.7823 49.6642 20.6437 49.6946 20.5401C49.727 20.4296 49.7402 20.3897 49.7377 20.3973L38.3534 16.6027ZM37.5881 19.354C37.5223 19.6009 37.4342 19.7423 37.3054 19.8771L45.9857 28.1629C47.5369 26.5377 48.6088 24.5991 49.183 22.446L37.5881 19.354ZM37.3007 19.8821C37.3461 19.8345 37.3909 19.796 37.4301 19.7672C37.4688 19.7386 37.4941 19.7252 37.4985 19.723C37.506 19.7192 37.4137 19.7675 37.1689 19.8165L39.5222 31.5835C41.8498 31.118 44.1597 30.0802 45.9904 28.1579L37.3007 19.8821ZM38.3455 19.7C36.5919 19.7 34.2741 19.4125 31.3158 18.7185L28.5753 30.4014C32.097 31.2275 35.3792 31.7 38.3455 31.7V19.7ZM24.0749 23.321L21.5549 35.261L33.2962 37.739L35.8162 25.799L24.0749 23.321ZM27.4255 42.5H36.1855V30.5H27.4255V42.5ZM30.3211 35.232L29.3611 39.672L41.09 42.208L42.05 37.768L30.3211 35.232ZM35.2255 34.94H26.4655V46.94H35.2255V34.94ZM20.6001 39.6764L15.7401 62.2364L27.471 64.7636L32.331 42.2036L20.6001 39.6764ZM21.6055 57.5H12.9655V69.5H21.6055V57.5ZM18.8308 64.7644L27.4708 24.6844L15.7403 22.1556L7.10032 62.2356L18.8308 64.7644ZM39.3046 33.5V27.5H34.4433L33.4351 32.2557L39.3046 33.5ZM47.9446 33.5L53.8169 34.7313L55.3332 27.5H47.9446V33.5ZM47.1646 37.22L41.2923 35.9887L37.5838 53.6754L51.1343 41.719L47.1646 37.22ZM50.8246 34.46L47.8478 29.2505L47.8066 29.2741L47.7658 29.2982L50.8246 34.46ZM57.4246 34.82L52.7809 38.6194L52.8315 38.6813L52.8837 38.7417L57.4246 34.82ZM52.4446 41.78L47.3826 45.0013L47.5568 45.2749L47.7594 45.5282L52.4446 41.78ZM51.7846 39.92L57.6681 38.7433L57.6508 38.6568L57.631 38.5708L51.7846 39.92ZM48.6046 38.96L51.5814 44.1695L51.6369 44.1378L51.6916 44.105L48.6046 38.96ZM46.3846 40.7L42.339 36.2691L40.9115 37.5724L40.5133 39.4639L46.3846 40.7ZM41.5846 63.5V69.5H46.453L47.4559 64.7361L41.5846 63.5ZM32.9446 63.5L27.0751 62.2557L25.5393 69.5H32.9446V63.5ZM39.3046 39.5H47.9446V27.5H39.3046V39.5ZM42.0723 32.2687L41.2923 35.9887L53.0369 38.4513L53.8169 34.7313L42.0723 32.2687ZM51.1343 41.719C52.3249 40.6685 53.235 40.006 53.8834 39.6217L47.7658 29.2982C46.2543 30.194 44.7243 31.3715 43.1949 32.721L51.1343 41.719ZM53.8014 39.6695C54.0223 39.5433 54.1973 39.5 54.4246 39.5V27.5C52.0919 27.5 49.867 28.0967 47.8478 29.2505L53.8014 39.6695ZM54.4246 39.5C54.3738 39.5 54.0991 39.4895 53.7182 39.3219C53.3171 39.1454 52.9944 38.8804 52.7809 38.6194L62.0684 31.0206C60.0563 28.5614 57.2488 27.5 54.4246 27.5V39.5ZM52.8837 38.7417C52.7971 38.6414 52.6989 38.4875 52.6316 38.2998C52.6005 38.213 52.5829 38.1382 52.5736 38.0818C52.5644 38.0262 52.5646 37.997 52.5646 38H64.5646C64.5646 35.4238 63.7324 32.9441 61.9655 30.8983L52.8837 38.7417ZM52.5646 38C52.5646 37.9122 52.5815 37.7435 52.6571 37.5403C52.7327 37.3374 52.8294 37.2011 52.8837 37.1383L61.9655 44.9817C63.6643 43.0148 64.5646 40.6037 64.5646 38H52.5646ZM52.8837 37.1383C53.106 36.8809 53.4149 36.6514 53.7593 36.5084C54.0802 36.3753 54.2786 36.38 54.2446 36.38V48.38C57.0214 48.38 59.8682 47.4102 61.9655 44.9817L52.8837 37.1383ZM54.2446 36.38C54.2474 36.38 54.3173 36.3799 54.4406 36.3965C54.5628 36.4131 54.7692 36.4503 55.032 36.5379C55.571 36.7176 56.4143 37.1374 57.1298 38.0318L47.7594 45.5282C49.8245 48.1095 52.8068 48.38 54.2446 48.38V36.38ZM57.5066 38.5587C57.5872 38.6855 57.6403 38.7885 57.6725 38.8565C57.7047 38.9248 57.7204 38.9679 57.7242 38.9785C57.7298 38.9944 57.7045 38.9255 57.6681 38.7433L45.9011 41.0967C46.1336 42.2593 46.5452 43.6853 47.3826 45.0013L57.5066 38.5587ZM57.631 38.5708C57.4874 37.9486 57.2415 36.9975 56.7912 36.0967L46.058 41.4633C45.9866 41.3204 45.942 41.211 45.9192 41.1522C45.8955 41.0909 45.8841 41.0549 45.8831 41.0518C45.8818 41.0475 45.8868 41.0631 45.8972 41.1022C45.9075 41.1408 45.9213 41.1958 45.9383 41.2692L57.631 38.5708ZM56.7912 36.0967C56.2242 34.9627 55.3057 33.9315 54.0427 33.2426C52.8404 32.5868 51.657 32.42 50.7646 32.42V44.42C50.1922 44.42 49.2789 44.3132 48.2965 43.7774C47.2535 43.2085 46.505 42.3573 46.058 41.4633L56.7912 36.0967ZM50.7646 32.42C49.0561 32.42 47.2215 32.7927 45.5176 33.815L51.6916 44.105C51.1877 44.4073 50.7931 44.42 50.7646 44.42V32.42ZM45.6278 33.7505C44.477 34.4081 43.343 35.3524 42.339 36.2691L50.4302 45.1309C50.8124 44.782 51.1101 44.5304 51.3309 44.3573C51.5653 44.1736 51.6402 44.1359 51.5814 44.1695L45.6278 33.7505ZM40.5133 39.4639L35.7133 62.2639L47.4559 64.7361L52.2559 41.9361L40.5133 39.4639ZM41.5846 57.5H32.9446V69.5H41.5846V57.5ZM38.8142 64.7443L45.1742 34.7443L33.4351 32.2557L27.0751 62.2557L38.8142 64.7443ZM59.0432 62.06L54.7293 66.2301L54.7646 66.2667L54.8006 66.3026L59.0432 62.06ZM57.7832 52.76L51.9135 51.5166L51.9064 51.5499L51.8997 51.5833L57.7832 52.76ZM61.8632 33.5V27.5H57.0011L55.9935 32.2566L61.8632 33.5ZM70.5032 33.5L76.373 34.743L77.9068 27.5H70.5032V33.5ZM66.1832 53.9L60.3134 52.657L60.3064 52.6901L60.2997 52.7233L66.1832 53.9ZM70.6832 56.66L75.2108 60.5971L75.2522 60.5495L75.2925 60.5011L70.6832 56.66ZM72.6032 52.76L78.3616 54.4454L78.4257 54.2265L78.4729 54.0034L72.6032 52.76ZM76.6832 33.5V27.5H71.8211L70.8135 32.2566L76.6832 33.5ZM85.3232 33.5L91.193 34.743L92.7269 27.5H85.3232V33.5ZM81.0032 53.9L86.8006 55.446L86.8408 55.2954L86.873 55.143L81.0032 53.9ZM81.3032 57.56L77.0606 61.8026L77.2955 62.0376L77.555 62.2452L81.3032 57.56ZM86.1032 56.6L81.5877 52.649L81.5401 52.7034L81.4939 52.7589L86.1032 56.6ZM88.0832 52.76V46.76H83.619L82.3362 51.0359L88.0832 52.76ZM90.6032 52.76L96.2793 54.7046L99.0011 46.76H90.6032V52.76ZM85.0832 61.58L88.5362 66.4868L88.545 66.4806L88.5538 66.4744L85.0832 61.58ZM74.4032 62.42L70.248 66.7483L70.2904 66.789L70.3335 66.8288L74.4032 62.42ZM72.6032 58.16L78.5695 57.5253L76.7155 40.0971L67.4996 55.0051L72.6032 58.16ZM68.2832 62.66L65.4887 57.3505L65.4593 57.366L65.4301 57.3818L68.2832 62.66ZM63.7232 57.86C63.5555 57.86 63.4407 57.8469 63.3701 57.8347C63.3009 57.8228 63.2701 57.8111 63.2671 57.8099C63.2651 57.8092 63.2749 57.8131 63.2883 57.8218C63.3015 57.8305 63.301 57.8325 63.2858 57.8174L54.8006 66.3026C57.2772 68.7793 60.4397 69.86 63.7232 69.86V57.86ZM63.3571 57.8899C63.495 58.0325 63.4953 58.1135 63.4491 57.9698C63.3942 57.7995 63.3032 57.3951 63.3032 56.66H51.3032C51.3032 59.9349 52.0922 63.5022 54.7293 66.2301L63.3571 57.8899ZM63.3032 56.66C63.3032 56.2232 63.3822 55.359 63.6667 53.9367L51.8997 51.5833C51.5442 53.361 51.3032 55.0968 51.3032 56.66H63.3032ZM63.6529 54.0034L67.7329 34.7434L55.9935 32.2566L51.9135 51.5166L63.6529 54.0034ZM61.8632 39.5H70.5032V27.5H61.8632V39.5ZM64.6334 32.257L60.3134 52.657L72.053 55.143L76.373 34.743L64.6334 32.257ZM60.2997 52.7233C60.1154 53.6448 60.0032 54.6029 60.0032 55.58H72.0032C72.0032 55.5171 72.011 55.3552 72.0667 55.0767L60.2997 52.7233ZM60.0032 55.58C60.0032 56.9543 60.2229 59.071 61.611 60.9681C63.2546 63.2143 65.6828 64.04 67.8032 64.04V52.04C68.1819 52.04 68.7988 52.1053 69.5031 52.4261C70.2408 52.7622 70.8552 53.2803 71.2954 53.8819C72.0835 54.959 72.0032 55.8457 72.0032 55.58H60.0032ZM67.8032 64.04C70.826 64.04 73.3851 62.6967 75.2108 60.5971L66.1556 52.7229C66.2155 52.654 66.4119 52.4559 66.7705 52.2841C67.1419 52.1061 67.5137 52.04 67.8032 52.04V64.04ZM75.2925 60.5011C76.775 58.7222 77.7303 56.6026 78.3616 54.4454L66.8448 51.0746C66.5162 52.1974 66.1914 52.6778 66.0739 52.8189L75.2925 60.5011ZM78.4729 54.0034L82.5529 34.7434L70.8135 32.2566L66.7335 51.5166L78.4729 54.0034ZM76.6832 39.5H85.3232V27.5H76.6832V39.5ZM79.4534 32.257L75.1334 52.657L86.873 55.143L91.193 34.743L79.4534 32.257ZM75.2058 52.354C74.8992 53.5036 74.7632 54.6671 74.7632 55.82H86.7632C86.7632 55.6129 86.7872 55.4964 86.8006 55.446L75.2058 52.354ZM74.7632 55.82C74.7632 57.3297 75.0764 59.8185 77.0606 61.8026L85.5458 53.3174C86.1754 53.9469 86.4854 54.6151 86.6286 55.0766C86.7637 55.5119 86.7632 55.7965 86.7632 55.82H74.7632ZM77.555 62.2452C79.5492 63.8405 81.866 64.04 83.2232 64.04V52.04C83.1217 52.04 83.2546 52.0282 83.5384 52.0991C83.8237 52.1705 84.4131 52.3642 85.0514 52.8748L77.555 62.2452ZM83.2232 64.04C86.344 64.04 88.9214 62.5905 90.7125 60.4411L81.4939 52.7589C81.5376 52.7065 81.7279 52.4994 82.0999 52.3134C82.4896 52.1186 82.8935 52.04 83.2232 52.04V64.04ZM90.6187 60.551C92.1699 58.7782 93.1766 56.6627 93.8302 54.4841L82.3362 51.0359C82.0298 52.0573 81.7165 52.5018 81.5877 52.649L90.6187 60.551ZM88.0832 58.76H90.6032V46.76H88.0832V58.76ZM84.9271 50.8154C83.6005 54.6875 82.292 56.2039 81.6126 56.6856L88.5538 66.4744C92.2744 63.8361 94.6459 59.4725 96.2793 54.7046L84.9271 50.8154ZM81.6302 56.6732C80.2742 57.6274 79.2761 57.86 78.5432 57.86V69.86C82.2103 69.86 85.5722 68.5726 88.5362 66.4868L81.6302 56.6732ZM78.5432 57.86C78.2382 57.86 78.1445 57.8174 78.1893 57.833C78.2119 57.8409 78.2572 57.8594 78.3151 57.8938C78.3734 57.9285 78.4276 57.9694 78.4729 58.0112L70.3335 66.8288C72.7098 69.0223 75.6568 69.86 78.5432 69.86V57.86ZM78.5584 58.0917C78.7089 58.2361 78.7486 58.3435 78.7301 58.2997C78.7041 58.2383 78.6208 58.0071 78.5695 57.5253L66.6369 58.7947C66.9321 61.5694 67.9099 64.5037 70.248 66.7483L78.5584 58.0917ZM67.4996 55.0051C66.4392 56.7205 65.6977 57.2405 65.4887 57.3505L71.0777 67.9695C73.9087 66.4795 76.0472 63.9995 77.7068 61.3149L67.4996 55.0051ZM65.4301 57.3818C64.7559 57.7462 64.2097 57.86 63.7232 57.86V69.86C66.3567 69.86 68.8506 69.1738 71.1363 67.9382L65.4301 57.3818ZM89.3362 62.06L85.0222 66.2301L85.0576 66.2667L85.0935 66.3026L89.3362 62.06ZM88.0762 52.76L82.2084 51.5071L82.2003 51.5452L82.1927 51.5833L88.0762 52.76ZM91.6762 35.9L97.5439 37.1529L99.0926 29.9H91.6762V35.9ZM89.6962 35.9L83.8127 34.7233L82.3773 41.9H89.6962V35.9ZM90.1762 33.5V27.5H85.2573L84.2927 32.3233L90.1762 33.5ZM92.1562 33.5V39.5H96.992L98.0192 34.7746L92.1562 33.5ZM93.9562 25.22L93.1527 19.274L88.9862 19.8371L88.0931 23.9454L93.9562 25.22ZM102.836 24.02L108.702 25.2822L110.499 16.9299L102.033 18.074L102.836 24.02ZM100.796 33.5L94.9304 32.2378L93.3677 39.5H100.796V33.5ZM104.396 33.5L110.28 34.6767L111.715 27.5H104.396V33.5ZM103.916 35.9V41.9H108.835L109.8 37.0767L103.916 35.9ZM100.316 35.9V29.9H95.4612L94.4482 34.6482L100.316 35.9ZM96.4762 53.9L102.274 55.446L102.313 55.2998L102.344 55.1518L96.4762 53.9ZM96.7762 57.56L92.5335 61.8026L92.7685 62.0376L93.028 62.2452L96.7762 57.56ZM101.936 56.6L106.091 60.9283L106.136 60.8859L106.179 60.8426L101.936 56.6ZM104.096 52.76V46.76H99.5544L98.3215 51.1312L104.096 52.76ZM106.616 52.76L112.292 54.7046L115.014 46.76H106.616V52.76ZM100.916 61.58L104.204 66.5988L104.234 66.5791L104.264 66.5591L100.916 61.58ZM94.0162 57.86C93.8485 57.86 93.7336 57.8469 93.6631 57.8347C93.5939 57.8228 93.5631 57.8111 93.56 57.8099C93.558 57.8092 93.5678 57.8131 93.5813 57.8218C93.5945 57.8305 93.5939 57.8325 93.5788 57.8174L85.0935 66.3026C87.5702 68.7793 90.7327 69.86 94.0162 69.86V57.86ZM93.6501 57.8899C93.7879 58.0325 93.7883 58.1135 93.742 57.9698C93.6871 57.7995 93.5962 57.3951 93.5962 56.66H81.5962C81.5962 59.9349 82.3852 63.5022 85.0222 66.2301L93.6501 57.8899ZM93.5962 56.66C93.5962 56.2232 93.6752 55.359 93.9597 53.9367L82.1927 51.5833C81.8372 53.361 81.5962 55.0968 81.5962 56.66H93.5962ZM93.9439 54.0129L97.5439 37.1529L85.8084 34.6471L82.2084 51.5071L93.9439 54.0129ZM91.6762 29.9H89.6962V41.9H91.6762V29.9ZM95.5797 37.0767L96.0597 34.6767L84.2927 32.3233L83.8127 34.7233L95.5797 37.0767ZM90.1762 39.5H92.1562V27.5H90.1762V39.5ZM98.0192 34.7746L99.8192 26.4946L88.0931 23.9454L86.2931 32.2254L98.0192 34.7746ZM94.7597 31.166L103.64 29.966L102.033 18.074L93.1527 19.274L94.7597 31.166ZM96.9704 22.7578L94.9304 32.2378L106.662 34.7622L108.702 25.2822L96.9704 22.7578ZM100.796 39.5H104.396V27.5H100.796V39.5ZM98.5127 32.3233L98.0327 34.7233L109.8 37.0767L110.28 34.6767L98.5127 32.3233ZM103.916 29.9H100.316V41.9H103.916V29.9ZM94.4482 34.6482L90.6082 52.6482L102.344 55.1518L106.184 37.1518L94.4482 34.6482ZM90.6788 52.354C90.3722 53.5036 90.2362 54.6671 90.2362 55.82H102.236C102.236 55.6129 102.26 55.4963 102.274 55.446L90.6788 52.354ZM90.2362 55.82C90.2362 57.3297 90.5494 59.8185 92.5335 61.8026L101.019 53.3174C101.648 53.9469 101.958 54.6151 102.102 55.0766C102.237 55.5119 102.236 55.7965 102.236 55.82H90.2362ZM93.028 62.2452C95.0222 63.8405 97.339 64.04 98.6962 64.04V52.04C98.5946 52.04 98.7276 52.0282 99.0114 52.0991C99.2967 52.1705 99.8861 52.3642 100.524 52.8748L93.028 62.2452ZM98.6962 64.04C101.699 64.04 104.206 62.7382 106.091 60.9283L97.781 52.2717C97.6977 52.3517 97.7447 52.2836 97.9393 52.1971C98.1516 52.1028 98.4205 52.04 98.6962 52.04V64.04ZM106.179 60.8426C108.005 59.0164 109.193 56.7906 109.871 54.3888L98.3215 51.1312C98.1189 51.8494 97.8673 52.1836 97.6935 52.3574L106.179 60.8426ZM104.096 58.76H106.616V46.76H104.096V58.76ZM100.94 50.8154C99.6373 54.618 98.3051 56.1055 97.5682 56.6009L104.264 66.5591C108.167 63.9345 110.635 59.542 112.292 54.7046L100.94 50.8154ZM97.628 56.5612C96.0718 57.5808 94.8966 57.86 94.0162 57.86V69.86C97.6957 69.86 101.121 68.6192 104.204 66.5988L97.628 56.5612ZM110.732 22.16L114.975 26.4026L115.02 26.3575L115.064 26.3114L110.732 22.16ZM117.452 22.16L113.12 26.3114L113.209 26.4036L113.301 26.4919L117.452 22.16ZM117.452 28.88L113.301 24.5481L113.255 24.5922L113.21 24.6374L117.452 28.88ZM105.332 62.06L101.018 66.2301L101.054 66.2667L101.09 66.3026L105.332 62.06ZM104.072 52.76L98.2025 51.5166L98.1955 51.5499L98.1888 51.5833L104.072 52.76ZM108.152 33.5V27.5H103.29L102.283 32.2566L108.152 33.5ZM116.792 33.5L122.662 34.743L124.196 27.5H116.792V33.5ZM112.472 53.9L118.27 55.446L118.31 55.2954L118.342 55.143L112.472 53.9ZM112.772 57.56L108.53 61.8026L108.765 62.0376L109.024 62.2452L112.772 57.56ZM117.932 56.6L122.087 60.9283L122.132 60.8859L122.175 60.8426L117.932 56.6ZM120.092 52.76V46.76H115.55L114.318 51.1312L120.092 52.76ZM122.612 52.76L128.288 54.7046L131.01 46.76H122.612V52.76ZM116.912 61.58L120.2 66.5988L120.23 66.5791L120.26 66.5591L116.912 61.58ZM114.092 24.26C114.143 24.26 114.316 24.272 114.542 24.3649C114.77 24.4585 114.916 24.5783 114.975 24.6374L106.49 33.1226C108.553 35.1861 111.207 36.26 114.092 36.26V24.26ZM114.975 24.6374C115.034 24.6965 115.154 24.8426 115.247 25.0705C115.34 25.2966 115.352 25.4691 115.352 25.52H103.352C103.352 28.4053 104.426 31.0592 106.49 33.1226L114.975 24.6374ZM115.352 25.52C115.352 25.5709 115.34 25.7434 115.247 25.9695C115.154 26.1974 115.034 26.3435 114.975 26.4026L106.49 17.9174C104.426 19.9808 103.352 22.6347 103.352 25.52H115.352ZM115.064 26.3114C115.018 26.3601 114.872 26.4893 114.626 26.5949C114.379 26.7008 114.176 26.72 114.092 26.72V14.72C111.123 14.72 108.443 15.8775 106.4 18.0086L115.064 26.3114ZM114.092 26.72C114.008 26.72 113.806 26.7008 113.559 26.5949C113.312 26.4893 113.167 26.3601 113.12 26.3114L121.784 18.0086C119.742 15.8775 117.061 14.72 114.092 14.72V26.72ZM113.301 26.4919C113.252 26.4453 113.123 26.2998 113.017 26.0535C112.911 25.8063 112.892 25.6042 112.892 25.52H124.892C124.892 22.5509 123.735 19.8704 121.604 17.8281L113.301 26.4919ZM112.892 25.52C112.892 25.4358 112.911 25.2337 113.017 24.9865C113.123 24.7402 113.252 24.5947 113.301 24.5481L121.604 33.2119C123.735 31.1696 124.892 28.4891 124.892 25.52H112.892ZM113.21 24.6374C113.269 24.5783 113.415 24.4585 113.643 24.3649C113.869 24.272 114.041 24.26 114.092 24.26V36.26C116.978 36.26 119.631 35.1861 121.695 33.1226L113.21 24.6374ZM110.012 57.86C109.845 57.86 109.73 57.8469 109.659 57.8347C109.59 57.8228 109.559 57.8111 109.556 57.8099C109.554 57.8092 109.564 57.8131 109.577 57.8218C109.591 57.8305 109.59 57.8325 109.575 57.8174L101.09 66.3026C103.566 68.7793 106.729 69.86 110.012 69.86V57.86ZM109.646 57.8899C109.784 58.0325 109.784 58.1135 109.738 57.9698C109.683 57.7995 109.592 57.3951 109.592 56.66H97.5923C97.5923 59.9349 98.3813 63.5022 101.018 66.2301L109.646 57.8899ZM109.592 56.66C109.592 56.2232 109.671 55.359 109.956 53.9367L98.1888 51.5833C97.8333 53.361 97.5923 55.0968 97.5923 56.66H109.592ZM109.942 54.0034L114.022 34.7434L102.283 32.2566L98.2025 51.5166L109.942 54.0034ZM108.152 39.5H116.792V27.5H108.152V39.5ZM110.922 32.257L106.602 52.657L118.342 55.143L122.662 34.743L110.922 32.257ZM106.675 52.354C106.368 53.5036 106.232 54.6671 106.232 55.82H118.232C118.232 55.6129 118.256 55.4963 118.27 55.446L106.675 52.354ZM106.232 55.82C106.232 57.3297 106.545 59.8185 108.53 61.8026L117.015 53.3174C117.644 53.9469 117.954 54.6151 118.098 55.0766C118.233 55.5119 118.232 55.7965 118.232 55.82H106.232ZM109.024 62.2452C111.018 63.8405 113.335 64.04 114.692 64.04V52.04C114.591 52.04 114.724 52.0282 115.007 52.0991C115.293 52.1705 115.882 52.3642 116.52 52.8748L109.024 62.2452ZM114.692 64.04C117.696 64.04 120.202 62.7382 122.087 60.9283L113.777 52.2717C113.694 52.3517 113.741 52.2836 113.935 52.1971C114.148 52.1028 114.417 52.04 114.692 52.04V64.04ZM122.175 60.8426C124.001 59.0164 125.19 56.7906 125.867 54.3888L114.318 51.1312C114.115 51.8494 113.863 52.1836 113.69 52.3574L122.175 60.8426ZM120.092 58.76H122.612V46.76H120.092V58.76ZM116.936 50.8154C115.633 54.618 114.301 56.1055 113.564 56.6009L120.26 66.5591C124.163 63.9345 126.631 59.542 128.288 54.7046L116.936 50.8154ZM113.624 56.5612C112.068 57.5808 110.893 57.86 110.012 57.86V69.86C113.692 69.86 117.117 68.6192 120.2 66.5988L113.624 56.5612ZM134.948 54.26L140.84 55.3931L140.844 55.3728L140.848 55.3525L134.948 54.26ZM135.548 51.14L129.714 49.7398L129.687 49.8511L129.665 49.9633L135.548 51.14ZM136.028 49.22L141.798 50.8683L141.842 50.7137L141.878 50.557L136.028 49.22ZM132.428 40.28L137.114 44.0282L137.149 43.9836L137.184 43.9383L132.428 40.28ZM130.508 44.24L124.75 42.5546L124.686 42.7735L124.639 42.9966L130.508 44.24ZM126.428 63.5V69.5H131.29L132.298 64.7434L126.428 63.5ZM117.788 63.5L111.919 62.2557L110.383 69.5H117.788V63.5ZM124.148 33.5V27.5H119.287L118.279 32.2557L124.148 33.5ZM132.788 33.5L138.658 34.7418L140.19 27.5H132.788V33.5ZM132.128 36.62L126.258 35.3782L121.594 57.4272L136.604 40.6161L132.128 36.62ZM145.388 43.94L151.272 45.1167L151.275 45.101L151.278 45.0852L145.388 43.94ZM144.188 49.1L149.998 50.5993L150 50.5906L150.002 50.582L144.188 49.1ZM143.288 52.76L137.445 51.3966L137.428 51.4703L137.413 51.5444L143.288 52.76ZM147.308 57.68L153.267 58.381L154.784 45.4848L143.98 52.6877L147.308 57.68ZM145.088 62.3L141.233 57.7029L141.195 57.7341L141.159 57.7659L145.088 62.3ZM140.708 57.86C140.233 57.86 140.137 57.786 140.266 57.8394C140.336 57.8684 140.446 57.925 140.572 58.0214C140.698 58.1188 140.806 58.2302 140.888 58.34L131.288 65.54C133.73 68.7949 137.367 69.86 140.708 69.86V57.86ZM140.888 58.34C140.869 58.3144 140.648 58.0402 140.648 57.08H128.648C128.648 60.0398 129.388 63.0056 131.288 65.54L140.888 58.34ZM140.648 57.08C140.648 56.7035 140.695 56.1514 140.84 55.3931L129.056 53.1269C128.802 54.4486 128.648 55.7765 128.648 57.08H140.648ZM140.848 55.3525C141.043 54.2985 141.238 53.2866 141.432 52.3167L129.665 49.9633C129.459 50.9934 129.253 52.0615 129.049 53.1675L140.848 55.3525ZM141.383 52.5402C141.5 52.0497 141.596 51.6598 141.669 51.3652C141.706 51.2181 141.736 51.1014 141.759 51.012C141.771 50.9677 141.78 50.9332 141.787 50.9073C141.79 50.8946 141.793 50.8849 141.795 50.878C141.797 50.871 141.798 50.868 141.798 50.8683L130.259 47.5717C130.137 48.0001 129.945 48.7755 129.714 49.7398L141.383 52.5402ZM141.878 50.557C142.207 49.1161 142.516 47.6938 142.805 46.2899L131.052 43.8701C130.781 45.1862 130.49 46.5239 130.179 47.883L141.878 50.557ZM142.805 46.2899C143.121 44.7536 143.348 43.2032 143.348 41.78H131.348C131.348 42.0368 131.295 42.6864 131.052 43.8701L142.805 46.2899ZM143.348 41.78C143.348 40.237 143.109 38.0067 141.71 36.0249C140.041 33.6604 137.514 32.72 135.188 32.72V44.72C134.842 44.72 134.25 44.6573 133.571 44.3367C132.862 44.0016 132.296 43.4963 131.907 42.9451C131.228 41.9833 131.348 41.283 131.348 41.78H143.348ZM135.188 32.72C131.808 32.72 129.281 34.5304 127.673 36.6217L137.184 43.9383C137.209 43.9063 137.058 44.1146 136.671 44.3334C136.245 44.5739 135.72 44.72 135.188 44.72V32.72ZM127.743 36.5318C126.321 38.31 125.38 40.4008 124.75 42.5546L136.267 45.9254C136.596 44.7992 136.936 44.25 137.114 44.0282L127.743 36.5318ZM124.639 42.9966L120.559 62.2566L132.298 64.7434L136.378 45.4834L124.639 42.9966ZM126.428 57.5H117.788V69.5H126.428V57.5ZM123.658 64.7443L130.018 34.7443L118.279 32.2557L111.919 62.2557L123.658 64.7443ZM124.148 39.5H132.788V27.5H124.148V39.5ZM126.918 32.2582L126.258 35.3782L137.998 37.8618L138.658 34.7418L126.918 32.2582ZM136.604 40.6161C137.618 39.48 138.394 39.26 139.148 39.26V27.26C134.543 27.26 130.638 29.28 127.653 32.6239L136.604 40.6161ZM139.148 39.26C139.625 39.26 139.861 39.3257 139.933 39.3507C139.986 39.3689 139.955 39.3643 139.914 39.3263L148.102 30.5537C145.538 28.1601 142.322 27.26 139.148 27.26V39.26ZM139.914 39.3263C139.839 39.2558 139.779 39.1813 139.738 39.117C139.699 39.0547 139.691 39.0257 139.7 39.0519C139.723 39.1162 139.808 39.4082 139.808 40.04H151.808C151.808 36.7626 150.932 33.1943 148.102 30.5537L139.914 39.3263ZM139.808 40.04C139.808 40.7304 139.724 41.6381 139.499 42.7948L151.278 45.0852C151.613 43.3619 151.808 41.6696 151.808 40.04H139.808ZM139.505 42.7633C139.252 44.0254 138.879 45.6366 138.374 47.618L150.002 50.582C150.537 48.4834 150.964 46.6546 151.272 45.1167L139.505 42.7633ZM138.379 47.6007C138.047 48.8841 137.736 50.1495 137.445 51.3966L149.131 54.1234C149.4 52.9705 149.689 51.7959 149.998 50.5993L138.379 47.6007ZM137.413 51.5444C137.141 52.8567 136.928 54.2391 136.928 55.52H148.928C148.928 55.5234 148.928 55.4901 148.934 55.4137C148.94 55.3384 148.95 55.2336 148.968 55.096C149.004 54.8171 149.066 54.4476 149.164 53.9756L137.413 51.5444ZM136.928 55.52C136.928 57.1498 137.291 59.3047 138.825 61.1794L148.112 53.5806C148.926 54.5753 148.928 55.4902 148.928 55.52H136.928ZM138.825 61.1794C140.832 63.6324 143.643 64.04 145.328 64.04V52.04C145.356 52.04 145.699 52.0392 146.21 52.2204C146.767 52.4181 147.496 52.8273 148.112 53.5806L138.825 61.1794ZM145.328 64.04C146.029 64.04 146.817 63.9985 147.617 63.8532C148.355 63.7189 149.504 63.4271 150.637 62.6723L143.98 52.6877C144.393 52.4128 144.754 52.261 144.985 52.1796C145.22 52.0967 145.392 52.0609 145.47 52.0468C145.609 52.0215 145.588 52.04 145.328 52.04V64.04ZM141.349 56.979C141.292 57.4694 141.197 57.701 141.165 57.7663C141.144 57.8111 141.163 57.7614 141.233 57.7029L148.944 66.8971C151.648 64.6293 152.899 61.5144 153.267 58.381L141.349 56.979ZM141.159 57.7659C141.128 57.7923 141.11 57.8033 141.104 57.8069C141.098 57.8103 141.092 57.8136 141.08 57.8178C141.063 57.8238 140.957 57.86 140.708 57.86V69.86C143.742 69.86 146.633 68.9012 149.018 66.8341L141.159 57.7659Z" fill="white"/>
<path d="M21.6055 23.42C19.0855 23.5 17.1455 24.46 15.7855 26.3C14.4655 28.14 13.8055 31.32 13.8055 35.84C13.8055 37.32 13.9455 38.36 14.2255 38.96C14.5055 39.52 14.6455 39.84 14.6455 39.92C12.4855 39.92 10.8655 39.48 9.78559 38.6C8.74559 37.68 8.22559 36.18 8.22559 34.1C8.22559 31.26 8.92559 28.68 10.3255 26.36C11.7255 24 13.9455 22.1 16.9855 20.66C20.0655 19.22 23.9655 18.5 28.6855 18.5C29.6455 18.5 30.9255 18.6 32.5255 18.8C35.4055 19.08 37.4455 19.22 38.6455 19.22C40.7655 19.22 42.5655 18.98 44.0455 18.5C43.9255 18.86 43.7055 19.66 43.3855 20.9C43.0655 22.1 42.4855 23.14 41.6455 24.02C40.8455 24.86 39.7455 25.42 38.3455 25.7C35.9855 25.7 33.1855 25.32 29.9455 24.56L27.4255 36.5H36.1855L35.2255 40.94H26.4655L21.6055 63.5H12.9655L21.6055 23.42ZM39.3046 33.5H47.9446L47.1646 37.22C48.5246 36.02 49.7446 35.1 50.8246 34.46C51.9446 33.82 53.1446 33.5 54.4246 33.5C55.7046 33.5 56.7046 33.94 57.4246 34.82C58.1846 35.7 58.5646 36.76 58.5646 38C58.5646 39.16 58.1846 40.18 57.4246 41.06C56.6646 41.94 55.6046 42.38 54.2446 42.38C53.3646 42.38 52.7646 42.18 52.4446 41.78C52.1646 41.34 51.9446 40.72 51.7846 39.92C51.6646 39.4 51.5446 39.02 51.4246 38.78C51.3046 38.54 51.0846 38.42 50.7646 38.42C49.9246 38.42 49.2046 38.6 48.6046 38.96C48.0446 39.28 47.3046 39.86 46.3846 40.7L41.5846 63.5H32.9446L39.3046 33.5ZM63.7232 63.86C61.8032 63.86 60.2432 63.26 59.0432 62.06C57.8832 60.86 57.3032 59.06 57.3032 56.66C57.3032 55.66 57.4632 54.36 57.7832 52.76L61.8632 33.5H70.5032L66.1832 53.9C66.0632 54.5 66.0032 55.06 66.0032 55.58C66.0032 57.22 66.6032 58.04 67.8032 58.04C68.9232 58.04 69.8832 57.58 70.6832 56.66C71.4832 55.7 72.1232 54.4 72.6032 52.76L76.6832 33.5H85.3232L81.0032 53.9C80.8432 54.5 80.7632 55.14 80.7632 55.82C80.7632 56.62 80.9432 57.2 81.3032 57.56C81.7032 57.88 82.3432 58.04 83.2232 58.04C84.3432 58.04 85.3032 57.56 86.1032 56.6C86.9432 55.64 87.6032 54.36 88.0832 52.76H90.6032C89.1232 57.08 87.2832 60.02 85.0832 61.58C82.9232 63.1 80.7432 63.86 78.5432 63.86C76.8232 63.86 75.4432 63.38 74.4032 62.42C73.4032 61.46 72.8032 60.04 72.6032 58.16C71.2432 60.36 69.8032 61.86 68.2832 62.66C66.8032 63.46 65.2832 63.86 63.7232 63.86ZM94.0162 63.86C92.0962 63.86 90.5362 63.26 89.3362 62.06C88.1762 60.86 87.5962 59.06 87.5962 56.66C87.5962 55.66 87.7562 54.36 88.0762 52.76L91.6762 35.9H89.6962L90.1762 33.5H92.1562L93.9562 25.22L102.836 24.02L100.796 33.5H104.396L103.916 35.9H100.316L96.4762 53.9C96.3162 54.5 96.2362 55.14 96.2362 55.82C96.2362 56.62 96.4162 57.2 96.7762 57.56C97.1762 57.88 97.8162 58.04 98.6962 58.04C99.8562 58.04 100.936 57.56 101.936 56.6C102.936 55.6 103.656 54.32 104.096 52.76H106.616C105.136 57.08 103.236 60.02 100.916 61.58C98.5962 63.1 96.2962 63.86 94.0162 63.86ZM114.092 30.26C112.772 30.26 111.652 29.8 110.732 28.88C109.812 27.96 109.352 26.84 109.352 25.52C109.352 24.2 109.812 23.08 110.732 22.16C111.652 21.2 112.772 20.72 114.092 20.72C115.412 20.72 116.532 21.2 117.452 22.16C118.412 23.08 118.892 24.2 118.892 25.52C118.892 26.84 118.412 27.96 117.452 28.88C116.532 29.8 115.412 30.26 114.092 30.26ZM110.012 63.86C108.092 63.86 106.532 63.26 105.332 62.06C104.172 60.86 103.592 59.06 103.592 56.66C103.592 55.66 103.752 54.36 104.072 52.76L108.152 33.5H116.792L112.472 53.9C112.312 54.5 112.232 55.14 112.232 55.82C112.232 56.62 112.412 57.2 112.772 57.56C113.172 57.88 113.812 58.04 114.692 58.04C115.852 58.04 116.932 57.56 117.932 56.6C118.932 55.6 119.652 54.32 120.092 52.76H122.612C121.132 57.08 119.232 60.02 116.912 61.58C114.592 63.1 112.292 63.86 110.012 63.86ZM140.708 63.86C138.588 63.86 137.048 63.22 136.088 61.94C135.128 60.66 134.648 59.04 134.648 57.08C134.648 56.24 134.748 55.3 134.948 54.26C135.148 53.18 135.348 52.14 135.548 51.14C135.788 50.14 135.948 49.5 136.028 49.22C136.348 47.82 136.648 46.44 136.928 45.08C137.208 43.72 137.348 42.62 137.348 41.78C137.348 39.74 136.628 38.72 135.188 38.72C134.148 38.72 133.228 39.24 132.428 40.28C131.628 41.28 130.988 42.6 130.508 44.24L126.428 63.5H117.788L124.148 33.5H132.788L132.128 36.62C134.128 34.38 136.468 33.26 139.148 33.26C141.188 33.26 142.808 33.82 144.008 34.94C145.208 36.06 145.808 37.76 145.808 40.04C145.808 41.2 145.668 42.5 145.388 43.94C145.108 45.34 144.708 47.06 144.188 49.1C143.868 50.34 143.568 51.56 143.288 52.76C143.048 53.92 142.928 54.84 142.928 55.52C142.928 56.32 143.108 56.94 143.468 57.38C143.828 57.82 144.448 58.04 145.328 58.04C146.288 58.04 146.948 57.92 147.308 57.68C147.068 59.72 146.328 61.26 145.088 62.3C143.888 63.34 142.428 63.86 140.708 63.86Z" fill="#017D03"/>
<path d="M94.9998 0.5C94.9998 0.5 64.3411 0.768623 66.0748 22.8916C68.8259 19.86 74.3094 14.3724 81.357 10.1704C81.357 10.1704 71.2379 19.4379 67.7142 26.211L67.7895 26.2685C67.7707 26.2877 87.1797 30.6624 94.9998 0.5Z" fill="white"/>
<path d="M51 11.4944C51 11.4944 66.8099 13.5474 64.5863 24.8487C63.3426 23.1219 60.8364 19.9368 57.4634 17.3273C57.4634 17.3273 62.1366 22.7381 63.5499 26.4605L63.5122 26.4797C63.4934 26.4797 53.2236 27.535 51 11.4944Z" fill="white"/>
<path d="M59.8745 5.10474C59.8745 5.10474 68.1657 9.15326 64.9435 14.9286C64.5666 13.739 63.7752 11.5517 62.3807 9.49863C62.3807 9.49863 63.9824 13.3361 64.0767 15.6194H64.039C64.0578 15.6386 58.2351 14.3146 59.8745 5.10474Z" fill="white"/>
<path d="M132.882 22.8711C135.434 22.8711 137.502 20.7941 137.502 18.2319C137.502 15.6698 135.434 13.5928 132.882 13.5928C130.33 13.5928 128.261 15.6698 128.261 18.2319C128.261 20.7941 130.33 22.8711 132.882 22.8711Z" fill="white"/>
<path d="M135.551 9.31443C136.6 9.31443 137.45 8.46054 137.45 7.40721C137.45 6.35389 136.6 5.5 135.551 5.5C134.502 5.5 133.651 6.35389 133.651 7.40721C133.651 8.46054 134.502 9.31443 135.551 9.31443Z" fill="white"/>
<path d="M125.591 25.5001C126.47 25.5001 127.183 24.7846 127.183 23.9021C127.183 23.0196 126.47 22.3042 125.591 22.3042C124.713 22.3042 124 23.0196 124 23.9021C124 24.7846 124.713 25.5001 125.591 25.5001Z" fill="white"/>
<path d="M148.022 22.3041C149.667 22.3041 151 20.9655 151 19.3144C151 17.6632 149.667 16.3247 148.022 16.3247C146.378 16.3247 145.044 17.6632 145.044 19.3144C145.044 20.9655 146.378 22.3041 148.022 22.3041Z" fill="white"/>
</g>
<defs>
<clipPath id="clip0_1289_420">
<rect width="155" height="69" fill="white" transform="translate(0 0.5)"/>
</clipPath>
</defs>
</svg>
