<svg width="156" height="122" viewBox="0 0 156 122" fill="none" xmlns="http://www.w3.org/2000/svg">
<path d="M36.1506 52.0357C35.3865 55.0855 32.1339 52.9141 31.7689 50.7267C31.586 49.5331 33.1464 46.2193 31.8182 39.922C28.8471 25.0406 21.0791 18.2122 20.5814 17.7986C26.4572 26.2502 27.7843 33.6087 27.9844 37.6191C24.8806 38.63 21.0298 38.0337 16.8964 35.001C2.95398 24.7595 13.3613 16.0087 0 0C0 0 21.6773 2.81687 31.603 15.2799C36.9479 21.9748 36.3004 30.1453 32.3993 34.6527C35.1713 40.6669 36.8645 46.7654 36.1506 52.0357Z" fill="#017D03"/>
<path d="M115.417 41.0077C115.587 41.6873 116.312 41.2035 116.393 40.7166C116.434 40.4506 116.087 39.7127 116.382 38.3093C117.044 34.9945 118.774 33.4737 118.886 33.3813C117.577 35.2636 117.281 36.9029 117.237 37.7964C117.929 38.0212 118.786 37.8887 119.706 37.2131C122.812 34.9313 120.494 32.9828 123.471 29.416C123.471 29.416 118.642 30.0435 116.431 32.8202C115.24 34.3119 115.384 36.1319 116.253 37.1358C115.635 38.476 115.258 39.8342 115.417 41.0077Z" fill="#017D03"/>
<path d="M116.66 49.8374C116.66 49.8374 128.55 46.2174 128.55 38.3902C128.55 34.5835 141.702 39.0959 136.602 49.8374C131.502 60.5788 116.66 52.6854 116.66 52.6854V49.8374Z" fill="#017D03"/>
<path d="M40.9096 47.6617C40.9096 47.6617 60.6242 37.5075 71.2638 14.5429C73.7673 9.54365 67.5085 4.38877 57.3385 22.8229C47.1684 41.257 38.0934 64.5347 45.2903 69.8462C52.4882 75.1577 60.6243 50.1623 49.2025 48.9125C45.7709 48.2409 48.7329 41.0592 58.2776 40.221C67.8222 39.3827 72.8293 47.6627 69.074 58.2857C65.3186 68.9086 53.1146 75.3143 43.57 73.7513C34.0253 72.1893 22.2908 65.628 37.9375 30.7896C53.5841 -4.04777 71.7344 -3.11116 75.3329 10.4803C78.9313 24.0717 42.0055 48.7549 42.0055 48.7549L40.9096 47.6617Z" fill="#017D03"/>
<path d="M105.91 50.2363C105.91 50.2363 97.656 52.9829 100.206 61.827C102.756 70.6711 113.559 59.75 113.559 47.9585C113.559 36.167 103.526 37.6758 104.031 44.4751C104.535 51.2733 112.352 53.1847 118.122 49.1651V52.3926C118.122 52.3926 105.015 56.7414 101.747 45.3896C101.675 45.1376 101.606 44.8776 101.544 44.6096C98.6615 32.282 117.048 32.1475 120.001 45.1456C122.954 58.1438 110.875 80.3414 94.0998 72.2572C77.324 64.173 88.0058 42.0608 102.555 40.7206L103.002 45.5482L105.91 50.2363Z" fill="#017D03"/>
<path d="M65.6534 67.7362C68.4053 67.7362 74.7798 63.5822 74.7798 42.8131C74.7798 39.4632 86.3213 40.6688 85.5159 49.2449C84.7106 57.821 81.0035 73.2304 72.7247 73.9C65.5197 74.8376 62.0298 67.7362 65.6534 67.7362Z" fill="#017D03"/>
<path d="M86.951 33.5658C86.951 36.2301 84.1216 38.3894 80.6308 38.3894C77.1399 38.3894 74.3105 36.2301 74.3105 33.5658C74.3105 30.9015 77.1399 28.7422 80.6308 28.7422C84.1216 28.7422 86.951 30.9015 86.951 33.5658Z" fill="#017D03"/>
<path d="M130.462 97.8742C130.462 97.8742 122.181 108.045 118.149 108.045C114.117 108.045 117.876 98.8499 124.305 93.7653C124.305 93.7653 119.892 98.1834 121.853 100.906C123.814 103.628 125.231 102.396 124.632 101.83C124.033 101.265 125.585 98.7224 127.738 96.6936C129.89 94.6648 131.062 92.5326 129.808 90.6322C128.555 88.7319 123.706 86.8306 119.183 91.095C114.661 95.3585 110.194 102.344 111.883 107.071C113.572 111.797 120.11 113.852 130.461 99.3137V97.8742H130.462Z" fill="#080809"/>
<path d="M86.0738 96.7618C86.0738 96.7618 79.2629 106.227 75.9942 107.152C72.7256 108.076 76.7031 99.0467 80.4072 96.2177C84.1122 93.3888 84.7115 95.4558 85.3107 95.4558C85.9099 95.4558 88.9614 94.1046 88.0344 91.0538C87.1084 88.003 83.6758 86.5886 79.8079 88.8192C75.939 91.0498 71.7443 98.6652 71.1993 103.779C70.6544 108.893 76.4839 114.659 84.7657 103.289C93.0475 91.9192 98.8439 86.1519 98.4347 81.5823C98.0265 77.0127 93.3673 77.9101 89.1183 84.9282C84.8683 91.9453 82.6402 97.2236 84.1122 106.689C85.5832 116.155 96.2076 100.651 97.6786 96.2449L96.7797 95.2661C96.7797 95.2661 93.8378 103.426 89.0158 106.037C87.3809 106.853 86.3221 102.249 87.0541 96.3262C87.786 90.4043 92.5921 80.726 93.9403 82.0722C95.2886 83.4194 86.0738 96.7618 86.0738 96.7618Z" fill="#080809"/>
<path d="M71.1799 95.1563C71.1799 95.1563 69.8165 97.3227 65.4489 98.6227C61.0813 99.9217 61.1908 94.3201 64.182 91.7642C67.1732 89.2084 70.9919 88.7566 70.9577 90.8618C70.9245 92.9669 63.4209 106.32 58.9416 108.055C57.8226 108.322 58.5576 100.167 61.5357 98.2282C62.9855 97.3197 64.5078 95.3701 63.1353 93.9075C61.7629 92.4449 58.5264 91.7351 56.6804 94.5801C54.8344 97.4251 51.9659 104.76 54.4141 109.137C56.8614 113.514 64.2363 112.636 71.3568 99.477C76.6585 89.6782 69.8296 82.4634 62.8106 88.5117C58.1293 92.5452 57.8447 96.2967 59.7269 98.7622C61.6091 101.229 65.9455 101.369 71.1115 97.1169L71.1799 95.1563Z" fill="#080809"/>
<path d="M25.4903 86.2829C21.7038 89.7282 11.0471 104.25 8.98798 110.942C6.92783 117.634 10.5796 122.854 13.8694 121.882C14.6848 121.824 11.1949 120.004 13.8081 111.894C16.4212 103.783 26.1197 92.6795 27.3996 91.2038C28.945 89.424 26.7421 85.1435 25.4903 86.2829Z" fill="#080809"/>
<path d="M22.5282 95.248C22.5282 95.248 28.3155 94.8284 26.2121 100.913C25.5103 101.721 25.3998 98.7244 21.6042 101.777C17.8087 104.83 17.5704 109.51 20.0166 109.335C22.4618 109.161 33.2874 104.733 35.9398 91.4534C36.9482 85.7092 30.3837 82.534 22.681 86.3256C14.9784 90.1162 14.6486 95.4307 15.9888 96.5892C16.7158 97.2186 14.9693 99.9271 11.5096 96.5822C8.04985 93.2383 10.1723 87.0795 18.1756 82.9074C26.1789 78.7353 33.9379 80.2954 37.0045 84.9634C40.0701 89.6314 41.164 97.2568 33.0039 105.339C24.6316 113.632 13.5617 114.486 14.2364 107.186L22.5282 95.248Z" fill="#080809"/>
<path d="M32.9802 105.408C36.1413 108.564 46.1383 94.0665 48.3443 88.0282C50.5512 81.9899 45.0947 81.4187 42.7148 82.3162C40.3349 83.2136 40.0082 87.3757 45.4838 86.5595C50.9594 85.7434 55.7815 85.4984 56.5989 87.457C57.4164 89.4155 58.274 91.6592 57.3349 92.5978C56.3948 93.5364 43.852 105.572 45.3632 108.999C46.0569 110.631 55.864 102.471 56.7629 98.9624L57.7452 99.126C57.7452 99.126 49.9791 110.631 43.6861 111.529C37.393 112.426 39.7628 105.654 43.7675 100.268C47.7722 94.8826 50.6729 91.9041 49.7338 90.9665C48.7937 90.0279 41.5204 90.9254 38.5372 87.9469C35.5541 84.9684 39.9267 80.5212 44.1757 79.8687C48.4257 79.2162 53.4921 82.2348 50.4688 88.2731C47.4444 94.3114 36.9024 109.897 32.9791 109.897C30.6918 109.896 32.0813 104.51 32.9802 105.408Z" fill="#080809"/>
<path d="M138.957 73.3721C138.906 71.8231 144.541 74.128 144.114 76.8836C143.688 79.6393 130.452 104.23 132.733 106.757C133.929 108.092 136.379 107.425 135.94 103.825C135.73 102.102 136.425 96.8888 139.449 99.1736C143.063 101.904 136.236 109.943 131.272 110.56C126.308 111.176 127.054 102.346 130.581 94.4474C134.11 86.5489 139.084 77.1798 138.957 73.3721Z" fill="#080809"/>
<path d="M126.191 86.2845C124.238 87.2341 124.965 81.8453 131.697 81.1436C135.356 80.7622 150.463 84.3139 155.04 77.3841C155.854 76.571 157.409 81.7048 153.159 84.4022C148.909 87.1006 141.472 86.0395 136.978 85.5496C132.484 85.0597 129.378 84.7335 126.191 86.2845Z" fill="#080809"/>
<path d="M105.128 98.084C105.128 98.084 103.969 102.535 99.2889 105.446C94.6085 108.358 96.3047 103.293 99.7574 98.9273C103.21 94.5604 104.361 92.7986 103.44 91.1131C102.519 89.4276 100.294 88.738 99.7574 89.274C99.2205 89.8101 99.681 90.6232 96.2283 95.3113C92.7756 99.9994 90.2439 104.236 91.7018 107.902C93.1597 111.567 98.9138 111.95 105.589 99.0808L105.128 98.084Z" fill="#080809"/>
<path d="M118.964 92.5467C118.964 92.5467 112.338 104.288 107.658 107.199C102.978 110.11 106.43 103.292 109.883 98.9253C113.336 94.5585 114.487 92.7967 113.566 91.1112C112.645 89.4257 110.42 88.736 109.883 89.2721C109.346 89.8081 109.807 90.6213 106.354 95.3094C102.901 99.9974 100.151 104.328 101.828 107.9C105.201 115.084 112.75 106.412 119.425 93.5415L118.964 92.5467Z" fill="#080809"/>
<path d="M133.051 117.325C133.051 117.94 132.553 118.437 131.937 118.437H23.8113C23.1959 118.437 22.6973 117.94 22.6973 117.325C22.6973 116.711 23.1959 116.213 23.8113 116.213H131.937C132.553 116.214 133.051 116.712 133.051 117.325Z" fill="#017D03"/>
</svg>
