<svg width="130" height="138" viewBox="0 0 130 138" fill="none" xmlns="http://www.w3.org/2000/svg">
<path d="M105.363 35.7118C103.755 37.5718 99.7625 42.4726 97.8309 46.988C97.6622 47.3825 97.5085 47.7731 97.3755 48.1585C97.1007 48.9467 96.9073 49.7124 96.814 50.4386C96.2763 50.9725 95.6681 51.4647 94.9965 51.8379C93.8992 52.4145 93.7027 51.5206 95.1651 49.2721C96.6274 47.0236 97.5839 46.3605 97.2743 45.611C97.0273 45.012 96.439 43.7896 95.6959 43.6594C95.7396 43.1652 95.6274 42.6262 95.1641 42.1522C93.8843 40.8403 91.6769 41.4607 89.5955 43.8242C88.1292 45.49 86.762 47.7558 86.3662 49.7358C84.8056 51.246 82.9881 52.5162 82.7798 52.0118C82.0049 50.2057 88.4436 43.8628 88.9258 43.3675C89.4089 42.8743 88.9675 41.6905 88.5478 40.6583C88.2879 40.0197 87.2422 39.8254 85.8175 39.8702C86.2491 37.5067 84.0536 36.3606 82.1706 36.6586C79.989 37.0023 77.7448 39.3474 79.2756 40.9166C80.3233 41.9905 82.3988 42.1085 83.7619 42.2346C83.7709 42.2357 83.7788 42.2367 83.7877 42.2367C82.1498 44.7313 78.4433 50.1721 76.4869 51.422C73.9272 53.0563 75.8152 49.2284 77.7032 46.7774C79.5911 44.3265 80.2201 43.337 79.7171 42.3912C79.2141 41.4455 77.9968 41.058 77.7032 41.359C77.4095 41.66 77.6615 42.1167 75.7735 44.7486C74.6177 46.3595 73.7318 47.8473 73.3518 49.2487C72.9569 49.6636 72.4817 50.0724 71.9093 50.4375C69.3497 52.0718 70.2773 49.2294 72.1652 46.7774C74.0532 44.3265 74.6822 43.337 74.1792 42.3912C73.6753 41.4455 72.4589 41.058 72.1652 41.359C71.8716 41.66 72.1236 42.1167 70.2356 44.7486C69.0252 46.4368 68.0222 48.0202 67.668 49.4816C66.6789 50.8891 65.6878 51.9925 65.3961 51.6121C64.658 50.6582 67.669 44.9022 70.0342 40.458C71.8726 40.637 73.7844 40.5851 75.1664 39.8041C77.5782 38.4413 76.9055 35.5104 76.4333 35.9375C75.3489 37.4131 73.4163 37.9064 71.3537 37.9704C72.0581 36.6301 72.5561 35.6304 72.6325 35.2734C72.9599 33.7439 69.9638 32.2551 69.939 33.1246C69.9092 34.1487 69.1969 35.847 68.2217 37.8108C66.1789 37.5779 64.3753 37.1894 63.5657 37.224C59.8672 37.3806 59.2858 40.3746 60.3841 39.9108C62.1768 39.1542 63.8604 39.4461 66.297 39.8783C66.544 39.922 66.8079 39.9698 67.0847 40.0197C66.2771 41.5492 65.4101 43.1407 64.6461 44.6388C63.7116 46.4683 63.0479 48.4087 62.8028 50.0236C62.1659 50.6989 61.4268 51.3345 60.5944 51.7952C59.4326 52.4064 59.2243 51.4596 60.773 49.0768C62.3226 46.6951 63.3356 45.9924 63.0072 45.1981C62.7453 44.5635 62.1222 43.2679 61.3355 43.1306C61.3821 42.6068 61.2631 42.0363 60.773 41.5339C59.4177 40.1447 57.0784 40.8007 54.8739 43.3055C53.4136 44.9652 52.0445 47.1873 51.5385 49.1907C50.6268 50.2331 49.7617 51.065 49.6694 50.8677C49.1723 49.5446 53.7588 43.3269 54.2717 42.3109C54.7837 41.2949 52.9165 40.1997 52.2637 40.0024C51.6109 39.8051 44.7476 48.668 44.7476 48.668C44.7476 48.668 48.1197 43.337 47.955 41.9112C47.7894 40.4854 45.3488 40.1376 45.4262 40.8048C45.5948 42.2601 40.9905 49.1256 40.3506 51.6335C39.7107 54.1414 42.5193 54.8136 42.6036 54.2471C43.1939 51.3121 50.213 43.0208 50.2617 43.4448C50.3113 43.8699 48.0939 47.5219 46.8717 49.9158C45.6494 52.3098 46.7437 53.9908 48.3102 53.523C49.0692 53.2962 50.2885 51.8216 51.345 50.3623C51.3054 50.944 51.3609 51.4901 51.5375 51.9772C52.4016 54.359 55.113 54.1454 57.6449 50.2057C57.6449 50.2057 56.5724 52.6179 58.002 53.3817C59.0159 53.9227 60.5388 53.6329 62.6976 51.3101C62.7026 52.7949 63.2314 53.7671 64.4695 53.6898C65.4884 53.6257 66.5857 52.4542 67.5599 51.0111C67.5937 51.2837 67.6602 51.5521 67.7613 51.8145C68.3923 53.4437 70.4955 53.9166 73.1553 50.4599C73.1345 50.9196 73.1782 51.3711 73.2992 51.8145C74.6911 56.9136 80.7489 49.3392 84.4534 42.3129C84.5526 42.3282 84.6459 42.3455 84.7233 42.3658C84.8642 42.4035 84.9683 42.4482 85.0259 42.5072C85.509 43.0024 84.0188 44.5716 81.9632 47.41C79.9076 50.2484 78.6903 53.818 81.9215 53.3451C83.3611 53.1346 84.9505 51.8125 86.2709 50.4121C86.2233 50.9887 86.2729 51.5308 86.4475 52.0108C87.263 54.2593 89.8227 54.058 92.2126 50.3389C92.2126 50.3389 91.1997 52.6159 92.5499 53.3369C93.4716 53.8292 94.8377 53.5942 96.7575 51.6193C96.7654 51.7972 96.7793 51.9721 96.8041 52.142C96.9033 53.823 100.816 54.7312 103.928 49.5416C105.358 47.1578 102.38 45.2886 102.23 47.1578C102.08 49.026 101.873 51.4962 100.662 51.4962C98.6394 51.4962 100.339 48.0456 102.119 44.7384C104.454 42.857 106.921 40.52 108.692 37.942C111.178 34.2809 107.635 33.0819 105.363 35.7118ZM58.0001 48.1595C54.4841 52.1603 53.0544 52.9241 53.74 50.4803C54.4086 48.0955 58.0129 43.5282 60.1668 44.9042C59.9545 45.5601 59.4128 46.5507 58.0001 48.1595ZM82.8423 40.1834C80.0316 40.6136 80.1993 38.42 81.4205 37.9471C82.4999 37.5291 84.8125 37.7152 84.5536 39.9597C84.0089 40.0146 83.4326 40.0919 82.8423 40.1834ZM92.5479 48.4067C89.2294 52.1827 87.8792 52.9037 88.526 50.5972C89.157 48.3466 92.5589 44.0347 94.5927 45.3334C94.3933 45.9527 93.8823 46.8883 92.5479 48.4067ZM103.004 43.1875C103.197 42.8692 103.393 42.5652 103.584 42.2835C105.875 38.8949 107.993 36.8589 108.037 37.5931C108.063 38.0416 106.164 40.4763 103.004 43.1875Z" fill="#017D03"/>
<path d="M113.887 69.1507C113.887 69.1507 112.489 63.1282 103.726 63.1282C94.9628 63.1282 86.0497 79.7842 90.8436 86.54C95.6374 93.2957 107.921 94.2171 126.345 56.7508C132.787 42.0097 129.94 37.0957 123.798 37.0957C117.657 37.0957 109.033 44.4657 109.75 57.6722C110.466 70.8776 117.507 94.8314 103.876 99.4383C101.179 100.513 105.374 104.967 111.665 102.202C117.957 99.4383 125.746 84.3901 124.547 67.8063C123.349 51.2225 119.304 41.7026 125.596 40.167C131.888 38.6313 124.847 64.8886 104.325 82.7009C96.6106 87.9983 99.9808 68.7277 108.37 66.7313C112.864 65.6564 112.714 70.0945 112.714 70.0945L113.887 69.1507Z" fill="#080809"/>
<path d="M35.4101 102.77C35.4101 102.77 38.3497 102.017 38.3497 104.371C38.3497 106.725 32.3117 108.494 32.9427 103.513C33.5737 98.5326 50.6596 96.8374 66.3676 100.792C82.0755 104.747 89.1492 100.792 87.3118 96.2729C86.4854 94.5776 94.5134 94.0854 94.5134 101.488C94.5134 108.891 86.9437 113.694 74.2677 109.268C61.5906 104.842 45.9739 96.8384 35.4101 102.77Z" fill="#080809"/>
<path d="M46.5457 72.5394C46.5457 72.5394 39.6367 74.9008 41.7707 82.5006C43.9057 90.1015 52.9487 80.7158 52.9487 70.5817C52.9487 60.4475 44.5496 61.7442 44.9722 67.5877C45.3949 73.4313 51.9377 75.0737 56.7683 71.619V74.3933C56.7683 74.3933 45.7967 78.1307 43.0604 68.3738C42.9999 68.1572 42.9434 67.9335 42.8908 67.7036C40.478 57.1088 55.8694 56.9939 58.3407 68.1643C60.8121 79.3348 50.7006 98.4142 36.6574 91.4663C22.6142 84.5183 31.556 65.5131 43.7351 64.3619L44.1091 68.5111L46.5457 72.5394Z" fill="#080809"/>
<path d="M77.3308 72.5394C77.3308 72.5394 70.4218 74.9008 72.5558 82.5006C74.6908 90.1015 83.7338 80.7158 83.7338 70.5817C83.7338 60.4475 75.3347 61.7442 75.7574 67.5877C76.18 73.4313 82.7229 75.0737 87.5534 71.619V74.3933C87.5534 74.3933 76.5818 78.1307 73.8456 68.3738C73.7851 68.1572 73.7285 67.9335 73.6759 67.7036C71.2631 57.1088 86.6546 56.9939 89.1259 68.1643C91.5972 79.3348 81.4867 98.4142 67.4426 91.4663C53.3994 84.5183 62.3412 65.5131 74.5202 64.3619L74.8942 68.5111L77.3308 72.5394Z" fill="#080809"/>
<path d="M22.9519 60.4066C22.9519 60.4066 35.8899 47.6618 37.6876 37.6812C39.4852 27.7007 19.4121 32.696 13.271 57.6841C7.12886 82.6722 7.68146 96.6454 1.11376 96.6454C-1.55896 96.6454 0.688165 103.095 6.67946 103.095C12.6708 103.095 20.9101 97.8739 21.5094 80.8305C22.1086 63.786 22.2584 49.3521 33.3431 37.9894C35.2152 36.0704 31.6963 52.0074 21.6592 58.4123L22.9519 60.4066Z" fill="#080809"/>
<path d="M5.18092 61.1755C-0.192295 62.645 10.7982 52.8841 22.9514 58.4927C30.3674 61.9159 39.9183 56.5686 39.9183 52.1926C39.9183 48.9677 42.4799 68.6411 30.5718 67.6719C18.6626 66.7028 14.965 58.4998 5.18092 61.1755Z" fill="#080809"/>
<path d="M23.3627 33.5982C23.1295 33.5982 22.8954 33.5148 22.7069 33.344C22.2961 32.9728 22.2565 32.329 22.6196 31.908C35.7272 16.6839 50.5383 8.45554 66.6391 7.44873C92.9952 5.82564 113.841 24.4759 114.05 24.6651C114.459 25.0383 114.496 25.68 114.133 26.1C113.77 26.5201 113.142 26.5587 112.732 26.1865C112.531 26.0024 92.269 7.86669 66.7413 9.48063C51.1921 10.4569 36.8483 18.4554 24.1077 33.2545C23.9113 33.4823 23.6375 33.5982 23.3627 33.5982Z" fill="#017D03"/>
<path d="M96.5898 18.4648C96.5898 18.4648 97.7912 25.906 101.79 27.642C105.792 29.378 104.509 22.3334 96.5898 18.4648Z" fill="#017D03"/>
<path d="M93.4883 10.6914C93.4883 10.6914 100.588 12.6745 103.794 9.67134C107.002 6.66822 100.221 4.92613 93.4883 10.6914Z" fill="#017D03"/>
<path d="M81.7246 6.6499C81.7246 6.6499 88.8707 8.44689 92.0018 5.36037C95.1338 2.27487 88.3122 0.710768 81.7246 6.6499Z" fill="#017D03"/>
<path d="M69.1602 5.70639C69.1602 5.70639 76.5077 6.1152 79.0266 2.48766C81.5455 -1.13989 74.5592 -1.38091 69.1602 5.70639Z" fill="#017D03"/>
<path d="M56.666 8.16933C56.666 8.16933 63.8786 6.67743 65.4312 2.51902C66.9829 -1.63939 60.1602 -0.0783313 56.666 8.16933Z" fill="#017D03"/>
<path d="M46.2441 11.2449C46.2441 11.2449 52.8962 8.02214 53.4299 3.60339C53.9627 -0.816386 47.7055 2.37794 46.2441 11.2449Z" fill="#017D03"/>
<path d="M81.7637 12.3848C81.7637 12.3848 84.3541 19.4436 88.6072 20.3487C92.8603 21.2538 90.266 14.5997 81.7637 12.3848Z" fill="#017D03"/>
<path d="M67.957 10.3379C67.957 10.3379 70.8956 17.2523 75.1885 17.9337C79.4813 18.615 76.5585 12.1054 67.957 10.3379Z" fill="#017D03"/>
<path d="M55.8496 12.4912C55.8496 12.4912 59.8855 18.7975 64.2289 18.7263C68.5723 18.6541 64.6188 12.7444 55.8496 12.4912Z" fill="#017D03"/>
<path d="M42.9766 17.9021C42.9766 17.9021 48.0829 23.3328 52.338 22.4368C56.5931 21.5409 51.6396 16.4855 42.9766 17.9021Z" fill="#017D03"/>
<path d="M66.8081 130.654C42.0334 130.654 22.9037 113.516 22.7043 113.336C22.2946 112.962 22.2579 112.321 22.621 111.901C22.9861 111.481 23.6121 111.442 24.0218 111.814C24.2242 111.998 44.4919 130.141 70.0126 128.52C85.5618 127.544 99.9056 119.545 112.646 104.746C113.008 104.326 113.636 104.284 114.047 104.657C114.458 105.028 114.497 105.672 114.134 106.093C101.027 121.317 86.2156 129.546 70.1148 130.552C69.0027 130.62 67.8995 130.654 66.8081 130.654Z" fill="#017D03"/>
<path d="M40.164 119.536C40.164 119.536 38.9626 112.095 34.9624 110.359C30.9633 108.623 32.245 115.667 40.164 119.536Z" fill="#017D03"/>
<path d="M43.2647 127.309C43.2647 127.309 36.1652 125.326 32.9587 128.329C29.7513 131.332 36.5323 133.074 43.2647 127.309Z" fill="#017D03"/>
<path d="M55.0281 131.35C55.0281 131.35 47.882 129.553 44.7509 132.64C41.6199 135.725 48.4416 137.289 55.0281 131.35Z" fill="#017D03"/>
<path d="M67.5937 132.294C67.5937 132.294 60.2462 131.885 57.7273 135.513C55.2083 139.139 62.1947 139.381 67.5937 132.294Z" fill="#017D03"/>
<path d="M80.0879 129.831C80.0879 129.831 72.8753 131.323 71.3237 135.481C69.772 139.64 76.5937 138.079 80.0879 129.831Z" fill="#017D03"/>
<path d="M90.5089 126.757C90.5089 126.757 83.8568 129.98 83.3231 134.398C82.7903 138.818 89.0486 135.624 90.5089 126.757Z" fill="#017D03"/>
<path d="M54.9891 125.615C54.9891 125.615 52.3987 118.557 48.1456 117.651C43.8915 116.746 46.4868 123.4 54.9891 125.615Z" fill="#017D03"/>
<path d="M68.7948 127.663C68.7948 127.663 65.8563 120.749 61.5635 120.067C57.2706 119.386 60.1933 125.896 68.7948 127.663Z" fill="#017D03"/>
<path d="M80.9048 125.509C80.9048 125.509 76.8689 119.203 72.5255 119.274C68.1821 119.346 72.1356 125.256 80.9048 125.509Z" fill="#017D03"/>
<path d="M93.7774 120.098C93.7774 120.098 88.671 114.668 84.4159 115.564C80.1608 116.46 85.1143 121.515 93.7774 120.098Z" fill="#017D03"/>
</svg>
