<svg width="136" height="112" viewBox="0 0 136 112" fill="none" xmlns="http://www.w3.org/2000/svg">
<path d="M12.6119 40.1641C22.3756 47.4639 29.681 45.0676 33.2341 41.4227C33.5526 41.1005 33.8412 40.7682 34.11 40.4158C31.154 37.2744 25.0728 32.6226 12.9204 28.4139C13.8162 28.5347 28.2179 30.6794 39.5343 40.6977C40.9675 41.7852 42.2215 42.9431 43.2069 44.1412C45.2173 47.1014 44.8789 44.1412 44.8789 44.1412C45.2372 37.3851 44.6002 32.965 43.9234 30.3169C48.3226 25.1315 47.1482 17.5598 41.903 13.2102C34.2991 6.90714 35.1849 0 35.1849 0C35.1849 0 29.0739 2.00368 29.0739 13.6632C29.0739 16.0898 29.3127 18.3351 29.7208 20.3589C22.8135 17.2276 9.71561 24.1649 0.220624 15.1736C-1.21258 14.0962 4.50033 34.1027 12.6119 40.1641ZM39.9324 24.6079C38.1608 20.7013 36.0209 16.0697 35.6427 15.2541C36.0806 16.0596 38.4693 20.4496 40.848 23.6212C42.4504 25.7558 43.0874 29.753 43.3362 32.1393C44.2817 35.9554 43.4457 39.9023 43.1372 42.208C41.6642 40.6877 39.2954 38.4826 36.2001 36.3581C36.6181 34.9485 36.7873 33.4885 36.7276 32.0286C38.2105 32.8039 39.7433 32.9549 41.1765 32.4112C41.3855 30.6894 41.3755 27.8098 39.9324 24.6079Z" fill="#017D03"/>
<path d="M87.3299 45.4072C87.3299 45.4072 90.895 34.6488 81.6289 33.9752C74.5395 33.4597 64.2672 43.4106 67.9935 57.7736C71.7189 72.1366 92.0983 58.3143 92.6696 45.956L91.3379 45.9137C91.3379 45.9137 85.8977 58.4563 79.7856 60.0793C76.127 61.051 76.3599 47.3233 81.6976 40.6044C87.307 33.5442 86.1883 42.5557 83.723 46.5732C82.7088 48.2234 87.3299 45.4072 87.3299 45.4072Z" fill="#017D03"/>
<path d="M99.2998 46.7464C99.2998 46.7464 94.0587 49.2395 96.4364 54.9615C98.8151 60.6836 105.102 52.5138 104.179 44.6149C103.255 36.716 96.74 38.5203 97.6059 43.0351C98.4718 47.5489 103.789 48.2114 107.289 45.0619L107.542 47.2237C107.542 47.2237 99.2172 51.1737 96.1677 43.8275C96.1 43.6644 96.0353 43.4953 95.9726 43.3211C93.1012 35.2913 105.274 32.5204 108.217 42.2206C110.824 50.8152 104.94 66.5194 93.2157 62.4305C81.4913 58.3416 86.822 42.6847 96.3359 40.6357L97.0097 43.8346L99.2998 46.7464Z" fill="#017D03"/>
<path d="M73.5504 37.0687C73.5504 37.0687 75.7181 56.0825 65.2528 59.3004C54.7874 62.5184 51.704 46.3963 54.1066 40.9975C56.5092 35.5987 61.5045 31.7826 63.7718 35.7356C65.1244 38.0695 59.6155 39.7842 59.8464 30.4123C60.0773 21.0403 67.7798 16.3765 72.0475 20.9285C76.3163 25.4806 71.4355 30.377 69.3394 27.291C67.2433 24.2049 74.4113 18.8463 79.0802 25.9246C79.9381 26.5036 82.9887 23.1296 80.9693 19.4273C78.9498 15.724 71.744 16.3785 67.4732 22.8557C63.2015 29.3339 77.1912 33.4258 73.84 21.4692C71.745 16.3775 64.3122 11.8637 55.8284 18.0902C47.3447 24.3167 55.0034 38.5105 60.0544 39.4953C65.1055 40.48 67.1647 37.3567 64.1729 33.75C61.1811 30.1434 52.1668 24.1435 44.1956 37.987C36.2244 51.8304 49.8787 70.3005 64.5083 62.5586C75.5221 56.7309 74.7676 36.7123 74.7676 36.7123L73.5504 37.0687Z" fill="#017D03"/>
<path d="M77.0537 87.9322C77.0537 87.9322 70.1086 97.3817 66.7058 97.2175C60.2125 96.9054 73.8648 79.7614 74.4013 83.218C74.9367 86.6746 66.9705 87.7922 66.6799 90.7615C66.4201 93.4176 70.0688 94.1325 69.5592 93.623C69.0497 93.1135 72.9382 88.7256 74.7446 86.875C76.5521 85.0243 77.5294 83.0851 76.4605 81.3684C75.3916 79.6517 71.2841 77.9541 67.4861 81.8436C63.6891 85.7321 59.9518 92.0895 61.4049 96.3657C62.858 100.642 68.3938 102.47 77.0607 89.2361L77.0537 87.9322Z" fill="#080809"/>
<path d="M102.989 87.7617C102.989 87.7617 97.2837 95.9003 94.5258 96.7098C91.7689 97.5183 95.0822 89.7674 98.1984 87.3257C101.314 84.8851 101.831 86.6511 102.338 86.6481C102.844 86.6451 105.415 85.4721 104.617 82.8653C103.819 80.2585 100.911 79.0654 97.6539 80.9955C94.3974 82.9257 90.892 89.4674 90.4581 93.8472C90.0241 98.2281 94.9796 103.134 101.918 93.3569C108.856 83.5802 116.648 74.171 116.28 70.2613C115.91 66.3516 111.979 67.144 108.425 73.1742C104.871 79.2043 100.091 88.1755 101.383 96.2708C102.675 104.366 111.572 91.0381 112.792 87.2583L112.028 86.4246C112.028 86.4246 109.584 93.4254 105.524 95.6868C104.147 96.3936 104.681 92.3188 105.269 87.2452C105.857 82.1716 111.338 69.5585 112.485 70.7043C113.63 71.8491 102.989 87.7617 102.989 87.7617Z" fill="#080809"/>
<path d="M40.8725 69.3435C38.1703 76.6242 35.0789 86.0183 29.3461 98.0716C23.6133 110.125 14.3203 101.909 19.6899 96.2824C20.1338 95.8172 20.9648 96.6217 19.9218 97.7141C18.8787 98.8066 19.2301 101.463 21.3221 100.294C23.4142 99.1258 26.8181 93.4349 29.3939 86.0848C31.9697 78.7356 33.0933 75.4391 36.9033 69.4019C36.9023 69.4019 41.2547 68.3135 40.8725 69.3435Z" fill="#080809"/>
<path d="M22.6588 89.5764C20.9281 90.7343 21.7362 83.812 27.9418 84.0839C31.7717 84.252 38.9198 85.567 41.4468 83.521C41.8787 83.1707 42.2142 87.0934 38.4172 88.7336C34.6192 90.3738 27.7487 86.1711 22.6588 89.5764Z" fill="#080809"/>
<path d="M63.8308 88.1429C63.8308 88.1429 61.2411 93.8176 57.045 96.4979C52.8489 99.1782 55.9183 92.9416 59.0017 88.9413C62.0851 84.94 63.1112 83.327 62.2732 81.7956C61.4352 80.2641 59.4287 79.6479 58.9489 80.1393C58.4682 80.6316 58.8873 81.3697 55.8059 85.664C52.7245 89.9583 50.4691 93.8357 51.8008 97.1705C53.1335 100.505 58.314 100.822 64.2508 89.0491L63.8308 88.1429Z" fill="#080809"/>
<path d="M61.421 77.7493C61.642 78.7733 62.7527 81.0246 63.5081 80.2514C64.2635 79.4781 67.2912 77.853 66.8711 76.8079C66.4501 75.7627 64.2984 73.8899 63.3379 74.8736C62.3755 75.8574 61.2428 76.9257 61.421 77.7493Z" fill="#080809"/>
<path d="M127.461 73.6747C131.498 67.7312 125.687 65.8251 121.99 70.1013C119.373 73.127 112.878 81.0923 109.757 88.4133C109.484 89.0517 109.237 89.685 109.022 90.3092C108.213 92.6422 107.832 94.8522 108.122 96.7532C108.301 99.4708 112.88 102.312 123.512 85.142L122.704 84.4291C122.704 84.4291 117.947 92.031 114.43 94.3669C111.661 96.2115 113.877 90.0948 116.764 84.7292C120.57 81.6612 124.586 77.8613 127.461 73.6747ZM119.14 80.748C122.86 75.2454 126.31 71.9318 126.386 73.1169C126.435 73.8398 123.348 77.7968 118.202 82.213C118.516 81.6965 118.831 81.2061 119.14 80.748Z" fill="#080809"/>
<path d="M91.9205 90.7338C91.9205 90.7338 86.2235 99.3919 83.785 100.035C81.3466 100.68 79.7263 98.0689 81.7158 94.4724C83.7054 90.8768 87.2844 85.4055 87.2257 84.7561C87.168 84.1066 75.975 96.4388 74.9399 100.887C74.7857 101.747 70.4771 100.598 71.5699 96.8043C72.6637 93.0104 80.0667 82.7463 79.8676 80.5201C79.776 79.5002 83.5312 80.1385 83.7263 82.3184C83.9214 84.4983 78.4871 92.4778 78.4871 92.4778C78.4871 92.4778 89.4631 79.2686 90.4634 79.5979C91.4636 79.9271 94.3012 81.678 93.4671 83.2045C92.6331 84.7309 85.2859 94.0072 85.9975 96.0461C86.2553 96.6301 91.0715 91.5605 92.2688 89.44C92.2688 89.44 92.7017 89.6343 92.7226 89.8659C92.7426 90.0975 91.9205 90.7338 91.9205 90.7338Z" fill="#080809"/>
<path d="M35.0547 94.7278C37.5767 97.248 45.4325 85.5501 47.1533 80.6879C48.8732 75.8258 44.5437 75.3938 42.6616 76.1268C40.7795 76.8598 40.5397 80.2046 44.8781 79.522C49.2165 78.8393 53.0384 78.6188 53.6953 80.1885C54.3532 81.7583 55.0439 83.5565 54.3034 84.3147C53.5629 85.0729 43.6758 94.8043 44.89 97.551C45.4484 98.859 53.1847 92.2549 53.8804 89.4316L54.6607 89.5575C54.6607 89.5575 48.5586 98.8398 43.5733 99.591C38.5879 100.343 40.4342 94.8899 43.5832 90.5432C46.7323 86.1965 49.0185 83.7891 48.269 83.04C47.5196 82.2909 41.7559 83.048 39.3762 80.6698C36.9965 78.2916 40.4411 74.6971 43.8082 74.1523C47.1752 73.6066 51.2071 76.008 48.8393 80.8742C46.4706 85.7404 38.1868 98.3142 35.0766 98.3334C33.2622 98.3454 34.3371 94.0119 35.0547 94.7278Z" fill="#080809"/>
<path d="M123.96 80.7383C124.24 79.2764 128.251 80.3165 128.586 81.9597C128.922 83.6029 125.627 87.4401 122.983 91.2068C120.339 94.9745 120.228 98.133 123.922 95.8072C127.615 93.4813 132.902 85.6176 131.511 81.4804C131.178 80.2983 136.582 80.988 135.948 83.8224C135.315 86.6557 133.376 99.5658 125.027 106.659C116.679 113.753 109.337 104.388 116.798 101.183C117.707 100.849 118.496 102.357 116.941 103.287C115.385 104.219 115.401 106.784 118.714 106.172C122.028 105.56 127.649 99.2064 129.37 93.2739C129.37 93.2739 125.76 98.6304 121.079 99.2164C116.399 99.8034 116.105 94.2113 119.388 88.4661C122.671 82.7209 123.582 82.7148 123.96 80.7383Z" fill="#080809"/>
<path d="M33.3233 80.8738C33.3233 80.8738 31.906 87.6048 21.2714 82.5473C10.6368 77.4908 16.1537 63.9937 26.9674 65.2412C33.5223 65.9973 50.0231 73.2257 57.6788 67.0304C60.6646 65.0559 61.8859 72.8259 53.6081 74.3675C45.3313 75.909 33.8239 68.7612 24.9977 70.7719C16.1706 72.7826 23.6173 89.9447 32.7639 79.7935L33.3233 80.8738Z" fill="#080809"/>
<path d="M107.731 105.847C108.948 106.611 112.081 101.308 96.8088 101.896C88.5082 102.215 56.1327 110.477 43.3712 102.135C41.2552 101.22 39.6797 108.528 50.152 111.212C60.6234 113.895 73.562 109.006 83.4054 107.316C93.2467 105.627 101.778 102.109 107.731 105.847Z" fill="#017D03"/>
</svg>
