<svg width="140" height="88" viewBox="0 0 140 88" fill="none" xmlns="http://www.w3.org/2000/svg">
<path d="M118.045 14.9433C108.481 23.7982 95.2872 16.9661 88.3296 20.05C88.7406 18.0569 88.9813 15.8456 88.9813 13.4559C88.9813 1.97328 82.8256 0 82.8256 0C82.8256 0 83.7179 6.80232 76.0585 13.0097C70.7751 17.2934 69.5921 24.7501 74.0233 29.8568C73.3416 32.4647 72.7 36.8178 73.0609 43.4714C73.0609 43.4714 72.72 46.3867 74.7452 43.4714C75.7377 42.2914 77.0009 41.151 78.4445 40.0801C89.8434 30.2138 104.35 28.1017 105.252 27.9827C93.0115 32.1276 86.8859 36.7087 83.9084 39.8025C84.1791 40.1495 84.4698 40.4768 84.7906 40.7941C88.3697 44.3836 95.7283 46.7436 105.563 39.5546C113.734 33.5852 119.489 13.8823 118.045 14.9433ZM76.7904 31.9193C78.234 32.4548 79.7779 32.3061 81.2717 31.5425C81.2116 32.9803 81.382 34.4181 81.8031 35.8064C78.6852 37.8986 76.2991 40.0702 74.8154 41.5675C74.5046 39.2968 73.6624 35.4097 74.6148 31.6516C74.8655 29.3015 75.5071 25.3649 77.1212 23.2627C79.5173 20.1392 81.9234 15.8159 82.3645 15.0226C81.9835 15.8258 79.8281 20.3871 78.0435 24.2345C76.5899 27.3878 76.5798 30.2237 76.7904 31.9193Z" fill="#017D03"/>
<path d="M45.2168 48.2103C45.2168 48.2103 74.8469 37.1848 94.7824 50.1538C94.7824 50.1538 68.0407 70.7849 45.2168 48.2103Z" fill="#017D03"/>
<path d="M81.291 81.7301C81.6549 81.6697 82.1673 81.623 82.8891 81.623C83.6179 81.623 84.1372 81.7619 84.4871 82.0375C84.82 82.2983 85.0456 82.7277 85.0456 83.2344C85.0456 83.7401 84.8751 84.1695 84.5653 84.461C84.1623 84.8368 83.5648 85.0063 82.867 85.0063C82.7126 85.0063 82.5723 84.9984 82.464 84.9835V86.8319H81.293V81.7301H81.291ZM82.462 84.0772C82.5632 84.1 82.6876 84.108 82.858 84.108C83.4866 84.108 83.8746 83.7936 83.8746 83.2631C83.8746 82.7872 83.5407 82.5036 82.9512 82.5036C82.7116 82.5036 82.5482 82.5264 82.463 82.5502V84.0772H82.462Z" fill="#017D03"/>
<path d="M87.3535 81.7301C87.7335 81.6697 88.2989 81.623 88.9275 81.623C89.7025 81.623 90.2458 81.738 90.6188 82.0296C90.9296 82.2745 91.099 82.6354 91.099 83.1114C91.099 83.7708 90.6258 84.224 90.1757 84.3846V84.4074C90.5406 84.5532 90.7431 84.8982 90.8734 85.3742C91.0368 85.9573 91.1992 86.6326 91.3005 86.8319H90.0904C90.0052 86.6861 89.8809 86.2647 89.7265 85.6271C89.5862 84.9835 89.3626 84.8071 88.8804 84.7991H88.5245V86.8319H87.3535V81.7301ZM88.5245 83.9553H88.9897C89.5791 83.9553 89.929 83.6637 89.929 83.2116C89.929 82.7356 89.6032 82.4976 89.0608 82.4897C88.7741 82.4897 88.6107 82.5125 88.5255 82.5284V83.9553H88.5245Z" fill="#017D03"/>
<path d="M98.2631 84.193C98.2631 85.8886 97.2235 86.9159 95.6946 86.9159C94.1437 86.9159 93.2363 85.7577 93.2363 84.2852C93.2363 82.7353 94.2369 81.5771 95.7808 81.5771C97.3859 81.5771 98.2631 82.7651 98.2631 84.193ZM94.4865 84.2614C94.4865 85.2748 94.9667 85.9877 95.7577 85.9877C96.5568 85.9877 97.0139 85.2351 97.0139 84.2296C97.0139 83.3025 96.5648 82.5043 95.7497 82.5043C94.9507 82.5053 94.4865 83.2559 94.4865 84.2614Z" fill="#017D03"/>
<path d="M100.594 81.7301C101.028 81.6617 101.594 81.623 102.192 81.623C103.184 81.623 103.828 81.7995 104.332 82.1753C104.876 82.574 105.216 83.2116 105.216 84.1248C105.216 85.1145 104.853 85.7966 104.348 86.2181C103.798 86.6712 102.96 86.8854 101.936 86.8854C101.324 86.8854 100.89 86.8477 100.595 86.8091V81.7301H100.594ZM101.781 85.9493C101.882 85.9721 102.044 85.9722 102.192 85.9722C103.262 85.9801 103.96 85.397 103.96 84.1615C103.968 83.0876 103.332 82.5204 102.315 82.5204C102.051 82.5204 101.881 82.5432 101.781 82.566V85.9493Z" fill="#017D03"/>
<path d="M108.726 81.6611V84.6369C108.726 85.5263 109.068 85.9795 109.671 85.9795C110.292 85.9795 110.634 85.5491 110.634 84.6369V81.6611H111.813V84.5606C111.813 86.156 110.998 86.9156 109.633 86.9156C108.315 86.9156 107.539 86.1947 107.539 84.5446V81.6611H108.726Z" fill="#017D03"/>
<path d="M118.232 86.6848C118.014 86.7919 117.526 86.908 116.89 86.908C115.083 86.908 114.152 85.7964 114.152 84.3239C114.152 82.5598 115.424 81.5771 117.008 81.5771C117.619 81.5771 118.085 81.6991 118.295 81.8072L118.054 82.7353C117.814 82.6352 117.481 82.544 117.062 82.544C116.123 82.544 115.395 83.1042 115.395 84.2545C115.395 85.2907 116.015 85.9422 117.07 85.9422C117.426 85.9422 117.822 85.8658 118.054 85.7736L118.232 86.6848Z" fill="#017D03"/>
<path d="M121.681 82.6428H120.277V81.6611H124.295V82.6428H122.868V86.8313H121.681V82.6428Z" fill="#017D03"/>
<path d="M139.094 54.9468C137.817 52.9161 135.066 51.5516 132.249 51.5516C131.282 51.5516 130.063 51.7123 128.727 52.2368C128.684 52.0256 128.627 51.8124 128.538 51.5913C127.847 49.8838 125.391 47.4147 122.755 47.4147C121.705 47.4147 120.725 47.8113 119.994 48.5322L119.753 48.7702C118.541 49.9601 117.083 51.4039 117.012 53.2572C116.271 53.3801 115.61 53.7004 115.108 54.1962C114.818 54.4828 114.614 54.7763 114.461 55.0539C113.075 53.3305 110.802 52.338 109.965 52.094C109.703 52.0177 109.392 51.9741 109.12 51.9741C108.219 51.9741 107.393 51.974 103.942 55.6568C102.814 53.8144 100.533 52.7624 98.4326 52.7624C96.8466 52.7624 95.9313 53.4119 95.4431 53.9562C94.8886 54.573 94.6019 55.3792 94.636 56.2002C94.5338 56.6732 94.1267 57.5627 93.5854 58.6227C93.072 57.8244 92.5166 57.1819 91.9171 56.699C91.6645 55.6231 91.1091 54.6454 90.2659 53.8125C88.9416 52.5016 87.2363 51.8094 85.3344 51.8094C82.5995 51.8094 79.642 53.2899 76.9081 55.9791C75.8775 54.4074 73.709 53.4396 71.6407 53.4396C71.5796 53.4396 71.5194 53.4406 71.4593 53.4426C71.0943 53.1173 70.6903 52.8348 70.2522 52.5948C69.2968 52.0742 68.209 51.8104 67.017 51.8104C64.5477 51.8104 61.9411 52.9101 59.4488 54.9409C59.2353 54.34 58.9997 53.7807 58.7962 53.2978C57.9069 51.1867 55.6983 50.5035 53.9359 50.2834C53.6862 49.2313 53.203 48.2576 52.4962 47.4167C50.9433 45.5674 48.3818 44.4637 45.6438 44.4637C45.1365 44.4637 44.6283 44.5024 44.133 44.5768C43.2989 44.7037 42.4648 44.9387 41.6587 45.2679C39.5845 42.3001 35.9954 40.6074 31.507 40.6074C30.9315 40.6074 30.332 40.6352 29.7285 40.6887C18.5712 41.6843 2.93457 54.222 0.376082 64.2242C-0.69764 68.4226 0.545508 71.9397 3.87795 74.1252C4.06944 74.2511 4.26795 74.3721 4.47347 74.4911C4.62887 74.9274 4.81934 75.3488 5.04291 75.7534C6.84147 78.9949 9.6556 80.7074 13.1795 80.7074C17.1496 80.7074 22.0671 78.509 28.4232 73.8555C28.6337 74.7559 29.0448 75.5531 29.6443 76.2046C30.3781 77.0048 31.7486 77.9577 34.1056 77.9577C35.2736 77.9577 36.5939 77.3271 37.9754 76.2958C38.0436 76.4842 38.1238 76.6706 38.216 76.8521C38.7273 77.8576 40.0436 79.5423 43.1234 79.5423C43.5596 79.5423 44.0247 79.5076 44.5079 79.4392C45.6238 79.2815 46.7937 78.8799 48.0118 78.2364C47.7752 79.1962 47.682 80.2027 47.7712 81.1754C48.0589 84.3376 50.1081 86.7165 53.3925 87.7011C54.0511 87.8994 54.7579 87.9996 55.4948 88.0006C55.4958 88.0006 55.4948 88.0006 55.4958 88.0006C60.1276 88.0006 66.4265 83.7694 71.1715 76.2799C72.3385 77.6126 73.9325 78.3752 75.7522 78.3752C77.3843 78.3752 79.0495 77.7733 80.6696 76.626C81.0706 77.096 81.5789 77.5046 82.2065 77.8268C83.1068 78.2919 84.0883 78.5269 85.1229 78.5269C85.6442 78.5269 86.1736 78.4664 86.7099 78.3454C86.8693 78.6052 87.0498 78.8551 87.2503 79.0921C88.4343 80.4883 90.303 81.3906 92.0124 81.3906C94.0225 81.3906 95.1774 80.0906 95.4361 78.8333C95.5634 78.2314 95.9594 77.3856 96.5358 76.392C96.6722 76.7936 96.8516 77.1783 97.0712 77.5393C98.0216 79.0911 99.6888 80.0192 101.531 80.0192C102.081 80.0192 102.641 79.9379 103.198 79.7783C104.109 79.5155 105.276 78.9017 107.146 76.8769C108.288 78.5467 110.114 79.5383 112.175 79.5383C113.845 79.5383 116.227 78.8898 119.008 76.2512C120.87 78.1729 123.746 79.4282 126.701 79.4282C130.602 79.4282 135.051 77.1417 135.839 70.7251C136.014 69.3101 135.709 68.1548 134.935 67.2902C134.877 67.2257 134.818 67.1643 134.756 67.1048C134.746 67.0512 134.734 66.9996 134.722 66.9461C135.048 66.3531 135.748 65.3496 136.753 64.3571C141.184 59.9802 140.122 56.583 139.094 54.9468ZM24.4 53.391C24.1564 55.8968 23.4997 57.9643 22.5874 59.6619C21.9397 58.2994 20.8049 57.2394 19.276 56.6673C19.0103 56.5681 18.7376 56.4888 18.4589 56.4283C20.2454 55.1858 22.2455 54.0445 24.424 53.1372C24.413 53.2215 24.405 53.3057 24.4 53.391ZM34.8354 53.9919C34.5076 54.6504 34.1677 55.2869 33.8189 55.8997C33.5712 55.2304 33.2294 54.572 32.7953 53.9334C32.1446 52.9736 31.2233 52.0087 30.1987 51.3355C31.5812 51.0449 32.5767 50.9626 33.2604 50.9626C34.658 50.9626 35.1813 51.2908 35.2655 51.4168C35.4269 51.6597 35.449 52.569 34.8354 53.9919ZM41.0833 60.8627C41.384 60.3113 41.6587 59.7571 41.9084 59.2018C42.0728 59.2434 42.2372 59.2831 42.4026 59.3198C41.9735 59.8493 41.5314 60.3659 41.0833 60.8627Z" fill="white"/>
<path d="M136.679 56.4311C135.509 54.5679 130.978 52.7057 126.753 56.8843C123.426 60.1753 120.143 65.1174 119.663 69.3337C118.423 70.9579 116.814 72.6793 114.903 73.8573C110.246 76.727 113.681 70.006 117.118 65.7005C120.554 61.396 121.7 59.6587 120.783 57.9978C119.867 56.3359 117.652 55.6567 117.118 56.1852C116.584 56.7137 117.042 57.5149 113.606 62.1367C112.355 63.8194 111.229 65.4417 110.368 67.0005C108.401 69.6212 104.972 73.2078 104.728 72.7031C103.879 70.5216 111.715 60.2715 112.59 58.5967C113.466 56.9219 110.276 55.1172 109.16 54.792C108.044 54.4668 96.3172 69.0779 96.3172 69.0779C96.3172 69.0779 102.079 60.2884 101.797 57.9383C101.514 55.5882 97.3448 55.0141 97.4771 56.1138C97.7197 58.1366 92.1827 66.4809 89.7776 71.533C89.2012 71.9733 88.5926 72.3759 87.951 72.72C85.966 73.7274 85.6091 72.1657 88.2568 68.239C90.9035 64.3123 92.6349 63.1541 92.0745 61.8452C91.6273 60.799 90.5606 58.6651 89.2152 58.4391C89.2954 57.5744 89.0959 56.6334 88.2568 55.8034C85.9409 53.5128 81.9448 54.5947 78.1782 58.7237C74.4117 62.8527 71.001 69.0957 72.4768 73.0224C73.9535 76.9501 78.5853 76.5971 82.9122 70.1022C82.9122 70.1022 81.0796 74.0794 83.5228 75.3388C84.775 75.9843 86.4863 75.904 88.731 74.368C88.0492 78.1648 92.5166 79.1792 92.6559 78.2759C93.6635 73.4379 105.658 59.7678 105.741 60.4669C105.824 61.166 102.038 67.1889 99.9484 71.1354C97.8591 75.082 99.7299 77.8534 102.406 77.083C104.104 76.5941 107.151 72.5792 109.153 69.7085C108.588 71.4151 108.492 73.0313 109.101 74.5485C110.307 77.552 114.468 78.3116 119.653 71.1989C119.706 71.662 119.787 72.1141 119.933 72.5435C121.511 77.1752 131.902 79.5025 133.022 70.3897C133.394 67.3634 129.749 69.7353 129.93 71.5955C130.084 73.1702 128.75 73.8395 126.571 73.5003C121.888 72.7735 125.533 64.4878 131.54 59.504C131.54 59.504 127.417 63.8343 129.25 66.5027C131.082 69.1711 132.406 67.9633 131.845 67.409C131.285 66.8547 132.737 64.3628 134.747 62.3737C136.756 60.3826 137.85 58.2933 136.679 56.4311ZM83.5218 66.7278C77.5156 73.3239 75.0713 74.5822 76.2423 70.5543C77.3842 66.6247 83.5368 59.0995 87.2191 61.3583C86.8592 62.4401 85.9449 64.0664 83.5218 66.7278Z" fill="#080809"/>
<path d="M70.3393 56.5213C70.0235 55.9561 69.5633 55.4306 68.8786 55.0577C66.3842 53.6982 61.4979 55.4127 57.0686 61.7301C55.6581 63.7431 54.6746 65.6231 54.0811 67.3079C51.0754 71.0372 46.1429 75.4111 45.6738 74.3174C44.2622 71.1453 55.9809 60.0058 56.8591 59.1371C57.7373 58.2685 56.9353 56.1921 56.1714 54.3795C55.6982 53.257 53.7893 52.9179 51.1907 53.0002C51.9747 48.8484 47.9916 46.8344 44.5659 47.356C43.0802 47.5821 41.5794 48.3 40.4275 49.2539C39.3658 45.4224 35.8378 42.9663 29.983 43.4888C16.4427 44.6976 -4.52951 65.2394 5.44678 71.7839C5.92098 72.0953 6.40522 72.3471 6.89546 72.5702C7.00674 73.2118 7.21426 73.8276 7.53306 74.4017C10.9427 80.5436 18.3766 78.732 31.5099 67.8562C36.2429 63.9374 39.1141 59.5239 40.231 55.5347C42.2401 56.7504 45.2487 56.9507 47.37 57.1371C43.9704 62.9657 35.5361 71.2167 32.9385 68.6475C32.0983 67.8166 28.6787 75.1474 34.1044 75.1474C37.3476 75.1474 45.4321 63.8542 49.2077 57.382C49.4613 57.4455 49.6538 57.5238 49.7571 57.6269C50.6353 58.4956 47.9245 61.2522 44.183 66.2359C40.4415 71.2207 38.2269 77.4885 44.1068 76.6576C47.2678 76.2114 50.8258 72.9262 53.4414 69.9842C53.2008 72.239 53.8876 73.9119 55.3884 74.7428C58.392 76.4047 67.0199 67.9207 67.9111 67.0391C67.9111 67.0391 65.4419 74.1131 61.6503 77.8643C57.8576 81.6155 53.9638 82.0935 53.9638 79.3745C53.9638 76.6556 54.7528 77.9397 55.3894 77.31C56.026 76.6804 54.5242 74.9441 52.6404 75.9C50.7566 76.8569 48.517 83.3013 54.2184 85.0127C59.9199 86.7242 72.3403 75.9 74.6813 57.976C74.6813 56.8496 72.0185 55.7221 70.3393 56.5213ZM37.4148 55.1698C31.0006 68.0595 20.7947 72.9431 15.9845 74.604C13.0481 75.6184 10.661 74.9947 9.88303 73.4319C19.1124 74.6724 29.5308 64.2081 31.1038 60.4064C32.9365 55.9759 27.235 52.0482 27.235 53.5793C26.0991 65.6955 16.195 69.8662 10.4354 69.8037C10.5046 69.6916 10.5618 69.5835 10.64 69.4695C13.4651 65.3911 16.9088 63.8125 18.6573 65.5428C19.7641 66.6375 22.0428 60.7098 18.2763 59.2998C14.6451 57.9532 8.59877 63.5576 7.13005 69.0471C6.99571 68.9598 6.8734 68.8666 6.77114 68.7655C3.8748 65.9008 13.1854 53.963 25.1988 49.835C37.2113 45.704 39.7567 49.833 37.4148 55.1698ZM43.2005 49.6218C45.1645 48.888 49.3631 49.2212 48.8969 53.1598C47.9054 53.258 46.8618 53.3909 45.7881 53.5495C40.6711 54.3041 40.9768 50.4528 43.2005 49.6218ZM62.8723 68.0476C58.6978 71.3198 56.6115 73.0323 56.3057 71.5717C55.9999 70.1111 63.0759 59.7906 66.1296 60.8476C66.5507 61.0033 67.3517 61.6925 68.274 61.8194C67.1963 63.5547 65.3637 66.0941 62.8723 68.0476Z" fill="#080809"/>
<path d="M122.156 56.3341C122.996 55.5032 126.355 53.7659 125.897 52.6335C125.439 51.5011 123.072 49.4614 122.003 50.5184C120.935 51.5755 119.674 52.7228 119.865 53.6152C120.103 54.7238 121.316 57.1651 122.156 56.3341Z" fill="#080809"/>
</svg>
