<svg width="124" height="88" viewBox="0 0 124 88" fill="none" xmlns="http://www.w3.org/2000/svg">
<path d="M99.3202 72.2524C73.6524 65.6949 46.7361 65.6949 21.0683 72.2524C19.5243 66.2708 17.9814 60.2901 16.4375 54.3084C45.1432 46.9753 75.2452 46.9753 103.951 54.3084C102.407 60.2891 100.864 66.2708 99.3202 72.2524Z" fill="#017D03"/>
<path d="M15.5902 59.1748L19.6062 74.4319C19.6062 74.4319 24.3527 72.2523 31.6541 72.2523C31.6541 72.2523 15.4075 73.5233 4.4544 87.8717C2.62904 89.6879 12.3037 71.7071 2.62904 73.5233C-7.04566 75.3394 17.5982 68.9824 15.5902 59.1748Z" fill="#017D03"/>
<path d="M104.8 59.1748L100.784 74.4319C100.784 74.4319 96.0378 72.2523 88.7363 72.2523C88.7363 72.2523 104.983 73.5233 115.936 87.8717C117.761 89.6879 108.087 71.7071 117.761 73.5233C127.436 75.3394 102.792 68.9824 104.8 59.1748Z" fill="#017D03"/>
<path d="M88.2773 36.8613C88.2773 36.8613 106.599 27.3089 96.2365 23.0381C91.3781 21.0363 82.1426 26.6019 82.1426 37.9367C82.1426 49.2715 97.7275 41.7249 100.414 32.7127L99.475 32.4207C99.475 32.4207 94.3662 40.9166 89.7185 40.9166C86.936 40.9166 90.0249 31.8607 95.0618 27.9464C100.356 23.8325 96.5578 32.392 89.4221 34.4077C88.0268 34.8009 88.2773 36.8613 88.2773 36.8613Z" fill="#080809"/>
<path d="M48.2053 24.0484C47.0566 21.9165 55.1195 21.8143 56.0447 25.4952C56.9698 29.1762 51.0676 37.7644 52.1255 39.6927C53.1824 41.6211 60.0976 32.8134 61.0657 28.1246L61.8142 28.5188C61.8142 28.5188 54.9 43.7242 49.35 43.7242C44.858 43.7242 43.7572 38.8606 46.6195 32.9882C49.4828 27.1168 48.866 25.2748 48.2053 24.0484Z" fill="#080809"/>
<path d="M59.5852 26.1735C58.4365 24.0415 66.4994 23.9392 67.4246 27.6202C68.3497 31.3011 62.4475 39.8894 63.5044 41.8177C64.5613 43.7461 71.4755 34.9384 72.4446 30.2496L73.1931 30.6438C73.1931 30.6438 66.2789 45.8492 60.729 45.8492C56.2369 45.8492 55.1361 40.9856 57.9984 35.1132C60.8627 29.2407 60.2459 27.3998 59.5852 26.1735Z" fill="#080809"/>
<path d="M36.4629 30.8296C36.4629 30.8296 51.0258 22.7667 56.0768 10.0298C58.3083 2.3174 49.9699 1.38302 40.6914 13.1845C31.413 24.987 28.7123 35.2692 31.0607 41.3462C33.41 47.4222 41.1605 48.1233 51.6137 28.1417L50.439 27.3235C50.439 27.3235 43.1575 40.2936 38.8122 40.9957C36.2283 40.9957 44.3911 18.8524 52.6705 10.6137C54.3143 8.97828 51.0258 20.3121 36.5806 28.9599L36.4629 30.8296Z" fill="#080809"/>
<path d="M89.8011 26.8946C89.8011 26.8946 80.8749 40.0991 77.822 39.6314C74.7681 39.1638 82.5196 23.7399 86.6304 17.4296C90.7412 11.1192 92.3849 8.6656 90.5057 6.79583C88.6264 4.92607 85.6903 2.5896 82.7542 6.79583C79.818 11.0031 65.3718 32.3867 68.8958 41.5012C70.7751 45.2407 76.9996 50.8491 90.7402 27.7128L89.8011 26.8946Z" fill="#080809"/>
<path d="M68.3458 18.2474C69.0135 16.3776 74.7311 14.0401 81.4437 18.2474C88.1563 22.4536 101.546 21.8697 97.5515 8.78237C97.0815 6.78153 92.9717 14.3917 85.3369 13.2229C77.7031 12.0542 67.25 10.7117 67.25 18.3645C67.252 20.9344 68.3458 18.2474 68.3458 18.2474Z" fill="#080809"/>
<path d="M28.3527 0.0364289C20.0732 -0.4541 11.1759 3.86137 2.36752 22.0079C-6.00777 39.2618 8.95138 67.1554 29.7509 33.6813C32.4794 34.4121 34.5473 35.2681 34.5473 35.2681L34.0773 27.5716C34.0773 27.5716 27.7678 27.0552 22.8027 26.1695C10.3536 23.9492 15.4404 39.8944 17.0482 35.7517C18.2249 32.7172 21.9624 32.3478 25.681 32.8443C26.2638 34.2116 26.3796 36.1012 24.6061 38.2718C22.2119 40.511 19.2179 42.4463 15.5792 43.2923C4.22282 45.9306 13.2009 22.5968 18.9265 15.2398C24.6521 7.8829 32.8946 4.22084 31.699 6.51063C29.3028 11.0982 22.5632 13.5528 23.9764 19.3597C25.7678 26.7166 33.8567 23.0376 32.2269 21.714C31.8247 21.3873 31.8746 21.1252 35.4864 15.2408C39.0992 9.3545 36.6322 0.526957 28.3527 0.0364289Z" fill="#080809"/>
<path d="M118.856 14.583C115.03 15.1897 111.227 22.3143 108.637 28.4111C108.636 25.7262 107.912 23.628 106.088 22.4255C102.92 20.3383 99.1756 21.5864 100.822 23.489C101.793 24.7232 99.8213 29.5938 97.97 34.6172C96.1187 39.6417 96.0238 42.4776 98.5678 44.1547C101.112 45.8318 104.861 45.9242 107.611 35.1733C107.837 34.2876 108.028 33.4316 108.187 32.6015C111.363 25.2585 115.684 17.0386 116.691 17.7655C118.617 19.7673 111.12 31.4288 108.16 39.2643C105.2 47.0999 107.034 52.1333 112.062 51.7798C116.2 51.4888 119.835 42.8053 120.994 39.74C120.994 39.74 122.347 37.6815 120.994 36.3351C119.641 34.9886 116.3 39.2018 120.053 39.4927C118.588 42.5511 115.381 48.8177 114.116 47.9052C111.595 46.0861 119.393 30.7387 122.256 25.2257C125.12 19.7127 124.771 13.6446 118.856 14.583Z" fill="#080809"/>
<path d="M41.4842 58.53C42.6379 58.3552 43.2168 58.2748 44.3744 58.1278C44.4653 58.6988 44.5102 58.9838 44.601 59.5537C43.4603 59.6987 42.8904 59.7781 41.7537 59.9499C42.0651 61.5933 42.2207 62.4145 42.5321 64.0568C41.6888 64.1849 41.2677 64.2525 40.4263 64.3954C39.58 60.4315 39.1569 58.4495 38.3105 54.4846C40.7766 54.0636 42.0152 53.8838 44.4982 53.585C44.584 54.1569 44.6279 54.4419 44.7138 55.0138C43.1918 55.1975 42.4313 55.3008 40.9144 55.5302C41.1429 56.7307 41.2567 57.3305 41.4842 58.53Z" fill="white"/>
<path d="M55.3294 62.8441C55.2017 62.5899 55.1149 62.434 55.0729 61.6138C55.041 60.9803 55.025 60.6635 54.9921 60.03C54.9442 59.0946 54.4821 58.763 53.4721 58.8166C53.1647 58.8325 53.011 58.8415 52.7037 58.8593C52.8244 60.4987 52.8853 61.3189 53.0071 62.9583C52.1568 63.009 51.7316 63.0377 50.8823 63.1033C50.4921 59.0827 50.2965 57.072 49.9062 53.0514C51.3284 52.9412 52.04 52.8955 53.4641 52.825C55.9103 52.7039 56.9851 53.4625 57.029 55.0185C57.038 55.3353 57.042 55.4941 57.051 55.8109C57.0799 56.8486 56.6248 57.5188 55.6398 57.8842C55.6398 57.8962 55.6408 57.9021 55.6408 57.914C56.7755 58.206 57.1598 58.9527 57.1887 60.0042C57.2057 60.6268 57.2147 60.9386 57.2316 61.5612C57.2456 62.0507 57.2745 62.4102 57.4971 62.7806C56.6298 62.7975 56.1967 62.8104 55.3294 62.8441ZM52.3703 54.3284C52.4621 55.5646 52.5071 56.1833 52.5989 57.4195C52.9522 57.3987 53.1278 57.3887 53.4811 57.3709C54.3214 57.3272 54.8204 57.0491 54.7795 56.2428C54.7596 55.8456 54.7496 55.6471 54.7286 55.2499C54.6917 54.53 54.3164 54.2261 53.4911 54.2678C53.042 54.2897 52.8184 54.3016 52.3703 54.3284Z" fill="white"/>
<path d="M64.9664 57.0255C66.2089 57.0772 66.8297 57.1109 68.0702 57.1944C68.0223 57.7693 67.9983 58.0562 67.9494 58.6312C66.7269 58.5497 66.1151 58.516 64.8905 58.4654C64.8287 59.646 64.7977 60.2368 64.7368 61.4175C66.2299 61.48 66.9764 61.5227 68.4674 61.6319C68.4145 62.2069 68.3886 62.4938 68.3347 63.0688C66.0163 62.898 64.8546 62.8424 62.5312 62.7888C62.649 58.7543 62.7069 56.7366 62.8247 52.7031C65.4015 52.7627 66.689 52.8253 69.2598 53.0139C69.2069 53.5889 69.181 53.8758 69.1271 54.4508C67.5223 54.3326 66.7189 54.2869 65.1111 54.2194C65.0542 55.3405 65.0253 55.9025 64.9664 57.0255Z" fill="white"/>
<path d="M76.6137 58.0676C77.8462 58.2374 78.462 58.3298 79.6896 58.5313C79.5728 59.0983 79.5149 59.3813 79.3991 59.9483C78.1886 59.7497 77.5828 59.6583 76.3682 59.4915C76.1666 60.6593 76.0658 61.2441 75.8642 62.4119C77.3462 62.6154 78.0848 62.7296 79.5598 62.9808C79.4391 63.5468 79.3782 63.8308 79.2574 64.3968C76.964 64.0056 75.8123 63.8398 73.5039 63.5647C74.0997 59.564 74.3971 57.5642 74.9929 53.5635C77.5528 53.8683 78.8303 54.052 81.3732 54.486C81.2524 55.052 81.1916 55.3359 81.0708 55.9019C79.483 55.6309 78.6876 55.5087 77.0927 55.2893C76.9011 56.4004 76.8053 56.9555 76.6137 58.0676Z" fill="white"/>
<path d="M27.1005 63.0961C27.9273 63.0961 28.5975 62.4293 28.5975 61.6066C28.5975 60.784 27.9273 60.1172 27.1005 60.1172C26.2738 60.1172 25.6035 60.784 25.6035 61.6066C25.6035 62.4293 26.2738 63.0961 27.1005 63.0961Z" fill="white"/>
<path d="M93.2919 63.0961C94.1187 63.0961 94.7889 62.4293 94.7889 61.6066C94.7889 60.784 94.1187 60.1172 93.2919 60.1172C92.4652 60.1172 91.7949 60.784 91.7949 61.6066C91.7949 62.4293 92.4652 63.0961 93.2919 63.0961Z" fill="white"/>
</svg>
