<svg width="160" height="132" viewBox="0 0 160 132" fill="none" xmlns="http://www.w3.org/2000/svg">
<path d="M73.2527 131.999C52.1916 131.999 33.0006 120.355 23.168 101.61L25.1578 100.554C34.6001 118.555 53.0283 129.738 73.2527 129.738C93.477 129.738 111.906 118.555 121.347 100.553L123.337 101.609C113.506 120.354 94.3137 131.999 73.2527 131.999Z" fill="#017D03"/>
<path d="M20.8961 60.4367L18.7285 59.8304C25.5059 35.3275 47.9269 18.2139 73.2523 18.2139V20.4755C48.9333 20.4755 27.404 36.9085 20.8961 60.4367Z" fill="#017D03"/>
<path d="M73.2501 108.139C91.3947 108.139 106.104 93.3507 106.104 75.1078C106.104 56.8649 91.3947 42.0762 73.2501 42.0762C55.1056 42.0762 40.3965 56.8649 40.3965 75.1078C40.3965 93.3507 55.1056 108.139 73.2501 108.139Z" fill="#017D03"/>
<path d="M111.41 62.0714L113.161 53.7364H111.903L112.059 53.1231C112.241 53.1231 112.445 53.114 112.669 53.097C112.894 53.0789 113.144 53.0347 113.421 52.9635C113.698 52.8912 114.003 52.7868 114.337 52.6503C114.669 52.5138 115.036 52.323 115.439 52.0791L113.324 62.0704H111.41V62.0714Z" fill="#017D03"/>
<path d="M118.364 62.2077C117.845 62.2077 117.413 62.1203 117.067 61.9466C116.722 61.773 116.446 61.5351 116.244 61.2359C116.04 60.9358 115.896 60.5824 115.812 60.1759C115.728 59.7693 115.686 59.3336 115.686 58.8678C115.686 58.2545 115.733 57.6582 115.831 57.077C115.928 56.4967 116.07 55.9507 116.256 55.4407C116.441 54.9298 116.667 54.462 116.934 54.0383C117.199 53.6147 117.5 53.2503 117.835 52.9461C118.171 52.642 118.537 52.4051 118.934 52.2354C119.333 52.0658 119.756 51.9814 120.205 51.9814C120.643 51.9814 121.022 52.0588 121.344 52.2123C121.666 52.3669 121.932 52.5838 122.141 52.8648C122.351 53.1449 122.507 53.4842 122.609 53.8787C122.711 54.2742 122.761 54.7139 122.761 55.1968C122.761 55.523 122.742 55.8714 122.707 56.2438C122.67 56.6152 122.612 56.9957 122.535 57.3852C122.457 57.7736 122.356 58.1642 122.233 58.5557C122.11 58.9462 121.962 59.3206 121.789 59.677C121.616 60.0333 121.418 60.3656 121.193 60.6748C120.968 60.984 120.714 61.251 120.431 61.4769C120.148 61.7027 119.834 61.8814 119.491 62.0119C119.145 62.1424 118.771 62.2077 118.364 62.2077ZM120.187 52.7775C119.975 52.7775 119.766 52.8678 119.56 53.0485C119.355 53.2292 119.159 53.4752 118.973 53.7854C118.788 54.0966 118.615 54.46 118.454 54.8776C118.294 55.2952 118.157 55.7419 118.043 56.2177C117.929 56.6945 117.837 57.1864 117.77 57.6953C117.703 58.2043 117.669 58.7062 117.669 59.2011C117.669 59.4531 117.681 59.699 117.705 59.9379C117.729 60.1769 117.772 60.3907 117.835 60.5764C117.898 60.7641 117.986 60.9137 118.098 61.0261C118.21 61.1396 118.357 61.1958 118.539 61.1958C118.755 61.1958 118.965 61.1084 119.171 60.9318C119.377 60.7561 119.569 60.5142 119.749 60.208C119.928 59.9018 120.093 59.5404 120.241 59.1248C120.391 58.7092 120.518 58.2615 120.624 57.7817C120.73 57.3009 120.813 56.8019 120.87 56.2809C120.928 55.7619 120.958 55.243 120.958 54.726C120.958 54.465 120.943 54.217 120.913 53.9831C120.883 53.7482 120.837 53.5404 120.774 53.3607C120.711 53.18 120.631 53.0375 120.534 52.9331C120.437 52.8297 120.321 52.7775 120.187 52.7775Z" fill="#017D03"/>
<path d="M125.746 62.2077C125.227 62.2077 124.795 62.1203 124.449 61.9466C124.104 61.773 123.829 61.5351 123.626 61.2359C123.422 60.9358 123.278 60.5824 123.194 60.1759C123.11 59.7693 123.068 59.3336 123.068 58.8678C123.068 58.2545 123.116 57.6582 123.214 57.077C123.311 56.4967 123.453 55.9507 123.639 55.4407C123.825 54.9298 124.051 54.462 124.316 54.0383C124.582 53.6147 124.883 53.2503 125.218 52.9461C125.553 52.642 125.92 52.4051 126.317 52.2354C126.716 52.0658 127.139 51.9814 127.588 51.9814C128.026 51.9814 128.405 52.0588 128.727 52.2123C129.049 52.3669 129.315 52.5838 129.524 52.8648C129.734 53.1449 129.89 53.4842 129.992 53.8787C130.093 54.2742 130.144 54.7139 130.144 55.1968C130.144 55.523 130.125 55.8714 130.089 56.2438C130.052 56.6152 129.995 56.9957 129.918 57.3852C129.84 57.7736 129.739 58.1642 129.615 58.5557C129.492 58.9462 129.344 59.3206 129.171 59.677C128.998 60.0333 128.799 60.3656 128.575 60.6748C128.349 60.984 128.096 61.251 127.813 61.4769C127.529 61.7027 127.216 61.8814 126.872 62.0119C126.528 62.1424 126.153 62.2077 125.746 62.2077ZM127.569 52.7775C127.358 52.7775 127.149 52.8678 126.943 53.0485C126.738 53.2292 126.542 53.4752 126.356 53.7854C126.171 54.0966 125.998 54.46 125.837 54.8776C125.677 55.2952 125.541 55.7419 125.426 56.2177C125.312 56.6945 125.22 57.1864 125.153 57.6953C125.086 58.2043 125.052 58.7062 125.052 59.2011C125.052 59.4531 125.064 59.699 125.088 59.9379C125.112 60.1769 125.155 60.3907 125.218 60.5764C125.281 60.7641 125.369 60.9137 125.481 61.0261C125.592 61.1396 125.74 61.1958 125.922 61.1958C126.138 61.1958 126.348 61.1084 126.554 60.9318C126.76 60.7561 126.952 60.5142 127.132 60.208C127.311 59.9018 127.475 59.5404 127.624 59.1248C127.774 58.7092 127.901 58.2615 128.007 57.7817C128.113 57.3009 128.195 56.8019 128.253 56.2809C128.311 55.7619 128.341 55.243 128.341 54.726C128.341 54.465 128.326 54.217 128.296 53.9831C128.266 53.7482 128.219 53.5404 128.156 53.3607C128.094 53.18 128.014 53.0375 127.917 52.9331C127.819 52.8297 127.703 52.7775 127.569 52.7775Z" fill="#017D03"/>
<path d="M133.004 51.877C133.519 51.877 133.904 52.0446 134.162 52.3789C134.418 52.7142 134.548 53.2111 134.548 53.8726C134.548 54.3775 134.477 54.8513 134.334 55.294C134.192 55.7377 133.997 56.1252 133.75 56.4585C133.504 56.7918 133.215 57.0528 132.885 57.2445C132.554 57.4353 132.201 57.5306 131.824 57.5306C130.813 57.5306 130.307 56.8681 130.307 55.542C130.307 55.029 130.376 54.5502 130.514 54.1045C130.653 53.6588 130.845 53.2703 131.088 52.94C131.332 52.6098 131.619 52.3498 131.948 52.161C132.276 51.9713 132.629 51.877 133.004 51.877ZM131.533 55.8753C131.533 56.2577 131.57 56.5388 131.646 56.7165C131.721 56.8952 131.843 56.9835 132.012 56.9835C132.185 56.9835 132.351 56.8882 132.511 56.6964C132.671 56.5047 132.813 56.2467 132.937 55.9205C133.059 55.5942 133.156 55.2158 133.228 54.7861C133.3 54.3555 133.335 53.9027 133.335 53.4289C133.335 53.0725 133.304 52.8186 133.241 52.666C133.178 52.5144 133.073 52.4381 132.927 52.4381C132.754 52.4381 132.584 52.5375 132.417 52.7383C132.251 52.938 132.102 53.199 131.97 53.5213C131.838 53.8435 131.732 54.2109 131.653 54.6245C131.572 55.0361 131.533 55.4537 131.533 55.8753ZM132.589 62.071H131.636L137.162 52.0275H138.115L132.589 62.071ZM137.954 56.5007C138.469 56.5007 138.854 56.6673 139.112 56.9996C139.369 57.3319 139.498 57.8288 139.498 58.4903C139.498 58.9942 139.426 59.4681 139.284 59.9118C139.141 60.3555 138.946 60.7429 138.7 61.0762C138.453 61.4085 138.164 61.6705 137.834 61.8622C137.503 62.054 137.15 62.1493 136.774 62.1493C135.762 62.1493 135.256 61.4858 135.256 60.1597C135.256 59.6508 135.325 59.1739 135.464 58.7282C135.602 58.2825 135.794 57.894 136.038 57.5638C136.281 57.2335 136.568 56.9735 136.897 56.7848C137.226 56.595 137.578 56.5007 137.954 56.5007ZM136.482 60.493C136.482 60.8755 136.519 61.1565 136.595 61.3342C136.671 61.5129 136.794 61.6023 136.961 61.6023C137.134 61.6023 137.301 61.5059 137.46 61.3151C137.62 61.1234 137.762 60.8654 137.886 60.5392C138.009 60.2139 138.106 59.8365 138.177 59.4078C138.248 58.9802 138.284 58.5284 138.284 58.0546C138.284 57.6983 138.253 57.4443 138.19 57.2917C138.127 57.1401 138.023 57.0638 137.876 57.0638C137.759 57.0638 137.644 57.11 137.532 57.2004C137.42 57.2917 137.312 57.4172 137.208 57.5758C137.104 57.7344 137.008 57.9231 136.919 58.143C136.83 58.3618 136.754 58.5987 136.69 58.8537C136.624 59.1087 136.574 59.3747 136.537 59.6528C136.5 59.9298 136.482 60.2099 136.482 60.493Z" fill="#017D03"/>
<path d="M150.353 55.2701C146.639 59.4823 137.42 70.5828 132.958 80.811C132.569 81.7034 132.214 82.5878 131.907 83.4612C131.272 85.247 130.825 86.9807 130.609 88.625C129.367 89.8346 127.963 90.9499 126.411 91.7941C123.878 93.1001 123.424 91.0764 126.801 85.9828C130.177 80.8903 132.386 79.3875 131.671 77.69C131.101 76.3338 129.742 73.5642 128.028 73.2691C128.13 72.1498 127.87 70.9301 126.801 69.855C123.845 66.8836 118.747 68.288 113.942 73.6425C110.556 77.415 107.399 82.5477 106.485 87.0329C102.881 90.453 98.6845 93.33 98.2033 92.1876C96.4131 88.0959 111.283 73.7309 112.395 72.6086C113.511 71.4903 112.492 68.81 111.523 66.472C110.922 65.0265 108.508 64.5858 105.218 64.6872C106.214 59.3337 101.146 56.7387 96.7975 57.4123C91.7594 58.1913 86.5785 63.5027 90.112 67.0563C92.5302 69.4876 97.3237 69.7566 100.471 70.0407C100.492 70.0427 100.51 70.0448 100.53 70.0468C96.7466 75.6974 88.187 88.0207 83.67 90.8505C77.7603 94.5517 82.1195 85.8825 86.4796 80.3302C90.8398 74.7779 92.2925 72.5373 91.1303 70.3941C89.9681 68.2509 87.1586 67.3745 86.4796 68.0561C85.8017 68.7377 86.3827 69.7717 82.0226 75.7326C79.3537 79.3815 77.309 82.7525 76.4304 85.9256C75.5198 86.8652 74.4215 87.7918 73.0985 88.6199C67.1888 92.3211 69.3305 85.8825 73.6896 80.3302C78.0498 74.7779 79.5025 72.5373 78.3403 70.3941C77.1782 68.2509 74.3676 67.3745 73.6896 68.0561C73.0117 68.7377 73.5928 69.7717 69.2326 75.7326C66.437 79.5552 64.1216 83.1419 63.3038 86.4526C61.0204 89.6399 58.731 92.1394 58.057 91.2791C56.3527 89.1199 63.3059 76.0809 68.7663 66.0143C73.0127 66.4199 77.4257 66.3024 80.6188 64.5336C86.188 61.4478 84.6345 54.8093 83.5432 55.776C81.0381 59.1199 76.5761 60.2351 71.8146 60.3807C73.44 57.3441 74.5902 55.0814 74.7669 54.2723C75.5228 50.809 68.6036 47.4351 68.5456 49.4056C68.4778 51.7245 66.8324 55.5723 64.5809 60.0203C59.8632 59.4933 55.6987 58.6129 53.8287 58.6902C45.288 59.0456 43.9461 65.8256 46.4812 64.7766C50.6207 63.063 54.5086 63.7235 60.1348 64.7023C60.7059 64.8016 61.316 64.9111 61.954 65.0235C60.0889 68.4868 58.088 72.0926 56.3218 75.4866C54.1652 79.6305 52.6325 84.0253 52.0644 87.6824C50.5947 89.2132 48.8864 90.6507 46.9654 91.6958C44.2826 93.0791 43.8004 90.9348 47.3788 85.5391C50.9562 80.1434 53.2955 78.5524 52.5387 76.7545C51.9346 75.318 50.4949 72.3837 48.6787 72.0705C48.7866 70.884 48.511 69.592 47.3788 68.4536C44.2487 65.3066 38.8481 66.7933 33.7561 72.465C30.3833 76.2234 27.2233 81.2567 26.0541 85.7951C23.9484 88.1552 21.9505 90.0404 21.7369 89.5947C20.5896 86.5972 31.1811 72.5152 32.3643 70.2144C33.5474 67.9136 29.2361 65.4331 27.7285 64.9863C26.2208 64.5396 10.3716 84.6136 10.3716 84.6136C10.3716 84.6136 18.1595 72.5383 17.778 69.3099C17.3966 66.0815 11.7605 65.2915 11.9392 66.8033C12.3286 70.101 1.69519 85.6506 0.218496 91.3303C-1.2582 97.0101 5.22666 98.534 5.42136 97.25C6.78323 90.6026 22.9939 71.8216 23.1067 72.7833C23.2205 73.7449 18.1015 82.0187 15.278 87.4414C12.4544 92.8632 14.9834 96.6718 18.5988 95.6127C20.351 95.0998 23.1676 91.76 25.6068 88.4543C25.515 89.7714 25.6427 91.0081 26.0511 92.1113C28.046 97.507 34.3072 97.0222 40.155 88.099C40.155 88.099 37.6779 93.5639 40.9808 95.2925C43.3211 96.5182 46.8396 95.8617 51.8248 90.5995C51.8368 93.9634 53.0579 96.1649 55.9174 95.9882C58.2707 95.8437 60.8038 93.1895 63.0533 89.9209C63.1321 90.5393 63.2839 91.1456 63.5185 91.7399C64.9752 95.429 69.8326 96.5012 75.974 88.6721C75.9251 89.7131 76.027 90.735 76.3065 91.7399C79.5215 103.288 93.5106 86.1334 102.063 70.2194C102.292 70.2546 102.507 70.2927 102.687 70.3389C103.013 70.4252 103.253 70.5256 103.385 70.6581C104.501 71.7804 101.06 75.334 96.3122 81.7627C91.5647 88.1913 88.7551 96.2763 96.2154 95.2052C99.5402 94.7274 103.21 91.7339 106.261 88.5627C106.15 89.8698 106.266 91.0965 106.668 92.1846C108.551 97.2782 114.462 96.8204 119.981 88.3971C119.981 88.3971 117.643 93.5559 120.761 95.1881C122.889 96.3024 126.045 95.7704 130.477 91.2972C130.495 91.6998 130.527 92.0963 130.584 92.4818C130.813 96.2904 139.848 98.3462 147.036 86.5922C150.339 81.1925 143.461 76.9603 143.114 81.1925C142.768 85.4247 142.288 91.0191 139.495 91.0191C134.822 91.0191 138.747 83.2042 142.858 75.7125C148.25 71.4501 153.95 66.1578 158.038 60.3174C163.781 52.0287 155.602 49.3123 150.353 55.2701ZM40.9808 83.4642C32.8624 92.5259 29.5606 94.2546 31.1421 88.7213C32.6867 83.3206 41.0087 72.975 45.9839 76.0919C45.4937 77.5776 44.2446 79.8212 40.9808 83.4642ZM98.3481 65.3989C91.8572 66.3727 92.2446 61.4056 95.0652 60.3335C97.5573 59.3869 102.897 59.8075 102.301 64.892C101.041 65.0165 99.7119 65.1921 98.3481 65.3989ZM120.762 84.0233C113.099 92.5771 109.981 94.2094 111.475 88.9864C112.932 83.8878 120.788 74.1224 125.485 77.0647C125.022 78.467 123.842 80.5842 120.762 84.0233ZM144.906 72.203C145.354 71.4833 145.806 70.7936 146.245 70.1562C151.536 62.4808 156.426 57.8691 156.527 59.5325C156.59 60.5463 152.203 66.0615 144.906 72.203Z" fill="#080809"/>
<path d="M43.0224 103.372C43.5137 103.716 44.1667 104.233 45.0543 104.978C45.9509 105.732 46.487 106.388 46.7057 107.037C46.9144 107.655 46.8644 108.368 46.4491 108.956C46.0337 109.544 45.4447 109.879 44.7697 109.891C43.8951 109.907 42.9036 109.45 41.9521 108.649C41.7414 108.472 41.5587 108.3 41.4259 108.157C40.743 108.956 40.4006 109.354 39.7176 110.152C39.0517 109.575 38.7232 109.278 38.0762 108.666C40.0551 106.549 41.0445 105.49 43.0224 103.372ZM42.2636 107.182C42.3745 107.321 42.5312 107.471 42.7578 107.662C43.5925 108.364 44.3953 108.415 44.8556 107.819C45.2689 107.284 45.0802 106.634 44.3334 106.009C44.0289 105.754 43.8032 105.603 43.6754 105.534C43.1103 106.194 42.8277 106.523 42.2636 107.182Z" fill="#017D03"/>
<path d="M50.7194 109.199C51.2756 109.43 52.0723 109.814 52.937 110.266C54.0043 110.824 54.6952 111.321 55.0547 111.938C55.3562 112.454 55.4051 113.034 55.1405 113.656C54.7741 114.521 53.7996 114.803 53.0178 114.69C53.0128 114.702 53.0098 114.708 53.0038 114.719C53.4731 115.168 53.5849 115.754 53.525 116.466C53.4521 117.338 53.3463 118.339 53.4042 118.672C52.6025 118.334 52.2041 118.157 51.4144 117.784C51.3634 117.53 51.4033 116.875 51.5661 115.956C51.7288 115.036 51.5132 114.635 50.7893 114.242C50.5737 114.128 50.4658 114.071 50.2512 113.954C49.705 114.974 49.4324 115.483 48.8863 116.503C48.1385 116.098 47.7671 115.887 47.0332 115.448C48.5069 112.949 49.2447 111.699 50.7194 109.199ZM50.8173 112.896C51.0908 113.045 51.2276 113.117 51.5032 113.261C52.3758 113.716 53.0797 113.585 53.3553 113.003C53.6449 112.391 53.3184 111.859 52.5556 111.459C52.1532 111.247 51.9056 111.153 51.7748 111.108C51.3924 111.822 51.2007 112.181 50.8173 112.896Z" fill="#017D03"/>
<path d="M65.8693 118.336C65.4979 120.721 63.4411 121.92 60.8002 121.26C58.1194 120.591 57.121 118.455 57.7959 116.47C58.5058 114.382 60.4767 113.353 62.7541 113.914C65.1224 114.498 66.1828 116.329 65.8693 118.336ZM59.7788 117.067C59.3744 118.451 59.8896 119.674 61.2225 120.004C62.5694 120.337 63.5589 119.43 63.8394 118.028C64.099 116.733 63.6298 115.492 62.3927 115.185C61.1786 114.884 60.1802 115.694 59.7788 117.067Z" fill="#017D03"/>
<path d="M69.9152 115.279C70.5802 115.231 71.4378 115.225 72.3414 115.243C73.843 115.274 74.8176 115.487 75.6203 115.976C76.48 116.5 77.101 117.352 77.2088 118.648C77.3256 120.052 76.7915 121.082 75.9508 121.723C75.0362 122.419 73.5455 122.777 71.7354 122.722C70.652 122.69 69.8872 122.583 69.373 122.49C69.5887 119.605 69.6975 118.164 69.9152 115.279ZM71.5057 121.382C71.6784 121.421 71.96 121.429 72.2136 121.436C74.0527 121.479 75.2229 120.58 75.16 118.83C75.1051 117.308 74.0887 116.551 72.5081 116.525C72.0978 116.518 71.8312 116.542 71.6734 116.569C71.6055 118.494 71.5726 119.457 71.5057 121.382Z" fill="#017D03"/>
<path d="M82.1736 114.392C82.5151 116.052 82.6858 116.883 83.0273 118.543C83.2829 119.784 83.9928 120.302 85.0132 120.056C86.0595 119.803 86.4679 119.047 86.1225 117.794C85.6732 116.16 85.4475 115.343 84.9982 113.708C85.6911 113.516 86.0366 113.412 86.7235 113.191C87.2257 114.764 87.4773 115.55 87.9795 117.123C88.6705 119.287 87.6201 120.8 85.2568 121.368C82.9744 121.916 81.4428 121.092 81.0634 118.775C80.7978 117.154 80.666 116.342 80.4004 114.721C81.1123 114.605 81.4667 114.539 82.1736 114.392Z" fill="#017D03"/>
<path d="M99.3599 115.269C99.0983 115.604 98.4104 116.202 97.39 116.746C94.4905 118.294 92.3139 117.399 91.5172 115.461C90.5627 113.138 91.8466 111.12 94.0093 109.953C94.8469 109.501 95.5579 109.28 95.9183 109.242C96.0581 109.774 96.125 110.041 96.2568 110.577C95.8504 110.652 95.3222 110.805 94.7321 111.125C93.4112 111.841 92.6904 113.047 93.3783 114.532C93.9973 115.871 95.3841 116.271 97.0266 115.38C97.5827 115.079 98.1398 114.634 98.4284 114.312C98.7988 114.697 98.9855 114.889 99.3599 115.269Z" fill="#017D03"/>
<path d="M101.066 107.152C100.336 107.721 99.9655 107.994 99.2146 108.521C98.8971 108.062 98.7384 107.832 98.4199 107.373C100.503 105.913 101.507 105.099 103.41 103.302C103.791 103.709 103.981 103.913 104.362 104.321C103.665 104.979 103.309 105.297 102.586 105.912C104.118 107.734 104.884 108.645 106.415 110.467C105.736 111.045 105.392 111.326 104.694 111.87C103.244 109.981 102.518 109.038 101.066 107.152Z" fill="#017D03"/>
<path d="M132.193 17.0423C121.463 27.141 106.661 19.3492 98.8555 22.8667C99.3168 20.594 99.5864 18.0713 99.5864 15.3458C99.5864 2.25063 92.6802 0 92.6802 0C92.6802 0 93.6816 7.75774 85.088 14.8369C79.1603 19.7226 77.8334 28.2262 82.8046 34.0505C82.0398 37.0249 81.3199 41.989 81.7253 49.5771C81.7253 49.5771 81.3429 52.9018 83.6154 49.5771C84.7286 48.2309 86.1464 46.9309 87.7659 45.7092C100.555 34.4571 116.829 32.0489 117.842 31.9123C104.108 36.6395 97.2361 41.8635 93.8953 45.392C94.1988 45.7875 94.5253 46.161 94.8847 46.5223C98.9005 50.616 107.156 53.3074 118.19 45.1089C127.357 38.3028 133.813 15.8327 132.193 17.0423ZM85.9088 36.4026C87.5282 37.0129 89.2605 36.8432 90.9369 35.9729C90.869 37.6122 91.0607 39.2525 91.533 40.8355C88.0354 43.2217 85.3576 45.6982 83.6932 47.4057C83.3448 44.8158 82.3992 40.3828 83.4686 36.0974C83.7501 33.4171 84.47 28.9279 86.2802 26.5297C88.969 22.967 91.6677 18.0371 92.163 17.1327C91.7356 18.0482 89.3174 23.2501 87.3156 27.6379C85.6841 31.2347 85.6731 34.4691 85.9088 36.4026Z" fill="#017D03"/>
</svg>
